<?xml version="1.0" encoding="UTF-8" standalone="no"?>
<svg
   xmlns:dc="http://purl.org/dc/elements/1.1/"
   xmlns:cc="http://creativecommons.org/ns#"
   xmlns:rdf="http://www.w3.org/1999/02/22-rdf-syntax-ns#"
   xmlns:svg="http://www.w3.org/2000/svg"
   xmlns="http://www.w3.org/2000/svg"
   xmlns:sodipodi="http://sodipodi.sourceforge.net/DTD/sodipodi-0.dtd"
   xmlns:inkscape="http://www.inkscape.org/namespaces/inkscape"
   version="1"
   viewBox="0 0 48 48"
   enable-background="new 0 0 48 48"
   id="svg12"
   sodipodi:docname="denoiser.svg"
   inkscape:version="0.92.1 r15371">
  <metadata
     id="metadata18">
    <rdf:RDF>
      <cc:Work
         rdf:about="">
        <dc:format>image/svg+xml</dc:format>
        <dc:type
           rdf:resource="http://purl.org/dc/dcmitype/StillImage" />
        <dc:title />
      </cc:Work>
    </rdf:RDF>
  </metadata>
  <defs
     id="defs16">
    <inkscape:perspective
       sodipodi:type="inkscape:persp3d"
       inkscape:vp_x="101.20842 : -0.75793538 : 1"
       inkscape:vp_y="-440.24332 : 1952.4983 : 0"
       inkscape:vp_z="117.10493 : 31.795885 : 1"
       inkscape:persp3d-origin="112.67862 : -0.10101252 : 1"
       id="perspective4515" />
  </defs>
  <sodipodi:namedview
     pagecolor="#ffffff"
     bordercolor="#666666"
     borderopacity="1"
     objecttolerance="10"
     gridtolerance="10"
     guidetolerance="10"
     inkscape:pageopacity="0"
     inkscape:pageshadow="2"
     inkscape:window-width="1877"
     inkscape:window-height="904"
     id="namedview14"
     showgrid="true"
     inkscape:zoom="11.42"
     inkscape:cx="9.704028"
     inkscape:cy="23.301938"
     inkscape:window-x="24"
     inkscape:window-y="41"
     inkscape:window-maximized="0"
     inkscape:current-layer="svg12">
    <inkscape:grid
       type="xygrid"
       id="grid4510" />
  </sodipodi:namedview>
  <path
     id="path6948"
     d="m 10,26.285714 c -1.2833333,0 -2.3333333,1.028572 -2.3333333,2.285715 0,1.257142 1.05,2.285714 2.3333333,2.285714 1.283333,0 2.333333,-1.028572 2.333333,-2.285714 0,-1.257143 -1.05,-2.285715 -2.333333,-2.285715 z m 0,9.142857 c -1.2833333,0 -2.3333333,1.028572 -2.3333333,2.285715 C 7.6666667,38.971429 8.7166667,40 10,40 c 1.283333,0 2.333333,-1.028571 2.333333,-2.285714 0,-1.257143 -1.05,-2.285715 -2.333333,-2.285715 z m 0,-18.285714 c -1.2833333,0 -2.3333333,1.028572 -2.3333333,2.285714 0,1.257143 1.05,2.285715 2.3333333,2.285715 1.283333,0 2.333333,-1.028572 2.333333,-2.285715 0,-1.257142 -1.05,-2.285714 -2.333333,-2.285714 z m -7,1.142857 c -0.6416667,0 -1.1666667,0.514286 -1.1666667,1.142857 0,0.628572 0.525,1.142858 1.1666667,1.142858 0.6416667,0 1.1666667,-0.514286 1.1666667,-1.142858 C 4.1666667,18.8 3.6416667,18.285714 3,18.285714 Z M 10,8 c -1.2833333,0 -2.3333333,1.0285714 -2.3333333,2.285714 0,1.257143 1.05,2.285715 2.3333333,2.285715 1.283333,0 2.333333,-1.028572 2.333333,-2.285715 C 12.333333,9.0285714 11.283333,8 10,8 Z m 35,12.571429 c 0.641667,0 1.166667,-0.514286 1.166667,-1.142858 0,-0.628571 -0.525,-1.142857 -1.166667,-1.142857 -0.641667,0 -1.166667,0.514286 -1.166667,1.142857 0,0.628572 0.525,1.142858 1.166667,1.142858 z m -16.333333,-8 C 29.95,12.571429 31,11.542857 31,10.285714 31,9.0285714 29.95,8 28.666667,8 c -1.283334,0 -2.333334,1.0285714 -2.333334,2.285714 0,1.257143 1.05,2.285715 2.333334,2.285715 z m 0,-7.9999998 c 0.641666,0 1.166666,-0.5142858 1.166666,-1.1428572 0,-0.6285714 -0.525,-1.1428571 -1.166666,-1.1428571 C 28.025,2.2857149 27.5,2.8000006 27.5,3.428572 c 0,0.6285714 0.525,1.1428572 1.166667,1.1428572 z M 3,27.428571 c -0.6416667,0 -1.1666667,0.514286 -1.1666667,1.142858 0,0.628571 0.525,1.142857 1.1666667,1.142857 0.6416667,0 1.1666667,-0.514286 1.1666667,-1.142857 0,-0.628572 -0.525,-1.142858 -1.1666667,-1.142858 z m 16.333333,16 c -0.641666,0 -1.166666,0.514286 -1.166666,1.142857 0,0.628572 0.525,1.142858 1.166666,1.142858 C 19.975,45.714286 20.5,45.2 20.5,44.571428 c 0,-0.628571 -0.525,-1.142857 -1.166667,-1.142857 z m 0,-38.8571418 C 19.975,4.5714292 20.5,4.0571434 20.5,3.428572 c 0,-0.6285714 -0.525,-1.1428571 -1.166667,-1.1428571 -0.641666,0 -1.166666,0.5142857 -1.166666,1.1428571 0,0.6285714 0.525,1.1428572 1.166666,1.1428572 z m 0,7.9999998 c 1.283334,0 2.333334,-1.028572 2.333334,-2.285715 C 21.666667,9.0285714 20.616667,8 19.333333,8 18.05,8 17,9.0285714 17,10.285714 c 0,1.257143 1.05,2.285715 2.333333,2.285715 z m 0,12.571428 c -1.936666,0 -3.5,1.531429 -3.5,3.428572 0,1.897142 1.563334,3.428571 3.5,3.428571 1.936667,0 3.5,-1.531429 3.5,-3.428571 0,-1.897143 -1.563333,-3.428572 -3.5,-3.428572 z M 38,26.285714 c -1.283333,0 -2.333333,1.028572 -2.333333,2.285715 0,1.257142 1.05,2.285714 2.333333,2.285714 1.283333,0 2.333333,-1.028572 2.333333,-2.285714 0,-1.257143 -1.05,-2.285715 -2.333333,-2.285715 z m 0,9.142857 c -1.283333,0 -2.333333,1.028572 -2.333333,2.285715 0,1.257143 1.05,2.285714 2.333333,2.285714 1.283333,0 2.333333,-1.028571 2.333333,-2.285714 0,-1.257143 -1.05,-2.285715 -2.333333,-2.285715 z m 0,-18.285714 c -1.283333,0 -2.333333,1.028572 -2.333333,2.285714 0,1.257143 1.05,2.285715 2.333333,2.285715 1.283333,0 2.333333,-1.028572 2.333333,-2.285715 0,-1.257142 -1.05,-2.285714 -2.333333,-2.285714 z M 38,8 c -1.283333,0 -2.333333,1.0285714 -2.333333,2.285714 0,1.257143 1.05,2.285715 2.333333,2.285715 1.283333,0 2.333333,-1.028572 2.333333,-2.285715 C 40.333333,9.0285714 39.283333,8 38,8 Z m 7,19.428571 c -0.641667,0 -1.166667,0.514286 -1.166667,1.142858 0,0.628571 0.525,1.142857 1.166667,1.142857 0.641667,0 1.166667,-0.514286 1.166667,-1.142857 0,-0.628572 -0.525,-1.142858 -1.166667,-1.142858 z m -16.333333,8 c -1.283334,0 -2.333334,1.028572 -2.333334,2.285715 0,1.257143 1.05,2.285714 2.333334,2.285714 C 29.95,40 31,38.971429 31,37.714286 31,36.457143 29.95,35.428571 28.666667,35.428571 Z m 0,8 C 28.025,43.428571 27.5,43.942857 27.5,44.571428 c 0,0.628572 0.525,1.142858 1.166667,1.142858 0.641666,0 1.166666,-0.514286 1.166666,-1.142858 0,-0.628571 -0.525,-1.142857 -1.166666,-1.142857 z M 19.333333,16 c -1.936666,0 -3.5,1.531429 -3.5,3.428571 0,1.897143 1.563334,3.428572 3.5,3.428572 1.936667,0 3.5,-1.531429 3.5,-3.428572 C 22.833333,17.531429 21.27,16 19.333333,16 Z m 0,19.428571 C 18.05,35.428571 17,36.457143 17,37.714286 17,38.971429 18.05,40 19.333333,40 c 1.283334,0 2.333334,-1.028571 2.333334,-2.285714 0,-1.257143 -1.05,-2.285715 -2.333334,-2.285715 z m 9.333334,-10.285714 c -1.936667,0 -3.5,1.531429 -3.5,3.428572 0,1.897142 1.563333,3.428571 3.5,3.428571 1.936666,0 3.5,-1.531429 3.5,-3.428571 0,-1.897143 -1.563334,-3.428572 -3.5,-3.428572 z m 0,-9.142857 c -1.936667,0 -3.5,1.531429 -3.5,3.428571 0,1.897143 1.563333,3.428572 3.5,3.428572 1.936666,0 3.5,-1.531429 3.5,-3.428572 0,-1.897142 -1.563334,-3.428571 -3.5,-3.428571 z"
     inkscape:connector-curvature="0"
     style="fill:#ef2929;stroke-width:1.15470052" />
</svg>
