<?xml version="1.0" encoding="UTF-8" standalone="no"?>
<svg
   xmlns:dc="http://purl.org/dc/elements/1.1/"
   xmlns:cc="http://creativecommons.org/ns#"
   xmlns:rdf="http://www.w3.org/1999/02/22-rdf-syntax-ns#"
   xmlns:svg="http://www.w3.org/2000/svg"
   xmlns="http://www.w3.org/2000/svg"
   xmlns:sodipodi="http://sodipodi.sourceforge.net/DTD/sodipodi-0.dtd"
   xmlns:inkscape="http://www.inkscape.org/namespaces/inkscape"
   version="1"
   viewBox="0 0 48 48"
   enable-background="new 0 0 48 48"
   id="svg12"
   sodipodi:docname="cut.svg"
   inkscape:version="0.92.1 r15371">
  <metadata
     id="metadata18">
    <rdf:RDF>
      <cc:Work
         rdf:about="">
        <dc:format>image/svg+xml</dc:format>
        <dc:type
           rdf:resource="http://purl.org/dc/dcmitype/StillImage" />
        <dc:title />
      </cc:Work>
    </rdf:RDF>
  </metadata>
  <defs
     id="defs16">
    <inkscape:perspective
       sodipodi:type="inkscape:persp3d"
       inkscape:vp_x="101.20842 : -0.75793538 : 1"
       inkscape:vp_y="-440.24332 : 1952.4983 : 0"
       inkscape:vp_z="117.10493 : 31.795885 : 1"
       inkscape:persp3d-origin="112.67862 : -0.10101252 : 1"
       id="perspective4515" />
  </defs>
  <sodipodi:namedview
     pagecolor="#ffffff"
     bordercolor="#666666"
     borderopacity="1"
     objecttolerance="10"
     gridtolerance="10"
     guidetolerance="10"
     inkscape:pageopacity="0"
     inkscape:pageshadow="2"
     inkscape:window-width="1877"
     inkscape:window-height="904"
     id="namedview14"
     showgrid="true"
     inkscape:zoom="12.24"
     inkscape:cx="-1.0179736"
     inkscape:cy="19.710664"
     inkscape:window-x="41"
     inkscape:window-y="49"
     inkscape:window-maximized="0"
     inkscape:current-layer="svg12"
     inkscape:measure-start="37,16"
     inkscape:measure-end="41,16">
    <inkscape:grid
       type="xygrid"
       id="grid4510" />
  </sodipodi:namedview>
  <path
     style="opacity:1;fill:#2e3436;fill-opacity:1;fill-rule:nonzero;stroke:none;stroke-width:0.71896917;stroke-linecap:square;stroke-linejoin:round;stroke-miterlimit:4;stroke-dasharray:none;stroke-dashoffset:0;stroke-opacity:1;paint-order:stroke fill markers"
     d="m 41.486356,1.6244787 c 0,0 1.897204,5.8060913 0.0554,8.2309478 -7.026187,9.2504455 -21.40779,27.1280675 -21.40779,27.1280675 l -4.913062,-2.075289 z"
     id="rect4504"
     inkscape:connector-curvature="0"
     sodipodi:nodetypes="csccc" />
  <path
     style="opacity:1;fill:#3465a4;fill-opacity:1;fill-rule:nonzero;stroke:none;stroke-width:0.70399964;stroke-linecap:square;stroke-linejoin:round;stroke-miterlimit:4;stroke-dasharray:none;stroke-dashoffset:0;stroke-opacity:1;paint-order:stroke fill markers"
     d="M 2.507,40.172453 A 9.6166241,7.0357288 0 0 0 12.126257,47.208 9.6166241,7.0357288 0 0 0 21.742631,40.172453 9.6166241,7.0357288 0 0 0 12.126257,33.136907 9.6166241,7.0357288 0 0 0 2.507,40.172453 Z m 3.7768341,0.02108 a 5.811485,4.2518073 0 0 1 5.8107339,-4.251257 5.811485,4.2518073 0 0 1 5.810733,4.251257 5.811485,4.2518073 0 0 1 -5.810733,4.253365 5.811485,4.2518073 0 0 1 -5.8107339,-4.253365 z"
     id="path4497"
     inkscape:connector-curvature="0" />
  <path
     style="opacity:1;fill:#2e3436;fill-opacity:1;fill-rule:nonzero;stroke:none;stroke-width:0.71897113;stroke-linecap:square;stroke-linejoin:round;stroke-miterlimit:4;stroke-dasharray:none;stroke-dashoffset:0;stroke-opacity:1;paint-order:stroke fill markers"
     d="m 6.5246786,1.6239575 c 0,0 -1.8982029,5.8072605 -0.056382,8.2321296 C 9.7781519,14.213732 14.692481,20.442443 18.994528,25.858308 l 3.326787,-4.216106 z M 24.021364,23.795634 20.700207,28.003488 c 3.77667,4.740144 7.175166,8.98088 7.175166,8.98088 l 4.914068,-2.077112 z"
     id="path4522"
     inkscape:connector-curvature="0" />
  <path
     id="path4502"
     d="M 26.107164,40.172453 A 9.6166241,7.0357288 0 0 0 35.72642,47.208 9.6166241,7.0357288 0 0 0 45.342794,40.172453 9.6166241,7.0357288 0 0 0 35.72642,33.136907 9.6166241,7.0357288 0 0 0 26.107164,40.172453 Z m 3.776833,0.02108 a 5.811485,4.2518073 0 0 1 5.810734,-4.251257 5.811485,4.2518073 0 0 1 5.810734,4.251257 5.811485,4.2518073 0 0 1 -5.810734,4.253365 5.811485,4.2518073 0 0 1 -5.810734,-4.253365 z"
     style="opacity:1;fill:#3465a4;fill-opacity:1;fill-rule:nonzero;stroke:none;stroke-width:0.70399964;stroke-linecap:square;stroke-linejoin:round;stroke-miterlimit:4;stroke-dasharray:none;stroke-dashoffset:0;stroke-opacity:1;paint-order:stroke fill markers"
     inkscape:connector-curvature="0" />
  <ellipse
     style="opacity:1;fill:#eeeeec;fill-opacity:1;fill-rule:nonzero;stroke:#000000;stroke-width:0.29364437;stroke-linecap:square;stroke-linejoin:round;stroke-miterlimit:4;stroke-dasharray:none;stroke-dashoffset:0;stroke-opacity:1;paint-order:stroke fill markers"
     id="path4524"
     cx="23.892855"
     cy="25.85457"
     rx="1.7165183"
     ry="1.2558417" />
  <path
     style="display:none;fill:none;stroke:#000000;stroke-width:0.211;stroke-linecap:butt;stroke-linejoin:miter;stroke-miterlimit:4;stroke-dasharray:none;stroke-opacity:1"
     d="M 24,47 V 3"
     id="path4488"
     inkscape:connector-curvature="0" />
</svg>
