<?xml version="1.0" encoding="UTF-8" standalone="no"?>
<svg
   xmlns:dc="http://purl.org/dc/elements/1.1/"
   xmlns:cc="http://creativecommons.org/ns#"
   xmlns:rdf="http://www.w3.org/1999/02/22-rdf-syntax-ns#"
   xmlns:svg="http://www.w3.org/2000/svg"
   xmlns="http://www.w3.org/2000/svg"
   xmlns:sodipodi="http://sodipodi.sourceforge.net/DTD/sodipodi-0.dtd"
   xmlns:inkscape="http://www.inkscape.org/namespaces/inkscape"
   version="1"
   viewBox="0 0 48 48"
   enable-background="new 0 0 48 48"
   id="svg12"
   sodipodi:docname="delprf.svg"
   inkscape:version="0.92.1 r15371">
  <metadata
     id="metadata18">
    <rdf:RDF>
      <cc:Work
         rdf:about="">
        <dc:format>image/svg+xml</dc:format>
        <dc:type
           rdf:resource="http://purl.org/dc/dcmitype/StillImage" />
        <dc:title />
      </cc:Work>
    </rdf:RDF>
  </metadata>
  <defs
     id="defs16">
    <inkscape:perspective
       sodipodi:type="inkscape:persp3d"
       inkscape:vp_x="101.20842 : -0.75793538 : 1"
       inkscape:vp_y="-440.24332 : 1952.4983 : 0"
       inkscape:vp_z="117.10493 : 31.795885 : 1"
       inkscape:persp3d-origin="112.67862 : -0.10101252 : 1"
       id="perspective4515" />
  </defs>
  <sodipodi:namedview
     pagecolor="#ffffff"
     bordercolor="#666666"
     borderopacity="1"
     objecttolerance="10"
     gridtolerance="10"
     guidetolerance="10"
     inkscape:pageopacity="0"
     inkscape:pageshadow="2"
     inkscape:window-width="1877"
     inkscape:window-height="904"
     id="namedview14"
     showgrid="true"
     inkscape:zoom="11.42"
     inkscape:cx="-8.0718039"
     inkscape:cy="24.002463"
     inkscape:window-x="41"
     inkscape:window-y="49"
     inkscape:window-maximized="0"
     inkscape:current-layer="svg12"
     inkscape:measure-start="37,16"
     inkscape:measure-end="41,16">
    <inkscape:grid
       type="xygrid"
       id="grid4510" />
  </sodipodi:namedview>
  <rect
     style="display:inline;opacity:1;fill:#555753;fill-opacity:1;fill-rule:nonzero;stroke:none;stroke-width:1.01552558;stroke-linecap:square;stroke-linejoin:round;stroke-miterlimit:4;stroke-dasharray:none;stroke-dashoffset:0;stroke-opacity:1;paint-order:stroke fill markers"
     id="rect6013"
     width="36.7374"
     height="6.4986739"
     x="5.3050394"
     y="27.92573"
     ry="2.2546401" />
  <rect
     ry="2.2546401"
     y="37.925728"
     x="5.3050394"
     height="6.4986739"
     width="36.7374"
     id="rect6015"
     style="opacity:1;fill:#555753;fill-opacity:1;fill-rule:nonzero;stroke:none;stroke-width:1.01552558;stroke-linecap:square;stroke-linejoin:round;stroke-miterlimit:4;stroke-dasharray:none;stroke-dashoffset:0;stroke-opacity:1;paint-order:stroke fill markers" />
  <rect
     style="opacity:1;fill:#555753;fill-opacity:1;fill-rule:nonzero;stroke:none;stroke-width:0.90502864;stroke-linecap:square;stroke-linejoin:round;stroke-miterlimit:4;stroke-dasharray:none;stroke-dashoffset:0;stroke-opacity:1;paint-order:stroke fill markers"
     id="rect6009"
     width="29.177719"
     height="6.4986739"
     x="5.3050394"
     y="7.9257298"
     ry="2.2546401" />
  <rect
     ry="2.2546401"
     y="17.92573"
     x="5.3050394"
     height="6.4986739"
     width="36.7374"
     id="rect6011"
     style="display:inline;opacity:1;fill:#555753;fill-opacity:1;fill-rule:nonzero;stroke:none;stroke-width:1.01552558;stroke-linecap:square;stroke-linejoin:round;stroke-miterlimit:4;stroke-dasharray:none;stroke-dashoffset:0;stroke-opacity:1;paint-order:stroke fill markers" />
  <path
     style="opacity:1;fill:#ef2929;fill-opacity:1;fill-rule:nonzero;stroke:none;stroke-width:1.56629837;stroke-linecap:square;stroke-linejoin:round;stroke-miterlimit:4;stroke-dasharray:none;stroke-dashoffset:0;stroke-opacity:1;paint-order:stroke fill markers"
     d="m 23.718,7.900062 v 32.682301 c 0,2.986477 1.738726,5.390283 3.896484,5.390283 h 15.589844 c 2.157759,-10e-7 3.894532,-2.403806 3.894532,-5.390283 V 7.900062 Z"
     id="rect4488"
     inkscape:connector-curvature="0" />
  <path
     style="opacity:1;fill:#cc0000;fill-opacity:1;fill-rule:nonzero;stroke:none;stroke-width:1.49477136;stroke-linecap:square;stroke-linejoin:round;stroke-miterlimit:4;stroke-dasharray:none;stroke-dashoffset:0;stroke-opacity:1;paint-order:stroke fill markers"
     d="m 32.468399,0 c -0.861065,0 -1.554061,0.623288 -1.554061,1.39774 0,0.34649 0.15556,0.652252 0.386026,0.895986 h -7.190022 c -0.891994,0 -1.611342,0.64699 -1.611342,1.44926 v 1.447019 c 0,0.80227 0.719348,1.449258 1.611342,1.449258 h 22.279852 c 0.891995,0 1.611342,-0.646988 1.611342,-1.449258 V 3.742986 c 0,-0.80227 -0.719347,-1.44926 -1.611342,-1.44926 H 39.456692 C 39.687045,2.050019 39.840226,1.744135 39.840226,1.39774 39.840226,0.623288 39.147232,0 38.286165,0 Z"
     id="rect4510"
     inkscape:connector-curvature="0" />
  <path
     style="opacity:1;fill:#eeeeec;fill-opacity:1;fill-rule:nonzero;stroke:none;stroke-width:1.30537236;stroke-linecap:square;stroke-linejoin:round;stroke-miterlimit:4;stroke-dasharray:none;stroke-dashoffset:0;stroke-opacity:1;paint-order:stroke fill markers"
     d="m 27.699219,14 c -0.554,0 -1,0.628085 -1,1.408263 v 21.12393 c 0,0.780177 0.446,1.408263 1,1.408263 h 1 c 0.554,0 1,-0.628086 1,-1.408263 v -21.12393 c 0,-0.780178 -0.446,-1.408263 -1,-1.408263 z m 6.90039,0 c -0.554,0 -1,0.628085 -1,1.408263 v 21.12393 c 0,0.780177 0.446,1.408263 1,1.408263 h 1 c 0.554,0 1,-0.628086 1,-1.408263 v -21.12393 c 0,-0.780178 -0.446,-1.408263 -1,-1.408263 z m 7.300782,0 c -0.554,0 -1,0.628085 -1,1.408263 v 21.12393 c 0,0.780177 0.446,1.408263 1,1.408263 h 1 c 0.554,0 1,-0.628086 1,-1.408263 v -21.12393 c 0,-0.780178 -0.446,-1.408263 -1,-1.408263 z"
     id="rect4515"
     inkscape:connector-curvature="0" />
</svg>
