<?xml version="1.0" encoding="UTF-8" standalone="no"?>
<svg
   xmlns:dc="http://purl.org/dc/elements/1.1/"
   xmlns:cc="http://creativecommons.org/ns#"
   xmlns:rdf="http://www.w3.org/1999/02/22-rdf-syntax-ns#"
   xmlns:svg="http://www.w3.org/2000/svg"
   xmlns="http://www.w3.org/2000/svg"
   xmlns:xlink="http://www.w3.org/1999/xlink"
   xmlns:sodipodi="http://sodipodi.sourceforge.net/DTD/sodipodi-0.dtd"
   xmlns:inkscape="http://www.inkscape.org/namespaces/inkscape"
   version="1"
   viewBox="0 0 48 48"
   enable-background="new 0 0 48 48"
   id="svg12"
   sodipodi:docname="infosource.svg"
   inkscape:version="0.92.1 r15371">
  <metadata
     id="metadata18">
    <rdf:RDF>
      <cc:Work
         rdf:about="">
        <dc:format>image/svg+xml</dc:format>
        <dc:type
           rdf:resource="http://purl.org/dc/dcmitype/StillImage" />
        <dc:title />
      </cc:Work>
    </rdf:RDF>
  </metadata>
  <defs
     id="defs16">
    <linearGradient
       inkscape:collect="always"
       id="linearGradient5027">
      <stop
         style="stop-color:#d3d7cf;stop-opacity:1;"
         offset="0"
         id="stop5023" />
      <stop
         style="stop-color:#d3d7cf;stop-opacity:0;"
         offset="1"
         id="stop5025" />
    </linearGradient>
    <inkscape:perspective
       sodipodi:type="inkscape:persp3d"
       inkscape:vp_x="101.20842 : -0.75793538 : 1"
       inkscape:vp_y="-440.24332 : 1952.4983 : 0"
       inkscape:vp_z="117.10493 : 31.795885 : 1"
       inkscape:persp3d-origin="112.67862 : -0.10101252 : 1"
       id="perspective4515" />
    <linearGradient
       inkscape:collect="always"
       xlink:href="#linearGradient5027"
       id="linearGradient5031"
       x1="1.3886687"
       y1="30.170906"
       x2="19.603514"
       y2="30.170906"
       gradientUnits="userSpaceOnUse"
       gradientTransform="matrix(1,0,0,1.4581139,0,-10.856268)" />
  </defs>
  <sodipodi:namedview
     pagecolor="#ffffff"
     bordercolor="#666666"
     borderopacity="1"
     objecttolerance="10"
     gridtolerance="10"
     guidetolerance="10"
     inkscape:pageopacity="0"
     inkscape:pageshadow="2"
     inkscape:window-width="1877"
     inkscape:window-height="904"
     id="namedview14"
     showgrid="false"
     inkscape:zoom="10.66"
     inkscape:cx="3.4577861"
     inkscape:cy="22.364944"
     inkscape:window-x="41"
     inkscape:window-y="49"
     inkscape:window-maximized="0"
     inkscape:current-layer="svg12"
     inkscape:measure-start="37,16"
     inkscape:measure-end="41,16">
    <inkscape:grid
       type="xygrid"
       id="grid4510" />
  </sodipodi:namedview>
  <path
     style="opacity:1;fill:#ef2929;fill-opacity:1;fill-rule:nonzero;stroke:none;stroke-width:0.92338914;stroke-linecap:square;stroke-linejoin:round;stroke-miterlimit:4;stroke-dasharray:none;stroke-dashoffset:0;stroke-opacity:1;paint-order:stroke fill markers"
     d="M 10.427734,22.811357 A 10.278176,9.9911681 0 0 0 0.1484375,32.801715 10.278176,9.9911681 0 0 0 10.427734,42.794922 10.278176,9.9911681 0 0 0 20.705078,32.801715 10.278176,9.9911681 0 0 0 10.427734,22.811357 Z m 0.06836,1.472352 a 9.1074629,8.8531457 0 0 1 0.908203,0.04272 9.1074629,8.8531457 0 0 1 0.900391,0.133855 9.1074629,8.8531457 0 0 1 0.882812,0.219287 9.1074629,8.8531457 0 0 1 0.855469,0.301875 9.1074629,8.8531457 0 0 1 0.820312,0.384463 9.1074629,8.8531457 0 0 1 0.775391,0.464204 9.1074629,8.8531457 0 0 1 0.724609,0.535402 9.1074629,8.8531457 0 0 1 0.666016,0.60375 9.1074629,8.8531457 0 0 1 0.601562,0.663555 9.1074629,8.8531457 0 0 1 0.529297,0.720514 9.1074629,8.8531457 0 0 1 0.453125,0.76608 9.1074629,8.8531457 0 0 1 0.371094,0.808797 9.1074629,8.8531457 0 0 1 0.287109,0.840124 9.1074629,8.8531457 0 0 1 0.199219,0.862908 9.1074629,8.8531457 0 0 1 0.109375,0.879995 9.1074629,8.8531457 0 0 1 0.02344,0.626533 9.1074629,8.8531457 0 0 1 -0.04492,0.882842 9.1074629,8.8531457 0 0 1 -0.136719,0.874299 9.1074629,8.8531457 0 0 1 -0.224609,0.857212 9.1074629,8.8531457 0 0 1 -0.3125,0.83158 9.1074629,8.8531457 0 0 1 -0.396485,0.797406 9.1074629,8.8531457 0 0 1 -0.474609,0.754687 9.1074629,8.8531457 0 0 1 -0.552734,0.703427 9.1074629,8.8531457 0 0 1 -0.619141,0.649317 9.1074629,8.8531457 0 0 1 -0.683594,0.583814 9.1074629,8.8531457 0 0 1 -0.742187,0.512619 9.1074629,8.8531457 0 0 1 -0.789063,0.44142 9.1074629,8.8531457 0 0 1 -0.830078,0.361681 9.1074629,8.8531457 0 0 1 -0.865234,0.279092 9.1074629,8.8531457 0 0 1 -0.886719,0.193656 9.1074629,8.8531457 0 0 1 -0.904297,0.105378 9.1074629,8.8531457 0 0 1 -0.644531,0.02279 A 9.1074629,8.8531457 0 0 1 9.5859415,41.946272 9.1074629,8.8531457 0 0 1 8.6875,41.812404 9.1074629,8.8531457 0 0 1 7.8046875,41.593117 9.1074629,8.8531457 0 0 1 6.9492188,41.291242 9.1074629,8.8531457 0 0 1 6.1289062,40.906778 9.1074629,8.8531457 0 0 1 5.3535156,40.442574 9.1074629,8.8531457 0 0 1 4.6289062,39.907173 9.1074629,8.8531457 0 0 1 3.9628906,39.303423 9.1074629,8.8531457 0 0 1 3.3613281,38.639866 9.1074629,8.8531457 0 0 1 2.8320312,37.919353 9.1074629,8.8531457 0 0 1 2.3789062,37.153274 9.1074629,8.8531457 0 0 1 2.0078125,36.344477 9.1074629,8.8531457 0 0 1 1.7207031,35.504352 9.1074629,8.8531457 0 0 1 1.5214844,34.641445 9.1074629,8.8531457 0 0 1 1.4121094,33.76145 a 9.1074629,8.8531457 0 0 1 -0.023437,-0.623685 9.1074629,8.8531457 0 0 1 0.044922,-0.885691 9.1074629,8.8531457 0 0 1 0.1367187,-0.874298 9.1074629,8.8531457 0 0 1 0.2246094,-0.857212 9.1074629,8.8531457 0 0 1 0.3125,-0.83158 9.1074629,8.8531457 0 0 1 0.3964843,-0.797406 9.1074629,8.8531457 0 0 1 0.4746094,-0.754688 9.1074629,8.8531457 0 0 1 0.5507813,-0.703426 9.1074629,8.8531457 0 0 1 0.6210937,-0.646469 9.1074629,8.8531457 0 0 1 0.6835938,-0.586664 9.1074629,8.8531457 0 0 1 0.7421875,-0.512617 9.1074629,8.8531457 0 0 1 0.7890625,-0.441421 9.1074629,8.8531457 0 0 1 0.8300781,-0.361681 9.1074629,8.8531457 0 0 1 0.8652344,-0.279093 9.1074629,8.8531457 0 0 1 0.8867187,-0.193655 9.1074629,8.8531457 0 0 1 0.9042969,-0.105378 9.1074629,8.8531457 0 0 1 0.6445319,-0.02279 z"
     id="path4487"
     inkscape:connector-curvature="0" />
  <path
     style="opacity:1;fill:#ef2929;fill-opacity:1;fill-rule:nonzero;stroke:none;stroke-width:0.92338914;stroke-linecap:square;stroke-linejoin:round;stroke-miterlimit:4;stroke-dasharray:none;stroke-dashoffset:0;stroke-opacity:1;paint-order:stroke fill markers"
     d="m 37.835938,22.811357 a 10.278176,9.9911681 0 0 0 -10.279297,9.990358 10.278176,9.9911681 0 0 0 10.279297,9.993207 10.278176,9.9911681 0 0 0 10.277343,-9.993207 10.278176,9.9911681 0 0 0 -10.277343,-9.990358 z m 0.06836,1.472352 a 9.1074629,8.8531457 0 0 1 0.910156,0.04272 9.1074629,8.8531457 0 0 1 0.900391,0.133855 9.1074629,8.8531457 0 0 1 0.880859,0.219287 9.1074629,8.8531457 0 0 1 0.855469,0.301875 9.1074629,8.8531457 0 0 1 0.820312,0.384463 9.1074629,8.8531457 0 0 1 0.775391,0.464204 9.1074629,8.8531457 0 0 1 0.724609,0.535402 9.1074629,8.8531457 0 0 1 0.666016,0.60375 9.1074629,8.8531457 0 0 1 0.601562,0.663555 9.1074629,8.8531457 0 0 1 0.529297,0.720514 9.1074629,8.8531457 0 0 1 0.453125,0.76608 9.1074629,8.8531457 0 0 1 0.371094,0.808797 9.1074629,8.8531457 0 0 1 0.28711,0.840124 9.1074629,8.8531457 0 0 1 0.199218,0.862908 9.1074629,8.8531457 0 0 1 0.109375,0.879995 9.1074629,8.8531457 0 0 1 0.02344,0.626533 9.1074629,8.8531457 0 0 1 -0.04492,0.882842 9.1074629,8.8531457 0 0 1 -0.136719,0.874299 9.1074629,8.8531457 0 0 1 -0.224609,0.857212 9.1074629,8.8531457 0 0 1 -0.3125,0.83158 9.1074629,8.8531457 0 0 1 -0.396485,0.797406 9.1074629,8.8531457 0 0 1 -0.474609,0.754687 9.1074629,8.8531457 0 0 1 -0.550781,0.703427 9.1074629,8.8531457 0 0 1 -0.621094,0.649317 9.1074629,8.8531457 0 0 1 -0.683594,0.583814 9.1074629,8.8531457 0 0 1 -0.740234,0.512619 9.1074629,8.8531457 0 0 1 -0.791016,0.44142 9.1074629,8.8531457 0 0 1 -0.830078,0.361681 9.1074629,8.8531457 0 0 1 -0.865234,0.279092 9.1074629,8.8531457 0 0 1 -0.886719,0.193656 9.1074629,8.8531457 0 0 1 -0.904297,0.105378 9.1074629,8.8531457 0 0 1 -0.644531,0.02279 9.1074629,8.8531457 0 0 1 -0.908203,-0.04272 9.1074629,8.8531457 0 0 1 -0.900391,-0.133855 9.1074629,8.8531457 0 0 1 -0.882812,-0.219287 9.1074629,8.8531457 0 0 1 -0.855469,-0.301875 9.1074629,8.8531457 0 0 1 -0.81836,-0.384464 9.1074629,8.8531457 0 0 1 -0.777343,-0.464203 9.1074629,8.8531457 0 0 1 -0.72461,-0.535402 9.1074629,8.8531457 0 0 1 -0.666015,-0.60375 9.1074629,8.8531457 0 0 1 -0.601563,-0.663557 9.1074629,8.8531457 0 0 1 -0.529297,-0.720512 9.1074629,8.8531457 0 0 1 -0.453125,-0.76608 9.1074629,8.8531457 0 0 1 -0.371093,-0.808797 9.1074629,8.8531457 0 0 1 -0.28711,-0.840125 9.1074629,8.8531457 0 0 1 -0.199218,-0.862907 9.1074629,8.8531457 0 0 1 -0.109376,-0.879995 9.1074629,8.8531457 0 0 1 -0.02344,-0.623685 9.1074629,8.8531457 0 0 1 0.04492,-0.885691 9.1074629,8.8531457 0 0 1 0.136719,-0.874298 9.1074629,8.8531457 0 0 1 0.224609,-0.857212 9.1074629,8.8531457 0 0 1 0.3125,-0.83158 9.1074629,8.8531457 0 0 1 0.396484,-0.797406 9.1074629,8.8531457 0 0 1 0.476563,-0.754688 9.1074629,8.8531457 0 0 1 0.550781,-0.703426 9.1074629,8.8531457 0 0 1 0.619141,-0.646469 9.1074629,8.8531457 0 0 1 0.685547,-0.586664 9.1074629,8.8531457 0 0 1 0.740234,-0.512617 9.1074629,8.8531457 0 0 1 0.789063,-0.441421 9.1074629,8.8531457 0 0 1 0.830078,-0.36168 9.1074629,8.8531457 0 0 1 0.865234,-0.279094 9.1074629,8.8531457 0 0 1 0.888672,-0.193655 9.1074629,8.8531457 0 0 1 0.902344,-0.105378 9.1074629,8.8531457 0 0 1 0.644532,-0.02279 z"
     id="ellipse4489"
     inkscape:connector-curvature="0" />
  <path
     style="opacity:1;fill:#ef2929;fill-opacity:1;fill-rule:nonzero;stroke:none;stroke-width:0.92338914;stroke-linecap:square;stroke-linejoin:round;stroke-miterlimit:4;stroke-dasharray:none;stroke-dashoffset:0;stroke-opacity:1;paint-order:stroke fill markers"
     d="m 24.117188,26.775604 a 5.4816941,3.9964674 0 0 0 -5.259766,2.876357 9.1074629,8.8531457 0 0 1 0.126953,0.276244 9.1074629,8.8531457 0 0 1 0.287109,0.840125 9.1074629,8.8531457 0 0 1 0.06055,0.264853 5.4816941,3.9964674 0 0 1 4.785157,-2.059017 5.4816941,3.9964674 0 0 1 4.908203,2.224194 9.1074629,8.8531457 0 0 1 0.177734,-0.677796 9.1074629,8.8531457 0 0 1 0.246094,-0.655012 5.4816941,3.9964674 0 0 0 -5.332031,-3.089948 z"
     id="path4491"
     inkscape:connector-curvature="0" />
  <path
     style="opacity:1;fill:#ef2929;fill-opacity:1;fill-rule:nonzero;stroke:none;stroke-width:0.47561681;stroke-linecap:square;stroke-linejoin:round;stroke-miterlimit:4;stroke-dasharray:none;stroke-dashoffset:0;stroke-opacity:1;paint-order:stroke fill markers"
     d="m 8.430015,12.341152 -6.8303234,15.302229 1.8036017,1.127553 a 13.730117,5.8724694 28.534943 0 1 0.1511131,-0.38267 13.730117,5.8724694 28.534943 0 1 0.3367727,-0.483996 13.730117,5.8724694 28.534943 0 1 0.4558487,-0.412192 13.730117,5.8724694 28.534943 0 1 0.5693999,-0.337552 13.730117,5.8724694 28.534943 0 1 0.673801,-0.263242 13.730117,5.8724694 28.534943 0 1 0.7784523,-0.177994 13.730117,5.8724694 28.534943 0 1 0.3664041,-0.04307 L 9.653681,13.14001 Z"
     id="rect4502"
     inkscape:connector-curvature="0" />
  <path
     style="opacity:1;fill:#ef2929;fill-opacity:1;fill-rule:nonzero;stroke:none;stroke-width:0.80125487;stroke-linecap:square;stroke-linejoin:round;stroke-miterlimit:4;stroke-dasharray:none;stroke-dashoffset:0;stroke-opacity:1;paint-order:stroke fill markers"
     d="m 13.680309,12.786995 c 0.248727,0.49891 0.190687,0.894563 -0.13014,0.887115 L 8.9173377,13.566563 c -0.3208241,-0.0074 0.1310406,0.14913 -0.117692,-0.349782 -0.248726,-0.498909 -0.5714755,-0.85288 -0.2854854,-0.909954 l 4.7837317,-0.954706 c 0.285997,-0.05708 0.133678,0.935969 0.382404,1.434877 z"
     id="rect4521"
     inkscape:connector-curvature="0"
     sodipodi:nodetypes="cssssssc" />
  <path
     inkscape:connector-curvature="0"
     style="opacity:0.68399999;fill:url(#linearGradient5031);fill-opacity:1;fill-rule:nonzero;stroke:none;stroke-width:0.92338914;stroke-linecap:square;stroke-linejoin:round;stroke-miterlimit:4;stroke-dasharray:none;stroke-dashoffset:0;stroke-opacity:1;paint-order:stroke fill markers"
     d="m 10.496094,24.283709 a 9.1074629,8.8531457 0 0 0 -0.6445315,0.02279 9.1074629,8.8531457 0 0 0 -0.9042969,0.105378 9.1074629,8.8531457 0 0 0 -0.8867187,0.193655 9.1074629,8.8531457 0 0 0 -0.8652344,0.279094 9.1074629,8.8531457 0 0 0 -0.8300781,0.36168 9.1074629,8.8531457 0 0 0 -0.7890625,0.441421 9.1074629,8.8531457 0 0 0 -0.7421875,0.512617 9.1074629,8.8531457 0 0 0 -0.6835938,0.586664 9.1074629,8.8531457 0 0 0 -0.6210937,0.646469 9.1074629,8.8531457 0 0 0 -0.5507813,0.703426 9.1074629,8.8531457 0 0 0 -0.4746094,0.754688 9.1074629,8.8531457 0 0 0 -0.3964843,0.797406 9.1074629,8.8531457 0 0 0 -0.3125,0.83158 9.1074629,8.8531457 0 0 0 -0.2246094,0.857212 9.1074629,8.8531457 0 0 0 -0.1367187,0.874298 9.1074629,8.8531457 0 0 0 -0.044922,0.885691 9.1074629,8.8531457 0 0 0 0.023437,0.623685 9.1074629,8.8531457 0 0 0 0.109375,0.879995 9.1074629,8.8531457 0 0 0 0.1992187,0.862907 9.1074629,8.8531457 0 0 0 0.2871094,0.840125 9.1074629,8.8531457 0 0 0 0.3710937,0.808797 9.1074629,8.8531457 0 0 0 0.453125,0.76608 9.1074629,8.8531457 0 0 0 0.5292969,0.720512 9.1074629,8.8531457 0 0 0 0.6015625,0.663557 9.1074629,8.8531457 0 0 0 0.6660156,0.60375 9.1074629,8.8531457 0 0 0 0.7246094,0.535402 9.1074629,8.8531457 0 0 0 0.7753906,0.464203 9.1074629,8.8531457 0 0 0 0.8203126,0.384464 9.1074629,8.8531457 0 0 0 0.8554687,0.301875 9.1074629,8.8531457 0 0 0 0.8828125,0.219287 9.1074629,8.8531457 0 0 0 0.8984375,0.133855 9.1074629,8.8531457 0 0 0 0.9101561,0.04272 9.1074629,8.8531457 0 0 0 0.644531,-0.02279 9.1074629,8.8531457 0 0 0 0.904297,-0.105378 9.1074629,8.8531457 0 0 0 0.886719,-0.193656 9.1074629,8.8531457 0 0 0 0.865234,-0.279092 9.1074629,8.8531457 0 0 0 0.830078,-0.361681 9.1074629,8.8531457 0 0 0 0.789063,-0.44142 9.1074629,8.8531457 0 0 0 0.742187,-0.512619 9.1074629,8.8531457 0 0 0 0.683594,-0.583814 9.1074629,8.8531457 0 0 0 0.619141,-0.649317 9.1074629,8.8531457 0 0 0 0.552734,-0.703427 9.1074629,8.8531457 0 0 0 0.474609,-0.754687 9.1074629,8.8531457 0 0 0 0.396485,-0.797406 9.1074629,8.8531457 0 0 0 0.3125,-0.83158 9.1074629,8.8531457 0 0 0 0.224609,-0.857212 9.1074629,8.8531457 0 0 0 0.136719,-0.874299 9.1074629,8.8531457 0 0 0 0.04492,-0.882842 9.1074629,8.8531457 0 0 0 -0.02344,-0.626533 9.1074629,8.8531457 0 0 0 -0.109375,-0.879995 9.1074629,8.8531457 0 0 0 -0.199219,-0.862908 9.1074629,8.8531457 0 0 0 -0.287109,-0.840124 9.1074629,8.8531457 0 0 0 -0.371094,-0.808797 9.1074629,8.8531457 0 0 0 -0.453125,-0.76608 9.1074629,8.8531457 0 0 0 -0.529297,-0.720514 9.1074629,8.8531457 0 0 0 -0.601562,-0.663555 9.1074629,8.8531457 0 0 0 -0.666016,-0.60375 9.1074629,8.8531457 0 0 0 -0.724609,-0.535402 9.1074629,8.8531457 0 0 0 -0.775391,-0.464204 9.1074629,8.8531457 0 0 0 -0.820312,-0.384463 9.1074629,8.8531457 0 0 0 -0.855469,-0.301875 9.1074629,8.8531457 0 0 0 -0.882812,-0.219287 9.1074629,8.8531457 0 0 0 -0.900391,-0.133855 9.1074629,8.8531457 0 0 0 -0.908203,-0.04272 z"
     id="path4574" />
  <path
     inkscape:connector-curvature="0"
     id="path4501"
     d="m 39.886975,12.341152 6.830324,15.302229 -1.803602,1.127553 a 5.8724694,13.730117 61.465057 0 0 -0.151113,-0.38267 5.8724694,13.730117 61.465057 0 0 -0.336773,-0.483996 5.8724694,13.730117 61.465057 0 0 -0.455848,-0.412192 5.8724694,13.730117 61.465057 0 0 -0.5694,-0.337552 5.8724694,13.730117 61.465057 0 0 -0.673801,-0.263242 5.8724694,13.730117 61.465057 0 0 -0.778453,-0.177994 5.8724694,13.730117 61.465057 0 0 -0.366404,-0.04307 L 38.663309,13.14001 Z"
     style="opacity:1;fill:#ef2929;fill-opacity:1;fill-rule:nonzero;stroke:none;stroke-width:0.47561681;stroke-linecap:square;stroke-linejoin:round;stroke-miterlimit:4;stroke-dasharray:none;stroke-dashoffset:0;stroke-opacity:1;paint-order:stroke fill markers" />
  <path
     inkscape:connector-curvature="0"
     style="opacity:1;fill:#555753;fill-opacity:1;fill-rule:nonzero;stroke:none;stroke-width:0.92338914;stroke-linecap:square;stroke-linejoin:round;stroke-miterlimit:4;stroke-dasharray:none;stroke-dashoffset:0;stroke-opacity:1;paint-order:stroke fill markers"
     d="m 37.904297,24.283709 a 9.1074629,8.8531457 0 0 0 -0.644531,0.02279 9.1074629,8.8531457 0 0 0 -0.902344,0.105378 9.1074629,8.8531457 0 0 0 -0.888672,0.193655 9.1074629,8.8531457 0 0 0 -0.865234,0.279094 9.1074629,8.8531457 0 0 0 -0.830078,0.36168 9.1074629,8.8531457 0 0 0 -0.789063,0.441421 9.1074629,8.8531457 0 0 0 -0.740234,0.512617 9.1074629,8.8531457 0 0 0 -0.685547,0.586664 9.1074629,8.8531457 0 0 0 -0.619141,0.646469 9.1074629,8.8531457 0 0 0 -0.550781,0.703426 9.1074629,8.8531457 0 0 0 -0.476563,0.754688 9.1074629,8.8531457 0 0 0 -0.396484,0.797406 9.1074629,8.8531457 0 0 0 -0.3125,0.83158 9.1074629,8.8531457 0 0 0 -0.224609,0.857212 9.1074629,8.8531457 0 0 0 -0.136719,0.874298 9.1074629,8.8531457 0 0 0 -0.04492,0.885691 9.1074629,8.8531457 0 0 0 0.02344,0.623685 9.1074629,8.8531457 0 0 0 0.109376,0.879995 9.1074629,8.8531457 0 0 0 0.199218,0.862907 9.1074629,8.8531457 0 0 0 0.28711,0.840125 9.1074629,8.8531457 0 0 0 0.371093,0.808797 9.1074629,8.8531457 0 0 0 0.453125,0.76608 9.1074629,8.8531457 0 0 0 0.529297,0.720512 9.1074629,8.8531457 0 0 0 0.601563,0.663557 9.1074629,8.8531457 0 0 0 0.666015,0.60375 9.1074629,8.8531457 0 0 0 0.72461,0.535402 9.1074629,8.8531457 0 0 0 0.777343,0.464203 9.1074629,8.8531457 0 0 0 0.81836,0.384464 9.1074629,8.8531457 0 0 0 0.855469,0.301875 9.1074629,8.8531457 0 0 0 0.882812,0.219287 9.1074629,8.8531457 0 0 0 0.900391,0.133855 9.1074629,8.8531457 0 0 0 0.908203,0.04272 9.1074629,8.8531457 0 0 0 0.644531,-0.02279 9.1074629,8.8531457 0 0 0 0.904297,-0.105378 9.1074629,8.8531457 0 0 0 0.886719,-0.193656 9.1074629,8.8531457 0 0 0 0.865234,-0.279092 9.1074629,8.8531457 0 0 0 0.830078,-0.361681 9.1074629,8.8531457 0 0 0 0.791016,-0.44142 9.1074629,8.8531457 0 0 0 0.740234,-0.512619 9.1074629,8.8531457 0 0 0 0.683594,-0.583814 9.1074629,8.8531457 0 0 0 0.621094,-0.649317 9.1074629,8.8531457 0 0 0 0.550781,-0.703427 9.1074629,8.8531457 0 0 0 0.474609,-0.754687 9.1074629,8.8531457 0 0 0 0.396485,-0.797406 9.1074629,8.8531457 0 0 0 0.3125,-0.83158 9.1074629,8.8531457 0 0 0 0.224609,-0.857212 9.1074629,8.8531457 0 0 0 0.136719,-0.874299 9.1074629,8.8531457 0 0 0 0.04492,-0.882842 9.1074629,8.8531457 0 0 0 -0.02344,-0.626533 9.1074629,8.8531457 0 0 0 -0.109375,-0.879995 9.1074629,8.8531457 0 0 0 -0.199218,-0.862908 9.1074629,8.8531457 0 0 0 -0.28711,-0.840124 9.1074629,8.8531457 0 0 0 -0.371094,-0.808797 9.1074629,8.8531457 0 0 0 -0.453125,-0.76608 9.1074629,8.8531457 0 0 0 -0.529297,-0.720514 9.1074629,8.8531457 0 0 0 -0.601562,-0.663555 9.1074629,8.8531457 0 0 0 -0.666016,-0.60375 9.1074629,8.8531457 0 0 0 -0.724609,-0.535402 9.1074629,8.8531457 0 0 0 -0.775391,-0.464204 9.1074629,8.8531457 0 0 0 -0.820312,-0.384463 9.1074629,8.8531457 0 0 0 -0.855469,-0.301875 9.1074629,8.8531457 0 0 0 -0.880859,-0.219287 9.1074629,8.8531457 0 0 0 -0.900391,-0.133855 9.1074629,8.8531457 0 0 0 -0.910157,-0.04272 z"
     id="path4578" />
  <path
     inkscape:connector-curvature="0"
     style="opacity:1;fill:#555753;fill-opacity:1;fill-rule:nonzero;stroke:none;stroke-width:0.92338914;stroke-linecap:square;stroke-linejoin:round;stroke-miterlimit:4;stroke-dasharray:none;stroke-dashoffset:0;stroke-opacity:1;paint-order:stroke fill markers"
     d="m 10.501423,24.254239 a 9.1074629,8.8531457 0 0 0 -0.6445308,0.02279 9.1074629,8.8531457 0 0 0 -0.902344,0.105378 9.1074629,8.8531457 0 0 0 -0.888672,0.193655 9.1074629,8.8531457 0 0 0 -0.865234,0.279094 9.1074629,8.8531457 0 0 0 -0.830078,0.36168 9.1074629,8.8531457 0 0 0 -0.789063,0.441421 9.1074629,8.8531457 0 0 0 -0.740234,0.512618 9.1074629,8.8531457 0 0 0 -0.685547,0.586663 9.1074629,8.8531457 0 0 0 -0.619141,0.646469 9.1074629,8.8531457 0 0 0 -0.550781,0.703427 9.1074629,8.8531457 0 0 0 -0.476563,0.754687 9.1074629,8.8531457 0 0 0 -0.396484,0.797406 9.1074629,8.8531457 0 0 0 -0.3125,0.83158 9.1074629,8.8531457 0 0 0 -0.224609,0.857212 9.1074629,8.8531457 0 0 0 -0.136719,0.874298 9.1074629,8.8531457 0 0 0 -0.04492,0.885691 9.1074629,8.8531457 0 0 0 0.02344,0.623685 9.1074629,8.8531457 0 0 0 0.109376,0.879995 9.1074629,8.8531457 0 0 0 0.199218,0.862907 9.1074629,8.8531457 0 0 0 0.28711,0.840125 9.1074629,8.8531457 0 0 0 0.371093,0.808797 9.1074629,8.8531457 0 0 0 0.453125,0.76608 9.1074629,8.8531457 0 0 0 0.529297,0.720512 9.1074629,8.8531457 0 0 0 0.601563,0.663557 9.1074629,8.8531457 0 0 0 0.666015,0.60375 9.1074629,8.8531457 0 0 0 0.72461,0.535402 9.1074629,8.8531457 0 0 0 0.777343,0.464203 9.1074629,8.8531457 0 0 0 0.81836,0.384464 9.1074629,8.8531457 0 0 0 0.855469,0.301875 9.1074629,8.8531457 0 0 0 0.882812,0.219287 9.1074629,8.8531457 0 0 0 0.900391,0.133855 9.1074629,8.8531457 0 0 0 0.9082028,0.04272 9.1074629,8.8531457 0 0 0 0.644531,-0.02279 9.1074629,8.8531457 0 0 0 0.904297,-0.105377 9.1074629,8.8531457 0 0 0 0.886719,-0.193657 9.1074629,8.8531457 0 0 0 0.865234,-0.279092 9.1074629,8.8531457 0 0 0 0.830078,-0.36168 9.1074629,8.8531457 0 0 0 0.791016,-0.441421 9.1074629,8.8531457 0 0 0 0.740234,-0.512619 9.1074629,8.8531457 0 0 0 0.683594,-0.583814 9.1074629,8.8531457 0 0 0 0.621094,-0.649317 9.1074629,8.8531457 0 0 0 0.550781,-0.703427 9.1074629,8.8531457 0 0 0 0.474609,-0.754687 9.1074629,8.8531457 0 0 0 0.396485,-0.797406 9.1074629,8.8531457 0 0 0 0.3125,-0.83158 9.1074629,8.8531457 0 0 0 0.224609,-0.857212 9.1074629,8.8531457 0 0 0 0.136719,-0.874299 9.1074629,8.8531457 0 0 0 0.04492,-0.882842 9.1074629,8.8531457 0 0 0 -0.02344,-0.626533 9.1074629,8.8531457 0 0 0 -0.109375,-0.879995 9.1074629,8.8531457 0 0 0 -0.199218,-0.862908 9.1074629,8.8531457 0 0 0 -0.28711,-0.840124 9.1074629,8.8531457 0 0 0 -0.371094,-0.808797 9.1074629,8.8531457 0 0 0 -0.453125,-0.76608 9.1074629,8.8531457 0 0 0 -0.529297,-0.720514 9.1074629,8.8531457 0 0 0 -0.601562,-0.663555 9.1074629,8.8531457 0 0 0 -0.666016,-0.60375 A 9.1074629,8.8531457 0 0 0 15.644002,25.800644 9.1074629,8.8531457 0 0 0 14.868611,25.336441 9.1074629,8.8531457 0 0 0 14.048299,24.951977 9.1074629,8.8531457 0 0 0 13.19283,24.650102 9.1074629,8.8531457 0 0 0 12.311971,24.430815 9.1074629,8.8531457 0 0 0 11.41158,24.29696 9.1074629,8.8531457 0 0 0 10.501423,24.25424 Z"
     id="path4995" />
  <path
     sodipodi:nodetypes="cssssssc"
     inkscape:connector-curvature="0"
     id="path4503"
     d="m 34.636681,12.786995 c -0.248727,0.49891 -0.190686,0.894563 0.13014,0.887115 l 4.632831,-0.107547 c 0.320824,-0.0074 -0.13104,0.14913 0.117692,-0.349782 0.248726,-0.498909 0.571475,-0.85288 0.285486,-0.909954 l -4.783732,-0.954706 c -0.285997,-0.05708 -0.133677,0.935969 -0.382403,1.434877 z"
     style="opacity:1;fill:#ef2929;fill-opacity:1;fill-rule:nonzero;stroke:none;stroke-width:0.80125487;stroke-linecap:square;stroke-linejoin:round;stroke-miterlimit:4;stroke-dasharray:none;stroke-dashoffset:0;stroke-opacity:1;paint-order:stroke fill markers" />
</svg>
