<?xml version="1.0" encoding="UTF-8" standalone="no"?>
<!-- Created with Inkscape (http://www.inkscape.org/) -->

<svg
   xmlns:osb="http://www.openswatchbook.org/uri/2009/osb"
   xmlns:dc="http://purl.org/dc/elements/1.1/"
   xmlns:cc="http://creativecommons.org/ns#"
   xmlns:rdf="http://www.w3.org/1999/02/22-rdf-syntax-ns#"
   xmlns:svg="http://www.w3.org/2000/svg"
   xmlns="http://www.w3.org/2000/svg"
   xmlns:xlink="http://www.w3.org/1999/xlink"
   xmlns:sodipodi="http://sodipodi.sourceforge.net/DTD/sodipodi-0.dtd"
   xmlns:inkscape="http://www.inkscape.org/namespaces/inkscape"
   width="256px"
   height="256px"
   viewBox="0 0 256 256"
   version="1.1"
   id="SVGRoot"
   sodipodi:docname="videomass-v9.svg"
   inkscape:version="0.92.4 (5da689c313, 2019-01-14)"
   enable-background="new">
  <sodipodi:namedview
     id="base"
     pagecolor="#ffffff"
     bordercolor="#666666"
     borderopacity="1.0"
     inkscape:pageopacity="0.0"
     inkscape:pageshadow="2"
     inkscape:zoom="2.32"
     inkscape:cx="77.301724"
     inkscape:cy="110.18648"
     inkscape:document-units="px"
     inkscape:current-layer="layer3"
     showgrid="true"
     inkscape:window-width="1920"
     inkscape:window-height="1015"
     inkscape:window-x="0"
     inkscape:window-y="0"
     inkscape:window-maximized="1"
     inkscape:grid-bbox="true"
     inkscape:measure-start="110,130"
     inkscape:measure-end="0,0"
     showguides="true">
    <inkscape:grid
       type="xygrid"
       id="grid5114" />
  </sodipodi:namedview>
  <defs
     id="defs4485">
    <linearGradient
       inkscape:collect="always"
       id="linearGradient939">
      <stop
         style="stop-color:#c4c5c2;stop-opacity:1;"
         offset="0"
         id="stop935" />
      <stop
         style="stop-color:#c4c5c2;stop-opacity:0;"
         offset="1"
         id="stop937" />
    </linearGradient>
    <linearGradient
       inkscape:collect="always"
       id="linearGradient1141">
      <stop
         style="stop-color:#2b0000;stop-opacity:1;"
         offset="0"
         id="stop1137" />
      <stop
         style="stop-color:#290000;stop-opacity:0.03308824"
         offset="1"
         id="stop1139" />
    </linearGradient>
    <inkscape:path-effect
       effect="bspline"
       id="path-effect4551"
       is_visible="true"
       weight="33.333333"
       steps="2"
       helper_size="0"
       apply_no_weight="true"
       apply_with_weight="true"
       only_selected="false" />
    <inkscape:path-effect
       effect="skeletal"
       id="path-effect4547"
       is_visible="true"
       pattern="M 0,5 C 0,2.24 2.24,0 5,0 7.76,0 10,2.24 10,5 10,7.76 7.76,10 5,10 2.24,10 0,7.76 0,5 Z"
       copytype="single_stretched"
       prop_scale="1"
       scale_y_rel="false"
       spacing="0"
       normal_offset="0"
       tang_offset="0"
       prop_units="false"
       vertical_pattern="false"
       fuse_tolerance="0" />
    <inkscape:path-effect
       effect="bspline"
       id="path-effect4545"
       is_visible="true"
       weight="33.333333"
       steps="2"
       helper_size="0"
       apply_no_weight="true"
       apply_with_weight="true"
       only_selected="false" />
    <inkscape:path-effect
       effect="skeletal"
       id="path-effect4541"
       is_visible="true"
       pattern="M 0,5 C 0,2.24 2.24,0 5,0 7.76,0 10,2.24 10,5 10,7.76 7.76,10 5,10 2.24,10 0,7.76 0,5 Z"
       copytype="single_stretched"
       prop_scale="1"
       scale_y_rel="false"
       spacing="0"
       normal_offset="0"
       tang_offset="0"
       prop_units="false"
       vertical_pattern="false"
       fuse_tolerance="0" />
    <inkscape:path-effect
       effect="spiro"
       id="path-effect4539"
       is_visible="true" />
    <inkscape:path-effect
       effect="bspline"
       id="path-effect4535"
       is_visible="true"
       weight="33.333333"
       steps="2"
       helper_size="0"
       apply_no_weight="true"
       apply_with_weight="true"
       only_selected="false" />
    <inkscape:path-effect
       effect="skeletal"
       id="path-effect4531"
       is_visible="true"
       pattern="M 0,5 C 0,2.24 2.24,0 5,0 7.76,0 10,2.24 10,5 10,7.76 7.76,10 5,10 2.24,10 0,7.76 0,5 Z"
       copytype="single_stretched"
       prop_scale="1"
       scale_y_rel="false"
       spacing="0"
       normal_offset="0"
       tang_offset="0"
       prop_units="false"
       vertical_pattern="false"
       fuse_tolerance="0" />
    <inkscape:path-effect
       effect="bspline"
       id="path-effect4529"
       is_visible="true"
       weight="33.333333"
       steps="2"
       helper_size="0"
       apply_no_weight="true"
       apply_with_weight="true"
       only_selected="false" />
    <inkscape:path-effect
       effect="skeletal"
       id="path-effect4525"
       is_visible="true"
       pattern="M 0,5 C 0,2.24 2.24,0 5,0 7.76,0 10,2.24 10,5 10,7.76 7.76,10 5,10 2.24,10 0,7.76 0,5 Z"
       copytype="single_stretched"
       prop_scale="1"
       scale_y_rel="false"
       spacing="0"
       normal_offset="0"
       tang_offset="0"
       prop_units="false"
       vertical_pattern="false"
       fuse_tolerance="0" />
    <inkscape:path-effect
       effect="bspline"
       id="path-effect4523"
       is_visible="true"
       weight="33.333333"
       steps="2"
       helper_size="0"
       apply_no_weight="true"
       apply_with_weight="true"
       only_selected="false" />
    <inkscape:path-effect
       effect="bspline"
       id="path-effect4519"
       is_visible="true"
       weight="33.333333"
       steps="2"
       helper_size="0"
       apply_no_weight="true"
       apply_with_weight="true"
       only_selected="false" />
    <pattern
       inkscape:isstock="true"
       inkscape:stockid="Stripes 1:1"
       id="Strips1_1"
       patternTransform="translate(0,0) scale(10,10)"
       height="1"
       width="2"
       patternUnits="userSpaceOnUse"
       inkscape:collect="always">
      <rect
         id="rect5447"
         height="2"
         width="1"
         y="-0.5"
         x="0"
         style="fill:black;stroke:none" />
    </pattern>
    <linearGradient
       id="linearGradient4727"
       osb:paint="solid">
      <stop
         style="stop-color:#ce5c00;stop-opacity:1;"
         offset="0"
         id="stop4725" />
    </linearGradient>
    <pattern
       patternUnits="userSpaceOnUse"
       width="55"
       height="90"
       patternTransform="translate(-60,50.5)"
       id="pattern6214">
      <g
         style="fill:url(#Strips1_1);fill-opacity:1"
         transform="translate(-15,-28.5)"
         id="g4691">
        <rect
           style="opacity:0.81499999;fill:url(#Strips1_1);fill-opacity:1;stroke:none;stroke-width:4.52699995;stroke-linecap:round;stroke-linejoin:bevel;stroke-miterlimit:17.60000038;stroke-dasharray:none;stroke-dashoffset:0;stroke-opacity:1;paint-order:stroke fill markers"
           id="rect4683"
           width="30"
           height="30"
           x="40"
           y="59"
           ry="7.9000001" />
        <path
           inkscape:connector-curvature="0"
           style="opacity:0.81499999;fill:url(#Strips1_1);fill-opacity:1;stroke:none;stroke-width:8.60130024;stroke-linecap:round;stroke-linejoin:bevel;stroke-miterlimit:17.60000038;stroke-dasharray:none;stroke-dashoffset:0;stroke-opacity:1;paint-order:stroke fill markers"
           d="m 15,28.5 v 90 l 45,-45 z"
           id="path4687" />
      </g>
    </pattern>
    <linearGradient
       inkscape:collect="always"
       xlink:href="#linearGradient1141"
       id="linearGradient1143"
       x1="-382"
       y1="266"
       x2="-57"
       y2="21"
       gradientUnits="userSpaceOnUse"
       gradientTransform="matrix(1.020608,0,0,1.020608,315.7977,-2.6592121)" />
    <linearGradient
       inkscape:collect="always"
       xlink:href="#linearGradient939"
       id="linearGradient860"
       gradientUnits="userSpaceOnUse"
       x1="95"
       y1="191"
       x2="155"
       y2="91"
       gradientTransform="translate(-260)" />
    <filter
       inkscape:collect="always"
       style="color-interpolation-filters:sRGB"
       id="filter861"
       x="-0.1536"
       width="1.3072"
       y="-0.1536"
       height="1.3072">
      <feGaussianBlur
         inkscape:collect="always"
         stdDeviation="9.3486035"
         id="feGaussianBlur863" />
    </filter>
  </defs>
  <metadata
     id="metadata4488">
    <rdf:RDF>
      <cc:Work
         rdf:about="">
        <dc:format>image/svg+xml</dc:format>
        <dc:type
           rdf:resource="http://purl.org/dc/dcmitype/StillImage" />
        <dc:title />
      </cc:Work>
    </rdf:RDF>
  </metadata>
  <g
     inkscape:groupmode="layer"
     id="layer3"
     inkscape:label="background_1"
     style="display:inline">
    <rect
       style="display:inline;opacity:1;fill:#eeeeec;fill-opacity:1;stroke:none;stroke-width:1.58127558;stroke-linecap:round;stroke-linejoin:bevel;stroke-miterlimit:17.60000038;stroke-dasharray:none;stroke-dashoffset:0;stroke-opacity:0.97647059;paint-order:stroke fill markers;filter:url(#filter861)"
       id="rect4568-3"
       width="146.07193"
       height="146.07193"
       x="54.675457"
       y="56"
       ry="14.905298"
       transform="matrix(1.3378534,0,0,1.3378534,-43.147747,-43.59525)" />
  </g>
  <g
     inkscape:groupmode="layer"
     id="g858"
     inkscape:label="background_2"
     style="display:inline">
    <rect
       style="display:inline;opacity:1;fill:url(#linearGradient860);fill-opacity:1;stroke:none;stroke-width:7.00387716;stroke-linecap:round;stroke-linejoin:bevel;stroke-miterlimit:17.60000038;stroke-dasharray:none;stroke-dashoffset:0;stroke-opacity:0.97647059;paint-order:stroke fill markers"
       id="rect852"
       width="222.07193"
       height="222.07193"
       x="-243.32454"
       y="18"
       ry="22.6604" />
  </g>
  <g
     style="display:inline"
     inkscape:label="film-strip"
     id="g4738"
     inkscape:groupmode="layer">
    <path
       style="display:inline;opacity:1;fill:url(#linearGradient1143);fill-opacity:1;stroke:none;stroke-width:7.14821291;stroke-linecap:round;stroke-linejoin:bevel;stroke-miterlimit:17.60000038;stroke-dasharray:none;stroke-dashoffset:0;stroke-opacity:0.97647059;paint-order:stroke fill markers"
       d="M 184.05356,15.711734 14.38745,187.22969 v 32.00363 c 0,12.81258 10.314571,23.12715 23.127139,23.12715 H 67.381325 L 241.03618,66.811901 V 38.83887 c 0,-12.812572 -10.31456,-23.127136 -23.12714,-23.127136 z"
       id="rect1130"
       inkscape:connector-curvature="0" />
    <path
       style="display:inline;opacity:1;fill:#280b0b;fill-opacity:1;stroke:none;stroke-width:7.14821291;stroke-linecap:round;stroke-linejoin:bevel;stroke-miterlimit:17.60000038;stroke-dasharray:none;stroke-dashoffset:0;stroke-opacity:0.97647059;paint-order:stroke fill markers"
       d="M 149.04192,15.711734 14.38745,150.36621 v 8.45989 l 0.926915,-0.92692 c 1.058504,-1.05851 2.823176,-0.99814 3.956857,0.13553 l 9.209395,9.20941 c 1.133681,1.13368 1.19405,2.89834 0.135547,3.95683 l -5.730959,5.73296 c -1.058512,1.05852 -2.823175,0.99615 -3.956846,-0.13754 l -4.540909,-4.54091 v 9.83332 c 0.721702,1.0229 0.724426,2.35254 0,3.29106 v 8.28647 l 12.510419,-12.51043 c 3.700315,-3.70032 9.868922,-3.48868 13.832034,0.47443 l 32.193007,32.193 c 3.963113,3.96311 4.174736,10.13171 0.47442,13.83203 l -14.705124,14.70513 h 7.835953 l 2.190724,-2.19072 c 1.058493,-1.0585 2.823165,-0.99614 3.956846,0.13754 l 2.053177,2.05318 h 9.761556 l -6.93296,-6.93497 c -1.133681,-1.13367 -1.196051,-2.89832 -0.137537,-3.95684 l 5.732938,-5.73295 c 1.058503,-1.05851 2.823165,-0.99614 3.956857,0.13754 l 9.207388,9.20941 c 1.133684,1.13368 1.19606,2.89635 0.137558,3.95486 l -3.322956,3.32295 h 9.68182 L 241.03618,104.13785 v -9.739636 c -0.0764,0.104408 -0.15105,0.210872 -0.24519,0.304992 l -5.73294,5.730944 c -1.05851,1.05851 -2.82317,0.99815 -3.95686,-0.13553 l -9.20738,-9.209405 c -1.1337,-1.133684 -1.19606,-2.898342 -0.13756,-3.956848 l 5.73295,-5.730955 c 1.05851,-1.058506 2.82317,-0.998135 3.95685,0.13555 l 9.2074,9.209392 c 0.14574,0.145737 0.27252,0.30271 0.38273,0.466451 v -9.847272 l -4.71035,-4.708352 c -1.13368,-1.133685 -1.19405,-2.898344 -0.13555,-3.95685 l 4.8459,-4.845894 v -7.837951 l -15.9171,15.917099 c -3.70031,3.70031 -9.86892,3.488684 -13.83203,-0.474422 L 179.09404,43.268149 C 175.13095,39.305042 174.9193,33.134438 178.61963,29.434127 L 192.344,15.711734 h -8.2386 l -2.45186,2.451851 c -1.05851,1.058506 -2.82317,0.996134 -3.95686,-0.137542 l -2.3143,-2.314309 h -9.76354 l 7.19806,7.196083 c 1.13369,1.133678 1.19407,2.898344 0.13556,3.956849 l -5.73295,5.732947 c -1.05851,1.058506 -2.82317,0.996135 -3.95685,-0.137543 l -9.20739,-9.207399 c -1.13369,-1.133685 -1.19606,-2.898344 -0.13755,-3.956849 l 3.58409,-3.584088 z m 69.2977,0.0099 22.6866,22.686601 c -0.22626,-12.46759 -10.2191,-22.45998 -22.6866,-22.686601 z m -71.17148,11.521707 c 0.71513,0.02478 1.4385,0.322202 2.00535,0.889045 l 9.20939,9.209392 c 1.13368,1.133678 1.19405,2.898343 0.13555,3.95685 l -5.73095,5.732947 c -1.05851,1.058505 -2.82318,0.996135 -3.95686,-0.137544 l -9.20938,-9.209391 c -1.13368,-1.133685 -1.19406,-2.89635 -0.13556,-3.954856 l 5.73096,-5.732946 c 0.52926,-0.529253 1.2364,-0.778282 1.9515,-0.753497 z m -14.43401,14.432035 c 0.7151,0.02478 1.43849,0.324197 2.00534,0.891038 l 9.20937,9.209394 c 1.13368,1.133678 1.19606,2.898344 0.13756,3.956849 l -5.73295,5.730953 c -1.05851,1.058506 -2.82317,0.998129 -3.95685,-0.13555 l -9.2094,-9.20936 c -1.13369,-1.133685 -1.19405,-2.898344 -0.13554,-3.956849 l 5.73295,-5.730953 c 0.52924,-0.529253 1.23439,-0.780275 1.94952,-0.75549 z m 30.88336,6.942925 c 2.49999,0.08591 5.03313,1.128113 7.01468,3.109665 l 32.193,32.193007 c 3.96312,3.963105 4.17474,10.131708 0.47443,13.832026 l -20.0374,20.037411 c -3.70031,3.70031 -9.87093,3.48867 -13.83402,-0.47444 L 137.23715,85.125002 c -3.96309,-3.963107 -4.17472,-10.133713 -0.47442,-13.834024 l 20.0374,-20.037404 c 1.85017,-1.850156 4.31735,-2.721146 6.81736,-2.635241 z m -45.3174,7.491104 c 0.71512,0.02478 1.4405,0.324196 2.00734,0.891039 l 9.20739,9.207397 c 1.13369,1.13368 1.19605,2.898345 0.13755,3.956851 l -5.73295,5.732946 c -1.05852,1.058509 -2.82317,0.998129 -3.95686,-0.135548 l -9.20738,-9.209393 c -1.13368,-1.133687 -1.19605,-2.898342 -0.13756,-3.956851 l 5.73296,-5.732947 c 0.52924,-0.52925 1.23441,-0.778278 1.94951,-0.753494 z m -14.43402,14.434028 c 0.71512,0.02478 1.44048,0.324195 2.00732,0.891039 l 9.20741,9.207399 c 1.13366,1.133678 1.19603,2.898348 0.13754,3.95685 l -5.73295,5.732945 c -1.05849,1.058509 -2.82317,0.996136 -3.95685,-0.137543 L 96.321149,80.98676 c -1.133697,-1.133684 -1.19606,-2.898341 -0.137558,-3.95685 l 5.732949,-5.732944 c 0.52924,-0.529244 1.23441,-0.778279 1.94953,-0.753497 z m -14.432039,14.43413 c 0.715109,0.02478 1.438495,0.324196 2.005342,0.891037 l 9.209387,9.207406 c 1.13368,1.133671 1.19405,2.898349 0.13555,3.956843 l -5.732946,5.732951 c -1.058514,1.05851 -2.821173,0.99612 -3.954855,-0.13756 l -9.209394,-9.207383 c -1.133682,-1.133683 -1.194061,-2.898348 -0.135548,-3.956852 l 5.730949,-5.732947 c 0.529256,-0.52925 1.236405,-0.77828 1.951515,-0.753495 z m 30.883359,6.940931 c 2.50001,0.08591 5.03313,1.130102 7.01468,3.11166 l 32.19301,32.191006 c 3.9631,3.9631 4.17474,10.13172 0.47444,13.83204 l -20.03742,20.03739 c -3.70032,3.70033 -9.87091,3.49069 -13.83402,-0.47243 L 93.935074,128.42515 c -3.963111,-3.96309 -4.172743,-10.1317 -0.472428,-13.83202 L 113.50005,94.5537 c 1.85014,-1.850159 4.31734,-2.721143 6.81734,-2.63524 z m 94.68732,3.161499 c 0.7151,0.02479 1.44047,0.324188 2.00732,0.891029 l 9.20739,9.209388 c 1.13369,1.13369 1.19606,2.89636 0.13755,3.95486 l -5.73294,5.73295 c -1.05852,1.05851 -2.82319,0.99811 -3.95685,-0.13557 l -9.20741,-9.20937 c -1.13367,-1.13368 -1.19606,-2.89835 -0.13754,-3.95687 l 5.73294,-5.732932 c 0.52926,-0.529245 1.23441,-0.778277 1.94954,-0.753485 z M 75,99.411587 c 0.71512,0.02483 1.438497,0.322206 2.005342,0.889053 l 9.209385,9.20939 c 1.133671,1.13368 1.194061,2.89834 0.135557,3.95685 l -5.730959,5.73094 c -1.058503,1.0585 -2.823175,0.99813 -3.956846,-0.13555 l -9.209395,-9.20939 c -1.133681,-1.13369 -1.19405,-2.89833 -0.135547,-3.95685 l 5.73295,-5.73094 C 73.579733,99.63583 74.284891,99.386808 75,99.411587 Z m 125.57266,10.102423 c 0.71511,0.0248 1.43849,0.32419 2.00534,0.89105 l 9.20938,9.20739 c 1.13369,1.13367 1.19406,2.89834 0.13557,3.95685 l -5.73296,5.73295 c -1.0585,1.0585 -2.82117,0.99613 -3.95485,-0.13756 l -9.20939,-9.20739 c -1.13369,-1.13366 -1.19605,-2.89834 -0.13755,-3.95685 l 5.73294,-5.73295 c 0.52926,-0.52925 1.2364,-0.77827 1.95152,-0.75349 z m -140.006679,4.32962 c 0.715109,0.0248 1.440475,0.32418 2.007322,0.89103 l 9.207404,9.20939 c 1.133681,1.13368 1.196041,2.89635 0.137538,3.95487 l -5.732951,5.73294 c -1.058512,1.05851 -2.823165,0.99812 -3.956846,-0.13555 l -9.207394,-9.20939 c -1.133681,-1.13369 -1.19606,-2.89836 -0.137548,-3.95685 l 5.732951,-5.73296 c 0.529246,-0.52925 1.234403,-0.77826 1.949524,-0.75348 z m 125.572649,10.10442 c 0.71511,0.0248 1.43849,0.32418 2.00534,0.89103 l 9.2094,9.20739 c 1.13366,1.13368 1.19405,2.89836 0.13554,3.95687 l -5.73095,5.73294 c -1.05851,1.05849 -2.82317,0.99614 -3.95686,-0.13755 l -9.20939,-9.20739 c -1.13368,-1.1337 -1.19405,-2.89835 -0.13555,-3.95686 l 5.73096,-5.73295 c 0.52925,-0.52925 1.2364,-0.77828 1.95151,-0.75348 z m -140.00668,4.3296 c 0.715111,0.0248 1.440487,0.3242 2.007322,0.89105 l 9.207404,9.20738 c 1.133681,1.13369 1.196041,2.89835 0.137538,3.95685 l -5.732939,5.73295 c -1.058514,1.05852 -2.823185,0.99614 -3.956857,-0.13754 l -9.207393,-9.2074 c -1.133681,-1.13369 -1.196052,-2.89833 -0.137547,-3.95685 l 5.732948,-5.73295 c 0.529246,-0.52924 1.234404,-0.77827 1.949524,-0.75349 z m 30.885353,6.94093 c 2.500001,0.086 5.03313,1.13011 7.014681,3.11167 L 116.223,170.52326 c 3.96312,3.96309 4.17673,10.1297 0.47641,13.83002 l -20.039391,20.03939 c -3.700318,3.70033 -9.868933,3.48869 -13.832026,-0.47441 L 50.634985,171.72724 c -3.963103,-3.9631 -4.172746,-10.1337 -0.472429,-13.83401 l 20.037402,-20.03742 c 1.85016,-1.85017 4.317347,-2.72313 6.817345,-2.63723 z m 94.687297,3.16348 c 0.71513,0.0248 1.44049,0.32221 2.00733,0.88905 l 9.2074,9.20939 c 1.13368,1.13367 1.19604,2.89836 0.13754,3.95685 l -5.73294,5.73295 c -1.05851,1.05851 -2.82317,0.99615 -3.95686,-0.13754 l -9.20938,-9.20939 c -1.13368,-1.13368 -1.19406,-2.89635 -0.13556,-3.95485 l 5.73295,-5.73297 c 0.52925,-0.52923 1.23441,-0.77826 1.94952,-0.75349 z m -140.006679,4.32962 c 0.715109,0.0248 1.440485,0.32419 2.007331,0.89104 l 9.209385,9.20739 c 1.133681,1.13368 1.19406,2.89835 0.135558,3.95686 l -5.73295,5.73295 c -1.058503,1.05851 -2.821175,0.99612 -3.954856,-0.13756 l -9.209395,-9.20738 c -1.133691,-1.13369 -1.19605,-2.89835 -0.137537,-3.95686 l 5.732939,-5.73295 c 0.529256,-0.52925 1.234415,-0.77828 1.949525,-0.75349 z M 157.27059,152.8141 c 0.7151,0.0248 1.44046,0.3242 2.00732,0.89104 l 9.20739,9.20939 c 1.13369,1.13369 1.19605,2.89836 0.13756,3.95685 l -5.73295,5.73096 c -1.05851,1.05852 -2.82319,0.99812 -3.95685,-0.13555 l -9.20741,-9.20939 c -1.13369,-1.13369 -1.19606,-2.89835 -0.13755,-3.95687 l 5.73295,-5.73094 c 0.52926,-0.52926 1.23441,-0.78026 1.94954,-0.75549 z m -14.43404,14.43403 c 0.71511,0.0248 1.44048,0.32419 2.00733,0.89105 l 9.20938,9.20739 c 1.13369,1.13368 1.19406,2.89837 0.13557,3.95685 l -5.73296,5.73294 c -1.05852,1.05851 -2.82316,0.99813 -3.95685,-0.13555 l -9.20739,-9.20939 c -1.13369,-1.13369 -1.19605,-2.89834 -0.13755,-3.95685 l 5.73294,-5.73295 c 0.52926,-0.52925 1.23443,-0.77827 1.94953,-0.75349 z m -14.43204,14.43404 c 0.71511,0.0248 1.43849,0.32418 2.00534,0.89103 l 9.2094,9.20739 c 1.13366,1.13368 1.19404,2.89836 0.13554,3.95685 l -5.73096,5.73296 c -1.0585,1.05851 -2.82316,0.99614 -3.95685,-0.13755 l -9.20939,-9.20739 c -1.1337,-1.1337 -1.19406,-2.89835 -0.13555,-3.95686 l 5.73096,-5.73295 c 0.52925,-0.52925 1.2364,-0.77826 1.95151,-0.75348 z m -14.43403,14.43401 c 0.71513,0.0248 1.4385,0.32221 2.00534,0.88905 l 9.20939,9.20939 c 1.13368,1.13367 1.19605,2.89836 0.13754,3.95685 l -5.73294,5.73295 c -1.05851,1.05851 -2.82317,0.99612 -3.95686,-0.13755 l -9.20938,-9.20739 c -1.13368,-1.13368 -1.19406,-2.89834 -0.13556,-3.95684 l 5.73295,-5.73295 c 0.52926,-0.52925 1.23441,-0.77828 1.94952,-0.75351 z m -14.434012,14.43403 c 0.715102,0.0248 1.440472,0.32221 2.007322,0.88905 l 9.20739,9.20939 c 1.13367,1.13369 1.19605,2.89836 0.13756,3.95685 l -5.73295,5.73096 c -1.05851,1.05852 -2.82318,0.99812 -3.95685,-0.13555 l -9.207409,-9.20939 c -1.13369,-1.13368 -1.19604,-2.89836 -0.137546,-3.95687 l 5.732948,-5.73094 c 0.529257,-0.52926 1.234412,-0.77829 1.949535,-0.7535 z m -84.943703,11.73501 c 1.355642,10.35959 9.510097,18.51517 19.869961,19.86995 z"
       id="rect976"
       inkscape:connector-curvature="0" />
  </g>
  <g
     inkscape:groupmode="layer"
     id="layer2"
     inkscape:label="audio-wave"
     style="display:inline">
    <path
       style="display:inline;opacity:1;fill:#73d216;fill-opacity:1;stroke:#000000;stroke-width:0.2;stroke-linecap:butt;stroke-linejoin:miter;stroke-miterlimit:4;stroke-dasharray:none;stroke-opacity:1"
       d="M 35.064873,51.649885 31.298658,89.766287 30.042219,82.138701 28.788869,97.38851 27.532431,56.729543 25.022654,120.25511 V 74.516507 L 23.766215,122.79766 22.509788,112.6329 21.256427,122.79766 20,54.187009 16.233773,107.55322 14.977346,66.894286 12.467557,97.38851 11.211119,84.681229 9.9577692,97.38851 8.7013298,61.809202 4.9351151,127.88272 H 66.451071 l -3.766216,-71.153177 -1.25644,27.951686 -1.25335,-7.622216 -2.512866,48.281177 -1.253348,-25.409148 -1.25644,17.786908 -1.256427,-40.658937 -2.509787,38.116407 -1.25644,-12.70726 -1.253349,7.62762 L 47.61997,94.845964 46.363543,122.79766 45.110181,61.809202 42.597316,97.38851 41.343966,61.809202 38.8311,84.681229 37.57774,69.43682 36.321312,87.223778 Z m 61.768504,0 L 93.067149,89.766287 91.810721,82.138701 90.554292,97.38851 89.300929,56.729543 86.788052,120.25511 V 74.516507 L 85.534691,122.79766 84.278262,112.6329 83.021825,122.79766 81.768476,54.187009 78.002249,107.55322 76.745821,66.894286 74.236033,97.38851 72.979595,84.681229 71.723167,97.38851 70.469806,61.809202 66.703591,127.88272 h 61.515989 l -3.76623,-71.153177 -1.25643,27.951686 -1.25644,-7.622216 -2.50979,48.281177 -1.25641,-25.409148 -1.25337,17.786908 -1.25643,-40.658937 -2.5098,38.116407 -1.25642,-12.70726 -1.25644,7.62762 -1.25336,-15.249816 -1.25642,27.951696 -1.25645,-60.988458 -2.50977,35.579308 -1.25643,-35.579308 -2.5098,22.872027 -1.256426,-15.244409 -1.253372,17.786958 z m 31.386203,76.232835 h 61.51594 l -3.76621,-71.153177 -1.25643,27.951686 -1.25334,-7.622216 -2.51287,48.281177 -1.25338,-25.409148 -1.25642,17.786908 -1.25645,-40.658937 -2.50975,38.116407 -1.25646,-12.70726 -1.25336,7.62762 -1.25643,-15.249816 -1.25643,27.951696 -1.25642,-60.988458 -2.50979,35.579308 -1.25644,-35.579308 -2.50977,22.872027 -1.25645,-15.244409 -1.25335,17.786958 -1.25645,-35.573893 -3.76621,38.116402 -1.25643,-7.627586 -1.25336,15.249809 -1.25643,-40.658967 -2.50978,63.525567 V 74.516507 l -1.25643,48.281153 -1.25644,-10.16476 -1.25336,10.16476 -1.25642,-68.610651 -3.76622,53.366211 -1.25645,-40.658934 -2.50978,30.494224 -1.25643,-12.707281 -1.25335,12.707281 -1.25644,-35.579308 z m 91.89824,-76.232835 -3.76623,38.116402 -1.25643,-7.627586 -1.25644,15.249809 -1.25336,-40.658967 -2.51286,63.525567 V 74.516507 l -1.25335,48.281153 -1.25645,-10.16476 -1.25642,10.16476 -1.25333,-68.610651 -3.76625,53.366211 -1.25642,-40.658934 -2.50979,30.494224 -1.25643,-12.707281 -1.25644,12.707281 -1.25336,-35.579308 -3.76621,66.073518 h 61.51597 l -3.76624,-71.153177 -1.25643,27.951686 -1.25643,-7.622216 -2.50979,48.281177 -1.25644,-25.409148 -1.25334,17.786908 -1.25642,-40.658937 -2.50981,38.116407 -1.25643,-12.70726 -1.25644,7.62762 -1.25335,-15.249816 -1.25642,27.951696 -1.25643,-60.988458 -2.5098,35.579308 -1.25644,-35.579308 -2.50976,22.872027 -1.25645,-15.244409 -1.25642,17.786958 z M 4.9351151,128.08287 8.7013298,194.1564 9.9577692,158.57708 11.211119,171.2844 12.467557,158.57708 14.977346,189.07133 16.233773,148.41235 20,201.77859 l 1.256427,-68.61062 1.253361,10.16473 1.256427,-10.16473 1.256439,48.28117 v -45.73866 l 2.509777,63.52557 1.256438,-40.65897 1.25335,15.24981 1.256439,-7.62219 3.766215,38.11644 1.256439,-35.5793 1.256428,17.78693 1.25336,-15.24437 2.512866,22.872 1.25335,-35.57932 2.512865,35.57932 1.253362,-60.98843 1.256427,27.95167 1.256438,-15.24441 1.253349,7.6222 1.25644,-12.70726 2.509787,38.11642 1.256427,-40.65895 1.25644,17.79234 1.253348,-25.41458 2.512866,48.28119 1.25335,-7.62219 1.25644,27.95165 3.766216,-71.15318 z m 61.7684759,0 3.766215,66.07353 1.253361,-35.57932 1.256428,12.70732 1.256438,-12.70732 2.509788,30.49425 1.256428,-40.65898 3.766227,53.36624 1.253349,-68.61062 1.256437,10.16473 1.256429,-10.16473 1.253361,48.28117 v -45.73866 l 2.512877,63.52557 1.253363,-40.65897 1.256429,15.24981 1.256428,-7.62219 3.766228,38.11644 1.256415,-35.5793 1.253372,17.78693 1.256426,-15.24437 2.5098,22.872 1.25643,-35.57932 2.50977,35.57932 1.25645,-60.98843 1.25642,27.95167 1.25336,-15.24441 1.25644,7.6222 1.25642,-12.70726 2.5098,38.11642 1.25643,-40.65895 1.25337,17.79234 1.25641,-25.41458 2.50979,48.28119 1.25644,-7.62219 1.25643,27.95165 3.76623,-71.15318 z m 61.515989,0 3.76621,66.07353 1.25644,-35.57932 1.25335,12.70732 1.25643,-12.70732 2.50978,30.49425 1.25645,-40.65898 3.76622,53.36624 1.25642,-68.61062 1.25336,10.16473 1.25644,-10.16473 1.25643,48.28117 v -45.73866 l 2.50978,63.52557 1.25643,-40.65897 1.25336,15.24981 1.25643,-7.62219 3.76621,38.11644 1.25645,-35.5793 1.25335,17.78693 1.25645,-15.24437 2.50977,22.872 1.25644,-35.57932 2.50979,35.57932 1.25642,-60.98843 1.25643,27.95167 1.25643,-15.24441 1.25336,7.6222 1.25646,-12.70726 2.50975,38.11642 1.25645,-40.65895 1.25642,17.79234 1.25338,-25.41458 2.51287,48.28119 1.25334,-7.62219 1.25643,27.95165 3.76621,-71.15318 z m 61.76847,0 3.76621,66.07353 1.25336,-35.57932 1.25644,12.70732 1.25643,-12.70732 2.50979,30.49425 1.25642,-40.65898 3.76625,53.36624 1.25333,-68.61062 1.25642,10.16473 1.25645,-10.16473 1.25335,48.28117 v -45.73866 l 2.51286,63.52557 1.25336,-40.65897 1.25644,15.24981 1.25643,-7.62219 3.76623,38.11644 1.25336,-35.5793 1.25642,17.78693 1.25645,-15.24437 2.50976,22.872 1.25644,-35.57932 2.5098,35.57932 1.25643,-60.98843 1.25642,27.95167 1.25335,-15.24441 1.25644,7.6222 1.25643,-12.70726 2.50981,38.11642 1.25642,-40.65895 1.25334,17.79234 1.25644,-25.41458 2.50979,48.28119 1.25643,-7.62219 1.25643,27.95165 3.76624,-71.15318 z"
       id="path895"
       inkscape:connector-curvature="0" />
    <path
       style="display:inline;opacity:1;fill:#ffffff;stroke:#000000;stroke-width:0.392;stroke-linecap:butt;stroke-linejoin:miter;stroke-miterlimit:4;stroke-dasharray:none;stroke-opacity:1"
       d="m 35.064873,109.78908 -3.766215,9.08484 -1.256439,-1.81928 -1.25335,3.63856 L 27.532431,111 25.022654,126.14526 v -10.90412 l -1.256439,11.50667 -1.256427,-2.42182 -1.253361,2.42182 L 20,110.39164 l -3.766227,12.72339 -1.256427,-9.69317 -2.509789,7.27134 -1.256438,-3.03022 -1.2533498,3.03022 -1.2564394,-8.48228 -3.7662147,15.74783 H 66.451071 L 62.684855,111 l -1.25644,6.66298 -1.25335,-1.81928 -2.512866,11.51248 -1.253348,-6.06042 -1.25644,4.24114 -1.256427,-9.6932 -2.509787,9.09064 -1.25644,-3.03022 -1.253349,1.81928 -1.256438,-3.63856 -1.256427,6.66297 -1.253362,-14.53689 -2.512865,8.48228 -1.25335,-8.48228 -2.512866,5.45206 -1.25336,-3.63278 -1.256428,4.24114 z m 61.768504,0 -3.766228,9.08484 -1.256428,-1.81928 -1.256429,3.63856 L 89.300929,111 86.788052,126.14526 v -10.90412 l -1.253361,11.50667 -1.256429,-2.42182 -1.256437,2.42182 -1.253349,-16.35617 -3.766227,12.72339 -1.256428,-9.69317 -2.509788,7.27134 -1.256438,-3.03022 -1.256428,3.03022 -1.253361,-8.48228 -3.766215,15.74783 H 128.21958 L 124.45335,111 l -1.25643,6.66298 -1.25644,-1.81928 -2.50979,11.51248 -1.25641,-6.06042 -1.25337,4.24114 -1.25643,-9.6932 -2.5098,9.09064 -1.25642,-3.03022 -1.25644,1.81928 -1.25336,-3.63856 -1.25642,6.66297 -1.25645,-14.53689 -2.50977,8.48228 -1.25643,-8.48228 -2.5098,5.45206 -1.256426,-3.63278 -1.253372,4.24114 z m 31.386203,18.16967 h 61.51594 L 185.96931,111 l -1.25643,6.66298 -1.25334,-1.81928 -2.51287,11.51248 -1.25338,-6.06042 -1.25642,4.24114 -1.25645,-9.6932 -2.50975,9.09064 -1.25646,-3.03022 -1.25336,1.81928 -1.25643,-3.63856 -1.25643,6.66297 -1.25642,-14.53689 -2.50979,8.48228 -1.25644,-8.48228 -2.50977,5.45206 -1.25645,-3.63278 -1.25335,4.24114 -1.25645,-8.48226 -3.76621,9.08484 -1.25643,-1.81928 -1.25336,3.63856 -1.25643,-9.6932 -2.50978,15.14526 v -10.90412 l -1.25643,11.50667 -1.25644,-2.42182 -1.25336,2.42182 -1.25642,-16.35617 -3.76622,12.72339 -1.25645,-9.69317 -2.50978,7.27134 -1.25643,-3.03022 -1.25335,3.03022 -1.25644,-8.48228 z m 91.89824,-18.16967 -3.76623,9.08484 -1.25643,-1.81928 -1.25644,3.63856 -1.25336,-9.6932 -2.51286,15.14526 v -10.90412 l -1.25335,11.50667 -1.25645,-2.42182 -1.25642,2.42182 -1.25333,-16.35617 -3.76625,12.72339 -1.25642,-9.69317 -2.50979,7.27134 -1.25643,-3.03022 -1.25644,3.03022 -1.25336,-8.48228 -3.76621,15.74783 h 61.51597 L 247.73778,111 l -1.25643,6.66298 -1.25643,-1.81928 -2.50979,11.51248 -1.25644,-6.06042 -1.25334,4.24114 -1.25642,-9.6932 -2.50981,9.09064 -1.25643,-3.03022 -1.25644,1.81928 -1.25335,-3.63856 -1.25642,6.66297 -1.25643,-14.53689 -2.5098,8.48228 -1.25644,-8.48228 -2.50976,5.45206 -1.25645,-3.63278 -1.25642,4.24114 z m -215.1827049,18.22183 3.7662147,15.74781 1.2564394,-8.4823 1.2533498,3.03024 1.256438,-3.03024 2.509789,7.27138 1.256427,-9.69321 L 20,145.578 l 1.256427,-16.35617 1.253361,2.42183 1.256427,-2.42183 1.256439,11.50666 v -10.90413 l 2.509777,15.14527 1.256438,-9.69321 1.25335,3.6386 1.256439,-1.81928 3.766215,9.08484 1.256439,-8.47649 1.256428,4.23535 1.25336,-3.63278 2.512866,5.45206 1.25335,-8.4823 2.512865,8.4823 1.253362,-14.53689 1.256427,6.66297 1.256438,-3.63279 1.253349,1.8135 1.25644,-3.02442 2.509787,9.08485 1.256427,-9.6932 1.25644,4.24116 1.253348,-6.06044 2.512866,11.51248 1.25335,-1.81928 1.25644,6.66297 3.766216,-16.95872 z m 61.7684759,0 3.766215,15.74781 1.253361,-8.4823 1.256428,3.03024 1.256438,-3.03024 2.509788,7.27138 1.256428,-9.69321 3.766227,12.72341 1.253349,-16.35617 1.256437,2.42183 1.256429,-2.42183 1.253361,11.50666 v -10.90413 l 2.512877,15.14527 1.253363,-9.69321 1.256429,3.6386 1.256428,-1.81928 3.766228,9.08484 1.256415,-8.47649 1.253372,4.23535 1.256426,-3.63278 2.5098,5.45206 1.25643,-8.4823 2.50977,8.4823 1.25645,-14.53689 1.25642,6.66297 1.25336,-3.63279 1.25644,1.8135 1.25642,-3.02442 2.5098,9.08485 1.25643,-9.6932 1.25337,4.24116 1.25641,-6.06044 2.50979,11.51248 1.25644,-1.81928 1.25643,6.66297 3.76623,-16.95872 z m 61.515989,0 3.76621,15.74781 1.25644,-8.4823 1.25335,3.03024 1.25643,-3.03024 2.50978,7.27138 1.25645,-9.69321 3.76622,12.72341 1.25642,-16.35617 1.25336,2.42183 1.25644,-2.42183 1.25643,11.50666 v -10.90413 l 2.50978,15.14527 1.25643,-9.69321 1.25336,3.6386 1.25643,-1.81928 3.76621,9.08484 1.25645,-8.47649 1.25335,4.23535 1.25645,-3.63278 2.50977,5.45206 1.25644,-8.4823 2.50979,8.4823 1.25642,-14.53689 1.25643,6.66297 1.25643,-3.63279 1.25336,1.8135 1.25646,-3.02442 2.50975,9.08485 1.25645,-9.6932 1.25642,4.24116 1.25338,-6.06044 2.51287,11.51248 1.25334,-1.81928 1.25643,6.66297 3.76621,-16.95872 z m 61.76847,0 3.76621,15.74781 1.25336,-8.4823 1.25644,3.03024 1.25643,-3.03024 2.50979,7.27138 1.25642,-9.69321 3.76625,12.72341 1.25333,-16.35617 1.25642,2.42183 1.25645,-2.42183 1.25335,11.50666 v -10.90413 l 2.51286,15.14527 1.25336,-9.69321 1.25644,3.6386 1.25643,-1.81928 3.76623,9.08484 1.25336,-8.47649 1.25642,4.23535 1.25645,-3.63278 2.50976,5.45206 1.25644,-8.4823 2.5098,8.4823 1.25643,-14.53689 1.25642,6.66297 1.25335,-3.63279 1.25644,1.8135 1.25643,-3.02442 2.50981,9.08485 1.25642,-9.6932 1.25334,4.24116 1.25644,-6.06044 2.50979,11.51248 1.25643,-1.81928 1.25643,6.66297 3.76624,-16.95872 z"
       id="path911"
       inkscape:connector-curvature="0" />
  </g>
  <g
     inkscape:groupmode="layer"
     id="layer5"
     inkscape:label="ffmpeg"
     style="display:none">
    <path
       style="color:#000000;font-style:normal;font-variant:normal;font-weight:normal;font-stretch:normal;font-size:medium;line-height:normal;font-family:sans-serif;font-variant-ligatures:normal;font-variant-position:normal;font-variant-caps:normal;font-variant-numeric:normal;font-variant-alternates:normal;font-feature-settings:normal;text-indent:0;text-align:start;text-decoration:none;text-decoration-line:none;text-decoration-style:solid;text-decoration-color:#000000;letter-spacing:normal;word-spacing:normal;text-transform:none;writing-mode:lr-tb;direction:ltr;text-orientation:mixed;dominant-baseline:auto;baseline-shift:baseline;text-anchor:start;white-space:normal;shape-padding:0;clip-rule:nonzero;display:inline;overflow:visible;visibility:visible;opacity:1;isolation:auto;mix-blend-mode:normal;color-interpolation:sRGB;color-interpolation-filters:linearRGB;solid-color:#000000;solid-opacity:1;vector-effect:none;fill:#73d216;fill-opacity:1;fill-rule:nonzero;stroke:#4e9a06;stroke-width:6.26205349;stroke-linecap:round;stroke-linejoin:round;stroke-miterlimit:4;stroke-dasharray:none;stroke-dashoffset:0;stroke-opacity:1;color-rendering:auto;image-rendering:auto;shape-rendering:auto;text-rendering:auto;enable-background:accumulate"
       d="M 46.21789,49.048811 V 50 H 94 L 47.113323,96.8867 v 58.41606 L 152.41607,50 h 50.99422 L 51.220872,206.94535 h 53.636008 l 99.20177,-99.20181 v 55.72603 l -43.4758,43.47578 h 44.67958 l -1.69245,-0.9512 h -40.69089 l 42.13076,-42.13076 V 105.44734 L 104.46303,205.99415 H 53.468798 L 205.65821,49.048811 H 152.0222 L 48.064507,153.00653 V 97.28055 L 96.2962,49.048811 Z"
       id="path4593"
       inkscape:connector-curvature="0"
       sodipodi:nodetypes="ccccccccccccccccccccccccc" />
  </g>
</svg>
