<?xml version="1.0" encoding="UTF-8" standalone="no"?>
<!-- Created with Inkscape (http://www.inkscape.org/) -->

<svg
   xmlns:osb="http://www.openswatchbook.org/uri/2009/osb"
   xmlns:dc="http://purl.org/dc/elements/1.1/"
   xmlns:cc="http://creativecommons.org/ns#"
   xmlns:rdf="http://www.w3.org/1999/02/22-rdf-syntax-ns#"
   xmlns:svg="http://www.w3.org/2000/svg"
   xmlns="http://www.w3.org/2000/svg"
   xmlns:sodipodi="http://sodipodi.sourceforge.net/DTD/sodipodi-0.dtd"
   xmlns:inkscape="http://www.inkscape.org/namespaces/inkscape"
   width="256px"
   height="256px"
   viewBox="0 0 256 256"
   version="1.1"
   id="SVGRoot"
   sodipodi:docname="videomass_wizard-v3.svg"
   inkscape:version="0.92.4 (5da689c313, 2019-01-14)"
   enable-background="new">
  <sodipodi:namedview
     id="base"
     pagecolor="#ffffff"
     bordercolor="#666666"
     borderopacity="1.0"
     inkscape:pageopacity="0.0"
     inkscape:pageshadow="2"
     inkscape:zoom="1.6404878"
     inkscape:cx="-173.62074"
     inkscape:cy="132.35611"
     inkscape:document-units="px"
     inkscape:current-layer="g4738"
     showgrid="true"
     inkscape:window-width="1920"
     inkscape:window-height="1015"
     inkscape:window-x="0"
     inkscape:window-y="0"
     inkscape:window-maximized="1"
     inkscape:grid-bbox="true"
     inkscape:measure-start="110,130"
     inkscape:measure-end="0,0"
     showguides="true">
    <inkscape:grid
       type="xygrid"
       id="grid5114" />
  </sodipodi:namedview>
  <defs
     id="defs4485">
    <inkscape:path-effect
       effect="bspline"
       id="path-effect4551"
       is_visible="true"
       weight="33.333333"
       steps="2"
       helper_size="0"
       apply_no_weight="true"
       apply_with_weight="true"
       only_selected="false" />
    <inkscape:path-effect
       effect="skeletal"
       id="path-effect4547"
       is_visible="true"
       pattern="M 0,5 C 0,2.24 2.24,0 5,0 7.76,0 10,2.24 10,5 10,7.76 7.76,10 5,10 2.24,10 0,7.76 0,5 Z"
       copytype="single_stretched"
       prop_scale="1"
       scale_y_rel="false"
       spacing="0"
       normal_offset="0"
       tang_offset="0"
       prop_units="false"
       vertical_pattern="false"
       fuse_tolerance="0" />
    <inkscape:path-effect
       effect="bspline"
       id="path-effect4545"
       is_visible="true"
       weight="33.333333"
       steps="2"
       helper_size="0"
       apply_no_weight="true"
       apply_with_weight="true"
       only_selected="false" />
    <inkscape:path-effect
       effect="skeletal"
       id="path-effect4541"
       is_visible="true"
       pattern="M 0,5 C 0,2.24 2.24,0 5,0 7.76,0 10,2.24 10,5 10,7.76 7.76,10 5,10 2.24,10 0,7.76 0,5 Z"
       copytype="single_stretched"
       prop_scale="1"
       scale_y_rel="false"
       spacing="0"
       normal_offset="0"
       tang_offset="0"
       prop_units="false"
       vertical_pattern="false"
       fuse_tolerance="0" />
    <inkscape:path-effect
       effect="spiro"
       id="path-effect4539"
       is_visible="true" />
    <inkscape:path-effect
       effect="bspline"
       id="path-effect4535"
       is_visible="true"
       weight="33.333333"
       steps="2"
       helper_size="0"
       apply_no_weight="true"
       apply_with_weight="true"
       only_selected="false" />
    <inkscape:path-effect
       effect="skeletal"
       id="path-effect4531"
       is_visible="true"
       pattern="M 0,5 C 0,2.24 2.24,0 5,0 7.76,0 10,2.24 10,5 10,7.76 7.76,10 5,10 2.24,10 0,7.76 0,5 Z"
       copytype="single_stretched"
       prop_scale="1"
       scale_y_rel="false"
       spacing="0"
       normal_offset="0"
       tang_offset="0"
       prop_units="false"
       vertical_pattern="false"
       fuse_tolerance="0" />
    <inkscape:path-effect
       effect="bspline"
       id="path-effect4529"
       is_visible="true"
       weight="33.333333"
       steps="2"
       helper_size="0"
       apply_no_weight="true"
       apply_with_weight="true"
       only_selected="false" />
    <inkscape:path-effect
       effect="skeletal"
       id="path-effect4525"
       is_visible="true"
       pattern="M 0,5 C 0,2.24 2.24,0 5,0 7.76,0 10,2.24 10,5 10,7.76 7.76,10 5,10 2.24,10 0,7.76 0,5 Z"
       copytype="single_stretched"
       prop_scale="1"
       scale_y_rel="false"
       spacing="0"
       normal_offset="0"
       tang_offset="0"
       prop_units="false"
       vertical_pattern="false"
       fuse_tolerance="0" />
    <inkscape:path-effect
       effect="bspline"
       id="path-effect4523"
       is_visible="true"
       weight="33.333333"
       steps="2"
       helper_size="0"
       apply_no_weight="true"
       apply_with_weight="true"
       only_selected="false" />
    <inkscape:path-effect
       effect="bspline"
       id="path-effect4519"
       is_visible="true"
       weight="33.333333"
       steps="2"
       helper_size="0"
       apply_no_weight="true"
       apply_with_weight="true"
       only_selected="false" />
    <pattern
       inkscape:isstock="true"
       inkscape:stockid="Stripes 1:1"
       id="Strips1_1"
       patternTransform="translate(0,0) scale(10,10)"
       height="1"
       width="2"
       patternUnits="userSpaceOnUse"
       inkscape:collect="always">
      <rect
         id="rect5447"
         height="2"
         width="1"
         y="-0.5"
         x="0"
         style="fill:black;stroke:none" />
    </pattern>
    <linearGradient
       id="linearGradient4727"
       osb:paint="solid">
      <stop
         style="stop-color:#ce5c00;stop-opacity:1;"
         offset="0"
         id="stop4725" />
    </linearGradient>
    <pattern
       patternUnits="userSpaceOnUse"
       width="55"
       height="90"
       patternTransform="translate(-60,50.5)"
       id="pattern6214">
      <g
         style="fill:url(#Strips1_1);fill-opacity:1"
         transform="translate(-15,-28.5)"
         id="g4691">
        <rect
           style="opacity:0.81499999;fill:url(#Strips1_1);fill-opacity:1;stroke:none;stroke-width:4.52699995;stroke-linecap:round;stroke-linejoin:bevel;stroke-miterlimit:17.60000038;stroke-dasharray:none;stroke-dashoffset:0;stroke-opacity:1;paint-order:stroke fill markers"
           id="rect4683"
           width="30"
           height="30"
           x="40"
           y="59"
           ry="7.9000001" />
        <path
           inkscape:connector-curvature="0"
           style="opacity:0.81499999;fill:url(#Strips1_1);fill-opacity:1;stroke:none;stroke-width:8.60130024;stroke-linecap:round;stroke-linejoin:bevel;stroke-miterlimit:17.60000038;stroke-dasharray:none;stroke-dashoffset:0;stroke-opacity:1;paint-order:stroke fill markers"
           d="m 15,28.5 v 90 l 45,-45 z"
           id="path4687" />
      </g>
    </pattern>
  </defs>
  <metadata
     id="metadata4488">
    <rdf:RDF>
      <cc:Work
         rdf:about="">
        <dc:format>image/svg+xml</dc:format>
        <dc:type
           rdf:resource="http://purl.org/dc/dcmitype/StillImage" />
        <dc:title />
      </cc:Work>
    </rdf:RDF>
  </metadata>
  <g
     inkscape:groupmode="layer"
     id="layer3"
     inkscape:label="sfondo"
     style="display:none">
    <path
       style="display:inline;opacity:1;fill:#99542c;fill-opacity:1;stroke:none;stroke-width:2.40400004;stroke-linecap:round;stroke-linejoin:bevel;stroke-miterlimit:17.60000038;stroke-dasharray:none;stroke-dashoffset:0;stroke-opacity:0.97647059;paint-order:stroke fill markers"
       d="m 218.90403,18.277143 c -0.8573,-0.09761 -1.72733,-0.153296 -2.6116,-0.153293 l -58.60838,0.0014 -8.32508,8.325078 1.62967,1.629662 -7.07107,7.071067 1.90587,1.905872 L 121.0747,61.805667 119.16883,59.899795 16.88141,162.1872 v 55.34769 c 0,0.62392 0.0311,1.23972 0.0801,1.85062 l 20.72983,20.72983 c 0.6109,0.049 1.2267,0.0801 1.85062,0.0801 H 91.17733 L 216.53411,114.83867 237.74731,93.625472 238.95298,92.4198 V 40.784431 c 0,-0.88387 -0.0558,-1.754675 -0.1533,-2.611601 z"
       id="path882"
       inkscape:connector-curvature="0" />
  </g>
  <g
     style="display:inline"
     inkscape:label="sfondo copia"
     id="g4738"
     inkscape:groupmode="layer">
    <path
       style="display:inline;opacity:1;fill:#2e3436;fill-opacity:1;stroke:none;stroke-width:5.57302427;stroke-linecap:round;stroke-linejoin:bevel;stroke-miterlimit:17.60000038;stroke-dasharray:none;stroke-dashoffset:0;stroke-opacity:0.97647059;paint-order:stroke fill markers"
       d="M 171.29825,38.684058 39.019952,172.40612 v 24.95128 c 0,9.98917 8.041639,18.03081 18.030816,18.03081 H 80.336035 L 215.72411,78.523733 V 56.714872 c 0,-9.989179 -8.04164,-18.030814 -18.03082,-18.030814 z"
       id="rect1130"
       inkscape:connector-curvature="0" />
    <path
       style="display:inline;opacity:1;fill:#f57900;fill-opacity:1;stroke:none;stroke-width:5.57302427;stroke-linecap:round;stroke-linejoin:bevel;stroke-miterlimit:17.60000038;stroke-dasharray:none;stroke-dashoffset:0;stroke-opacity:0.97647059;paint-order:stroke fill markers"
       d="M 144.00181,38.684058 39.019952,143.66592 v 6.59565 l 0.722659,-0.72266 c 0.825251,-0.82525 2.201057,-0.77819 3.084919,0.10568 l 7.180002,7.18 c 0.883862,0.88386 0.930928,2.25966 0.105678,3.08491 l -4.468078,4.46963 c -0.825258,0.82526 -2.201057,0.77662 -3.084911,-0.10724 l -3.540269,-3.54027 v 7.66644 c 0.562667,0.79749 0.564791,1.83414 0,2.56584 v 6.46045 l 9.753608,-9.75361 c 2.88491,-2.88491 7.694195,-2.71991 10.783991,0.36988 l 25.098919,25.09891 c 3.089796,3.0898 3.254786,7.89908 0.369876,10.78399 L 73.56166,215.38821 h 6.109213 l 1.707974,-1.70797 c 0.825242,-0.82524 2.201049,-0.77663 3.084911,0.10724 l 1.600737,1.60073 h 7.610487 l -5.405205,-5.40676 c -0.883862,-0.88386 -0.932487,-2.25965 -0.107229,-3.08491 l 4.469622,-4.46963 c 0.82525,-0.82525 2.201049,-0.77664 3.084918,0.10723 l 7.178442,7.18001 c 0.88386,0.88386 0.93249,2.25811 0.10724,3.08336 l -2.59071,2.5907 h 7.54833 L 215.72411,107.62449 v -7.59339 c -0.0596,0.0814 -0.11778,0.16439 -0.19116,0.23778 l -4.46963,4.46807 c -0.82525,0.82525 -2.20105,0.77818 -3.08492,-0.10568 l -7.17844,-7.18 c -0.88387,-0.883865 -0.93249,-2.259661 -0.10724,-3.084913 l 4.46963,-4.468074 c 0.82525,-0.825253 2.20105,-0.778185 3.08492,0.10568 l 7.17845,7.179999 c 0.11361,0.113621 0.21247,0.236004 0.29839,0.363662 v -7.677315 l -3.67238,-3.670814 c -0.88386,-0.883865 -0.93092,-2.259661 -0.10567,-3.084913 l 3.77805,-3.778048 v -6.110771 l -12.4096,12.409589 c -2.8849,2.884905 -7.69419,2.719913 -10.78398,-0.369878 L 167.43161,60.16811 c -3.08979,-3.089792 -3.25479,-7.900635 -0.36988,-10.785542 l 10.70006,-10.69851 h -6.42314 l -1.91156,1.911559 c -0.82525,0.825251 -2.20105,0.776625 -3.08491,-0.107234 l -1.80433,-1.804325 h -7.61204 l 5.6119,5.610346 c 0.88386,0.88386 0.93094,2.259662 0.10568,3.084913 l -4.46962,4.469629 c -0.82526,0.825252 -2.20106,0.776625 -3.08492,-0.107235 l -7.17845,-7.178445 c -0.88386,-0.883865 -0.93248,-2.259662 -0.10723,-3.084913 l 2.79429,-2.794295 z m 54.02717,0.0078 17.68735,17.687354 C 215.53994,46.65897 207.74912,38.868515 198.02898,38.691831 Z m -55.48804,8.98277 c 0.55754,0.01932 1.12151,0.251202 1.56344,0.693134 l 7.18,7.18 c 0.88386,0.88386 0.93093,2.259661 0.10568,3.084913 l -4.46807,4.469628 c -0.82526,0.825252 -2.20106,0.776626 -3.08491,-0.107234 l -7.18001,-7.179999 c -0.88386,-0.883865 -0.93092,-2.258107 -0.10567,-3.083359 l 4.46807,-4.469629 c 0.41263,-0.412625 0.96395,-0.606777 1.52147,-0.587454 z m -11.25333,11.251775 c 0.55754,0.01932 1.12151,0.252756 1.56344,0.694688 l 7.18,7.180001 c 0.88385,0.883859 0.93249,2.259661 0.10724,3.084913 l -4.46963,4.468073 c -0.82525,0.825253 -2.20105,0.77818 -3.08491,-0.10568 l -7.18001,-7.179999 c -0.88387,-0.883865 -0.93092,-2.259662 -0.10567,-3.084914 l 4.46963,-4.468073 c 0.41262,-0.412627 0.96239,-0.608332 1.51991,-0.589009 z m 24.07787,5.412974 c 1.9491,0.06697 3.92402,0.87952 5.46893,2.424415 l 25.09891,25.098918 c 3.08979,3.089792 3.25478,7.899081 0.36988,10.78399 l -15.62194,15.62193 c -2.88491,2.88491 -7.69575,2.71992 -10.78554,-0.36988 L 134.79835,92.801365 c -3.08979,-3.089791 -3.25478,-7.900636 -0.36987,-10.785541 l 15.62193,-15.621939 c 1.44246,-1.442454 3.36597,-2.12151 5.31507,-2.054537 z m -35.3312,5.840355 c 0.55754,0.01932 1.12307,0.252756 1.565,0.694688 l 7.17845,7.178446 c 0.88386,0.88386 0.93248,2.259661 0.10723,3.084914 l -4.46963,4.469627 c -0.82526,0.825254 -2.20105,0.77818 -3.08492,-0.105679 l -7.17844,-7.180001 c -0.88386,-0.883865 -0.93249,-2.259659 -0.10723,-3.084913 l 4.46962,-4.469628 c 0.41263,-0.412625 0.96239,-0.606776 1.51992,-0.587454 z m -11.25332,11.253329 c 0.55753,0.01932 1.12306,0.252755 1.56499,0.694688 l 7.17845,7.178446 c 0.88385,0.88386 0.93247,2.259665 0.10722,3.084914 l -4.46962,4.469627 c -0.82525,0.825254 -2.20105,0.776626 -3.08492,-0.107233 l -7.17844,-7.178447 c -0.88387,-0.883865 -0.93249,-2.259659 -0.10724,-3.084913 l 4.46963,-4.469627 c 0.41262,-0.412619 0.96239,-0.606777 1.51993,-0.587455 z M 97.529181,92.686388 c 0.557527,0.01932 1.121507,0.252755 1.563442,0.694688 l 7.179997,7.178444 c 0.88386,0.88386 0.93092,2.25967 0.10567,3.08492 l -4.46962,4.46962 c -0.82526,0.82526 -2.199495,0.77662 -3.083357,-0.10724 l -7.180001,-7.17844 C 90.76145,99.944518 90.714376,98.568724 91.539634,97.74347 l 4.46807,-4.469627 c 0.412629,-0.412625 0.96395,-0.606778 1.521477,-0.587455 z m 24.077869,5.41142 c 1.9491,0.06697 3.92402,0.881074 5.46892,2.425972 l 25.09891,25.09736 c 3.08979,3.08978 3.25479,7.89908 0.36989,10.78399 l -15.62195,15.62193 c -2.88491,2.88491 -7.69574,2.72148 -10.78553,-0.36832 l -25.09892,-25.09892 c -3.089797,-3.08979 -3.253235,-7.89907 -0.36832,-10.78398 l 15.62193,-15.62352 c 1.44245,-1.442457 3.36597,-2.121513 5.31507,-2.054539 z m 73.8219,2.464822 c 0.55753,0.0193 1.12306,0.25276 1.56499,0.69469 l 7.17845,7.18 c 0.88386,0.88386 0.93248,2.2581 0.10722,3.08336 l -4.46962,4.46962 c -0.82526,0.82525 -2.20105,0.77817 -3.08492,-0.10568 l -7.17844,-7.17999 c -0.88386,-0.88387 -0.93249,-2.25967 -0.10724,-3.08492 l 4.46963,-4.46963 c 0.41263,-0.41262 0.96239,-0.60677 1.51993,-0.58745 z m -109.1531,3.37709 c 0.557535,0.0193 1.121507,0.25119 1.563442,0.69313 l 7.179994,7.18 c 0.883854,0.88386 0.930936,2.25966 0.105686,3.08491 l -4.468078,4.46807 c -0.82525,0.82525 -2.201057,0.77818 -3.084911,-0.10568 l -7.180002,-7.18 c -0.883862,-0.88386 -0.930928,-2.25965 -0.105678,-3.08491 l 4.46963,-4.46807 c 0.412621,-0.41263 0.96239,-0.60678 1.519917,-0.58745 z m 97.90132,7.87623 c 0.55754,0.0193 1.12151,0.25276 1.56344,0.69469 l 7.18,7.17845 c 0.88386,0.88386 0.93093,2.25967 0.10568,3.08492 l -4.46963,4.46963 c -0.82525,0.82524 -2.19949,0.77662 -3.08336,-0.10724 l -7.18,-7.17845 c -0.88386,-0.88386 -0.93249,-2.25966 -0.10723,-3.08491 l 4.46962,-4.46963 c 0.41263,-0.41263 0.96395,-0.60678 1.52148,-0.58746 z m -109.154642,3.37554 c 0.557527,0.0193 1.123051,0.25275 1.564986,0.69469 l 7.17845,7.18 c 0.883862,0.88385 0.932479,2.2581 0.107229,3.08336 l -4.469629,4.46962 c -0.825259,0.82526 -2.20105,0.77819 -3.084911,-0.10568 l -7.178443,-7.18 c -0.883862,-0.88386 -0.932495,-2.25966 -0.107237,-3.08491 l 4.46963,-4.46963 c 0.412621,-0.41262 0.96239,-0.60677 1.519925,-0.58745 z m 97.901312,7.87779 c 0.55754,0.0193 1.12151,0.25276 1.56344,0.69469 l 7.18,7.17845 c 0.88386,0.88386 0.93093,2.25967 0.10568,3.08492 l -4.46808,4.46962 c -0.82525,0.82525 -2.20105,0.77663 -3.08491,-0.10723 l -7.18,-7.17845 c -0.88386,-0.88387 -0.93093,-2.25965 -0.10568,-3.08491 l 4.46808,-4.46963 c 0.41262,-0.41262 0.96394,-0.60678 1.52147,-0.58746 z m -109.154643,3.37554 c 0.557527,0.0193 1.123059,0.25275 1.564986,0.69469 l 7.17845,7.17844 c 0.883862,0.88386 0.93248,2.25966 0.10723,3.08491 l -4.469622,4.46963 c -0.825258,0.82526 -2.201065,0.77663 -3.084919,-0.10723 l -7.178442,-7.17845 c -0.883862,-0.88387 -0.932488,-2.25965 -0.107237,-3.08491 l 4.469629,-4.46963 c 0.412621,-0.41262 0.96239,-0.60677 1.519925,-0.58745 z m 24.079421,5.41142 c 1.949097,0.067 3.924022,0.88107 5.468917,2.42597 l 25.097365,25.09892 c 3.0898,3.08979 3.25635,7.89752 0.37144,10.78243 l -15.6235,15.62349 c -2.88491,2.88491 -7.694203,2.71991 -10.783983,-0.36988 L 67.279938,160.3198 c -3.089789,-3.08978 -3.253234,-7.90062 -0.368324,-10.78553 l 15.621937,-15.62195 c 1.442455,-1.44245 3.36597,-2.12306 5.315067,-2.05608 z m 73.821902,2.46637 c 0.55752,0.0193 1.12306,0.25121 1.56498,0.69314 l 7.17845,7.18 c 0.88387,0.88385 0.93248,2.25967 0.10723,3.08491 l -4.46962,4.46963 c -0.82526,0.82525 -2.20106,0.77663 -3.08492,-0.10723 l -7.17999,-7.18 c -0.88386,-0.88387 -0.93094,-2.25811 -0.10569,-3.08336 l 4.46963,-4.46963 c 0.41262,-0.41262 0.96239,-0.60678 1.51993,-0.58746 z m -109.154653,3.37554 c 0.557527,0.0193 1.123059,0.25275 1.564994,0.69468 l 7.179994,7.17845 c 0.883862,0.88386 0.930935,2.25966 0.105685,3.08491 l -4.469629,4.46963 c -0.825251,0.82525 -2.199498,0.77663 -3.08336,-0.10723 l -7.180002,-7.17845 c -0.883869,-0.88386 -0.932487,-2.25966 -0.107229,-3.08491 l 4.469622,-4.46963 c 0.412629,-0.41262 0.962398,-0.60678 1.519925,-0.58745 z m 97.901323,7.87624 c 0.55752,0.0193 1.12305,0.25275 1.56498,0.69469 l 7.17845,7.18 c 0.88387,0.88386 0.93248,2.25966 0.10724,3.08491 l -4.46963,4.46808 c -0.82525,0.82525 -2.20106,0.77817 -3.08492,-0.10569 l -7.17844,-7.17999 c -0.88387,-0.88387 -0.9325,-2.25966 -0.10724,-3.08492 l 4.46963,-4.46807 c 0.41263,-0.41263 0.96239,-0.60833 1.51993,-0.58901 z m -11.25333,11.25333 c 0.55752,0.0193 1.12306,0.25275 1.56499,0.69469 l 7.17999,7.17844 c 0.88387,0.88385 0.93094,2.25968 0.10569,3.08492 l -4.46963,4.46962 c -0.82526,0.82525 -2.20105,0.77818 -3.08491,-0.10568 l -7.17845,-7.18 c -0.88386,-0.88386 -0.93248,-2.25966 -0.10723,-3.08491 l 4.46962,-4.46963 c 0.41263,-0.41262 0.9624,-0.60677 1.51993,-0.58745 z m -11.25178,11.25333 c 0.55753,0.0193 1.12151,0.25275 1.56344,0.69469 l 7.18,7.17844 c 0.88386,0.88386 0.93092,2.25967 0.10568,3.08491 l -4.46808,4.46963 c -0.82525,0.82526 -2.20105,0.77663 -3.08491,-0.10723 l -7.18,-7.17845 c -0.88387,-0.88387 -0.93094,-2.25965 -0.10568,-3.08491 l 4.46808,-4.46963 c 0.41262,-0.41262 0.96394,-0.60677 1.52147,-0.58745 z m -11.25332,11.25333 c 0.55752,0.0193 1.1215,0.2512 1.56343,0.69313 l 7.18,7.18 c 0.88386,0.88385 0.93248,2.25967 0.10723,3.08491 l -4.46962,4.46963 c -0.82526,0.82525 -2.20106,0.77662 -3.08492,-0.10724 l -7.17999,-7.17844 c -0.88387,-0.88386 -0.93095,-2.25966 -0.10569,-3.08491 l 4.46963,-4.46963 c 0.41263,-0.41262 0.96239,-0.60677 1.51993,-0.58745 z m -11.25334,11.25333 c 0.55753,0.0193 1.12306,0.2512 1.565,0.69313 l 7.17844,7.18 c 0.88386,0.88386 0.93248,2.25966 0.10724,3.08491 l -4.46963,4.46808 c -0.82525,0.82526 -2.20105,0.77818 -3.08491,-0.10569 l -7.178452,-7.17999 c -0.88387,-0.88386 -0.93248,-2.25967 -0.107238,-3.08492 l 4.46963,-4.46807 c 0.41263,-0.41263 0.9624,-0.60678 1.51992,-0.58745 z m -66.225396,9.14905 c 1.056912,8.07675 7.41444,14.43516 15.491394,15.4914 z"
       id="rect976"
       inkscape:connector-curvature="0" />
  </g>
  <g
     id="layer1"
     inkscape:groupmode="layer"
     inkscape:label="film strip"
     style="display:inline;opacity:1" />
  <g
     inkscape:groupmode="layer"
     id="layer2"
     inkscape:label="audio"
     style="display:inline">
    <path
       style="display:inline;fill:#73d216;stroke:#000000;stroke-width:0.40611544;stroke-linecap:butt;stroke-linejoin:miter;stroke-miterlimit:4;stroke-dasharray:none;stroke-opacity:1"
       d="M 56.824684,52.152723 53.868516,91.181534 52.882315,83.371355 51.898539,98.9862 50.912338,57.353974 48.94237,122.40017 V 75.566708 L 47.956169,125.00357 46.969977,114.59549 45.986192,125.00357 45,54.750579 42.043822,109.39425 41.05763,67.762032 39.087653,98.9862 38.101453,85.974744 37.117676,98.9862 36.131476,62.555227 33.175307,130.21035 h 48.284955 l -2.956169,-72.856376 -0.986201,28.62077 -0.983776,-7.80467 -1.972393,49.436876 -0.983776,-26.01736 -0.9862,18.21269 -0.986192,-41.632206 -1.969977,39.028816 -0.986201,-13.01145 -0.983776,7.8102 -0.9862,-15.614842 L 65.693208,125.00357 64.709424,62.555227 62.73703,98.9862 61.753255,62.555227 59.780861,85.974744 58.797077,70.365427 57.810885,88.578153 Z m 48.483176,0 -2.95618,39.028811 -0.9862,-7.810179 L 100.37929,98.9862 99.39551,57.353974 97.423117,122.40017 V 75.566708 L 96.439332,125.00357 95.45314,114.59549 94.466939,125.00357 93.483163,54.750579 90.526986,109.39425 89.540793,67.762032 87.570817,98.9862 86.584617,85.974744 85.598424,98.9862 84.61464,62.555227 81.658471,130.21035 h 48.284959 l -2.95618,-72.856376 -0.98619,28.62077 -0.98619,-7.80467 -1.96998,49.436876 -0.9862,-26.01736 -0.98378,18.21269 -0.98619,-41.632206 -1.96999,39.028816 -0.98618,-13.01145 -0.98621,7.8102 -0.98377,-15.614842 -0.98621,28.620772 -0.98619,-62.448343 -1.96997,36.430973 -0.98619,-36.430973 -1.96998,23.419517 -0.9862,-15.609317 -0.98379,18.212726 z m 24.63557,78.057627 h 48.28495 l -2.95617,-72.856376 -0.98619,28.62077 -0.98377,-7.80467 -1.9724,49.436876 -0.98379,-26.01736 -0.98619,18.21269 -0.9862,-41.632206 -1.96996,39.028816 -0.98621,-13.01145 -0.98378,7.8102 -0.9862,-15.614842 -0.98619,28.620772 -0.9862,-62.448343 -1.96997,36.430973 -0.9862,-36.430973 -1.96997,23.419517 -0.98621,-15.609317 -0.98377,18.212726 -0.98621,-36.42543 -2.95617,39.028811 -0.98618,-7.810179 -0.98378,15.614845 -0.9862,-41.632226 -1.96999,65.046196 V 75.566708 l -0.98618,49.436862 -0.9862,-10.40808 -0.98379,10.40808 -0.98618,-70.252991 -2.95618,54.643671 -0.9862,-41.632218 L 135.85577,98.9862 134.86958,85.974744 133.88581,98.9862 132.8996,62.555227 Z M 202.07599,52.152723 199.1198,91.181534 198.13361,83.371355 197.1474,98.9862 196.16363,57.353974 194.19124,122.40017 V 75.566708 l -0.98378,49.436862 -0.98621,-10.40808 -0.98619,10.40808 -0.98377,-70.252991 -2.95618,54.643671 -0.9862,-41.632218 -1.96997,31.224168 -0.9862,-13.011456 -0.9862,13.011456 -0.98378,-36.430973 -2.95617,67.655123 h 48.28497 l -2.95618,-72.856376 -0.98619,28.62077 -0.98621,-7.80467 -1.96997,49.436876 -0.98619,-26.01736 -0.98378,18.21269 -0.98619,-41.632206 -1.96999,39.028816 -0.9862,-13.01145 -0.98619,7.8102 -0.98378,-15.614842 -0.9862,28.620772 -0.98619,-62.448343 -1.96998,36.430973 -0.9862,-36.430973 -1.96997,23.419517 -0.98619,-15.609317 -0.9862,18.212726 z M 33.175307,130.4153 l 2.956169,67.65515 0.9862,-36.431 0.983777,13.01151 0.9862,-13.01151 1.969977,31.2242 0.986192,-41.63224 L 45,205.87507 l 0.986192,-70.25296 0.983785,10.40805 0.986192,-10.40805 0.986201,49.43689 v -46.83351 l 1.969968,65.0462 0.986201,-41.63224 0.983776,15.61485 0.986201,-7.80464 2.956168,39.02884 0.986201,-36.43096 0.986192,18.21269 0.983784,-15.60927 1.972394,23.41949 0.983775,-36.431 1.972394,36.431 0.983784,-62.44834 0.986193,28.62075 0.9862,-15.60929 0.983776,7.80464 0.986201,-13.01144 1.969977,39.02883 0.986192,-41.63224 0.9862,18.21826 0.983776,-26.02293 1.972393,49.43691 0.983776,-7.80464 0.986201,28.62073 2.956169,-72.85639 z m 48.483164,0 2.956169,67.65515 0.983784,-36.431 0.986193,13.01151 0.9862,-13.01151 1.969976,31.2242 0.986193,-41.63224 2.956177,54.64366 0.983776,-70.25296 0.986201,10.40805 0.986192,-10.40805 0.983785,49.43689 v -46.83351 l 1.972393,65.0462 0.98378,-41.63224 0.98619,15.61485 0.9862,-7.80464 2.95618,39.02884 0.98618,-36.43096 0.98379,18.21269 0.9862,-15.60927 1.96998,23.41949 0.98619,-36.431 1.96997,36.431 0.98619,-62.44834 0.98621,28.62075 0.98377,-15.60929 0.98621,7.80464 0.98618,-13.01144 1.96999,39.02883 0.98619,-41.63224 0.98378,18.21826 0.9862,-26.02293 1.96998,49.43691 0.98619,-7.80464 0.98619,28.62073 2.95618,-72.85639 z m 48.284959,0 2.95617,67.65515 0.98621,-36.431 0.98377,13.01151 0.98619,-13.01151 1.96998,31.2242 0.9862,-41.63224 2.95618,54.64366 0.98618,-70.25296 0.98379,10.40805 0.9862,-10.40805 0.98618,49.43689 v -46.83351 l 1.96999,65.0462 0.9862,-41.63224 0.98378,15.61485 0.98618,-7.80464 2.95617,39.02884 0.98621,-36.43096 0.98377,18.21269 0.98621,-15.60927 1.96997,23.41949 0.9862,-36.431 1.96997,36.431 0.9862,-62.44834 0.98619,28.62075 0.9862,-15.60929 0.98378,7.80464 0.98621,-13.01144 1.96996,39.02883 0.9862,-41.63224 0.98619,18.21826 0.98379,-26.02293 1.9724,49.43691 0.98377,-7.80464 0.98619,28.62073 2.95617,-72.85639 z m 48.48316,0 2.95617,67.65515 0.98378,-36.431 0.9862,13.01151 0.9862,-13.01151 1.96997,31.2242 0.9862,-41.63224 2.95618,54.64366 0.98377,-70.25296 0.98619,10.40805 0.98621,-10.40805 0.98378,49.43689 v -46.83351 l 1.97239,65.0462 0.98377,-41.63224 0.98621,15.61485 0.98619,-7.80464 2.95619,39.02884 0.98377,-36.43096 0.9862,18.21269 0.98619,-15.60927 1.96997,23.41949 0.9862,-36.431 1.96998,36.431 0.98619,-62.44834 0.9862,28.62075 0.98378,-15.60929 0.98619,7.80464 0.9862,-13.01144 1.96999,39.02883 0.98619,-41.63224 0.98378,18.21826 0.98619,-26.02293 1.96997,49.43691 0.98621,-7.80464 0.98619,28.62073 2.95618,-72.85639 z"
       id="path895"
       inkscape:connector-curvature="0" />
    <path
       style="display:inline;opacity:1;fill:#ffffff;stroke:#000000;stroke-width:0.11528362;stroke-linecap:butt;stroke-linejoin:miter;stroke-miterlimit:4;stroke-dasharray:none;stroke-opacity:1"
       d="m 56.824684,100.34613 -2.956168,14.96273 -0.986201,-2.99635 -0.983776,5.99272 -0.986201,-15.96472 -1.969968,24.94427 v -17.95911 l -0.986201,18.95151 -0.986192,-3.98876 -0.983785,3.98876 L 45,101.33854 l -2.956178,20.95544 -0.986192,-15.96466 -1.969977,11.97591 -0.9862,-4.99079 -0.983777,4.99079 -0.9862,-13.97034 -2.956169,25.93672 h 48.284955 l -2.956169,-27.9311 -0.986201,10.97393 -0.983776,-2.99636 -1.972393,18.96107 -0.983776,-9.98151 -0.9862,6.98516 -0.986192,-15.96472 -1.969977,14.97231 -0.986201,-4.99078 -0.983776,2.99635 -0.9862,-5.99272 -0.986193,10.97394 -0.983784,-23.94229 -1.972394,13.97034 -0.983775,-13.97034 -1.972394,8.97955 -0.983784,-5.9832 -0.986192,6.98518 z m 48.483176,0 -2.95618,14.96273 -0.9862,-2.99635 -0.98619,5.99272 -0.98378,-15.96472 -1.972393,24.94427 v -17.95911 l -0.983785,18.95151 -0.986192,-3.98876 -0.986201,3.98876 -0.983776,-26.93864 -2.956177,20.95544 -0.986193,-15.96466 -1.969976,11.97591 -0.9862,-4.99079 -0.986193,4.99079 -0.983784,-13.97034 -2.956169,25.93672 h 48.284959 l -2.95618,-27.9311 -0.98619,10.97393 -0.98619,-2.99636 -1.96998,18.96107 -0.9862,-9.98151 -0.98378,6.98516 -0.98619,-15.96472 -1.96999,14.97231 -0.98618,-4.99078 -0.98621,2.99635 -0.98377,-5.99272 -0.98621,10.97394 -0.98619,-23.94229 -1.96997,13.97034 -0.98619,-13.97034 -1.96998,8.97955 -0.9862,-5.9832 -0.98379,6.98518 z m 24.63557,29.92548 h 48.28495 l -2.95617,-27.9311 -0.98619,10.97393 -0.98377,-2.99636 -1.9724,18.96107 -0.98379,-9.98151 -0.98619,6.98516 -0.9862,-15.96472 -1.96996,14.97231 -0.98621,-4.99078 -0.98378,2.99635 -0.9862,-5.99272 -0.98619,10.97394 -0.9862,-23.94229 -1.96997,13.97034 -0.9862,-13.97034 -1.96997,8.97955 -0.98621,-5.9832 -0.98377,6.98518 -0.98621,-13.97029 -2.95617,14.96273 -0.98618,-2.99635 -0.98378,5.99272 -0.9862,-15.96472 -1.96999,24.94427 v -17.95911 l -0.98618,18.95151 -0.9862,-3.98876 -0.98379,3.98876 -0.98618,-26.93864 -2.95618,20.95544 -0.9862,-15.96466 -1.96998,11.97591 -0.98619,-4.99079 -0.98377,4.99079 -0.98621,-13.97034 z m 72.13256,-29.92548 -2.95619,14.96273 -0.98619,-2.99635 -0.98621,5.99272 -0.98377,-15.96472 -1.97239,24.94427 v -17.95911 l -0.98378,18.95151 -0.98621,-3.98876 -0.98619,3.98876 -0.98377,-26.93864 -2.95618,20.95544 -0.9862,-15.96466 -1.96997,11.97591 -0.9862,-4.99079 -0.9862,4.99079 -0.98378,-13.97034 -2.95617,25.93672 h 48.28497 l -2.95618,-27.9311 -0.98619,10.97393 -0.98621,-2.99636 -1.96997,18.96107 -0.98619,-9.98151 -0.98378,6.98516 -0.98619,-15.96472 -1.96999,14.97231 -0.9862,-4.99078 -0.98619,2.99635 -0.98378,-5.99272 -0.9862,10.97394 -0.98619,-23.94229 -1.96998,13.97034 -0.9862,-13.97034 -1.96997,8.97955 -0.98619,-5.9832 -0.9862,6.98518 z m -168.900683,30.01136 2.956169,25.93667 0.9862,-13.97034 0.983777,4.99079 0.9862,-4.99079 1.969977,11.97595 0.986192,-15.96471 L 45,159.29052 l 0.986192,-26.93865 0.983785,3.98876 0.986192,-3.98876 0.986201,18.95151 v -17.9591 l 1.969968,24.94426 0.986201,-15.96472 0.983776,5.99277 0.986201,-2.99635 2.956168,14.96273 0.986201,-13.9608 0.986192,6.97564 0.983784,-5.9832 1.972394,8.97955 0.983775,-13.97034 1.972394,13.97034 0.983784,-23.94229 0.986193,10.97393 0.9862,-5.9832 0.983776,2.98684 0.986201,-4.98122 1.969977,14.96275 0.986192,-15.96472 0.9862,6.98518 0.983776,-9.98153 1.972393,18.96107 0.983776,-2.99636 0.986201,10.97393 2.956169,-27.93105 z m 48.483164,0 2.956169,25.93667 0.983784,-13.97034 0.986193,4.99079 0.9862,-4.99079 1.969976,11.97595 0.986193,-15.96471 2.956177,20.95546 0.983776,-26.93865 0.986201,3.98876 0.986192,-3.98876 0.983785,18.95151 v -17.9591 l 1.972393,24.94426 0.98378,-15.96472 0.98619,5.99277 0.9862,-2.99635 2.95618,14.96273 0.98618,-13.9608 0.98379,6.97564 0.9862,-5.9832 1.96998,8.97955 0.98619,-13.97034 1.96997,13.97034 0.98619,-23.94229 0.98621,10.97393 0.98377,-5.9832 0.98621,2.98684 0.98618,-4.98122 1.96999,14.96275 0.98619,-15.96472 0.98378,6.98518 0.9862,-9.98153 1.96998,18.96107 0.98619,-2.99636 0.98619,10.97393 2.95618,-27.93105 z m 48.284959,0 2.95617,25.93667 0.98621,-13.97034 0.98377,4.99079 0.98619,-4.99079 1.96998,11.97595 0.9862,-15.96471 2.95618,20.95546 0.98618,-26.93865 0.98379,3.98876 0.9862,-3.98876 0.98618,18.95151 v -17.9591 l 1.96999,24.94426 0.9862,-15.96472 0.98378,5.99277 0.98618,-2.99635 2.95617,14.96273 0.98621,-13.9608 0.98377,6.97564 0.98621,-5.9832 1.96997,8.97955 0.9862,-13.97034 1.96997,13.97034 0.9862,-23.94229 0.98619,10.97393 0.9862,-5.9832 0.98378,2.98684 0.98621,-4.98122 1.96996,14.96275 0.9862,-15.96472 0.98619,6.98518 0.98379,-9.98153 1.9724,18.96107 0.98377,-2.99636 0.98619,10.97393 2.95617,-27.93105 z m 48.48316,0 2.95617,25.93667 0.98378,-13.97034 0.9862,4.99079 0.9862,-4.99079 1.96997,11.97595 0.9862,-15.96471 2.95618,20.95546 0.98377,-26.93865 0.98619,3.98876 0.98621,-3.98876 0.98378,18.95151 v -17.9591 l 1.97239,24.94426 0.98377,-15.96472 0.98621,5.99277 0.98619,-2.99635 2.95619,14.96273 0.98377,-13.9608 0.9862,6.97564 0.98619,-5.9832 1.96997,8.97955 0.9862,-13.97034 1.96998,13.97034 0.98619,-23.94229 0.9862,10.97393 0.98378,-5.9832 0.98619,2.98684 0.9862,-4.98122 1.96999,14.96275 0.98619,-15.96472 0.98378,6.98518 0.98619,-9.98153 1.96997,18.96107 0.98621,-2.99636 0.98619,10.97393 2.95618,-27.93105 z"
       id="path911"
       inkscape:connector-curvature="0" />
    <path
       sodipodi:type="star"
       style="display:inline;opacity:1;fill:#edd400;fill-opacity:1;fill-rule:nonzero;stroke:none;stroke-width:2.17420959;stroke-opacity:0.88627451"
       id="path858"
       sodipodi:sides="5"
       sodipodi:cx="31.435516"
       sodipodi:cy="117.43552"
       sodipodi:r1="15.373983"
       sodipodi:r2="7.6869917"
       sodipodi:arg1="0.78539816"
       sodipodi:arg2="1.4137167"
       inkscape:flatsided="false"
       inkscape:rounded="0"
       inkscape:randomized="0"
       d="m 42.306564,128.30656 -9.668537,-3.27869 -8.182153,6.10597 0.130483,-10.2085 -8.335545,-5.89484 9.74918,-3.03051 3.030503,-9.74918 5.894843,8.33555 10.208498,-0.13049 -6.105968,8.18216 z"
       inkscape:transform-center-x="0.74319231"
       inkscape:transform-center-y="-0.74319231" />
    <path
       sodipodi:type="star"
       style="display:inline;opacity:1;fill:#edd400;fill-opacity:1;fill-rule:nonzero;stroke:none;stroke-width:0.89680225;stroke-opacity:0.88627451"
       id="path864"
       sodipodi:sides="5"
       sodipodi:cx="86.484009"
       sodipodi:cy="57.484016"
       sodipodi:r1="12.682699"
       sodipodi:r2="6.3413496"
       sodipodi:arg1="0.78539816"
       sodipodi:arg2="1.4137167"
       inkscape:flatsided="false"
       inkscape:rounded="0"
       inkscape:randomized="0"
       d="m 95.452031,66.452039 -7.976017,-2.704746 -6.74983,5.037091 0.107641,-8.421455 -6.87637,-4.862924 8.042543,-2.5 2.499999,-8.042543 4.862924,6.876371 8.421456,-0.107642 -5.037091,6.749831 z"
       inkscape:transform-center-x="0.6130932"
       inkscape:transform-center-y="-0.61309319" />
    <path
       inkscape:transform-center-y="-0.34182184"
       inkscape:transform-center-x="0.34182184"
       d="m 232.508,28.446917 -4.44693,-1.507995 -3.76327,2.808362 0.06,-4.695269 -3.83383,-2.711257 4.48402,-1.393841 1.39384,-4.484012 2.71125,3.833828 4.69527,-0.06001 L 231,23.999996 Z"
       inkscape:randomized="0"
       inkscape:rounded="0"
       inkscape:flatsided="false"
       sodipodi:arg2="1.4137167"
       sodipodi:arg1="0.78539816"
       sodipodi:r2="3.5355339"
       sodipodi:r1="7.0710678"
       sodipodi:cy="23.446917"
       sodipodi:cx="227.508"
       sodipodi:sides="5"
       id="path878"
       style="display:inline;opacity:1;fill:#edd400;fill-opacity:1;fill-rule:nonzero;stroke:none;stroke-width:0.5;stroke-opacity:0.88627451"
       sodipodi:type="star" />
    <path
       inkscape:transform-center-y="-1.0254655"
       inkscape:transform-center-x="1.0254655"
       d="M 39.5,211.5 26.159238,206.97602 14.869407,215.4011 15.049449,201.3153 3.5479663,193.18152 17,189 l 4.181524,-13.45203 8.133772,11.50148 14.085807,-0.18004 -8.425086,11.28983 z"
       inkscape:randomized="0"
       inkscape:rounded="0"
       inkscape:flatsided="false"
       sodipodi:arg2="1.4137167"
       sodipodi:arg1="0.78539816"
       sodipodi:r2="10.606602"
       sodipodi:r1="21.213203"
       sodipodi:cy="196.5"
       sodipodi:cx="24.5"
       sodipodi:sides="5"
       id="path880"
       style="display:inline;opacity:1;fill:#edd400;fill-opacity:1;fill-rule:nonzero;stroke:none;stroke-width:3;stroke-opacity:0.88627451"
       sodipodi:type="star" />
    <path
       inkscape:transform-center-y="-1.3821829"
       inkscape:transform-center-x="1.3821829"
       d="M 130.98147,162.09769 113,156 97.782899,167.35583 98.02557,148.37015 82.523193,137.40697 l 18.131447,-5.63611 5.6361,-18.13144 10.96318,15.50238 18.98568,-0.24267 -11.35583,15.2171 z"
       inkscape:randomized="0"
       inkscape:rounded="0"
       inkscape:flatsided="false"
       sodipodi:arg2="1.4137167"
       sodipodi:arg1="0.78539816"
       sodipodi:r2="14.296203"
       sodipodi:r1="28.592407"
       sodipodi:cy="141.87981"
       sodipodi:cx="110.76358"
       sodipodi:sides="5"
       id="path882-3"
       style="display:inline;opacity:1;fill:#edd400;fill-opacity:1;fill-rule:nonzero;stroke:none;stroke-width:4.04357672;stroke-opacity:0.88627451"
       sodipodi:type="star" />
    <path
       sodipodi:type="star"
       style="display:inline;opacity:1;fill:#edd400;fill-opacity:1;fill-rule:nonzero;stroke:none;stroke-width:4.83718061;stroke-opacity:0.88627451"
       id="path884"
       sodipodi:sides="5"
       sodipodi:cx="220.32468"
       sodipodi:cy="222.10854"
       sodipodi:r1="34.204033"
       sodipodi:r2="17.102016"
       sodipodi:arg1="0.78539816"
       sodipodi:arg2="1.4137167"
       inkscape:flatsided="false"
       inkscape:rounded="0"
       inkscape:randomized="0"
       d="M 244.51058,246.29444 223.00002,239 l -18.20365,13.58455 0.2903,-22.71186 -18.54492,-13.11484 21.68997,-6.74227 6.74227,-21.68997 13.11484,18.54492 22.71186,-0.2903 -13.58455,18.20365 z"
       inkscape:transform-center-x="1.653454"
       inkscape:transform-center-y="-1.653454" />
    <path
       sodipodi:type="star"
       style="display:inline;opacity:1;fill:#edd400;fill-opacity:1;fill-rule:nonzero;stroke:none;stroke-width:1.20916367;stroke-opacity:0.88627451"
       id="path886"
       sodipodi:sides="5"
       sodipodi:cx="188.16919"
       sodipodi:cy="114.38183"
       sodipodi:r1="8.5500784"
       sodipodi:r2="4.2750392"
       sodipodi:arg1="0.78539816"
       sodipodi:arg2="1.4137167"
       inkscape:flatsided="false"
       inkscape:rounded="0"
       inkscape:randomized="0"
       d="m 194.21501,120.42765 -5.37706,-1.82342 -4.55041,3.39577 0.0726,-5.67734 -4.63572,-3.27836 5.4219,-1.68538 1.68538,-5.4219 3.27836,4.63572 5.67735,-0.0726 -3.39577,4.55042 z"
       inkscape:transform-center-x="0.41331851"
       inkscape:transform-center-y="-0.41331855" />
    <path
       inkscape:transform-center-y="-0.41331855"
       inkscape:transform-center-x="0.41331851"
       d="m 114.10501,242.85492 -5.37706,-1.82342 -4.55042,3.39577 0.0726,-5.67735 -4.635724,-3.27835 5.421904,-1.68538 1.68538,-5.42191 3.27836,4.63573 5.67734,-0.0726 -3.39576,4.55042 z"
       inkscape:randomized="0"
       inkscape:rounded="0"
       inkscape:flatsided="false"
       sodipodi:arg2="1.4137167"
       sodipodi:arg1="0.78539816"
       sodipodi:r2="4.2750392"
       sodipodi:r1="8.5500784"
       sodipodi:cy="236.8091"
       sodipodi:cx="108.05919"
       sodipodi:sides="5"
       id="path888"
       style="display:inline;opacity:1;fill:#edd400;fill-opacity:1;fill-rule:nonzero;stroke:none;stroke-width:1.20916367;stroke-opacity:0.88627451"
       sodipodi:type="star" />
    <path
       inkscape:transform-center-y="-0.74319231"
       inkscape:transform-center-x="0.74319231"
       d="m 184.2787,59.668529 -9.66854,-3.278695 -8.18215,6.105967 0.13048,-10.208498 -8.33554,-5.894842 9.74918,-3.030503 3.0305,-9.749181 5.89485,8.335545 10.20849,-0.130483 -6.10596,8.182153 z"
       inkscape:randomized="0"
       inkscape:rounded="0"
       inkscape:flatsided="false"
       sodipodi:arg2="1.4137167"
       sodipodi:arg1="0.78539816"
       sodipodi:r2="7.6869917"
       sodipodi:r1="15.373983"
       sodipodi:cy="48.797482"
       sodipodi:cx="173.40765"
       sodipodi:sides="5"
       id="path890"
       style="display:inline;opacity:1;fill:#edd400;fill-opacity:1;fill-rule:nonzero;stroke:none;stroke-width:2.17420959;stroke-opacity:0.88627451"
       sodipodi:type="star" />
    <path
       inkscape:transform-center-y="-0.41331855"
       inkscape:transform-center-x="0.41331851"
       d="m 42.214977,20.427641 -5.377055,-1.823412 -4.550417,3.395769 0.07257,-5.677348 -4.635725,-3.278354 5.421904,-1.685383 1.685382,-5.4219031 3.278354,4.6357251 5.677349,-0.07257 -3.39577,4.550418 z"
       inkscape:randomized="0"
       inkscape:rounded="0"
       inkscape:flatsided="false"
       sodipodi:arg2="1.4137167"
       sodipodi:arg1="0.78539816"
       sodipodi:r2="4.2750392"
       sodipodi:r1="8.5500784"
       sodipodi:cy="14.381823"
       sodipodi:cx="36.169159"
       sodipodi:sides="5"
       id="path892"
       style="display:inline;opacity:1;fill:#edd400;fill-opacity:1;fill-rule:nonzero;stroke:none;stroke-width:1.20916367;stroke-opacity:0.88627451"
       sodipodi:type="star" />
    <path
       sodipodi:type="star"
       style="display:inline;opacity:1;fill:#edd400;fill-opacity:1;fill-rule:nonzero;stroke:none;stroke-width:1.20916367;stroke-opacity:0.88627451"
       id="path894"
       sodipodi:sides="5"
       sodipodi:cx="240.05917"
       sodipodi:cy="140.8091"
       sodipodi:r1="8.5500784"
       sodipodi:r2="4.2750392"
       sodipodi:arg1="0.78539816"
       sodipodi:arg2="1.4137167"
       inkscape:flatsided="false"
       inkscape:rounded="0"
       inkscape:randomized="0"
       d="m 246.10499,146.85492 -5.37705,-1.82342 -4.55042,3.39577 0.0726,-5.67735 -4.63573,-3.27835 5.4219,-1.68538 1.68539,-5.42191 3.27835,4.63573 5.67735,-0.0726 -3.39577,4.55042 z"
       inkscape:transform-center-x="0.41331851"
       inkscape:transform-center-y="-0.41331855" />
    <path
       sodipodi:type="star"
       style="display:inline;opacity:1;fill:#edd400;fill-opacity:1;fill-rule:nonzero;stroke:none;stroke-width:1.20916367;stroke-opacity:0.88627451"
       id="path879"
       sodipodi:sides="5"
       sodipodi:cx="18.059196"
       sodipodi:cy="60.80909"
       sodipodi:r1="8.5500784"
       sodipodi:r2="4.2750392"
       sodipodi:arg1="0.78539816"
       sodipodi:arg2="1.4137167"
       inkscape:flatsided="false"
       inkscape:rounded="0"
       inkscape:randomized="0"
       d="m 24.105015,66.854908 -5.377055,-1.823412 -4.550418,3.395769 0.07257,-5.677348 -4.6357253,-3.278354 5.4219033,-1.685383 1.685383,-5.421903 3.278354,4.635725 5.677348,-0.07257 -3.395769,4.550418 z"
       inkscape:transform-center-x="0.41331851"
       inkscape:transform-center-y="-0.41331855" />
    <path
       inkscape:transform-center-y="-0.41331855"
       inkscape:transform-center-x="0.41331851"
       d="m 160.10499,199.85492 -5.37705,-1.82342 -4.55042,3.39577 0.0726,-5.67735 -4.63573,-3.27835 5.4219,-1.68538 1.68539,-5.42191 3.27835,4.63573 5.67735,-0.0726 -3.39577,4.55042 z"
       inkscape:randomized="0"
       inkscape:rounded="0"
       inkscape:flatsided="false"
       sodipodi:arg2="1.4137167"
       sodipodi:arg1="0.78539816"
       sodipodi:r2="4.2750392"
       sodipodi:r1="8.5500784"
       sodipodi:cy="193.8091"
       sodipodi:cx="154.05917"
       sodipodi:sides="5"
       id="path881"
       style="display:inline;opacity:1;fill:#edd400;fill-opacity:1;fill-rule:nonzero;stroke:none;stroke-width:1.20916367;stroke-opacity:0.88627451"
       sodipodi:type="star" />
  </g>
  <g
     inkscape:groupmode="layer"
     id="layer5"
     inkscape:label="ffmpeg"
     style="display:none">
    <path
       style="color:#000000;font-style:normal;font-variant:normal;font-weight:normal;font-stretch:normal;font-size:medium;line-height:normal;font-family:sans-serif;font-variant-ligatures:normal;font-variant-position:normal;font-variant-caps:normal;font-variant-numeric:normal;font-variant-alternates:normal;font-feature-settings:normal;text-indent:0;text-align:start;text-decoration:none;text-decoration-line:none;text-decoration-style:solid;text-decoration-color:#000000;letter-spacing:normal;word-spacing:normal;text-transform:none;writing-mode:lr-tb;direction:ltr;text-orientation:mixed;dominant-baseline:auto;baseline-shift:baseline;text-anchor:start;white-space:normal;shape-padding:0;clip-rule:nonzero;display:inline;overflow:visible;visibility:visible;opacity:1;isolation:auto;mix-blend-mode:normal;color-interpolation:sRGB;color-interpolation-filters:linearRGB;solid-color:#000000;solid-opacity:1;vector-effect:none;fill:#73d216;fill-opacity:1;fill-rule:nonzero;stroke:#4e9a06;stroke-width:6.26205349;stroke-linecap:round;stroke-linejoin:round;stroke-miterlimit:4;stroke-dasharray:none;stroke-dashoffset:0;stroke-opacity:1;color-rendering:auto;image-rendering:auto;shape-rendering:auto;text-rendering:auto;enable-background:accumulate"
       d="M 46.21789,49.048811 V 50 H 94 L 47.113323,96.8867 v 58.41606 L 152.41607,50 h 50.99422 L 51.220872,206.94535 h 53.636008 l 99.20177,-99.20181 v 55.72603 l -43.4758,43.47578 h 44.67958 l -1.69245,-0.9512 h -40.69089 l 42.13076,-42.13076 V 105.44734 L 104.46303,205.99415 H 53.468798 L 205.65821,49.048811 H 152.0222 L 48.064507,153.00653 V 97.28055 L 96.2962,49.048811 Z"
       id="path4593"
       inkscape:connector-curvature="0"
       sodipodi:nodetypes="ccccccccccccccccccccccccc" />
  </g>
  <g
     inkscape:groupmode="layer"
     id="layer7"
     inkscape:label="freccie"
     style="display:inline" />
</svg>
