<?xml version="1.0" encoding="UTF-8" standalone="no"?>
<!-- Created with Inkscape (http://www.inkscape.org/) -->

<svg
   xmlns:osb="http://www.openswatchbook.org/uri/2009/osb"
   xmlns:dc="http://purl.org/dc/elements/1.1/"
   xmlns:cc="http://creativecommons.org/ns#"
   xmlns:rdf="http://www.w3.org/1999/02/22-rdf-syntax-ns#"
   xmlns:svg="http://www.w3.org/2000/svg"
   xmlns="http://www.w3.org/2000/svg"
   xmlns:xlink="http://www.w3.org/1999/xlink"
   xmlns:sodipodi="http://sodipodi.sourceforge.net/DTD/sodipodi-0.dtd"
   xmlns:inkscape="http://www.inkscape.org/namespaces/inkscape"
   width="256px"
   height="256px"
   viewBox="0 0 256 256"
   version="1.1"
   id="SVGRoot"
   sodipodi:docname="videomass-v6.svg"
   inkscape:version="0.92.4 (5da689c313, 2019-01-14)"
   enable-background="new">
  <sodipodi:namedview
     id="base"
     pagecolor="#ffffff"
     bordercolor="#666666"
     borderopacity="1.0"
     inkscape:pageopacity="0.0"
     inkscape:pageshadow="2"
     inkscape:zoom="2.32"
     inkscape:cx="73.244641"
     inkscape:cy="114.25573"
     inkscape:document-units="px"
     inkscape:current-layer="g4738"
     showgrid="true"
     inkscape:window-width="1920"
     inkscape:window-height="1015"
     inkscape:window-x="0"
     inkscape:window-y="0"
     inkscape:window-maximized="1"
     inkscape:grid-bbox="true"
     inkscape:measure-start="110,130"
     inkscape:measure-end="0,0"
     showguides="true">
    <inkscape:grid
       type="xygrid"
       id="grid5114" />
  </sodipodi:namedview>
  <defs
     id="defs4485">
    <linearGradient
       inkscape:collect="always"
       id="linearGradient939">
      <stop
         style="stop-color:#c4c5c2;stop-opacity:1;"
         offset="0"
         id="stop935" />
      <stop
         style="stop-color:#c4c5c2;stop-opacity:0;"
         offset="1"
         id="stop937" />
    </linearGradient>
    <linearGradient
       inkscape:collect="always"
       id="linearGradient1141">
      <stop
         style="stop-color:#2b0000;stop-opacity:1;"
         offset="0"
         id="stop1137" />
      <stop
         style="stop-color:#290000;stop-opacity:0.03308824"
         offset="1"
         id="stop1139" />
    </linearGradient>
    <inkscape:path-effect
       effect="bspline"
       id="path-effect4551"
       is_visible="true"
       weight="33.333333"
       steps="2"
       helper_size="0"
       apply_no_weight="true"
       apply_with_weight="true"
       only_selected="false" />
    <inkscape:path-effect
       effect="skeletal"
       id="path-effect4547"
       is_visible="true"
       pattern="M 0,5 C 0,2.24 2.24,0 5,0 7.76,0 10,2.24 10,5 10,7.76 7.76,10 5,10 2.24,10 0,7.76 0,5 Z"
       copytype="single_stretched"
       prop_scale="1"
       scale_y_rel="false"
       spacing="0"
       normal_offset="0"
       tang_offset="0"
       prop_units="false"
       vertical_pattern="false"
       fuse_tolerance="0" />
    <inkscape:path-effect
       effect="bspline"
       id="path-effect4545"
       is_visible="true"
       weight="33.333333"
       steps="2"
       helper_size="0"
       apply_no_weight="true"
       apply_with_weight="true"
       only_selected="false" />
    <inkscape:path-effect
       effect="skeletal"
       id="path-effect4541"
       is_visible="true"
       pattern="M 0,5 C 0,2.24 2.24,0 5,0 7.76,0 10,2.24 10,5 10,7.76 7.76,10 5,10 2.24,10 0,7.76 0,5 Z"
       copytype="single_stretched"
       prop_scale="1"
       scale_y_rel="false"
       spacing="0"
       normal_offset="0"
       tang_offset="0"
       prop_units="false"
       vertical_pattern="false"
       fuse_tolerance="0" />
    <inkscape:path-effect
       effect="spiro"
       id="path-effect4539"
       is_visible="true" />
    <inkscape:path-effect
       effect="bspline"
       id="path-effect4535"
       is_visible="true"
       weight="33.333333"
       steps="2"
       helper_size="0"
       apply_no_weight="true"
       apply_with_weight="true"
       only_selected="false" />
    <inkscape:path-effect
       effect="skeletal"
       id="path-effect4531"
       is_visible="true"
       pattern="M 0,5 C 0,2.24 2.24,0 5,0 7.76,0 10,2.24 10,5 10,7.76 7.76,10 5,10 2.24,10 0,7.76 0,5 Z"
       copytype="single_stretched"
       prop_scale="1"
       scale_y_rel="false"
       spacing="0"
       normal_offset="0"
       tang_offset="0"
       prop_units="false"
       vertical_pattern="false"
       fuse_tolerance="0" />
    <inkscape:path-effect
       effect="bspline"
       id="path-effect4529"
       is_visible="true"
       weight="33.333333"
       steps="2"
       helper_size="0"
       apply_no_weight="true"
       apply_with_weight="true"
       only_selected="false" />
    <inkscape:path-effect
       effect="skeletal"
       id="path-effect4525"
       is_visible="true"
       pattern="M 0,5 C 0,2.24 2.24,0 5,0 7.76,0 10,2.24 10,5 10,7.76 7.76,10 5,10 2.24,10 0,7.76 0,5 Z"
       copytype="single_stretched"
       prop_scale="1"
       scale_y_rel="false"
       spacing="0"
       normal_offset="0"
       tang_offset="0"
       prop_units="false"
       vertical_pattern="false"
       fuse_tolerance="0" />
    <inkscape:path-effect
       effect="bspline"
       id="path-effect4523"
       is_visible="true"
       weight="33.333333"
       steps="2"
       helper_size="0"
       apply_no_weight="true"
       apply_with_weight="true"
       only_selected="false" />
    <inkscape:path-effect
       effect="bspline"
       id="path-effect4519"
       is_visible="true"
       weight="33.333333"
       steps="2"
       helper_size="0"
       apply_no_weight="true"
       apply_with_weight="true"
       only_selected="false" />
    <pattern
       inkscape:isstock="true"
       inkscape:stockid="Stripes 1:1"
       id="Strips1_1"
       patternTransform="translate(0,0) scale(10,10)"
       height="1"
       width="2"
       patternUnits="userSpaceOnUse"
       inkscape:collect="always">
      <rect
         id="rect5447"
         height="2"
         width="1"
         y="-0.5"
         x="0"
         style="fill:black;stroke:none" />
    </pattern>
    <linearGradient
       id="linearGradient4727"
       osb:paint="solid">
      <stop
         style="stop-color:#ce5c00;stop-opacity:1;"
         offset="0"
         id="stop4725" />
    </linearGradient>
    <pattern
       patternUnits="userSpaceOnUse"
       width="55"
       height="90"
       patternTransform="translate(-60,50.5)"
       id="pattern6214">
      <g
         style="fill:url(#Strips1_1);fill-opacity:1"
         transform="translate(-15,-28.5)"
         id="g4691">
        <rect
           style="opacity:0.81499999;fill:url(#Strips1_1);fill-opacity:1;stroke:none;stroke-width:4.52699995;stroke-linecap:round;stroke-linejoin:bevel;stroke-miterlimit:17.60000038;stroke-dasharray:none;stroke-dashoffset:0;stroke-opacity:1;paint-order:stroke fill markers"
           id="rect4683"
           width="30"
           height="30"
           x="40"
           y="59"
           ry="7.9000001" />
        <path
           inkscape:connector-curvature="0"
           style="opacity:0.81499999;fill:url(#Strips1_1);fill-opacity:1;stroke:none;stroke-width:8.60130024;stroke-linecap:round;stroke-linejoin:bevel;stroke-miterlimit:17.60000038;stroke-dasharray:none;stroke-dashoffset:0;stroke-opacity:1;paint-order:stroke fill markers"
           d="m 15,28.5 v 90 l 45,-45 z"
           id="path4687" />
      </g>
    </pattern>
    <linearGradient
       inkscape:collect="always"
       xlink:href="#linearGradient1141"
       id="linearGradient1143"
       x1="-382"
       y1="266"
       x2="-57"
       y2="21"
       gradientUnits="userSpaceOnUse"
       gradientTransform="translate(312)" />
    <linearGradient
       inkscape:collect="always"
       xlink:href="#linearGradient939"
       id="linearGradient941"
       x1="95"
       y1="191"
       x2="155"
       y2="91"
       gradientUnits="userSpaceOnUse" />
  </defs>
  <metadata
     id="metadata4488">
    <rdf:RDF>
      <cc:Work
         rdf:about="">
        <dc:format>image/svg+xml</dc:format>
        <dc:type
           rdf:resource="http://purl.org/dc/dcmitype/StillImage" />
        <dc:title />
      </cc:Work>
    </rdf:RDF>
  </metadata>
  <g
     inkscape:groupmode="layer"
     id="layer3"
     inkscape:label="sfondo"
     style="display:inline">
    <rect
       style="display:inline;opacity:1;fill:#eeeeec;fill-opacity:1;stroke:none;stroke-width:2.40400004;stroke-linecap:round;stroke-linejoin:bevel;stroke-miterlimit:17.60000038;stroke-dasharray:none;stroke-dashoffset:0;stroke-opacity:0.97647059;paint-order:stroke fill markers"
       id="rect4568-3"
       width="222.07193"
       height="222.07193"
       x="16.675457"
       y="18"
       ry="22.6604" />
  </g>
  <g
     style="display:inline"
     inkscape:label="sfondo copia"
     id="g4738"
     inkscape:groupmode="layer">
    <rect
       ry="22.6604"
       y="18"
       x="16.675457"
       height="222.07193"
       width="222.07193"
       id="rect4736"
       style="display:inline;opacity:1;fill:url(#linearGradient941);fill-opacity:1;stroke:none;stroke-width:7.00387716;stroke-linecap:round;stroke-linejoin:bevel;stroke-miterlimit:17.60000038;stroke-dasharray:none;stroke-dashoffset:0;stroke-opacity:0.97647059;paint-order:stroke fill markers" />
    <path
       style="display:inline;opacity:1;fill:url(#linearGradient1143);fill-opacity:1;stroke:none;stroke-width:7.00387716;stroke-linecap:round;stroke-linejoin:bevel;stroke-miterlimit:17.60000038;stroke-dasharray:none;stroke-dashoffset:0;stroke-opacity:0.97647059;paint-order:stroke fill markers"
       d="M 182.91602,18 16.67578,186.05469 v 31.35742 c 0,12.55386 10.1063,22.66016 22.66016,22.66016 H 68.59961 L 238.74805,68.068359 V 40.660156 C 238.74805,28.106294 228.64175,18 216.08789,18 Z"
       id="rect1130"
       inkscape:connector-curvature="0" />
    <path
       style="display:inline;opacity:1;fill:#280b0b;fill-opacity:1;stroke:none;stroke-width:7.00387716;stroke-linecap:round;stroke-linejoin:bevel;stroke-miterlimit:17.60000038;stroke-dasharray:none;stroke-dashoffset:0;stroke-opacity:0.97647059;paint-order:stroke fill markers"
       d="M 148.61133,18 16.67578,149.93555 v 8.28906 l 0.9082,-0.9082 c 1.03713,-1.03713 2.76617,-0.97799 3.87696,0.13281 l 9.02344,9.02344 c 1.11079,1.11079 1.16994,2.83982 0.13281,3.87695 l -5.61524,5.61719 c -1.03714,1.03714 -2.76617,0.97602 -3.87695,-0.13477 l -4.44922,-4.44922 v 9.63477 c 0.70713,1.00224 0.7098,2.30504 0,3.22461 v 8.11914 l 12.25781,-12.25781 c 3.6256,-3.6256 9.66965,-3.41824 13.55274,0.46484 l 31.54297,31.54297 c 3.88309,3.88309 4.09044,9.92713 0.46484,13.55273 l -14.4082,14.40821 h 7.67773 l 2.14649,-2.14649 c 1.03712,-1.03712 2.76616,-0.97602 3.87695,0.13477 l 2.01172,2.01172 h 9.56445 l -6.79297,-6.79493 c -1.11079,-1.11079 -1.1719,-2.83981 -0.13476,-3.87695 l 5.61718,-5.61719 c 1.03713,-1.03713 2.76616,-0.97603 3.87696,0.13477 l 9.02148,9.02344 c 1.11079,1.11079 1.1719,2.83787 0.13477,3.875 l -3.25586,3.25586 h 9.48633 L 238.74805,104.64062 v -9.542964 c -0.0749,0.10224 -0.14801,0.206605 -0.24024,0.298828 l -5.61718,5.615236 c -1.03714,1.03713 -2.76617,0.97798 -3.87696,-0.13281 l -9.02148,-9.023441 c -1.1108,-1.110794 -1.1719,-2.83982 -0.13477,-3.876953 l 5.61719,-5.615235 c 1.03713,-1.037133 2.76616,-0.977981 3.87695,0.132813 l 9.02149,9.023437 c 0.14279,0.142793 0.26702,0.296597 0.375,0.457031 v -9.648437 l -4.61524,-4.613281 C 233.02202,76.60405 232.96287,74.875024 234,73.837891 l 4.74805,-4.748047 v -7.679688 l -15.59571,15.595703 c -3.62559,3.625594 -9.66965,3.418241 -13.55273,-0.464843 L 178.05664,45 C 174.17356,41.116916 173.9662,35.070907 177.5918,31.445312 L 191.03906,18 h -8.07226 l -2.40235,2.402344 c -1.03713,1.037132 -2.76616,0.976021 -3.87695,-0.134766 L 174.41992,18 h -9.5664 l 7.05273,7.050781 c 1.11079,1.110787 1.16995,2.839821 0.13281,3.876953 l -5.61718,5.617188 c -1.03714,1.037133 -2.76617,0.976021 -3.87696,-0.134766 l -9.02148,-9.021484 c -1.11079,-1.110794 -1.1719,-2.839821 -0.13477,-3.876953 L 156.90039,18 Z m 67.89844,0.0098 22.22851,22.228515 C 238.5166,28.022437 228.72552,18.231813 216.50977,18.009766 Z m -69.73438,11.289062 c 0.70068,0.02428 1.40945,0.315697 1.96484,0.871094 l 9.02344,9.023437 c 1.11079,1.110787 1.16994,2.83982 0.13281,3.876953 l -5.61523,5.617188 c -1.03714,1.037132 -2.76617,0.976021 -3.87695,-0.134766 l -9.02344,-9.023437 c -1.11079,-1.110794 -1.16994,-2.837867 -0.13281,-3.875 l 5.61523,-5.617188 c 0.51857,-0.518566 1.21144,-0.762565 1.91211,-0.738281 z m -14.14258,14.140625 c 0.70068,0.02428 1.40945,0.31765 1.96485,0.873047 l 9.02343,9.023438 c 1.11078,1.110787 1.17191,2.839821 0.13477,3.876953 l -5.61719,5.615234 c -1.03713,1.037133 -2.76616,0.977975 -3.87695,-0.132813 l -9.02344,-9.023437 c -1.1108,-1.110794 -1.16994,-2.839821 -0.13281,-3.876953 l 5.61719,-5.615234 c 0.51856,-0.518567 1.20948,-0.764519 1.91015,-0.740235 z m 30.25977,6.802735 c 2.44952,0.08417 4.9315,1.105333 6.87305,3.046874 l 31.54296,31.542969 c 3.88309,3.883084 4.09044,9.92714 0.46485,13.552735 l -19.63281,19.63281 c -3.6256,3.6256 -9.67161,3.41824 -13.55469,-0.46485 L 137.04492,86.011719 c -3.88308,-3.883084 -4.09043,-9.929094 -0.46484,-13.554688 l 19.63281,-19.632812 c 1.8128,-1.812798 4.23017,-2.6662 6.67969,-2.582031 z m -44.40235,7.339843 c 0.70068,0.02428 1.41141,0.31765 1.9668,0.873047 l 9.02149,9.021484 c 1.11079,1.110788 1.17189,2.839821 0.13476,3.876954 l -5.61719,5.617187 c -1.03714,1.037135 -2.76616,0.977975 -3.87695,-0.132812 l -9.02148,-9.023438 c -1.11079,-1.110794 -1.1719,-2.839819 -0.13477,-3.876953 l 5.61719,-5.617188 c 0.51856,-0.518565 1.20948,-0.762564 1.91015,-0.738281 z m -14.14257,14.142578 c 0.70067,0.02428 1.4114,0.31765 1.96679,0.873047 l 9.02149,9.021485 c 1.11078,1.110787 1.17188,2.839825 0.13476,3.876953 l -5.61718,5.617187 c -1.03713,1.037135 -2.76617,0.976022 -3.87696,-0.134765 l -9.02148,-9.021485 c -1.1108,-1.110794 -1.1719,-2.839818 -0.13477,-3.876953 l 5.61719,-5.617187 c 0.51855,-0.518557 1.20948,-0.762564 1.91016,-0.738282 z M 90.20703,85.867222 c 0.70067,0.02428 1.40945,0.317649 1.96485,0.873046 l 9.02343,9.021485 c 1.11079,1.110787 1.16994,2.839825 0.13281,3.876953 l -5.61718,5.617184 c -1.03714,1.03714 -2.76421,0.97602 -3.875,-0.13477 L 82.8125,96.099643 C 81.70171,94.988849 81.64255,93.259825 82.67969,92.22269 l 5.61523,-5.617187 c 0.51857,-0.518564 1.21144,-0.762565 1.91211,-0.738281 z m 30.25977,6.800781 c 2.44952,0.08417 4.9315,1.107286 6.87304,3.048828 l 31.54297,31.541009 c 3.88308,3.88308 4.09044,9.92714 0.46485,13.55274 l -19.63282,19.63281 c -3.6256,3.6256 -9.6716,3.4202 -13.55468,-0.46289 L 94.61719,128.43753 C 90.7341,124.55445 90.5287,118.5104 94.1543,114.8848 L 113.78711,95.25 c 1.81279,-1.812799 4.23017,-2.6662 6.67969,-2.582031 z m 92.77539,3.097656 c 0.70067,0.02428 1.4114,0.31765 1.96679,0.873047 l 9.02149,9.023434 c 1.11079,1.11079 1.1719,2.83787 0.13476,3.875 l -5.61718,5.61719 c -1.03714,1.03713 -2.76617,0.97796 -3.87696,-0.13282 l -9.02148,-9.02343 c -1.11079,-1.11079 -1.1719,-2.83982 -0.13477,-3.87696 l 5.61719,-5.61718 c 0.51857,-0.518566 1.20948,-0.762565 1.91016,-0.738281 z M 76.06445,100.0098 c 0.70068,0.0243 1.40945,0.31569 1.96485,0.87109 l 9.02343,9.02344 c 1.11078,1.11079 1.16995,2.83982 0.13282,3.87695 l -5.61524,5.61523 c -1.03713,1.03713 -2.76617,0.97797 -3.87695,-0.13281 l -9.02344,-9.02344 c -1.11079,-1.11079 -1.16994,-2.83981 -0.13281,-3.87695 l 5.61719,-5.61523 c 0.51856,-0.51857 1.20948,-0.762564 1.91015,-0.73828 z m 123.03711,9.89843 c 0.70068,0.0243 1.40945,0.31765 1.96485,0.87305 l 9.02343,9.02148 c 1.11079,1.11079 1.16995,2.83983 0.13282,3.87696 l -5.61719,5.61719 c -1.03713,1.03712 -2.76421,0.97602 -3.875,-0.13477 l -9.02344,-9.02149 c -1.11079,-1.11078 -1.1719,-2.83982 -0.13476,-3.87695 l 5.61718,-5.61719 c 0.51857,-0.51857 1.21144,-0.76256 1.91211,-0.73828 z m -137.17968,4.24219 c 0.70067,0.0243 1.41139,0.31765 1.96679,0.87305 l 9.02149,9.02344 c 1.11079,1.11078 1.17189,2.83786 0.13476,3.875 l -5.61719,5.61718 c -1.03714,1.03714 -2.76616,0.97798 -3.87695,-0.13281 l -9.02148,-9.02344 c -1.11079,-1.11079 -1.17191,-2.83982 -0.13477,-3.87695 l 5.61719,-5.61719 c 0.51856,-0.51856 1.20948,-0.76256 1.91016,-0.73828 z m 123.0371,9.90039 c 0.70068,0.0243 1.40945,0.31765 1.96485,0.87305 l 9.02344,9.02148 c 1.11078,1.11079 1.16994,2.83983 0.13281,3.87696 l -5.61524,5.61718 c -1.03713,1.03713 -2.76616,0.97603 -3.87695,-0.13476 l -9.02344,-9.02149 c -1.11079,-1.1108 -1.16994,-2.83981 -0.13281,-3.87695 l 5.61524,-5.61719 c 0.51856,-0.51856 1.21143,-0.76256 1.9121,-0.73828 z M 47.7793,128.293 c 0.70067,0.0243 1.4114,0.31765 1.96679,0.87305 l 9.02149,9.02148 c 1.11079,1.11079 1.17189,2.83982 0.13476,3.87695 l -5.61718,5.61719 c -1.03714,1.03714 -2.76618,0.97603 -3.87696,-0.13476 l -9.02148,-9.02149 c -1.11079,-1.1108 -1.1719,-2.83981 -0.13477,-3.87695 l 5.61719,-5.61719 c 0.51856,-0.51856 1.20948,-0.76256 1.91016,-0.73828 z m 30.26172,6.80078 c 2.44952,0.0842 4.9315,1.10728 6.87304,3.04883 l 31.54102,31.54297 c 3.88309,3.88308 4.0924,9.92518 0.4668,13.55078 l -19.63477,19.63476 c -3.6256,3.6256 -9.66966,3.41824 -13.55273,-0.46484 L 52.19141,170.86526 c -3.88308,-3.88308 -4.08849,-9.92908 -0.46289,-13.55468 l 19.63281,-19.63282 c 1.8128,-1.8128 4.23017,-2.66815 6.67969,-2.58398 z m 92.77539,3.09961 c 0.70067,0.0243 1.4114,0.3157 1.96679,0.87109 l 9.02149,9.02344 c 1.11079,1.11078 1.17188,2.83983 0.13476,3.87695 l -5.61718,5.61719 c -1.03714,1.03713 -2.76617,0.97603 -3.87696,-0.13476 l -9.02343,-9.02344 c -1.11079,-1.11079 -1.16995,-2.83787 -0.13282,-3.875 l 5.61719,-5.61719 c 0.51856,-0.51856 1.20948,-0.76256 1.91016,-0.73828 z m -137.17969,4.24219 c 0.70067,0.0243 1.4114,0.31765 1.9668,0.87304 l 9.02343,9.02149 c 1.11079,1.11078 1.16995,2.83982 0.13282,3.87695 l -5.61719,5.61719 c -1.03713,1.03713 -2.76421,0.97602 -3.875,-0.13477 L 26.24414,152.668 c -1.1108,-1.11079 -1.1719,-2.83982 -0.13476,-3.87695 l 5.61718,-5.61719 c 0.51857,-0.51856 1.20949,-0.76257 1.91016,-0.73828 z m 123.03711,9.89843 c 0.70067,0.0243 1.41139,0.31765 1.96679,0.87305 l 9.02149,9.02344 c 1.11079,1.11079 1.17189,2.83982 0.13477,3.87695 l -5.61719,5.61524 c -1.03713,1.03714 -2.76617,0.97797 -3.87696,-0.13282 l -9.02148,-9.02343 c -1.1108,-1.1108 -1.17191,-2.83982 -0.13477,-3.87696 l 5.61719,-5.61523 c 0.51857,-0.51857 1.20948,-0.76452 1.91016,-0.74024 z m -14.14258,14.14258 c 0.70067,0.0243 1.4114,0.31765 1.9668,0.87305 l 9.02343,9.02148 c 1.11079,1.11078 1.16995,2.83984 0.13282,3.87696 l -5.61719,5.61718 c -1.03714,1.03713 -2.76616,0.97797 -3.87695,-0.13281 l -9.02149,-9.02344 c -1.11079,-1.11079 -1.17189,-2.83982 -0.13476,-3.87695 l 5.61718,-5.61719 c 0.51857,-0.51856 1.20949,-0.76256 1.91016,-0.73828 z m -14.14063,14.14258 c 0.70068,0.0243 1.40945,0.31765 1.96485,0.87305 l 9.02344,9.02148 c 1.11078,1.11079 1.16993,2.83983 0.13281,3.87695 l -5.61524,5.61719 c -1.03713,1.03714 -2.76616,0.97603 -3.87695,-0.13476 l -9.02344,-9.02149 c -1.1108,-1.1108 -1.16995,-2.83981 -0.13281,-3.87695 l 5.61524,-5.61719 c 0.51856,-0.51856 1.21143,-0.76256 1.9121,-0.73828 z m -14.14257,14.14258 c 0.70067,0.0243 1.40945,0.3157 1.96484,0.87109 l 9.02344,9.02344 c 1.11079,1.11078 1.17189,2.83983 0.13476,3.87695 l -5.61718,5.61719 c -1.03714,1.03713 -2.76617,0.97601 -3.87696,-0.13477 l -9.02343,-9.02148 c -1.11079,-1.11079 -1.16996,-2.83982 -0.13282,-3.87695 l 5.61719,-5.61719 c 0.51857,-0.51856 1.20948,-0.76256 1.91016,-0.73828 z m -14.14258,14.14258 c 0.70067,0.0243 1.4114,0.3157 1.9668,0.87109 l 9.02148,9.02344 c 1.11078,1.11079 1.17189,2.83982 0.13477,3.87695 l -5.61719,5.61524 c -1.03713,1.03714 -2.76616,0.97797 -3.87695,-0.13282 l -9.02149,-9.02343 c -1.1108,-1.11079 -1.17189,-2.83983 -0.13477,-3.87696 l 5.61719,-5.61523 c 0.51857,-0.51857 1.20949,-0.76257 1.91016,-0.73828 z m -83.22852,11.49804 c 1.32827,10.15042 9.31807,18.14133 19.46875,19.46875 z"
       id="rect976"
       inkscape:connector-curvature="0" />
  </g>
  <g
     id="layer1"
     inkscape:groupmode="layer"
     inkscape:label="film strip"
     style="display:inline;opacity:1" />
  <g
     inkscape:groupmode="layer"
     id="layer2"
     inkscape:label="audio"
     style="display:inline">
    <path
       style="display:inline;opacity:1;fill:#73d216;fill-opacity:1;stroke:none;stroke-width:0.24776673px;stroke-linecap:butt;stroke-linejoin:miter;stroke-opacity:1"
       d="M 60.257333,77.650521 57.509653,102.78412 56.593005,97.754559 55.678611,107.81014 54.761964,81 52.930931,122.88816 V 92.728556 l -0.916648,31.836134 -0.916639,-6.70254 -0.914402,6.70254 -0.916639,-45.241213 -2.747689,35.189183 -0.916639,-26.810125 -1.831042,20.107605 -0.916647,-8.379062 -0.914394,8.379062 -0.916648,-23.460661 -2.74768,43.568251 H 83.155451 L 80.40777,81 79.491122,99.431078 78.576728,94.40506 76.743441,126.24121 75.829048,109.48666 74.9124,121.21518 73.995761,94.40506 l -1.831041,25.1336 -0.916648,-8.37905 -0.914394,5.02958 -0.916647,-10.05558 -0.916639,18.43108 -0.914403,-40.215211 -1.833286,23.460661 -0.914394,-23.460661 -1.833287,15.081599 -0.914401,-10.05202 -0.91664,11.728552 z m 45.063837,0 -2.74769,25.133599 -0.91664,-5.029561 L 100.7402,107.81014 99.825796,81 97.992501,122.88816 V 92.728556 l -0.914402,31.836134 -0.91664,-6.70254 -0.916647,6.70254 L 94.330419,79.323477 91.58273,114.51266 90.66609,87.702535 88.835049,107.81014 87.918402,99.431078 87.001762,107.81014 86.08736,84.349479 83.33968,127.91773 h 44.87961 L 125.4716,81 l -0.91664,18.431078 -0.91665,-5.026018 -1.83104,31.83615 -0.91663,-16.75455 -0.91441,11.72852 -0.91664,-26.81012 -1.83105,25.1336 -0.91663,-8.37905 -0.91665,5.02958 -0.9144,-10.05558 -0.91664,18.43108 -0.91665,-40.215211 -1.83103,23.460661 -0.91664,-23.460661 -1.83105,15.081599 -0.91664,-10.05202 -0.91441,11.728552 z m 22.89812,50.267209 h 44.87958 L 170.35119,81 l -0.91664,18.431078 -0.91439,-5.026018 -1.83329,31.83615 -0.91441,-16.75455 -0.91664,11.72852 -0.91665,-26.81012 -1.83102,25.1336 -0.91666,-8.37905 -0.9144,5.02958 -0.91664,-10.05558 -0.91664,18.43108 -0.91664,-40.215211 -1.83104,23.460661 -0.91665,-23.460661 -1.83103,15.081599 -0.91665,-10.05202 -0.9144,11.728552 -0.91665,-23.457089 -2.74768,25.133599 -0.91664,-5.029561 -0.9144,10.055581 L 144.70539,81 142.87435,122.88816 V 92.728556 l -0.91664,31.836134 -0.91665,-6.70254 -0.9144,6.70254 -0.91663,-45.241213 -2.74769,35.189183 -0.91665,-26.810125 -1.83104,20.107605 -0.91664,-8.379062 -0.91439,8.379062 -0.91665,-23.460661 z M 195.26458,77.650521 192.51689,102.78412 191.60025,97.754559 190.6836,107.81014 189.7692,81 187.93592,122.88816 V 92.728556 l -0.9144,31.836134 -0.91665,-6.70254 -0.91664,6.70254 -0.91438,-45.241213 -2.7477,35.189183 -0.91664,-26.810125 -1.83104,20.107605 -0.91664,-8.379062 -0.91665,8.379062 -0.9144,-23.460661 -2.74768,43.568251 h 44.8796 L 215.415,81 l -0.91664,18.431078 -0.91664,-5.026018 -1.83104,31.83615 -0.91665,-16.75455 -0.91439,11.72852 -0.91663,-26.81012 -1.83106,25.1336 -0.91664,-8.37905 -0.91665,5.02958 -0.91439,-10.05558 -0.91664,18.43108 -0.91664,-40.215211 -1.83105,23.460661 -0.91665,-23.460661 -1.83102,15.081599 -0.91665,-10.05202 -0.91664,11.728552 z m -156.988716,50.399189 2.74768,43.56826 0.916648,-23.46067 0.914394,8.37909 0.916647,-8.37909 1.831042,20.10763 0.916639,-26.81015 2.747689,35.18919 0.916639,-45.24119 0.914402,6.70252 0.916639,-6.70252 0.916648,31.83614 v -30.15964 l 1.831033,41.88816 0.916647,-26.81014 0.914394,10.05558 0.916648,-5.02599 2.74768,25.13361 0.916648,-23.46065 0.91664,11.72854 0.914401,-10.052 1.833287,15.08158 0.914394,-23.46067 1.833286,23.46067 0.914403,-40.21519 0.916639,18.43106 0.916647,-10.05201 0.914394,5.026 0.916648,-8.37905 1.831041,25.13361 0.916639,-26.81013 0.916648,11.7321 0.914393,-16.75813 1.833287,31.83616 0.914394,-5.026 0.916648,18.43105 2.747681,-46.91773 z m 45.063816,0 2.74768,43.56826 0.914402,-23.46067 0.91664,8.37909 0.916647,-8.37909 1.831041,20.10763 0.91664,-26.81015 2.747689,35.18919 0.914393,-45.24119 0.916647,6.70252 0.91664,-6.70252 0.914402,31.83614 v -30.15964 l 1.833295,41.88816 0.914404,-26.81014 0.91664,10.05558 0.91664,-5.02599 2.74769,25.13361 0.91663,-23.46065 0.91441,11.72854 0.91664,-10.052 1.83105,15.08158 0.91664,-23.46067 1.83103,23.46067 0.91665,-40.21519 0.91664,18.43106 0.9144,-10.05201 0.91665,5.026 0.91663,-8.37905 1.83105,25.13361 0.91664,-26.81013 0.91441,11.7321 0.91663,-16.75813 1.83104,31.83616 0.91665,-5.026 0.91664,18.43105 2.74769,-46.91773 z m 44.87961,0 2.74768,43.56826 0.91665,-23.46067 0.91439,8.37909 0.91664,-8.37909 1.83104,20.10763 0.91665,-26.81015 2.74769,35.18919 0.91663,-45.24119 0.9144,6.70252 0.91665,-6.70252 0.91664,31.83614 v -30.15964 l 1.83104,41.88816 0.91664,-26.81014 0.9144,10.05558 0.91664,-5.02599 2.74768,25.13361 0.91665,-23.46065 0.9144,11.72854 0.91665,-10.052 1.83103,15.08158 0.91665,-23.46067 1.83104,23.46067 0.91664,-40.21519 0.91664,18.43106 0.91664,-10.05201 0.9144,5.026 0.91666,-8.37905 1.83102,25.13361 0.91665,-26.81013 0.91664,11.7321 0.91441,-16.75813 1.83329,31.83616 0.91439,-5.026 0.91664,18.43105 2.74768,-46.91773 z m 45.06381,0 2.74768,43.56826 0.9144,-23.46067 0.91665,8.37909 0.91664,-8.37909 1.83104,20.10763 0.91664,-26.81015 2.7477,35.18919 0.91438,-45.24119 0.91664,6.70252 0.91665,-6.70252 0.9144,31.83614 v -30.15964 l 1.83328,41.88816 0.9144,-26.81014 0.91665,10.05558 0.91664,-5.02599 2.74769,25.13361 0.9144,-23.46065 0.91664,11.72854 0.91665,-10.052 1.83102,15.08158 0.91665,-23.46067 1.83105,23.46067 0.91664,-40.21519 0.91664,18.43106 0.91439,-10.05201 0.91665,5.026 0.91664,-8.37905 1.83106,25.13361 0.91663,-26.81013 0.91439,11.7321 0.91665,-16.75813 1.83104,31.83616 0.91664,-5.026 0.91664,18.43105 2.7477,-46.91773 z"
       id="path895"
       inkscape:connector-curvature="0" />
    <path
       style="display:inline;opacity:1;fill:#ffffff;stroke:#000000;stroke-width:0.14897253px;stroke-linecap:butt;stroke-linejoin:miter;stroke-opacity:1"
       d="m 60.257333,109.78907 -2.74768,9.08493 -0.916648,-1.81929 -0.914394,3.6386 L 54.761964,111 52.930931,126.14542 v -10.90423 l -0.916648,11.50679 -0.916639,-2.42185 -0.914402,2.42185 -0.916639,-16.35635 -2.747689,12.72353 -0.916639,-9.69327 -1.831042,7.27142 -0.916647,-3.03026 -0.914394,3.03026 -0.916648,-8.48238 -2.74768,15.74801 H 83.155451 L 80.40777,111 l -0.916648,6.66305 -0.914394,-1.8193 -1.833287,11.5126 -0.914393,-6.06048 -0.916648,4.24118 -0.916639,-9.6933 -1.831041,9.09074 -0.916648,-3.03026 -0.914394,1.8193 -0.916647,-3.6386 -0.916639,6.66305 -0.914403,-14.53705 -1.833286,8.48238 -0.914394,-8.48238 -1.833287,5.45212 -0.914401,-3.63282 -0.91664,4.24119 z m 45.063837,0 -2.74769,9.08493 -0.91664,-1.81929 -0.91664,3.6386 L 99.825796,111 97.992501,126.14542 v -10.90423 l -0.914402,11.50679 -0.91664,-2.42185 -0.916647,2.42185 -0.914393,-16.35635 -2.747689,12.72353 -0.91664,-9.69327 -1.831041,7.27142 -0.916647,-3.03026 -0.91664,3.03026 -0.914402,-8.48238 -2.74768,15.74801 h 44.87961 L 125.4716,111 l -0.91664,6.66305 -0.91665,-1.8193 -1.83104,11.5126 -0.91663,-6.06048 -0.91441,4.24118 -0.91664,-9.6933 -1.83105,9.09074 -0.91663,-3.03026 -0.91665,1.8193 -0.9144,-3.6386 -0.91664,6.66305 -0.91665,-14.53705 -1.83103,8.48238 -0.91664,-8.48238 -1.83105,5.45212 -0.91664,-3.63282 -0.91441,4.24119 z m 22.89812,18.16987 h 44.87958 L 170.35119,111 l -0.91664,6.66305 -0.91439,-1.8193 -1.83329,11.5126 -0.91441,-6.06048 -0.91664,4.24118 -0.91665,-9.6933 -1.83102,9.09074 -0.91666,-3.03026 -0.9144,1.8193 -0.91664,-3.6386 -0.91664,6.66305 -0.91664,-14.53705 -1.83104,8.48238 -0.91665,-8.48238 -1.83103,5.45212 -0.91665,-3.63282 -0.9144,4.24119 -0.91665,-8.48235 -2.74768,9.08493 -0.91664,-1.81929 -0.9144,3.6386 -0.91664,-9.69331 -1.83104,15.14542 v -10.90423 l -0.91664,11.50679 -0.91665,-2.42185 -0.9144,2.42185 -0.91663,-16.35635 -2.74769,12.72353 -0.91665,-9.69327 -1.83104,7.27142 -0.91664,-3.03026 -0.91439,3.03026 -0.91665,-8.48238 z m 67.04529,-18.16987 -2.74769,9.08493 -0.91664,-1.81929 -0.91665,3.6386 -0.9144,-9.69331 -1.83328,15.14542 v -10.90423 l -0.9144,11.50679 -0.91665,-2.42185 -0.91664,2.42185 -0.91438,-16.35635 -2.7477,12.72353 -0.91664,-9.69327 -1.83104,7.27142 -0.91664,-3.03026 -0.91665,3.03026 -0.9144,-8.48238 -2.74768,15.74801 h 44.8796 L 215.415,111 l -0.91664,6.66305 -0.91664,-1.8193 -1.83104,11.5126 -0.91665,-6.06048 -0.91439,4.24118 -0.91663,-9.6933 -1.83106,9.09074 -0.91664,-3.03026 -0.91665,1.8193 -0.91439,-3.6386 -0.91664,6.66305 -0.91664,-14.53705 -1.83105,8.48238 -0.91665,-8.48238 -1.83102,5.45212 -0.91665,-3.63282 -0.91664,4.24119 z m -156.988716,18.22202 2.74768,15.74798 0.916648,-8.48238 0.914394,3.03026 0.916647,-3.03026 1.831042,7.27145 0.916639,-9.69331 2.747689,12.72354 0.916639,-16.35635 0.914402,2.42186 0.916639,-2.42186 0.916648,11.50679 v -10.90424 l 1.831033,15.14543 0.916647,-9.69331 0.914394,3.63863 0.916648,-1.81929 2.74768,9.08493 0.916648,-8.47658 0.91664,4.2354 0.914401,-3.63283 1.833287,5.45212 0.914394,-8.48238 1.833286,8.48238 0.914403,-14.53705 0.916639,6.66305 0.916647,-3.63283 0.914394,1.81352 0.916648,-3.02445 1.831041,9.08495 0.916639,-9.69331 0.916648,4.2412 0.914393,-6.0605 1.833287,11.51261 0.914394,-1.81931 0.916648,6.66305 2.747681,-16.95891 z m 45.063816,0 2.74768,15.74798 0.914402,-8.48238 0.91664,3.03026 0.916647,-3.03026 1.831041,7.27145 0.91664,-9.69331 2.747689,12.72354 0.914393,-16.35635 0.916647,2.42186 0.91664,-2.42186 0.914402,11.50679 v -10.90424 l 1.833295,15.14543 0.914404,-9.69331 0.91664,3.63863 0.91664,-1.81929 2.74769,9.08493 0.91663,-8.47658 0.91441,4.2354 0.91664,-3.63283 1.83105,5.45212 0.91664,-8.48238 1.83103,8.48238 0.91665,-14.53705 0.91664,6.66305 0.9144,-3.63283 0.91665,1.81352 0.91663,-3.02445 1.83105,9.08495 0.91664,-9.69331 0.91441,4.2412 0.91663,-6.0605 1.83104,11.51261 0.91665,-1.81931 0.91664,6.66305 2.74769,-16.95891 z m 44.87961,0 2.74768,15.74798 0.91665,-8.48238 0.91439,3.03026 0.91664,-3.03026 1.83104,7.27145 0.91665,-9.69331 2.74769,12.72354 0.91663,-16.35635 0.9144,2.42186 0.91665,-2.42186 0.91664,11.50679 v -10.90424 l 1.83104,15.14543 0.91664,-9.69331 0.9144,3.63863 0.91664,-1.81929 2.74768,9.08493 0.91665,-8.47658 0.9144,4.2354 0.91665,-3.63283 1.83103,5.45212 0.91665,-8.48238 1.83104,8.48238 0.91664,-14.53705 0.91664,6.66305 0.91664,-3.63283 0.9144,1.81352 0.91666,-3.02445 1.83102,9.08495 0.91665,-9.69331 0.91664,4.2412 0.91441,-6.0605 1.83329,11.51261 0.91439,-1.81931 0.91664,6.66305 2.74768,-16.95891 z m 45.06381,0 2.74768,15.74798 0.9144,-8.48238 0.91665,3.03026 0.91664,-3.03026 1.83104,7.27145 0.91664,-9.69331 2.7477,12.72354 0.91438,-16.35635 0.91664,2.42186 0.91665,-2.42186 0.9144,11.50679 v -10.90424 l 1.83328,15.14543 0.9144,-9.69331 0.91665,3.63863 0.91664,-1.81929 2.74769,9.08493 0.9144,-8.47658 0.91664,4.2354 0.91665,-3.63283 1.83102,5.45212 0.91665,-8.48238 1.83105,8.48238 0.91664,-14.53705 0.91664,6.66305 0.91439,-3.63283 0.91665,1.81352 0.91664,-3.02445 1.83106,9.08495 0.91663,-9.69331 0.91439,4.2412 0.91665,-6.0605 1.83104,11.51261 0.91664,-1.81931 0.91664,6.66305 2.7477,-16.95891 z"
       id="path911"
       inkscape:connector-curvature="0" />
  </g>
  <g
     inkscape:groupmode="layer"
     id="layer5"
     inkscape:label="ffmpeg"
     style="display:none">
    <path
       style="color:#000000;font-style:normal;font-variant:normal;font-weight:normal;font-stretch:normal;font-size:medium;line-height:normal;font-family:sans-serif;font-variant-ligatures:normal;font-variant-position:normal;font-variant-caps:normal;font-variant-numeric:normal;font-variant-alternates:normal;font-feature-settings:normal;text-indent:0;text-align:start;text-decoration:none;text-decoration-line:none;text-decoration-style:solid;text-decoration-color:#000000;letter-spacing:normal;word-spacing:normal;text-transform:none;writing-mode:lr-tb;direction:ltr;text-orientation:mixed;dominant-baseline:auto;baseline-shift:baseline;text-anchor:start;white-space:normal;shape-padding:0;clip-rule:nonzero;display:inline;overflow:visible;visibility:visible;opacity:1;isolation:auto;mix-blend-mode:normal;color-interpolation:sRGB;color-interpolation-filters:linearRGB;solid-color:#000000;solid-opacity:1;vector-effect:none;fill:#73d216;fill-opacity:1;fill-rule:nonzero;stroke:#4e9a06;stroke-width:6.26205349;stroke-linecap:round;stroke-linejoin:round;stroke-miterlimit:4;stroke-dasharray:none;stroke-dashoffset:0;stroke-opacity:1;color-rendering:auto;image-rendering:auto;shape-rendering:auto;text-rendering:auto;enable-background:accumulate"
       d="M 46.21789,49.048811 V 50 H 94 L 47.113323,96.8867 v 58.41606 L 152.41607,50 h 50.99422 L 51.220872,206.94535 h 53.636008 l 99.20177,-99.20181 v 55.72603 l -43.4758,43.47578 h 44.67958 l -1.69245,-0.9512 h -40.69089 l 42.13076,-42.13076 V 105.44734 L 104.46303,205.99415 H 53.468798 L 205.65821,49.048811 H 152.0222 L 48.064507,153.00653 V 97.28055 L 96.2962,49.048811 Z"
       id="path4593"
       inkscape:connector-curvature="0"
       sodipodi:nodetypes="ccccccccccccccccccccccccc" />
  </g>
  <g
     inkscape:groupmode="layer"
     id="layer7"
     inkscape:label="freccie"
     style="display:inline" />
</svg>
