<?xml version="1.0" encoding="UTF-8" standalone="no"?>
<!-- Created with Inkscape (http://www.inkscape.org/) -->

<svg
   xmlns:osb="http://www.openswatchbook.org/uri/2009/osb"
   xmlns:dc="http://purl.org/dc/elements/1.1/"
   xmlns:cc="http://creativecommons.org/ns#"
   xmlns:rdf="http://www.w3.org/1999/02/22-rdf-syntax-ns#"
   xmlns:svg="http://www.w3.org/2000/svg"
   xmlns="http://www.w3.org/2000/svg"
   xmlns:xlink="http://www.w3.org/1999/xlink"
   xmlns:sodipodi="http://sodipodi.sourceforge.net/DTD/sodipodi-0.dtd"
   xmlns:inkscape="http://www.inkscape.org/namespaces/inkscape"
   width="256px"
   height="256px"
   viewBox="0 0 256 256"
   version="1.1"
   id="SVGRoot"
   sodipodi:docname="videomass.svg"
   inkscape:version="0.92.4 (5da689c313, 2019-01-14)"
   enable-background="new">
  <sodipodi:namedview
     id="base"
     pagecolor="#ffffff"
     bordercolor="#666666"
     borderopacity="1.0"
     inkscape:pageopacity="0.0"
     inkscape:pageshadow="2"
     inkscape:zoom="2.32"
     inkscape:cx="41.024967"
     inkscape:cy="114.25573"
     inkscape:document-units="px"
     inkscape:current-layer="layer1"
     showgrid="true"
     inkscape:window-width="1920"
     inkscape:window-height="971"
     inkscape:window-x="0"
     inkscape:window-y="31"
     inkscape:window-maximized="1"
     inkscape:grid-bbox="true"
     inkscape:measure-start="110,130"
     inkscape:measure-end="0,0"
     showguides="true">
    <inkscape:grid
       type="xygrid"
       id="grid5114" />
  </sodipodi:namedview>
  <defs
     id="defs4485">
    <linearGradient
       inkscape:collect="always"
       id="linearGradient1141">
      <stop
         style="stop-color:#2b0000;stop-opacity:1;"
         offset="0"
         id="stop1137" />
      <stop
         style="stop-color:#290000;stop-opacity:0.03308824"
         offset="1"
         id="stop1139" />
    </linearGradient>
    <inkscape:path-effect
       effect="bspline"
       id="path-effect4551"
       is_visible="true"
       weight="33.333333"
       steps="2"
       helper_size="0"
       apply_no_weight="true"
       apply_with_weight="true"
       only_selected="false" />
    <inkscape:path-effect
       effect="skeletal"
       id="path-effect4547"
       is_visible="true"
       pattern="M 0,5 C 0,2.24 2.24,0 5,0 7.76,0 10,2.24 10,5 10,7.76 7.76,10 5,10 2.24,10 0,7.76 0,5 Z"
       copytype="single_stretched"
       prop_scale="1"
       scale_y_rel="false"
       spacing="0"
       normal_offset="0"
       tang_offset="0"
       prop_units="false"
       vertical_pattern="false"
       fuse_tolerance="0" />
    <inkscape:path-effect
       effect="bspline"
       id="path-effect4545"
       is_visible="true"
       weight="33.333333"
       steps="2"
       helper_size="0"
       apply_no_weight="true"
       apply_with_weight="true"
       only_selected="false" />
    <inkscape:path-effect
       effect="skeletal"
       id="path-effect4541"
       is_visible="true"
       pattern="M 0,5 C 0,2.24 2.24,0 5,0 7.76,0 10,2.24 10,5 10,7.76 7.76,10 5,10 2.24,10 0,7.76 0,5 Z"
       copytype="single_stretched"
       prop_scale="1"
       scale_y_rel="false"
       spacing="0"
       normal_offset="0"
       tang_offset="0"
       prop_units="false"
       vertical_pattern="false"
       fuse_tolerance="0" />
    <inkscape:path-effect
       effect="spiro"
       id="path-effect4539"
       is_visible="true" />
    <inkscape:path-effect
       effect="bspline"
       id="path-effect4535"
       is_visible="true"
       weight="33.333333"
       steps="2"
       helper_size="0"
       apply_no_weight="true"
       apply_with_weight="true"
       only_selected="false" />
    <inkscape:path-effect
       effect="skeletal"
       id="path-effect4531"
       is_visible="true"
       pattern="M 0,5 C 0,2.24 2.24,0 5,0 7.76,0 10,2.24 10,5 10,7.76 7.76,10 5,10 2.24,10 0,7.76 0,5 Z"
       copytype="single_stretched"
       prop_scale="1"
       scale_y_rel="false"
       spacing="0"
       normal_offset="0"
       tang_offset="0"
       prop_units="false"
       vertical_pattern="false"
       fuse_tolerance="0" />
    <inkscape:path-effect
       effect="bspline"
       id="path-effect4529"
       is_visible="true"
       weight="33.333333"
       steps="2"
       helper_size="0"
       apply_no_weight="true"
       apply_with_weight="true"
       only_selected="false" />
    <inkscape:path-effect
       effect="skeletal"
       id="path-effect4525"
       is_visible="true"
       pattern="M 0,5 C 0,2.24 2.24,0 5,0 7.76,0 10,2.24 10,5 10,7.76 7.76,10 5,10 2.24,10 0,7.76 0,5 Z"
       copytype="single_stretched"
       prop_scale="1"
       scale_y_rel="false"
       spacing="0"
       normal_offset="0"
       tang_offset="0"
       prop_units="false"
       vertical_pattern="false"
       fuse_tolerance="0" />
    <inkscape:path-effect
       effect="bspline"
       id="path-effect4523"
       is_visible="true"
       weight="33.333333"
       steps="2"
       helper_size="0"
       apply_no_weight="true"
       apply_with_weight="true"
       only_selected="false" />
    <inkscape:path-effect
       effect="bspline"
       id="path-effect4519"
       is_visible="true"
       weight="33.333333"
       steps="2"
       helper_size="0"
       apply_no_weight="true"
       apply_with_weight="true"
       only_selected="false" />
    <linearGradient
       inkscape:collect="always"
       id="linearGradient4752">
      <stop
         style="stop-color:#888a85;stop-opacity:1;"
         offset="0"
         id="stop4748" />
      <stop
         style="stop-color:#888a85;stop-opacity:0;"
         offset="1"
         id="stop4750" />
    </linearGradient>
    <pattern
       inkscape:isstock="true"
       inkscape:stockid="Stripes 1:1"
       id="Strips1_1"
       patternTransform="translate(0,0) scale(10,10)"
       height="1"
       width="2"
       patternUnits="userSpaceOnUse"
       inkscape:collect="always">
      <rect
         id="rect5447"
         height="2"
         width="1"
         y="-0.5"
         x="0"
         style="fill:black;stroke:none" />
    </pattern>
    <linearGradient
       id="linearGradient4727"
       osb:paint="solid">
      <stop
         style="stop-color:#ce5c00;stop-opacity:1;"
         offset="0"
         id="stop4725" />
    </linearGradient>
    <pattern
       patternUnits="userSpaceOnUse"
       width="55"
       height="90"
       patternTransform="translate(-60,50.5)"
       id="pattern6214">
      <g
         style="fill:url(#Strips1_1);fill-opacity:1"
         transform="translate(-15,-28.5)"
         id="g4691">
        <rect
           style="opacity:0.81499999;fill:url(#Strips1_1);fill-opacity:1;stroke:none;stroke-width:4.52699995;stroke-linecap:round;stroke-linejoin:bevel;stroke-miterlimit:17.60000038;stroke-dasharray:none;stroke-dashoffset:0;stroke-opacity:1;paint-order:stroke fill markers"
           id="rect4683"
           width="30"
           height="30"
           x="40"
           y="59"
           ry="7.9000001" />
        <path
           inkscape:connector-curvature="0"
           style="opacity:0.81499999;fill:url(#Strips1_1);fill-opacity:1;stroke:none;stroke-width:8.60130024;stroke-linecap:round;stroke-linejoin:bevel;stroke-miterlimit:17.60000038;stroke-dasharray:none;stroke-dashoffset:0;stroke-opacity:1;paint-order:stroke fill markers"
           d="m 15,28.5 v 90 l 45,-45 z"
           id="path4687" />
      </g>
    </pattern>
    <linearGradient
       inkscape:collect="always"
       xlink:href="#linearGradient4752"
       id="linearGradient4754"
       x1="11.826138"
       y1="245.7171"
       x2="149.78668"
       y2="106.13758"
       gradientUnits="userSpaceOnUse"
       gradientTransform="matrix(0.95425703,0,0,0.95425703,5.390281,5.594659)" />
    <linearGradient
       inkscape:collect="always"
       xlink:href="#linearGradient1141"
       id="linearGradient1143"
       x1="-327"
       y1="131"
       x2="-57"
       y2="131"
       gradientUnits="userSpaceOnUse"
       gradientTransform="translate(312)" />
  </defs>
  <metadata
     id="metadata4488">
    <rdf:RDF>
      <cc:Work
         rdf:about="">
        <dc:format>image/svg+xml</dc:format>
        <dc:type
           rdf:resource="http://purl.org/dc/dcmitype/StillImage" />
        <dc:title />
      </cc:Work>
    </rdf:RDF>
  </metadata>
  <g
     inkscape:groupmode="layer"
     id="layer3"
     inkscape:label="sfondo"
     style="display:inline">
    <rect
       style="display:inline;opacity:1;fill:#eeeeec;fill-opacity:1;stroke:none;stroke-width:2.40400004;stroke-linecap:round;stroke-linejoin:bevel;stroke-miterlimit:17.60000038;stroke-dasharray:none;stroke-dashoffset:0;stroke-opacity:0.97647059;paint-order:stroke fill markers"
       id="rect4568-3"
       width="222.07193"
       height="222.07193"
       x="16.675457"
       y="18"
       ry="22.6604" />
  </g>
  <g
     style="display:inline"
     inkscape:label="sfondo copia"
     id="g4738"
     inkscape:groupmode="layer">
    <rect
       ry="22.6604"
       y="18"
       x="16.675457"
       height="222.07193"
       width="222.07193"
       id="rect4736"
       style="display:inline;opacity:1;fill:url(#linearGradient4754);fill-opacity:1;stroke:none;stroke-width:7.00387716;stroke-linecap:round;stroke-linejoin:bevel;stroke-miterlimit:17.60000038;stroke-dasharray:none;stroke-dashoffset:0;stroke-opacity:0.97647059;paint-order:stroke fill markers" />
    <path
       style="display:inline;opacity:1;fill:url(#linearGradient1143);fill-opacity:1;stroke:none;stroke-width:7.00387716;stroke-linecap:round;stroke-linejoin:bevel;stroke-miterlimit:17.60000038;stroke-dasharray:none;stroke-dashoffset:0;stroke-opacity:0.97647059;paint-order:stroke fill markers"
       d="M 182.91602,18 16.67578,186.05469 v 31.35742 c 0,12.55386 10.1063,22.66016 22.66016,22.66016 H 68.59961 L 238.74805,68.068359 V 40.660156 C 238.74805,28.106294 228.64175,18 216.08789,18 Z"
       id="rect1130"
       inkscape:connector-curvature="0" />
    <path
       style="display:inline;opacity:1;fill:#280b0b;fill-opacity:0.97794118;stroke:none;stroke-width:7.00387716;stroke-linecap:round;stroke-linejoin:bevel;stroke-miterlimit:17.60000038;stroke-dasharray:none;stroke-dashoffset:0;stroke-opacity:0.97647059;paint-order:stroke fill markers"
       d="M 148.61133,18 16.67578,149.93555 v 8.28906 l 0.9082,-0.9082 c 1.03713,-1.03713 2.76617,-0.97799 3.87696,0.13281 l 9.02344,9.02344 c 1.11079,1.11079 1.16994,2.83982 0.13281,3.87695 l -5.61524,5.61719 c -1.03714,1.03714 -2.76617,0.97602 -3.87695,-0.13477 l -4.44922,-4.44922 v 9.63477 c 0.70713,1.00224 0.7098,2.30504 0,3.22461 v 8.11914 l 12.25781,-12.25781 c 3.6256,-3.6256 9.66965,-3.41824 13.55274,0.46484 l 31.54297,31.54297 c 3.88309,3.88309 4.09044,9.92713 0.46484,13.55273 l -14.4082,14.40821 h 7.67773 l 2.14649,-2.14649 c 1.03712,-1.03712 2.76616,-0.97602 3.87695,0.13477 l 2.01172,2.01172 h 9.56445 l -6.79297,-6.79493 c -1.11079,-1.11079 -1.1719,-2.83981 -0.13476,-3.87695 l 5.61718,-5.61719 c 1.03713,-1.03713 2.76616,-0.97603 3.87696,0.13477 l 9.02148,9.02344 c 1.11079,1.11079 1.1719,2.83787 0.13477,3.875 l -3.25586,3.25586 h 9.48633 L 238.74805,104.64062 v -9.542964 c -0.0749,0.10224 -0.14801,0.206605 -0.24024,0.298828 l -5.61718,5.615236 c -1.03714,1.03713 -2.76617,0.97798 -3.87696,-0.13281 l -9.02148,-9.023441 c -1.1108,-1.110794 -1.1719,-2.83982 -0.13477,-3.876953 l 5.61719,-5.615235 c 1.03713,-1.037133 2.76616,-0.977981 3.87695,0.132813 l 9.02149,9.023437 c 0.14279,0.142793 0.26702,0.296597 0.375,0.457031 v -9.648437 l -4.61524,-4.613281 C 233.02202,76.60405 232.96287,74.875024 234,73.837891 l 4.74805,-4.748047 v -7.679688 l -15.59571,15.595703 c -3.62559,3.625594 -9.66965,3.418241 -13.55273,-0.464843 L 178.05664,45 C 174.17356,41.116916 173.9662,35.070907 177.5918,31.445312 L 191.03906,18 h -8.07226 l -2.40235,2.402344 c -1.03713,1.037132 -2.76616,0.976021 -3.87695,-0.134766 L 174.41992,18 h -9.5664 l 7.05273,7.050781 c 1.11079,1.110787 1.16995,2.839821 0.13281,3.876953 l -5.61718,5.617188 c -1.03714,1.037133 -2.76617,0.976021 -3.87696,-0.134766 l -9.02148,-9.021484 c -1.11079,-1.110794 -1.1719,-2.839821 -0.13477,-3.876953 L 156.90039,18 Z m 67.89844,0.0098 22.22851,22.228515 C 238.5166,28.022437 228.72552,18.231813 216.50977,18.009766 Z m -69.73438,11.289062 c 0.70068,0.02428 1.40945,0.315697 1.96484,0.871094 l 9.02344,9.023437 c 1.11079,1.110787 1.16994,2.83982 0.13281,3.876953 l -5.61523,5.617188 c -1.03714,1.037132 -2.76617,0.976021 -3.87695,-0.134766 l -9.02344,-9.023437 c -1.11079,-1.110794 -1.16994,-2.837867 -0.13281,-3.875 l 5.61523,-5.617188 c 0.51857,-0.518566 1.21144,-0.762565 1.91211,-0.738281 z m -14.14258,14.140625 c 0.70068,0.02428 1.40945,0.31765 1.96485,0.873047 l 9.02343,9.023438 c 1.11078,1.110787 1.17191,2.839821 0.13477,3.876953 l -5.61719,5.615234 c -1.03713,1.037133 -2.76616,0.977975 -3.87695,-0.132813 l -9.02344,-9.023437 c -1.1108,-1.110794 -1.16994,-2.839821 -0.13281,-3.876953 l 5.61719,-5.615234 c 0.51856,-0.518567 1.20948,-0.764519 1.91015,-0.740235 z m 30.25977,6.802735 c 2.44952,0.08417 4.9315,1.105333 6.87305,3.046874 l 31.54296,31.542969 c 3.88309,3.883084 4.09044,9.92714 0.46485,13.552735 l -19.63281,19.63281 c -3.6256,3.6256 -9.67161,3.41824 -13.55469,-0.46485 L 137.04492,86.011719 c -3.88308,-3.883084 -4.09043,-9.929094 -0.46484,-13.554688 l 19.63281,-19.632812 c 1.8128,-1.812798 4.23017,-2.6662 6.67969,-2.582031 z m -44.40235,7.339843 c 0.70068,0.02428 1.41141,0.31765 1.9668,0.873047 l 9.02149,9.021484 c 1.11079,1.110788 1.17189,2.839821 0.13476,3.876954 l -5.61719,5.617187 c -1.03714,1.037135 -2.76616,0.977975 -3.87695,-0.132812 l -9.02148,-9.023438 c -1.11079,-1.110794 -1.1719,-2.839819 -0.13477,-3.876953 l 5.61719,-5.617188 c 0.51856,-0.518565 1.20948,-0.762564 1.91015,-0.738281 z m -14.14257,14.142578 c 0.70067,0.02428 1.4114,0.31765 1.96679,0.873047 l 9.02149,9.021485 c 1.11078,1.110787 1.17188,2.839825 0.13476,3.876953 l -5.61718,5.617187 c -1.03713,1.037135 -2.76617,0.976022 -3.87696,-0.134765 l -9.02148,-9.021485 c -1.1108,-1.110794 -1.1719,-2.839818 -0.13477,-3.876953 l 5.61719,-5.617187 c 0.51855,-0.518557 1.20948,-0.762564 1.91016,-0.738282 z M 90.20703,85.867222 c 0.70067,0.02428 1.40945,0.317649 1.96485,0.873046 l 9.02343,9.021485 c 1.11079,1.110787 1.16994,2.839825 0.13281,3.876953 l -5.61718,5.617184 c -1.03714,1.03714 -2.76421,0.97602 -3.875,-0.13477 L 82.8125,96.099643 C 81.70171,94.988849 81.64255,93.259825 82.67969,92.22269 l 5.61523,-5.617187 c 0.51857,-0.518564 1.21144,-0.762565 1.91211,-0.738281 z m 30.25977,6.800781 c 2.44952,0.08417 4.9315,1.107286 6.87304,3.048828 l 31.54297,31.541009 c 3.88308,3.88308 4.09044,9.92714 0.46485,13.55274 l -19.63282,19.63281 c -3.6256,3.6256 -9.6716,3.4202 -13.55468,-0.46289 L 94.61719,128.43753 C 90.7341,124.55445 90.5287,118.5104 94.1543,114.8848 L 113.78711,95.25 c 1.81279,-1.812799 4.23017,-2.6662 6.67969,-2.582031 z m 92.77539,3.097656 c 0.70067,0.02428 1.4114,0.31765 1.96679,0.873047 l 9.02149,9.023434 c 1.11079,1.11079 1.1719,2.83787 0.13476,3.875 l -5.61718,5.61719 c -1.03714,1.03713 -2.76617,0.97796 -3.87696,-0.13282 l -9.02148,-9.02343 c -1.11079,-1.11079 -1.1719,-2.83982 -0.13477,-3.87696 l 5.61719,-5.61718 c 0.51857,-0.518566 1.20948,-0.762565 1.91016,-0.738281 z M 76.06445,100.0098 c 0.70068,0.0243 1.40945,0.31569 1.96485,0.87109 l 9.02343,9.02344 c 1.11078,1.11079 1.16995,2.83982 0.13282,3.87695 l -5.61524,5.61523 c -1.03713,1.03713 -2.76617,0.97797 -3.87695,-0.13281 l -9.02344,-9.02344 c -1.11079,-1.11079 -1.16994,-2.83981 -0.13281,-3.87695 l 5.61719,-5.61523 c 0.51856,-0.51857 1.20948,-0.762564 1.91015,-0.73828 z m 123.03711,9.89843 c 0.70068,0.0243 1.40945,0.31765 1.96485,0.87305 l 9.02343,9.02148 c 1.11079,1.11079 1.16995,2.83983 0.13282,3.87696 l -5.61719,5.61719 c -1.03713,1.03712 -2.76421,0.97602 -3.875,-0.13477 l -9.02344,-9.02149 c -1.11079,-1.11078 -1.1719,-2.83982 -0.13476,-3.87695 l 5.61718,-5.61719 c 0.51857,-0.51857 1.21144,-0.76256 1.91211,-0.73828 z m -137.17968,4.24219 c 0.70067,0.0243 1.41139,0.31765 1.96679,0.87305 l 9.02149,9.02344 c 1.11079,1.11078 1.17189,2.83786 0.13476,3.875 l -5.61719,5.61718 c -1.03714,1.03714 -2.76616,0.97798 -3.87695,-0.13281 l -9.02148,-9.02344 c -1.11079,-1.11079 -1.17191,-2.83982 -0.13477,-3.87695 l 5.61719,-5.61719 c 0.51856,-0.51856 1.20948,-0.76256 1.91016,-0.73828 z m 123.0371,9.90039 c 0.70068,0.0243 1.40945,0.31765 1.96485,0.87305 l 9.02344,9.02148 c 1.11078,1.11079 1.16994,2.83983 0.13281,3.87696 l -5.61524,5.61718 c -1.03713,1.03713 -2.76616,0.97603 -3.87695,-0.13476 l -9.02344,-9.02149 c -1.11079,-1.1108 -1.16994,-2.83981 -0.13281,-3.87695 l 5.61524,-5.61719 c 0.51856,-0.51856 1.21143,-0.76256 1.9121,-0.73828 z M 47.7793,128.293 c 0.70067,0.0243 1.4114,0.31765 1.96679,0.87305 l 9.02149,9.02148 c 1.11079,1.11079 1.17189,2.83982 0.13476,3.87695 l -5.61718,5.61719 c -1.03714,1.03714 -2.76618,0.97603 -3.87696,-0.13476 l -9.02148,-9.02149 c -1.11079,-1.1108 -1.1719,-2.83981 -0.13477,-3.87695 l 5.61719,-5.61719 c 0.51856,-0.51856 1.20948,-0.76256 1.91016,-0.73828 z m 30.26172,6.80078 c 2.44952,0.0842 4.9315,1.10728 6.87304,3.04883 l 31.54102,31.54297 c 3.88309,3.88308 4.0924,9.92518 0.4668,13.55078 l -19.63477,19.63476 c -3.6256,3.6256 -9.66966,3.41824 -13.55273,-0.46484 L 52.19141,170.86526 c -3.88308,-3.88308 -4.08849,-9.92908 -0.46289,-13.55468 l 19.63281,-19.63282 c 1.8128,-1.8128 4.23017,-2.66815 6.67969,-2.58398 z m 92.77539,3.09961 c 0.70067,0.0243 1.4114,0.3157 1.96679,0.87109 l 9.02149,9.02344 c 1.11079,1.11078 1.17188,2.83983 0.13476,3.87695 l -5.61718,5.61719 c -1.03714,1.03713 -2.76617,0.97603 -3.87696,-0.13476 l -9.02343,-9.02344 c -1.11079,-1.11079 -1.16995,-2.83787 -0.13282,-3.875 l 5.61719,-5.61719 c 0.51856,-0.51856 1.20948,-0.76256 1.91016,-0.73828 z m -137.17969,4.24219 c 0.70067,0.0243 1.4114,0.31765 1.9668,0.87304 l 9.02343,9.02149 c 1.11079,1.11078 1.16995,2.83982 0.13282,3.87695 l -5.61719,5.61719 c -1.03713,1.03713 -2.76421,0.97602 -3.875,-0.13477 L 26.24414,152.668 c -1.1108,-1.11079 -1.1719,-2.83982 -0.13476,-3.87695 l 5.61718,-5.61719 c 0.51857,-0.51856 1.20949,-0.76257 1.91016,-0.73828 z m 123.03711,9.89843 c 0.70067,0.0243 1.41139,0.31765 1.96679,0.87305 l 9.02149,9.02344 c 1.11079,1.11079 1.17189,2.83982 0.13477,3.87695 l -5.61719,5.61524 c -1.03713,1.03714 -2.76617,0.97797 -3.87696,-0.13282 l -9.02148,-9.02343 c -1.1108,-1.1108 -1.17191,-2.83982 -0.13477,-3.87696 l 5.61719,-5.61523 c 0.51857,-0.51857 1.20948,-0.76452 1.91016,-0.74024 z m -14.14258,14.14258 c 0.70067,0.0243 1.4114,0.31765 1.9668,0.87305 l 9.02343,9.02148 c 1.11079,1.11078 1.16995,2.83984 0.13282,3.87696 l -5.61719,5.61718 c -1.03714,1.03713 -2.76616,0.97797 -3.87695,-0.13281 l -9.02149,-9.02344 c -1.11079,-1.11079 -1.17189,-2.83982 -0.13476,-3.87695 l 5.61718,-5.61719 c 0.51857,-0.51856 1.20949,-0.76256 1.91016,-0.73828 z m -14.14063,14.14258 c 0.70068,0.0243 1.40945,0.31765 1.96485,0.87305 l 9.02344,9.02148 c 1.11078,1.11079 1.16993,2.83983 0.13281,3.87695 l -5.61524,5.61719 c -1.03713,1.03714 -2.76616,0.97603 -3.87695,-0.13476 l -9.02344,-9.02149 c -1.1108,-1.1108 -1.16995,-2.83981 -0.13281,-3.87695 l 5.61524,-5.61719 c 0.51856,-0.51856 1.21143,-0.76256 1.9121,-0.73828 z m -14.14257,14.14258 c 0.70067,0.0243 1.40945,0.3157 1.96484,0.87109 l 9.02344,9.02344 c 1.11079,1.11078 1.17189,2.83983 0.13476,3.87695 l -5.61718,5.61719 c -1.03714,1.03713 -2.76617,0.97601 -3.87696,-0.13477 l -9.02343,-9.02148 c -1.11079,-1.11079 -1.16996,-2.83982 -0.13282,-3.87695 l 5.61719,-5.61719 c 0.51857,-0.51856 1.20948,-0.76256 1.91016,-0.73828 z m -14.14258,14.14258 c 0.70067,0.0243 1.4114,0.3157 1.9668,0.87109 l 9.02148,9.02344 c 1.11078,1.11079 1.17189,2.83982 0.13477,3.87695 l -5.61719,5.61524 c -1.03713,1.03714 -2.76616,0.97797 -3.87695,-0.13282 l -9.02149,-9.02343 c -1.1108,-1.11079 -1.17189,-2.83983 -0.13477,-3.87696 l 5.61719,-5.61523 c 0.51857,-0.51857 1.20949,-0.76257 1.91016,-0.73828 z m -83.22852,11.49804 c 1.32827,10.15042 9.31807,18.14133 19.46875,19.46875 z"
       id="rect976"
       inkscape:connector-curvature="0" />
  </g>
  <g
     id="layer1"
     inkscape:groupmode="layer"
     inkscape:label="film strip"
     style="display:inline;opacity:1" />
  <g
     inkscape:groupmode="layer"
     id="layer2"
     inkscape:label="audio"
     style="display:inline">
    <path
       style="display:inline;fill:#73d216;stroke:#000000;stroke-width:0.32695609px;stroke-linecap:butt;stroke-linejoin:miter;stroke-opacity:1"
       d="M 44.60251,61.355078 41.1522,96.209337 40.00115,89.234541 38.85293,103.17921 37.70188,66 35.40262,124.0888 V 82.264685 L 34.25157,126.41375 33.10053,117.11892 31.9523,126.41375 30.80126,63.675066 27.35094,112.474 26.1999,75.294803 23.90063,103.17921 22.74958,91.55947 21.60136,103.17921 20.45031,70.644922 17,131.0636 H 73.35607 L 69.90576,66 68.75471,91.55947 67.60649,84.589593 65.3044,128.73867 64.15618,105.50414 63.00513,121.76879 61.85409,84.589593 59.55482,119.44385 58.40377,107.82412 57.25555,114.79893 56.1045,100.85427 54.95346,126.41375 53.80523,70.644922 51.50314,103.17921 50.35492,70.644922 48.05283,91.55947 46.9046,77.619737 45.75356,93.884416 Z m 56.58742,0 L 97.73961,96.209337 96.58856,89.234541 95.43752,103.17921 94.2893,66 91.98721,124.0888 V 82.264685 l -1.14823,44.149065 -1.15104,-9.29483 -1.15105,9.29483 L 87.38867,63.675066 83.93835,112.474 82.78731,75.294803 80.48804,103.17921 79.33699,91.55947 78.18595,103.17921 77.03772,70.644922 73.58741,131.0636 h 56.35608 L 126.49317,66 l -1.15105,25.55947 -1.15104,-6.969877 -2.29927,44.149077 -1.15104,-23.23453 -1.14823,16.26465 -1.15104,-37.179197 -2.29928,34.854257 -1.15103,-11.61973 -1.15106,6.97481 -1.14822,-13.94466 -1.15105,25.55948 -1.15104,-55.768828 -2.29927,32.534288 -1.15104,-32.534288 -2.29927,20.914548 -1.15104,-13.939733 -1.14824,16.264679 z m 28.75356,69.708522 h 56.35606 L 182.84924,66 l -1.15104,25.55947 -1.14822,-6.969877 -2.30209,44.149077 -1.14824,-23.23453 -1.15103,16.26465 -1.15106,-37.179197 -2.29925,34.854257 -1.15106,-11.61973 -1.14822,6.97481 -1.15105,-13.94466 -1.15104,25.55948 -1.15104,-55.768828 -2.29927,32.534288 -1.15105,-32.534288 -2.29926,20.914548 -1.15105,-13.939733 -1.14823,16.264679 -1.15105,-32.529338 -3.45031,34.854259 -1.15104,-6.974796 -1.14822,13.944669 L 150.64537,66 148.3461,124.0888 V 82.264685 l -1.15104,44.149065 -1.15105,-9.29483 -1.14823,9.29483 -1.15103,-62.738684 -3.45032,48.798934 -1.15105,-37.179197 -2.29927,27.884407 -1.15104,-11.61974 -1.14822,11.61974 -1.15105,-32.534288 z M 214.13342,61.355078 210.68309,96.209337 209.53205,89.234541 208.381,103.17921 207.23278,66 204.93069,124.0888 V 82.264685 l -1.14822,44.149065 -1.15106,-9.29483 -1.15103,9.29483 -1.14822,-62.738684 -3.45032,48.798934 -1.15105,-37.179197 -2.29927,27.884407 -1.15104,-11.61974 -1.15105,11.61974 -1.14822,-32.534288 -3.45032,60.418678 h 56.35609 L 239.43665,66 l -1.15104,25.55947 -1.15105,-6.969877 -2.29926,44.149077 -1.15105,-23.23453 -1.14822,16.26465 -1.15104,-37.179197 -2.29928,34.854257 -1.15105,-11.61973 -1.15104,6.97481 -1.14822,-13.94466 -1.15105,25.55948 -1.15104,-55.768828 -2.29927,32.534288 -1.15105,-32.534288 -2.29926,20.914548 -1.15105,-13.939733 -1.15104,16.264679 z M 17,131.24663 l 3.45031,60.4187 1.15105,-32.53431 1.14822,11.61978 1.15105,-11.61978 2.29927,27.88443 1.15104,-37.17922 3.45032,48.79894 1.15104,-62.73865 1.14823,9.29479 1.15104,-9.29479 1.15105,44.14907 v -41.82416 l 2.29926,58.08881 1.15105,-37.17922 1.14822,13.94467 1.15105,-6.96985 3.45031,34.85428 1.15105,-32.53428 1.15104,16.26466 1.14823,-13.9397 2.30209,20.91453 1.14822,-32.53431 2.30209,32.53431 1.14823,-55.76881 1.15104,25.55945 1.15105,-13.93971 1.14822,6.96985 1.15105,-11.61973 2.29927,34.85428 1.15104,-37.17922 1.15105,16.26961 1.14822,-23.23949 2.30209,44.1491 1.14822,-6.96986 1.15105,25.55944 3.45031,-65.06361 z m 56.58741,0 3.45031,60.4187 1.14823,-32.53431 1.15104,11.61978 1.15105,-11.61978 2.29927,27.88443 1.15104,-37.17922 3.45032,48.79894 1.14822,-62.73865 1.15105,9.29479 1.15104,-9.29479 1.14823,44.14907 v -41.82416 l 2.30209,58.08881 1.14822,-37.17922 1.15104,13.94467 1.15105,-6.96985 3.45032,34.85428 1.15103,-32.53428 1.14824,16.26466 1.15104,-13.9397 2.29927,20.91453 1.15104,-32.53431 2.29927,32.53431 1.15104,-55.76881 1.15105,25.55945 1.14822,-13.93971 1.15106,6.96985 1.15103,-11.61973 2.29928,34.85428 1.15104,-37.17922 1.14823,16.26961 1.15104,-23.23949 2.29927,44.1491 1.15104,-6.96986 1.15105,25.55944 3.45032,-65.06361 z m 56.35608,0 3.45031,60.4187 1.15105,-32.53431 1.14822,11.61978 1.15104,-11.61978 2.29927,27.88443 1.15105,-37.17922 3.45032,48.79894 1.15103,-62.73865 1.14823,9.29479 1.15105,-9.29479 1.15104,44.14907 v -41.82416 l 2.29927,58.08881 1.15105,-37.17922 1.14822,13.94467 1.15104,-6.96985 3.45031,34.85428 1.15105,-32.53428 1.14823,16.26466 1.15105,-13.9397 2.29926,20.91453 1.15105,-32.53431 2.29927,32.53431 1.15104,-55.76881 1.15104,25.55945 1.15105,-13.93971 1.14822,6.96985 1.15106,-11.61973 2.29925,34.85428 1.15106,-37.17922 1.15103,16.26961 1.14824,-23.23949 2.30209,44.1491 1.14822,-6.96986 1.15104,25.55944 3.45031,-65.06361 z m 56.5874,0 3.45032,60.4187 1.14822,-32.53431 1.15105,11.61978 1.15104,-11.61978 2.29927,27.88443 1.15105,-37.17922 3.45032,48.79894 1.14822,-62.73865 1.15103,9.29479 1.15106,-9.29479 1.14822,44.14907 v -41.82416 l 2.30209,58.08881 1.14822,-37.17922 1.15105,13.94467 1.15104,-6.96985 3.45033,34.85428 1.14822,-32.53428 1.15104,16.26466 1.15105,-13.9397 2.29926,20.91453 1.15105,-32.53431 2.29927,32.53431 1.15104,-55.76881 1.15105,25.55945 1.14822,-13.93971 1.15104,6.96985 1.15105,-11.61973 2.29928,34.85428 1.15104,-37.17922 1.14822,16.26961 1.15105,-23.23949 2.29926,44.1491 1.15105,-6.96986 1.15104,25.55944 3.45033,-65.06361 z"
       id="path895"
       inkscape:connector-curvature="0" />
    <path
       style="display:inline;opacity:1;fill:#ffffff;stroke:#000000;stroke-width:0.23909995px;stroke-linecap:butt;stroke-linejoin:miter;stroke-opacity:1"
       d="m 44.60251,93.829123 -3.45031,18.637017 -1.15105,-3.73215 -1.14822,7.4643 -1.15105,-19.885049 -2.29926,31.069639 V 105.0137 l -1.15105,23.60528 -1.15104,-4.96825 -1.14823,4.96825 -1.15104,-33.553755 -3.45032,26.101315 -1.15104,-19.88498 -2.29927,14.91673 -1.15105,-6.21634 -1.14822,6.21634 L 20.45031,98.797365 17,131.10317 h 56.35607 l -3.45031,-34.789929 -1.15105,13.668709 -1.14822,-3.73215 -2.30209,23.6172 -1.14822,-12.4326 -1.15105,8.70045 -1.15104,-19.88505 -2.29927,18.64895 -1.15105,-6.21633 -1.14822,3.73214 -1.15105,-7.4643 -1.15104,13.66872 -1.14823,-29.821615 -2.30209,17.400925 -1.14822,-17.400925 -2.30209,11.184585 -1.14823,-7.45244 -1.15104,8.70047 z m 56.58742,0 -3.45032,18.637017 -1.15105,-3.73215 -1.15104,7.4643 L 94.2893,96.313241 91.98721,127.38288 V 105.0137 l -1.14823,23.60528 -1.15104,-4.96825 -1.15105,4.96825 -1.14822,-33.553755 -3.45032,26.101315 -1.15104,-19.88498 -2.29927,14.91673 -1.15105,-6.21634 -1.15104,6.21634 -1.14823,-17.400925 -3.45031,32.305805 h 56.35608 l -3.45032,-34.789929 -1.15105,13.668709 -1.15104,-3.73215 -2.29927,23.6172 -1.15104,-12.4326 -1.14823,8.70045 -1.15104,-19.88505 -2.29928,18.64895 -1.15103,-6.21633 -1.15106,3.73214 -1.14822,-7.4643 -1.15105,13.66872 -1.15104,-29.821615 -2.29927,17.400925 -1.15104,-17.400925 -2.29927,11.184585 -1.15104,-7.45244 -1.14824,8.70047 z m 28.75356,37.274047 h 56.35606 l -3.45031,-34.789929 -1.15104,13.668709 -1.14822,-3.73215 -2.30209,23.6172 -1.14824,-12.4326 -1.15103,8.70045 -1.15106,-19.88505 -2.29925,18.64895 -1.15106,-6.21633 -1.14822,3.73214 -1.15105,-7.4643 -1.15104,13.66872 -1.15104,-29.821615 -2.29927,17.400925 -1.15105,-17.400925 -2.29926,11.184585 -1.15105,-7.45244 -1.14823,8.70047 -1.15105,-17.400857 -3.45031,18.637017 -1.15104,-3.73215 -1.14822,7.4643 -1.15105,-19.885049 -2.29927,31.069639 V 105.0137 l -1.15104,23.60528 -1.15105,-4.96825 -1.14823,4.96825 -1.15103,-33.553755 -3.45032,26.101315 -1.15105,-19.88498 -2.29927,14.91673 -1.15104,-6.21634 -1.14822,6.21634 -1.15105,-17.400925 z m 84.18993,-37.274047 -3.45033,18.637017 -1.15104,-3.73215 -1.15105,7.4643 -1.14822,-19.885049 -2.30209,31.069639 V 105.0137 l -1.14822,23.60528 -1.15106,-4.96825 -1.15103,4.96825 -1.14822,-33.553755 -3.45032,26.101315 -1.15105,-19.88498 -2.29927,14.91673 -1.15104,-6.21634 -1.15105,6.21634 -1.14822,-17.400925 -3.45032,32.305805 h 56.35609 l -3.45033,-34.789929 -1.15104,13.668709 -1.15105,-3.73215 -2.29926,23.6172 -1.15105,-12.4326 -1.14822,8.70045 -1.15104,-19.88505 -2.29928,18.64895 -1.15105,-6.21633 -1.15104,3.73214 -1.14822,-7.4643 -1.15105,13.66872 -1.15104,-29.821615 -2.29927,17.400925 -1.15105,-17.400925 -2.29926,11.184585 -1.15105,-7.45244 -1.15104,8.70047 z M 17,131.21014 l 3.45031,32.30574 1.15105,-17.40093 1.14822,6.21634 1.15105,-6.21634 2.29927,14.9168 1.15104,-19.88505 3.45032,26.10132 1.15104,-33.55376 1.14823,4.96825 1.15104,-4.96825 1.15105,23.60528 V 134.93037 L 37.70188,166 l 1.15105,-19.88505 1.14822,7.46437 1.15105,-3.73215 3.45031,18.63702 1.15105,-17.38904 1.15104,8.68858 1.14823,-7.45244 2.30209,11.18459 1.14822,-17.40093 2.30209,17.40093 1.14823,-29.82162 1.15104,13.66872 1.15105,-7.45245 1.14822,3.72029 1.15105,-6.20441 2.29927,18.63703 1.15104,-19.88505 1.15105,8.70047 1.14822,-12.43262 2.30209,23.6172 1.14822,-3.73215 L 69.90576,166 73.35607,131.21014 Z m 56.58741,0 3.45031,32.30574 1.14823,-17.40093 1.15104,6.21634 1.15105,-6.21634 2.29927,14.9168 1.15104,-19.88505 3.45032,26.10132 1.14822,-33.55376 1.15105,4.96825 1.15104,-4.96825 1.14823,23.60528 V 134.93037 L 94.2893,166 l 1.14822,-19.88505 1.15104,7.46437 1.15105,-3.73215 3.45032,18.63702 1.15103,-17.38904 1.14824,8.68858 1.15104,-7.45244 2.29927,11.18459 1.15104,-17.40093 2.29927,17.40093 1.15104,-29.82162 1.15105,13.66872 1.14822,-7.45245 1.15106,3.72029 1.15103,-6.20441 2.29928,18.63703 1.15104,-19.88505 1.14823,8.70047 1.15104,-12.43262 2.29927,23.6172 1.15104,-3.73215 1.15105,13.66871 3.45032,-34.78986 z m 56.35608,0 3.45031,32.30574 1.15105,-17.40093 1.14822,6.21634 1.15104,-6.21634 2.29927,14.9168 1.15105,-19.88505 3.45032,26.10132 1.15103,-33.55376 1.14823,4.96825 1.15105,-4.96825 1.15104,23.60528 V 134.93037 L 150.64537,166 l 1.15105,-19.88505 1.14822,7.46437 1.15104,-3.73215 3.45031,18.63702 1.15105,-17.38904 1.14823,8.68858 1.15105,-7.45244 2.29926,11.18459 1.15105,-17.40093 2.29927,17.40093 1.15104,-29.82162 1.15104,13.66872 1.15105,-7.45245 1.14822,3.72029 1.15106,-6.20441 2.29925,18.63703 1.15106,-19.88505 1.15103,8.70047 1.14824,-12.43262 2.30209,23.6172 1.14822,-3.73215 1.15104,13.66871 3.45031,-34.78986 z m 56.5874,0 3.45032,32.30574 1.14822,-17.40093 1.15105,6.21634 1.15104,-6.21634 2.29927,14.9168 1.15105,-19.88505 3.45032,26.10132 1.14822,-33.55376 1.15103,4.96825 1.15106,-4.96825 1.14822,23.60528 V 134.93037 L 207.23278,166 l 1.14822,-19.88505 1.15105,7.46437 1.15104,-3.73215 3.45033,18.63702 1.14822,-17.38904 1.15104,8.68858 1.15105,-7.45244 2.29926,11.18459 1.15105,-17.40093 2.29927,17.40093 1.15104,-29.82162 1.15105,13.66872 1.14822,-7.45245 1.15104,3.72029 1.15105,-6.20441 2.29928,18.63703 1.15104,-19.88505 1.14822,8.70047 1.15105,-12.43262 2.29926,23.6172 1.15105,-3.73215 1.15104,13.66871 3.45033,-34.78986 z"
       id="path911"
       inkscape:connector-curvature="0" />
  </g>
  <g
     inkscape:groupmode="layer"
     id="layer5"
     inkscape:label="ffmpeg"
     style="display:none">
    <path
       style="color:#000000;font-style:normal;font-variant:normal;font-weight:normal;font-stretch:normal;font-size:medium;line-height:normal;font-family:sans-serif;font-variant-ligatures:normal;font-variant-position:normal;font-variant-caps:normal;font-variant-numeric:normal;font-variant-alternates:normal;font-feature-settings:normal;text-indent:0;text-align:start;text-decoration:none;text-decoration-line:none;text-decoration-style:solid;text-decoration-color:#000000;letter-spacing:normal;word-spacing:normal;text-transform:none;writing-mode:lr-tb;direction:ltr;text-orientation:mixed;dominant-baseline:auto;baseline-shift:baseline;text-anchor:start;white-space:normal;shape-padding:0;clip-rule:nonzero;display:inline;overflow:visible;visibility:visible;opacity:1;isolation:auto;mix-blend-mode:normal;color-interpolation:sRGB;color-interpolation-filters:linearRGB;solid-color:#000000;solid-opacity:1;vector-effect:none;fill:#73d216;fill-opacity:1;fill-rule:nonzero;stroke:#4e9a06;stroke-width:6.26205349;stroke-linecap:round;stroke-linejoin:round;stroke-miterlimit:4;stroke-dasharray:none;stroke-dashoffset:0;stroke-opacity:1;color-rendering:auto;image-rendering:auto;shape-rendering:auto;text-rendering:auto;enable-background:accumulate"
       d="M 46.21789,49.048811 V 50 H 94 L 47.113323,96.8867 v 58.41606 L 152.41607,50 h 50.99422 L 51.220872,206.94535 h 53.636008 l 99.20177,-99.20181 v 55.72603 l -43.4758,43.47578 h 44.67958 l -1.69245,-0.9512 h -40.69089 l 42.13076,-42.13076 V 105.44734 L 104.46303,205.99415 H 53.468798 L 205.65821,49.048811 H 152.0222 L 48.064507,153.00653 V 97.28055 L 96.2962,49.048811 Z"
       id="path4593"
       inkscape:connector-curvature="0"
       sodipodi:nodetypes="ccccccccccccccccccccccccc" />
  </g>
  <g
     inkscape:groupmode="layer"
     id="layer7"
     inkscape:label="freccie"
     style="display:inline" />
</svg>
