<?xml version="1.0" encoding="UTF-8" standalone="no"?>
<!-- Created with Inkscape (http://www.inkscape.org/) -->

<svg
   xmlns:osb="http://www.openswatchbook.org/uri/2009/osb"
   xmlns:dc="http://purl.org/dc/elements/1.1/"
   xmlns:cc="http://creativecommons.org/ns#"
   xmlns:rdf="http://www.w3.org/1999/02/22-rdf-syntax-ns#"
   xmlns:svg="http://www.w3.org/2000/svg"
   xmlns="http://www.w3.org/2000/svg"
   xmlns:xlink="http://www.w3.org/1999/xlink"
   xmlns:sodipodi="http://sodipodi.sourceforge.net/DTD/sodipodi-0.dtd"
   xmlns:inkscape="http://www.inkscape.org/namespaces/inkscape"
   width="256px"
   height="256px"
   viewBox="0 0 256 256"
   version="1.1"
   id="SVGRoot"
   sodipodi:docname="videomass_wizard.svg"
   inkscape:version="0.92.4 (5da689c313, 2019-01-14)"
   enable-background="new">
  <sodipodi:namedview
     id="base"
     pagecolor="#ffffff"
     bordercolor="#666666"
     borderopacity="1.0"
     inkscape:pageopacity="0.0"
     inkscape:pageshadow="2"
     inkscape:zoom="2.32"
     inkscape:cx="179.58655"
     inkscape:cy="130.4451"
     inkscape:document-units="px"
     inkscape:current-layer="layer1"
     showgrid="true"
     inkscape:window-width="1920"
     inkscape:window-height="1015"
     inkscape:window-x="0"
     inkscape:window-y="0"
     inkscape:window-maximized="1"
     inkscape:grid-bbox="true"
     inkscape:measure-start="110,130"
     inkscape:measure-end="0,0"
     showguides="true">
    <inkscape:grid
       type="xygrid"
       id="grid5114" />
  </sodipodi:namedview>
  <defs
     id="defs4485">
    <linearGradient
       inkscape:collect="always"
       id="linearGradient939">
      <stop
         style="stop-color:#c4c5c2;stop-opacity:1;"
         offset="0"
         id="stop935" />
      <stop
         style="stop-color:#c4c5c2;stop-opacity:0;"
         offset="1"
         id="stop937" />
    </linearGradient>
    <linearGradient
       inkscape:collect="always"
       id="linearGradient1141">
      <stop
         style="stop-color:#2b0000;stop-opacity:1;"
         offset="0"
         id="stop1137" />
      <stop
         style="stop-color:#290000;stop-opacity:0.03308824"
         offset="1"
         id="stop1139" />
    </linearGradient>
    <inkscape:path-effect
       effect="bspline"
       id="path-effect4551"
       is_visible="true"
       weight="33.333333"
       steps="2"
       helper_size="0"
       apply_no_weight="true"
       apply_with_weight="true"
       only_selected="false" />
    <inkscape:path-effect
       effect="skeletal"
       id="path-effect4547"
       is_visible="true"
       pattern="M 0,5 C 0,2.24 2.24,0 5,0 7.76,0 10,2.24 10,5 10,7.76 7.76,10 5,10 2.24,10 0,7.76 0,5 Z"
       copytype="single_stretched"
       prop_scale="1"
       scale_y_rel="false"
       spacing="0"
       normal_offset="0"
       tang_offset="0"
       prop_units="false"
       vertical_pattern="false"
       fuse_tolerance="0" />
    <inkscape:path-effect
       effect="bspline"
       id="path-effect4545"
       is_visible="true"
       weight="33.333333"
       steps="2"
       helper_size="0"
       apply_no_weight="true"
       apply_with_weight="true"
       only_selected="false" />
    <inkscape:path-effect
       effect="skeletal"
       id="path-effect4541"
       is_visible="true"
       pattern="M 0,5 C 0,2.24 2.24,0 5,0 7.76,0 10,2.24 10,5 10,7.76 7.76,10 5,10 2.24,10 0,7.76 0,5 Z"
       copytype="single_stretched"
       prop_scale="1"
       scale_y_rel="false"
       spacing="0"
       normal_offset="0"
       tang_offset="0"
       prop_units="false"
       vertical_pattern="false"
       fuse_tolerance="0" />
    <inkscape:path-effect
       effect="spiro"
       id="path-effect4539"
       is_visible="true" />
    <inkscape:path-effect
       effect="bspline"
       id="path-effect4535"
       is_visible="true"
       weight="33.333333"
       steps="2"
       helper_size="0"
       apply_no_weight="true"
       apply_with_weight="true"
       only_selected="false" />
    <inkscape:path-effect
       effect="skeletal"
       id="path-effect4531"
       is_visible="true"
       pattern="M 0,5 C 0,2.24 2.24,0 5,0 7.76,0 10,2.24 10,5 10,7.76 7.76,10 5,10 2.24,10 0,7.76 0,5 Z"
       copytype="single_stretched"
       prop_scale="1"
       scale_y_rel="false"
       spacing="0"
       normal_offset="0"
       tang_offset="0"
       prop_units="false"
       vertical_pattern="false"
       fuse_tolerance="0" />
    <inkscape:path-effect
       effect="bspline"
       id="path-effect4529"
       is_visible="true"
       weight="33.333333"
       steps="2"
       helper_size="0"
       apply_no_weight="true"
       apply_with_weight="true"
       only_selected="false" />
    <inkscape:path-effect
       effect="skeletal"
       id="path-effect4525"
       is_visible="true"
       pattern="M 0,5 C 0,2.24 2.24,0 5,0 7.76,0 10,2.24 10,5 10,7.76 7.76,10 5,10 2.24,10 0,7.76 0,5 Z"
       copytype="single_stretched"
       prop_scale="1"
       scale_y_rel="false"
       spacing="0"
       normal_offset="0"
       tang_offset="0"
       prop_units="false"
       vertical_pattern="false"
       fuse_tolerance="0" />
    <inkscape:path-effect
       effect="bspline"
       id="path-effect4523"
       is_visible="true"
       weight="33.333333"
       steps="2"
       helper_size="0"
       apply_no_weight="true"
       apply_with_weight="true"
       only_selected="false" />
    <inkscape:path-effect
       effect="bspline"
       id="path-effect4519"
       is_visible="true"
       weight="33.333333"
       steps="2"
       helper_size="0"
       apply_no_weight="true"
       apply_with_weight="true"
       only_selected="false" />
    <pattern
       inkscape:isstock="true"
       inkscape:stockid="Stripes 1:1"
       id="Strips1_1"
       patternTransform="translate(0,0) scale(10,10)"
       height="1"
       width="2"
       patternUnits="userSpaceOnUse"
       inkscape:collect="always">
      <rect
         id="rect5447"
         height="2"
         width="1"
         y="-0.5"
         x="0"
         style="fill:black;stroke:none" />
    </pattern>
    <linearGradient
       id="linearGradient4727"
       osb:paint="solid">
      <stop
         style="stop-color:#ce5c00;stop-opacity:1;"
         offset="0"
         id="stop4725" />
    </linearGradient>
    <pattern
       patternUnits="userSpaceOnUse"
       width="55"
       height="90"
       patternTransform="translate(-60,50.5)"
       id="pattern6214">
      <g
         style="fill:url(#Strips1_1);fill-opacity:1"
         transform="translate(-15,-28.5)"
         id="g4691">
        <rect
           style="opacity:0.81499999;fill:url(#Strips1_1);fill-opacity:1;stroke:none;stroke-width:4.52699995;stroke-linecap:round;stroke-linejoin:bevel;stroke-miterlimit:17.60000038;stroke-dasharray:none;stroke-dashoffset:0;stroke-opacity:1;paint-order:stroke fill markers"
           id="rect4683"
           width="30"
           height="30"
           x="40"
           y="59"
           ry="7.9000001" />
        <path
           inkscape:connector-curvature="0"
           style="opacity:0.81499999;fill:url(#Strips1_1);fill-opacity:1;stroke:none;stroke-width:8.60130024;stroke-linecap:round;stroke-linejoin:bevel;stroke-miterlimit:17.60000038;stroke-dasharray:none;stroke-dashoffset:0;stroke-opacity:1;paint-order:stroke fill markers"
           d="m 15,28.5 v 90 l 45,-45 z"
           id="path4687" />
      </g>
    </pattern>
    <linearGradient
       inkscape:collect="always"
       xlink:href="#linearGradient1141"
       id="linearGradient1143"
       x1="-382"
       y1="266"
       x2="-57"
       y2="21"
       gradientUnits="userSpaceOnUse"
       gradientTransform="translate(312)" />
    <linearGradient
       inkscape:collect="always"
       xlink:href="#linearGradient939"
       id="linearGradient860"
       gradientUnits="userSpaceOnUse"
       x1="95"
       y1="191"
       x2="155"
       y2="91" />
  </defs>
  <metadata
     id="metadata4488">
    <rdf:RDF>
      <cc:Work
         rdf:about="">
        <dc:format>image/svg+xml</dc:format>
        <dc:type
           rdf:resource="http://purl.org/dc/dcmitype/StillImage" />
        <dc:title></dc:title>
      </cc:Work>
    </rdf:RDF>
  </metadata>
  <g
     inkscape:groupmode="layer"
     id="layer3"
     inkscape:label="background_1"
     style="display:inline">
    <rect
       style="display:inline;opacity:1;fill:#eeeeec;fill-opacity:1;stroke:none;stroke-width:2.40400004;stroke-linecap:round;stroke-linejoin:bevel;stroke-miterlimit:17.60000038;stroke-dasharray:none;stroke-dashoffset:0;stroke-opacity:0.97647059;paint-order:stroke fill markers"
       id="rect4568-3"
       width="222.07193"
       height="222.07193"
       x="16.675457"
       y="18"
       ry="22.6604" />
  </g>
  <g
     inkscape:groupmode="layer"
     id="g858"
     inkscape:label="background_2"
     style="display:inline">
    <rect
       style="display:inline;opacity:1;fill:url(#linearGradient860);fill-opacity:1;stroke:none;stroke-width:7.00387716;stroke-linecap:round;stroke-linejoin:bevel;stroke-miterlimit:17.60000038;stroke-dasharray:none;stroke-dashoffset:0;stroke-opacity:0.97647059;paint-order:stroke fill markers"
       id="rect852"
       width="222.07193"
       height="222.07193"
       x="16.675461"
       y="18"
       ry="22.6604" />
  </g>
  <g
     style="display:inline"
     inkscape:label="film-strip"
     id="g4738"
     inkscape:groupmode="layer">
    <path
       style="display:inline;opacity:1;fill:url(#linearGradient1143);fill-opacity:1;stroke:none;stroke-width:7.00387716;stroke-linecap:round;stroke-linejoin:bevel;stroke-miterlimit:17.60000038;stroke-dasharray:none;stroke-dashoffset:0;stroke-opacity:0.97647059;paint-order:stroke fill markers"
       d="M 182.91602,18 16.67578,186.05469 v 31.35742 c 0,12.55386 10.1063,22.66016 22.66016,22.66016 H 68.59961 L 238.74805,68.068359 V 40.660156 C 238.74805,28.106294 228.64175,18 216.08789,18 Z"
       id="rect1130"
       inkscape:connector-curvature="0" />
    <path
       style="display:inline;opacity:1;fill:#280b0b;fill-opacity:1;stroke:none;stroke-width:7.00387716;stroke-linecap:round;stroke-linejoin:bevel;stroke-miterlimit:17.60000038;stroke-dasharray:none;stroke-dashoffset:0;stroke-opacity:0.97647059;paint-order:stroke fill markers"
       d="M 148.61133,18 16.67578,149.93555 v 8.28906 l 0.9082,-0.9082 c 1.03713,-1.03713 2.76617,-0.97799 3.87696,0.13281 l 9.02344,9.02344 c 1.11079,1.11079 1.16994,2.83982 0.13281,3.87695 l -5.61524,5.61719 c -1.03714,1.03714 -2.76617,0.97602 -3.87695,-0.13477 l -4.44922,-4.44922 v 9.63477 c 0.70713,1.00224 0.7098,2.30504 0,3.22461 v 8.11914 l 12.25781,-12.25781 c 3.6256,-3.6256 9.66965,-3.41824 13.55274,0.46484 l 31.54297,31.54297 c 3.88309,3.88309 4.09044,9.92713 0.46484,13.55273 l -14.4082,14.40821 h 7.67773 l 2.14649,-2.14649 c 1.03712,-1.03712 2.76616,-0.97602 3.87695,0.13477 l 2.01172,2.01172 h 9.56445 l -6.79297,-6.79493 c -1.11079,-1.11079 -1.1719,-2.83981 -0.13476,-3.87695 l 5.61718,-5.61719 c 1.03713,-1.03713 2.76616,-0.97603 3.87696,0.13477 l 9.02148,9.02344 c 1.11079,1.11079 1.1719,2.83787 0.13477,3.875 l -3.25586,3.25586 h 9.48633 L 238.74805,104.64062 v -9.542964 c -0.0749,0.10224 -0.14801,0.206605 -0.24024,0.298828 l -5.61718,5.615236 c -1.03714,1.03713 -2.76617,0.97798 -3.87696,-0.13281 l -9.02148,-9.023441 c -1.1108,-1.110794 -1.1719,-2.83982 -0.13477,-3.876953 l 5.61719,-5.615235 c 1.03713,-1.037133 2.76616,-0.977981 3.87695,0.132813 l 9.02149,9.023437 c 0.14279,0.142793 0.26702,0.296597 0.375,0.457031 v -9.648437 l -4.61524,-4.613281 C 233.02202,76.60405 232.96287,74.875024 234,73.837891 l 4.74805,-4.748047 v -7.679688 l -15.59571,15.595703 c -3.62559,3.625594 -9.66965,3.418241 -13.55273,-0.464843 L 178.05664,45 C 174.17356,41.116916 173.9662,35.070907 177.5918,31.445312 L 191.03906,18 h -8.07226 l -2.40235,2.402344 c -1.03713,1.037132 -2.76616,0.976021 -3.87695,-0.134766 L 174.41992,18 h -9.5664 l 7.05273,7.050781 c 1.11079,1.110787 1.16995,2.839821 0.13281,3.876953 l -5.61718,5.617188 c -1.03714,1.037133 -2.76617,0.976021 -3.87696,-0.134766 l -9.02148,-9.021484 c -1.11079,-1.110794 -1.1719,-2.839821 -0.13477,-3.876953 L 156.90039,18 Z m 67.89844,0.0098 22.22851,22.228515 C 238.5166,28.022437 228.72552,18.231813 216.50977,18.009766 Z m -69.73438,11.289062 c 0.70068,0.02428 1.40945,0.315697 1.96484,0.871094 l 9.02344,9.023437 c 1.11079,1.110787 1.16994,2.83982 0.13281,3.876953 l -5.61523,5.617188 c -1.03714,1.037132 -2.76617,0.976021 -3.87695,-0.134766 l -9.02344,-9.023437 c -1.11079,-1.110794 -1.16994,-2.837867 -0.13281,-3.875 l 5.61523,-5.617188 c 0.51857,-0.518566 1.21144,-0.762565 1.91211,-0.738281 z m -14.14258,14.140625 c 0.70068,0.02428 1.40945,0.31765 1.96485,0.873047 l 9.02343,9.023438 c 1.11078,1.110787 1.17191,2.839821 0.13477,3.876953 l -5.61719,5.615234 c -1.03713,1.037133 -2.76616,0.977975 -3.87695,-0.132813 l -9.02344,-9.023437 c -1.1108,-1.110794 -1.16994,-2.839821 -0.13281,-3.876953 l 5.61719,-5.615234 c 0.51856,-0.518567 1.20948,-0.764519 1.91015,-0.740235 z m 30.25977,6.802735 c 2.44952,0.08417 4.9315,1.105333 6.87305,3.046874 l 31.54296,31.542969 c 3.88309,3.883084 4.09044,9.92714 0.46485,13.552735 l -19.63281,19.63281 c -3.6256,3.6256 -9.67161,3.41824 -13.55469,-0.46485 L 137.04492,86.011719 c -3.88308,-3.883084 -4.09043,-9.929094 -0.46484,-13.554688 l 19.63281,-19.632812 c 1.8128,-1.812798 4.23017,-2.6662 6.67969,-2.582031 z m -44.40235,7.339843 c 0.70068,0.02428 1.41141,0.31765 1.9668,0.873047 l 9.02149,9.021484 c 1.11079,1.110788 1.17189,2.839821 0.13476,3.876954 l -5.61719,5.617187 c -1.03714,1.037135 -2.76616,0.977975 -3.87695,-0.132812 l -9.02148,-9.023438 c -1.11079,-1.110794 -1.1719,-2.839819 -0.13477,-3.876953 l 5.61719,-5.617188 c 0.51856,-0.518565 1.20948,-0.762564 1.91015,-0.738281 z m -14.14257,14.142578 c 0.70067,0.02428 1.4114,0.31765 1.96679,0.873047 l 9.02149,9.021485 c 1.11078,1.110787 1.17188,2.839825 0.13476,3.876953 l -5.61718,5.617187 c -1.03713,1.037135 -2.76617,0.976022 -3.87696,-0.134765 l -9.02148,-9.021485 c -1.1108,-1.110794 -1.1719,-2.839818 -0.13477,-3.876953 l 5.61719,-5.617187 c 0.51855,-0.518557 1.20948,-0.762564 1.91016,-0.738282 z M 90.20703,85.867222 c 0.70067,0.02428 1.40945,0.317649 1.96485,0.873046 l 9.02343,9.021485 c 1.11079,1.110787 1.16994,2.839825 0.13281,3.876953 l -5.61718,5.617184 c -1.03714,1.03714 -2.76421,0.97602 -3.875,-0.13477 L 82.8125,96.099643 C 81.70171,94.988849 81.64255,93.259825 82.67969,92.22269 l 5.61523,-5.617187 c 0.51857,-0.518564 1.21144,-0.762565 1.91211,-0.738281 z m 30.25977,6.800781 c 2.44952,0.08417 4.9315,1.107286 6.87304,3.048828 l 31.54297,31.541009 c 3.88308,3.88308 4.09044,9.92714 0.46485,13.55274 l -19.63282,19.63281 c -3.6256,3.6256 -9.6716,3.4202 -13.55468,-0.46289 L 94.61719,128.43753 C 90.7341,124.55445 90.5287,118.5104 94.1543,114.8848 L 113.78711,95.25 c 1.81279,-1.812799 4.23017,-2.6662 6.67969,-2.582031 z m 92.77539,3.097656 c 0.70067,0.02428 1.4114,0.31765 1.96679,0.873047 l 9.02149,9.023434 c 1.11079,1.11079 1.1719,2.83787 0.13476,3.875 l -5.61718,5.61719 c -1.03714,1.03713 -2.76617,0.97796 -3.87696,-0.13282 l -9.02148,-9.02343 c -1.11079,-1.11079 -1.1719,-2.83982 -0.13477,-3.87696 l 5.61719,-5.61718 c 0.51857,-0.518566 1.20948,-0.762565 1.91016,-0.738281 z M 76.06445,100.0098 c 0.70068,0.0243 1.40945,0.31569 1.96485,0.87109 l 9.02343,9.02344 c 1.11078,1.11079 1.16995,2.83982 0.13282,3.87695 l -5.61524,5.61523 c -1.03713,1.03713 -2.76617,0.97797 -3.87695,-0.13281 l -9.02344,-9.02344 c -1.11079,-1.11079 -1.16994,-2.83981 -0.13281,-3.87695 l 5.61719,-5.61523 c 0.51856,-0.51857 1.20948,-0.762564 1.91015,-0.73828 z m 123.03711,9.89843 c 0.70068,0.0243 1.40945,0.31765 1.96485,0.87305 l 9.02343,9.02148 c 1.11079,1.11079 1.16995,2.83983 0.13282,3.87696 l -5.61719,5.61719 c -1.03713,1.03712 -2.76421,0.97602 -3.875,-0.13477 l -9.02344,-9.02149 c -1.11079,-1.11078 -1.1719,-2.83982 -0.13476,-3.87695 l 5.61718,-5.61719 c 0.51857,-0.51857 1.21144,-0.76256 1.91211,-0.73828 z m -137.17968,4.24219 c 0.70067,0.0243 1.41139,0.31765 1.96679,0.87305 l 9.02149,9.02344 c 1.11079,1.11078 1.17189,2.83786 0.13476,3.875 l -5.61719,5.61718 c -1.03714,1.03714 -2.76616,0.97798 -3.87695,-0.13281 l -9.02148,-9.02344 c -1.11079,-1.11079 -1.17191,-2.83982 -0.13477,-3.87695 l 5.61719,-5.61719 c 0.51856,-0.51856 1.20948,-0.76256 1.91016,-0.73828 z m 123.0371,9.90039 c 0.70068,0.0243 1.40945,0.31765 1.96485,0.87305 l 9.02344,9.02148 c 1.11078,1.11079 1.16994,2.83983 0.13281,3.87696 l -5.61524,5.61718 c -1.03713,1.03713 -2.76616,0.97603 -3.87695,-0.13476 l -9.02344,-9.02149 c -1.11079,-1.1108 -1.16994,-2.83981 -0.13281,-3.87695 l 5.61524,-5.61719 c 0.51856,-0.51856 1.21143,-0.76256 1.9121,-0.73828 z M 47.7793,128.293 c 0.70067,0.0243 1.4114,0.31765 1.96679,0.87305 l 9.02149,9.02148 c 1.11079,1.11079 1.17189,2.83982 0.13476,3.87695 l -5.61718,5.61719 c -1.03714,1.03714 -2.76618,0.97603 -3.87696,-0.13476 l -9.02148,-9.02149 c -1.11079,-1.1108 -1.1719,-2.83981 -0.13477,-3.87695 l 5.61719,-5.61719 c 0.51856,-0.51856 1.20948,-0.76256 1.91016,-0.73828 z m 30.26172,6.80078 c 2.44952,0.0842 4.9315,1.10728 6.87304,3.04883 l 31.54102,31.54297 c 3.88309,3.88308 4.0924,9.92518 0.4668,13.55078 l -19.63477,19.63476 c -3.6256,3.6256 -9.66966,3.41824 -13.55273,-0.46484 L 52.19141,170.86526 c -3.88308,-3.88308 -4.08849,-9.92908 -0.46289,-13.55468 l 19.63281,-19.63282 c 1.8128,-1.8128 4.23017,-2.66815 6.67969,-2.58398 z m 92.77539,3.09961 c 0.70067,0.0243 1.4114,0.3157 1.96679,0.87109 l 9.02149,9.02344 c 1.11079,1.11078 1.17188,2.83983 0.13476,3.87695 l -5.61718,5.61719 c -1.03714,1.03713 -2.76617,0.97603 -3.87696,-0.13476 l -9.02343,-9.02344 c -1.11079,-1.11079 -1.16995,-2.83787 -0.13282,-3.875 l 5.61719,-5.61719 c 0.51856,-0.51856 1.20948,-0.76256 1.91016,-0.73828 z m -137.17969,4.24219 c 0.70067,0.0243 1.4114,0.31765 1.9668,0.87304 l 9.02343,9.02149 c 1.11079,1.11078 1.16995,2.83982 0.13282,3.87695 l -5.61719,5.61719 c -1.03713,1.03713 -2.76421,0.97602 -3.875,-0.13477 L 26.24414,152.668 c -1.1108,-1.11079 -1.1719,-2.83982 -0.13476,-3.87695 l 5.61718,-5.61719 c 0.51857,-0.51856 1.20949,-0.76257 1.91016,-0.73828 z m 123.03711,9.89843 c 0.70067,0.0243 1.41139,0.31765 1.96679,0.87305 l 9.02149,9.02344 c 1.11079,1.11079 1.17189,2.83982 0.13477,3.87695 l -5.61719,5.61524 c -1.03713,1.03714 -2.76617,0.97797 -3.87696,-0.13282 l -9.02148,-9.02343 c -1.1108,-1.1108 -1.17191,-2.83982 -0.13477,-3.87696 l 5.61719,-5.61523 c 0.51857,-0.51857 1.20948,-0.76452 1.91016,-0.74024 z m -14.14258,14.14258 c 0.70067,0.0243 1.4114,0.31765 1.9668,0.87305 l 9.02343,9.02148 c 1.11079,1.11078 1.16995,2.83984 0.13282,3.87696 l -5.61719,5.61718 c -1.03714,1.03713 -2.76616,0.97797 -3.87695,-0.13281 l -9.02149,-9.02344 c -1.11079,-1.11079 -1.17189,-2.83982 -0.13476,-3.87695 l 5.61718,-5.61719 c 0.51857,-0.51856 1.20949,-0.76256 1.91016,-0.73828 z m -14.14063,14.14258 c 0.70068,0.0243 1.40945,0.31765 1.96485,0.87305 l 9.02344,9.02148 c 1.11078,1.11079 1.16993,2.83983 0.13281,3.87695 l -5.61524,5.61719 c -1.03713,1.03714 -2.76616,0.97603 -3.87695,-0.13476 l -9.02344,-9.02149 c -1.1108,-1.1108 -1.16995,-2.83981 -0.13281,-3.87695 l 5.61524,-5.61719 c 0.51856,-0.51856 1.21143,-0.76256 1.9121,-0.73828 z m -14.14257,14.14258 c 0.70067,0.0243 1.40945,0.3157 1.96484,0.87109 l 9.02344,9.02344 c 1.11079,1.11078 1.17189,2.83983 0.13476,3.87695 l -5.61718,5.61719 c -1.03714,1.03713 -2.76617,0.97601 -3.87696,-0.13477 l -9.02343,-9.02148 c -1.11079,-1.11079 -1.16996,-2.83982 -0.13282,-3.87695 l 5.61719,-5.61719 c 0.51857,-0.51856 1.20948,-0.76256 1.91016,-0.73828 z m -14.14258,14.14258 c 0.70067,0.0243 1.4114,0.3157 1.9668,0.87109 l 9.02148,9.02344 c 1.11078,1.11079 1.17189,2.83982 0.13477,3.87695 l -5.61719,5.61524 c -1.03713,1.03714 -2.76616,0.97797 -3.87695,-0.13282 l -9.02149,-9.02343 c -1.1108,-1.11079 -1.17189,-2.83983 -0.13477,-3.87696 l 5.61719,-5.61523 c 0.51857,-0.51857 1.20949,-0.76257 1.91016,-0.73828 z m -83.22852,11.49804 c 1.32827,10.15042 9.31807,18.14133 19.46875,19.46875 z"
       id="rect976"
       inkscape:connector-curvature="0" />
  </g>
  <g
     inkscape:groupmode="layer"
     id="layer2"
     inkscape:label="audio-wave"
     style="display:inline">
    <path
       style="display:inline;opacity:1;fill:#73d216;fill-opacity:1;stroke:#000000;stroke-width:0.261;stroke-linecap:butt;stroke-linejoin:miter;stroke-miterlimit:4;stroke-dasharray:none;stroke-opacity:1"
       d="M 60.257333,72.294084 57.509653,100.10229 56.593005,94.537508 55.678611,105.66316 54.761964,76 52.930931,122.34572 V 88.976659 l -0.916648,35.224001 -0.916639,-7.4158 -0.914402,7.4158 -0.916639,-50.055592 -2.747689,38.933862 -0.916639,-29.663139 -1.831042,22.247369 -0.916647,-9.270725 -0.914394,9.270725 -0.916648,-25.957244 -2.74768,48.204604 H 83.155451 L 80.40777,76 79.491122,96.392435 78.576728,90.83157 l -1.833287,35.22402 -0.914393,-18.5375 -0.916648,12.97662 -0.916639,-29.66314 -1.831041,27.80821 -0.916648,-9.27071 -0.914394,5.56481 -0.916647,-11.12566 -0.916639,20.39244 -0.914403,-44.494744 -1.833286,25.957244 -0.914394,-25.957244 -1.833287,16.686519 -0.914401,-11.121713 -0.91664,12.976655 z m 45.063837,0 -2.74769,27.808206 -0.91664,-5.564782 L 100.7402,105.66316 99.825796,76 97.992501,122.34572 V 88.976659 l -0.914402,35.224001 -0.91664,-7.4158 -0.916647,7.4158 L 94.330419,74.145068 91.58273,113.07893 90.66609,83.415791 88.835049,105.66316 87.918402,96.392435 87.001762,105.66316 86.08736,79.705916 83.33968,127.91052 h 44.87961 L 125.4716,76 l -0.91664,20.392435 -0.91665,-5.560865 -1.83104,35.22402 -0.91663,-18.5375 -0.91441,12.97662 -0.91664,-29.66314 -1.83105,27.80821 -0.91663,-9.27071 -0.91665,5.56481 -0.9144,-11.12566 -0.91664,20.39244 -0.91665,-44.494744 -1.83103,25.957244 -0.91664,-25.957244 -1.83105,16.686519 -0.91664,-11.121713 -0.91441,12.976655 z m 22.89812,55.616436 h 44.87958 L 170.35119,76 l -0.91664,20.392435 -0.91439,-5.560865 -1.83329,35.22402 -0.91441,-18.5375 -0.91664,12.97662 -0.91665,-29.66314 -1.83102,27.80821 -0.91666,-9.27071 -0.9144,5.56481 -0.91664,-11.12566 -0.91664,20.39244 -0.91664,-44.494744 -1.83104,25.957244 -0.91665,-25.957244 -1.83103,16.686519 -0.91665,-11.121713 -0.9144,12.976655 -0.91665,-25.953293 -2.74768,27.808206 -0.91664,-5.564782 -0.9144,11.125652 L 144.70539,76 142.87435,122.34572 V 88.976659 l -0.91664,35.224001 -0.91665,-7.4158 -0.9144,7.4158 -0.91663,-50.055592 -2.74769,38.933862 -0.91665,-29.663139 -1.83104,22.247369 -0.91664,-9.270725 -0.91439,9.270725 -0.91665,-25.957244 z M 195.26458,72.294084 192.51689,100.10229 191.60025,94.537508 190.6836,105.66316 189.7692,76 187.93592,122.34572 V 88.976659 l -0.9144,35.224001 -0.91665,-7.4158 -0.91664,7.4158 -0.91438,-50.055592 -2.7477,38.933862 -0.91664,-29.663139 -1.83104,22.247369 -0.91664,-9.270725 -0.91665,9.270725 -0.9144,-25.957244 -2.74768,48.204604 h 44.8796 L 215.415,76 l -0.91664,20.392435 -0.91664,-5.560865 -1.83104,35.22402 -0.91665,-18.5375 -0.91439,12.97662 -0.91663,-29.66314 -1.83106,27.80821 -0.91664,-9.27071 -0.91665,5.56481 -0.91439,-11.12566 -0.91664,20.39244 -0.91664,-44.494744 -1.83105,25.957244 -0.91665,-25.957244 -1.83102,16.686519 -0.91665,-11.121713 -0.91664,12.976655 z m -156.988716,55.762456 2.74768,48.20461 0.916648,-25.95725 0.914394,9.27075 0.916647,-9.27075 1.831042,22.24739 0.916639,-29.66317 2.747689,38.93388 0.916639,-50.05557 0.914402,7.41578 0.916639,-7.41578 0.916648,35.22401 v -33.3691 l 1.831033,46.34572 0.916647,-29.66316 0.914394,11.12565 0.916648,-5.56084 2.74768,27.80823 0.916648,-25.95724 0.91664,12.97664 0.914401,-11.12169 1.833287,16.6865 0.914394,-25.95725 1.833286,25.95725 0.914403,-44.49472 0.916639,20.39242 0.916647,-11.12171 0.914394,5.56085 0.916648,-9.27071 1.831041,27.80822 0.916639,-29.66315 0.916648,12.98058 0.914393,-18.54146 1.833287,35.22403 0.914394,-5.56085 0.916648,20.39241 2.747681,-51.91052 z m 45.063816,0 2.74768,48.20461 0.914402,-25.95725 0.91664,9.27075 0.916647,-9.27075 1.831041,22.24739 0.91664,-29.66317 2.747689,38.93388 0.914393,-50.05557 0.916647,7.41578 0.91664,-7.41578 0.914402,35.22401 v -33.3691 l 1.833295,46.34572 0.914404,-29.66316 0.91664,11.12565 0.91664,-5.56084 2.74769,27.80823 0.91663,-25.95724 0.91441,12.97664 0.91664,-11.12169 1.83105,16.6865 0.91664,-25.95725 1.83103,25.95725 0.91665,-44.49472 0.91664,20.39242 0.9144,-11.12171 0.91665,5.56085 0.91663,-9.27071 1.83105,27.80822 0.91664,-29.66315 0.91441,12.98058 0.91663,-18.54146 1.83104,35.22403 0.91665,-5.56085 0.91664,20.39241 2.74769,-51.91052 z m 44.87961,0 2.74768,48.20461 0.91665,-25.95725 0.91439,9.27075 0.91664,-9.27075 1.83104,22.24739 0.91665,-29.66317 2.74769,38.93388 0.91663,-50.05557 0.9144,7.41578 0.91665,-7.41578 0.91664,35.22401 v -33.3691 l 1.83104,46.34572 0.91664,-29.66316 0.9144,11.12565 0.91664,-5.56084 2.74768,27.80823 0.91665,-25.95724 0.9144,12.97664 0.91665,-11.12169 1.83103,16.6865 0.91665,-25.95725 1.83104,25.95725 0.91664,-44.49472 0.91664,20.39242 0.91664,-11.12171 0.9144,5.56085 0.91666,-9.27071 1.83102,27.80822 0.91665,-29.66315 0.91664,12.98058 0.91441,-18.54146 1.83329,35.22403 0.91439,-5.56085 0.91664,20.39241 2.74768,-51.91052 z m 45.06381,0 2.74768,48.20461 0.9144,-25.95725 0.91665,9.27075 0.91664,-9.27075 1.83104,22.24739 0.91664,-29.66317 2.7477,38.93388 0.91438,-50.05557 0.91664,7.41578 0.91665,-7.41578 0.9144,35.22401 v -33.3691 l 1.83328,46.34572 0.9144,-29.66316 0.91665,11.12565 0.91664,-5.56084 2.74769,27.80823 0.9144,-25.95724 0.91664,12.97664 0.91665,-11.12169 1.83102,16.6865 0.91665,-25.95725 1.83105,25.95725 0.91664,-44.49472 0.91664,20.39242 0.91439,-11.12171 0.91665,5.56085 0.91664,-9.27071 1.83106,27.80822 0.91663,-29.66315 0.91439,12.98058 0.91665,-18.54146 1.83104,35.22403 0.91664,-5.56085 0.91664,20.39241 2.7477,-51.91052 z"
       id="path895"
       inkscape:connector-curvature="0" />
    <path
       style="display:inline;opacity:1;fill:#ffffff;stroke:#000000;stroke-width:0.28328905;stroke-linecap:butt;stroke-linejoin:miter;stroke-miterlimit:4;stroke-dasharray:none;stroke-opacity:1"
       d="m 60.257333,104.4326 -2.74768,11.75933 -0.916648,-2.35485 -0.914394,4.70972 L 54.761964,106 52.930931,125.60389 V 111.4897 l -0.916648,14.89413 -0.916639,-3.13479 -0.914402,3.13479 -0.916639,-21.17129 -2.747689,16.46905 -0.916639,-12.54675 -1.831042,9.41196 -0.916647,-3.9223 -0.914394,3.9223 -0.916648,-10.9794 -2.74768,20.38386 H 83.155451 L 80.40777,106 l -0.916648,8.6245 -0.914394,-2.35486 -1.833287,14.90165 -0.914393,-7.84455 -0.916648,5.48969 -0.916639,-12.54679 -1.831041,11.76685 -0.916648,-3.9223 -0.914394,2.35486 -0.916647,-4.70972 -0.916639,8.6245 -0.914403,-18.81643 -1.833286,10.9794 -0.914394,-10.9794 -1.833287,7.0571 -0.914401,-4.70224 -0.91664,5.4897 z m 45.063837,0 -2.74769,11.75933 -0.91664,-2.35485 -0.91664,4.70972 L 99.825796,106 97.992501,125.60389 V 111.4897 l -0.914402,14.89413 -0.91664,-3.13479 -0.916647,3.13479 -0.914393,-21.17129 -2.747689,16.46905 -0.91664,-12.54675 -1.831041,9.41196 -0.916647,-3.9223 -0.91664,3.9223 -0.914402,-10.9794 -2.74768,20.38386 h 44.87961 L 125.4716,106 l -0.91664,8.6245 -0.91665,-2.35486 -1.83104,14.90165 -0.91663,-7.84455 -0.91441,5.48969 -0.91664,-12.54679 -1.83105,11.76685 -0.91663,-3.9223 -0.91665,2.35486 -0.9144,-4.70972 -0.91664,8.6245 -0.91665,-18.81643 -1.83103,10.9794 -0.91664,-10.9794 -1.83105,7.0571 -0.91664,-4.70224 -0.91441,5.4897 z m 22.89812,23.51866 h 44.87958 L 170.35119,106 l -0.91664,8.6245 -0.91439,-2.35486 -1.83329,14.90165 -0.91441,-7.84455 -0.91664,5.48969 -0.91665,-12.54679 -1.83102,11.76685 -0.91666,-3.9223 -0.9144,2.35486 -0.91664,-4.70972 -0.91664,8.6245 -0.91664,-18.81643 -1.83104,10.9794 -0.91665,-10.9794 -1.83103,7.0571 -0.91665,-4.70224 -0.9144,5.4897 -0.91665,-10.97936 -2.74768,11.75933 -0.91664,-2.35485 -0.9144,4.70972 L 144.70539,106 142.87435,125.60389 V 111.4897 l -0.91664,14.89413 -0.91665,-3.13479 -0.9144,3.13479 -0.91663,-21.17129 -2.74769,16.46905 -0.91665,-12.54675 -1.83104,9.41196 -0.91664,-3.9223 -0.91439,3.9223 -0.91665,-10.9794 z m 67.04529,-23.51866 -2.74769,11.75933 -0.91664,-2.35485 -0.91665,4.70972 L 189.7692,106 187.93592,125.60389 V 111.4897 l -0.9144,14.89413 -0.91665,-3.13479 -0.91664,3.13479 -0.91438,-21.17129 -2.7477,16.46905 -0.91664,-12.54675 -1.83104,9.41196 -0.91664,-3.9223 -0.91665,3.9223 -0.9144,-10.9794 -2.74768,20.38386 h 44.8796 L 215.415,106 l -0.91664,8.6245 -0.91664,-2.35486 -1.83104,14.90165 -0.91665,-7.84455 -0.91439,5.48969 -0.91663,-12.54679 -1.83106,11.76685 -0.91664,-3.9223 -0.91665,2.35486 -0.91439,-4.70972 -0.91664,8.6245 -0.91664,-18.81643 -1.83105,10.9794 -0.91665,-10.9794 -1.83102,7.0571 -0.91665,-4.70224 -0.91664,5.4897 z m -156.988716,23.58617 2.74768,20.38382 0.916648,-10.9794 0.914394,3.9223 0.916647,-3.9223 1.831042,9.412 0.916639,-12.5468 2.747689,16.46906 0.916639,-21.17128 0.914402,3.1348 0.916639,-3.1348 0.916648,14.89412 v -14.1142 l 1.831033,19.6039 0.916647,-12.5468 0.914394,4.70976 0.916648,-2.35485 2.74768,11.75933 0.916648,-10.97189 0.91664,5.4822 0.914401,-4.70225 1.833287,7.0571 0.914394,-10.9794 1.833286,10.9794 0.914403,-18.81642 0.916639,8.6245 0.916647,-4.70226 0.914394,2.34738 0.916648,-3.91478 1.831041,11.75935 0.916639,-12.54679 0.916648,5.48971 0.914393,-7.84457 1.833287,14.90165 0.914394,-2.35487 0.916648,8.6245 2.747681,-21.95122 z m 45.063816,0 2.74768,20.38382 0.914402,-10.9794 0.91664,3.9223 0.916647,-3.9223 1.831041,9.412 0.91664,-12.5468 2.747689,16.46906 0.914393,-21.17128 0.916647,3.1348 0.91664,-3.1348 0.914402,14.89412 v -14.1142 l 1.833295,19.6039 0.914404,-12.5468 0.91664,4.70976 0.91664,-2.35485 2.74769,11.75933 0.91663,-10.97189 0.91441,5.4822 0.91664,-4.70225 1.83105,7.0571 0.91664,-10.9794 1.83103,10.9794 0.91665,-18.81642 0.91664,8.6245 0.9144,-4.70226 0.91665,2.34738 0.91663,-3.91478 1.83105,11.75935 0.91664,-12.54679 0.91441,5.48971 0.91663,-7.84457 1.83104,14.90165 0.91665,-2.35487 0.91664,8.6245 2.74769,-21.95122 z m 44.87961,0 2.74768,20.38382 0.91665,-10.9794 0.91439,3.9223 0.91664,-3.9223 1.83104,9.412 0.91665,-12.5468 2.74769,16.46906 0.91663,-21.17128 0.9144,3.1348 0.91665,-3.1348 0.91664,14.89412 v -14.1142 l 1.83104,19.6039 0.91664,-12.5468 0.9144,4.70976 0.91664,-2.35485 2.74768,11.75933 0.91665,-10.97189 0.9144,5.4822 0.91665,-4.70225 1.83103,7.0571 0.91665,-10.9794 1.83104,10.9794 0.91664,-18.81642 0.91664,8.6245 0.91664,-4.70226 0.9144,2.34738 0.91666,-3.91478 1.83102,11.75935 0.91665,-12.54679 0.91664,5.48971 0.91441,-7.84457 1.83329,14.90165 0.91439,-2.35487 0.91664,8.6245 2.74768,-21.95122 z m 45.06381,0 2.74768,20.38382 0.9144,-10.9794 0.91665,3.9223 0.91664,-3.9223 1.83104,9.412 0.91664,-12.5468 2.7477,16.46906 0.91438,-21.17128 0.91664,3.1348 0.91665,-3.1348 0.9144,14.89412 v -14.1142 l 1.83328,19.6039 0.9144,-12.5468 0.91665,4.70976 0.91664,-2.35485 2.74769,11.75933 0.9144,-10.97189 0.91664,5.4822 0.91665,-4.70225 1.83102,7.0571 0.91665,-10.9794 1.83105,10.9794 0.91664,-18.81642 0.91664,8.6245 0.91439,-4.70226 0.91665,2.34738 0.91664,-3.91478 1.83106,11.75935 0.91663,-12.54679 0.91439,5.48971 0.91665,-7.84457 1.83104,14.90165 0.91664,-2.35487 0.91664,8.6245 2.7477,-21.95122 z"
       id="path911"
       inkscape:connector-curvature="0" />
  </g>
  <g
     inkscape:groupmode="layer"
     id="layer5"
     inkscape:label="ffmpeg"
     style="display:none">
    <path
       style="color:#000000;font-style:normal;font-variant:normal;font-weight:normal;font-stretch:normal;font-size:medium;line-height:normal;font-family:sans-serif;font-variant-ligatures:normal;font-variant-position:normal;font-variant-caps:normal;font-variant-numeric:normal;font-variant-alternates:normal;font-feature-settings:normal;text-indent:0;text-align:start;text-decoration:none;text-decoration-line:none;text-decoration-style:solid;text-decoration-color:#000000;letter-spacing:normal;word-spacing:normal;text-transform:none;writing-mode:lr-tb;direction:ltr;text-orientation:mixed;dominant-baseline:auto;baseline-shift:baseline;text-anchor:start;white-space:normal;shape-padding:0;clip-rule:nonzero;display:inline;overflow:visible;visibility:visible;opacity:1;isolation:auto;mix-blend-mode:normal;color-interpolation:sRGB;color-interpolation-filters:linearRGB;solid-color:#000000;solid-opacity:1;vector-effect:none;fill:#73d216;fill-opacity:1;fill-rule:nonzero;stroke:#4e9a06;stroke-width:6.26205349;stroke-linecap:round;stroke-linejoin:round;stroke-miterlimit:4;stroke-dasharray:none;stroke-dashoffset:0;stroke-opacity:1;color-rendering:auto;image-rendering:auto;shape-rendering:auto;text-rendering:auto;enable-background:accumulate"
       d="M 46.21789,49.048811 V 50 H 94 L 47.113323,96.8867 v 58.41606 L 152.41607,50 h 50.99422 L 51.220872,206.94535 h 53.636008 l 99.20177,-99.20181 v 55.72603 l -43.4758,43.47578 h 44.67958 l -1.69245,-0.9512 h -40.69089 l 42.13076,-42.13076 V 105.44734 L 104.46303,205.99415 H 53.468798 L 205.65821,49.048811 H 152.0222 L 48.064507,153.00653 V 97.28055 L 96.2962,49.048811 Z"
       id="path4593"
       inkscape:connector-curvature="0"
       sodipodi:nodetypes="ccccccccccccccccccccccccc" />
  </g>
  <g
     inkscape:groupmode="layer"
     id="layer1"
     inkscape:label="stars">
    <path
       sodipodi:type="star"
       style="display:inline;opacity:1;fill:#edd400;fill-opacity:1;fill-rule:nonzero;stroke:none;stroke-width:2.17420959;stroke-opacity:0.88627451"
       id="path858"
       sodipodi:sides="5"
       sodipodi:cx="37.435532"
       sodipodi:cy="105.43552"
       sodipodi:r1="15.373983"
       sodipodi:r2="7.6869917"
       sodipodi:arg1="0.78539816"
       sodipodi:arg2="1.4137167"
       inkscape:flatsided="false"
       inkscape:rounded="0"
       inkscape:randomized="0"
       d="m 48.30658,116.30656 -9.668538,-3.27869 -8.182153,6.10597 0.130483,-10.2085 -8.335545,-5.89484 9.749181,-3.030508 3.030503,-9.74918 5.894842,8.335545 10.208498,-0.130483 -6.105967,8.182156 z"
       inkscape:transform-center-x="0.74319231"
       inkscape:transform-center-y="-0.74319231" />
    <path
       sodipodi:type="star"
       style="display:inline;opacity:1;fill:#edd400;fill-opacity:1;fill-rule:nonzero;stroke:none;stroke-width:0.89680225;stroke-opacity:0.88627451"
       id="path864"
       sodipodi:sides="5"
       sodipodi:cx="86.484016"
       sodipodi:cy="57.484016"
       sodipodi:r1="12.682699"
       sodipodi:r2="6.3413496"
       sodipodi:arg1="0.78539816"
       sodipodi:arg2="1.4137167"
       inkscape:flatsided="false"
       inkscape:rounded="0"
       inkscape:randomized="0"
       d="m 95.452039,66.452039 -7.976017,-2.704746 -6.74983,5.037091 0.107641,-8.421455 -6.876371,-4.862924 8.042543,-2.5 2.5,-8.042543 4.862924,6.876371 8.421455,-0.107642 -5.037091,6.749831 z"
       inkscape:transform-center-x="0.6130932"
       inkscape:transform-center-y="-0.61309319" />
    <path
       inkscape:transform-center-y="-0.34182184"
       inkscape:transform-center-x="0.34182184"
       d="m 232.508,24.446918 -4.44693,-1.507994 -3.76327,2.808362 0.06,-4.695269 -3.83383,-2.711257 4.48402,-1.393842 1.39384,-4.484011 2.71125,3.833828 4.69527,-0.06001 L 231,19.999998 Z"
       inkscape:randomized="0"
       inkscape:rounded="0"
       inkscape:flatsided="false"
       sodipodi:arg2="1.4137167"
       sodipodi:arg1="0.78539816"
       sodipodi:r2="3.5355339"
       sodipodi:r1="7.0710678"
       sodipodi:cy="19.446918"
       sodipodi:cx="227.508"
       sodipodi:sides="5"
       id="path878"
       style="display:inline;opacity:1;fill:#edd400;fill-opacity:1;fill-rule:nonzero;stroke:none;stroke-width:0.5;stroke-opacity:0.88627451"
       sodipodi:type="star" />
    <path
       inkscape:transform-center-y="-1.0254655"
       inkscape:transform-center-x="1.0254655"
       d="M 39.500011,207.5 26.159249,202.97602 14.869419,211.4011 15.04946,197.3153 3.5479777,189.18152 17.000011,185 l 4.181524,-13.45203 8.133773,11.50148 14.085806,-0.18004 -8.425086,11.28983 z"
       inkscape:randomized="0"
       inkscape:rounded="0"
       inkscape:flatsided="false"
       sodipodi:arg2="1.4137167"
       sodipodi:arg1="0.78539816"
       sodipodi:r2="10.606602"
       sodipodi:r1="21.213203"
       sodipodi:cy="192.5"
       sodipodi:cx="24.500011"
       sodipodi:sides="5"
       id="path880"
       style="display:inline;opacity:1;fill:#edd400;fill-opacity:1;fill-rule:nonzero;stroke:none;stroke-width:3;stroke-opacity:0.88627451"
       sodipodi:type="star" />
    <path
       inkscape:transform-center-y="-1.3821829"
       inkscape:transform-center-x="1.3821829"
       d="M 128.98147,172.09769 111,166 95.782899,177.35583 96.02557,158.37015 80.523193,147.40697 l 18.131446,-5.63611 5.636101,-18.13144 10.96318,15.50238 18.98568,-0.24267 -11.35583,15.2171 z"
       inkscape:randomized="0"
       inkscape:rounded="0"
       inkscape:flatsided="false"
       sodipodi:arg2="1.4137167"
       sodipodi:arg1="0.78539816"
       sodipodi:r2="14.296203"
       sodipodi:r1="28.592407"
       sodipodi:cy="151.87981"
       sodipodi:cx="108.76358"
       sodipodi:sides="5"
       id="path882"
       style="display:inline;opacity:1;fill:#edd400;fill-opacity:1;fill-rule:nonzero;stroke:none;stroke-width:4.04357672;stroke-opacity:0.88627451"
       sodipodi:type="star" />
    <path
       sodipodi:type="star"
       style="display:inline;opacity:1;fill:#edd400;fill-opacity:1;fill-rule:nonzero;stroke:none;stroke-width:4.83718061;stroke-opacity:0.88627451"
       id="path884"
       sodipodi:sides="5"
       sodipodi:cx="220.32466"
       sodipodi:cy="218.10854"
       sodipodi:r1="34.204033"
       sodipodi:r2="17.102016"
       sodipodi:arg1="0.78539816"
       sodipodi:arg2="1.4137167"
       inkscape:flatsided="false"
       inkscape:rounded="0"
       inkscape:randomized="0"
       d="M 244.51056,242.29444 223.00001,235 l -18.20365,13.58455 0.29029,-22.71186 -18.54491,-13.11484 21.68997,-6.74227 6.74226,-21.68997 13.11484,18.54492 22.71187,-0.2903 -13.58456,18.20365 z"
       inkscape:transform-center-x="1.653454"
       inkscape:transform-center-y="-1.653454" />
    <path
       sodipodi:type="star"
       style="display:inline;opacity:1;fill:#edd400;fill-opacity:1;fill-rule:nonzero;stroke:none;stroke-width:1.20916367;stroke-opacity:0.88627451"
       id="path886"
       sodipodi:sides="5"
       sodipodi:cx="174.16919"
       sodipodi:cy="94.381828"
       sodipodi:r1="8.5500784"
       sodipodi:r2="4.2750392"
       sodipodi:arg1="0.78539816"
       sodipodi:arg2="1.4137167"
       inkscape:flatsided="false"
       inkscape:rounded="0"
       inkscape:randomized="0"
       d="M 180.21501,100.42765 174.83795,98.604235 170.28754,102 l 0.0726,-5.677345 -4.63572,-3.278354 5.4219,-1.685382 1.68538,-5.421903 3.27836,4.635725 5.67735,-0.07257 -3.39577,4.550418 z"
       inkscape:transform-center-x="0.41331851"
       inkscape:transform-center-y="-0.41331855" />
    <path
       inkscape:transform-center-y="-0.41331855"
       inkscape:transform-center-x="0.41331851"
       d="m 156.10501,244.85492 -5.37706,-1.82342 -4.55042,3.39577 0.0726,-5.67735 -4.63572,-3.27835 5.4219,-1.68538 1.68538,-5.42191 3.27836,4.63573 5.67734,-0.0726 -3.39576,4.55042 z"
       inkscape:randomized="0"
       inkscape:rounded="0"
       inkscape:flatsided="false"
       sodipodi:arg2="1.4137167"
       sodipodi:arg1="0.78539816"
       sodipodi:r2="4.2750392"
       sodipodi:r1="8.5500784"
       sodipodi:cy="238.8091"
       sodipodi:cx="150.05919"
       sodipodi:sides="5"
       id="path888"
       style="display:inline;opacity:1;fill:#edd400;fill-opacity:1;fill-rule:nonzero;stroke:none;stroke-width:1.20916367;stroke-opacity:0.88627451"
       sodipodi:type="star" />
    <path
       inkscape:transform-center-y="-0.74319231"
       inkscape:transform-center-x="0.74319231"
       d="m 184.2787,55.668533 -9.66854,-3.278696 -8.18215,6.105968 0.13048,-10.208498 -8.33554,-5.894842 9.74918,-3.030504 3.0305,-9.74918 5.89485,8.335545 10.20849,-0.130483 -6.10596,8.182153 z"
       inkscape:randomized="0"
       inkscape:rounded="0"
       inkscape:flatsided="false"
       sodipodi:arg2="1.4137167"
       sodipodi:arg1="0.78539816"
       sodipodi:r2="7.6869917"
       sodipodi:r1="15.373983"
       sodipodi:cy="44.797485"
       sodipodi:cx="173.40765"
       sodipodi:sides="5"
       id="path890"
       style="display:inline;opacity:1;fill:#edd400;fill-opacity:1;fill-rule:nonzero;stroke:none;stroke-width:2.17420959;stroke-opacity:0.88627451"
       sodipodi:type="star" />
    <path
       inkscape:transform-center-y="-0.41331855"
       inkscape:transform-center-x="0.41331851"
       d="M 42.214989,22.427643 36.837934,20.604231 32.287516,24 l 0.07257,-5.677348 -4.635725,-3.278354 5.421903,-1.685383 1.685382,-5.4219032 3.278355,4.6357252 5.677348,-0.07257 -3.395769,4.550418 z"
       inkscape:randomized="0"
       inkscape:rounded="0"
       inkscape:flatsided="false"
       sodipodi:arg2="1.4137167"
       sodipodi:arg1="0.78539816"
       sodipodi:r2="4.2750392"
       sodipodi:r1="8.5500784"
       sodipodi:cy="16.381824"
       sodipodi:cx="36.16917"
       sodipodi:sides="5"
       id="path892"
       style="display:inline;opacity:1;fill:#edd400;fill-opacity:1;fill-rule:nonzero;stroke:none;stroke-width:1.20916367;stroke-opacity:0.88627451"
       sodipodi:type="star" />
    <path
       sodipodi:type="star"
       style="display:inline;opacity:1;fill:#edd400;fill-opacity:1;fill-rule:nonzero;stroke:none;stroke-width:1.20916367;stroke-opacity:0.88627451"
       id="path894"
       sodipodi:sides="5"
       sodipodi:cx="240.05917"
       sodipodi:cy="136.8091"
       sodipodi:r1="8.5500784"
       sodipodi:r2="4.2750392"
       sodipodi:arg1="0.78539816"
       sodipodi:arg2="1.4137167"
       inkscape:flatsided="false"
       inkscape:rounded="0"
       inkscape:randomized="0"
       d="m 246.10499,142.85492 -5.37705,-1.82342 -4.55042,3.39577 0.0726,-5.67735 -4.63573,-3.27835 5.4219,-1.68538 1.68539,-5.42191 3.27835,4.63573 5.67735,-0.0726 -3.39577,4.55042 z"
       inkscape:transform-center-x="0.41331851"
       inkscape:transform-center-y="-0.41331855" />
    <path
       sodipodi:type="star"
       style="display:inline;opacity:1;fill:#edd400;fill-opacity:1;fill-rule:nonzero;stroke:none;stroke-width:1.20916367;stroke-opacity:0.88627451"
       id="path879"
       sodipodi:sides="5"
       sodipodi:cx="18.059189"
       sodipodi:cy="58.80909"
       sodipodi:r1="8.5500784"
       sodipodi:r2="4.2750392"
       sodipodi:arg1="0.78539816"
       sodipodi:arg2="1.4137167"
       inkscape:flatsided="false"
       inkscape:rounded="0"
       inkscape:randomized="0"
       d="m 24.105007,64.854908 -5.377055,-1.823412 -4.550417,3.395769 0.07257,-5.677348 -4.6357249,-3.278354 5.4219039,-1.685383 1.685382,-5.421903 3.278354,4.635725 5.677348,-0.07257 -3.395769,4.550418 z"
       inkscape:transform-center-x="0.41331851"
       inkscape:transform-center-y="-0.41331855" />
    <path
       inkscape:transform-center-y="-0.41331855"
       inkscape:transform-center-x="0.41331851"
       d="m 160.10499,195.85492 -5.37705,-1.82342 -4.55042,3.39577 0.0726,-5.67735 -4.63573,-3.27835 5.4219,-1.68538 1.68539,-5.42191 3.27835,4.63573 5.67735,-0.0726 -3.39577,4.55042 z"
       inkscape:randomized="0"
       inkscape:rounded="0"
       inkscape:flatsided="false"
       sodipodi:arg2="1.4137167"
       sodipodi:arg1="0.78539816"
       sodipodi:r2="4.2750392"
       sodipodi:r1="8.5500784"
       sodipodi:cy="189.8091"
       sodipodi:cx="154.05917"
       sodipodi:sides="5"
       id="path881"
       style="display:inline;opacity:1;fill:#edd400;fill-opacity:1;fill-rule:nonzero;stroke:none;stroke-width:1.20916367;stroke-opacity:0.88627451"
       sodipodi:type="star" />
  </g>
</svg>
