<?xml version="1.0" encoding="UTF-8" standalone="no"?>
<!-- Created with Inkscape (http://www.inkscape.org/) -->

<svg
   xmlns:osb="http://www.openswatchbook.org/uri/2009/osb"
   xmlns:dc="http://purl.org/dc/elements/1.1/"
   xmlns:cc="http://creativecommons.org/ns#"
   xmlns:rdf="http://www.w3.org/1999/02/22-rdf-syntax-ns#"
   xmlns:svg="http://www.w3.org/2000/svg"
   xmlns="http://www.w3.org/2000/svg"
   xmlns:xlink="http://www.w3.org/1999/xlink"
   xmlns:sodipodi="http://sodipodi.sourceforge.net/DTD/sodipodi-0.dtd"
   xmlns:inkscape="http://www.inkscape.org/namespaces/inkscape"
   width="256px"
   height="256px"
   viewBox="0 0 256 256"
   version="1.1"
   id="SVGRoot"
   sodipodi:docname="videomass-v4.svg"
   inkscape:version="0.92.4 (5da689c313, 2019-01-14)"
   enable-background="new">
  <sodipodi:namedview
     id="base"
     pagecolor="#ffffff"
     bordercolor="#666666"
     borderopacity="1.0"
     inkscape:pageopacity="0.0"
     inkscape:pageshadow="2"
     inkscape:zoom="2.32"
     inkscape:cx="77.301724"
     inkscape:cy="110.30484"
     inkscape:document-units="px"
     inkscape:current-layer="layer2"
     showgrid="true"
     inkscape:window-width="1920"
     inkscape:window-height="1015"
     inkscape:window-x="0"
     inkscape:window-y="0"
     inkscape:window-maximized="1"
     inkscape:grid-bbox="true"
     inkscape:measure-start="110,130"
     inkscape:measure-end="0,0"
     showguides="false">
    <inkscape:grid
       type="xygrid"
       id="grid5114" />
  </sodipodi:namedview>
  <defs
     id="defs4485">
    <linearGradient
       inkscape:collect="always"
       id="linearGradient4619">
      <stop
         style="stop-color:#3b1616;stop-opacity:1"
         offset="0"
         id="stop4615" />
      <stop
         style="stop-color:#501616;stop-opacity:0;"
         offset="1"
         id="stop4617" />
    </linearGradient>
    <inkscape:path-effect
       effect="bspline"
       id="path-effect4551"
       is_visible="true"
       weight="33.333333"
       steps="2"
       helper_size="0"
       apply_no_weight="true"
       apply_with_weight="true"
       only_selected="false" />
    <inkscape:path-effect
       effect="skeletal"
       id="path-effect4547"
       is_visible="true"
       pattern="M 0,5 C 0,2.24 2.24,0 5,0 7.76,0 10,2.24 10,5 10,7.76 7.76,10 5,10 2.24,10 0,7.76 0,5 Z"
       copytype="single_stretched"
       prop_scale="1"
       scale_y_rel="false"
       spacing="0"
       normal_offset="0"
       tang_offset="0"
       prop_units="false"
       vertical_pattern="false"
       fuse_tolerance="0" />
    <inkscape:path-effect
       effect="bspline"
       id="path-effect4545"
       is_visible="true"
       weight="33.333333"
       steps="2"
       helper_size="0"
       apply_no_weight="true"
       apply_with_weight="true"
       only_selected="false" />
    <inkscape:path-effect
       effect="skeletal"
       id="path-effect4541"
       is_visible="true"
       pattern="M 0,5 C 0,2.24 2.24,0 5,0 7.76,0 10,2.24 10,5 10,7.76 7.76,10 5,10 2.24,10 0,7.76 0,5 Z"
       copytype="single_stretched"
       prop_scale="1"
       scale_y_rel="false"
       spacing="0"
       normal_offset="0"
       tang_offset="0"
       prop_units="false"
       vertical_pattern="false"
       fuse_tolerance="0" />
    <inkscape:path-effect
       effect="spiro"
       id="path-effect4539"
       is_visible="true" />
    <inkscape:path-effect
       effect="bspline"
       id="path-effect4535"
       is_visible="true"
       weight="33.333333"
       steps="2"
       helper_size="0"
       apply_no_weight="true"
       apply_with_weight="true"
       only_selected="false" />
    <inkscape:path-effect
       effect="skeletal"
       id="path-effect4531"
       is_visible="true"
       pattern="M 0,5 C 0,2.24 2.24,0 5,0 7.76,0 10,2.24 10,5 10,7.76 7.76,10 5,10 2.24,10 0,7.76 0,5 Z"
       copytype="single_stretched"
       prop_scale="1"
       scale_y_rel="false"
       spacing="0"
       normal_offset="0"
       tang_offset="0"
       prop_units="false"
       vertical_pattern="false"
       fuse_tolerance="0" />
    <inkscape:path-effect
       effect="bspline"
       id="path-effect4529"
       is_visible="true"
       weight="33.333333"
       steps="2"
       helper_size="0"
       apply_no_weight="true"
       apply_with_weight="true"
       only_selected="false" />
    <inkscape:path-effect
       effect="skeletal"
       id="path-effect4525"
       is_visible="true"
       pattern="M 0,5 C 0,2.24 2.24,0 5,0 7.76,0 10,2.24 10,5 10,7.76 7.76,10 5,10 2.24,10 0,7.76 0,5 Z"
       copytype="single_stretched"
       prop_scale="1"
       scale_y_rel="false"
       spacing="0"
       normal_offset="0"
       tang_offset="0"
       prop_units="false"
       vertical_pattern="false"
       fuse_tolerance="0" />
    <inkscape:path-effect
       effect="bspline"
       id="path-effect4523"
       is_visible="true"
       weight="33.333333"
       steps="2"
       helper_size="0"
       apply_no_weight="true"
       apply_with_weight="true"
       only_selected="false" />
    <inkscape:path-effect
       effect="bspline"
       id="path-effect4519"
       is_visible="true"
       weight="33.333333"
       steps="2"
       helper_size="0"
       apply_no_weight="true"
       apply_with_weight="true"
       only_selected="false" />
    <linearGradient
       inkscape:collect="always"
       id="linearGradient4752">
      <stop
         style="stop-color:#888a85;stop-opacity:1;"
         offset="0"
         id="stop4748" />
      <stop
         style="stop-color:#48aee0;stop-opacity:0"
         offset="1"
         id="stop4750" />
    </linearGradient>
    <pattern
       inkscape:isstock="true"
       inkscape:stockid="Stripes 1:1"
       id="Strips1_1"
       patternTransform="translate(0,0) scale(10,10)"
       height="1"
       width="2"
       patternUnits="userSpaceOnUse"
       inkscape:collect="always">
      <rect
         id="rect5447"
         height="2"
         width="1"
         y="-0.5"
         x="0"
         style="fill:black;stroke:none" />
    </pattern>
    <linearGradient
       id="linearGradient4727"
       osb:paint="solid">
      <stop
         style="stop-color:#ce5c00;stop-opacity:1;"
         offset="0"
         id="stop4725" />
    </linearGradient>
    <pattern
       patternUnits="userSpaceOnUse"
       width="55"
       height="90"
       patternTransform="translate(-60,50.5)"
       id="pattern6214">
      <g
         style="fill:url(#Strips1_1);fill-opacity:1"
         transform="translate(-15,-28.5)"
         id="g4691">
        <rect
           style="opacity:0.81499999;fill:url(#Strips1_1);fill-opacity:1;stroke:none;stroke-width:4.52699995;stroke-linecap:round;stroke-linejoin:bevel;stroke-miterlimit:17.60000038;stroke-dasharray:none;stroke-dashoffset:0;stroke-opacity:1;paint-order:stroke fill markers"
           id="rect4683"
           width="30"
           height="30"
           x="40"
           y="59"
           ry="7.9000001" />
        <path
           inkscape:connector-curvature="0"
           style="opacity:0.81499999;fill:url(#Strips1_1);fill-opacity:1;stroke:none;stroke-width:8.60130024;stroke-linecap:round;stroke-linejoin:bevel;stroke-miterlimit:17.60000038;stroke-dasharray:none;stroke-dashoffset:0;stroke-opacity:1;paint-order:stroke fill markers"
           d="m 15,28.5 v 90 l 45,-45 z"
           id="path4687" />
      </g>
    </pattern>
    <linearGradient
       inkscape:collect="always"
       xlink:href="#linearGradient4752"
       id="linearGradient4754"
       x1="11.826138"
       y1="245.7171"
       x2="203.93848"
       y2="10.904128"
       gradientUnits="userSpaceOnUse"
       gradientTransform="matrix(0.95425703,0,0,0.95425703,5.390281,5.594659)" />
    <linearGradient
       inkscape:collect="always"
       xlink:href="#linearGradient4619"
       id="linearGradient4621"
       x1="-254"
       y1="137"
       x2="-34"
       y2="137"
       gradientUnits="userSpaceOnUse"
       gradientTransform="translate(274,-6)" />
  </defs>
  <metadata
     id="metadata4488">
    <rdf:RDF>
      <cc:Work
         rdf:about="">
        <dc:format>image/svg+xml</dc:format>
        <dc:type
           rdf:resource="http://purl.org/dc/dcmitype/StillImage" />
        <dc:title />
      </cc:Work>
    </rdf:RDF>
  </metadata>
  <g
     inkscape:groupmode="layer"
     id="layer3"
     inkscape:label="sfondo"
     style="display:inline">
    <rect
       style="display:inline;opacity:1;fill:#eeeeec;fill-opacity:1;stroke:none;stroke-width:2.40400004;stroke-linecap:round;stroke-linejoin:bevel;stroke-miterlimit:17.60000038;stroke-dasharray:none;stroke-dashoffset:0;stroke-opacity:0.97647059;paint-order:stroke fill markers"
       id="rect4568-3"
       width="222.07193"
       height="222.07193"
       x="16.675457"
       y="18"
       ry="22.6604" />
  </g>
  <g
     style="display:inline"
     inkscape:label="sfondo copia"
     id="g4738"
     inkscape:groupmode="layer">
    <rect
       ry="22.6604"
       y="18"
       x="16.675457"
       height="222.07193"
       width="222.07193"
       id="rect4736"
       style="display:inline;opacity:1;fill:url(#linearGradient4754);fill-opacity:1;stroke:none;stroke-width:7.00387716;stroke-linecap:round;stroke-linejoin:bevel;stroke-miterlimit:17.60000038;stroke-dasharray:none;stroke-dashoffset:0;stroke-opacity:0.97647059;paint-order:stroke fill markers" />
    <path
       style="display:inline;opacity:1;fill:url(#linearGradient4621);fill-opacity:1;stroke:none;stroke-width:7.00387716;stroke-linecap:round;stroke-linejoin:bevel;stroke-miterlimit:17.60000038;stroke-dasharray:none;stroke-dashoffset:0;stroke-opacity:0.97647059;paint-order:stroke fill markers"
       d="M 169.56897,17.862068 16.69592,172.64917 v 44.625 c 0,12.55386 10.1063,22.66016 22.66016,22.66016 H 87.19397 L 238.76819,86.461677 V 40.522224 c 0,-12.553862 -10.1063,-22.660156 -22.66016,-22.660156 z"
       id="rect85"
       inkscape:connector-curvature="0" />
  </g>
  <g
     inkscape:groupmode="layer"
     id="layer2"
     inkscape:label="audio"
     style="display:inline">
    <path
       inkscape:connector-curvature="0"
       style="display:inline;opacity:1;fill:#2b0000;fill-opacity:1;stroke:none;stroke-width:1.35170031"
       d="M 112.51172,18.054688 16.91211,115.13281 v 10.05274 c 1.10588,-0.7061 2.35904,-1.06117 3.61328,-1.05274 v 0.002 c 1.73923,0.0104 3.47472,0.70956 4.79883,2.08984 l 9.47656,9.87891 c 2.6482,2.76049 2.62067,7.17584 -0.0625,9.90039 l -4.84375,4.91797 c -2.68309,2.72463 -6.97481,2.69577 -9.62304,-0.0645 l -3.35938,-3.50195 v 10.74805 c 0.64471,1.65979 0.64169,3.5156 0,5.17383 v 10.62109 l 1.0332,-1.04883 c 6.57354,-6.6753 17.09,-6.60588 23.57813,0.1582 l 43.20898,45.04102 c 5.82486,6.07169 6.34552,15.40184 1.63868,22.07813 h 19.54687 c -2.58131,-2.76454 -2.53327,-7.12644 0.12695,-9.82813 l 4.84375,-4.91992 c 1.34156,-1.36228 3.08497,-2.03518 4.82422,-2.02344 1.73925,0.0104 3.47277,0.70966 4.79688,2.08984 l 9.47851,9.88086 c 1.28418,1.33861 1.93477,3.06583 1.96289,4.80079 h 12.64063 l 94.39258,-95.85352 v -10.61133 c -2.44827,0.97381 -5.32356,0.43368 -7.29102,-1.61719 l -9.47851,-9.88085 c -2.64823,-2.76049 -2.61851,-7.17579 0.0644,-9.9004 l 4.84179,-4.91601 c 1.34156,-1.36228 3.08693,-2.03515 4.82617,-2.02344 1.73924,0.0104 3.47084,0.70957 4.79493,2.08985 l 2.24218,2.33593 V 85.50586 l -4.51562,4.585938 C 227.76095,96.9033 217.03453,96.82893 210.41401,89.927735 L 167.68164,45.386719 c -6.62056,-6.901163 -6.55146,-17.938496 0.15625,-24.75 l 2.54297,-2.582031 h -19.36328 l 0.0156,0.01563 c 2.6482,2.760463 2.62262,7.17383 -0.0605,9.898437 l -4.8418,4.917969 c -2.6831,2.724607 -6.97874,2.697975 -9.62695,-0.0625 l -9.47656,-9.880859 c -1.30577,-1.361113 -1.95624,-3.124398 -1.9629,-4.888672 z m 4.875,7.716797 c 1.73859,0.01122 3.47699,0.711169 4.80078,2.089844 l 9.47461,9.878906 c 2.64822,2.760471 2.61962,7.175772 -0.0625,9.900391 l -4.8418,4.919921 c -2.68308,2.724592 -6.97481,2.694056 -9.62304,-0.06641 l -9.47852,-9.878906 c -2.64819,-2.760458 -2.62264,-7.173842 0.0606,-9.898438 l 4.84375,-4.921875 c 1.34156,-1.362304 3.08646,-2.03473 4.82617,-2.023437 z M 98.01367,45.44336 c 1.73919,0.01179 3.47473,0.709609 4.79883,2.089844 l 9.47656,9.880859 c 2.64823,2.760456 2.62264,7.173797 -0.0605,9.898437 l -4.8418,4.917969 c -2.68312,2.724614 -6.97875,2.697087 -9.62695,-0.0625 l -9.47656,-9.878906 c -2.64824,-2.760454 -2.61813,-7.177749 0.0645,-9.902344 L 93.1915,47.46875 c 1.34156,-1.362319 3.08302,-2.037091 4.82226,-2.02539 z M 146,50 c 4.34857,0.02925 8.68587,1.772075 11.9961,5.222657 l 42.72851,44.542973 c 6.62053,6.90114 6.55144,17.9385 -0.15625,24.75 l -24.21484,24.59179 c -6.70772,6.81149 -17.43807,6.73903 -24.0586,-0.16211 l -42.72851,-44.54296 c -6.62052,-6.90114 -6.55146,-17.938502 0.15625,-24.750006 L 133.93555,55.060547 C 137.2894,51.654795 141.65143,49.970751 146,50 Z M 78.64063,65.117188 c 1.73924,0.01122 3.47669,0.709611 4.80078,2.089844 l 9.47656,9.880859 c 2.64824,2.760456 2.62039,7.173819 -0.0625,9.898438 l -4.8418,4.917969 c -2.6831,2.724622 -6.97481,2.694012 -9.62304,-0.0664 l -9.47852,-9.876954 c -2.64823,-2.760499 -2.62263,-7.177727 0.0606,-9.902344 l 4.84375,-4.917968 c 1.34157,-1.362302 3.08499,-2.035131 4.82422,-2.023438 z m -19.3711,19.671875 c 1.7397,0.01006 3.47669,0.708088 4.80078,2.087891 l 9.47657,9.878906 c 2.64823,2.76049 2.61802,7.17965 -0.0645,9.9043 l -4.84375,4.91601 c -2.68308,2.72457 -6.97481,2.69603 -9.62304,-0.0644 l -9.47657,-9.88086 c -2.6482,-2.76052 -2.61857,-7.1738 0.0645,-9.898442 l 4.84375,-4.917964 c 1.34155,-1.362296 3.08257,-2.036503 4.82226,-2.025391 z M 39.89649,104.45899 c 1.73925,0.0104 3.47668,0.71164 4.80078,2.09179 l 9.47656,9.87891 c 2.64822,2.76047 2.62065,7.17382 -0.0625,9.89844 l -4.8457,4.92187 c -2.68306,2.72459 -6.97483,2.69387 -9.62305,-0.0664 l -9.47656,-9.87891 c -2.64823,-2.76045 -2.61858,-7.17577 0.0645,-9.90039 l 4.8418,-4.91992 c 1.34154,-1.36233 3.08498,-2.03513 4.82422,-2.02344 z m 47.98437,4.41211 c 4.26166,0.0282 8.51374,1.7371 11.75781,5.11914 l 43.21094,45.04101 c 6.48812,6.76313 6.41831,17.58063 -0.1543,24.25586 l -23.73242,24.09766 c -6.57351,6.67525 -17.08804,6.60782 -23.57617,-0.15625 L 52.17578,162.1875 c -6.48814,-6.76311 -6.41867,-17.58446 0.1543,-24.25976 l 23.73047,-24.09571 c 3.28677,-3.33765 7.55866,-4.98921 11.82031,-4.96093 z m 124.69531,16.125 c 1.73853,0.0104 3.47509,0.71094 4.79883,2.08984 l 9.47656,9.875 c 2.64821,2.76045 2.6176,7.17966 -0.0644,9.9043 l -4.84375,4.91797 c -2.68301,2.72461 -6.97287,2.69387 -9.62109,-0.0664 l -9.47851,-9.87891 c -2.64824,-2.76044 -2.61859,-7.17574 0.0644,-9.90039 l 4.8418,-4.91797 c 1.34152,-1.36226 3.08647,-2.03475 4.82617,-2.02343 z m -19.375,19.66797 h 0.004 c 1.73925,0.0115 3.47278,0.70966 4.79688,2.08984 h 0.004 l 9.48047,9.88086 c 2.64823,2.76053 2.61856,7.17578 -0.0644,9.90039 l -4.84375,4.91601 c -2.68308,2.72458 -6.97486,2.70093 -9.62305,-0.0605 l -9.47852,-9.88086 c -2.64823,-2.76047 -2.61744,-7.17579 0.0645,-9.90039 l 4.84179,-4.92188 c 1.34056,-1.36132 3.0804,-2.03412 4.81836,-2.02343 z m -19.37109,19.67382 c 1.73923,0.0104 3.47273,0.70964 4.79687,2.08985 l 9.47852,9.88086 c 2.64821,2.7605 2.6204,7.17386 -0.0625,9.89843 l -4.84375,4.91797 c -2.68305,2.72463 -6.97285,2.69784 -9.62109,-0.0625 l -9.47852,-9.88086 c -2.64824,-2.76048 -2.62058,-7.17576 0.0625,-9.90039 l 4.8418,-4.91601 c 1.34152,-1.36228 3.08692,-2.03903 4.82617,-2.02735 z m -19.37109,19.67383 c 1.73969,0.0115 3.47275,0.70914 4.79687,2.08985 l 9.47852,9.87695 c 2.64824,2.76044 2.61937,7.17767 -0.0625,9.90234 l -4.84375,4.91797 c -2.68307,2.72461 -6.97485,2.69417 -9.62305,-0.0664 l -9.47852,-9.8789 c -2.64818,-2.76043 -2.61847,-7.17383 0.0645,-9.89844 l 4.84179,-4.91992 c 1.34156,-1.36229 3.08647,-2.03477 4.82618,-2.02344 z m -19.3711,19.67188 c 1.73921,0.0104 3.47081,0.70959 4.79492,2.08984 l 9.47852,9.87891 c 2.64821,2.76046 2.61849,7.17576 -0.0644,9.90039 l -4.8418,4.91797 c -2.68305,2.7246 -6.97484,2.69609 -9.62305,-0.0645 l -9.47851,-9.8789 c -2.64819,-2.76042 -2.62042,-7.17381 0.0625,-9.89844 l 4.84375,-4.92188 c 1.34157,-1.3623 3.08887,-2.03515 4.82812,-2.02343 z"
       id="path78" />
    <path
       style="display:inline;fill:#8ae234;stroke:#000000;stroke-width:0.563;stroke-linecap:butt;stroke-linejoin:miter;stroke-opacity:1;stroke-miterlimit:4;stroke-dasharray:none"
       d="M 44.60251,45.285751 41.1522,88.163997 40.00115,79.583479 38.85293,96.738429 37.70188,51 35.40262,122.46173 V 71.009047 L 34.25157,125.32191 33.10053,113.88726 31.9523,125.32191 30.80126,48.139817 27.35094,108.17304 26.1999,62.434615 23.90063,96.738429 22.74958,82.443631 21.60136,96.738429 20.45031,56.714249 17,131.04224 H 73.35607 L 69.90576,51 68.75471,82.443631 67.60649,73.869199 65.3044,128.18206 64.15618,99.59858 63.00513,119.60763 61.85409,73.869199 59.55482,116.74744 58.40377,102.45265 57.25555,111.0332 56.1045,93.878246 54.95346,125.32191 53.80523,56.714249 51.50314,96.738429 50.35492,56.714249 48.05283,82.443631 46.9046,65.294767 45.75356,85.303846 Z m 56.58742,0 -3.45032,42.878246 -1.15105,-8.580518 -1.15104,17.15495 L 94.2893,51 91.98721,122.46173 V 71.009047 L 90.83898,125.32191 89.68794,113.88726 88.53689,125.32191 87.38867,48.139817 83.93835,108.17304 82.78731,62.434615 80.48804,96.738429 79.33699,82.443631 78.18595,96.738429 77.03772,56.714249 73.58741,131.04224 h 56.35608 L 126.49317,51 l -1.15105,31.443631 -1.15104,-8.574432 -2.29927,54.312861 -1.15104,-28.58348 -1.14823,20.00905 -1.15104,-45.738431 -2.29928,42.878241 -1.15103,-14.29479 -1.15106,8.58055 -1.14822,-17.154954 -1.15105,31.443664 -1.15104,-68.607661 -2.29927,40.02418 -1.15104,-40.02418 -2.29927,25.729382 -1.15104,-17.148864 -1.14824,20.009079 z m 28.75356,85.756489 h 56.35606 L 182.84924,51 l -1.15104,31.443631 -1.14822,-8.574432 -2.30209,54.312861 -1.14824,-28.58348 -1.15103,20.00905 -1.15106,-45.738431 -2.29925,42.878241 -1.15106,-14.29479 -1.14822,8.58055 -1.15105,-17.154954 -1.15104,31.443664 -1.15104,-68.607661 -2.29927,40.02418 -1.15105,-40.02418 -2.29926,25.729382 -1.15105,-17.148864 -1.14823,20.009079 -1.15105,-40.018095 -3.45031,42.878246 -1.15104,-8.580518 -1.14822,17.15495 L 150.64537,51 148.3461,122.46173 V 71.009047 l -1.15104,54.312863 -1.15105,-11.43465 -1.14823,11.43465 -1.15103,-77.182093 -3.45032,60.033223 -1.15105,-45.738425 -2.29927,34.303814 -1.15104,-14.294798 -1.14822,14.294798 -1.15105,-40.02418 z M 214.13342,45.285751 210.68309,88.163997 209.53205,79.583479 208.381,96.738429 207.23278,51 204.93069,122.46173 V 71.009047 l -1.14822,54.312863 -1.15106,-11.43465 -1.15103,11.43465 -1.14822,-77.182093 -3.45032,60.033223 -1.15105,-45.738425 -2.29927,34.303814 -1.15104,-14.294798 -1.15105,14.294798 -1.14822,-40.02418 -3.45032,74.327991 h 56.35609 L 239.43665,51 l -1.15104,31.443631 -1.15105,-8.574432 -2.29926,54.312861 -1.15105,-28.58348 -1.14822,20.00905 -1.15104,-45.738431 -2.29928,42.878241 -1.15105,-14.29479 -1.15104,8.58055 -1.14822,-17.154954 -1.15105,31.443664 -1.15104,-68.607661 -2.29927,40.02418 -1.15105,-40.02418 -2.29926,25.729382 -1.15105,-17.148864 -1.15104,20.009079 z M 17,131.26738 l 3.45031,74.32803 1.15105,-40.02422 1.14822,14.29483 1.15105,-14.29483 2.29927,34.30385 1.15104,-45.73843 3.45032,60.0332 1.15104,-77.18203 1.14823,11.43458 1.15104,-11.43458 1.15105,54.31286 V 139.8479 l 2.29926,71.46172 1.15105,-45.73843 1.14822,17.15495 1.15105,-8.5744 3.45031,42.87825 1.15105,-40.02418 1.15104,20.00905 1.14823,-17.14884 2.30209,25.72939 1.14822,-40.02422 2.30209,40.02422 1.14823,-68.60763 1.15104,31.44363 1.15105,-17.14887 1.14822,8.57444 1.15105,-14.2948 2.29927,42.87828 1.15104,-45.73843 1.15105,20.0151 1.14822,-28.58957 2.30209,54.3129 1.14822,-8.57444 1.15105,31.4436 3.45031,-80.04224 z m 56.58741,0 3.45031,74.32803 1.14823,-40.02422 1.15104,14.29483 1.15105,-14.29483 2.29927,34.30385 1.15104,-45.73843 3.45032,60.0332 1.14822,-77.18203 1.15105,11.43458 1.15104,-11.43458 1.14823,54.31286 V 139.8479 l 2.30209,71.46172 1.14822,-45.73843 1.15104,17.15495 1.15105,-8.5744 3.45032,42.87825 1.15103,-40.02418 1.14824,20.00905 1.15104,-17.14884 2.29927,25.72939 1.15104,-40.02422 2.29927,40.02422 1.15104,-68.60763 1.15105,31.44363 1.14822,-17.14887 1.15106,8.57444 1.15103,-14.2948 2.29928,42.87828 1.15104,-45.73843 1.14823,20.0151 1.15104,-28.58957 2.29927,54.3129 1.15104,-8.57444 1.15105,31.4436 3.45032,-80.04224 z m 56.35608,0 3.45031,74.32803 1.15105,-40.02422 1.14822,14.29483 1.15104,-14.29483 2.29927,34.30385 1.15105,-45.73843 3.45032,60.0332 1.15103,-77.18203 1.14823,11.43458 1.15105,-11.43458 1.15104,54.31286 V 139.8479 l 2.29927,71.46172 1.15105,-45.73843 1.14822,17.15495 1.15104,-8.5744 3.45031,42.87825 1.15105,-40.02418 1.14823,20.00905 1.15105,-17.14884 2.29926,25.72939 1.15105,-40.02422 2.29927,40.02422 1.15104,-68.60763 1.15104,31.44363 1.15105,-17.14887 1.14822,8.57444 1.15106,-14.2948 2.29925,42.87828 1.15106,-45.73843 1.15103,20.0151 1.14824,-28.58957 2.30209,54.3129 1.14822,-8.57444 1.15104,31.4436 3.45031,-80.04224 z m 56.5874,0 3.45032,74.32803 1.14822,-40.02422 1.15105,14.29483 1.15104,-14.29483 2.29927,34.30385 1.15105,-45.73843 3.45032,60.0332 1.14822,-77.18203 1.15103,11.43458 1.15106,-11.43458 1.14822,54.31286 V 139.8479 l 2.30209,71.46172 1.14822,-45.73843 1.15105,17.15495 1.15104,-8.5744 3.45033,42.87825 1.14822,-40.02418 1.15104,20.00905 1.15105,-17.14884 2.29926,25.72939 1.15105,-40.02422 2.29927,40.02422 1.15104,-68.60763 1.15105,31.44363 1.14822,-17.14887 1.15104,8.57444 1.15105,-14.2948 2.29928,42.87828 1.15104,-45.73843 1.14822,20.0151 1.15105,-28.58957 2.29926,54.3129 1.15105,-8.57444 1.15104,31.4436 3.45033,-80.04224 z"
       id="path895"
       inkscape:connector-curvature="0" />
    <path
       style="display:inline;opacity:1;fill:#ffffff;stroke:#000000;stroke-width:0.157;stroke-linecap:butt;stroke-linejoin:miter;stroke-opacity:1;stroke-miterlimit:4;stroke-dasharray:none"
       d="m 44.60251,88.109003 -3.45031,21.492767 -1.15105,-4.30401 -1.14822,8.60808 -1.15105,-22.932097 -2.29926,35.830477 v -25.79683 l -1.15105,27.22237 -1.15104,-5.72958 -1.14823,5.72958 L 30.80126,89.534507 27.35094,119.63535 26.1999,96.703381 23.90063,113.90584 22.74958,106.73693 21.60136,113.90584 20.45031,93.838546 17,131.09459 h 56.35607 l -3.45031,-40.120847 -1.15105,15.763187 -1.14822,-4.30401 -2.30209,27.23607 -1.14822,-14.33765 -1.15105,10.03365 -1.15104,-22.93207 -2.29927,21.50653 -1.15105,-7.16887 -1.14822,4.30404 -1.15105,-8.60808 -1.15104,15.76322 L 53.80523,93.838546 51.50314,113.90584 50.35492,93.838546 48.05283,106.73693 46.9046,98.142553 45.75356,108.1762 Z m 56.58742,0 -3.45032,21.492767 -1.15105,-4.30401 -1.15104,8.60808 -1.14822,-22.932097 -2.30209,35.830477 v -25.79683 l -1.14823,27.22237 -1.15104,-5.72958 -1.15105,5.72958 -1.14822,-38.695253 -3.45032,30.100843 -1.15104,-22.931969 -2.29927,17.202459 -1.15105,-7.16891 -1.15104,7.16891 -1.14823,-20.067294 -3.45031,37.256044 h 56.35608 l -3.45032,-40.120847 -1.15105,15.763187 -1.15104,-4.30401 -2.29927,27.23607 -1.15104,-14.33765 -1.14823,10.03365 -1.15104,-22.93207 -2.29928,21.50653 -1.15103,-7.16887 -1.15106,4.30404 -1.14822,-8.60808 -1.15105,15.76322 -1.15104,-34.391214 -2.29927,20.067294 -1.15104,-20.067294 -2.29927,12.898384 -1.15104,-8.594377 -1.14824,10.033647 z m 28.75356,42.985587 h 56.35606 l -3.45031,-40.120847 -1.15104,15.763187 -1.14822,-4.30401 -2.30209,27.23607 -1.14824,-14.33765 -1.15103,10.03365 -1.15106,-22.93207 -2.29925,21.50653 -1.15106,-7.16887 -1.14822,4.30404 -1.15105,-8.60808 -1.15104,15.76322 -1.15104,-34.391214 -2.29927,20.067294 -1.15105,-20.067294 -2.29926,12.898384 -1.15105,-8.594377 -1.14823,10.033647 -1.15105,-20.067197 -3.45031,21.492767 -1.15104,-4.30401 -1.14822,8.60808 -1.15105,-22.932097 -2.29927,35.830477 v -25.79683 l -1.15104,27.22237 -1.15105,-5.72958 -1.14823,5.72958 -1.15103,-38.695253 -3.45032,30.100843 -1.15105,-22.931969 -2.29927,17.202459 -1.15104,-7.16891 -1.14822,7.16891 -1.15105,-20.067294 z m 84.18993,-42.985587 -3.45033,21.492767 -1.15104,-4.30401 -1.15105,8.60808 -1.14822,-22.932097 -2.30209,35.830477 v -25.79683 l -1.14822,27.22237 -1.15106,-5.72958 -1.15103,5.72958 -1.14822,-38.695253 -3.45032,30.100843 -1.15105,-22.931969 -2.29927,17.202459 -1.15104,-7.16891 -1.15105,7.16891 -1.14822,-20.067294 -3.45032,37.256044 h 56.35609 l -3.45033,-40.120847 -1.15104,15.763187 -1.15105,-4.30401 -2.29926,27.23607 -1.15105,-14.33765 -1.14822,10.03365 -1.15104,-22.93207 -2.29928,21.50653 -1.15105,-7.16887 -1.15104,4.30404 -1.14822,-8.60808 -1.15105,15.76322 -1.15104,-34.391214 -2.29927,20.067294 -1.15105,-20.067294 -2.29926,12.898384 -1.15105,-8.594377 -1.15104,10.033647 z M 17,131.21796 l 3.45031,37.25598 1.15105,-20.06732 1.14822,7.16891 1.15105,-7.16891 2.29927,17.20255 1.15104,-22.93206 3.45032,30.10084 1.15104,-38.69522 1.14823,5.72955 1.15104,-5.72955 1.15105,27.22231 v -25.7968 l 2.29926,35.83044 1.15105,-22.93206 1.14822,8.60818 1.15105,-4.30404 3.45031,21.49279 1.15105,-20.05359 1.15104,10.01994 1.14823,-8.59437 2.30209,12.89841 1.14822,-20.06732 2.30209,20.06732 1.14823,-34.39121 1.15104,15.76319 1.15105,-8.59441 1.14822,4.29034 1.15105,-7.15511 2.29927,21.49279 1.15104,-22.93203 1.15105,10.03365 1.14822,-14.33768 2.30209,27.23606 1.14822,-4.304 1.15105,15.76315 3.45031,-40.12072 z m 56.58741,0 3.45031,37.25598 1.14823,-20.06732 1.15104,7.16891 1.15105,-7.16891 2.29927,17.20255 1.15104,-22.93206 3.45032,30.10084 1.14822,-38.69522 1.15105,5.72955 1.15104,-5.72955 1.14823,27.22231 v -25.7968 l 2.30209,35.83044 1.14822,-22.93206 1.15104,8.60818 1.15105,-4.30404 3.45032,21.49279 1.15103,-20.05359 1.14824,10.01994 1.15104,-8.59437 2.29927,12.89841 1.15104,-20.06732 2.29927,20.06732 1.15104,-34.39121 1.15105,15.76319 1.14822,-8.59441 1.15106,4.29034 1.15103,-7.15511 2.29928,21.49279 1.15104,-22.93203 1.14823,10.03365 1.15104,-14.33768 2.29927,27.23606 1.15104,-4.304 1.15105,15.76315 3.45032,-40.12072 z m 56.35608,0 3.45031,37.25598 1.15105,-20.06732 1.14822,7.16891 1.15104,-7.16891 2.29927,17.20255 1.15105,-22.93206 3.45032,30.10084 1.15103,-38.69522 1.14823,5.72955 1.15105,-5.72955 1.15104,27.22231 v -25.7968 l 2.29927,35.83044 1.15105,-22.93206 1.14822,8.60818 1.15104,-4.30404 3.45031,21.49279 1.15105,-20.05359 1.14823,10.01994 1.15105,-8.59437 2.29926,12.89841 1.15105,-20.06732 2.29927,20.06732 1.15104,-34.39121 1.15104,15.76319 1.15105,-8.59441 1.14822,4.29034 1.15106,-7.15511 2.29925,21.49279 1.15106,-22.93203 1.15103,10.03365 1.14824,-14.33768 2.30209,27.23606 1.14822,-4.304 1.15104,15.76315 3.45031,-40.12072 z m 56.5874,0 3.45032,37.25598 1.14822,-20.06732 1.15105,7.16891 1.15104,-7.16891 2.29927,17.20255 1.15105,-22.93206 3.45032,30.10084 1.14822,-38.69522 1.15103,5.72955 1.15106,-5.72955 1.14822,27.22231 v -25.7968 l 2.30209,35.83044 1.14822,-22.93206 1.15105,8.60818 1.15104,-4.30404 3.45033,21.49279 1.14822,-20.05359 1.15104,10.01994 1.15105,-8.59437 2.29926,12.89841 1.15105,-20.06732 2.29927,20.06732 1.15104,-34.39121 1.15105,15.76319 1.14822,-8.59441 1.15104,4.29034 1.15105,-7.15511 2.29928,21.49279 1.15104,-22.93203 1.14822,10.03365 1.15105,-14.33768 2.29926,27.23606 1.15105,-4.304 1.15104,15.76315 3.45033,-40.12072 z"
       id="path911"
       inkscape:connector-curvature="0" />
  </g>
  <g
     id="layer1"
     inkscape:groupmode="layer"
     inkscape:label="film strip"
     style="display:inline;opacity:1" />
  <g
     inkscape:groupmode="layer"
     id="layer5"
     inkscape:label="ffmpeg"
     style="display:none">
    <path
       style="color:#000000;font-style:normal;font-variant:normal;font-weight:normal;font-stretch:normal;font-size:medium;line-height:normal;font-family:sans-serif;font-variant-ligatures:normal;font-variant-position:normal;font-variant-caps:normal;font-variant-numeric:normal;font-variant-alternates:normal;font-feature-settings:normal;text-indent:0;text-align:start;text-decoration:none;text-decoration-line:none;text-decoration-style:solid;text-decoration-color:#000000;letter-spacing:normal;word-spacing:normal;text-transform:none;writing-mode:lr-tb;direction:ltr;text-orientation:mixed;dominant-baseline:auto;baseline-shift:baseline;text-anchor:start;white-space:normal;shape-padding:0;clip-rule:nonzero;display:inline;overflow:visible;visibility:visible;opacity:1;isolation:auto;mix-blend-mode:normal;color-interpolation:sRGB;color-interpolation-filters:linearRGB;solid-color:#000000;solid-opacity:1;vector-effect:none;fill:#73d216;fill-opacity:1;fill-rule:nonzero;stroke:#4e9a06;stroke-width:6.26205349;stroke-linecap:round;stroke-linejoin:round;stroke-miterlimit:4;stroke-dasharray:none;stroke-dashoffset:0;stroke-opacity:1;color-rendering:auto;image-rendering:auto;shape-rendering:auto;text-rendering:auto;enable-background:accumulate"
       d="M 46.21789,49.048811 V 50 H 94 L 47.113323,96.8867 v 58.41606 L 152.41607,50 h 50.99422 L 51.220872,206.94535 h 53.636008 l 99.20177,-99.20181 v 55.72603 l -43.4758,43.47578 h 44.67958 l -1.69245,-0.9512 h -40.69089 l 42.13076,-42.13076 V 105.44734 L 104.46303,205.99415 H 53.468798 L 205.65821,49.048811 H 152.0222 L 48.064507,153.00653 V 97.28055 L 96.2962,49.048811 Z"
       id="path4593"
       inkscape:connector-curvature="0"
       sodipodi:nodetypes="ccccccccccccccccccccccccc" />
  </g>
  <g
     inkscape:groupmode="layer"
     id="layer7"
     inkscape:label="freccie"
     style="display:inline" />
</svg>
