<?xml version="1.0" encoding="UTF-8" standalone="no"?>
<!-- Created with Inkscape (http://www.inkscape.org/) -->

<svg
   xmlns:osb="http://www.openswatchbook.org/uri/2009/osb"
   xmlns:dc="http://purl.org/dc/elements/1.1/"
   xmlns:cc="http://creativecommons.org/ns#"
   xmlns:rdf="http://www.w3.org/1999/02/22-rdf-syntax-ns#"
   xmlns:svg="http://www.w3.org/2000/svg"
   xmlns="http://www.w3.org/2000/svg"
   xmlns:sodipodi="http://sodipodi.sourceforge.net/DTD/sodipodi-0.dtd"
   xmlns:inkscape="http://www.inkscape.org/namespaces/inkscape"
   width="256px"
   height="256px"
   viewBox="0 0 256 256"
   version="1.1"
   id="SVGRoot"
   sodipodi:docname="videomass_wizard-v3.svg"
   inkscape:version="0.92.4 (5da689c313, 2019-01-14)"
   enable-background="new">
  <sodipodi:namedview
     id="base"
     pagecolor="#ffffff"
     bordercolor="#666666"
     borderopacity="1.0"
     inkscape:pageopacity="0.0"
     inkscape:pageshadow="2"
     inkscape:zoom="2.3200001"
     inkscape:cx="43.472474"
     inkscape:cy="127.47951"
     inkscape:document-units="px"
     inkscape:current-layer="g4738"
     showgrid="true"
     inkscape:window-width="1920"
     inkscape:window-height="1015"
     inkscape:window-x="0"
     inkscape:window-y="0"
     inkscape:window-maximized="1"
     inkscape:grid-bbox="true"
     inkscape:measure-start="110,130"
     inkscape:measure-end="0,0"
     showguides="true">
    <inkscape:grid
       type="xygrid"
       id="grid5114" />
  </sodipodi:namedview>
  <defs
     id="defs4485">
    <inkscape:path-effect
       effect="bspline"
       id="path-effect4551"
       is_visible="true"
       weight="33.333333"
       steps="2"
       helper_size="0"
       apply_no_weight="true"
       apply_with_weight="true"
       only_selected="false" />
    <inkscape:path-effect
       effect="skeletal"
       id="path-effect4547"
       is_visible="true"
       pattern="M 0,5 C 0,2.24 2.24,0 5,0 7.76,0 10,2.24 10,5 10,7.76 7.76,10 5,10 2.24,10 0,7.76 0,5 Z"
       copytype="single_stretched"
       prop_scale="1"
       scale_y_rel="false"
       spacing="0"
       normal_offset="0"
       tang_offset="0"
       prop_units="false"
       vertical_pattern="false"
       fuse_tolerance="0" />
    <inkscape:path-effect
       effect="bspline"
       id="path-effect4545"
       is_visible="true"
       weight="33.333333"
       steps="2"
       helper_size="0"
       apply_no_weight="true"
       apply_with_weight="true"
       only_selected="false" />
    <inkscape:path-effect
       effect="skeletal"
       id="path-effect4541"
       is_visible="true"
       pattern="M 0,5 C 0,2.24 2.24,0 5,0 7.76,0 10,2.24 10,5 10,7.76 7.76,10 5,10 2.24,10 0,7.76 0,5 Z"
       copytype="single_stretched"
       prop_scale="1"
       scale_y_rel="false"
       spacing="0"
       normal_offset="0"
       tang_offset="0"
       prop_units="false"
       vertical_pattern="false"
       fuse_tolerance="0" />
    <inkscape:path-effect
       effect="spiro"
       id="path-effect4539"
       is_visible="true" />
    <inkscape:path-effect
       effect="bspline"
       id="path-effect4535"
       is_visible="true"
       weight="33.333333"
       steps="2"
       helper_size="0"
       apply_no_weight="true"
       apply_with_weight="true"
       only_selected="false" />
    <inkscape:path-effect
       effect="skeletal"
       id="path-effect4531"
       is_visible="true"
       pattern="M 0,5 C 0,2.24 2.24,0 5,0 7.76,0 10,2.24 10,5 10,7.76 7.76,10 5,10 2.24,10 0,7.76 0,5 Z"
       copytype="single_stretched"
       prop_scale="1"
       scale_y_rel="false"
       spacing="0"
       normal_offset="0"
       tang_offset="0"
       prop_units="false"
       vertical_pattern="false"
       fuse_tolerance="0" />
    <inkscape:path-effect
       effect="bspline"
       id="path-effect4529"
       is_visible="true"
       weight="33.333333"
       steps="2"
       helper_size="0"
       apply_no_weight="true"
       apply_with_weight="true"
       only_selected="false" />
    <inkscape:path-effect
       effect="skeletal"
       id="path-effect4525"
       is_visible="true"
       pattern="M 0,5 C 0,2.24 2.24,0 5,0 7.76,0 10,2.24 10,5 10,7.76 7.76,10 5,10 2.24,10 0,7.76 0,5 Z"
       copytype="single_stretched"
       prop_scale="1"
       scale_y_rel="false"
       spacing="0"
       normal_offset="0"
       tang_offset="0"
       prop_units="false"
       vertical_pattern="false"
       fuse_tolerance="0" />
    <inkscape:path-effect
       effect="bspline"
       id="path-effect4523"
       is_visible="true"
       weight="33.333333"
       steps="2"
       helper_size="0"
       apply_no_weight="true"
       apply_with_weight="true"
       only_selected="false" />
    <inkscape:path-effect
       effect="bspline"
       id="path-effect4519"
       is_visible="true"
       weight="33.333333"
       steps="2"
       helper_size="0"
       apply_no_weight="true"
       apply_with_weight="true"
       only_selected="false" />
    <pattern
       inkscape:isstock="true"
       inkscape:stockid="Stripes 1:1"
       id="Strips1_1"
       patternTransform="translate(0,0) scale(10,10)"
       height="1"
       width="2"
       patternUnits="userSpaceOnUse"
       inkscape:collect="always">
      <rect
         id="rect5447"
         height="2"
         width="1"
         y="-0.5"
         x="0"
         style="fill:black;stroke:none" />
    </pattern>
    <linearGradient
       id="linearGradient4727"
       osb:paint="solid">
      <stop
         style="stop-color:#ce5c00;stop-opacity:1;"
         offset="0"
         id="stop4725" />
    </linearGradient>
    <pattern
       patternUnits="userSpaceOnUse"
       width="55"
       height="90"
       patternTransform="translate(-60,50.5)"
       id="pattern6214">
      <g
         style="fill:url(#Strips1_1);fill-opacity:1"
         transform="translate(-15,-28.5)"
         id="g4691">
        <rect
           style="opacity:0.81499999;fill:url(#Strips1_1);fill-opacity:1;stroke:none;stroke-width:4.52699995;stroke-linecap:round;stroke-linejoin:bevel;stroke-miterlimit:17.60000038;stroke-dasharray:none;stroke-dashoffset:0;stroke-opacity:1;paint-order:stroke fill markers"
           id="rect4683"
           width="30"
           height="30"
           x="40"
           y="59"
           ry="7.9000001" />
        <path
           inkscape:connector-curvature="0"
           style="opacity:0.81499999;fill:url(#Strips1_1);fill-opacity:1;stroke:none;stroke-width:8.60130024;stroke-linecap:round;stroke-linejoin:bevel;stroke-miterlimit:17.60000038;stroke-dasharray:none;stroke-dashoffset:0;stroke-opacity:1;paint-order:stroke fill markers"
           d="m 15,28.5 v 90 l 45,-45 z"
           id="path4687" />
      </g>
    </pattern>
  </defs>
  <metadata
     id="metadata4488">
    <rdf:RDF>
      <cc:Work
         rdf:about="">
        <dc:format>image/svg+xml</dc:format>
        <dc:type
           rdf:resource="http://purl.org/dc/dcmitype/StillImage" />
        <dc:title />
      </cc:Work>
    </rdf:RDF>
  </metadata>
  <g
     inkscape:groupmode="layer"
     id="layer3"
     inkscape:label="sfondo"
     style="display:none">
    <path
       style="display:inline;opacity:1;fill:#99542c;fill-opacity:1;stroke:none;stroke-width:2.40400004;stroke-linecap:round;stroke-linejoin:bevel;stroke-miterlimit:17.60000038;stroke-dasharray:none;stroke-dashoffset:0;stroke-opacity:0.97647059;paint-order:stroke fill markers"
       d="m 218.90403,18.277143 c -0.8573,-0.09761 -1.72733,-0.153296 -2.6116,-0.153293 l -58.60838,0.0014 -8.32508,8.325078 1.62967,1.629662 -7.07107,7.071067 1.90587,1.905872 L 121.0747,61.805667 119.16883,59.899795 16.88141,162.1872 v 55.34769 c 0,0.62392 0.0311,1.23972 0.0801,1.85062 l 20.72983,20.72983 c 0.6109,0.049 1.2267,0.0801 1.85062,0.0801 H 91.17733 L 216.53411,114.83867 237.74731,93.625472 238.95298,92.4198 V 40.784431 c 0,-0.88387 -0.0558,-1.754675 -0.1533,-2.611601 z"
       id="path882"
       inkscape:connector-curvature="0" />
  </g>
  <g
     style="display:inline"
     inkscape:label="sfondo copia"
     id="g4738"
     inkscape:groupmode="layer">
    <path
       style="display:inline;opacity:1;fill:#353535;fill-opacity:1;stroke:none;stroke-width:5.65652418;stroke-linecap:round;stroke-linejoin:bevel;stroke-miterlimit:17.60000038;stroke-dasharray:none;stroke-dashoffset:0;stroke-opacity:0.97647059;paint-order:stroke fill markers"
       d="M 174.29627,38.929261 40.03607,174.65486 v 25.32512 c 0,10.13884 8.16213,18.30097 18.30097,18.30097 H 81.97119 L 219.38776,79.365846 V 57.230228 c 0,-10.138845 -8.16213,-18.300967 -18.30097,-18.300967 z"
       id="rect1130-3"
       inkscape:connector-curvature="0" />
    <path
       style="display:inline;opacity:1;fill:#999999;fill-opacity:1;stroke:#474747;stroke-width:1.13067853;stroke-linecap:round;stroke-linejoin:bevel;stroke-miterlimit:17.60000038;stroke-dasharray:none;stroke-dashoffset:0;stroke-opacity:1;paint-order:stroke fill markers"
       d="M 146.59086,38.929261 40.03607,145.48405 v 6.69447 l 0.73349,-0.73349 c 0.83762,-0.83761 2.23404,-0.78985 3.13114,0.10726 l 7.28758,7.28758 c 0.8971,0.89711 0.94488,2.29352 0.10726,3.13114 l -4.53502,4.53659 c -0.83762,0.83763 -2.23404,0.78826 -3.13113,-0.10884 l -3.59332,-3.59331 v 7.7813 c 0.5711,0.80944 0.57326,1.86163 0,2.60429 v 6.55724 l 9.89975,-9.89975 c 2.92813,-2.92813 7.80948,-2.76066 10.94557,0.37542 l 25.47497,25.47497 c 3.13609,3.13609 3.30355,8.01742 0.37541,10.94556 l -11.63645,11.63647 h 6.20074 l 1.73357,-1.73357 c 0.8376,-0.83761 2.23402,-0.78826 3.13113,0.10884 l 1.62472,1.62473 h 7.72451 l -5.48619,-5.48778 c -0.8971,-0.8971 -0.94646,-2.29351 -0.10883,-3.13113 l 4.53658,-4.5366 c 0.83762,-0.83761 2.23403,-0.78826 3.13114,0.10885 l 7.286,7.28758 c 0.8971,0.8971 0.94646,2.29194 0.10884,3.12955 l -2.62952,2.62953 h 7.66142 L 219.38776,108.90262 v -7.70716 c -0.0604,0.0826 -0.11954,0.16685 -0.19403,0.24133 l -4.53659,4.53503 c -0.83762,0.83761 -2.23403,0.78984 -3.13113,-0.10727 l -7.286,-7.287574 c -0.89712,-0.89711 -0.94646,-2.29352 -0.10885,-3.131135 l 4.53659,-4.535022 c 0.83762,-0.837617 2.23404,-0.789844 3.13114,0.107263 l 7.286,7.287574 c 0.11533,0.11532 0.21566,0.23954 0.30286,0.36911 v -7.79234 l -3.72739,-3.725813 c -0.8971,-0.897108 -0.94488,-2.293517 -0.10726,-3.131134 l 3.83466,-3.834652 v -6.202329 l -12.59553,12.595519 c -2.92813,2.92813 -7.80948,2.760666 -10.94556,-0.37542 L 170.3717,60.735204 c -3.13608,-3.136085 -3.30355,-8.019008 -0.37542,-10.947138 l 10.86038,-10.858805 h -6.51938 l -1.9402,1.940199 c -0.83762,0.837616 -2.23403,0.788261 -3.13113,-0.108841 l -1.83136,-1.831358 h -7.72608 l 5.69597,5.694406 c 0.8971,0.897101 0.94488,2.293516 0.10726,3.131133 l -4.5366,4.536595 c -0.83761,0.837618 -2.23403,0.788262 -3.13113,-0.10884 l -7.286,-7.285998 c -0.8971,-0.897109 -0.94646,-2.293519 -0.10884,-3.131134 l 2.83616,-2.836162 z m 54.83665,0.0079 17.95235,17.952361 c -0.17903,-9.865865 -8.08658,-17.773044 -17.95235,-17.952374 z m -56.31941,9.117358 c 0.56589,0.01961 1.13831,0.254964 1.58686,0.703518 l 7.28758,7.287577 c 0.8971,0.897102 0.94488,2.293517 0.10726,3.131134 l -4.53501,4.536595 c -0.83763,0.837618 -2.23404,0.788262 -3.13115,-0.10884 l -7.28756,-7.287576 c -0.89711,-0.897108 -0.94488,-2.291939 -0.10726,-3.129556 l 4.53501,-4.536596 c 0.41881,-0.418808 0.97839,-0.61587 1.54427,-0.596256 z m -11.42193,11.420358 c 0.56588,0.01961 1.13831,0.256542 1.58686,0.705096 l 7.28757,7.287578 c 0.8971,0.897102 0.94647,2.293517 0.10885,3.131134 l -4.5366,4.535017 c -0.83762,0.837617 -2.23403,0.789839 -3.13113,-0.107263 l -7.28758,-7.287577 c -0.89711,-0.897107 -0.94488,-2.293517 -0.10726,-3.131134 l 4.5366,-4.535017 c 0.4188,-0.418809 0.9768,-0.617447 1.54269,-0.597834 z m 24.43862,5.494075 c 1.9783,0.06798 3.98281,0.892698 5.55086,2.46074 l 25.47497,25.474974 c 3.13609,3.13609 3.30355,8.017434 0.37542,10.945564 l -15.856,15.856 c -2.92813,2.92814 -7.81105,2.76067 -10.94714,-0.37542 L 137.24951,93.857395 c -3.13609,-3.136085 -3.30355,-8.01901 -0.37542,-10.947138 l 15.856,-15.856 c 1.46406,-1.464067 3.4164,-2.153297 5.3947,-2.085319 z m -35.86056,5.92786 c 0.56589,0.01961 1.13989,0.256543 1.58844,0.705097 l 7.286,7.285999 c 0.89711,0.897103 0.94645,2.293518 0.10884,3.131134 l -4.5366,4.536596 c -0.83762,0.837618 -2.23402,0.789839 -3.13113,-0.107263 l -7.28599,-7.287578 c -0.89711,-0.897108 -0.94646,-2.293515 -0.10885,-3.131133 l 4.5366,-4.536596 c 0.4188,-0.418808 0.97681,-0.615867 1.54269,-0.596256 z M 110.8423,82.318759 c 0.56588,0.01961 1.13988,0.256544 1.58843,0.705098 l 7.28601,7.285999 c 0.89709,0.897103 0.94643,2.293522 0.10883,3.131142 l -4.53659,4.536588 c -0.83761,0.83762 -2.23403,0.78827 -3.13114,-0.10884 l -7.28599,-7.286 c -0.89711,-0.897109 -0.94646,-2.293516 -0.10885,-3.131134 l 4.5366,-4.536595 c 0.4188,-0.418801 0.97681,-0.615868 1.5427,-0.596258 z M 99.42194,93.740686 c 0.56588,0.0196 1.13831,0.256544 1.58686,0.705104 l 7.28757,7.286 c 0.89711,0.8971 0.94488,2.29352 0.10727,3.13114 l -4.53659,4.53658 c -0.83763,0.83763 -2.23246,0.78826 -3.12956,-0.10884 l -7.28758,-7.286 c -0.8971,-0.8971 -0.94488,-2.293514 -0.10726,-3.131134 l 4.53501,-4.536587 c 0.41882,-0.418809 0.9784,-0.615873 1.54428,-0.596263 z m 24.43862,5.4925 c 1.9783,0.068 3.98282,0.894284 5.55086,2.462324 l 25.47497,25.47338 c 3.13608,3.13609 3.30355,8.01744 0.37542,10.94557 l -15.856,15.85601 c -2.92815,2.92812 -7.81105,2.76224 -10.94714,-0.37385 L 102.9837,128.12165 c -3.13609,-3.13609 -3.30197,-8.01743 -0.37384,-10.94556 l 15.856,-15.85761 c 1.46406,-1.464074 3.4164,-2.153294 5.3947,-2.085324 z m 74.92796,2.501754 c 0.56588,0.0196 1.13989,0.25655 1.58843,0.7051 l 7.28601,7.28757 c 0.8971,0.89711 0.94646,2.29194 0.10883,3.12956 l -4.53659,4.5366 c -0.83762,0.8376 -2.23403,0.78982 -3.13114,-0.10727 l -7.28599,-7.28757 c -0.89711,-0.89711 -0.94646,-2.29352 -0.10884,-3.13114 l 4.53659,-4.53659 c 0.41881,-0.41881 0.97681,-0.61586 1.5427,-0.59626 z M 88,105.16264 c 0.56589,0.0196 1.13831,0.25496 1.58687,0.70351 l 7.28757,7.28758 c 0.89709,0.89711 0.94488,2.29352 0.10727,3.13113 l -4.53503,4.53502 c -0.83761,0.83761 -2.23403,0.78983 -3.13113,-0.10726 l -7.28758,-7.28758 c -0.8971,-0.89711 -0.94487,-2.29351 -0.10726,-3.13113 l 4.5366,-4.53502 c 0.4188,-0.41881 0.97681,-0.61586 1.54269,-0.59625 z m 99.36816,7.99424 c 0.56589,0.0196 1.13831,0.25655 1.58687,0.7051 l 7.28757,7.286 c 0.8971,0.8971 0.94488,2.29352 0.10726,3.13114 l -4.53659,4.53659 c -0.83762,0.83761 -2.23245,0.78826 -3.12956,-0.10884 l -7.28758,-7.286 c -0.8971,-0.89711 -0.94646,-2.29352 -0.10883,-3.13115 l 4.53659,-4.53658 c 0.41882,-0.41881 0.97839,-0.61587 1.54427,-0.59626 z m -110.79009,3.42611 c 0.56588,0.0196 1.13988,0.25654 1.58843,0.7051 l 7.28601,7.28758 c 0.8971,0.8971 0.94645,2.29193 0.10883,3.12956 l -4.53659,4.53659 c -0.83763,0.83762 -2.23403,0.78984 -3.13113,-0.10727 l -7.286,-7.28757 c -0.8971,-0.89711 -0.94647,-2.29352 -0.10884,-3.13114 l 4.53659,-4.53659 c 0.41881,-0.41881 0.97681,-0.61586 1.5427,-0.59626 z m 99.36815,7.99583 c 0.56589,0.0196 1.13831,0.25654 1.58687,0.7051 l 7.28758,7.28599 c 0.89709,0.89711 0.94487,2.29353 0.10726,3.13114 l -4.53502,4.53659 c -0.83762,0.83762 -2.23403,0.78827 -3.13114,-0.10883 l -7.28757,-7.28601 c -0.89711,-0.89711 -0.94487,-2.29351 -0.10727,-3.13113 l 4.53503,-4.5366 c 0.4188,-0.4188 0.97838,-0.61587 1.54426,-0.59625 z m -110.79009,3.42611 c 0.56588,0.0196 1.13989,0.25654 1.58844,0.7051 l 7.286,7.286 c 0.89711,0.8971 0.94645,2.29351 0.10884,3.13113 l -4.53659,4.53659 c -0.83762,0.83763 -2.23405,0.78827 -3.13114,-0.10883 l -7.286,-7.28601 c -0.8971,-0.89711 -0.94646,-2.29351 -0.10884,-3.13114 l 4.5366,-4.53659 c 0.4188,-0.4188 0.97681,-0.61586 1.54269,-0.59625 z m 24.4402,5.4925 c 1.9783,0.068 3.98282,0.89427 5.55086,2.46232 l 25.4734,25.47497 c 3.13609,3.13608 3.30513,8.01584 0.377,10.94397 L 105.14,188.23627 c -2.92813,2.92814 -7.80948,2.76067 -10.94555,-0.37542 L 68.71948,162.38746 c -3.13609,-3.13608 -3.30198,-8.019 -0.37385,-10.94713 l 15.856,-15.85601 c 1.46407,-1.46407 3.4164,-2.15487 5.3947,-2.08689 z m 74.92796,2.50333 c 0.56588,0.0196 1.13989,0.25497 1.58843,0.70351 l 7.28601,7.28757 c 0.8971,0.89711 0.94644,2.29354 0.10884,3.13114 l -4.53659,4.5366 c -0.83763,0.83761 -2.23404,0.78827 -3.13114,-0.10884 l -7.28757,-7.28757 c -0.89711,-0.89711 -0.94489,-2.29195 -0.10727,-3.12957 l 4.53659,-4.53659 c 0.41881,-0.4188 0.97681,-0.61586 1.5427,-0.59625 z M 53.7342,139.42687 c 0.56588,0.0196 1.13988,0.25654 1.58844,0.70509 l 7.28757,7.286 c 0.8971,0.8971 0.94488,2.29352 0.10727,3.13113 l -4.5366,4.5366 c -0.83761,0.83762 -2.23245,0.78826 -3.12956,-0.10884 l -7.28757,-7.286 c -0.89712,-0.8971 -0.94646,-2.29352 -0.10884,-3.13113 l 4.53659,-4.5366 c 0.41881,-0.4188 0.97682,-0.61587 1.5427,-0.59625 z m 99.36816,7.99424 c 0.56588,0.0196 1.13987,0.25654 1.58843,0.7051 l 7.286,7.28758 c 0.89711,0.8971 0.94645,2.29352 0.10885,3.13113 l -4.5366,4.53502 c -0.83762,0.83763 -2.23404,0.78984 -3.13114,-0.10727 l -7.286,-7.28756 c -0.89711,-0.89712 -0.94646,-2.29352 -0.10884,-3.13115 l 4.5366,-4.53501 c 0.41881,-0.41881 0.97681,-0.61745 1.5427,-0.59784 z m -11.42194,11.42194 c 0.56588,0.0196 1.13988,0.25654 1.58844,0.7051 l 7.28757,7.28599 c 0.89711,0.8971 0.94488,2.29354 0.10726,3.13114 l -4.5366,4.53659 c -0.83761,0.83762 -2.23401,0.78984 -3.13112,-0.10726 l -7.286,-7.28758 c -0.89711,-0.8971 -0.94645,-2.29352 -0.10884,-3.13113 l 4.53659,-4.5366 c 0.41881,-0.4188 0.97682,-0.61586 1.5427,-0.59625 z m -11.42036,11.42193 c 0.56588,0.0196 1.13831,0.25655 1.58686,0.7051 l 7.28758,7.286 c 0.8971,0.89711 0.94487,2.29352 0.10726,3.13113 l -4.53502,4.5366 c -0.83761,0.83762 -2.23403,0.78827 -3.13113,-0.10884 l -7.28758,-7.286 c -0.89711,-0.89711 -0.94488,-2.29351 -0.10726,-3.13113 l 4.53502,-4.5366 c 0.4188,-0.4188 0.97839,-0.61586 1.54427,-0.59626 z m -11.42193,11.42194 c 0.56588,0.0196 1.13831,0.25497 1.58686,0.70352 l 7.28757,7.28758 c 0.89712,0.89709 0.94646,2.29352 0.10884,3.13113 l -4.53659,4.5366 c -0.83762,0.83761 -2.23403,0.78825 -3.13114,-0.10885 l -7.28757,-7.28599 c -0.8971,-0.89711 -0.94489,-2.29352 -0.10727,-3.13114 l 4.5366,-4.53659 c 0.41881,-0.41881 0.97681,-0.61587 1.5427,-0.59626 z m -11.42194,11.42194 c 0.56588,0.0196 1.13989,0.25497 1.58844,0.70351 l 7.286,7.28758 c 0.89709,0.8971 0.94645,2.29352 0.10884,3.13114 l -4.5366,4.53502 c -0.8376,0.83762 -2.23402,0.78983 -3.13113,-0.10727 l -7.286,-7.28757 c -0.89711,-0.89711 -0.94645,-2.29353 -0.10885,-3.13115 l 4.5366,-4.53501 c 0.41881,-0.41881 0.97682,-0.61587 1.5427,-0.59625 z m -67.21764,9.28613 c 1.07274,8.19776 7.52553,14.65144 15.72349,15.7235 z"
       id="rect976-6"
       inkscape:connector-curvature="0" />
  </g>
  <g
     id="layer1"
     inkscape:groupmode="layer"
     inkscape:label="film strip"
     style="display:inline;opacity:1" />
  <g
     inkscape:groupmode="layer"
     id="layer2"
     inkscape:label="audio"
     style="display:inline">
    <path
       style="display:inline;fill:#73d216;stroke:#000000;stroke-width:0.40611544;stroke-linecap:butt;stroke-linejoin:miter;stroke-miterlimit:4;stroke-dasharray:none;stroke-opacity:1"
       d="M 56.824684,52.152723 53.868516,91.181534 52.882315,83.371355 51.898539,98.9862 50.912338,57.353974 48.94237,122.40017 V 75.566708 L 47.956169,125.00357 46.969977,114.59549 45.986192,125.00357 45,54.750579 42.043822,109.39425 41.05763,67.762032 39.087653,98.9862 38.101453,85.974744 37.117676,98.9862 36.131476,62.555227 33.175307,130.21035 h 48.284955 l -2.956169,-72.856376 -0.986201,28.62077 -0.983776,-7.80467 -1.972393,49.436876 -0.983776,-26.01736 -0.9862,18.21269 -0.986192,-41.632206 -1.969977,39.028816 -0.986201,-13.01145 -0.983776,7.8102 -0.9862,-15.614842 L 65.693208,125.00357 64.709424,62.555227 62.73703,98.9862 61.753255,62.555227 59.780861,85.974744 58.797077,70.365427 57.810885,88.578153 Z m 48.483176,0 -2.95618,39.028811 -0.9862,-7.810179 L 100.37929,98.9862 99.39551,57.353974 97.423117,122.40017 V 75.566708 L 96.439332,125.00357 95.45314,114.59549 94.466939,125.00357 93.483163,54.750579 90.526986,109.39425 89.540793,67.762032 87.570817,98.9862 86.584617,85.974744 85.598424,98.9862 84.61464,62.555227 81.658471,130.21035 h 48.284959 l -2.95618,-72.856376 -0.98619,28.62077 -0.98619,-7.80467 -1.96998,49.436876 -0.9862,-26.01736 -0.98378,18.21269 -0.98619,-41.632206 -1.96999,39.028816 -0.98618,-13.01145 -0.98621,7.8102 -0.98377,-15.614842 -0.98621,28.620772 -0.98619,-62.448343 -1.96997,36.430973 -0.98619,-36.430973 -1.96998,23.419517 -0.9862,-15.609317 -0.98379,18.212726 z m 24.63557,78.057627 h 48.28495 l -2.95617,-72.856376 -0.98619,28.62077 -0.98377,-7.80467 -1.9724,49.436876 -0.98379,-26.01736 -0.98619,18.21269 -0.9862,-41.632206 -1.96996,39.028816 -0.98621,-13.01145 -0.98378,7.8102 -0.9862,-15.614842 -0.98619,28.620772 -0.9862,-62.448343 -1.96997,36.430973 -0.9862,-36.430973 -1.96997,23.419517 -0.98621,-15.609317 -0.98377,18.212726 -0.98621,-36.42543 -2.95617,39.028811 -0.98618,-7.810179 -0.98378,15.614845 -0.9862,-41.632226 -1.96999,65.046196 V 75.566708 l -0.98618,49.436862 -0.9862,-10.40808 -0.98379,10.40808 -0.98618,-70.252991 -2.95618,54.643671 -0.9862,-41.632218 L 135.85577,98.9862 134.86958,85.974744 133.88581,98.9862 132.8996,62.555227 Z M 202.07599,52.152723 199.1198,91.181534 198.13361,83.371355 197.1474,98.9862 196.16363,57.353974 194.19124,122.40017 V 75.566708 l -0.98378,49.436862 -0.98621,-10.40808 -0.98619,10.40808 -0.98377,-70.252991 -2.95618,54.643671 -0.9862,-41.632218 -1.96997,31.224168 -0.9862,-13.011456 -0.9862,13.011456 -0.98378,-36.430973 -2.95617,67.655123 h 48.28497 l -2.95618,-72.856376 -0.98619,28.62077 -0.98621,-7.80467 -1.96997,49.436876 -0.98619,-26.01736 -0.98378,18.21269 -0.98619,-41.632206 -1.96999,39.028816 -0.9862,-13.01145 -0.98619,7.8102 -0.98378,-15.614842 -0.9862,28.620772 -0.98619,-62.448343 -1.96998,36.430973 -0.9862,-36.430973 -1.96997,23.419517 -0.98619,-15.609317 -0.9862,18.212726 z M 33.175307,130.4153 l 2.956169,67.65515 0.9862,-36.431 0.983777,13.01151 0.9862,-13.01151 1.969977,31.2242 0.986192,-41.63224 L 45,205.87507 l 0.986192,-70.25296 0.983785,10.40805 0.986192,-10.40805 0.986201,49.43689 v -46.83351 l 1.969968,65.0462 0.986201,-41.63224 0.983776,15.61485 0.986201,-7.80464 2.956168,39.02884 0.986201,-36.43096 0.986192,18.21269 0.983784,-15.60927 1.972394,23.41949 0.983775,-36.431 1.972394,36.431 0.983784,-62.44834 0.986193,28.62075 0.9862,-15.60929 0.983776,7.80464 0.986201,-13.01144 1.969977,39.02883 0.986192,-41.63224 0.9862,18.21826 0.983776,-26.02293 1.972393,49.43691 0.983776,-7.80464 0.986201,28.62073 2.956169,-72.85639 z m 48.483164,0 2.956169,67.65515 0.983784,-36.431 0.986193,13.01151 0.9862,-13.01151 1.969976,31.2242 0.986193,-41.63224 2.956177,54.64366 0.983776,-70.25296 0.986201,10.40805 0.986192,-10.40805 0.983785,49.43689 v -46.83351 l 1.972393,65.0462 0.98378,-41.63224 0.98619,15.61485 0.9862,-7.80464 2.95618,39.02884 0.98618,-36.43096 0.98379,18.21269 0.9862,-15.60927 1.96998,23.41949 0.98619,-36.431 1.96997,36.431 0.98619,-62.44834 0.98621,28.62075 0.98377,-15.60929 0.98621,7.80464 0.98618,-13.01144 1.96999,39.02883 0.98619,-41.63224 0.98378,18.21826 0.9862,-26.02293 1.96998,49.43691 0.98619,-7.80464 0.98619,28.62073 2.95618,-72.85639 z m 48.284959,0 2.95617,67.65515 0.98621,-36.431 0.98377,13.01151 0.98619,-13.01151 1.96998,31.2242 0.9862,-41.63224 2.95618,54.64366 0.98618,-70.25296 0.98379,10.40805 0.9862,-10.40805 0.98618,49.43689 v -46.83351 l 1.96999,65.0462 0.9862,-41.63224 0.98378,15.61485 0.98618,-7.80464 2.95617,39.02884 0.98621,-36.43096 0.98377,18.21269 0.98621,-15.60927 1.96997,23.41949 0.9862,-36.431 1.96997,36.431 0.9862,-62.44834 0.98619,28.62075 0.9862,-15.60929 0.98378,7.80464 0.98621,-13.01144 1.96996,39.02883 0.9862,-41.63224 0.98619,18.21826 0.98379,-26.02293 1.9724,49.43691 0.98377,-7.80464 0.98619,28.62073 2.95617,-72.85639 z m 48.48316,0 2.95617,67.65515 0.98378,-36.431 0.9862,13.01151 0.9862,-13.01151 1.96997,31.2242 0.9862,-41.63224 2.95618,54.64366 0.98377,-70.25296 0.98619,10.40805 0.98621,-10.40805 0.98378,49.43689 v -46.83351 l 1.97239,65.0462 0.98377,-41.63224 0.98621,15.61485 0.98619,-7.80464 2.95619,39.02884 0.98377,-36.43096 0.9862,18.21269 0.98619,-15.60927 1.96997,23.41949 0.9862,-36.431 1.96998,36.431 0.98619,-62.44834 0.9862,28.62075 0.98378,-15.60929 0.98619,7.80464 0.9862,-13.01144 1.96999,39.02883 0.98619,-41.63224 0.98378,18.21826 0.98619,-26.02293 1.96997,49.43691 0.98621,-7.80464 0.98619,28.62073 2.95618,-72.85639 z"
       id="path895"
       inkscape:connector-curvature="0" />
    <path
       style="display:inline;opacity:1;fill:#ffffff;stroke:#000000;stroke-width:0.11528362;stroke-linecap:butt;stroke-linejoin:miter;stroke-miterlimit:4;stroke-dasharray:none;stroke-opacity:1"
       d="m 56.824684,100.34613 -2.956168,14.96273 -0.986201,-2.99635 -0.983776,5.99272 -0.986201,-15.96472 -1.969968,24.94427 v -17.95911 l -0.986201,18.95151 -0.986192,-3.98876 -0.983785,3.98876 L 45,101.33854 l -2.956178,20.95544 -0.986192,-15.96466 -1.969977,11.97591 -0.9862,-4.99079 -0.983777,4.99079 -0.9862,-13.97034 -2.956169,25.93672 h 48.284955 l -2.956169,-27.9311 -0.986201,10.97393 -0.983776,-2.99636 -1.972393,18.96107 -0.983776,-9.98151 -0.9862,6.98516 -0.986192,-15.96472 -1.969977,14.97231 -0.986201,-4.99078 -0.983776,2.99635 -0.9862,-5.99272 -0.986193,10.97394 -0.983784,-23.94229 -1.972394,13.97034 -0.983775,-13.97034 -1.972394,8.97955 -0.983784,-5.9832 -0.986192,6.98518 z m 48.483176,0 -2.95618,14.96273 -0.9862,-2.99635 -0.98619,5.99272 -0.98378,-15.96472 -1.972393,24.94427 v -17.95911 l -0.983785,18.95151 -0.986192,-3.98876 -0.986201,3.98876 -0.983776,-26.93864 -2.956177,20.95544 -0.986193,-15.96466 -1.969976,11.97591 -0.9862,-4.99079 -0.986193,4.99079 -0.983784,-13.97034 -2.956169,25.93672 h 48.284959 l -2.95618,-27.9311 -0.98619,10.97393 -0.98619,-2.99636 -1.96998,18.96107 -0.9862,-9.98151 -0.98378,6.98516 -0.98619,-15.96472 -1.96999,14.97231 -0.98618,-4.99078 -0.98621,2.99635 -0.98377,-5.99272 -0.98621,10.97394 -0.98619,-23.94229 -1.96997,13.97034 -0.98619,-13.97034 -1.96998,8.97955 -0.9862,-5.9832 -0.98379,6.98518 z m 24.63557,29.92548 h 48.28495 l -2.95617,-27.9311 -0.98619,10.97393 -0.98377,-2.99636 -1.9724,18.96107 -0.98379,-9.98151 -0.98619,6.98516 -0.9862,-15.96472 -1.96996,14.97231 -0.98621,-4.99078 -0.98378,2.99635 -0.9862,-5.99272 -0.98619,10.97394 -0.9862,-23.94229 -1.96997,13.97034 -0.9862,-13.97034 -1.96997,8.97955 -0.98621,-5.9832 -0.98377,6.98518 -0.98621,-13.97029 -2.95617,14.96273 -0.98618,-2.99635 -0.98378,5.99272 -0.9862,-15.96472 -1.96999,24.94427 v -17.95911 l -0.98618,18.95151 -0.9862,-3.98876 -0.98379,3.98876 -0.98618,-26.93864 -2.95618,20.95544 -0.9862,-15.96466 -1.96998,11.97591 -0.98619,-4.99079 -0.98377,4.99079 -0.98621,-13.97034 z m 72.13256,-29.92548 -2.95619,14.96273 -0.98619,-2.99635 -0.98621,5.99272 -0.98377,-15.96472 -1.97239,24.94427 v -17.95911 l -0.98378,18.95151 -0.98621,-3.98876 -0.98619,3.98876 -0.98377,-26.93864 -2.95618,20.95544 -0.9862,-15.96466 -1.96997,11.97591 -0.9862,-4.99079 -0.9862,4.99079 -0.98378,-13.97034 -2.95617,25.93672 h 48.28497 l -2.95618,-27.9311 -0.98619,10.97393 -0.98621,-2.99636 -1.96997,18.96107 -0.98619,-9.98151 -0.98378,6.98516 -0.98619,-15.96472 -1.96999,14.97231 -0.9862,-4.99078 -0.98619,2.99635 -0.98378,-5.99272 -0.9862,10.97394 -0.98619,-23.94229 -1.96998,13.97034 -0.9862,-13.97034 -1.96997,8.97955 -0.98619,-5.9832 -0.9862,6.98518 z m -168.900683,30.01136 2.956169,25.93667 0.9862,-13.97034 0.983777,4.99079 0.9862,-4.99079 1.969977,11.97595 0.986192,-15.96471 L 45,159.29052 l 0.986192,-26.93865 0.983785,3.98876 0.986192,-3.98876 0.986201,18.95151 v -17.9591 l 1.969968,24.94426 0.986201,-15.96472 0.983776,5.99277 0.986201,-2.99635 2.956168,14.96273 0.986201,-13.9608 0.986192,6.97564 0.983784,-5.9832 1.972394,8.97955 0.983775,-13.97034 1.972394,13.97034 0.983784,-23.94229 0.986193,10.97393 0.9862,-5.9832 0.983776,2.98684 0.986201,-4.98122 1.969977,14.96275 0.986192,-15.96472 0.9862,6.98518 0.983776,-9.98153 1.972393,18.96107 0.983776,-2.99636 0.986201,10.97393 2.956169,-27.93105 z m 48.483164,0 2.956169,25.93667 0.983784,-13.97034 0.986193,4.99079 0.9862,-4.99079 1.969976,11.97595 0.986193,-15.96471 2.956177,20.95546 0.983776,-26.93865 0.986201,3.98876 0.986192,-3.98876 0.983785,18.95151 v -17.9591 l 1.972393,24.94426 0.98378,-15.96472 0.98619,5.99277 0.9862,-2.99635 2.95618,14.96273 0.98618,-13.9608 0.98379,6.97564 0.9862,-5.9832 1.96998,8.97955 0.98619,-13.97034 1.96997,13.97034 0.98619,-23.94229 0.98621,10.97393 0.98377,-5.9832 0.98621,2.98684 0.98618,-4.98122 1.96999,14.96275 0.98619,-15.96472 0.98378,6.98518 0.9862,-9.98153 1.96998,18.96107 0.98619,-2.99636 0.98619,10.97393 2.95618,-27.93105 z m 48.284959,0 2.95617,25.93667 0.98621,-13.97034 0.98377,4.99079 0.98619,-4.99079 1.96998,11.97595 0.9862,-15.96471 2.95618,20.95546 0.98618,-26.93865 0.98379,3.98876 0.9862,-3.98876 0.98618,18.95151 v -17.9591 l 1.96999,24.94426 0.9862,-15.96472 0.98378,5.99277 0.98618,-2.99635 2.95617,14.96273 0.98621,-13.9608 0.98377,6.97564 0.98621,-5.9832 1.96997,8.97955 0.9862,-13.97034 1.96997,13.97034 0.9862,-23.94229 0.98619,10.97393 0.9862,-5.9832 0.98378,2.98684 0.98621,-4.98122 1.96996,14.96275 0.9862,-15.96472 0.98619,6.98518 0.98379,-9.98153 1.9724,18.96107 0.98377,-2.99636 0.98619,10.97393 2.95617,-27.93105 z m 48.48316,0 2.95617,25.93667 0.98378,-13.97034 0.9862,4.99079 0.9862,-4.99079 1.96997,11.97595 0.9862,-15.96471 2.95618,20.95546 0.98377,-26.93865 0.98619,3.98876 0.98621,-3.98876 0.98378,18.95151 v -17.9591 l 1.97239,24.94426 0.98377,-15.96472 0.98621,5.99277 0.98619,-2.99635 2.95619,14.96273 0.98377,-13.9608 0.9862,6.97564 0.98619,-5.9832 1.96997,8.97955 0.9862,-13.97034 1.96998,13.97034 0.98619,-23.94229 0.9862,10.97393 0.98378,-5.9832 0.98619,2.98684 0.9862,-4.98122 1.96999,14.96275 0.98619,-15.96472 0.98378,6.98518 0.98619,-9.98153 1.96997,18.96107 0.98621,-2.99636 0.98619,10.97393 2.95618,-27.93105 z"
       id="path911"
       inkscape:connector-curvature="0" />
    <path
       sodipodi:type="star"
       style="display:inline;opacity:1;fill:#edd400;fill-opacity:1;fill-rule:nonzero;stroke:none;stroke-width:2.17420959;stroke-opacity:0.88627451"
       id="path858"
       sodipodi:sides="5"
       sodipodi:cx="31.435516"
       sodipodi:cy="117.43552"
       sodipodi:r1="15.373983"
       sodipodi:r2="7.6869917"
       sodipodi:arg1="0.78539816"
       sodipodi:arg2="1.4137167"
       inkscape:flatsided="false"
       inkscape:rounded="0"
       inkscape:randomized="0"
       d="m 42.306564,128.30656 -9.668537,-3.27869 -8.182153,6.10597 0.130483,-10.2085 -8.335545,-5.89484 9.74918,-3.03051 3.030503,-9.74918 5.894843,8.33555 10.208498,-0.13049 -6.105968,8.18216 z"
       inkscape:transform-center-x="0.74319231"
       inkscape:transform-center-y="-0.74319231" />
    <path
       sodipodi:type="star"
       style="display:inline;opacity:1;fill:#edd400;fill-opacity:1;fill-rule:nonzero;stroke:none;stroke-width:0.89680225;stroke-opacity:0.88627451"
       id="path864"
       sodipodi:sides="5"
       sodipodi:cx="86.484009"
       sodipodi:cy="57.484016"
       sodipodi:r1="12.682699"
       sodipodi:r2="6.3413496"
       sodipodi:arg1="0.78539816"
       sodipodi:arg2="1.4137167"
       inkscape:flatsided="false"
       inkscape:rounded="0"
       inkscape:randomized="0"
       d="m 95.452031,66.452039 -7.976017,-2.704746 -6.74983,5.037091 0.107641,-8.421455 -6.87637,-4.862924 8.042543,-2.5 2.499999,-8.042543 4.862924,6.876371 8.421456,-0.107642 -5.037091,6.749831 z"
       inkscape:transform-center-x="0.6130932"
       inkscape:transform-center-y="-0.61309319" />
    <path
       inkscape:transform-center-y="-0.34182184"
       inkscape:transform-center-x="0.34182184"
       d="m 232.508,28.446917 -4.44693,-1.507995 -3.76327,2.808362 0.06,-4.695269 -3.83383,-2.711257 4.48402,-1.393841 1.39384,-4.484012 2.71125,3.833828 4.69527,-0.06001 L 231,23.999996 Z"
       inkscape:randomized="0"
       inkscape:rounded="0"
       inkscape:flatsided="false"
       sodipodi:arg2="1.4137167"
       sodipodi:arg1="0.78539816"
       sodipodi:r2="3.5355339"
       sodipodi:r1="7.0710678"
       sodipodi:cy="23.446917"
       sodipodi:cx="227.508"
       sodipodi:sides="5"
       id="path878"
       style="display:inline;opacity:1;fill:#edd400;fill-opacity:1;fill-rule:nonzero;stroke:none;stroke-width:0.5;stroke-opacity:0.88627451"
       sodipodi:type="star" />
    <path
       inkscape:transform-center-y="-1.0254655"
       inkscape:transform-center-x="1.0254655"
       d="M 39.5,211.5 26.159238,206.97602 14.869407,215.4011 15.049449,201.3153 3.5479663,193.18152 17,189 l 4.181524,-13.45203 8.133772,11.50148 14.085807,-0.18004 -8.425086,11.28983 z"
       inkscape:randomized="0"
       inkscape:rounded="0"
       inkscape:flatsided="false"
       sodipodi:arg2="1.4137167"
       sodipodi:arg1="0.78539816"
       sodipodi:r2="10.606602"
       sodipodi:r1="21.213203"
       sodipodi:cy="196.5"
       sodipodi:cx="24.5"
       sodipodi:sides="5"
       id="path880"
       style="display:inline;opacity:1;fill:#edd400;fill-opacity:1;fill-rule:nonzero;stroke:none;stroke-width:3;stroke-opacity:0.88627451"
       sodipodi:type="star" />
    <path
       inkscape:transform-center-y="-1.3821829"
       inkscape:transform-center-x="1.3821829"
       d="M 130.98147,162.09769 113,156 97.782899,167.35583 98.02557,148.37015 82.523193,137.40697 l 18.131447,-5.63611 5.6361,-18.13144 10.96318,15.50238 18.98568,-0.24267 -11.35583,15.2171 z"
       inkscape:randomized="0"
       inkscape:rounded="0"
       inkscape:flatsided="false"
       sodipodi:arg2="1.4137167"
       sodipodi:arg1="0.78539816"
       sodipodi:r2="14.296203"
       sodipodi:r1="28.592407"
       sodipodi:cy="141.87981"
       sodipodi:cx="110.76358"
       sodipodi:sides="5"
       id="path882-3"
       style="display:inline;opacity:1;fill:#edd400;fill-opacity:1;fill-rule:nonzero;stroke:none;stroke-width:4.04357672;stroke-opacity:0.88627451"
       sodipodi:type="star" />
    <path
       sodipodi:type="star"
       style="display:inline;opacity:1;fill:#edd400;fill-opacity:1;fill-rule:nonzero;stroke:none;stroke-width:4.83718061;stroke-opacity:0.88627451"
       id="path884"
       sodipodi:sides="5"
       sodipodi:cx="220.32468"
       sodipodi:cy="222.10854"
       sodipodi:r1="34.204033"
       sodipodi:r2="17.102016"
       sodipodi:arg1="0.78539816"
       sodipodi:arg2="1.4137167"
       inkscape:flatsided="false"
       inkscape:rounded="0"
       inkscape:randomized="0"
       d="M 244.51058,246.29444 223.00002,239 l -18.20365,13.58455 0.2903,-22.71186 -18.54492,-13.11484 21.68997,-6.74227 6.74227,-21.68997 13.11484,18.54492 22.71186,-0.2903 -13.58455,18.20365 z"
       inkscape:transform-center-x="1.653454"
       inkscape:transform-center-y="-1.653454" />
    <path
       sodipodi:type="star"
       style="display:inline;opacity:1;fill:#edd400;fill-opacity:1;fill-rule:nonzero;stroke:none;stroke-width:1.20916367;stroke-opacity:0.88627451"
       id="path886"
       sodipodi:sides="5"
       sodipodi:cx="188.16919"
       sodipodi:cy="114.38183"
       sodipodi:r1="8.5500784"
       sodipodi:r2="4.2750392"
       sodipodi:arg1="0.78539816"
       sodipodi:arg2="1.4137167"
       inkscape:flatsided="false"
       inkscape:rounded="0"
       inkscape:randomized="0"
       d="m 194.21501,120.42765 -5.37706,-1.82342 -4.55041,3.39577 0.0726,-5.67734 -4.63572,-3.27836 5.4219,-1.68538 1.68538,-5.4219 3.27836,4.63572 5.67735,-0.0726 -3.39577,4.55042 z"
       inkscape:transform-center-x="0.41331851"
       inkscape:transform-center-y="-0.41331855" />
    <path
       inkscape:transform-center-y="-0.41331855"
       inkscape:transform-center-x="0.41331851"
       d="m 114.10501,242.85492 -5.37706,-1.82342 -4.55042,3.39577 0.0726,-5.67735 -4.635724,-3.27835 5.421904,-1.68538 1.68538,-5.42191 3.27836,4.63573 5.67734,-0.0726 -3.39576,4.55042 z"
       inkscape:randomized="0"
       inkscape:rounded="0"
       inkscape:flatsided="false"
       sodipodi:arg2="1.4137167"
       sodipodi:arg1="0.78539816"
       sodipodi:r2="4.2750392"
       sodipodi:r1="8.5500784"
       sodipodi:cy="236.8091"
       sodipodi:cx="108.05919"
       sodipodi:sides="5"
       id="path888"
       style="display:inline;opacity:1;fill:#edd400;fill-opacity:1;fill-rule:nonzero;stroke:none;stroke-width:1.20916367;stroke-opacity:0.88627451"
       sodipodi:type="star" />
    <path
       inkscape:transform-center-y="-0.74319231"
       inkscape:transform-center-x="0.74319231"
       d="m 184.2787,59.668529 -9.66854,-3.278695 -8.18215,6.105967 0.13048,-10.208498 -8.33554,-5.894842 9.74918,-3.030503 3.0305,-9.749181 5.89485,8.335545 10.20849,-0.130483 -6.10596,8.182153 z"
       inkscape:randomized="0"
       inkscape:rounded="0"
       inkscape:flatsided="false"
       sodipodi:arg2="1.4137167"
       sodipodi:arg1="0.78539816"
       sodipodi:r2="7.6869917"
       sodipodi:r1="15.373983"
       sodipodi:cy="48.797482"
       sodipodi:cx="173.40765"
       sodipodi:sides="5"
       id="path890"
       style="display:inline;opacity:1;fill:#edd400;fill-opacity:1;fill-rule:nonzero;stroke:none;stroke-width:2.17420959;stroke-opacity:0.88627451"
       sodipodi:type="star" />
    <path
       inkscape:transform-center-y="-0.41331855"
       inkscape:transform-center-x="0.41331851"
       d="m 42.214977,20.427641 -5.377055,-1.823412 -4.550417,3.395769 0.07257,-5.677348 -4.635725,-3.278354 5.421904,-1.685383 1.685382,-5.4219031 3.278354,4.6357251 5.677349,-0.07257 -3.39577,4.550418 z"
       inkscape:randomized="0"
       inkscape:rounded="0"
       inkscape:flatsided="false"
       sodipodi:arg2="1.4137167"
       sodipodi:arg1="0.78539816"
       sodipodi:r2="4.2750392"
       sodipodi:r1="8.5500784"
       sodipodi:cy="14.381823"
       sodipodi:cx="36.169159"
       sodipodi:sides="5"
       id="path892"
       style="display:inline;opacity:1;fill:#edd400;fill-opacity:1;fill-rule:nonzero;stroke:none;stroke-width:1.20916367;stroke-opacity:0.88627451"
       sodipodi:type="star" />
    <path
       sodipodi:type="star"
       style="display:inline;opacity:1;fill:#edd400;fill-opacity:1;fill-rule:nonzero;stroke:none;stroke-width:1.20916367;stroke-opacity:0.88627451"
       id="path894"
       sodipodi:sides="5"
       sodipodi:cx="240.05917"
       sodipodi:cy="140.8091"
       sodipodi:r1="8.5500784"
       sodipodi:r2="4.2750392"
       sodipodi:arg1="0.78539816"
       sodipodi:arg2="1.4137167"
       inkscape:flatsided="false"
       inkscape:rounded="0"
       inkscape:randomized="0"
       d="m 246.10499,146.85492 -5.37705,-1.82342 -4.55042,3.39577 0.0726,-5.67735 -4.63573,-3.27835 5.4219,-1.68538 1.68539,-5.42191 3.27835,4.63573 5.67735,-0.0726 -3.39577,4.55042 z"
       inkscape:transform-center-x="0.41331851"
       inkscape:transform-center-y="-0.41331855" />
    <path
       sodipodi:type="star"
       style="display:inline;opacity:1;fill:#edd400;fill-opacity:1;fill-rule:nonzero;stroke:none;stroke-width:1.20916367;stroke-opacity:0.88627451"
       id="path879"
       sodipodi:sides="5"
       sodipodi:cx="18.059196"
       sodipodi:cy="60.80909"
       sodipodi:r1="8.5500784"
       sodipodi:r2="4.2750392"
       sodipodi:arg1="0.78539816"
       sodipodi:arg2="1.4137167"
       inkscape:flatsided="false"
       inkscape:rounded="0"
       inkscape:randomized="0"
       d="m 24.105015,66.854908 -5.377055,-1.823412 -4.550418,3.395769 0.07257,-5.677348 -4.6357253,-3.278354 5.4219033,-1.685383 1.685383,-5.421903 3.278354,4.635725 5.677348,-0.07257 -3.395769,4.550418 z"
       inkscape:transform-center-x="0.41331851"
       inkscape:transform-center-y="-0.41331855" />
    <path
       inkscape:transform-center-y="-0.41331855"
       inkscape:transform-center-x="0.41331851"
       d="m 160.10499,199.85492 -5.37705,-1.82342 -4.55042,3.39577 0.0726,-5.67735 -4.63573,-3.27835 5.4219,-1.68538 1.68539,-5.42191 3.27835,4.63573 5.67735,-0.0726 -3.39577,4.55042 z"
       inkscape:randomized="0"
       inkscape:rounded="0"
       inkscape:flatsided="false"
       sodipodi:arg2="1.4137167"
       sodipodi:arg1="0.78539816"
       sodipodi:r2="4.2750392"
       sodipodi:r1="8.5500784"
       sodipodi:cy="193.8091"
       sodipodi:cx="154.05917"
       sodipodi:sides="5"
       id="path881"
       style="display:inline;opacity:1;fill:#edd400;fill-opacity:1;fill-rule:nonzero;stroke:none;stroke-width:1.20916367;stroke-opacity:0.88627451"
       sodipodi:type="star" />
  </g>
  <g
     inkscape:groupmode="layer"
     id="layer5"
     inkscape:label="ffmpeg"
     style="display:none">
    <path
       style="color:#000000;font-style:normal;font-variant:normal;font-weight:normal;font-stretch:normal;font-size:medium;line-height:normal;font-family:sans-serif;font-variant-ligatures:normal;font-variant-position:normal;font-variant-caps:normal;font-variant-numeric:normal;font-variant-alternates:normal;font-feature-settings:normal;text-indent:0;text-align:start;text-decoration:none;text-decoration-line:none;text-decoration-style:solid;text-decoration-color:#000000;letter-spacing:normal;word-spacing:normal;text-transform:none;writing-mode:lr-tb;direction:ltr;text-orientation:mixed;dominant-baseline:auto;baseline-shift:baseline;text-anchor:start;white-space:normal;shape-padding:0;clip-rule:nonzero;display:inline;overflow:visible;visibility:visible;opacity:1;isolation:auto;mix-blend-mode:normal;color-interpolation:sRGB;color-interpolation-filters:linearRGB;solid-color:#000000;solid-opacity:1;vector-effect:none;fill:#73d216;fill-opacity:1;fill-rule:nonzero;stroke:#4e9a06;stroke-width:6.26205349;stroke-linecap:round;stroke-linejoin:round;stroke-miterlimit:4;stroke-dasharray:none;stroke-dashoffset:0;stroke-opacity:1;color-rendering:auto;image-rendering:auto;shape-rendering:auto;text-rendering:auto;enable-background:accumulate"
       d="M 46.21789,49.048811 V 50 H 94 L 47.113323,96.8867 v 58.41606 L 152.41607,50 h 50.99422 L 51.220872,206.94535 h 53.636008 l 99.20177,-99.20181 v 55.72603 l -43.4758,43.47578 h 44.67958 l -1.69245,-0.9512 h -40.69089 l 42.13076,-42.13076 V 105.44734 L 104.46303,205.99415 H 53.468798 L 205.65821,49.048811 H 152.0222 L 48.064507,153.00653 V 97.28055 L 96.2962,49.048811 Z"
       id="path4593"
       inkscape:connector-curvature="0"
       sodipodi:nodetypes="ccccccccccccccccccccccccc" />
  </g>
  <g
     inkscape:groupmode="layer"
     id="layer7"
     inkscape:label="freccie"
     style="display:inline" />
</svg>
