<?xml version="1.0" encoding="UTF-8" standalone="no"?>
<!-- Created with Inkscape (http://www.inkscape.org/) -->

<svg
   xmlns:osb="http://www.openswatchbook.org/uri/2009/osb"
   xmlns:dc="http://purl.org/dc/elements/1.1/"
   xmlns:cc="http://creativecommons.org/ns#"
   xmlns:rdf="http://www.w3.org/1999/02/22-rdf-syntax-ns#"
   xmlns:svg="http://www.w3.org/2000/svg"
   xmlns="http://www.w3.org/2000/svg"
   xmlns:xlink="http://www.w3.org/1999/xlink"
   xmlns:sodipodi="http://sodipodi.sourceforge.net/DTD/sodipodi-0.dtd"
   xmlns:inkscape="http://www.inkscape.org/namespaces/inkscape"
   width="256px"
   height="256px"
   viewBox="0 0 256 256"
   version="1.1"
   id="SVGRoot"
   sodipodi:docname="videomass_wizard-v2.svg"
   inkscape:version="0.92.4 (5da689c313, 2019-01-14)"
   enable-background="new">
  <sodipodi:namedview
     id="base"
     pagecolor="#ffffff"
     bordercolor="#666666"
     borderopacity="1.0"
     inkscape:pageopacity="0.0"
     inkscape:pageshadow="2"
     inkscape:zoom="3.2809755"
     inkscape:cx="36.469193"
     inkscape:cy="147.68648"
     inkscape:document-units="px"
     inkscape:current-layer="layer3"
     showgrid="true"
     inkscape:window-width="1920"
     inkscape:window-height="1015"
     inkscape:window-x="0"
     inkscape:window-y="0"
     inkscape:window-maximized="1"
     inkscape:grid-bbox="true"
     inkscape:measure-start="110,130"
     inkscape:measure-end="0,0"
     showguides="true">
    <inkscape:grid
       type="xygrid"
       id="grid5114" />
  </sodipodi:namedview>
  <defs
     id="defs4485">
    <inkscape:path-effect
       effect="bspline"
       id="path-effect4551"
       is_visible="true"
       weight="33.333333"
       steps="2"
       helper_size="0"
       apply_no_weight="true"
       apply_with_weight="true"
       only_selected="false" />
    <inkscape:path-effect
       effect="skeletal"
       id="path-effect4547"
       is_visible="true"
       pattern="M 0,5 C 0,2.24 2.24,0 5,0 7.76,0 10,2.24 10,5 10,7.76 7.76,10 5,10 2.24,10 0,7.76 0,5 Z"
       copytype="single_stretched"
       prop_scale="1"
       scale_y_rel="false"
       spacing="0"
       normal_offset="0"
       tang_offset="0"
       prop_units="false"
       vertical_pattern="false"
       fuse_tolerance="0" />
    <inkscape:path-effect
       effect="bspline"
       id="path-effect4545"
       is_visible="true"
       weight="33.333333"
       steps="2"
       helper_size="0"
       apply_no_weight="true"
       apply_with_weight="true"
       only_selected="false" />
    <inkscape:path-effect
       effect="skeletal"
       id="path-effect4541"
       is_visible="true"
       pattern="M 0,5 C 0,2.24 2.24,0 5,0 7.76,0 10,2.24 10,5 10,7.76 7.76,10 5,10 2.24,10 0,7.76 0,5 Z"
       copytype="single_stretched"
       prop_scale="1"
       scale_y_rel="false"
       spacing="0"
       normal_offset="0"
       tang_offset="0"
       prop_units="false"
       vertical_pattern="false"
       fuse_tolerance="0" />
    <inkscape:path-effect
       effect="spiro"
       id="path-effect4539"
       is_visible="true" />
    <inkscape:path-effect
       effect="bspline"
       id="path-effect4535"
       is_visible="true"
       weight="33.333333"
       steps="2"
       helper_size="0"
       apply_no_weight="true"
       apply_with_weight="true"
       only_selected="false" />
    <inkscape:path-effect
       effect="skeletal"
       id="path-effect4531"
       is_visible="true"
       pattern="M 0,5 C 0,2.24 2.24,0 5,0 7.76,0 10,2.24 10,5 10,7.76 7.76,10 5,10 2.24,10 0,7.76 0,5 Z"
       copytype="single_stretched"
       prop_scale="1"
       scale_y_rel="false"
       spacing="0"
       normal_offset="0"
       tang_offset="0"
       prop_units="false"
       vertical_pattern="false"
       fuse_tolerance="0" />
    <inkscape:path-effect
       effect="bspline"
       id="path-effect4529"
       is_visible="true"
       weight="33.333333"
       steps="2"
       helper_size="0"
       apply_no_weight="true"
       apply_with_weight="true"
       only_selected="false" />
    <inkscape:path-effect
       effect="skeletal"
       id="path-effect4525"
       is_visible="true"
       pattern="M 0,5 C 0,2.24 2.24,0 5,0 7.76,0 10,2.24 10,5 10,7.76 7.76,10 5,10 2.24,10 0,7.76 0,5 Z"
       copytype="single_stretched"
       prop_scale="1"
       scale_y_rel="false"
       spacing="0"
       normal_offset="0"
       tang_offset="0"
       prop_units="false"
       vertical_pattern="false"
       fuse_tolerance="0" />
    <inkscape:path-effect
       effect="bspline"
       id="path-effect4523"
       is_visible="true"
       weight="33.333333"
       steps="2"
       helper_size="0"
       apply_no_weight="true"
       apply_with_weight="true"
       only_selected="false" />
    <inkscape:path-effect
       effect="bspline"
       id="path-effect4519"
       is_visible="true"
       weight="33.333333"
       steps="2"
       helper_size="0"
       apply_no_weight="true"
       apply_with_weight="true"
       only_selected="false" />
    <pattern
       inkscape:isstock="true"
       inkscape:stockid="Stripes 1:1"
       id="Strips1_1"
       patternTransform="translate(0,0) scale(10,10)"
       height="1"
       width="2"
       patternUnits="userSpaceOnUse"
       inkscape:collect="always">
      <rect
         id="rect5447"
         height="2"
         width="1"
         y="-0.5"
         x="0"
         style="fill:black;stroke:none" />
    </pattern>
    <linearGradient
       id="linearGradient4727"
       osb:paint="solid">
      <stop
         style="stop-color:#ce5c00;stop-opacity:1;"
         offset="0"
         id="stop4725" />
    </linearGradient>
    <pattern
       patternUnits="userSpaceOnUse"
       width="55"
       height="90"
       patternTransform="translate(-60,50.5)"
       id="pattern6214">
      <g
         style="fill:url(#Strips1_1);fill-opacity:1"
         transform="translate(-15,-28.5)"
         id="g4691">
        <rect
           style="opacity:0.81499999;fill:url(#Strips1_1);fill-opacity:1;stroke:none;stroke-width:4.52699995;stroke-linecap:round;stroke-linejoin:bevel;stroke-miterlimit:17.60000038;stroke-dasharray:none;stroke-dashoffset:0;stroke-opacity:1;paint-order:stroke fill markers"
           id="rect4683"
           width="30"
           height="30"
           x="40"
           y="59"
           ry="7.9000001" />
        <path
           inkscape:connector-curvature="0"
           style="opacity:0.81499999;fill:url(#Strips1_1);fill-opacity:1;stroke:none;stroke-width:8.60130024;stroke-linecap:round;stroke-linejoin:bevel;stroke-miterlimit:17.60000038;stroke-dasharray:none;stroke-dashoffset:0;stroke-opacity:1;paint-order:stroke fill markers"
           d="m 15,28.5 v 90 l 45,-45 z"
           id="path4687" />
      </g>
    </pattern>
    <linearGradient
       inkscape:collect="always"
       xlink:href="#linearGradient1141"
       id="linearGradient857"
       gradientUnits="userSpaceOnUse"
       gradientTransform="matrix(1.5311073,1.1277739e-8,-1.1277739e-8,1.5311073,410.36862,-68.244713)"
       x1="-284.72046"
       y1="166.05284"
       x2="-78.987007"
       y2="133.39673" />
    <linearGradient
       inkscape:collect="always"
       id="linearGradient1141">
      <stop
         style="stop-color:#2b0000;stop-opacity:1;"
         offset="0"
         id="stop1137" />
      <stop
         style="stop-color:#290000;stop-opacity:0.03308824"
         offset="1"
         id="stop1139" />
    </linearGradient>
  </defs>
  <metadata
     id="metadata4488">
    <rdf:RDF>
      <cc:Work
         rdf:about="">
        <dc:format>image/svg+xml</dc:format>
        <dc:type
           rdf:resource="http://purl.org/dc/dcmitype/StillImage" />
        <dc:title />
      </cc:Work>
    </rdf:RDF>
  </metadata>
  <g
     inkscape:groupmode="layer"
     id="layer3"
     inkscape:label="background_1"
     style="display:inline" />
  <g
     inkscape:groupmode="layer"
     id="g858"
     inkscape:label="background_2"
     style="display:inline" />
  <g
     style="display:inline"
     inkscape:label="film-strip"
     id="g4738"
     inkscape:groupmode="layer">
    <path
       style="display:inline;opacity:1;fill:url(#linearGradient857);fill-opacity:1;stroke:none;stroke-width:10.72368813;stroke-linecap:round;stroke-linejoin:bevel;stroke-miterlimit:17.60000038;stroke-dasharray:none;stroke-dashoffset:0;stroke-opacity:0.97647059;paint-order:stroke fill markers"
       d="M 154.67713,18 16.106814,158.08203 v 59.33008 c 0,12.55386 10.1063,22.66016 22.66016,22.66016 h 57.55078 L 238.17909,96.66211 V 40.660156 C 238.17909,28.106294 228.07279,18 215.51893,18 Z"
       id="path853"
       inkscape:connector-curvature="0" />
    <path
       style="display:inline;opacity:1;fill:#280b0b;fill-opacity:0.97794118;stroke:none;stroke-width:10.72368813;stroke-linecap:round;stroke-linejoin:bevel;stroke-miterlimit:17.60000038;stroke-dasharray:none;stroke-dashoffset:0;stroke-opacity:0.97647059;paint-order:stroke fill markers"
       d="m 101.51698,18 -85.410166,85.41211 v 12.68945 l 8.44141,-8.43945 c 0.79397,-0.79396 1.85101,-1.16803 2.92383,-1.13086 1.07279,0.0372 2.16133,0.48752 3.01171,1.33789 l 13.81446,13.81445 c 1.70073,1.70073 1.79304,4.34563 0.20508,5.9336 l -8.59961,8.59961 c -1.58798,1.58799 -4.23676,1.49761 -5.9375,-0.20313 l -13.8125,-13.81445 c -0.0177,-0.0177 -0.0295,-0.0387 -0.0469,-0.0566 v 14.65625 l 6.53711,6.53711 c 1.70074,1.70073 1.79303,4.34759 0.20508,5.93554 l -6.74219,6.74219 v 12.35938 l 25.82031,-25.81836 c 2.77559,-2.7756 6.47608,-4.08591 10.22657,-3.95703 3.75048,0.12893 7.54877,1.69524 10.52148,4.66796 l 48.294926,48.29493 c 5.94543,5.94541 6.26604,15.19685 0.71485,20.74804 l -27.763686,27.76368 h 11.83204 c 0.10039,-0.13043 0.19123,-0.26741 0.31054,-0.38672 l 8.601576,-8.59961 c 0.79399,-0.79396 1.85101,-1.16802 2.92382,-1.13086 1.07279,0.0372 2.15746,0.48363 3.00782,1.33398 l 8.7832,8.78321 h 30.73242 l 88.06641,-88.06836 V 127.6934 l -11.99024,-11.99024 c -1.70073,-1.70073 -1.795,-4.34759 -0.20703,-5.93554 l 8.59961,-8.60156 c 0.79399,-0.794 1.85492,-1.16805 2.92773,-1.13086 v 0.002 c 0.22381,0.008 0.44728,0.0424 0.66993,0.0859 V 85.814453 L 211.5404,112.45312 c -5.55118,5.55119 -14.8085,5.23255 -20.75391,-0.71289 L 142.49354,63.449219 c -5.9454,-5.945427 -6.26211,-15.202731 -0.71094,-20.753907 L 166.47792,18 h -12.83399 c -0.18801,0.496522 -0.47909,0.957608 -0.875,1.353516 l -8.59961,8.597656 c -1.58796,1.587958 -4.23676,1.497614 -5.9375,-0.203125 L 128.48573,18 Z m 95.73047,0 40.93164,40.933594 V 40.660156 c 0,-3.177956 -0.64926,-6.197456 -1.82032,-8.9375 L 224.45643,19.820312 C 221.71634,18.649209 218.69695,18 215.51893,18 Z m -83.16407,1.919922 h 0.002 c 1.07281,0.03718 2.16136,0.485568 3.01172,1.335937 l 13.8125,13.8125 c 1.70074,1.700738 1.79303,4.349529 0.20507,5.9375 l -8.59961,8.59961 c -1.58797,1.587966 -4.2348,1.49761 -5.93554,-0.203125 L 102.76506,35.587891 c -1.70075,-1.70074 -1.79498,-4.349543 -0.20703,-5.9375 l 8.60157,-8.59961 c 0.79397,-0.793976 1.85104,-1.168051 2.92382,-1.130859 z M 92.431034,41.572266 c 1.0728,0.03717 2.16136,0.487517 3.01172,1.33789 l 13.812506,13.8125 c 1.70072,1.700731 1.79498,4.347584 0.20703,5.935547 l -8.60156,8.601563 c -1.587976,1.587966 -4.234806,1.493702 -5.935556,-0.207032 l -13.8125,-13.8125 c -1.70076,-1.70074 -1.795,-4.347571 -0.20703,-5.935546 l 8.60156,-8.601563 c 0.79396,-0.793967 1.85101,-1.168034 2.92383,-1.130859 z m -21.65039,21.654296 c 1.0728,0.03717 2.15743,0.487517 3.00781,1.337891 l 13.81446,13.8125 c 1.70073,1.700737 1.79303,4.347599 0.20507,5.935547 l -8.60156,8.60156 c -1.58798,1.58798 -4.23286,1.49371 -5.93359,-0.20703 L 59.458374,78.894531 c -1.70074,-1.700742 -1.79109,-4.349534 -0.20312,-5.9375 l 8.59766,-8.599609 c 0.79399,-0.793985 1.85493,-1.168045 2.92773,-1.13086 z m 46.330086,10.414063 c 3.75047,0.128883 7.55073,1.695257 10.52343,4.667969 l 48.29493,48.292966 c 5.94541,5.94541 6.26407,15.19883 0.71289,20.75 l -30.06055,30.06055 c -5.55116,5.55118 -14.80851,5.23645 -20.75391,-0.70899 L 77.532594,128.40625 c -5.94542,-5.9454 -6.26016,-15.19881 -0.70898,-20.75 l 30.060546,-30.0625 c 2.77558,-2.775591 6.47607,-4.081986 10.22657,-3.953125 z M 49.126344,84.880859 c 1.07281,0.03721 2.15743,0.483608 3.00781,1.333985 l 13.81641,13.816406 c 1.70071,1.70074 1.79108,4.3476 0.20313,5.93555 l -8.59766,8.59765 c -1.58796,1.58797 -4.23482,1.49761 -5.93555,-0.20312 l -13.8164,-13.81641 c -1.70074,-1.70074 -1.79109,-4.34757 -0.20313,-5.93554 l 8.60156,-8.597661 c 0.79398,-0.793989 1.85102,-1.168038 2.92383,-1.13086 z M 215.85487,121.68945 c 1.0728,0.0372 2.15939,0.48753 3.00976,1.33789 l 13.81446,13.8125 c 1.70073,1.70075 1.79107,4.34953 0.20312,5.9375 l -8.59765,8.59961 c -1.58797,1.58797 -4.23482,1.4937 -5.93555,-0.20703 L 204.5326,137.35547 c -1.70075,-1.70076 -1.79107,-4.34758 -0.20312,-5.93555 l 8.59765,-8.59961 c 0.79398,-0.79398 1.85493,-1.16803 2.92774,-1.13086 z m -21.65235,21.6543 c 1.07279,0.0372 2.15941,0.48362 3.00977,1.33398 l 13.81445,13.81446 c 1.70074,1.70074 1.79498,4.34954 0.20703,5.9375 l -8.60156,8.59961 c -1.58796,1.58796 -4.23482,1.49371 -5.93555,-0.20703 l -13.8164,-13.81446 c -1.70075,-1.70075 -1.79108,-4.34563 -0.20313,-5.93359 l 8.60157,-8.59961 c 0.79396,-0.79397 1.85101,-1.16802 2.92382,-1.13086 z m -21.65429,21.65039 c 1.07279,0.0372 2.16134,0.48752 3.01172,1.33789 l 13.8125,13.81445 c 1.70073,1.70074 1.79496,4.3476 0.20703,5.93555 l -8.59961,8.59961 c -1.58797,1.58798 -4.2348,1.49763 -5.93555,-0.20312 l -13.81445,-13.81641 c -1.70075,-1.70075 -1.79501,-4.34757 -0.20703,-5.93555 l 8.59961,-8.59765 c 0.79399,-0.79399 1.85297,-1.17196 2.92578,-1.13477 z m -21.6543,21.6543 c 1.0728,0.0372 2.16135,0.48557 3.01172,1.33594 l 13.81445,13.81445 c 1.70073,1.70072 1.79108,4.34761 0.20313,5.93555 l -8.59961,8.60156 c -1.58797,1.58795 -4.2348,1.49758 -5.93555,-0.20313 l -13.81445,-13.8164 c -1.70075,-1.70074 -1.79303,-4.34759 -0.20508,-5.93555 l 8.59961,-8.60156 c 0.794,-0.79397 1.85298,-1.16608 2.92578,-1.12891 z m -134.787116,10.25 v 20.51367 c 0,5.35689 1.84432,10.26421 4.92969,14.13477 l 3.59765,3.5957 c 3.87037,3.08479 8.77648,4.92969 14.13282,4.92969 h 20.51562 z m 113.136726,11.40234 c 1.0728,0.0372 2.15743,0.48752 3.00781,1.33789 l 13.81446,13.8125 c 1.70073,1.70074 1.79107,4.34956 0.20312,5.9375 l -8.59766,8.59961 c -1.58796,1.58797 -4.2348,1.49371 -5.93554,-0.20703 l -13.81641,-13.8125 c -1.70076,-1.70075 -1.79109,-4.34952 -0.20312,-5.9375 l 8.59961,-8.59961 c 0.79396,-0.79397 1.85492,-1.16804 2.92773,-1.13086 z"
       id="path855"
       inkscape:connector-curvature="0" />
    <path
       style="display:inline;fill:#73d216;stroke:#000000;stroke-width:0.47400001;stroke-linecap:butt;stroke-linejoin:miter;stroke-miterlimit:4;stroke-dasharray:none;stroke-opacity:1"
       d="M 44.033544,39.929328 40.583234,85.482035 39.432184,76.366339 38.283964,94.5913 37.132914,46 34.833654,121.91905 V 67.257099 l -1.15105,57.700531 -1.15104,-12.14786 -1.14823,12.14786 -1.15104,-81.996198 -3.45032,63.777678 -1.15104,-48.591285 -2.29927,36.443475 -1.15105,-15.1864 -1.14822,15.1864 -1.15105,-42.520628 -3.45031,78.964078 h 56.35607 L 69.336794,46 l -1.15105,33.4049 -1.14822,-9.109267 -2.30209,57.700547 -1.14822,-30.36632 -1.15105,21.25705 -1.15104,-48.591277 -2.29927,45.552707 -1.15105,-15.18639 -1.14822,9.11572 -1.15105,-18.22495 -1.15104,33.40491 -1.14823,-72.886958 -2.30209,42.520628 -1.14822,-42.520628 -2.30209,27.334228 -1.14823,-18.218507 -1.15104,21.257091 z m 56.587426,0 -3.450326,45.552707 -1.15105,-9.115696 L 94.868554,94.5913 93.720334,46 91.418244,121.91905 V 67.257099 l -1.14823,57.700531 -1.15104,-12.14786 -1.15105,12.14786 -1.14822,-81.996198 -3.45032,63.777678 -1.15104,-48.591285 -2.29927,36.443475 -1.15105,-15.1864 -1.15104,15.1864 -1.14823,-42.520628 -3.45031,78.964078 H 129.37453 L 125.92421,46 l -1.15105,33.4049 -1.15104,-9.109267 -2.29927,57.700547 -1.15104,-30.36632 -1.14823,21.25705 -1.15104,-48.591277 -2.29928,45.552707 -1.15103,-15.18639 -1.15106,9.11572 -1.14822,-18.22495 -1.15105,33.40491 L 109.82086,52.070672 107.52159,94.5913 106.37055,52.070672 104.07128,79.4049 102.92024,61.186393 101.772,82.443484 Z m 28.75356,91.105422 h 56.35606 L 182.28028,46 l -1.15104,33.4049 -1.14822,-9.109267 -2.30209,57.700547 -1.14824,-30.36632 -1.15103,21.25705 -1.15106,-48.591277 -2.29925,45.552707 -1.15106,-15.18639 -1.14822,9.11572 -1.15105,-18.22495 -1.15104,33.40491 -1.15104,-72.886958 -2.29927,42.520628 -1.15105,-42.520628 -2.29926,27.334228 -1.15105,-18.218507 -1.14823,21.257091 -1.15105,-42.514156 -3.45031,45.552707 -1.15104,-9.115696 L 151.22746,94.5913 150.07641,46 147.77714,121.91905 V 67.257099 l -1.15104,57.700531 -1.15105,-12.14786 -1.14823,12.14786 -1.15103,-81.996198 -3.45032,63.777678 -1.15105,-48.591285 -2.29927,36.443475 -1.15104,-15.1864 -1.14822,15.1864 -1.15105,-42.520628 z M 213.56446,39.929328 210.11413,85.482035 208.96309,76.366339 207.81204,94.5913 206.66382,46 204.36173,121.91905 V 67.257099 l -1.14822,57.700531 -1.15106,-12.14786 -1.15103,12.14786 -1.14822,-81.996198 -3.45032,63.777678 -1.15105,-48.591285 -2.29927,36.443475 -1.15104,-15.1864 -1.15105,15.1864 -1.14822,-42.520628 -3.45032,78.964078 h 56.35609 L 238.86769,46 l -1.15104,33.4049 -1.15105,-9.109267 -2.29926,57.700547 -1.15105,-30.36632 -1.14822,21.25705 -1.15104,-48.591277 -2.29928,45.552707 -1.15105,-15.18639 -1.15104,9.11572 -1.14822,-18.22495 -1.15105,33.40491 -1.15104,-72.886958 -2.29927,42.520628 -1.15105,-42.520628 -2.29926,27.334228 -1.15105,-18.218507 -1.15104,21.257091 z m -197.133426,91.344632 3.45031,78.9641 1.15105,-42.52065 1.14822,15.18645 1.15105,-15.18645 2.29927,36.4435 1.15104,-48.59131 3.45032,63.77768 1.15104,-81.99616 1.14823,12.14781 1.15104,-12.14781 1.15105,57.70055 v -54.66201 l 2.29926,75.91906 1.15105,-48.59131 1.14822,18.22496 1.15105,-9.10923 3.45031,45.55273 1.15105,-42.52061 1.15104,21.25706 1.14823,-18.21846 2.30209,27.3342 1.14822,-42.52065 2.30209,42.52065 1.14823,-72.88694 1.15104,33.40488 1.15105,-18.21848 1.14822,9.10923 1.15105,-15.18638 2.29927,45.55273 1.15104,-48.59131 1.15105,21.26354 1.14822,-30.37281 2.30209,57.70058 1.14822,-9.10924 1.15105,33.40486 3.45031,-85.03476 z m 56.58741,0 3.45031,78.9641 1.14823,-42.52065 1.15104,15.18645 1.15105,-15.18645 2.29927,36.4435 1.15104,-48.59131 3.45032,63.77768 1.14822,-81.99616 1.15105,12.14781 1.15104,-12.14781 1.14823,57.70055 v -54.66201 l 2.30209,75.91906 1.14822,-48.59131 1.15104,18.22496 1.15105,-9.10923 3.450326,45.55273 1.15103,-42.52061 1.14824,21.25706 1.15104,-18.21846 2.29927,27.3342 1.15104,-42.52065 2.29927,42.52065 1.15104,-72.88694 1.15105,33.40488 1.14822,-18.21848 1.15106,9.10923 1.15103,-15.18638 2.29928,45.55273 1.15104,-48.59131 1.14823,21.26354 1.15104,-30.37281 2.29927,57.70058 1.15104,-9.10924 1.15105,33.40486 3.45032,-85.03476 z m 56.356086,0 3.45031,78.9641 1.15105,-42.52065 1.14822,15.18645 1.15104,-15.18645 2.29927,36.4435 1.15105,-48.59131 3.45032,63.77768 1.15103,-81.99616 1.14823,12.14781 1.15105,-12.14781 1.15104,57.70055 v -54.66201 l 2.29927,75.91906 1.15105,-48.59131 1.14822,18.22496 1.15104,-9.10923 3.45031,45.55273 1.15105,-42.52061 1.14823,21.25706 1.15105,-18.21846 2.29926,27.3342 1.15105,-42.52065 2.29927,42.52065 1.15104,-72.88694 1.15104,33.40488 1.15105,-18.21848 1.14822,9.10923 1.15106,-15.18638 2.29925,45.55273 1.15106,-48.59131 1.15103,21.26354 1.14824,-30.37281 2.30209,57.70058 1.14822,-9.10924 1.15104,33.40486 3.45031,-85.03476 z m 56.5874,0 3.45032,78.9641 1.14822,-42.52065 1.15105,15.18645 1.15104,-15.18645 2.29927,36.4435 1.15105,-48.59131 3.45032,63.77768 1.14822,-81.99616 1.15103,12.14781 1.15106,-12.14781 1.14822,57.70055 v -54.66201 l 2.30209,75.91906 1.14822,-48.59131 1.15105,18.22496 1.15104,-9.10923 3.45033,45.55273 1.14822,-42.52061 1.15104,21.25706 1.15105,-18.21846 2.29926,27.3342 1.15105,-42.52065 2.29927,42.52065 1.15104,-72.88694 1.15105,33.40488 1.14822,-18.21848 1.15104,9.10923 1.15105,-15.18638 2.29928,45.55273 1.15104,-48.59131 1.14822,21.26354 1.15105,-30.37281 2.29926,57.70058 1.15105,-9.10924 1.15104,33.40486 3.45033,-85.03476 z"
       id="path895-3"
       inkscape:connector-curvature="0" />
    <path
       style="display:inline;opacity:1;fill:#ffffff;stroke:#000000;stroke-width:0.15890734;stroke-linecap:butt;stroke-linejoin:miter;stroke-miterlimit:4;stroke-dasharray:none;stroke-opacity:1"
       d="m 44.033544,82.371219 -3.45031,24.357611 -1.15105,-4.87772 -1.14822,9.75545 -1.15105,-25.988728 -2.29926,40.606408 V 96.98888 l -1.15105,30.85088 -1.15104,-6.49325 -1.14823,6.49325 -1.15104,-43.85302 -3.45032,34.11306 -1.15104,-25.98863 -2.29927,19.49539 -1.15105,-8.12443 -1.14822,8.12443 -1.15105,-22.742107 -3.45031,42.222007 h 56.35607 l -3.45031,-45.468628 -1.15105,17.864298 -1.14822,-4.87773 -2.30209,30.86645 -1.14822,-16.24876 -1.15105,11.37104 -1.15104,-25.98873 -2.29927,24.37321 -1.15105,-8.12442 -1.14822,4.87771 -1.15105,-9.75545 -1.15104,17.86431 -1.14823,-38.975307 -2.30209,22.742107 -1.14822,-22.742107 -2.30209,14.617677 -1.14823,-9.73996 -1.15104,11.37107 z m 56.587426,0 -3.450326,24.357611 -1.15105,-4.87772 -1.15104,9.75545 -1.14822,-25.988728 -2.30209,40.606408 V 96.98888 l -1.14823,30.85088 -1.15104,-6.49325 -1.15105,6.49325 -1.14822,-43.85302 -3.45032,34.11306 -1.15104,-25.98863 -2.29927,19.49539 -1.15105,-8.12443 -1.15104,8.12443 -1.14823,-22.742107 -3.45031,42.222007 h 56.356086 l -3.45032,-45.468628 -1.15105,17.864298 -1.15104,-4.87773 -2.29927,30.86645 -1.15104,-16.24876 -1.14823,11.37104 -1.15104,-25.98873 -2.29928,24.37321 -1.15103,-8.12442 -1.15106,4.87771 -1.14822,-9.75545 -1.15105,17.86431 -1.15104,-38.975307 -2.29927,22.742107 -1.15104,-22.742107 -2.29927,14.617677 -1.15104,-9.73996 -1.14824,11.37107 z m 28.75356,48.715241 h 56.35606 l -3.45031,-45.468628 -1.15104,17.864298 -1.14822,-4.87773 -2.30209,30.86645 -1.14824,-16.24876 -1.15103,11.37104 -1.15106,-25.98873 -2.29925,24.37321 -1.15106,-8.12442 -1.14822,4.87771 -1.15105,-9.75545 -1.15104,17.86431 -1.15104,-38.975307 -2.29927,22.742107 -1.15105,-22.742107 -2.29926,14.617677 -1.15105,-9.73996 -1.14823,11.37107 -1.15105,-22.742021 -3.45031,24.357611 -1.15104,-4.87772 -1.14822,9.75545 -1.15105,-25.988728 -2.29927,40.606408 V 96.98888 l -1.15104,30.85088 -1.15105,-6.49325 -1.14823,6.49325 -1.15103,-43.85302 -3.45032,34.11306 -1.15105,-25.98863 -2.29927,19.49539 -1.15104,-8.12443 -1.14822,8.12443 -1.15105,-22.742107 z m 84.18993,-48.715241 -3.45033,24.357611 -1.15104,-4.87772 -1.15105,9.75545 -1.14822,-25.988728 -2.30209,40.606408 V 96.98888 l -1.14822,30.85088 -1.15106,-6.49325 -1.15103,6.49325 -1.14822,-43.85302 -3.45032,34.11306 -1.15105,-25.98863 -2.29927,19.49539 -1.15104,-8.12443 -1.15105,8.12443 -1.14822,-22.742107 -3.45032,42.222007 h 56.35609 l -3.45033,-45.468628 -1.15104,17.864298 -1.15105,-4.87773 -2.29926,30.86645 -1.15105,-16.24876 -1.14822,11.37104 -1.15104,-25.98873 -2.29928,24.37321 -1.15105,-8.12442 -1.15104,4.87771 -1.14822,-9.75545 -1.15105,17.86431 -1.15104,-38.975307 -2.29927,22.742107 -1.15105,-22.742107 -2.29926,14.617677 -1.15105,-9.73996 -1.15104,11.37107 z m -197.133426,48.855051 3.45031,42.22192 1.15105,-22.74211 1.14822,8.12443 1.15105,-8.12443 2.29927,19.49548 1.15104,-25.98872 3.45032,34.11307 1.15104,-43.85303 1.14823,6.49325 1.15104,-6.49325 1.15105,30.85088 v -29.23535 l 2.29926,40.6064 1.15105,-25.98873 1.14822,9.75554 1.15105,-4.87772 3.45031,24.35762 1.15105,-22.72658 1.15104,11.35553 1.14823,-9.73996 2.30209,14.61768 1.14822,-22.74211 2.30209,22.74211 1.14823,-38.97531 1.15104,17.86431 1.15105,-9.73996 1.14822,4.86222 1.15105,-8.10884 2.29927,24.35763 1.15104,-25.98873 1.15105,11.37106 1.14822,-16.24878 2.30209,30.86645 1.14822,-4.87773 1.15105,17.8643 3.45031,-45.46854 z m 56.58741,0 3.45031,42.22192 1.14823,-22.74211 1.15104,8.12443 1.15105,-8.12443 2.29927,19.49548 1.15104,-25.98872 3.45032,34.11307 1.14822,-43.85303 1.15105,6.49325 1.15104,-6.49325 1.14823,30.85088 v -29.23535 l 2.30209,40.6064 1.14822,-25.98873 1.15104,9.75554 1.15105,-4.87772 3.450326,24.35762 1.15103,-22.72658 1.14824,11.35553 1.15104,-9.73996 2.29927,14.61768 1.15104,-22.74211 2.29927,22.74211 1.15104,-38.97531 1.15105,17.86431 1.14822,-9.73996 1.15106,4.86222 1.15103,-8.10884 2.29928,24.35763 1.15104,-25.98873 1.14823,11.37106 1.15104,-16.24878 2.29927,30.86645 1.15104,-4.87773 1.15105,17.8643 3.45032,-45.46854 z m 56.356086,0 3.45031,42.22192 1.15105,-22.74211 1.14822,8.12443 1.15104,-8.12443 2.29927,19.49548 1.15105,-25.98872 3.45032,34.11307 1.15103,-43.85303 1.14823,6.49325 1.15105,-6.49325 1.15104,30.85088 v -29.23535 l 2.29927,40.6064 1.15105,-25.98873 1.14822,9.75554 1.15104,-4.87772 3.45031,24.35762 1.15105,-22.72658 1.14823,11.35553 1.15105,-9.73996 2.29926,14.61768 1.15105,-22.74211 2.29927,22.74211 1.15104,-38.97531 1.15104,17.86431 1.15105,-9.73996 1.14822,4.86222 1.15106,-8.10884 2.29925,24.35763 1.15106,-25.98873 1.15103,11.37106 1.14824,-16.24878 2.30209,30.86645 1.14822,-4.87773 1.15104,17.8643 3.45031,-45.46854 z m 56.5874,0 3.45032,42.22192 1.14822,-22.74211 1.15105,8.12443 1.15104,-8.12443 2.29927,19.49548 1.15105,-25.98872 3.45032,34.11307 1.14822,-43.85303 1.15103,6.49325 1.15106,-6.49325 1.14822,30.85088 v -29.23535 l 2.30209,40.6064 1.14822,-25.98873 1.15105,9.75554 1.15104,-4.87772 3.45033,24.35762 1.14822,-22.72658 1.15104,11.35553 1.15105,-9.73996 2.29926,14.61768 1.15105,-22.74211 2.29927,22.74211 1.15104,-38.97531 1.15105,17.86431 1.14822,-9.73996 1.15104,4.86222 1.15105,-8.10884 2.29928,24.35763 1.15104,-25.98873 1.14822,11.37106 1.15105,-16.24878 2.29926,30.86645 1.15105,-4.87773 1.15104,17.8643 3.45033,-45.46854 z"
       id="path911-6"
       inkscape:connector-curvature="0" />
  </g>
  <g
     inkscape:groupmode="layer"
     id="layer2"
     inkscape:label="audio-wave"
     style="display:inline" />
  <g
     inkscape:groupmode="layer"
     id="layer5"
     inkscape:label="ffmpeg"
     style="display:none">
    <path
       style="color:#000000;font-style:normal;font-variant:normal;font-weight:normal;font-stretch:normal;font-size:medium;line-height:normal;font-family:sans-serif;font-variant-ligatures:normal;font-variant-position:normal;font-variant-caps:normal;font-variant-numeric:normal;font-variant-alternates:normal;font-feature-settings:normal;text-indent:0;text-align:start;text-decoration:none;text-decoration-line:none;text-decoration-style:solid;text-decoration-color:#000000;letter-spacing:normal;word-spacing:normal;text-transform:none;writing-mode:lr-tb;direction:ltr;text-orientation:mixed;dominant-baseline:auto;baseline-shift:baseline;text-anchor:start;white-space:normal;shape-padding:0;clip-rule:nonzero;display:inline;overflow:visible;visibility:visible;opacity:1;isolation:auto;mix-blend-mode:normal;color-interpolation:sRGB;color-interpolation-filters:linearRGB;solid-color:#000000;solid-opacity:1;vector-effect:none;fill:#73d216;fill-opacity:1;fill-rule:nonzero;stroke:#4e9a06;stroke-width:6.26205349;stroke-linecap:round;stroke-linejoin:round;stroke-miterlimit:4;stroke-dasharray:none;stroke-dashoffset:0;stroke-opacity:1;color-rendering:auto;image-rendering:auto;shape-rendering:auto;text-rendering:auto;enable-background:accumulate"
       d="M 46.21789,49.048811 V 50 H 94 L 47.113323,96.8867 v 58.41606 L 152.41607,50 h 50.99422 L 51.220872,206.94535 h 53.636008 l 99.20177,-99.20181 v 55.72603 l -43.4758,43.47578 h 44.67958 l -1.69245,-0.9512 h -40.69089 l 42.13076,-42.13076 V 105.44734 L 104.46303,205.99415 H 53.468798 L 205.65821,49.048811 H 152.0222 L 48.064507,153.00653 V 97.28055 L 96.2962,49.048811 Z"
       id="path4593"
       inkscape:connector-curvature="0"
       sodipodi:nodetypes="ccccccccccccccccccccccccc" />
  </g>
  <g
     inkscape:groupmode="layer"
     id="layer1"
     inkscape:label="stars">
    <path
       sodipodi:type="star"
       style="display:inline;opacity:1;fill:#edd400;fill-opacity:1;fill-rule:nonzero;stroke:none;stroke-width:2.17420959;stroke-opacity:0.88627451"
       id="path858"
       sodipodi:sides="5"
       sodipodi:cx="37.435532"
       sodipodi:cy="105.43552"
       sodipodi:r1="15.373983"
       sodipodi:r2="7.6869917"
       sodipodi:arg1="0.78539816"
       sodipodi:arg2="1.4137167"
       inkscape:flatsided="false"
       inkscape:rounded="0"
       inkscape:randomized="0"
       d="m 48.30658,116.30656 -9.668538,-3.27869 -8.182153,6.10597 0.130483,-10.2085 -8.335545,-5.89484 9.749181,-3.030508 3.030503,-9.74918 5.894842,8.335545 10.208498,-0.130483 -6.105967,8.182156 z"
       inkscape:transform-center-x="0.74319231"
       inkscape:transform-center-y="-0.74319231" />
    <path
       sodipodi:type="star"
       style="display:inline;opacity:1;fill:#edd400;fill-opacity:1;fill-rule:nonzero;stroke:none;stroke-width:0.89680225;stroke-opacity:0.88627451"
       id="path864"
       sodipodi:sides="5"
       sodipodi:cx="86.484016"
       sodipodi:cy="57.484016"
       sodipodi:r1="12.682699"
       sodipodi:r2="6.3413496"
       sodipodi:arg1="0.78539816"
       sodipodi:arg2="1.4137167"
       inkscape:flatsided="false"
       inkscape:rounded="0"
       inkscape:randomized="0"
       d="m 95.452039,66.452039 -7.976017,-2.704746 -6.74983,5.037091 0.107641,-8.421455 -6.876371,-4.862924 8.042543,-2.5 2.5,-8.042543 4.862924,6.876371 8.421455,-0.107642 -5.037091,6.749831 z"
       inkscape:transform-center-x="0.6130932"
       inkscape:transform-center-y="-0.61309319" />
    <path
       inkscape:transform-center-y="-0.34182184"
       inkscape:transform-center-x="0.34182184"
       d="m 232.508,24.446918 -4.44693,-1.507994 -3.76327,2.808362 0.06,-4.695269 -3.83383,-2.711257 4.48402,-1.393842 1.39384,-4.484011 2.71125,3.833828 4.69527,-0.06001 L 231,19.999998 Z"
       inkscape:randomized="0"
       inkscape:rounded="0"
       inkscape:flatsided="false"
       sodipodi:arg2="1.4137167"
       sodipodi:arg1="0.78539816"
       sodipodi:r2="3.5355339"
       sodipodi:r1="7.0710678"
       sodipodi:cy="19.446918"
       sodipodi:cx="227.508"
       sodipodi:sides="5"
       id="path878"
       style="display:inline;opacity:1;fill:#edd400;fill-opacity:1;fill-rule:nonzero;stroke:none;stroke-width:0.5;stroke-opacity:0.88627451"
       sodipodi:type="star" />
    <path
       inkscape:transform-center-y="-1.0254655"
       inkscape:transform-center-x="1.0254655"
       d="M 39.500011,207.5 26.159249,202.97602 14.869419,211.4011 15.04946,197.3153 3.5479777,189.18152 17.000011,185 l 4.181524,-13.45203 8.133773,11.50148 14.085806,-0.18004 -8.425086,11.28983 z"
       inkscape:randomized="0"
       inkscape:rounded="0"
       inkscape:flatsided="false"
       sodipodi:arg2="1.4137167"
       sodipodi:arg1="0.78539816"
       sodipodi:r2="10.606602"
       sodipodi:r1="21.213203"
       sodipodi:cy="192.5"
       sodipodi:cx="24.500011"
       sodipodi:sides="5"
       id="path880"
       style="display:inline;opacity:1;fill:#edd400;fill-opacity:1;fill-rule:nonzero;stroke:none;stroke-width:3;stroke-opacity:0.88627451"
       sodipodi:type="star" />
    <path
       inkscape:transform-center-y="-1.3821829"
       inkscape:transform-center-x="1.3821829"
       d="M 128.98147,172.09769 111,166 95.782899,177.35583 96.02557,158.37015 80.523193,147.40697 l 18.131446,-5.63611 5.636101,-18.13144 10.96318,15.50238 18.98568,-0.24267 -11.35583,15.2171 z"
       inkscape:randomized="0"
       inkscape:rounded="0"
       inkscape:flatsided="false"
       sodipodi:arg2="1.4137167"
       sodipodi:arg1="0.78539816"
       sodipodi:r2="14.296203"
       sodipodi:r1="28.592407"
       sodipodi:cy="151.87981"
       sodipodi:cx="108.76358"
       sodipodi:sides="5"
       id="path882"
       style="display:inline;opacity:1;fill:#edd400;fill-opacity:1;fill-rule:nonzero;stroke:none;stroke-width:4.04357672;stroke-opacity:0.88627451"
       sodipodi:type="star" />
    <path
       sodipodi:type="star"
       style="display:inline;opacity:1;fill:#edd400;fill-opacity:1;fill-rule:nonzero;stroke:none;stroke-width:4.83718061;stroke-opacity:0.88627451"
       id="path884"
       sodipodi:sides="5"
       sodipodi:cx="220.32466"
       sodipodi:cy="218.10854"
       sodipodi:r1="34.204033"
       sodipodi:r2="17.102016"
       sodipodi:arg1="0.78539816"
       sodipodi:arg2="1.4137167"
       inkscape:flatsided="false"
       inkscape:rounded="0"
       inkscape:randomized="0"
       d="M 244.51056,242.29444 223.00001,235 l -18.20365,13.58455 0.29029,-22.71186 -18.54491,-13.11484 21.68997,-6.74227 6.74226,-21.68997 13.11484,18.54492 22.71187,-0.2903 -13.58456,18.20365 z"
       inkscape:transform-center-x="1.653454"
       inkscape:transform-center-y="-1.653454" />
    <path
       sodipodi:type="star"
       style="display:inline;opacity:1;fill:#edd400;fill-opacity:1;fill-rule:nonzero;stroke:none;stroke-width:1.20916367;stroke-opacity:0.88627451"
       id="path886"
       sodipodi:sides="5"
       sodipodi:cx="174.16919"
       sodipodi:cy="94.381828"
       sodipodi:r1="8.5500784"
       sodipodi:r2="4.2750392"
       sodipodi:arg1="0.78539816"
       sodipodi:arg2="1.4137167"
       inkscape:flatsided="false"
       inkscape:rounded="0"
       inkscape:randomized="0"
       d="M 180.21501,100.42765 174.83795,98.604235 170.28754,102 l 0.0726,-5.677345 -4.63572,-3.278354 5.4219,-1.685382 1.68538,-5.421903 3.27836,4.635725 5.67735,-0.07257 -3.39577,4.550418 z"
       inkscape:transform-center-x="0.41331851"
       inkscape:transform-center-y="-0.41331855" />
    <path
       inkscape:transform-center-y="-0.41331855"
       inkscape:transform-center-x="0.41331851"
       d="m 156.10501,244.85492 -5.37706,-1.82342 -4.55042,3.39577 0.0726,-5.67735 -4.63572,-3.27835 5.4219,-1.68538 1.68538,-5.42191 3.27836,4.63573 5.67734,-0.0726 -3.39576,4.55042 z"
       inkscape:randomized="0"
       inkscape:rounded="0"
       inkscape:flatsided="false"
       sodipodi:arg2="1.4137167"
       sodipodi:arg1="0.78539816"
       sodipodi:r2="4.2750392"
       sodipodi:r1="8.5500784"
       sodipodi:cy="238.8091"
       sodipodi:cx="150.05919"
       sodipodi:sides="5"
       id="path888"
       style="display:inline;opacity:1;fill:#edd400;fill-opacity:1;fill-rule:nonzero;stroke:none;stroke-width:1.20916367;stroke-opacity:0.88627451"
       sodipodi:type="star" />
    <path
       inkscape:transform-center-y="-0.74319231"
       inkscape:transform-center-x="0.74319231"
       d="m 184.2787,55.668533 -9.66854,-3.278696 -8.18215,6.105968 0.13048,-10.208498 -8.33554,-5.894842 9.74918,-3.030504 3.0305,-9.74918 5.89485,8.335545 10.20849,-0.130483 -6.10596,8.182153 z"
       inkscape:randomized="0"
       inkscape:rounded="0"
       inkscape:flatsided="false"
       sodipodi:arg2="1.4137167"
       sodipodi:arg1="0.78539816"
       sodipodi:r2="7.6869917"
       sodipodi:r1="15.373983"
       sodipodi:cy="44.797485"
       sodipodi:cx="173.40765"
       sodipodi:sides="5"
       id="path890"
       style="display:inline;opacity:1;fill:#edd400;fill-opacity:1;fill-rule:nonzero;stroke:none;stroke-width:2.17420959;stroke-opacity:0.88627451"
       sodipodi:type="star" />
    <path
       inkscape:transform-center-y="-0.41331855"
       inkscape:transform-center-x="0.41331851"
       d="M 42.214989,22.427643 36.837934,20.604231 32.287516,24 l 0.07257,-5.677348 -4.635725,-3.278354 5.421903,-1.685383 1.685382,-5.4219032 3.278355,4.6357252 5.677348,-0.07257 -3.395769,4.550418 z"
       inkscape:randomized="0"
       inkscape:rounded="0"
       inkscape:flatsided="false"
       sodipodi:arg2="1.4137167"
       sodipodi:arg1="0.78539816"
       sodipodi:r2="4.2750392"
       sodipodi:r1="8.5500784"
       sodipodi:cy="16.381824"
       sodipodi:cx="36.16917"
       sodipodi:sides="5"
       id="path892"
       style="display:inline;opacity:1;fill:#edd400;fill-opacity:1;fill-rule:nonzero;stroke:none;stroke-width:1.20916367;stroke-opacity:0.88627451"
       sodipodi:type="star" />
    <path
       sodipodi:type="star"
       style="display:inline;opacity:1;fill:#edd400;fill-opacity:1;fill-rule:nonzero;stroke:none;stroke-width:1.20916367;stroke-opacity:0.88627451"
       id="path894"
       sodipodi:sides="5"
       sodipodi:cx="240.05917"
       sodipodi:cy="136.8091"
       sodipodi:r1="8.5500784"
       sodipodi:r2="4.2750392"
       sodipodi:arg1="0.78539816"
       sodipodi:arg2="1.4137167"
       inkscape:flatsided="false"
       inkscape:rounded="0"
       inkscape:randomized="0"
       d="m 246.10499,142.85492 -5.37705,-1.82342 -4.55042,3.39577 0.0726,-5.67735 -4.63573,-3.27835 5.4219,-1.68538 1.68539,-5.42191 3.27835,4.63573 5.67735,-0.0726 -3.39577,4.55042 z"
       inkscape:transform-center-x="0.41331851"
       inkscape:transform-center-y="-0.41331855" />
    <path
       sodipodi:type="star"
       style="display:inline;opacity:1;fill:#edd400;fill-opacity:1;fill-rule:nonzero;stroke:none;stroke-width:1.20916367;stroke-opacity:0.88627451"
       id="path879"
       sodipodi:sides="5"
       sodipodi:cx="18.059189"
       sodipodi:cy="58.80909"
       sodipodi:r1="8.5500784"
       sodipodi:r2="4.2750392"
       sodipodi:arg1="0.78539816"
       sodipodi:arg2="1.4137167"
       inkscape:flatsided="false"
       inkscape:rounded="0"
       inkscape:randomized="0"
       d="m 24.105007,64.854908 -5.377055,-1.823412 -4.550417,3.395769 0.07257,-5.677348 -4.6357249,-3.278354 5.4219039,-1.685383 1.685382,-5.421903 3.278354,4.635725 5.677348,-0.07257 -3.395769,4.550418 z"
       inkscape:transform-center-x="0.41331851"
       inkscape:transform-center-y="-0.41331855" />
    <path
       inkscape:transform-center-y="-0.41331855"
       inkscape:transform-center-x="0.41331851"
       d="m 160.10499,195.85492 -5.37705,-1.82342 -4.55042,3.39577 0.0726,-5.67735 -4.63573,-3.27835 5.4219,-1.68538 1.68539,-5.42191 3.27835,4.63573 5.67735,-0.0726 -3.39577,4.55042 z"
       inkscape:randomized="0"
       inkscape:rounded="0"
       inkscape:flatsided="false"
       sodipodi:arg2="1.4137167"
       sodipodi:arg1="0.78539816"
       sodipodi:r2="4.2750392"
       sodipodi:r1="8.5500784"
       sodipodi:cy="189.8091"
       sodipodi:cx="154.05917"
       sodipodi:sides="5"
       id="path881"
       style="display:inline;opacity:1;fill:#edd400;fill-opacity:1;fill-rule:nonzero;stroke:none;stroke-width:1.20916367;stroke-opacity:0.88627451"
       sodipodi:type="star" />
  </g>
</svg>
