<?xml version="1.0" encoding="UTF-8" standalone="no"?>
<!-- Created with Inkscape (http://www.inkscape.org/) -->

<svg
   xmlns:osb="http://www.openswatchbook.org/uri/2009/osb"
   xmlns:dc="http://purl.org/dc/elements/1.1/"
   xmlns:cc="http://creativecommons.org/ns#"
   xmlns:rdf="http://www.w3.org/1999/02/22-rdf-syntax-ns#"
   xmlns:svg="http://www.w3.org/2000/svg"
   xmlns="http://www.w3.org/2000/svg"
   xmlns:xlink="http://www.w3.org/1999/xlink"
   xmlns:sodipodi="http://sodipodi.sourceforge.net/DTD/sodipodi-0.dtd"
   xmlns:inkscape="http://www.inkscape.org/namespaces/inkscape"
   width="256px"
   height="256px"
   viewBox="0 0 256 256"
   version="1.1"
   id="SVGRoot"
   sodipodi:docname="icon_videoconversions2_W.svg"
   inkscape:version="0.92.4 (5da689c313, 2019-01-14)"
   enable-background="new">
  <sodipodi:namedview
     id="base"
     pagecolor="#ffffff"
     bordercolor="#666666"
     borderopacity="1.0"
     inkscape:pageopacity="0.0"
     inkscape:pageshadow="2"
     inkscape:zoom="2.6657926"
     inkscape:cx="31.043745"
     inkscape:cy="123.57085"
     inkscape:document-units="px"
     inkscape:current-layer="layer1"
     showgrid="true"
     inkscape:window-width="1920"
     inkscape:window-height="1015"
     inkscape:window-x="0"
     inkscape:window-y="0"
     inkscape:window-maximized="1"
     inkscape:grid-bbox="true"
     inkscape:measure-start="110,130"
     inkscape:measure-end="0,0"
     showguides="false">
    <inkscape:grid
       type="xygrid"
       id="grid5114" />
  </sodipodi:namedview>
  <defs
     id="defs4485">
    <linearGradient
       inkscape:collect="always"
       id="linearGradient901">
      <stop
         style="stop-color:#d3d7cf;stop-opacity:1;"
         offset="0"
         id="stop897" />
      <stop
         style="stop-color:#d3d7cf;stop-opacity:0;"
         offset="1"
         id="stop899" />
    </linearGradient>
    <inkscape:path-effect
       effect="bspline"
       id="path-effect4551"
       is_visible="true"
       weight="33.333333"
       steps="2"
       helper_size="0"
       apply_no_weight="true"
       apply_with_weight="true"
       only_selected="false" />
    <inkscape:path-effect
       effect="skeletal"
       id="path-effect4547"
       is_visible="true"
       pattern="M 0,5 C 0,2.24 2.24,0 5,0 7.76,0 10,2.24 10,5 10,7.76 7.76,10 5,10 2.24,10 0,7.76 0,5 Z"
       copytype="single_stretched"
       prop_scale="1"
       scale_y_rel="false"
       spacing="0"
       normal_offset="0"
       tang_offset="0"
       prop_units="false"
       vertical_pattern="false"
       fuse_tolerance="0" />
    <inkscape:path-effect
       effect="bspline"
       id="path-effect4545"
       is_visible="true"
       weight="33.333333"
       steps="2"
       helper_size="0"
       apply_no_weight="true"
       apply_with_weight="true"
       only_selected="false" />
    <inkscape:path-effect
       effect="skeletal"
       id="path-effect4541"
       is_visible="true"
       pattern="M 0,5 C 0,2.24 2.24,0 5,0 7.76,0 10,2.24 10,5 10,7.76 7.76,10 5,10 2.24,10 0,7.76 0,5 Z"
       copytype="single_stretched"
       prop_scale="1"
       scale_y_rel="false"
       spacing="0"
       normal_offset="0"
       tang_offset="0"
       prop_units="false"
       vertical_pattern="false"
       fuse_tolerance="0" />
    <inkscape:path-effect
       effect="spiro"
       id="path-effect4539"
       is_visible="true" />
    <inkscape:path-effect
       effect="bspline"
       id="path-effect4535"
       is_visible="true"
       weight="33.333333"
       steps="2"
       helper_size="0"
       apply_no_weight="true"
       apply_with_weight="true"
       only_selected="false" />
    <inkscape:path-effect
       effect="skeletal"
       id="path-effect4531"
       is_visible="true"
       pattern="M 0,5 C 0,2.24 2.24,0 5,0 7.76,0 10,2.24 10,5 10,7.76 7.76,10 5,10 2.24,10 0,7.76 0,5 Z"
       copytype="single_stretched"
       prop_scale="1"
       scale_y_rel="false"
       spacing="0"
       normal_offset="0"
       tang_offset="0"
       prop_units="false"
       vertical_pattern="false"
       fuse_tolerance="0" />
    <inkscape:path-effect
       effect="bspline"
       id="path-effect4529"
       is_visible="true"
       weight="33.333333"
       steps="2"
       helper_size="0"
       apply_no_weight="true"
       apply_with_weight="true"
       only_selected="false" />
    <inkscape:path-effect
       effect="skeletal"
       id="path-effect4525"
       is_visible="true"
       pattern="M 0,5 C 0,2.24 2.24,0 5,0 7.76,0 10,2.24 10,5 10,7.76 7.76,10 5,10 2.24,10 0,7.76 0,5 Z"
       copytype="single_stretched"
       prop_scale="1"
       scale_y_rel="false"
       spacing="0"
       normal_offset="0"
       tang_offset="0"
       prop_units="false"
       vertical_pattern="false"
       fuse_tolerance="0" />
    <inkscape:path-effect
       effect="bspline"
       id="path-effect4523"
       is_visible="true"
       weight="33.333333"
       steps="2"
       helper_size="0"
       apply_no_weight="true"
       apply_with_weight="true"
       only_selected="false" />
    <inkscape:path-effect
       effect="bspline"
       id="path-effect4519"
       is_visible="true"
       weight="33.333333"
       steps="2"
       helper_size="0"
       apply_no_weight="true"
       apply_with_weight="true"
       only_selected="false" />
    <linearGradient
       inkscape:collect="always"
       id="linearGradient4752">
      <stop
         style="stop-color:#888a85;stop-opacity:1;"
         offset="0"
         id="stop4748" />
      <stop
         style="stop-color:#888a85;stop-opacity:0;"
         offset="1"
         id="stop4750" />
    </linearGradient>
    <pattern
       inkscape:isstock="true"
       inkscape:stockid="Stripes 1:1"
       id="Strips1_1"
       patternTransform="translate(0,0) scale(10,10)"
       height="1"
       width="2"
       patternUnits="userSpaceOnUse"
       inkscape:collect="always">
      <rect
         id="rect5447"
         height="2"
         width="1"
         y="-0.5"
         x="0"
         style="fill:black;stroke:none" />
    </pattern>
    <linearGradient
       id="linearGradient4727"
       osb:paint="solid">
      <stop
         style="stop-color:#ce5c00;stop-opacity:1;"
         offset="0"
         id="stop4725" />
    </linearGradient>
    <pattern
       patternUnits="userSpaceOnUse"
       width="55"
       height="90"
       patternTransform="translate(-60,50.5)"
       id="pattern6214">
      <g
         style="fill:url(#Strips1_1);fill-opacity:1"
         transform="translate(-15,-28.5)"
         id="g4691">
        <rect
           style="opacity:0.81499999;fill:url(#Strips1_1);fill-opacity:1;stroke:none;stroke-width:4.52699995;stroke-linecap:round;stroke-linejoin:bevel;stroke-miterlimit:17.60000038;stroke-dasharray:none;stroke-dashoffset:0;stroke-opacity:1;paint-order:stroke fill markers"
           id="rect4683"
           width="30"
           height="30"
           x="40"
           y="59"
           ry="7.9000001" />
        <path
           inkscape:connector-curvature="0"
           style="opacity:0.81499999;fill:url(#Strips1_1);fill-opacity:1;stroke:none;stroke-width:8.60130024;stroke-linecap:round;stroke-linejoin:bevel;stroke-miterlimit:17.60000038;stroke-dasharray:none;stroke-dashoffset:0;stroke-opacity:1;paint-order:stroke fill markers"
           d="m 15,28.5 v 90 l 45,-45 z"
           id="path4687" />
      </g>
    </pattern>
    <linearGradient
       inkscape:collect="always"
       xlink:href="#linearGradient4752"
       id="linearGradient4754"
       x1="11.826138"
       y1="245.7171"
       x2="149.78668"
       y2="106.13758"
       gradientUnits="userSpaceOnUse"
       gradientTransform="matrix(0.95425703,0,0,0.95425703,5.390281,5.594659)" />
    <linearGradient
       inkscape:collect="always"
       xlink:href="#linearGradient4560"
       id="linearGradient4562"
       x1="-11.593207"
       y1="128.66191"
       x2="268.93854"
       y2="128.66191"
       gradientUnits="userSpaceOnUse"
       gradientTransform="matrix(0.49602862,-0.00361488,0.00361488,0.48879887,24.786346,29.27933)" />
    <linearGradient
       inkscape:collect="always"
       id="linearGradient4560">
      <stop
         style="stop-color:#380000;stop-opacity:1;"
         offset="0"
         id="stop4556" />
      <stop
         style="stop-color:#380000;stop-opacity:0;"
         offset="1"
         id="stop4558" />
    </linearGradient>
    <linearGradient
       inkscape:collect="always"
       xlink:href="#linearGradient901"
       id="linearGradient903"
       x1="185"
       y1="126"
       x2="115"
       y2="126"
       gradientUnits="userSpaceOnUse"
       gradientTransform="matrix(1,0,0,0.87228765,0,16.136455)" />
  </defs>
  <metadata
     id="metadata4488">
    <rdf:RDF>
      <cc:Work
         rdf:about="">
        <dc:format>image/svg+xml</dc:format>
        <dc:type
           rdf:resource="http://purl.org/dc/dcmitype/StillImage" />
        <dc:title></dc:title>
      </cc:Work>
    </rdf:RDF>
  </metadata>
  <g
     inkscape:groupmode="layer"
     id="layer3"
     inkscape:label="sfondo"
     style="display:none">
    <rect
       style="display:inline;opacity:1;fill:#eeeeec;fill-opacity:1;stroke:none;stroke-width:7.00387716;stroke-linecap:round;stroke-linejoin:bevel;stroke-miterlimit:17.60000038;stroke-dasharray:none;stroke-dashoffset:0;stroke-opacity:0.97647059;paint-order:stroke fill markers"
       id="rect4568-3"
       width="222.07193"
       height="222.07193"
       x="16.675457"
       y="18"
       ry="22.6604" />
  </g>
  <g
     style="display:none"
     inkscape:label="sfondo copia"
     id="g4738"
     inkscape:groupmode="layer">
    <rect
       ry="22.6604"
       y="18"
       x="16.675457"
       height="222.07193"
       width="222.07193"
       id="rect4736"
       style="display:inline;opacity:1;fill:url(#linearGradient4754);fill-opacity:1;stroke:none;stroke-width:7.00387716;stroke-linecap:round;stroke-linejoin:bevel;stroke-miterlimit:17.60000038;stroke-dasharray:none;stroke-dashoffset:0;stroke-opacity:0.97647059;paint-order:stroke fill markers" />
  </g>
  <g
     inkscape:groupmode="layer"
     id="layer1"
     inkscape:label="preset"
     style="display:inline">
    <path
       inkscape:connector-curvature="0"
       id="path978"
       d="m 97.72142,56 0.67514,140.7 h 56.65712 L 154.38002,56 Z"
       style="display:inline;opacity:1;fill:url(#linearGradient903);fill-opacity:1;stroke:none;stroke-width:5.63863516;stroke-linecap:round;stroke-linejoin:bevel;stroke-miterlimit:17.60000038;stroke-dasharray:none;stroke-dashoffset:0;stroke-opacity:0.97647059;paint-order:stroke fill markers" />
    <path
       style="display:inline;opacity:1;fill:url(#linearGradient4562);fill-opacity:1;stroke:none;stroke-width:0.64012319"
       d="M 431.27322,-1.1574823 328.84738,102.85416 365.32172,139.54897 467.51057,35.778941 Z"
       id="rect5216"
       inkscape:connector-curvature="0" />
    <path
       style="display:inline;opacity:1;fill:#eeeeec;fill-opacity:1;fill-rule:nonzero;stroke:none;stroke-width:7.7310667;stroke-linecap:square;stroke-linejoin:round;stroke-miterlimit:4;stroke-dasharray:none;stroke-dashoffset:0;stroke-opacity:1;paint-order:stroke fill markers"
       d="m 43.274246,10.57855 v 0.307151 h -0.028 v 63.654628 a 26.047106,20.374386 0 0 0 -9.4063,-1.39926 26.047106,20.374386 0 0 0 -26.04612,20.374511 26.047106,20.374386 0 0 0 26.04612,20.37449 26.047106,20.374386 0 0 0 26.04614,-20.37449 26.047106,20.374386 0 0 0 -0.50931,-3.91904 V 30.953021 h 17.37347 V 10.57855 Z"
       id="path906"
       inkscape:connector-curvature="0" />
    <path
       inkscape:connector-curvature="0"
       id="path852"
       d="m 215.27425,141.70392 v 0.30715 h -0.028 v 63.65463 a 26.047106,20.374386 0 0 0 -9.4063,-1.39926 26.047106,20.374386 0 0 0 -26.04612,20.37451 26.047106,20.374386 0 0 0 26.04612,20.37448 26.047106,20.374386 0 0 0 26.04614,-20.37448 26.047106,20.374386 0 0 0 -0.50931,-3.91904 v -58.64352 h 17.37347 v -20.37447 z"
       style="display:inline;opacity:1;fill:#eeeeec;fill-opacity:1;fill-rule:nonzero;stroke:none;stroke-width:7.7310667;stroke-linecap:square;stroke-linejoin:round;stroke-miterlimit:4;stroke-dasharray:none;stroke-dashoffset:0;stroke-opacity:1;paint-order:stroke fill markers" />
    <path
       style="display:inline;opacity:1;fill:#353535;fill-opacity:1;stroke:none;stroke-width:5.17314959;stroke-linecap:round;stroke-linejoin:bevel;stroke-miterlimit:17.60000038;stroke-dasharray:none;stroke-dashoffset:0;stroke-opacity:0.97647059;paint-order:stroke fill markers"
       d="m -143.00502,55.874628 0.8672,140.000012 h 59.14455 L -83.86045,55.874628 Z"
       id="rect1130"
       inkscape:connector-curvature="0" />
    <path
       style="display:inline;opacity:1;fill:#eeeeec;fill-opacity:1;stroke:#474747;stroke-width:1.10545373;stroke-linecap:round;stroke-linejoin:bevel;stroke-miterlimit:17.60000038;stroke-dasharray:none;stroke-dashoffset:0;stroke-opacity:1;paint-order:stroke fill markers"
       d="M 77.748893,52.749628 V 198.57581 l 0.92383,0.92383 H 176.45009 V 52.749628 Z m 6.86719,5.21875 h 10.07617 c 1.24039,-1e-6 2.23828,0.933657 2.23828,2.091797 l 0.002,6.271484 c -1e-5,1.158146 -0.99984,2.089848 -2.24023,2.089844 h -10.07617 c -1.2404,-2e-6 -2.23828,-0.931704 -2.23828,-2.089844 v -6.271484 c 1e-5,-0.579073 0.24951,-1.102817 0.65429,-1.480469 0.40476,-0.377661 0.96381,-0.611332 1.58399,-0.611328 z m 74.224637,0 10.07422,0.002 c 1.24039,0 2.23828,0.929747 2.23828,2.087891 v 6.273437 c 0,1.158145 -0.99789,2.089838 -2.23828,2.089844 h -10.07422 c -1.2404,0 -2.24022,-0.931699 -2.24024,-2.089844 v -6.273437 c 0,-0.579073 0.24952,-1.100858 0.6543,-1.478516 0.40477,-0.377654 0.96574,-0.611332 1.58594,-0.611328 z M 109.26454,59.1383 h 35.22266 c 4.33616,-3e-6 7.82617,3.258029 7.82617,7.30664 v 21.923829 c 0,4.048623 -3.49197,7.308599 -7.82812,7.308593 h -35.22071 c -4.33615,-3e-6 -7.82812,-3.259977 -7.82812,-7.308593 V 66.44494 c 1e-5,-2.024309 0.87441,-3.849254 2.28906,-5.169921 1.41466,-1.320666 3.37097,-2.136714 5.53906,-2.136719 z M 84.616083,73.761347 h 10.07617 c 1.24039,4e-6 2.24023,0.931697 2.24023,2.089843 v 6.271485 c 0,1.158141 -0.99983,2.089842 -2.24023,2.089844 h -10.07617 c -1.2404,3e-6 -2.23828,-0.931703 -2.23828,-2.089844 V 75.85119 c -1e-5,-0.579068 0.24952,-1.102816 0.65429,-1.480468 0.40478,-0.377661 0.96378,-0.609373 1.58399,-0.609375 z m 74.224637,0 h 10.07422 c 1.2404,0 2.23828,0.931708 2.23828,2.089843 v 6.273438 c 0,1.158134 -0.99788,2.087891 -2.23828,2.087891 h -10.07422 c -1.24039,6e-6 -2.24023,-0.929747 -2.24024,-2.087891 V 75.85119 c 0,-0.579075 0.24953,-1.102812 0.6543,-1.480468 0.40478,-0.377649 0.96573,-0.609375 1.58594,-0.609375 z M 84.618033,89.554316 h 10.07422 c 1.24039,-10e-7 2.23828,0.92975 2.23828,2.08789 v 6.273438 c 0,1.158147 -0.99788,2.089846 -2.23828,2.089856 h -10.07422 c -1.2404,-1e-5 -2.24022,-0.931709 -2.24023,-2.089856 v -6.273438 c -1e-5,-0.579067 0.24952,-1.100864 0.65429,-1.478516 0.40478,-0.377656 0.96575,-0.60938 1.58594,-0.609374 z m 74.222687,0 h 10.07422 c 1.24039,5e-6 2.23828,0.931704 2.23828,2.089843 l 0.002,6.271485 c 0,1.158137 -0.99984,2.089856 -2.24024,2.089856 h -10.07422 c -1.24039,-1e-5 -2.24023,-0.931709 -2.24023,-2.089856 v -6.271485 c 0,-0.579064 0.24954,-1.102815 0.6543,-1.480469 0.40478,-0.377649 0.96572,-0.609378 1.58593,-0.609374 z M 84.618033,105.34534 h 10.07422 c 1.24038,0 2.23828,0.93172 2.23828,2.08985 v 6.27343 c 0,1.15814 -0.99789,2.08984 -2.23828,2.08985 h -10.07422 c -1.24041,1e-5 -2.24022,-0.93169 -2.24023,-2.08985 v -6.27343 c 0,-0.57905 0.24951,-1.10087 0.65429,-1.47852 0.40476,-0.37765 0.96575,-0.61133 1.58594,-0.61133 z m 74.222687,0 h 10.07422 c 1.24039,0 2.24023,0.93173 2.24023,2.08985 v 6.27343 c -1e-5,1.15815 -0.99983,2.08985 -2.24023,2.08985 h -10.07618 c -1.2404,0 -2.23828,-0.93171 -2.23828,-2.08985 v -6.27343 c 0,-0.57906 0.24953,-1.10086 0.6543,-1.47852 0.40478,-0.37765 0.96574,-0.61133 1.58594,-0.61133 z m -49.57618,1.16992 h 35.22266 c 4.33615,0 7.82616,3.25802 7.82617,7.30665 v 21.92382 c 0,4.04861 -3.49003,7.30861 -7.82617,7.3086 h -35.22461 c -4.33615,1e-5 -7.82422,-3.25997 -7.82422,-7.3086 l -0.002,-21.92382 c 0,-2.02429 0.87442,-3.85122 2.28906,-5.17188 1.41466,-1.32066 3.37099,-2.13477 5.53906,-2.13477 z m -24.648457,14.62305 h 10.07617 c 1.24039,-1e-5 2.23828,0.93172 2.23828,2.08985 v 6.27343 c 0,1.15816 -0.9979,2.08789 -2.23828,2.08789 h -10.07617 c -1.2404,0 -2.23829,-0.93169 -2.23828,-2.08984 v -6.27148 c 0,-0.57907 0.24952,-1.10281 0.65429,-1.48047 0.40476,-0.37766 0.9638,-0.60938 1.58399,-0.60938 z m 74.224637,0 h 10.07422 c 1.2404,0 2.24022,0.93172 2.24023,2.08985 l -0.002,6.27148 c 1e-5,1.15814 -0.99789,2.08984 -2.23828,2.08984 h -10.07422 c -1.24041,0 -2.24023,-0.93169 -2.24023,-2.08984 v -6.27148 c 0,-0.57907 0.24951,-1.1028 0.65429,-1.48047 0.40478,-0.37764 0.96573,-0.60938 1.58594,-0.60938 z m 10.07422,15.79102 c 1.24039,0 2.23829,0.93367 2.23828,2.09179 v 6.27149 c -1e-5,1.15815 -0.99789,2.08984 -2.23828,2.08984 h -10.07422 c -1.2404,0 -2.24023,-0.9317 -2.24024,-2.08984 v -6.27149 c 0,-0.57907 0.24953,-1.10085 0.6543,-1.47851 v -0.002 c 0.40478,-0.37764 0.96573,-0.60938 1.58594,-0.60938 z m -84.298857,0.002 h 10.07617 c 1.24039,1e-5 2.23828,0.9317 2.23828,2.08984 v 6.26954 c 0,1.15814 -0.9979,2.09179 -2.23828,2.09179 h -10.07617 c -1.24038,0 -2.23827,-0.93365 -2.23828,-2.09179 v -6.27149 c -1e-5,-0.57906 0.24953,-1.10086 0.65429,-1.47851 0.40478,-0.37764 0.96379,-0.60938 1.58399,-0.60938 z m 0,15.79102 h 10.07617 c 1.24037,0 2.23827,0.93169 2.23828,2.08984 v 6.27148 c 0,1.15816 -0.99789,2.08985 -2.23828,2.08985 h -10.07617 c -1.2404,0 -2.23828,-0.9317 -2.23828,-2.08985 v -6.27148 c 0,-0.57907 0.24952,-1.10086 0.65429,-1.47852 0.40478,-0.37764 0.96378,-0.61132 1.58399,-0.61132 z m 84.298857,0 c 1.24039,0 2.23828,0.93171 2.23828,2.08984 l 0.002,6.27148 c 0,1.15815 -0.99985,2.08985 -2.24024,2.08985 l -10.07422,0.002 c -1.24041,0 -2.24023,-0.93365 -2.24023,-2.0918 v -6.27148 c 0,-0.57905 0.24954,-1.10087 0.6543,-1.47852 0.40479,-0.37765 0.96573,-0.60937 1.58593,-0.60937 z m -59.6504,1.16796 35.22266,0.002 c 4.33615,-2e-5 7.82617,3.25606 7.82617,7.30469 v 21.92578 c 0,4.04862 -3.49003,7.30859 -7.82617,7.30859 h -35.22266 c -4.33615,0 -7.82617,-3.26193 -7.82617,-7.31055 v -21.92187 c 0,-2.02382 0.87307,-3.85129 2.28711,-5.17188 1.41467,-1.32064 3.37098,-2.13668 5.53906,-2.13672 z m -24.648457,14.625 h 10.07422 c 1.2404,0 2.24023,0.93172 2.24023,2.08985 v 6.27148 c 0,1.15816 -0.99984,2.08985 -2.24023,2.08985 h -10.07422 c -1.24041,-1e-5 -2.23827,-0.93171 -2.23828,-2.08985 v -6.27148 c 0,-0.57905 0.24952,-1.10281 0.65429,-1.48047 0.40478,-0.37764 0.96379,-0.60938 1.58399,-0.60938 z m 74.222677,0 h 10.07618 c 1.24039,-1e-5 2.24024,0.93172 2.24023,2.08985 v 6.27148 c -1e-5,1.15816 -0.99984,2.08984 -2.24023,2.08985 h -10.07422 c -1.24039,0 -2.24023,-0.9317 -2.24024,-2.08985 v -6.27343 c 1e-5,-0.57906 0.24953,-1.10086 0.6543,-1.47852 0.40478,-0.37764 0.96378,-0.60938 1.58398,-0.60938 z m -64.146507,15.79102 c 1.24039,0 2.23828,0.93366 2.23828,2.0918 v 6.27148 c 0,1.15813 -0.99789,2.08789 -2.23828,2.08789 l -10.07617,0.002 c -1.24041,1e-5 -2.23829,-0.93171 -2.23828,-2.08985 v -6.27344 c 1e-5,-0.57906 0.24952,-1.10086 0.65429,-1.47851 0.40478,-0.37763 0.96379,-0.60938 1.58399,-0.60938 z m 64.148467,0 10.07422,0.002 c 1.24039,0 2.24022,0.92976 2.24023,2.08789 l -0.002,6.27149 c 0,1.15814 -0.99788,2.0918 -2.23828,2.0918 l -10.07422,-0.002 c -1.2404,1e-5 -2.24023,-0.93171 -2.24023,-2.08984 v -6.27149 c 0,-0.57907 0.24953,-1.10086 0.65429,-1.47851 0.40478,-0.37763 0.96575,-0.61133 1.58594,-0.61133 z"
       id="rect976"
       inkscape:connector-curvature="0" />
  </g>
</svg>
