<?xml version="1.0" encoding="UTF-8" standalone="no"?>
<!-- Created with Inkscape (http://www.inkscape.org/) -->

<svg
   xmlns:osb="http://www.openswatchbook.org/uri/2009/osb"
   xmlns:dc="http://purl.org/dc/elements/1.1/"
   xmlns:cc="http://creativecommons.org/ns#"
   xmlns:rdf="http://www.w3.org/1999/02/22-rdf-syntax-ns#"
   xmlns:svg="http://www.w3.org/2000/svg"
   xmlns="http://www.w3.org/2000/svg"
   xmlns:sodipodi="http://sodipodi.sourceforge.net/DTD/sodipodi-0.dtd"
   xmlns:inkscape="http://www.inkscape.org/namespaces/inkscape"
   width="256px"
   height="256px"
   viewBox="0 0 256 256"
   version="1.1"
   id="SVGRoot"
   sodipodi:docname="icon_audionorm.svg"
   inkscape:version="0.92.4 (5da689c313, 2019-01-14)"
   enable-background="new">
  <sodipodi:namedview
     id="base"
     pagecolor="#ffffff"
     bordercolor="#666666"
     borderopacity="1.0"
     inkscape:pageopacity="0.0"
     inkscape:pageshadow="2"
     inkscape:zoom="2.32"
     inkscape:cx="-0.068965207"
     inkscape:cy="127.18677"
     inkscape:document-units="px"
     inkscape:current-layer="layer2"
     showgrid="true"
     inkscape:window-width="1920"
     inkscape:window-height="1021"
     inkscape:window-x="0"
     inkscape:window-y="31"
     inkscape:window-maximized="1"
     inkscape:grid-bbox="true"
     inkscape:measure-start="110,130"
     inkscape:measure-end="0,0"
     showguides="false">
    <inkscape:grid
       type="xygrid"
       id="grid5114" />
  </sodipodi:namedview>
  <defs
     id="defs4485">
    <inkscape:path-effect
       effect="bspline"
       id="path-effect844"
       is_visible="true"
       weight="33.333333"
       steps="2"
       helper_size="0"
       apply_no_weight="true"
       apply_with_weight="true"
       only_selected="false" />
    <inkscape:path-effect
       effect="bspline"
       id="path-effect4551"
       is_visible="true"
       weight="33.333333"
       steps="2"
       helper_size="0"
       apply_no_weight="true"
       apply_with_weight="true"
       only_selected="false" />
    <inkscape:path-effect
       effect="skeletal"
       id="path-effect4547"
       is_visible="true"
       pattern="M 0,5 C 0,2.24 2.24,0 5,0 7.76,0 10,2.24 10,5 10,7.76 7.76,10 5,10 2.24,10 0,7.76 0,5 Z"
       copytype="single_stretched"
       prop_scale="1"
       scale_y_rel="false"
       spacing="0"
       normal_offset="0"
       tang_offset="0"
       prop_units="false"
       vertical_pattern="false"
       fuse_tolerance="0" />
    <inkscape:path-effect
       effect="bspline"
       id="path-effect4545"
       is_visible="true"
       weight="33.333333"
       steps="2"
       helper_size="0"
       apply_no_weight="true"
       apply_with_weight="true"
       only_selected="false" />
    <inkscape:path-effect
       effect="skeletal"
       id="path-effect4541"
       is_visible="true"
       pattern="M 0,5 C 0,2.24 2.24,0 5,0 7.76,0 10,2.24 10,5 10,7.76 7.76,10 5,10 2.24,10 0,7.76 0,5 Z"
       copytype="single_stretched"
       prop_scale="1"
       scale_y_rel="false"
       spacing="0"
       normal_offset="0"
       tang_offset="0"
       prop_units="false"
       vertical_pattern="false"
       fuse_tolerance="0" />
    <inkscape:path-effect
       effect="spiro"
       id="path-effect4539"
       is_visible="true" />
    <inkscape:path-effect
       effect="bspline"
       id="path-effect4535"
       is_visible="true"
       weight="33.333333"
       steps="2"
       helper_size="0"
       apply_no_weight="true"
       apply_with_weight="true"
       only_selected="false" />
    <inkscape:path-effect
       effect="skeletal"
       id="path-effect4531"
       is_visible="true"
       pattern="M 0,5 C 0,2.24 2.24,0 5,0 7.76,0 10,2.24 10,5 10,7.76 7.76,10 5,10 2.24,10 0,7.76 0,5 Z"
       copytype="single_stretched"
       prop_scale="1"
       scale_y_rel="false"
       spacing="0"
       normal_offset="0"
       tang_offset="0"
       prop_units="false"
       vertical_pattern="false"
       fuse_tolerance="0" />
    <inkscape:path-effect
       effect="bspline"
       id="path-effect4529"
       is_visible="true"
       weight="33.333333"
       steps="2"
       helper_size="0"
       apply_no_weight="true"
       apply_with_weight="true"
       only_selected="false" />
    <inkscape:path-effect
       effect="skeletal"
       id="path-effect4525"
       is_visible="true"
       pattern="M 0,5 C 0,2.24 2.24,0 5,0 7.76,0 10,2.24 10,5 10,7.76 7.76,10 5,10 2.24,10 0,7.76 0,5 Z"
       copytype="single_stretched"
       prop_scale="1"
       scale_y_rel="false"
       spacing="0"
       normal_offset="0"
       tang_offset="0"
       prop_units="false"
       vertical_pattern="false"
       fuse_tolerance="0" />
    <inkscape:path-effect
       effect="bspline"
       id="path-effect4523"
       is_visible="true"
       weight="33.333333"
       steps="2"
       helper_size="0"
       apply_no_weight="true"
       apply_with_weight="true"
       only_selected="false" />
    <inkscape:path-effect
       effect="bspline"
       id="path-effect4519"
       is_visible="true"
       weight="33.333333"
       steps="2"
       helper_size="0"
       apply_no_weight="true"
       apply_with_weight="true"
       only_selected="false" />
    <pattern
       inkscape:isstock="true"
       inkscape:stockid="Stripes 1:1"
       id="Strips1_1"
       patternTransform="translate(0,0) scale(10,10)"
       height="1"
       width="2"
       patternUnits="userSpaceOnUse"
       inkscape:collect="always">
      <rect
         id="rect5447"
         height="2"
         width="1"
         y="-0.5"
         x="0"
         style="fill:black;stroke:none" />
    </pattern>
    <linearGradient
       id="linearGradient4727"
       osb:paint="solid">
      <stop
         style="stop-color:#ce5c00;stop-opacity:1;"
         offset="0"
         id="stop4725" />
    </linearGradient>
    <pattern
       patternUnits="userSpaceOnUse"
       width="55"
       height="90"
       patternTransform="translate(-60,50.5)"
       id="pattern6214">
      <g
         style="fill:url(#Strips1_1);fill-opacity:1"
         transform="translate(-15,-28.5)"
         id="g4691">
        <rect
           style="opacity:0.81499999;fill:url(#Strips1_1);fill-opacity:1;stroke:none;stroke-width:4.52699995;stroke-linecap:round;stroke-linejoin:bevel;stroke-miterlimit:17.60000038;stroke-dasharray:none;stroke-dashoffset:0;stroke-opacity:1;paint-order:stroke fill markers"
           id="rect4683"
           width="30"
           height="30"
           x="40"
           y="59"
           ry="7.9000001" />
        <path
           inkscape:connector-curvature="0"
           style="opacity:0.81499999;fill:url(#Strips1_1);fill-opacity:1;stroke:none;stroke-width:8.60130024;stroke-linecap:round;stroke-linejoin:bevel;stroke-miterlimit:17.60000038;stroke-dasharray:none;stroke-dashoffset:0;stroke-opacity:1;paint-order:stroke fill markers"
           d="m 15,28.5 v 90 l 45,-45 z"
           id="path4687" />
      </g>
    </pattern>
  </defs>
  <metadata
     id="metadata4488">
    <rdf:RDF>
      <cc:Work
         rdf:about="">
        <dc:format>image/svg+xml</dc:format>
        <dc:type
           rdf:resource="http://purl.org/dc/dcmitype/StillImage" />
        <dc:title />
      </cc:Work>
    </rdf:RDF>
  </metadata>
  <g
     inkscape:groupmode="layer"
     id="layer3"
     inkscape:label="sfondo"
     style="display:inline" />
  <g
     style="display:inline"
     inkscape:label="sfondo copia"
     id="g4738"
     inkscape:groupmode="layer" />
  <g
     id="layer1"
     inkscape:groupmode="layer"
     inkscape:label="film strip"
     style="display:inline;opacity:1" />
  <g
     inkscape:groupmode="layer"
     id="layer2"
     inkscape:label="audio"
     style="display:inline">
    <path
       style="fill:#6ee264;fill-opacity:1;stroke:#4e9a06;stroke-width:0.34064543px;stroke-linecap:butt;stroke-linejoin:miter;stroke-opacity:1"
       d="M 42.602504,50.955078 39.152191,88.789062 38.001146,81.222656 36.852922,96.357422 35.701878,56 33.402611,119.05664 V 73.65625 L 32.251564,121.58008 31.100521,111.49023 29.952297,121.58008 28.801253,53.478516 25.35094,106.44531 24.199895,66.089844 21.900626,96.357422 20.749582,83.746094 19.601358,96.357422 18.450313,61.044922 15,126.625 H 71.356053 L 67.90574,56 66.754695,83.746094 65.606471,76.177734 63.304382,124.10156 62.156159,98.878906 61.005113,116.53516 59.85407,76.177734 57.554802,114.01367 56.403757,101.40039 55.255533,108.96875 54.104488,93.833984 52.953444,121.58008 51.80522,61.044922 l -2.30209,35.3125 -1.148223,-35.3125 -2.30209,22.701172 -1.148223,-15.134766 -1.151045,17.65625 z m 56.587391,0 -3.45031,37.833984 L 94.588533,81.222656 93.437496,96.357422 92.289275,56 89.987185,119.05664 V 73.65625 L 88.83895,121.58008 87.687913,111.49023 86.536866,121.58008 85.388643,53.478516 81.938329,106.44531 80.787285,66.089844 78.488016,96.357422 77.336972,83.746094 76.185927,96.357422 75.037703,61.044922 71.58739,126.625 h 56.35605 L 124.49313,56 l -1.15105,27.746094 -1.15104,-7.56836 -2.29927,47.923826 -1.15104,-25.222654 -1.14823,17.656254 -1.15104,-40.357426 -2.29927,37.835936 -1.15104,-12.61328 -1.15105,7.56836 -1.14822,-15.134766 -1.15105,27.746096 -1.15104,-60.535158 -2.29927,35.3125 -1.15104,-35.3125 -2.29927,22.701172 -1.15104,-15.134766 -1.14824,17.65625 z M 127.94344,126.625 h 56.35605 L 180.84918,56 l -1.15104,27.746094 -1.14822,-7.56836 -2.30209,47.923826 -1.14823,-25.222654 -1.15104,17.656254 -1.15105,-40.357426 -2.29926,37.835936 -1.15105,-12.61328 -1.14822,7.56836 -1.15106,-15.134766 -1.15103,27.746096 -1.15104,-60.535158 -2.29927,35.3125 -1.15106,-35.3125 -2.29925,22.701172 -1.15106,-15.134766 -1.14822,17.65625 -1.15105,-35.3125 -3.45031,37.833984 -1.15104,-7.566406 -1.14822,15.134766 L 148.64532,56 146.34605,119.05664 V 73.65625 l -1.15104,47.92383 -1.15105,-10.08985 -1.14822,10.08985 -1.15104,-68.101564 -3.45031,52.966794 -1.15105,-40.355466 -2.29928,30.267578 -1.15103,-12.611328 -1.14822,12.611328 -1.15106,-35.3125 z m 84.1899,-75.669922 -3.45032,37.833984 -1.15104,-7.566406 -1.15105,15.134766 L 205.23271,56 202.93062,119.05664 V 73.65625 l -1.14822,47.92383 -1.15105,-10.08985 -1.15104,10.08985 -1.14822,-68.101564 -3.45031,52.966794 -1.15105,-40.355466 -2.29928,30.267578 -1.15103,-12.611328 -1.15106,12.611328 -1.14822,-35.3125 -3.45031,65.580078 h 56.35606 L 237.43657,56 l -1.15104,27.746094 -1.15105,-7.56836 -2.29926,47.923826 -1.15105,-25.222654 -1.14822,17.656254 -1.15104,-40.357426 -2.29927,37.835936 -1.15105,-12.61328 -1.15104,7.56836 -1.14822,-15.134766 -1.15106,27.746096 -1.15103,-60.535158 -2.29928,35.3125 -1.15105,-35.3125 -2.29926,22.701172 -1.15105,-15.134766 -1.15104,17.65625 z M 15,126.82617 l 3.450313,65.58008 1.151045,-35.3125 1.148224,12.61328 1.151044,-12.61328 2.299269,30.26758 1.151045,-40.35547 3.450313,52.96875 1.151044,-68.10352 1.148224,10.08985 1.151043,-10.08985 1.151047,47.92383 v -45.40039 l 2.299267,63.05664 1.151044,-40.35742 1.148224,15.13477 1.151045,-7.56641 3.450313,37.83398 1.151045,-35.3125 1.151045,17.65625 1.148223,-15.13281 2.30209,22.69922 1.148223,-35.3125 2.30209,35.3125 1.148224,-60.53516 1.151044,27.7461 1.151045,-15.13477 1.148224,7.56836 1.151045,-12.61133 2.299268,37.83399 1.151043,-40.35742 1.151046,17.65625 1.148223,-25.22266 2.302089,47.92383 1.148224,-7.56641 1.151045,27.74414 3.450313,-70.625 z m 56.58739,0 3.450313,65.58008 1.148224,-35.3125 1.151045,12.61328 1.151044,-12.61328 2.299269,30.26758 1.151044,-40.35547 3.450314,52.96875 1.148223,-68.10352 1.151047,10.08985 1.151037,-10.08985 1.148235,47.92383 v -45.40039 l 2.30209,63.05664 1.148221,-40.35742 1.151037,15.13477 1.151052,-7.56641 3.45031,37.83398 1.151035,-35.3125 1.14824,17.65625 1.15104,-15.13281 2.29927,22.69922 1.15104,-35.3125 2.29927,35.3125 1.15104,-60.53516 1.15105,27.7461 1.14822,-15.13477 1.15105,7.56836 1.15104,-12.61133 2.29927,37.83399 1.15104,-40.35742 1.14823,17.65625 1.15104,-25.22266 2.29927,47.92383 1.15104,-7.56641 1.15105,27.74414 3.45031,-70.625 z m 56.35605,0 3.45031,65.58008 1.15106,-35.3125 1.14822,12.61328 1.15103,-12.61328 2.29928,30.26758 1.15105,-40.35547 3.45031,52.96875 1.15104,-68.10352 1.14822,10.08985 1.15105,-10.08985 1.15104,47.92383 v -45.40039 l 2.29927,63.05664 1.15105,-40.35742 1.14822,15.13477 1.15104,-7.56641 3.45031,37.83398 1.15105,-35.3125 1.14822,17.65625 1.15106,-15.13281 2.29925,22.69922 1.15106,-35.3125 2.29927,35.3125 1.15104,-60.53516 1.15103,27.7461 1.15106,-15.13477 1.14822,7.56836 1.15105,-12.61133 2.29926,37.83399 1.15105,-40.35742 1.15104,17.65625 1.14823,-25.22266 2.30209,47.92383 1.14822,-7.56641 1.15104,27.74414 3.45031,-70.625 z m 56.58739,0 3.45031,65.58008 1.14822,-35.3125 1.15106,12.61328 1.15103,-12.61328 2.29928,30.26758 1.15105,-40.35547 3.45031,52.96875 1.14822,-68.10352 1.15104,10.08985 1.15105,-10.08985 1.14822,47.92383 v -45.40039 l 2.30209,63.05664 1.14822,-40.35742 1.15105,15.13477 1.15104,-7.56641 3.45032,37.83398 1.14822,-35.3125 1.15104,17.65625 1.15105,-15.13281 2.29926,22.69922 1.15105,-35.3125 2.29928,35.3125 1.15103,-60.53516 1.15106,27.7461 1.14822,-15.13477 1.15104,7.56836 1.15105,-12.61133 2.29927,37.83399 1.15104,-40.35742 1.14822,17.65625 1.15105,-25.22266 2.29926,47.92383 1.15105,-7.56641 1.15104,27.74414 3.45032,-70.625 z"
       id="path879"
       inkscape:connector-curvature="0" />
    <path
       style="fill:#8ae234;stroke:#000000;stroke-width:0.28848591px;stroke-linecap:butt;stroke-linejoin:miter;stroke-opacity:1"
       d="M 42.602514,72.383826 39.1522,99.518606 38.001155,94.088579 36.85293,104.9448 35.701885,76 33.402617,121.22336 V 88.662401 l -1.151046,34.370979 -1.151044,-7.23622 -1.148224,7.23622 L 28.801258,74.189985 25.350943,112.18099 24.199898,83.236195 21.900629,104.9448 20.749584,95.898593 19.60136,104.9448 18.450314,79.616165 15,126.65339 H 71.356073 L 67.905759,76 66.754714,95.898593 65.60649,90.472385 63.304399,124.84338 62.156177,106.75481 61.00513,119.41718 59.854086,90.472385 57.554817,117.60717 56.403772,108.56096 55.255548,113.991 54.104503,103.13479 52.953457,123.03338 51.805233,79.616165 49.503143,104.9448 48.354919,79.616165 46.052829,95.898593 44.904604,85.046211 43.753559,97.708607 Z m 56.587412,0 -3.450311,27.13478 L 94.588562,94.088579 93.437524,104.9448 92.289303,76 89.987213,121.22336 V 88.662401 l -1.148236,34.370979 -1.151038,-7.23622 -1.151046,7.23622 L 85.388668,74.189985 81.938354,112.18099 80.787309,83.236195 78.488039,104.9448 77.336994,95.898593 76.185949,104.9448 75.037725,79.616165 71.587411,126.65339 H 127.94349 L 124.49317,76 l -1.15105,19.898593 -1.15104,-5.426208 -2.29927,34.370995 -1.15104,-18.08857 -1.14823,12.66237 -1.15104,-28.944795 -2.29928,27.134785 -1.15103,-9.04621 -1.15106,5.43004 -1.14822,-10.85621 -1.15105,19.89859 -1.15104,-43.417215 -2.29927,25.328635 -1.15104,-25.328635 -2.29927,16.282428 -1.15104,-10.852382 -1.14824,12.662396 z m 28.753564,54.269564 h 56.35606 L 180.84924,76 l -1.15104,19.898593 -1.14822,-5.426208 -2.30209,34.370995 -1.14824,-18.08857 -1.15103,12.66237 -1.15106,-28.944795 -2.29925,27.134785 -1.15106,-9.04621 -1.14822,5.43004 -1.15105,-10.85621 -1.15104,19.89859 -1.15104,-43.417215 -2.29927,25.328635 -1.15105,-25.328635 -2.29926,16.282428 -1.15105,-10.852382 -1.14823,12.662396 -1.15105,-25.324781 -3.45031,27.13478 -1.15104,-5.430027 L 149.79642,104.9448 148.64537,76 146.3461,121.22336 V 88.662401 l -1.15104,34.370979 -1.15105,-7.23622 -1.14823,7.23622 -1.15103,-48.843395 -3.45032,37.991005 -1.15105,-28.944795 -2.29927,21.708605 -1.15104,-9.046207 -1.14822,9.046207 -1.15105,-25.328635 z m 84.18993,-54.269564 -3.45033,27.13478 -1.15104,-5.430027 L 206.381,104.9448 205.23278,76 202.93069,121.22336 V 88.662401 l -1.14822,34.370979 -1.15106,-7.23622 -1.15103,7.23622 -1.14822,-48.843395 -3.45032,37.991005 -1.15105,-28.944795 -2.29927,21.708605 -1.15104,-9.046207 -1.15105,9.046207 -1.14822,-25.328635 -3.45032,47.037225 h 56.35609 L 237.43665,76 l -1.15104,19.898593 -1.15105,-5.426208 -2.29926,34.370995 -1.15105,-18.08857 -1.14822,12.66237 -1.15104,-28.944795 -2.29928,27.134785 -1.15105,-9.04621 -1.15104,5.43004 -1.14822,-10.85621 -1.15105,19.89859 -1.15104,-43.417215 -2.29927,25.328635 -1.15105,-25.328635 -2.29926,16.282428 -1.15105,-10.852382 -1.15104,12.662396 z M 15,126.79588 l 3.450314,47.03723 1.151046,-25.32864 1.148224,9.04624 1.151045,-9.04624 2.299269,21.70861 1.151045,-28.9448 3.450315,37.991 1.151045,-48.84336 1.148224,7.23619 1.151044,-7.23619 1.151046,34.37098 v -32.56099 l 2.299268,45.22336 1.151045,-28.9448 1.148225,10.85622 1.151045,-5.42618 3.450314,27.13479 1.151045,-25.32862 1.151045,12.66238 1.148225,-10.85235 2.30209,16.2824 1.148224,-25.32864 2.30209,25.32864 1.148224,-43.41719 1.151046,19.89857 1.151045,-10.85236 1.148224,5.42618 1.151045,-9.04621 2.299269,27.13479 1.151044,-28.9448 1.151047,12.66623 1.148222,-18.09243 2.302091,34.371 1.148224,-5.42618 1.151045,19.89856 3.450314,-50.65339 z m 56.587411,0 3.450314,47.03723 1.148224,-25.32864 1.151045,9.04624 1.151045,-9.04624 2.29927,21.70861 1.151045,-28.9448 3.450314,37.991 1.148225,-48.84336 1.151046,7.23619 1.151038,-7.23619 1.148236,34.37098 v -32.56099 l 2.30209,45.22336 1.148221,-28.9448 1.151038,10.85622 1.151053,-5.42618 3.450311,27.13479 1.151034,-25.32862 1.14824,12.66238 1.15104,-10.85235 2.29927,16.2824 1.15104,-25.32864 2.29927,25.32864 1.15104,-43.41719 1.15105,19.89857 1.14822,-10.85236 1.15106,5.42618 1.15103,-9.04621 2.29928,27.13479 1.15104,-28.9448 1.14823,12.66623 1.15104,-18.09243 2.29927,34.371 1.15104,-5.42618 1.15105,19.89856 3.45032,-50.65339 z m 56.356079,0 3.45031,47.03723 1.15105,-25.32864 1.14822,9.04624 1.15104,-9.04624 2.29927,21.70861 1.15105,-28.9448 3.45032,37.991 1.15103,-48.84336 1.14823,7.23619 1.15105,-7.23619 1.15104,34.37098 v -32.56099 l 2.29927,45.22336 1.15105,-28.9448 1.14822,10.85622 1.15104,-5.42618 3.45031,27.13479 1.15105,-25.32862 1.14823,12.66238 1.15105,-10.85235 2.29926,16.2824 1.15105,-25.32864 2.29927,25.32864 1.15104,-43.41719 1.15104,19.89857 1.15105,-10.85236 1.14822,5.42618 1.15106,-9.04621 2.29925,27.13479 1.15106,-28.9448 1.15103,12.66623 1.14824,-18.09243 2.30209,34.371 1.14822,-5.42618 1.15104,19.89856 3.45031,-50.65339 z m 56.5874,0 3.45032,47.03723 1.14822,-25.32864 1.15105,9.04624 1.15104,-9.04624 2.29927,21.70861 1.15105,-28.9448 3.45032,37.991 1.14822,-48.84336 1.15103,7.23619 1.15106,-7.23619 1.14822,34.37098 v -32.56099 l 2.30209,45.22336 1.14822,-28.9448 1.15105,10.85622 1.15104,-5.42618 3.45033,27.13479 1.14822,-25.32862 1.15104,12.66238 1.15105,-10.85235 2.29926,16.2824 1.15105,-25.32864 2.29927,25.32864 1.15104,-43.41719 1.15105,19.89857 1.14822,-10.85236 1.15104,5.42618 1.15105,-9.04621 2.29928,27.13479 1.15104,-28.9448 1.14822,12.66623 1.15105,-18.09243 2.29926,34.371 1.15105,-5.42618 1.15104,19.89856 3.45033,-50.65339 z"
       id="path895"
       inkscape:connector-curvature="0" />
    <path
       style="fill:#000000;stroke:#000000;stroke-width:0.25849551px;stroke-linecap:butt;stroke-linejoin:miter;stroke-opacity:1"
       d="M 42.602514,83.09651 39.1522,104.8798 38.001155,100.5176 36.85293,109.24202 35.701885,86 33.402617,122.31477 V 96.169257 l -1.151046,27.590283 -1.151044,-5.80698 -1.148224,5.80698 L 28.801258,84.541289 25.350943,115.04899 24.199898,91.807058 21.900629,109.24202 20.749584,101.97624 19.60136,109.24202 18.450314,88.90349 15,126.66311 H 71.356073 L 67.905759,86 66.754714,101.97624 65.60649,97.614036 63.304399,125.21825 62.156177,110.6868 61.00513,120.85605 59.854086,97.614036 l -2.299269,21.797234 -1.151045,-7.26576 -1.148224,4.36219 -1.151045,-8.72441 -1.151046,15.97625 -1.148224,-34.85605 -2.30209,20.33853 -1.148224,-20.33853 -2.30209,13.07275 -1.148225,-8.710552 -1.151045,10.169272 z m 56.587412,0 -3.450311,21.78329 -1.151053,-4.3622 -1.151038,8.72442 L 92.289303,86 89.987213,122.31477 V 96.169257 l -1.148236,27.590283 -1.151038,-5.80698 -1.151046,5.80698 -1.148225,-39.218251 -3.450314,30.507701 -1.151045,-23.241932 -2.29927,17.434962 -1.151045,-7.26578 -1.151045,7.26578 -1.148224,-20.33853 -3.450314,37.75962 H 127.94349 L 124.49317,86 l -1.15105,15.97624 -1.15104,-4.362204 -2.29927,27.604214 -1.15104,-14.53145 -1.14823,10.16925 -1.15104,-23.242014 -2.29928,21.797234 -1.15103,-7.26576 -1.15106,4.36219 -1.14822,-8.72441 -1.15105,15.97625 -1.15104,-34.85605 -2.29927,20.33853 -1.15104,-20.33853 -2.29927,13.07275 -1.15104,-8.710552 -1.14824,10.169272 z m 28.753564,43.5666 h 56.35606 L 180.84924,86 l -1.15104,15.97624 -1.14822,-4.362204 -2.30209,27.604214 -1.14824,-14.53145 -1.15103,10.16925 -1.15106,-23.242014 -2.29925,21.797234 -1.15106,-7.26576 -1.14822,4.36219 -1.15105,-8.72441 -1.15104,15.97625 -1.15104,-34.85605 -2.29927,20.33853 -1.15105,-20.33853 -2.29926,13.07275 -1.15105,-8.710552 -1.14823,10.169272 -1.15105,-20.33845 -3.45031,21.78329 -1.15104,-4.3622 -1.14822,8.72442 L 148.64537,86 146.3461,122.31477 V 96.169257 l -1.15104,27.590283 -1.15105,-5.80698 -1.14823,5.80698 -1.15103,-39.218251 -3.45032,30.507701 -1.15105,-23.241932 -2.29927,17.434962 -1.15104,-7.26578 -1.14822,7.26578 -1.15105,-20.33853 z m 84.18993,-43.5666 -3.45033,21.78329 -1.15104,-4.3622 -1.15105,8.72442 L 205.23278,86 202.93069,122.31477 V 96.169257 l -1.14822,27.590283 -1.15106,-5.80698 -1.15103,5.80698 -1.14822,-39.218251 -3.45032,30.507701 -1.15105,-23.241932 -2.29927,17.434962 -1.15104,-7.26578 -1.15105,7.26578 -1.14822,-20.33853 -3.45032,37.75962 h 56.35609 L 237.43665,86 l -1.15104,15.97624 -1.15105,-4.362204 -2.29926,27.604214 -1.15105,-14.53145 -1.14822,10.16925 -1.15104,-23.242014 -2.29928,21.797234 -1.15105,-7.26576 -1.15104,4.36219 -1.14822,-8.72441 -1.15105,15.97625 -1.15104,-34.85605 -2.29927,20.33853 -1.15105,-20.33853 -2.29926,13.07275 -1.15105,-8.710552 -1.15104,10.169272 z M 15,126.78814 l 3.450314,37.75955 1.151046,-20.33854 1.148224,7.26579 1.151045,-7.26579 2.299269,17.43504 1.151045,-23.24201 3.450315,30.5077 1.151045,-39.21825 1.148224,5.80698 1.151044,-5.80698 1.151046,27.59028 v -26.1455 l 2.299268,36.31476 1.151045,-23.24202 1.148225,8.7245 1.151045,-4.3622 3.450314,21.78329 1.151045,-20.32464 1.151045,10.15538 1.148225,-8.71054 2.30209,13.07275 1.148224,-20.33854 2.30209,20.33854 1.148224,-34.85606 1.151046,15.97625 1.151045,-8.71056 1.148224,4.34835 1.151045,-7.25184 2.299269,21.7833 1.151044,-23.24201 1.151047,10.16927 1.148222,-14.53147 2.302091,27.60421 1.148224,-4.36219 1.151045,15.97623 3.450314,-40.66303 z m 56.587411,0 3.450314,37.75955 1.148224,-20.33854 1.151045,7.26579 1.151045,-7.26579 2.29927,17.43504 1.151045,-23.24201 3.450314,30.5077 1.148225,-39.21825 1.151046,5.80698 1.151038,-5.80698 1.148236,27.59028 v -26.1455 l 2.30209,36.31476 1.148221,-23.24202 1.151038,8.7245 1.151053,-4.3622 3.450311,21.78329 1.151034,-20.32464 1.14824,10.15538 1.15104,-8.71054 2.29927,13.07275 1.15104,-20.33854 2.29927,20.33854 1.15104,-34.85606 1.15105,15.97625 1.14822,-8.71056 1.15106,4.34835 1.15103,-7.25184 2.29928,21.7833 1.15104,-23.24201 1.14823,10.16927 1.15104,-14.53147 2.29927,27.60421 1.15104,-4.36219 1.15105,15.97623 3.45032,-40.66303 z m 56.356079,0 3.45031,37.75955 1.15105,-20.33854 1.14822,7.26579 1.15104,-7.26579 2.29927,17.43504 1.15105,-23.24201 3.45032,30.5077 1.15103,-39.21825 1.14823,5.80698 1.15105,-5.80698 1.15104,27.59028 v -26.1455 l 2.29927,36.31476 1.15105,-23.24202 1.14822,8.7245 1.15104,-4.3622 3.45031,21.78329 1.15105,-20.32464 1.14823,10.15538 1.15105,-8.71054 2.29926,13.07275 1.15105,-20.33854 2.29927,20.33854 1.15104,-34.85606 1.15104,15.97625 1.15105,-8.71056 1.14822,4.34835 1.15106,-7.25184 2.29925,21.7833 1.15106,-23.24201 1.15103,10.16927 1.14824,-14.53147 2.30209,27.60421 1.14822,-4.36219 1.15104,15.97623 3.45031,-40.66303 z m 56.5874,0 3.45032,37.75955 1.14822,-20.33854 1.15105,7.26579 1.15104,-7.26579 2.29927,17.43504 1.15105,-23.24201 3.45032,30.5077 1.14822,-39.21825 1.15103,5.80698 1.15106,-5.80698 1.14822,27.59028 v -26.1455 l 2.30209,36.31476 1.14822,-23.24202 1.15105,8.7245 1.15104,-4.3622 3.45033,21.78329 1.14822,-20.32464 1.15104,10.15538 1.15105,-8.71054 2.29926,13.07275 1.15105,-20.33854 2.29927,20.33854 1.15104,-34.85606 1.15105,15.97625 1.14822,-8.71056 1.15104,4.34835 1.15105,-7.25184 2.29928,21.7833 1.15104,-23.24201 1.14822,10.16927 1.15105,-14.53147 2.29926,27.60421 1.15105,-4.36219 1.15104,15.97623 3.45033,-40.66303 z"
       id="path911"
       inkscape:connector-curvature="0" />
    <path
       inkscape:connector-curvature="0"
       id="path4522"
       d="m 211.3041,141.84237 v 0.29297 h -0.0325 v 60.71482 a 30.242067,19.433422 0 0 0 -10.92119,-1.33463 30.242067,19.433422 0 0 0 -30.24093,19.43354 30.242067,19.433422 0 0 0 30.24093,19.43351 30.242067,19.433422 0 0 0 30.24094,-19.43351 A 30.242067,19.433422 0 0 0 230,217.21102 v -55.93514 h 20.17148 v -19.43351 z"
       style="opacity:1;fill:#888a85;fill-opacity:1;fill-rule:nonzero;stroke:none;stroke-width:7.3416152;stroke-linecap:square;stroke-linejoin:round;stroke-miterlimit:4;stroke-dasharray:none;stroke-dashoffset:0;stroke-opacity:1;paint-order:stroke fill markers" />
    <path
       style="opacity:1;fill:#4e9a06;fill-opacity:1;fill-rule:nonzero;stroke:none;stroke-width:7.21582747;stroke-linecap:square;stroke-linejoin:round;stroke-miterlimit:4;stroke-dasharray:none;stroke-dashoffset:0;stroke-opacity:1;paint-order:stroke fill markers"
       d="m 46.152684,16.03732 v 0.28795 h -0.03199 V 76 A 29.723833,19.100515 0 0 0 35.386642,74.68824 29.723833,19.100515 0 0 0 5.6639205,93.78886 29.723833,19.100515 0 0 0 35.386642,112.88947 29.723833,19.100515 0 0 0 65.109375,93.78886 29.723833,19.100515 0 0 0 64.528165,90.11485 V 35.13792 h 19.825809 v -19.1006 z"
       id="path4567"
       inkscape:connector-curvature="0" />
  </g>
  <g
     inkscape:groupmode="layer"
     id="layer4"
     inkscape:label="freccie"
     style="display:inline" />
  <g
     inkscape:groupmode="layer"
     id="layer5"
     inkscape:label="ffmpeg"
     style="display:none">
    <path
       style="color:#000000;font-style:normal;font-variant:normal;font-weight:normal;font-stretch:normal;font-size:medium;line-height:normal;font-family:sans-serif;font-variant-ligatures:normal;font-variant-position:normal;font-variant-caps:normal;font-variant-numeric:normal;font-variant-alternates:normal;font-feature-settings:normal;text-indent:0;text-align:start;text-decoration:none;text-decoration-line:none;text-decoration-style:solid;text-decoration-color:#000000;letter-spacing:normal;word-spacing:normal;text-transform:none;writing-mode:lr-tb;direction:ltr;text-orientation:mixed;dominant-baseline:auto;baseline-shift:baseline;text-anchor:start;white-space:normal;shape-padding:0;clip-rule:nonzero;display:inline;overflow:visible;visibility:visible;opacity:1;isolation:auto;mix-blend-mode:normal;color-interpolation:sRGB;color-interpolation-filters:linearRGB;solid-color:#000000;solid-opacity:1;vector-effect:none;fill:#73d216;fill-opacity:1;fill-rule:nonzero;stroke:#4e9a06;stroke-width:6.26205349;stroke-linecap:round;stroke-linejoin:round;stroke-miterlimit:4;stroke-dasharray:none;stroke-dashoffset:0;stroke-opacity:1;color-rendering:auto;image-rendering:auto;shape-rendering:auto;text-rendering:auto;enable-background:accumulate"
       d="M 46.21789,49.048811 V 50 H 94 L 47.113323,96.8867 v 58.41606 L 152.41607,50 h 50.99422 L 51.220872,206.94535 h 53.636008 l 99.20177,-99.20181 v 55.72603 l -43.4758,43.47578 h 44.67958 l -1.69245,-0.9512 h -40.69089 l 42.13076,-42.13076 V 105.44734 L 104.46303,205.99415 H 53.468798 L 205.65821,49.048811 H 152.0222 L 48.064507,153.00653 V 97.28055 L 96.2962,49.048811 Z"
       id="path4593"
       inkscape:connector-curvature="0"
       sodipodi:nodetypes="ccccccccccccccccccccccccc" />
  </g>
</svg>
