<?xml version="1.0" encoding="UTF-8" standalone="no"?>
<!-- Created with Inkscape (http://www.inkscape.org/) -->

<svg
   xmlns:osb="http://www.openswatchbook.org/uri/2009/osb"
   xmlns:dc="http://purl.org/dc/elements/1.1/"
   xmlns:cc="http://creativecommons.org/ns#"
   xmlns:rdf="http://www.w3.org/1999/02/22-rdf-syntax-ns#"
   xmlns:svg="http://www.w3.org/2000/svg"
   xmlns="http://www.w3.org/2000/svg"
   xmlns:xlink="http://www.w3.org/1999/xlink"
   xmlns:sodipodi="http://sodipodi.sourceforge.net/DTD/sodipodi-0.dtd"
   xmlns:inkscape="http://www.inkscape.org/namespaces/inkscape"
   width="256px"
   height="256px"
   viewBox="0 0 256 256"
   version="1.1"
   id="SVGRoot"
   sodipodi:docname="icon_videoconversions.svg"
   inkscape:version="0.92.4 (5da689c313, 2019-01-14)"
   enable-background="new">
  <sodipodi:namedview
     id="base"
     pagecolor="#ffffff"
     bordercolor="#666666"
     borderopacity="1.0"
     inkscape:pageopacity="0.0"
     inkscape:pageshadow="2"
     inkscape:zoom="2.6657926"
     inkscape:cx="138.00241"
     inkscape:cy="119.40306"
     inkscape:document-units="px"
     inkscape:current-layer="layer1"
     showgrid="true"
     inkscape:window-width="1920"
     inkscape:window-height="1023"
     inkscape:window-x="0"
     inkscape:window-y="31"
     inkscape:window-maximized="1"
     inkscape:grid-bbox="true"
     inkscape:measure-start="110,130"
     inkscape:measure-end="0,0"
     showguides="false">
    <inkscape:grid
       type="xygrid"
       id="grid5114" />
  </sodipodi:namedview>
  <defs
     id="defs4485">
    <inkscape:path-effect
       effect="bspline"
       id="path-effect4551"
       is_visible="true"
       weight="33.333333"
       steps="2"
       helper_size="0"
       apply_no_weight="true"
       apply_with_weight="true"
       only_selected="false" />
    <inkscape:path-effect
       effect="skeletal"
       id="path-effect4547"
       is_visible="true"
       pattern="M 0,5 C 0,2.24 2.24,0 5,0 7.76,0 10,2.24 10,5 10,7.76 7.76,10 5,10 2.24,10 0,7.76 0,5 Z"
       copytype="single_stretched"
       prop_scale="1"
       scale_y_rel="false"
       spacing="0"
       normal_offset="0"
       tang_offset="0"
       prop_units="false"
       vertical_pattern="false"
       fuse_tolerance="0" />
    <inkscape:path-effect
       effect="bspline"
       id="path-effect4545"
       is_visible="true"
       weight="33.333333"
       steps="2"
       helper_size="0"
       apply_no_weight="true"
       apply_with_weight="true"
       only_selected="false" />
    <inkscape:path-effect
       effect="skeletal"
       id="path-effect4541"
       is_visible="true"
       pattern="M 0,5 C 0,2.24 2.24,0 5,0 7.76,0 10,2.24 10,5 10,7.76 7.76,10 5,10 2.24,10 0,7.76 0,5 Z"
       copytype="single_stretched"
       prop_scale="1"
       scale_y_rel="false"
       spacing="0"
       normal_offset="0"
       tang_offset="0"
       prop_units="false"
       vertical_pattern="false"
       fuse_tolerance="0" />
    <inkscape:path-effect
       effect="spiro"
       id="path-effect4539"
       is_visible="true" />
    <inkscape:path-effect
       effect="bspline"
       id="path-effect4535"
       is_visible="true"
       weight="33.333333"
       steps="2"
       helper_size="0"
       apply_no_weight="true"
       apply_with_weight="true"
       only_selected="false" />
    <inkscape:path-effect
       effect="skeletal"
       id="path-effect4531"
       is_visible="true"
       pattern="M 0,5 C 0,2.24 2.24,0 5,0 7.76,0 10,2.24 10,5 10,7.76 7.76,10 5,10 2.24,10 0,7.76 0,5 Z"
       copytype="single_stretched"
       prop_scale="1"
       scale_y_rel="false"
       spacing="0"
       normal_offset="0"
       tang_offset="0"
       prop_units="false"
       vertical_pattern="false"
       fuse_tolerance="0" />
    <inkscape:path-effect
       effect="bspline"
       id="path-effect4529"
       is_visible="true"
       weight="33.333333"
       steps="2"
       helper_size="0"
       apply_no_weight="true"
       apply_with_weight="true"
       only_selected="false" />
    <inkscape:path-effect
       effect="skeletal"
       id="path-effect4525"
       is_visible="true"
       pattern="M 0,5 C 0,2.24 2.24,0 5,0 7.76,0 10,2.24 10,5 10,7.76 7.76,10 5,10 2.24,10 0,7.76 0,5 Z"
       copytype="single_stretched"
       prop_scale="1"
       scale_y_rel="false"
       spacing="0"
       normal_offset="0"
       tang_offset="0"
       prop_units="false"
       vertical_pattern="false"
       fuse_tolerance="0" />
    <inkscape:path-effect
       effect="bspline"
       id="path-effect4523"
       is_visible="true"
       weight="33.333333"
       steps="2"
       helper_size="0"
       apply_no_weight="true"
       apply_with_weight="true"
       only_selected="false" />
    <inkscape:path-effect
       effect="bspline"
       id="path-effect4519"
       is_visible="true"
       weight="33.333333"
       steps="2"
       helper_size="0"
       apply_no_weight="true"
       apply_with_weight="true"
       only_selected="false" />
    <linearGradient
       inkscape:collect="always"
       id="linearGradient4752">
      <stop
         style="stop-color:#888a85;stop-opacity:1;"
         offset="0"
         id="stop4748" />
      <stop
         style="stop-color:#888a85;stop-opacity:0;"
         offset="1"
         id="stop4750" />
    </linearGradient>
    <pattern
       inkscape:isstock="true"
       inkscape:stockid="Stripes 1:1"
       id="Strips1_1"
       patternTransform="translate(0,0) scale(10,10)"
       height="1"
       width="2"
       patternUnits="userSpaceOnUse"
       inkscape:collect="always">
      <rect
         id="rect5447"
         height="2"
         width="1"
         y="-0.5"
         x="0"
         style="fill:black;stroke:none" />
    </pattern>
    <linearGradient
       id="linearGradient4727"
       osb:paint="solid">
      <stop
         style="stop-color:#ce5c00;stop-opacity:1;"
         offset="0"
         id="stop4725" />
    </linearGradient>
    <pattern
       patternUnits="userSpaceOnUse"
       width="55"
       height="90"
       patternTransform="translate(-60,50.5)"
       id="pattern6214">
      <g
         style="fill:url(#Strips1_1);fill-opacity:1"
         transform="translate(-15,-28.5)"
         id="g4691">
        <rect
           style="opacity:0.81499999;fill:url(#Strips1_1);fill-opacity:1;stroke:none;stroke-width:4.52699995;stroke-linecap:round;stroke-linejoin:bevel;stroke-miterlimit:17.60000038;stroke-dasharray:none;stroke-dashoffset:0;stroke-opacity:1;paint-order:stroke fill markers"
           id="rect4683"
           width="30"
           height="30"
           x="40"
           y="59"
           ry="7.9000001" />
        <path
           inkscape:connector-curvature="0"
           style="opacity:0.81499999;fill:url(#Strips1_1);fill-opacity:1;stroke:none;stroke-width:8.60130024;stroke-linecap:round;stroke-linejoin:bevel;stroke-miterlimit:17.60000038;stroke-dasharray:none;stroke-dashoffset:0;stroke-opacity:1;paint-order:stroke fill markers"
           d="m 15,28.5 v 90 l 45,-45 z"
           id="path4687" />
      </g>
    </pattern>
    <linearGradient
       inkscape:collect="always"
       xlink:href="#linearGradient4752"
       id="linearGradient4754"
       x1="11.826138"
       y1="245.7171"
       x2="149.78668"
       y2="106.13758"
       gradientUnits="userSpaceOnUse"
       gradientTransform="matrix(0.95425703,0,0,0.95425703,5.390281,5.594659)" />
    <linearGradient
       inkscape:collect="always"
       xlink:href="#linearGradient4560"
       id="linearGradient4562"
       x1="-11.593207"
       y1="128.66191"
       x2="268.93854"
       y2="128.66191"
       gradientUnits="userSpaceOnUse"
       gradientTransform="matrix(0.49602862,-0.00361488,0.00361488,0.48879887,24.786346,29.27933)" />
    <linearGradient
       inkscape:collect="always"
       id="linearGradient4560">
      <stop
         style="stop-color:#380000;stop-opacity:1;"
         offset="0"
         id="stop4556" />
      <stop
         style="stop-color:#380000;stop-opacity:0;"
         offset="1"
         id="stop4558" />
    </linearGradient>
    <linearGradient
       inkscape:collect="always"
       xlink:href="#linearGradient4560"
       id="linearGradient4962"
       gradientUnits="userSpaceOnUse"
       gradientTransform="matrix(0.25803426,-0.15149403,0.1493135,0.25425746,133.23813,160.16595)"
       x1="-11.593207"
       y1="128.66191"
       x2="268.93854"
       y2="128.66191" />
    <linearGradient
       inkscape:collect="always"
       xlink:href="#linearGradient4560"
       id="linearGradient4968"
       gradientUnits="userSpaceOnUse"
       gradientTransform="matrix(-0.04249603,-0.15409649,0.15184611,-0.04189303,209.199,123.81786)"
       x1="-11.593207"
       y1="128.66191"
       x2="268.93854"
       y2="128.66191" />
  </defs>
  <metadata
     id="metadata4488">
    <rdf:RDF>
      <cc:Work
         rdf:about="">
        <dc:format>image/svg+xml</dc:format>
        <dc:type
           rdf:resource="http://purl.org/dc/dcmitype/StillImage" />
        <dc:title />
      </cc:Work>
    </rdf:RDF>
  </metadata>
  <g
     inkscape:groupmode="layer"
     id="layer3"
     inkscape:label="sfondo"
     style="display:none">
    <rect
       style="display:inline;opacity:1;fill:#eeeeec;fill-opacity:1;stroke:none;stroke-width:7.00387716;stroke-linecap:round;stroke-linejoin:bevel;stroke-miterlimit:17.60000038;stroke-dasharray:none;stroke-dashoffset:0;stroke-opacity:0.97647059;paint-order:stroke fill markers"
       id="rect4568-3"
       width="222.07193"
       height="222.07193"
       x="16.675457"
       y="18"
       ry="22.6604" />
  </g>
  <g
     style="display:none"
     inkscape:label="sfondo copia"
     id="g4738"
     inkscape:groupmode="layer">
    <rect
       ry="22.6604"
       y="18"
       x="16.675457"
       height="222.07193"
       width="222.07193"
       id="rect4736"
       style="display:inline;opacity:1;fill:url(#linearGradient4754);fill-opacity:1;stroke:none;stroke-width:7.00387716;stroke-linecap:round;stroke-linejoin:bevel;stroke-miterlimit:17.60000038;stroke-dasharray:none;stroke-dashoffset:0;stroke-opacity:0.97647059;paint-order:stroke fill markers" />
  </g>
  <g
     inkscape:groupmode="layer"
     id="layer1"
     inkscape:label="preset"
     style="display:inline">
    <path
       style="display:inline;opacity:1;fill:url(#linearGradient4562);fill-opacity:1;stroke:none;stroke-width:0.64012319"
       d="M 122.1719,21.349895 19.746061,125.36154 56.220408,162.05635 158.40925,58.286318 Z"
       id="rect5216"
       inkscape:connector-curvature="0" />
    <path
       style="display:inline;opacity:1;fill:#180000;fill-opacity:0.8835983;stroke:none;stroke-width:0.64941937"
       d="M 110.19214,9.431068 8.0855181,113.1176 22.631201,127.85976 c 0.379369,-1.19734 1.03332,-2.32619 1.973268,-3.28066 l 11.400514,-11.5766 c 3.157791,-3.20681 8.247855,-3.21096 11.411781,-0.008 l 21.071048,21.32855 c 3.163958,3.2026 3.167882,8.36198 0.01083,11.56873 l -11.400493,11.57659 c -0.949514,0.96312 -2.072307,1.63298 -3.26483,2.01626 L 68.390946,174.23825 170.30326,70.748344 154.53428,54.663906 c 0.10591,2.260988 -0.68634,4.55617 -2.39525,6.291519 l -11.63327,11.81386 c -3.22232,3.272198 -8.41454,3.275363 -11.64306,0.0072 L 108.02468,51.6841 c -3.22849,-3.267973 -3.23434,-8.532069 -0.012,-11.804267 L 119.6459,28.066009 c 1.76839,-1.795793 4.12984,-2.600104 6.43505,-2.426543 z m 1.34085,4.725506 c 0.84178,-3.98e-4 1.68388,0.325118 2.32961,0.978713 l 4.6214,4.678588 c 1.29162,1.306949 1.29377,3.413273 0.005,4.722172 l -2.3265,2.363776 c -1.28868,1.309103 -3.36733,1.309512 -4.65873,0.0024 l -4.62132,-4.678673 c -1.29161,-1.306949 -1.29371,-3.412178 -0.005,-4.721064 l 2.32648,-2.362729 c 0.64434,-0.654546 1.48729,-0.982685 2.32908,-0.983215 z m -9.30679,9.451119 c 0.84178,-3.97e-4 1.68393,0.326213 2.32962,0.979796 l 4.62129,4.677626 c 1.2916,1.306925 1.29271,3.413273 0.004,4.722135 l -2.3254,2.361658 c -1.28869,1.309115 -3.36625,1.310583 -4.65767,0.0036 l -4.621318,-4.678674 c -1.291627,-1.306948 -1.292686,-3.413272 -0.0036,-4.722159 l 2.32644,-2.361669 c 0.644348,-0.654558 1.485158,-0.981566 2.326968,-0.98212 z m -9.306827,9.449975 c 0.841791,-3.97e-4 1.683943,0.326226 2.329617,0.979821 l 4.62131,4.678661 c 1.29163,1.306949 1.2948,3.412178 0.006,4.721052 l -2.326488,2.362741 c -1.28869,1.309115 -3.367332,1.310595 -4.658706,0.0036 l -4.621297,-4.67865 c -1.291651,-1.306972 -1.292686,-3.412189 -0.0036,-4.721076 l 2.326513,-2.363775 c 0.644351,-0.65457 1.48519,-0.981566 2.326957,-0.98212 z m -9.305687,9.450036 c 0.841465,-3.97e-4 1.685182,0.326972 2.330724,0.979797 l 4.620226,4.677602 c 1.291639,1.30696 1.293288,3.413248 0.0048,4.722123 l -2.326512,2.363788 c -1.28869,1.309103 -3.366248,1.3095 -4.65767,0.0024 l -4.621286,-4.678649 c -1.291638,-1.306949 -1.294804,-3.412166 -0.006,-4.72104 l 2.326416,-2.363872 c 0.644351,-0.654558 1.487105,-0.981373 2.329112,-0.982131 z m -9.306831,9.449988 c 0.841791,-4.09e-4 1.683906,0.326214 2.329629,0.979797 l 4.62131,4.678673 c 1.291638,1.30696 1.294852,3.412165 0.006,4.721052 l -2.326476,2.362728 c -1.288702,1.309128 -3.36732,1.311294 -4.65873,0.0048 L 69.657273,60.02606 c -1.291639,-1.306949 -1.292397,-3.413249 -0.0036,-4.722124 l 2.326464,-2.36274 c 0.644363,-0.65457 1.485191,-0.982649 2.32697,-0.983203 z m 23.239773,2.00415 c 2.104687,-10e-4 4.210372,0.814457 5.824602,2.448426 l 20.83695,21.092502 c 3.22849,3.267962 3.23325,8.532081 0.0108,11.804303 l -11.63211,11.813887 c -3.2224,3.27211 -8.41563,3.27537 -11.64414,0.007 L 80.105761,80.035737 C 76.877278,76.767763 76.871428,71.503644 80.093725,68.231458 L 91.725828,56.417574 c 1.611209,-1.636075 3.715932,-2.454492 5.82062,-2.455876 z M 65.00012,61.408848 c 0.841803,-1.57e-4 1.685026,0.326213 2.330701,0.97982 l 4.621297,4.678661 c 1.291639,1.306961 1.293781,3.41219 0.0048,4.721052 l -2.326476,2.362741 c -1.288678,1.309103 -3.366248,1.309488 -4.657671,0.0024 l -4.621273,-4.677614 c -1.291638,-1.306949 -1.294792,-3.413249 -0.006,-4.722135 l 2.326488,-2.362729 C 63.316322,61.736494 64.158221,61.409498 65,61.40892 Z m 92.95157,-0.267322 c 0.84179,-1.56e-4 1.68287,0.326214 2.32856,0.979809 l 4.62244,4.678613 c 1.29163,1.306948 1.2927,3.412189 0.004,4.721064 l -2.32651,2.363788 c -1.28868,1.309103 -3.36624,1.310619 -4.65765,0.0036 l -4.62243,-4.678612 c -1.29164,-1.306949 -1.29272,-3.412178 -0.004,-4.721077 l 2.3275,-2.364943 c 0.64434,-0.654557 1.48626,-0.981565 2.32801,-0.982119 z M 55.694404,70.85886 c 0.842012,-0.0012 1.684995,0.325322 2.330706,0.9787 l 4.621321,4.678686 c 1.291639,1.306948 1.292397,3.414368 0.0036,4.723254 l -2.326452,2.36167 c -1.288678,1.309103 -3.36626,1.310547 -4.65765,0.0036 l -4.621283,-4.678649 c -1.291628,-1.306937 -1.292653,-3.412154 -0.0037,-4.721028 l 2.326492,-2.362753 c 0.644334,-0.654546 1.484925,-0.982372 2.326926,-0.983203 z m 92.950526,-0.26625 c 0.84177,-0.0012 1.68283,0.32513 2.32852,0.978737 l 4.62236,4.678697 c 1.29163,1.306949 1.29372,3.413261 0.005,4.722135 l -2.32647,2.362729 c -1.28868,1.309103 -3.36624,1.309548 -4.65767,0.0024 l -4.62231,-4.677638 c -1.29163,-1.306949 -1.2927,-3.413285 -0.004,-4.722159 l 2.32644,-2.361682 c 0.64435,-0.654557 1.48623,-0.982649 2.32804,-0.983214 z M 46.387609,80.308871 c 0.84179,-0.0012 1.685018,0.326238 2.330706,0.979809 l 4.62131,4.678673 c 1.291623,1.306936 1.293708,3.412189 0.0048,4.721052 l -2.327564,2.363824 c -1.288678,1.309103 -3.366272,1.309536 -4.657673,0.0024 l -4.621299,-4.677638 c -1.291634,-1.306949 -1.292661,-3.413273 -0.0037,-4.722147 l 2.326509,-2.363788 c 0.644351,-0.65457 1.485164,-0.981554 2.326961,-0.982131 z m 92.950501,-0.265166 c 0.84178,-0.0012 1.68286,0.326249 2.32855,0.979832 l 4.62346,4.67759 c 1.29164,1.306961 1.29269,3.413261 0.004,4.722135 l -2.32645,2.361694 c -1.28869,1.309115 -3.36625,1.310535 -4.65764,0.0036 l -4.62234,-4.678685 c -1.29164,-1.306949 -1.29272,-3.413285 -0.004,-4.722136 l 2.32645,-2.361681 c 0.64434,-0.654546 1.48622,-0.981566 2.328,-0.98212 z m -69.711252,2.199531 c 2.062621,-0.0024 4.126121,0.798654 5.708082,2.400173 l 21.072137,21.328551 c 3.163922,3.20257 3.167665,8.362 0.01083,11.56872 l -11.400506,11.5766 c -3.157795,3.20682 -8.24679,3.21093 -11.410723,0.008 L 52.533995,107.79667 c -3.163928,-3.20257 -3.167869,-8.36304 -0.01023,-11.569795 l 11.399417,-11.57551 c 1.578892,-1.603409 3.641116,-2.406588 5.703725,-2.408117 z m -32.544958,7.515659 6e-6,0.0012 c 0.841775,-0.0012 1.68393,0.326201 2.329625,0.97982 l 4.62126,4.677602 c 1.291648,1.306961 1.293741,3.413303 0.0048,4.722133 l -2.326491,2.36276 c -1.288687,1.30911 -3.366247,1.30947 -4.657656,0.002 L 32.43216,97.825963 c -1.291634,-1.306949 -1.29266,-3.412166 -0.0037,-4.721064 l 2.326467,-2.362717 c 0.644334,-0.654545 1.485173,-0.982637 2.326955,-0.983214 z m 92.9505,-0.265154 c 0.84143,-0.0012 1.68414,0.326851 2.32964,0.979808 l 4.62123,4.676543 c 1.29162,1.306936 1.29227,3.414328 0.004,4.723208 l -2.32649,2.36274 c -1.28868,1.3091 -3.3652,1.3095 -4.65661,0.002 l -4.62233,-4.677654 c -1.29162,-1.306936 -1.29272,-3.413261 -0.004,-4.722159 l 2.32647,-2.362741 c 0.64434,-0.654546 1.48602,-0.981397 2.32804,-0.982131 z M 27.775116,99.21 c 0.841795,-1.5e-4 1.683939,0.32623 2.329631,0.97982 l 4.621312,4.67868 c 1.29163,1.30694 1.294814,3.41324 0.0059,4.7221 l -2.326448,2.36168 c -1.288695,1.30912 -3.367336,1.30947 -4.658745,0.002 l -4.621263,-4.6776 c -1.291636,-1.30695 -1.292661,-3.41327 -0.0037,-4.72215 l 2.32645,-2.36168 c 0.644343,-0.65455 1.485161,-0.98265 2.326955,-0.98321 z m 92.949424,-0.26732 0.002,-9.3e-4 c 0.84181,-1.5e-4 1.68289,0.32627 2.32857,0.97984 l 0.001,-2e-5 4.62234,4.67869 c 1.29165,1.30697 1.29272,3.41329 0.004,4.72216 l -2.32644,2.36168 c -1.28869,1.3091 -3.36627,1.31215 -4.65766,0.005 l -4.62232,-4.67868 c -1.29163,-1.30696 -1.29221,-3.41328 -0.004,-4.72216 l 2.32633,-2.36394 c 0.64437,-0.65457 1.48516,-0.98155 2.32695,-0.98212 z m -102.256219,9.71735 c 0.842014,-1.6e-4 1.685011,0.32597 2.330721,0.97978 l 4.621305,4.67867 c 1.29164,1.30696 1.293768,3.41328 0.0048,4.72213 l -2.326458,2.36169 c -1.288687,1.30912 -3.367318,1.31169 -4.658712,0.005 l -4.621316,-4.67868 c -1.291627,-1.30695 -1.292638,-3.41327 -0.0037,-4.72215 l 2.326432,-2.36166 c 0.644343,-0.65455 1.484923,-0.98359 2.326932,-0.9843 z m 92.950489,-0.26624 c 0.84181,-10e-4 1.68397,0.32621 2.32966,0.97979 l 4.62235,4.67871 c 1.29163,1.30694 1.29268,3.41216 0.004,4.72103 l -2.32648,2.36275 c -1.28871,1.30912 -3.36517,1.31054 -4.65657,0.004 l -4.62237,-4.67871 c -1.29164,-1.30696 -1.29372,-3.41326 -0.005,-4.72216 l 2.32644,-2.36168 c 0.64433,-0.65455 1.48625,-0.98264 2.32803,-0.98321 z m -9.30563,9.45117 c 0.84201,-1.7e-4 1.68394,0.32597 2.32963,0.97978 l 4.62237,4.67649 c 1.29163,1.30695 1.2922,3.41435 0.004,4.72327 l -2.32646,2.36272 c -1.28869,1.30911 -3.36626,1.30956 -4.65766,0.002 l -4.622344,-4.67869 c -1.291602,-1.30691 -1.292698,-3.41217 -0.0036,-4.72105 l 2.326488,-2.36275 c 0.644326,-0.65454 1.485996,-0.98138 2.328026,-0.98211 z m -9.30567,9.45001 c 0.841766,-0.001 1.682835,0.32622 2.328534,0.97982 l 4.622404,4.67755 c 1.291632,1.30695 1.292712,3.41326 0.0036,4.72215 l -2.326488,2.36274 c -1.28869,1.30912 -3.366224,1.31066 -4.657634,0.004 l -4.622356,-4.6787 c -1.291615,-1.30692 -1.292698,-3.41217 -0.0036,-4.72104 l 2.326332,-2.36394 c 0.644339,-0.65456 1.487321,-0.98158 2.329136,-0.98212 z m -9.306843,9.44999 c 0.841791,-0.001 1.682847,0.32622 2.328546,0.97982 l 4.622357,4.67869 c 1.291614,1.30694 1.293721,3.41217 0.0048,4.72107 l -2.327475,2.36169 c -1.288714,1.30914 -3.365165,1.31164 -4.656575,0.005 l -4.622356,-4.6787 c -1.291627,-1.30695 -1.292614,-3.4122 -0.0036,-4.72108 l 2.326319,-2.36393 c 0.644339,-0.65455 1.486263,-0.98159 2.328053,-0.98211 z m -9.306819,9.44997 c 0.841791,-1.6e-4 1.682859,0.32622 2.328558,0.97982 l 4.622357,4.67871 c 1.291627,1.30694 1.293673,3.41218 0.0048,4.72103 l -2.326343,2.36396 c -1.288678,1.3091 -3.36626,1.30946 -4.657671,0.002 l -4.622368,-4.67872 c -1.291639,-1.30695 -1.292662,-3.41215 -0.0036,-4.72104 l 2.326488,-2.36275 c 0.644327,-0.65454 1.486226,-0.98265 2.327993,-0.9832 z m -9.305651,9.45118 c 0.842019,-1.6e-4 1.682859,0.32599 2.32857,0.97982 l 4.622345,4.67647 c 1.291638,1.30696 1.292445,3.41547 0.0036,4.72434 l -2.32644,2.36168 c -1.288702,1.30913 -3.365176,1.30953 -4.656562,0.002 l -4.622345,-4.67768 c -1.291626,-1.30694 -1.293745,-3.41324 -0.0048,-4.72213 l 2.326428,-2.36167 c 0.644351,-0.65456 1.48708,-0.98249 2.329112,-0.98323 z"
       id="rect5116"
       inkscape:connector-curvature="0" />
    <path
       inkscape:connector-curvature="0"
       id="path4958"
       d="m 181.7206,126.65148 -22.13646,85.22784 30.12155,8.1684 22.08553,-85.03015 z"
       style="display:inline;opacity:1;fill:url(#linearGradient4962);fill-opacity:1;stroke:none;stroke-width:0.38613105" />
    <path
       inkscape:connector-curvature="0"
       id="path4960"
       d="M 171.86759,124.03828 149.79984,209 l 12.04498,3.3142 c -0.16295,-0.73989 -0.16179,-1.52684 0.0413,-2.30896 l 2.46403,-9.48607 c 0.68242,-2.62763 3.34021,-4.16501 5.95922,-3.4458 l 17.44032,4.78683 c 2.61877,0.71876 4.17693,3.41283 3.4951,6.04007 l -2.46402,9.48607 c -0.20553,0.78951 -0.59005,1.47808 -1.09742,2.03798 l 12.0548,3.31681 22.02556,-84.8004 -13.08886,-3.64644 c 0.73726,1.14918 1.01562,2.58712 0.64629,4.00909 l -2.51406,9.68022 c -0.69643,2.68127 -3.40787,4.24892 -6.08006,3.51556 l -17.24736,-4.73376 c -2.6722,-0.73345 -4.26294,-3.48164 -3.56614,-6.16313 l 2.51407,-9.68019 c 0.38217,-1.47148 1.3732,-2.60387 2.6298,-3.20846 z m 2.12571,2.06419 c 0.43962,-0.25409 0.97772,-0.33804 1.51217,-0.19135 l 3.82531,1.05023 c 1.06892,0.29319 1.70532,1.39288 1.42719,2.46516 l -0.50243,1.93651 c -0.27836,1.07255 -1.36412,1.6997 -2.43314,1.40608 l -3.8253,-1.0503 c -1.06891,-0.29318 -1.70495,-1.39232 -1.42685,-2.46457 l 0.50273,-1.93596 c 0.13918,-0.53628 0.48058,-0.96193 0.92016,-1.21611 z m -2.01132,7.74423 c 0.43962,-0.25409 0.97806,-0.33748 1.5125,-0.19078 l 3.82496,1.04977 c 1.06889,0.29317 1.70477,1.3932 1.42618,2.4657 l -0.50249,1.93507 c -0.27836,1.07257 -1.36323,1.69994 -2.43202,1.40676 l -3.82528,-1.05031 c -1.06894,-0.29317 -1.70477,-1.3932 -1.42621,-2.46571 l 0.50302,-1.9354 c 0.1392,-0.53628 0.4798,-0.96071 0.91941,-1.21488 z m -2.01171,7.74365 c 0.43963,-0.25409 0.97808,-0.33746 1.51251,-0.19076 l 3.82528,1.0503 c 1.06894,0.29319 1.70555,1.39199 1.42685,2.46456 l -0.50274,1.93598 c -0.27836,1.07256 -1.36379,1.70027 -2.43256,1.40706 l -3.82527,-1.05029 c -1.06895,-0.2932 -1.70444,-1.39264 -1.42587,-2.46515 l 0.50243,-1.93652 c 0.13917,-0.53629 0.47981,-0.96071 0.91938,-1.21489 z m -2.01107,7.74335 c 0.43946,-0.25399 0.97895,-0.33745 1.51307,-0.19112 l 3.8244,1.05008 c 1.06894,0.29319 1.70507,1.393 1.42717,2.46512 l -0.50243,1.93655 c -0.27837,1.07253 -1.36357,1.69935 -2.43258,1.40576 l -3.82527,-1.05031 c -1.06894,-0.29319 -1.70554,-1.392 -1.42686,-2.46456 l 0.50237,-1.93655 c 0.13918,-0.53628 0.48087,-0.96118 0.9205,-1.21555 z m -2.01169,7.74366 c 0.43963,-0.25411 0.97805,-0.33746 1.51251,-0.19079 l 3.82527,1.05031 c 1.06895,0.29319 1.70557,1.39197 1.42685,2.46458 l -0.50272,1.93597 c -0.27838,1.07255 -1.36359,1.70062 -2.43202,1.40805 l -3.8253,-1.05032 c -1.06893,-0.29319 -1.70461,-1.39327 -1.42618,-2.4657 l 0.50272,-1.93596 c 0.13919,-0.53629 0.47949,-0.96128 0.91905,-1.21545 z m 12.74488,-5.9623 c 1.09919,-0.63532 2.44514,-0.84442 3.78122,-0.47769 l 17.24684,4.73411 c 2.67219,0.73346 4.26238,3.48198 3.56616,6.16315 l -2.51344,9.67988 c -0.69649,2.68123 -3.40844,4.24925 -6.0806,3.51587 l -17.24686,-4.73407 c -2.6722,-0.73345 -4.26295,-3.48166 -3.56615,-6.16313 l 2.51345,-9.67987 c 0.34824,-1.34064 1.2009,-2.40298 2.29997,-3.03849 z m -14.75618,13.70654 c 0.43972,-0.25397 0.97865,-0.3378 1.51308,-0.19109 l 3.82527,1.05031 c 1.06895,0.29318 1.705,1.3923 1.42685,2.46456 l -0.50273,1.93597 c -0.27836,1.07255 -1.36357,1.69937 -2.43259,1.40578 l -3.82495,-1.04978 c -1.06893,-0.29319 -1.70585,-1.39255 -1.42717,-2.46513 l 0.50274,-1.93597 c 0.13918,-0.53627 0.48037,-0.96102 0.91993,-1.21521 z m 48.47713,-28.17447 c 0.4397,-0.25398 0.97751,-0.33716 1.51195,-0.19046 l 3.82586,1.04994 c 1.06893,0.29318 1.70444,1.39264 1.42587,2.46514 l -0.50244,1.93654 c -0.27836,1.07254 -1.36322,1.69994 -2.432,1.40674 l -3.82586,-1.04995 c -1.06894,-0.29318 -1.70446,-1.39262 -1.42588,-2.46515 l 0.50261,-1.93743 c 0.13918,-0.53628 0.48037,-0.96103 0.91993,-1.2152 z m -50.48822,35.91781 c 0.43951,-0.25459 0.97835,-0.33826 1.51273,-0.19169 l 3.82529,1.05032 c 1.06894,0.29317 1.70494,1.39387 1.42653,2.46629 l -0.50303,1.9354 c -0.27837,1.07256 -1.36326,1.69993 -2.43202,1.40675 l -3.82526,-1.05031 c -1.06892,-0.29319 -1.70441,-1.39263 -1.42586,-2.46512 l 0.50273,-1.93597 c 0.13918,-0.53628 0.47944,-0.96107 0.91904,-1.21545 z m 48.47688,-28.1736 c 0.43939,-0.25451 0.97718,-0.3377 1.51162,-0.19101 l 3.82583,1.05001 c 1.06894,0.29318 1.70531,1.39289 1.42719,2.46513 l -0.50273,1.93597 c -0.27837,1.07255 -1.36355,1.69939 -2.4326,1.40577 l -3.82549,-1.04948 c -1.06894,-0.29317 -1.70478,-1.3932 -1.42621,-2.46571 l 0.50304,-1.93541 c 0.13918,-0.53627 0.48003,-0.96158 0.91961,-1.21577 z m -50.48856,35.91727 c 0.43939,-0.25452 0.97865,-0.33778 1.51308,-0.19111 l 3.82528,1.05031 c 1.06893,0.29318 1.70497,1.39233 1.42686,2.46457 l -0.50297,1.93686 c -0.27838,1.07255 -1.36358,1.6994 -2.43259,1.40577 l -3.82498,-1.04978 c -1.06892,-0.29318 -1.70474,-1.3932 -1.42619,-2.4657 l 0.50243,-1.93653 c 0.13918,-0.53629 0.4798,-0.96069 0.91938,-1.21489 z m 48.47722,-28.17304 c 0.43938,-0.25452 0.97752,-0.33713 1.51196,-0.19043 l 3.82608,1.04909 c 1.06892,0.29319 1.70475,1.3932 1.42618,2.4657 l -0.50302,1.93542 c -0.27838,1.07256 -1.36326,1.6999 -2.43201,1.40674 l -3.82583,-1.05001 c -1.06894,-0.29317 -1.70478,-1.39321 -1.4262,-2.4657 l 0.50304,-1.9354 c 0.13918,-0.53628 0.48035,-0.96102 0.91992,-1.2152 z m -35.75365,22.17442 c 1.07694,-0.62309 2.39635,-0.82723 3.7058,-0.46774 l 17.4409,4.7865 c 2.61873,0.71876 4.17681,3.41291 3.49509,6.04007 l -2.46402,9.48606 c -0.68243,2.62765 -3.33967,4.16468 -5.95867,3.44549 l -17.44132,-4.78659 c -2.61875,-0.71876 -4.17724,-3.41339 -3.49444,-6.04121 l 2.46378,-9.48517 c 0.34122,-1.31383 1.17627,-2.35539 2.25331,-2.97828 z m -14.73466,13.74196 3.6e-4,6.2e-4 c 0.43939,-0.25452 0.97807,-0.33748 1.51251,-0.19078 l 3.82494,1.04978 c 1.06895,0.29318 1.70533,1.39289 1.42717,2.46513 l -0.50272,1.93598 c -0.27837,1.07255 -1.36358,1.69934 -2.43259,1.40576 l -3.82533,-1.05041 c -1.06893,-0.29317 -1.70442,-1.39263 -1.42587,-2.46514 l 0.50273,-1.93595 c 0.13918,-0.53626 0.47948,-0.96127 0.91906,-1.21546 z m 48.47721,-28.17302 c 0.43921,-0.25441 0.97838,-0.33721 1.51252,-0.19079 l 3.82459,1.04923 c 1.06894,0.29317 1.70488,1.39389 1.42653,2.46626 l -0.50273,1.93597 c -0.27838,1.07255 -1.36303,1.69905 -2.43204,1.40545 l -3.82552,-1.04947 c -1.06891,-0.29318 -1.70477,-1.39319 -1.42619,-2.46571 l 0.50273,-1.93597 c 0.13918,-0.53628 0.48029,-0.96088 0.91994,-1.21523 z m -50.48854,35.91725 c 0.4397,-0.25397 0.97808,-0.33748 1.51252,-0.19078 l 3.82528,1.05031 c 1.06894,0.29319 1.70587,1.39256 1.42717,2.46512 l -0.50304,1.93541 c -0.27837,1.07256 -1.36413,1.69969 -2.43316,1.40609 l -3.82493,-1.04977 c -1.06893,-0.29318 -1.70475,-1.39321 -1.42619,-2.46571 l 0.50303,-1.9354 c 0.13919,-0.53628 0.47947,-0.96127 0.91904,-1.21545 z m 48.47601,-28.17383 7e-4,-0.001 c 0.4397,-0.25398 0.97754,-0.33713 1.51197,-0.19045 l 6.2e-4,-3.7e-4 3.82583,1.05001 c 1.06894,0.29317 1.70479,1.3932 1.4262,2.46571 l -0.50302,1.9354 c -0.27838,1.07256 -1.36278,1.70076 -2.43146,1.40773 l -3.82581,-1.04999 c -1.06894,-0.2932 -1.70452,-1.39336 -1.4262,-2.46573 l 0.50229,-1.93656 c 0.13919,-0.53629 0.4798,-0.96069 0.91938,-1.21487 z m -50.48768,35.9175 c 0.43983,-0.25403 0.97857,-0.33792 1.51308,-0.19112 l 3.82528,1.05031 c 1.06894,0.29319 1.70533,1.39288 1.42718,2.46512 l -0.50303,1.93543 c -0.27838,1.07255 -1.36348,1.70082 -2.43201,1.40804 l -3.82529,-1.05031 c -1.06893,-0.29318 -1.70474,-1.39322 -1.4262,-2.4657 l 0.50303,-1.9354 c 0.13919,-0.53627 0.47906,-0.96168 0.91872,-1.21602 z m 48.4769,-28.17358 c 0.43939,-0.25452 0.97808,-0.33749 1.51251,-0.1908 l 3.82585,1.05001 c 1.06891,0.29318 1.70441,1.39262 1.42586,2.46513 l -0.50274,1.93597 c -0.27837,1.07256 -1.36268,1.69959 -2.43143,1.40643 l -3.82585,-1.05003 c -1.06894,-0.29318 -1.7053,-1.39288 -1.42718,-2.46514 l 0.50302,-1.93541 c 0.13918,-0.53628 0.48004,-0.96159 0.91962,-1.21577 z m -2.01072,7.7439 c 0.43982,-0.25404 0.978,-0.33759 1.51251,-0.19079 l 3.82518,1.04886 c 1.06892,0.29318 1.70483,1.39392 1.42653,2.46629 l -0.50274,1.93596 c -0.27835,1.07256 -1.36355,1.69939 -2.43257,1.40575 l -3.82582,-1.04999 c -1.06892,-0.29318 -1.70445,-1.39262 -1.42588,-2.46514 l 0.50274,-1.93598 c 0.13918,-0.53626 0.48029,-0.96086 0.91995,-1.21521 z m -2.01107,7.74334 c 0.43937,-0.25452 0.97749,-0.33714 1.51194,-0.19045 l 3.82552,1.0494 c 1.06892,0.29319 1.70476,1.39319 1.42619,2.4657 l -0.50272,1.93598 c -0.27838,1.07256 -1.36322,1.69997 -2.43202,1.40675 l -3.82584,-1.05002 c -1.06892,-0.29317 -1.70443,-1.39263 -1.42586,-2.46513 l 0.50228,-1.93655 c 0.13919,-0.53628 0.48093,-0.96137 0.92053,-1.21556 z m -2.0117,7.74367 c 0.43939,-0.25452 0.9775,-0.33715 1.51194,-0.19045 l 3.82585,1.05 c 1.06892,0.29318 1.70497,1.39232 1.42684,2.46457 l -0.50355,1.93573 c -0.27838,1.07258 -1.36235,1.70015 -2.43088,1.4074 l -3.82585,-1.05001 c -1.06893,-0.29319 -1.7044,-1.39268 -1.42587,-2.46514 l 0.50229,-1.93655 c 0.13918,-0.53628 0.48036,-0.96105 0.91996,-1.21521 z m -2.0117,7.74364 c 0.43971,-0.25397 0.97752,-0.33713 1.51197,-0.19045 l 3.82584,1.05002 c 1.06892,0.29317 1.70494,1.39232 1.42683,2.46455 l -0.50229,1.93657 c -0.27836,1.07255 -1.36358,1.69935 -2.43259,1.40577 l -3.82585,-1.05003 c -1.06894,-0.29318 -1.70442,-1.39262 -1.42587,-2.46512 l 0.50273,-1.93598 c 0.13919,-0.53626 0.48003,-0.96159 0.91961,-1.21576 z m -2.01072,7.74393 c 0.43983,-0.25405 0.97745,-0.33726 1.51197,-0.19046 l 3.82516,1.04885 c 1.06894,0.29319 1.70529,1.39443 1.42686,2.46686 l -0.50303,1.93541 c -0.27838,1.07256 -1.363,1.69905 -2.43202,1.40543 l -3.82552,-1.04947 c -1.06892,-0.29319 -1.70531,-1.39288 -1.42718,-2.46514 l 0.50303,-1.93541 c 0.1392,-0.53628 0.48053,-0.96176 0.92018,-1.21611 z"
       style="display:inline;opacity:1;fill:#180000;fill-opacity:0.8835983;stroke:none;stroke-width:0.39173862" />
    <path
       style="display:inline;opacity:1;fill:url(#linearGradient4968);fill-opacity:1;stroke:none;stroke-width:0.20627885"
       d="m 198.60845,94.16617 40.91827,23.20692 8.37982,-14.41381 -40.8233,-23.1533 z"
       id="path4964"
       inkscape:connector-curvature="0" />
    <path
       style="display:inline;opacity:1;fill:#180000;fill-opacity:0.8835983;stroke:none;stroke-width:0.20927452"
       d="m 195.89767,98.88916 40.79043,23.13467 3.3756,-5.75716 c -0.40434,-0.0183 -0.81025,-0.12762 -1.18576,-0.34058 l -4.55427,-2.58308 c -1.26155,-0.71545 -1.68737,-2.29949 -0.95413,-3.55149 l 4.8815,-8.33763 c 0.73297,-1.25197 2.33859,-1.6835 3.60003,-0.9684 l 4.55427,2.58308 c 0.37898,0.21521 0.68112,0.50884 0.89989,0.84807 l 3.3783,-5.76187 -40.71301,-23.090591 -3.69139,6.249884 c 0.69494,-0.221537 1.47543,-0.166365 2.15813,0.220833 l 4.64754,2.635743 c 1.28729,0.730088 1.72131,2.345994 0.97342,3.623494 l -4.82741,8.245407 c -0.74796,1.27749 -2.38602,1.71835 -3.67336,0.98803 l -4.64754,-2.63575 c -0.70646,-0.40066 -1.15378,-1.06862 -1.292,-1.80063 z m 1.35906,-0.81149 c -0.0703,-0.26198 -0.0393,-0.55126 0.11032,-0.80675 l 1.07084,-1.82872 c 0.29909,-0.51105 0.95454,-0.68738 1.4694,-0.39561 l 0.9298,0.52702 c 0.51495,0.29194 0.68846,0.93892 0.38915,1.44996 l -1.0709,1.82869 c -0.29909,0.51105 -0.9542,0.68728 -1.46904,0.39551 l -0.92948,-0.5271 c -0.25748,-0.14596 -0.42992,-0.38099 -0.50031,-0.64295 z m 3.71806,2.10865 c -0.0703,-0.26199 -0.0389,-0.55135 0.11066,-0.80686 l 1.07056,-1.82859 c 0.29906,-0.51104 0.95463,-0.68706 1.46953,-0.39502 l 0.92905,0.52686 c 0.51498,0.29194 0.68872,0.93849 0.38964,1.44946 l -1.07088,1.82869 c -0.29907,0.51106 -0.95461,0.68706 -1.46953,0.39502 l -0.92915,-0.52716 c -0.25749,-0.14598 -0.4294,-0.38043 -0.49979,-0.64241 z m 3.71769,2.10876 c -0.0702,-0.26199 -0.0389,-0.55137 0.11066,-0.80686 l 1.07089,-1.82869 c 0.29908,-0.51105 0.95411,-0.68763 1.46904,-0.39552 l 0.92948,0.52711 c 0.51498,0.29195 0.6888,0.93883 0.38973,1.44979 l -1.07087,1.82868 c -0.29911,0.51106 -0.9543,0.68697 -1.46921,0.39494 l -0.9298,-0.52702 c -0.2575,-0.14597 -0.42941,-0.38043 -0.49979,-0.6424 z m 3.71764,2.10839 c -0.0703,-0.26189 -0.0388,-0.55181 0.11055,-0.80719 l 1.07065,-1.82828 c 0.29908,-0.51104 0.95456,-0.68724 1.46937,-0.39559 l 0.92982,0.52701 c 0.51495,0.29194 0.68837,0.9386 0.38905,1.44963 l -1.07088,1.82869 c -0.29909,0.51104 -0.95411,0.68761 -1.46904,0.3955 l -0.92983,-0.52699 c -0.25748,-0.14596 -0.4295,-0.38103 -0.49997,-0.64305 z m 3.71771,2.10874 c -0.0702,-0.26197 -0.0389,-0.55135 0.11066,-0.80684 l 1.07089,-1.8287 c 0.29909,-0.51104 0.95411,-0.68764 1.46904,-0.3955 l 0.92949,0.52709 c 0.51497,0.29194 0.689,0.93878 0.39031,1.44964 l -1.07089,1.8287 c -0.29909,0.51106 -0.95464,0.68697 -1.46954,0.39502 l -0.92947,-0.5271 c -0.25749,-0.14597 -0.42974,-0.38033 -0.50011,-0.64231 z m -1.31446,-7.40095 c -0.17586,-0.65504 -0.0976,-1.37849 0.27632,-2.01722 l 4.82755,-8.24509 c 0.74795,-1.277477 2.38609,-1.71802 3.67336,-0.988035 l 4.64744,2.63538 c 1.28726,0.730122 1.72143,2.346335 0.97351,3.623815 l -4.82752,8.24511 c -0.74795,1.27748 -2.38601,1.71835 -3.67335,0.98803 l -4.64745,-2.63539 c -0.64364,-0.36505 -1.07393,-0.95193 -1.2499,-1.60694 z m 5.03252,9.50959 c -0.0702,-0.26203 -0.0389,-0.55171 0.11066,-0.8072 l 1.07088,-1.82867 c 0.29909,-0.51107 0.9542,-0.68731 1.46904,-0.39553 l 0.92949,0.52711 c 0.51495,0.29193 0.68836,0.93858 0.38906,1.44963 l -1.07057,1.82858 c -0.29909,0.51106 -0.95444,0.68772 -1.46937,0.39561 l -0.92949,-0.52711 c -0.25748,-0.14596 -0.42949,-0.38075 -0.49987,-0.64273 z m -7.83574,-28.910583 c -0.0703,-0.26201 -0.0388,-0.551033 0.11077,-0.806528 l 1.07077,-1.829033 c 0.29908,-0.511048 0.9543,-0.68697 1.46921,-0.394928 l 0.92981,0.527028 c 0.51497,0.291929 0.68871,0.938482 0.38964,1.44945 l -1.07077,1.829033 c -0.29909,0.511059 -0.95429,0.686981 -1.46921,0.394928 l -0.93027,-0.527233 c -0.25748,-0.145958 -0.42948,-0.380752 -0.49986,-0.642717 z m 11.55336,31.018973 c -0.0706,-0.26198 -0.0393,-0.55162 0.11021,-0.80709 l 1.07089,-1.82869 c 0.29907,-0.51105 0.955,-0.68704 1.46989,-0.39511 l 0.92915,0.52717 c 0.51496,0.29195 0.68869,0.93852 0.38963,1.44947 l -1.07088,1.82867 c -0.29909,0.51105 -0.95428,0.68696 -1.46919,0.39493 l -0.92948,-0.52708 c -0.25748,-0.14599 -0.42965,-0.38029 -0.50012,-0.64231 z m -7.83533,-28.910326 c -0.0706,-0.26192 -0.0392,-0.550931 0.11044,-0.806427 l 1.07081,-1.829021 c 0.29907,-0.511048 0.95454,-0.687367 1.46938,-0.395597 l 0.92948,0.527096 c 0.51496,0.291928 0.68837,0.938572 0.38905,1.44962 l -1.07048,1.828919 c -0.29908,0.511048 -0.95464,0.687061 -1.46955,0.395019 l -0.92916,-0.527176 c -0.25747,-0.14597 -0.42981,-0.380661 -0.50018,-0.642637 z m 11.55306,31.019076 c -0.0706,-0.26192 -0.0389,-0.5517 0.11055,-0.8072 l 1.07089,-1.82868 c 0.29908,-0.51106 0.9542,-0.68728 1.46904,-0.39551 l 0.92991,0.52734 c 0.51496,0.29195 0.68838,0.93861 0.38906,1.44962 l -1.07058,1.8286 c -0.29907,0.51106 -0.95461,0.68705 -1.46953,0.39503 l -0.92981,-0.52703 c -0.25749,-0.14595 -0.42939,-0.38041 -0.49979,-0.6424 z m -7.83501,-28.91043 c -0.0706,-0.261919 -0.0388,-0.551033 0.11078,-0.806528 l 1.07036,-1.829271 c 0.29909,-0.511037 0.95463,-0.687038 1.46954,-0.394996 l 0.92915,0.527164 c 0.51498,0.291951 0.68869,0.938504 0.38963,1.449461 l -1.0708,1.829022 c -0.29908,0.511047 -0.95463,0.687049 -1.46952,0.395007 l -0.92916,-0.527176 c -0.25748,-0.14597 -0.42948,-0.38074 -0.49986,-0.642717 z m 6.49886,21.51545 c -0.17262,-0.64186 -0.0955,-1.35093 0.27102,-1.97692 l 4.8814,-8.33798 c 0.73298,-1.25193 2.33863,-1.68342 3.60004,-0.96839 l 4.55428,2.58308 c 1.26154,0.71547 1.68727,2.29915 0.95404,3.55117 l -4.88151,8.33818 c -0.73298,1.25194 -2.33893,1.68356 -3.60053,0.9679 l -4.55384,-2.58284 c -0.63078,-0.35774 -1.05278,-0.93264 -1.22529,-1.57454 z m 5.05377,9.50338 3.7e-4,-10e-5 c -0.0706,-0.26192 -0.0389,-0.55135 0.11066,-0.80685 l 1.07056,-1.8286 c 0.29909,-0.51105 0.95455,-0.68738 1.46938,-0.39559 l 0.92949,0.5271 c 0.51497,0.29194 0.68835,0.93859 0.38904,1.44962 l -1.07093,1.8287 c -0.29908,0.51105 -0.95429,0.68695 -1.46921,0.39493 l -0.92946,-0.5271 c -0.25748,-0.14595 -0.42974,-0.38033 -0.50013,-0.6423 z m -7.83498,-28.91041 c -0.0705,-0.261829 -0.0387,-0.551499 0.11066,-0.806881 l 1.07023,-1.828476 c 0.29909,-0.511059 0.955,-0.687015 1.46988,-0.39511 l 0.92948,0.527097 c 0.51497,0.291951 0.68827,0.938266 0.38897,1.449291 l -1.07049,1.828942 c -0.29908,0.511025 -0.95462,0.687049 -1.46954,0.394996 l -0.92949,-0.527086 c -0.25748,-0.145969 -0.42941,-0.380695 -0.49987,-0.642739 z m 11.55303,31.01906 c -0.0703,-0.262 -0.0389,-0.55137 0.11066,-0.80686 l 1.07089,-1.8287 c 0.29909,-0.51104 0.95445,-0.6877 1.46938,-0.39558 l 0.92914,0.52716 c 0.51497,0.29195 0.68845,0.93893 0.38915,1.44998 l -1.07056,1.82857 c -0.29909,0.51105 -0.95463,0.68705 -1.46954,0.39502 l -0.92915,-0.52718 c -0.25748,-0.14596 -0.42974,-0.38032 -0.50012,-0.64229 z m -7.83557,-28.909914 -4.4e-4,-5.22e-4 c -0.0703,-0.261999 -0.0388,-0.551033 0.11077,-0.806529 l -1e-4,-3.63e-4 1.0708,-1.829021 c 0.29908,-0.511048 0.95462,-0.687072 1.46954,-0.395008 l 0.92915,0.527165 c 0.51496,0.291939 0.68919,0.938368 0.39022,1.449313 l -1.0708,1.82901 c -0.29909,0.511048 -0.95467,0.686902 -1.46954,0.395008 l -0.92985,-0.526949 c -0.25749,-0.145981 -0.42939,-0.380423 -0.49977,-0.642388 z m 11.55329,31.018654 c -0.0704,-0.26209 -0.039,-0.55169 0.11055,-0.80719 l 1.07087,-1.8287 c 0.29909,-0.51104 0.95454,-0.68739 1.46938,-0.39559 l 0.92917,0.52717 c 0.51496,0.29194 0.68912,0.93874 0.3903,1.44963 l -1.07088,1.82871 c -0.29908,0.51104 -0.95465,0.68702 -1.46954,0.39501 l -0.92915,-0.52717 c -0.25749,-0.14597 -0.43,-0.38016 -0.50046,-0.64222 z m -7.83532,-28.910348 c -0.0706,-0.26192 -0.0389,-0.551362 0.11066,-0.806858 l 1.07081,-1.829021 c 0.29908,-0.511037 0.95428,-0.686959 1.4692,-0.394917 l 0.92948,0.527097 c 0.51496,0.291939 0.68862,0.938163 0.38955,1.44912 l -1.07082,1.829022 c -0.29907,0.511059 -0.95452,0.687378 -1.46938,0.395597 l -0.92915,-0.527153 c -0.25748,-0.145981 -0.42982,-0.380673 -0.5002,-0.642649 z m 3.71797,2.108298 c -0.0704,-0.26208 -0.0389,-0.551343 0.11066,-0.806873 l 1.07012,-1.828828 c 0.29909,-0.511048 0.95502,-0.686992 1.46989,-0.395109 l 0.92948,0.527107 c 0.51496,0.291929 0.68838,0.938584 0.38905,1.449598 l -1.07079,1.829025 c -0.29909,0.51103 -0.95429,0.68697 -1.46922,0.39492 L 230.817,93.00448 c -0.25748,-0.14597 -0.42942,-0.3807 -0.49988,-0.64274 z m 3.71763,2.10838 c -0.0706,-0.26191 -0.0388,-0.55101 0.11078,-0.80651 l 1.07045,-1.828947 c 0.29908,-0.511037 0.95462,-0.687049 1.46953,-0.395007 l 0.92949,0.527096 c 0.51497,0.291938 0.68872,0.938488 0.38963,1.449458 l -1.07081,1.82902 c -0.29907,0.51105 -0.95428,0.68696 -1.4692,0.39492 l -0.92984,-0.52695 c -0.25748,-0.14596 -0.42957,-0.38109 -0.49997,-0.64308 z m 3.71771,2.10876 c -0.0706,-0.26192 -0.0388,-0.55102 0.11077,-0.80653 l 1.07081,-1.82901 c 0.29908,-0.51104 0.95419,-0.68728 1.46904,-0.3955 l 0.92925,0.52748 c 0.51497,0.29195 0.68893,0.93807 0.39013,1.44897 l -1.07081,1.82902 c -0.29907,0.51105 -0.9543,0.68695 -1.46919,0.39493 l -0.92985,-0.52695 c -0.25749,-0.14597 -0.4295,-0.38076 -0.49988,-0.64274 z m 3.71771,2.10876 c -0.0703,-0.26202 -0.0388,-0.55103 0.11077,-0.80654 l 1.07081,-1.82901 c 0.29908,-0.51105 0.9542,-0.68727 1.46904,-0.3955 l 0.92985,0.52694 c 0.51496,0.29194 0.68835,0.93859 0.38904,1.44964 l -1.07082,1.82901 c -0.29908,0.51106 -0.95427,0.68696 -1.46918,0.39492 l -0.9295,-0.52708 c -0.25745,-0.14597 -0.42982,-0.38067 -0.50018,-0.64264 z m 3.71797,2.10828 c -0.0704,-0.26208 -0.0388,-0.55101 0.11077,-0.80653 l 1.07012,-1.82882 c 0.29909,-0.51106 0.95533,-0.68716 1.47023,-0.39521 l 0.92915,0.52718 c 0.51497,0.29194 0.68828,0.93826 0.38896,1.44928 l -1.07048,1.82893 c -0.29909,0.51104 -0.95454,0.68738 -1.46939,0.3956 l -0.92915,-0.52717 c -0.25748,-0.14597 -0.42984,-0.38095 -0.5003,-0.64297 z"
       id="path4966"
       inkscape:connector-curvature="0" />
    <path
       inkscape:connector-curvature="0"
       id="path4522"
       d="m 105.03252,141.42337 v 0.32451 H 105 V 209 a 30.275815,21.525861 0 0 0 -10.933379,-1.47834 30.275815,21.525861 0 0 0 -30.27468,21.52599 30.275815,21.525861 0 0 0 30.27468,21.52596 30.275815,21.525861 0 0 0 30.274689,-21.52596 30.275815,21.525861 0 0 0 -0.592,-4.14053 v -61.9578 h 20.19397 v -21.52595 z"
       style="display:inline;opacity:1;fill:#3465a4;fill-opacity:1;fill-rule:nonzero;stroke:none;stroke-width:7.73106623;stroke-linecap:square;stroke-linejoin:round;stroke-miterlimit:4;stroke-dasharray:none;stroke-dashoffset:0;stroke-opacity:1;paint-order:stroke fill markers" />
    <path
       style="display:inline;opacity:1;fill:#c87137;fill-opacity:1;fill-rule:nonzero;stroke:none;stroke-width:6.00404835;stroke-linecap:square;stroke-linejoin:round;stroke-miterlimit:4;stroke-dasharray:none;stroke-dashoffset:0;stroke-opacity:1;paint-order:stroke fill markers"
       d="m 192.0252,25.5191 v 0.25201 H 192 V 78 a 23.512598,16.717268 0 0 0 -8.49101,-1.14809 23.512598,16.717268 0 0 0 -23.51172,16.71737 23.512598,16.717268 0 0 0 23.51172,16.71734 23.512598,16.717268 0 0 0 23.51172,-16.71734 23.512598,16.717268 0 0 0 -0.45976,-3.21559 V 42.23644 h 15.68292 V 25.5191 Z"
       id="path4524"
       inkscape:connector-curvature="0" />
    <path
       style="display:inline;opacity:1;fill:#c83737;fill-opacity:1;fill-rule:nonzero;stroke:none;stroke-width:4.87129879;stroke-linecap:square;stroke-linejoin:round;stroke-miterlimit:4;stroke-dasharray:none;stroke-dashoffset:0;stroke-opacity:1;paint-order:stroke fill markers"
       d="m 226.0205,174.42036 v 0.20448 H 226 V 217 a 19.07661,13.563315 0 0 0 -6.88905,-0.9315 19.07661,13.563315 0 0 0 -19.0759,13.5634 19.07661,13.563315 0 0 0 19.0759,13.56338 19.07661,13.563315 0 0 0 19.0759,-13.56338 19.07661,13.563315 0 0 0 -0.37303,-2.60893 v -39.03923 h 12.72412 v -13.56338 z"
       id="path4526"
       inkscape:connector-curvature="0" />
    <path
       inkscape:connector-curvature="0"
       id="path870"
       d="m 26.0143,21.25861 v 0.14283 H 26 V 51 a 13.324795,9.4738214 0 0 0 -4.81192,-0.65064 13.324795,9.4738214 0 0 0 -13.3243,9.47388 13.324795,9.4738214 0 0 0 13.3243,9.47387 13.324795,9.4738214 0 0 0 13.3243,-9.47387 13.324795,9.4738214 0 0 0 -0.26056,-1.8223 V 30.73248 h 8.88765 v -9.47387 z"
       style="display:inline;opacity:1;fill:#c8ab37;fill-opacity:1;fill-rule:nonzero;stroke:none;stroke-width:3.40254688;stroke-linecap:square;stroke-linejoin:round;stroke-miterlimit:4;stroke-dasharray:none;stroke-dashoffset:0;stroke-opacity:1;paint-order:stroke fill markers" />
  </g>
</svg>
