<?xml version="1.0" encoding="UTF-8" standalone="no"?>
<!-- Created with Inkscape (http://www.inkscape.org/) -->

<svg
   xmlns:osb="http://www.openswatchbook.org/uri/2009/osb"
   xmlns:dc="http://purl.org/dc/elements/1.1/"
   xmlns:cc="http://creativecommons.org/ns#"
   xmlns:rdf="http://www.w3.org/1999/02/22-rdf-syntax-ns#"
   xmlns:svg="http://www.w3.org/2000/svg"
   xmlns="http://www.w3.org/2000/svg"
   xmlns:xlink="http://www.w3.org/1999/xlink"
   xmlns:sodipodi="http://sodipodi.sourceforge.net/DTD/sodipodi-0.dtd"
   xmlns:inkscape="http://www.inkscape.org/namespaces/inkscape"
   width="256px"
   height="256px"
   viewBox="0 0 256 256"
   version="1.1"
   id="SVGRoot"
   sodipodi:docname="icon_videoconversions2_W.svg"
   inkscape:version="0.92.4 (5da689c313, 2019-01-14)"
   enable-background="new">
  <sodipodi:namedview
     id="base"
     pagecolor="#ffffff"
     bordercolor="#666666"
     borderopacity="1.0"
     inkscape:pageopacity="0.0"
     inkscape:pageshadow="2"
     inkscape:zoom="1.885"
     inkscape:cx="98.610778"
     inkscape:cy="99.562974"
     inkscape:document-units="px"
     inkscape:current-layer="layer1"
     showgrid="true"
     inkscape:window-width="1920"
     inkscape:window-height="1015"
     inkscape:window-x="0"
     inkscape:window-y="0"
     inkscape:window-maximized="1"
     inkscape:grid-bbox="true"
     inkscape:measure-start="110,130"
     inkscape:measure-end="0,0"
     showguides="false">
    <inkscape:grid
       type="xygrid"
       id="grid5114" />
  </sodipodi:namedview>
  <defs
     id="defs4485">
    <inkscape:path-effect
       effect="bspline"
       id="path-effect4551"
       is_visible="true"
       weight="33.333333"
       steps="2"
       helper_size="0"
       apply_no_weight="true"
       apply_with_weight="true"
       only_selected="false" />
    <inkscape:path-effect
       effect="skeletal"
       id="path-effect4547"
       is_visible="true"
       pattern="M 0,5 C 0,2.24 2.24,0 5,0 7.76,0 10,2.24 10,5 10,7.76 7.76,10 5,10 2.24,10 0,7.76 0,5 Z"
       copytype="single_stretched"
       prop_scale="1"
       scale_y_rel="false"
       spacing="0"
       normal_offset="0"
       tang_offset="0"
       prop_units="false"
       vertical_pattern="false"
       fuse_tolerance="0" />
    <inkscape:path-effect
       effect="bspline"
       id="path-effect4545"
       is_visible="true"
       weight="33.333333"
       steps="2"
       helper_size="0"
       apply_no_weight="true"
       apply_with_weight="true"
       only_selected="false" />
    <inkscape:path-effect
       effect="skeletal"
       id="path-effect4541"
       is_visible="true"
       pattern="M 0,5 C 0,2.24 2.24,0 5,0 7.76,0 10,2.24 10,5 10,7.76 7.76,10 5,10 2.24,10 0,7.76 0,5 Z"
       copytype="single_stretched"
       prop_scale="1"
       scale_y_rel="false"
       spacing="0"
       normal_offset="0"
       tang_offset="0"
       prop_units="false"
       vertical_pattern="false"
       fuse_tolerance="0" />
    <inkscape:path-effect
       effect="spiro"
       id="path-effect4539"
       is_visible="true" />
    <inkscape:path-effect
       effect="bspline"
       id="path-effect4535"
       is_visible="true"
       weight="33.333333"
       steps="2"
       helper_size="0"
       apply_no_weight="true"
       apply_with_weight="true"
       only_selected="false" />
    <inkscape:path-effect
       effect="skeletal"
       id="path-effect4531"
       is_visible="true"
       pattern="M 0,5 C 0,2.24 2.24,0 5,0 7.76,0 10,2.24 10,5 10,7.76 7.76,10 5,10 2.24,10 0,7.76 0,5 Z"
       copytype="single_stretched"
       prop_scale="1"
       scale_y_rel="false"
       spacing="0"
       normal_offset="0"
       tang_offset="0"
       prop_units="false"
       vertical_pattern="false"
       fuse_tolerance="0" />
    <inkscape:path-effect
       effect="bspline"
       id="path-effect4529"
       is_visible="true"
       weight="33.333333"
       steps="2"
       helper_size="0"
       apply_no_weight="true"
       apply_with_weight="true"
       only_selected="false" />
    <inkscape:path-effect
       effect="skeletal"
       id="path-effect4525"
       is_visible="true"
       pattern="M 0,5 C 0,2.24 2.24,0 5,0 7.76,0 10,2.24 10,5 10,7.76 7.76,10 5,10 2.24,10 0,7.76 0,5 Z"
       copytype="single_stretched"
       prop_scale="1"
       scale_y_rel="false"
       spacing="0"
       normal_offset="0"
       tang_offset="0"
       prop_units="false"
       vertical_pattern="false"
       fuse_tolerance="0" />
    <inkscape:path-effect
       effect="bspline"
       id="path-effect4523"
       is_visible="true"
       weight="33.333333"
       steps="2"
       helper_size="0"
       apply_no_weight="true"
       apply_with_weight="true"
       only_selected="false" />
    <inkscape:path-effect
       effect="bspline"
       id="path-effect4519"
       is_visible="true"
       weight="33.333333"
       steps="2"
       helper_size="0"
       apply_no_weight="true"
       apply_with_weight="true"
       only_selected="false" />
    <linearGradient
       inkscape:collect="always"
       id="linearGradient4752">
      <stop
         style="stop-color:#888a85;stop-opacity:1;"
         offset="0"
         id="stop4748" />
      <stop
         style="stop-color:#888a85;stop-opacity:0;"
         offset="1"
         id="stop4750" />
    </linearGradient>
    <pattern
       inkscape:isstock="true"
       inkscape:stockid="Stripes 1:1"
       id="Strips1_1"
       patternTransform="translate(0,0) scale(10,10)"
       height="1"
       width="2"
       patternUnits="userSpaceOnUse"
       inkscape:collect="always">
      <rect
         id="rect5447"
         height="2"
         width="1"
         y="-0.5"
         x="0"
         style="fill:black;stroke:none" />
    </pattern>
    <linearGradient
       id="linearGradient4727"
       osb:paint="solid">
      <stop
         style="stop-color:#ce5c00;stop-opacity:1;"
         offset="0"
         id="stop4725" />
    </linearGradient>
    <pattern
       patternUnits="userSpaceOnUse"
       width="55"
       height="90"
       patternTransform="translate(-60,50.5)"
       id="pattern6214">
      <g
         style="fill:url(#Strips1_1);fill-opacity:1"
         transform="translate(-15,-28.5)"
         id="g4691">
        <rect
           style="opacity:0.81499999;fill:url(#Strips1_1);fill-opacity:1;stroke:none;stroke-width:4.52699995;stroke-linecap:round;stroke-linejoin:bevel;stroke-miterlimit:17.60000038;stroke-dasharray:none;stroke-dashoffset:0;stroke-opacity:1;paint-order:stroke fill markers"
           id="rect4683"
           width="30"
           height="30"
           x="40"
           y="59"
           ry="7.9000001" />
        <path
           inkscape:connector-curvature="0"
           style="opacity:0.81499999;fill:url(#Strips1_1);fill-opacity:1;stroke:none;stroke-width:8.60130024;stroke-linecap:round;stroke-linejoin:bevel;stroke-miterlimit:17.60000038;stroke-dasharray:none;stroke-dashoffset:0;stroke-opacity:1;paint-order:stroke fill markers"
           d="m 15,28.5 v 90 l 45,-45 z"
           id="path4687" />
      </g>
    </pattern>
    <linearGradient
       inkscape:collect="always"
       xlink:href="#linearGradient4752"
       id="linearGradient4754"
       x1="11.826138"
       y1="245.7171"
       x2="149.78668"
       y2="106.13758"
       gradientUnits="userSpaceOnUse"
       gradientTransform="matrix(0.95425703,0,0,0.95425703,5.390281,5.594659)" />
    <linearGradient
       inkscape:collect="always"
       xlink:href="#linearGradient4560"
       id="linearGradient4562"
       x1="-11.593207"
       y1="128.66191"
       x2="268.93854"
       y2="128.66191"
       gradientUnits="userSpaceOnUse"
       gradientTransform="matrix(0.49602862,-0.00361488,0.00361488,0.48879887,24.786346,29.27933)" />
    <linearGradient
       inkscape:collect="always"
       id="linearGradient4560">
      <stop
         style="stop-color:#380000;stop-opacity:1;"
         offset="0"
         id="stop4556" />
      <stop
         style="stop-color:#380000;stop-opacity:0;"
         offset="1"
         id="stop4558" />
    </linearGradient>
  </defs>
  <metadata
     id="metadata4488">
    <rdf:RDF>
      <cc:Work
         rdf:about="">
        <dc:format>image/svg+xml</dc:format>
        <dc:type
           rdf:resource="http://purl.org/dc/dcmitype/StillImage" />
        <dc:title></dc:title>
      </cc:Work>
    </rdf:RDF>
  </metadata>
  <g
     inkscape:groupmode="layer"
     id="layer3"
     inkscape:label="sfondo"
     style="display:none">
    <rect
       style="display:inline;opacity:1;fill:#eeeeec;fill-opacity:1;stroke:none;stroke-width:7.00387716;stroke-linecap:round;stroke-linejoin:bevel;stroke-miterlimit:17.60000038;stroke-dasharray:none;stroke-dashoffset:0;stroke-opacity:0.97647059;paint-order:stroke fill markers"
       id="rect4568-3"
       width="222.07193"
       height="222.07193"
       x="16.675457"
       y="18"
       ry="22.6604" />
  </g>
  <g
     style="display:none"
     inkscape:label="sfondo copia"
     id="g4738"
     inkscape:groupmode="layer">
    <rect
       ry="22.6604"
       y="18"
       x="16.675457"
       height="222.07193"
       width="222.07193"
       id="rect4736"
       style="display:inline;opacity:1;fill:url(#linearGradient4754);fill-opacity:1;stroke:none;stroke-width:7.00387716;stroke-linecap:round;stroke-linejoin:bevel;stroke-miterlimit:17.60000038;stroke-dasharray:none;stroke-dashoffset:0;stroke-opacity:0.97647059;paint-order:stroke fill markers" />
  </g>
  <g
     inkscape:groupmode="layer"
     id="layer1"
     inkscape:label="preset"
     style="display:inline">
    <path
       style="display:inline;opacity:1;fill:url(#linearGradient4562);fill-opacity:1;stroke:none;stroke-width:0.64012319"
       d="M 431.27322,-1.1574823 328.84738,102.85416 365.32172,139.54897 467.51057,35.778941 Z"
       id="rect5216"
       inkscape:connector-curvature="0" />
    <path
       style="display:inline;opacity:0.595;fill:#000000;fill-opacity:1;stroke:none;stroke-width:0.38613099"
       d="M 100.00195,14 101.13086,243.58398 157,243.84766 155.87109,14 Z"
       id="path878"
       inkscape:connector-curvature="0" />
    <path
       style="display:inline;opacity:1;fill:#eeeeec;fill-opacity:0.8835983;stroke:none;stroke-width:0.39173862"
       d="m 81.5,14 0.945312,102.26953 h -0.02539 l 0.228516,127.80664 22.363282,0.28321 c -0.61748,-1.20758 -0.9739,-2.57104 -0.97656,-4.01758 l -0.0273,-17.54492 c -0.009,-4.85995 3.8961,-8.72687 8.75781,-8.66797 l 32.375,0.38671 c 4.86109,0.0582 8.77558,4.01988 8.78516,8.87891 l 0.0332,17.54492 c 0.002,1.46049 -0.35155,2.82387 -0.97656,4.02344 l 22.38086,0.2832 -0.22656,-128.23437 h 0.0352 L 174.2207,14 h -4.65625 c -0.63849,0.62281 -1.51131,1.006518 -2.48437,1.001953 l -7.10156,-0.03125 C 159.03624,14.966477 158.1858,14.593775 157.54297,14 h -4.71875 l 0.12305,13.466797 c 0.0456,4.958955 -3.90866,8.934468 -8.86915,8.912109 l -32.01757,-0.146484 c -4.96061,-0.02238 -8.98993,-4.028753 -9.03516,-8.988281 L 102.90039,14 h -5.046874 c -0.586562,0.425427 -1.3051,0.68142 -2.09375,0.677734 l -7.101563,-0.03125 C 87.898641,14.643077 87.195377,14.402532 86.613281,14 Z m 7.193359,4.230469 7.101563,0.03125 c 1.98427,0.0089 3.593218,1.609911 3.611328,3.59375 l 0.03516,3.580078 c 0.0192,1.983589 -1.565748,3.574193 -3.548828,3.566406 l -7.101562,-0.03125 c -1.98424,-0.0089 -3.596725,-1.614245 -3.615235,-3.597656 l -0.03125,-3.580078 c -0.009,-0.991829 0.380215,-1.883203 1.021485,-2.527344 0.64148,-0.644106 1.535213,-1.039596 2.527343,-1.035156 z m 71.320311,0.318359 7.10156,0.0332 c 1.98423,0.0089 3.59305,1.612078 3.61133,3.595703 l 0.0352,3.580078 c 0.0186,1.98359 -1.5651,3.574874 -3.54883,3.566407 l -7.10156,-0.03125 c -1.98425,-0.0089 -3.59657,-1.612454 -3.61524,-3.595703 l -0.0352,-3.582032 c -0.009,-0.991812 0.38405,-1.885083 1.02539,-2.529296 v -0.0039 c 0.64165,-0.643909 1.53134,-1.035744 2.52344,-1.03125 z m -71.191404,14.001953 7.101562,0.03125 c 1.98425,0.0089 3.600221,1.614677 3.619141,3.597657 l 0.03125,3.582031 c 0.0192,1.983572 -1.564258,3.567868 -3.548828,3.558593 l -7.101563,-0.02734 c -1.98424,-0.0089 -3.597084,-1.61387 -3.615234,-3.597657 l -0.03516,-3.582031 c -0.009,-0.991777 0.380194,-1.88315 1.021484,-2.527343 0.64169,-0.643874 1.535234,-1.039686 2.527344,-1.035157 z m 71.320314,0.322266 7.10156,0.03125 c 1.98419,0.0089 3.59689,1.614049 3.61524,3.597656 l 0.0312,3.580078 c 0.0186,1.98359 -1.56101,3.573099 -3.54492,3.564453 l -7.10156,-0.0332 c -1.98425,-0.0089 -3.60017,-1.614694 -3.61914,-3.597656 l -0.0273,-3.580078 c -0.009,-0.991795 0.38013,-1.883149 1.02148,-2.527344 0.64086,-0.64468 1.53134,-1.039666 2.52344,-1.035156 z m -48.19727,10.521484 32.37696,0.146485 c 4.86132,0.02202 8.80949,3.951931 8.85546,8.810546 l 0.16407,17.544922 c 0.0449,4.859797 -3.83527,8.756949 -8.69727,8.734375 l -32.37891,-0.146484 c -4.86136,-0.02202 -8.80713,-3.954191 -8.85156,-8.814453 l -0.16211,-17.542969 c -0.0226,-2.428896 0.93761,-4.616912 2.50782,-6.195312 1.57111,-1.578848 3.75467,-2.548246 6.18554,-2.53711 z m -22.990232,3.478516 7.101563,0.03125 c 1.98421,0.0089 3.596684,1.614282 3.615234,3.597656 l 0.03125,3.580078 c 0.0192,1.983607 -1.564878,3.571164 -3.548828,3.5625 l -7.101563,-0.0332 C 87.068504,57.602431 85.45579,55.999199 85.4375,54.015628 L 85.41016,50.43555 c -0.009,-0.991813 0.380205,-1.88279 1.021485,-2.527344 0.64104,-0.644876 1.531467,-1.03947 2.523437,-1.035156 z m 71.320312,0.322265 7.10156,0.03125 c 1.98423,0.0089 3.59653,1.614407 3.61524,3.597657 l 0.0352,3.580078 c 0.0186,1.983589 -1.56814,3.571862 -3.55273,3.5625 l -7.09961,-0.03125 c -1.98419,-0.0089 -3.59496,-1.614049 -3.61328,-3.597656 l -0.0352,-3.580079 c -0.009,-0.991776 0.38398,-1.884778 1.02539,-2.529296 0.64182,-0.64407 1.53116,-1.037858 2.52344,-1.033204 z m -71.187499,13.996094 7.101562,0.0332 c 1.98421,0.0089 3.592328,1.616683 3.611328,3.59961 l 0.03516,3.580078 c 0.0192,1.983589 -1.564259,3.571862 -3.548829,3.5625 l -7.101562,-0.03125 c -1.9842,-0.0089 -3.592998,-1.614067 -3.611328,-3.597656 l -0.03516,-3.580079 c -0.009,-0.991811 0.380135,-1.885064 1.021485,-2.529296 0.64085,-0.644678 1.535264,-1.039615 2.527344,-1.035157 z m 71.320309,0.328125 7.10157,0.03125 c 1.98422,0.0089 3.59496,1.610125 3.61328,3.59375 l 0.0332,3.580078 c 0.0186,1.983607 -1.5609,3.575143 -3.54492,3.566407 l -7.10156,-0.03125 c -1.9842,-0.0089 -3.59693,-1.614085 -3.61524,-3.597657 l -0.0352,-3.583984 c -0.009,-0.991795 0.38402,-1.883112 1.02539,-2.527344 0.64081,-0.644679 1.53129,-1.035726 2.52343,-1.03125 z m -71.187497,13.996094 7.097656,0.03125 c 1.98427,0.0089 3.600241,1.614711 3.619141,3.597656 l 0.03125,3.580078 c 0.0192,1.98359 -1.564278,3.573711 -3.548828,3.564453 l -7.09961,-0.03516 c -1.984218,-0.0089 -3.598837,-1.612133 -3.617187,-3.595703 l -0.03125,-3.580078 c -0.009,-0.990793 0.381284,-1.879386 1.021484,-2.523437 0.64085,-0.644697 1.535234,-1.043574 2.527344,-1.039063 z m 71.320317,0.324219 7.10156,0.0332 c 1.98421,0.0089 3.59627,1.610788 3.61523,3.59375 l 0.0312,3.580078 c 0.0186,1.983644 -1.56158,3.574461 -3.54492,3.566406 l -7.10156,-0.03125 c -1.98423,-0.0089 -3.59688,-1.614138 -3.61524,-3.597656 l -0.0312,-3.583984 c -0.009,-0.991794 0.38009,-1.883185 1.02149,-2.527344 0.64084,-0.644697 1.53132,-1.037715 2.52344,-1.033203 z m -48.19727,10.521484 32.37695,0.146484 c 4.8614,0.02202 8.80771,3.953668 8.85352,8.812498 l 0.16406,17.54492 c 0.0126,1.37863 -0.3087,2.66644 -0.86133,3.82032 h -0.18359 c -1.48619,2.84146 -4.43747,4.77184 -7.89844,4.73047 l -32.01367,-0.38477 c -3.34351,-0.0401 -6.21722,-1.90945 -7.75977,-4.62891 l -0.31836,-0.002 c -0.55123,-1.14133 -0.88197,-2.41059 -0.89453,-3.75977 l -0.1582,-17.54492 c -0.0449,-4.85976 3.83133,-8.757 8.69336,-8.734372 z M 89.351562,89.83594 v 0.002 l 7.09961,0.0332 c 1.98425,0.009 3.599068,1.61583 3.617188,3.59961 l 0.0332,3.58008 c 0.0192,1.98361 -1.566192,3.56787 -3.550782,3.5586 l -7.101562,-0.0313 c -1.98421,-0.009 -3.596895,-1.61018 -3.615235,-3.59374 l -0.0293,-3.58204 c -0.009,-0.9918 0.380154,-1.88315 1.021484,-2.52734 0.64165,-0.64386 1.533252,-1.04357 2.52539,-1.03906 z m 71.322268,0.32617 h 0.002 l 7.09961,0.0273 c 1.98419,0.009 3.59431,1.61477 3.61328,3.59766 l 0.0371,3.58203 c 0.0186,1.98359 -1.56819,3.57175 -3.55273,3.5625 l -7.09961,-0.0293 c -1.98426,-0.009 -3.59493,-1.61408 -3.61328,-3.59765 l -0.0332,-3.58399 c -0.009,-0.99077 0.37934,-1.87942 1.01953,-2.52343 0.64126,-0.64346 1.53601,-1.03909 2.52735,-1.03516 z m -71.189455,13.99609 7.101563,0.0352 c 1.984228,0.009 3.596302,1.61474 3.615232,3.59766 l 0.0332,3.58007 c 0.0192,1.98359 -1.567419,3.57061 -3.550779,3.5625 l -7.101563,-0.0312 c -1.98423,-0.009 -3.594931,-1.61411 -3.613281,-3.59765 l -0.03125,-3.58008 c -0.009,-0.99178 0.380074,-1.88677 1.021484,-2.53125 0.64171,-0.64293 1.534091,-1.0398 2.525391,-1.03516 z m 71.324215,0.32618 7.09766,0.0273 c 1.98425,0.009 3.59673,1.61816 3.61523,3.60156 l 0.0332,3.58008 c 0.0186,1.98363 -1.56423,3.56792 -3.54883,3.55859 l -7.09961,-0.0273 c -1.98422,-0.009 -3.59627,-1.61468 -3.61523,-3.59766 l -0.0352,-3.58007 c -0.009,-0.99183 0.38205,-1.88477 1.02344,-2.5293 0.64183,-0.6441 1.53698,-1.03784 2.52929,-1.0332 z m -71.238278,12.6914 7.101563,0.084 c 1.98413,0.0242 3.584585,1.6392 3.587895,3.62304 l 0.008,3.58008 c 0.004,1.98367 -1.594289,3.56066 -3.578129,3.53711 l -7.101562,-0.084 c -1.98415,-0.0243 -3.580475,-1.6374 -3.583985,-3.6211 l -0.0098,-3.58398 c -0.001,-0.99187 0.394875,-1.87819 1.041015,-2.51758 0.64626,-0.63926 1.543138,-1.0295 2.535156,-1.01758 z m 71.318358,0.85742 7.10156,0.084 c 1.98409,0.0243 3.58245,1.63743 3.58594,3.62109 l 0.008,3.58008 c 0.003,1.98368 -1.59042,3.56253 -3.57421,3.53906 l -7.10352,-0.084 c -1.98413,-0.0241 -3.58439,-1.64134 -3.58789,-3.625 l -0.004,-3.58203 c -0.002,-0.99183 0.39293,-1.88016 1.03907,-2.51953 v -0.004 c 0.64562,-0.63989 1.54309,-1.02169 2.53515,-1.00977 z m -48.09765,10.16407 32.01367,0.38476 c 4.96026,0.0596 8.9616,4.09573 8.9707,9.05469 l 0.0332,17.90234 c 0.009,4.95918 -3.97732,8.90506 -8.9375,8.84571 L 112.85352,164 c -4.9603,-0.0595 -8.96053,-4.09689 -8.96875,-9.05664 l -0.0312,-17.9082 c -0.004,-2.47963 0.98994,-4.70216 2.60546,-6.30078 1.6158,-1.59837 3.85193,-2.56685 6.33204,-2.53711 z m -23.191411,3.30078 7.097657,0.084 c 1.98413,0.0241 3.585354,1.63839 3.589844,3.62109 l 0.008,3.58008 c 0.004,1.9836 -1.591743,3.56315 -3.576173,3.53907 l -7.101562,-0.0879 c -1.984122,-0.0243 -3.584551,-1.6353 -3.587891,-3.61915 l -0.01172,-3.58398 c -10e-4,-0.99085 0.401875,-1.87601 1.046875,-2.51563 0.64602,-0.639 1.543826,-1.02898 2.535156,-1.01757 z m 71.316411,0.85547 7.09765,0.084 c 1.9841,0.0241 3.58405,1.63971 3.58789,3.62305 l 0.006,3.58007 c 0.003,1.98369 -1.58783,3.56318 -3.57226,3.53907 l -7.10157,-0.084 c -1.98408,-0.0243 -3.5844,-1.64324 -3.58789,-3.62695 l -0.006,-3.58008 c -0.002,-0.99185 0.39485,-1.88173 1.04102,-2.52148 0.64539,-0.63961 1.54375,-1.02523 2.53516,-1.01367 z m -71.292973,13.46484 7.101562,0.0879 c 1.98414,0.0241 3.584581,1.63716 3.587891,3.62109 l 0.006,3.58204 c 0.003,1.98365 -1.589305,3.56358 -3.572265,3.54101 l -7.101563,-0.0879 c -1.98411,-0.0242 -3.588087,-1.64148 -3.591797,-3.625 l -0.0039,-3.58008 c -10e-4,-0.99184 0.392983,-1.88213 1.039063,-2.52148 0.64625,-0.63928 1.543076,-1.02941 2.535156,-1.01758 z m 71.318363,0.85352 7.09961,0.0879 c 1.98411,0.0241 3.58442,1.6374 3.58789,3.62109 l 0.004,3.58008 c 0.003,1.98369 -1.59061,3.56232 -3.57422,3.53906 l -7.09765,-0.084 c -1.98413,-0.0241 -3.58597,-1.63973 -3.58985,-3.62305 l -0.008,-3.58399 c -0.002,-0.99184 0.3949,-1.8762 1.04102,-2.51562 v -0.004 c 0.64644,-0.6391 1.54116,-1.02556 2.5332,-1.01367 z m -71.292972,13.4707 7.101562,0.0879 c 1.98412,0.0242 3.58183,1.64 3.58594,3.62305 l 0.008,3.58007 c 0.004,1.98366 -1.591724,3.55924 -3.576174,3.53516 l -7.097656,-0.084 c -1.98411,-0.0242 -3.584521,-1.63919 -3.587891,-3.62305 l -0.0078,-3.58008 c -0.001,-0.99181 0.392982,-1.886 1.039062,-2.52539 0.64649,-0.63907 1.543107,-1.02559 2.535157,-1.01367 z m 71.316402,0.85351 7.09766,0.084 c 1.98407,0.0243 3.58434,1.64327 3.58789,3.62695 l 0.006,3.58008 c 0.003,1.98371 -1.58848,3.55859 -3.57227,3.53516 l -7.10156,-0.084 c -1.98413,-0.0241 -3.58567,-1.64001 -3.58984,-3.62305 v -3.58007 c -0.002,-0.99183 0.39097,-1.88211 1.03711,-2.52149 0.64566,-0.63989 1.5431,-1.02948 2.53515,-1.01758 z m -48.27929,10.16407 32.37695,0.38476 c 4.86101,0.0582 8.78129,4.0181 8.79102,8.87696 l 0.0312,17.54687 c 0.009,4.86001 -3.90004,8.72876 -8.76172,8.66992 l -32.373,-0.38672 c -4.86109,-0.0583 -8.77895,-4.02234 -8.78711,-8.88281 l -0.0352,-17.54102 c -0.003,-2.42901 0.97467,-4.61108 2.55665,-6.17773 1.58279,-1.56709 3.77045,-2.51949 6.20117,-2.49023 z m -23.013675,3.30468 7.101563,0.0879 c 1.984088,0.0243 3.584142,1.63763 3.587892,3.6211 l 0.006,3.58008 c 0.004,1.98369 -1.592334,3.56255 -3.576174,3.53906 l -7.101563,-0.0879 c -1.98411,-0.0243 -3.582407,-1.63745 -3.585937,-3.6211 l -0.0059,-3.58007 c -0.001,-0.99183 0.396889,-1.88566 1.042969,-2.52539 0.64584,-0.64008 1.53935,-1.02539 2.53125,-1.01368 z m 71.318355,0.85352 7.09961,0.084 c 1.98409,0.0242 3.58397,1.64166 3.58789,3.625 l 0.008,3.58008 c 0.003,1.9837 -1.59365,3.55931 -3.57813,3.53516 l -7.09961,-0.084 c -1.98409,-0.0241 -3.58437,-1.63739 -3.58789,-3.62109 l -0.008,-3.58203 c -0.002,-0.99179 0.40067,-1.87981 1.04687,-2.51953 0.64661,-0.63925 1.53903,-1.02963 2.53125,-1.01758 z m -71.292964,13.46875 7.101562,0.0859 c 1.98409,0.0241 3.581732,1.64002 3.585942,3.62304 l 0.008,3.58008 c 0.003,1.98367 -1.589773,3.56322 -3.574223,3.53906 l -7.099609,-0.084 c -1.98409,-0.0243 -3.584341,-1.64329 -3.587891,-3.62695 l -0.0078,-3.58008 c -0.001,-0.99185 0.396839,-1.88209 1.042969,-2.52149 0.64565,-0.63991 1.53922,-1.02748 2.53125,-1.01562 z m 71.316404,0.85547 7.10156,0.084 c 1.98409,0.0241 3.58441,1.63936 3.58789,3.62305 l 0.006,3.58008 c 0.003,1.9837 -1.58836,3.56261 -3.57226,3.53906 l -7.10156,-0.084 c -1.98407,-0.0243 -3.58438,-1.63939 -3.58789,-3.62305 l -0.006,-3.58399 c -0.002,-0.99183 0.39484,-1.88206 1.04101,-2.52148 0.6456,-0.63989 1.5392,-1.02554 2.53125,-1.01367 z m -71.289061,13.46875 7.097657,0.084 c 1.98415,0.0243 3.587674,1.64001 3.591794,3.62305 l 0.006,3.58008 c 0.004,1.98368 -1.59174,3.56117 -3.57617,3.53711 l -7.101562,-0.0859 c -1.98409,-0.0243 -3.584341,-1.63939 -3.587891,-3.62305 l -0.0059,-3.58008 c -0.001,-0.99081 0.396015,-1.87831 1.041015,-2.51757 0.64563,-0.6399 1.543106,-1.0295 2.535156,-1.01758 z m 71.316411,0.85351 7.10156,0.084 c 1.98407,0.0243 3.58374,1.64197 3.58789,3.625 l 0.008,3.58008 c 0.003,1.98371 -1.591,3.56192 -3.57422,3.53906 l -7.10156,-0.084 c -1.98411,-0.0241 -3.58433,-1.64142 -3.58789,-3.625 L 157.4688,207.5 c -0.002,-0.99185 0.39289,-1.88214 1.03906,-2.52148 0.64565,-0.63991 1.54115,-1.02561 2.53321,-1.01368 z m -71.292973,13.4668 0.002,0.002 7.101562,0.0859 c 1.98409,0.0241 3.582611,1.6392 3.585941,3.62305 l 0.008,3.58008 c 0.004,1.98368 -1.591704,3.55924 -3.576174,3.53515 l -7.101563,-0.084 c -1.9841,-0.0243 -3.584371,-1.63937 -3.58789,-3.62305 l -0.0039,-3.58008 c -10e-4,-0.99184 0.392933,-1.88209 1.039063,-2.52148 0.64642,-0.63906 1.541143,-1.0295 2.533203,-1.01758 z m 71.318363,0.85742 7.10156,0.084 c 1.98407,0.0243 3.58372,1.64006 3.58789,3.62304 l 0.01,3.58008 c 0.003,1.98366 -1.59175,3.56311 -3.57617,3.53906 l -7.10156,-0.084 c -1.98413,-0.0243 -3.58436,-1.63939 -3.58789,-3.62305 l -0.006,-3.58398 c -0.002,-0.99082 0.3921,-1.88225 1.03711,-2.52149 0.64645,-0.63908 1.5431,-1.02555 2.53516,-1.01367 z m -71.292972,13.46485 7.101562,0.0879 c 1.98413,0.0243 3.58377,1.63808 3.58789,3.62109 l 0.006,3.58203 c 0.003,1.98366 -1.592931,3.56001 -3.576171,3.53711 l -7.097656,-0.084 c -1.9841,-0.0243 -3.584351,-1.64136 -3.587891,-3.625 l -0.002,-3.58008 c -0.001,-0.99183 0.390929,-1.88179 1.03711,-2.52149 0.64651,-0.63811 1.540009,-1.02961 2.53125,-1.01757 z m 71.320312,0.85742 7.0957,0.084 c 1.98413,0.0243 3.58612,1.64153 3.58985,3.625 l 0.008,3.58008 c 0.003,1.9837 -1.59369,3.55929 -3.57813,3.53516 l -7.10156,-0.084 c -1.98408,-0.0243 -3.57788,-1.63998 -3.58203,-3.62304 l -0.008,-3.58008 c -0.002,-0.99187 0.39485,-1.8837 1.04101,-2.52344 0.64663,-0.63927 1.54292,-1.02572 2.53516,-1.01367 z"
       id="path860"
       inkscape:connector-curvature="0" />
    <path
       style="display:inline;opacity:1;fill:#eeeeec;fill-opacity:1;fill-rule:nonzero;stroke:none;stroke-width:7.7310667;stroke-linecap:square;stroke-linejoin:round;stroke-miterlimit:4;stroke-dasharray:none;stroke-dashoffset:0;stroke-opacity:1;paint-order:stroke fill markers"
       d="m 39.274246,16.70392 v 0.307151 h -0.028 v 63.654628 a 26.047106,20.374386 0 0 0 -9.4063,-1.39926 A 26.047106,20.374386 0 0 0 3.7938259,99.640948 26.047106,20.374386 0 0 0 29.839946,120.01543 26.047106,20.374386 0 0 0 55.886086,99.640948 26.047106,20.374386 0 0 0 55.376776,95.721905 V 37.078391 h 17.37347 V 16.70392 Z"
       id="path906"
       inkscape:connector-curvature="0" />
    <path
       inkscape:connector-curvature="0"
       id="path852"
       d="m 219.27425,134.70392 v 0.30715 h -0.028 v 63.65463 a 26.047106,20.374386 0 0 0 -9.4063,-1.39926 26.047106,20.374386 0 0 0 -26.04612,20.37451 26.047106,20.374386 0 0 0 26.04612,20.37448 26.047106,20.374386 0 0 0 26.04614,-20.37448 26.047106,20.374386 0 0 0 -0.50931,-3.91904 v -58.64352 h 17.37347 v -20.37447 z"
       style="display:inline;opacity:1;fill:#eeeeec;fill-opacity:1;fill-rule:nonzero;stroke:none;stroke-width:7.7310667;stroke-linecap:square;stroke-linejoin:round;stroke-miterlimit:4;stroke-dasharray:none;stroke-dashoffset:0;stroke-opacity:1;paint-order:stroke fill markers" />
  </g>
</svg>
