<?xml version="1.0" encoding="UTF-8" standalone="no"?>
<!-- Created with Inkscape (http://www.inkscape.org/) -->

<svg
   xmlns:osb="http://www.openswatchbook.org/uri/2009/osb"
   xmlns:dc="http://purl.org/dc/elements/1.1/"
   xmlns:cc="http://creativecommons.org/ns#"
   xmlns:rdf="http://www.w3.org/1999/02/22-rdf-syntax-ns#"
   xmlns:svg="http://www.w3.org/2000/svg"
   xmlns="http://www.w3.org/2000/svg"
   xmlns:xlink="http://www.w3.org/1999/xlink"
   xmlns:sodipodi="http://sodipodi.sourceforge.net/DTD/sodipodi-0.dtd"
   xmlns:inkscape="http://www.inkscape.org/namespaces/inkscape"
   width="256px"
   height="256px"
   viewBox="0 0 256 256"
   version="1.1"
   id="SVGRoot"
   sodipodi:docname="icon_audioextract.svg"
   inkscape:version="0.92.4 (5da689c313, 2019-01-14)"
   enable-background="new">
  <sodipodi:namedview
     id="base"
     pagecolor="#ffffff"
     bordercolor="#666666"
     borderopacity="1.0"
     inkscape:pageopacity="0.0"
     inkscape:pageshadow="2"
     inkscape:zoom="2.32"
     inkscape:cx="-0.068965207"
     inkscape:cy="127.18677"
     inkscape:document-units="px"
     inkscape:current-layer="layer1"
     showgrid="true"
     inkscape:window-width="1920"
     inkscape:window-height="1021"
     inkscape:window-x="0"
     inkscape:window-y="31"
     inkscape:window-maximized="1"
     inkscape:grid-bbox="true"
     inkscape:measure-start="110,130"
     inkscape:measure-end="0,0"
     showguides="false">
    <inkscape:grid
       type="xygrid"
       id="grid5114" />
  </sodipodi:namedview>
  <defs
     id="defs4485">
    <inkscape:path-effect
       effect="bspline"
       id="path-effect4551"
       is_visible="true"
       weight="33.333333"
       steps="2"
       helper_size="0"
       apply_no_weight="true"
       apply_with_weight="true"
       only_selected="false" />
    <inkscape:path-effect
       effect="skeletal"
       id="path-effect4547"
       is_visible="true"
       pattern="M 0,5 C 0,2.24 2.24,0 5,0 7.76,0 10,2.24 10,5 10,7.76 7.76,10 5,10 2.24,10 0,7.76 0,5 Z"
       copytype="single_stretched"
       prop_scale="1"
       scale_y_rel="false"
       spacing="0"
       normal_offset="0"
       tang_offset="0"
       prop_units="false"
       vertical_pattern="false"
       fuse_tolerance="0" />
    <inkscape:path-effect
       effect="bspline"
       id="path-effect4545"
       is_visible="true"
       weight="33.333333"
       steps="2"
       helper_size="0"
       apply_no_weight="true"
       apply_with_weight="true"
       only_selected="false" />
    <inkscape:path-effect
       effect="skeletal"
       id="path-effect4541"
       is_visible="true"
       pattern="M 0,5 C 0,2.24 2.24,0 5,0 7.76,0 10,2.24 10,5 10,7.76 7.76,10 5,10 2.24,10 0,7.76 0,5 Z"
       copytype="single_stretched"
       prop_scale="1"
       scale_y_rel="false"
       spacing="0"
       normal_offset="0"
       tang_offset="0"
       prop_units="false"
       vertical_pattern="false"
       fuse_tolerance="0" />
    <inkscape:path-effect
       effect="spiro"
       id="path-effect4539"
       is_visible="true" />
    <inkscape:path-effect
       effect="bspline"
       id="path-effect4535"
       is_visible="true"
       weight="33.333333"
       steps="2"
       helper_size="0"
       apply_no_weight="true"
       apply_with_weight="true"
       only_selected="false" />
    <inkscape:path-effect
       effect="skeletal"
       id="path-effect4531"
       is_visible="true"
       pattern="M 0,5 C 0,2.24 2.24,0 5,0 7.76,0 10,2.24 10,5 10,7.76 7.76,10 5,10 2.24,10 0,7.76 0,5 Z"
       copytype="single_stretched"
       prop_scale="1"
       scale_y_rel="false"
       spacing="0"
       normal_offset="0"
       tang_offset="0"
       prop_units="false"
       vertical_pattern="false"
       fuse_tolerance="0" />
    <inkscape:path-effect
       effect="bspline"
       id="path-effect4529"
       is_visible="true"
       weight="33.333333"
       steps="2"
       helper_size="0"
       apply_no_weight="true"
       apply_with_weight="true"
       only_selected="false" />
    <inkscape:path-effect
       effect="skeletal"
       id="path-effect4525"
       is_visible="true"
       pattern="M 0,5 C 0,2.24 2.24,0 5,0 7.76,0 10,2.24 10,5 10,7.76 7.76,10 5,10 2.24,10 0,7.76 0,5 Z"
       copytype="single_stretched"
       prop_scale="1"
       scale_y_rel="false"
       spacing="0"
       normal_offset="0"
       tang_offset="0"
       prop_units="false"
       vertical_pattern="false"
       fuse_tolerance="0" />
    <inkscape:path-effect
       effect="bspline"
       id="path-effect4523"
       is_visible="true"
       weight="33.333333"
       steps="2"
       helper_size="0"
       apply_no_weight="true"
       apply_with_weight="true"
       only_selected="false" />
    <inkscape:path-effect
       effect="bspline"
       id="path-effect4519"
       is_visible="true"
       weight="33.333333"
       steps="2"
       helper_size="0"
       apply_no_weight="true"
       apply_with_weight="true"
       only_selected="false" />
    <pattern
       inkscape:isstock="true"
       inkscape:stockid="Stripes 1:1"
       id="Strips1_1"
       patternTransform="translate(0,0) scale(10,10)"
       height="1"
       width="2"
       patternUnits="userSpaceOnUse"
       inkscape:collect="always">
      <rect
         id="rect5447"
         height="2"
         width="1"
         y="-0.5"
         x="0"
         style="fill:black;stroke:none" />
    </pattern>
    <linearGradient
       id="linearGradient4727"
       osb:paint="solid">
      <stop
         style="stop-color:#ce5c00;stop-opacity:1;"
         offset="0"
         id="stop4725" />
    </linearGradient>
    <pattern
       patternUnits="userSpaceOnUse"
       width="55"
       height="90"
       patternTransform="translate(-60,50.5)"
       id="pattern6214">
      <g
         style="fill:url(#Strips1_1);fill-opacity:1"
         transform="translate(-15,-28.5)"
         id="g4691">
        <rect
           style="opacity:0.81499999;fill:url(#Strips1_1);fill-opacity:1;stroke:none;stroke-width:4.52699995;stroke-linecap:round;stroke-linejoin:bevel;stroke-miterlimit:17.60000038;stroke-dasharray:none;stroke-dashoffset:0;stroke-opacity:1;paint-order:stroke fill markers"
           id="rect4683"
           width="30"
           height="30"
           x="40"
           y="59"
           ry="7.9000001" />
        <path
           inkscape:connector-curvature="0"
           style="opacity:0.81499999;fill:url(#Strips1_1);fill-opacity:1;stroke:none;stroke-width:8.60130024;stroke-linecap:round;stroke-linejoin:bevel;stroke-miterlimit:17.60000038;stroke-dasharray:none;stroke-dashoffset:0;stroke-opacity:1;paint-order:stroke fill markers"
           d="m 15,28.5 v 90 l 45,-45 z"
           id="path4687" />
      </g>
    </pattern>
    <linearGradient
       inkscape:collect="always"
       xlink:href="#linearGradient4560"
       id="linearGradient4562"
       x1="-11.593207"
       y1="128.66191"
       x2="268.93854"
       y2="128.66191"
       gradientUnits="userSpaceOnUse"
       gradientTransform="matrix(0.385754,-0.60278649,0.385754,0.5785278,-46.33616,131.41006)" />
    <linearGradient
       inkscape:collect="always"
       id="linearGradient4560">
      <stop
         style="stop-color:#380000;stop-opacity:1;"
         offset="0"
         id="stop4556" />
      <stop
         style="stop-color:#380000;stop-opacity:0;"
         offset="1"
         id="stop4558" />
    </linearGradient>
  </defs>
  <metadata
     id="metadata4488">
    <rdf:RDF>
      <cc:Work
         rdf:about="">
        <dc:format>image/svg+xml</dc:format>
        <dc:type
           rdf:resource="http://purl.org/dc/dcmitype/StillImage" />
        <dc:title />
      </cc:Work>
    </rdf:RDF>
  </metadata>
  <g
     inkscape:groupmode="layer"
     id="layer3"
     inkscape:label="sfondo"
     style="display:inline" />
  <g
     style="display:inline"
     inkscape:label="sfondo copia"
     id="g4738"
     inkscape:groupmode="layer" />
  <g
     id="layer1"
     inkscape:groupmode="layer"
     inkscape:label="film strip"
     style="display:inline;opacity:1">
    <path
       style="display:inline;opacity:1;fill:url(#linearGradient4562);fill-opacity:1;stroke:none;stroke-width:0.87754917"
       d="M 23.74323,4.455141 24.98555,252.06874 82.30582,251.81945 81.06714,4.779965 Z"
       id="rect5216"
       inkscape:connector-curvature="0" />
    <path
       style="display:inline;opacity:1;fill:#180000;fill-opacity:0.8835983;stroke:none;stroke-width:0.89029312"
       d="m 5.02123,4.696038 1.23768,246.840712 22.94392,0.0299 c -0.64079,-1.88551 -1.01279,-4.02067 -1.02419,-6.29296 l -0.138,-27.56005 c -0.0383,-7.63414 3.94587,-13.7804 8.93373,-13.7782 l 33.21558,0.0123 c 4.98751,9.6e-4 9.03241,6.14946 9.0709,13.78323 l 0.13801,27.5601 c 0.0115,2.29417 -0.34416,4.44766 -0.97811,6.34354 l 22.96258,0.0297 L 100.14745,5.292699 75.19367,5.137929 c 1.85424,2.568426 3.0316,6.261309 3.05232,10.392542 l 0.14153,28.12386 c 0.0391,7.789948 -4.02601,14.058333 -9.1153,14.056608 L 36.42409,57.700159 C 31.3348,57.698659 27.20636,51.427492 27.1673,43.637575 L 27.02575,15.513732 C 27.00435,11.238664 28.22414,7.430325 30.166,4.856025 Z M 9.77355,8.7134 c 0.659,-1.016344 1.57386,-1.643977 2.59172,-1.643649 l 7.28556,0.0036 c 2.03571,6.86e-4 3.68747,2.5093055 3.70306,5.625341 l 0.0293,5.625807 c 0.0156,3.115952 -1.6121,5.624374 -3.6478,5.623681 l -7.28556,-0.0031 C 10.41412,23.944369 8.76326,21.436977 8.74763,18.32101 L 8.71913,12.696497 C 8.71113,11.138512 9.11447,9.7301775 9.77348,8.713866 Z m 0.11307,22.499331 c 0.65899,-1.016336 1.57473,-1.642699 2.59259,-1.642359 l 7.28468,0.0015 c 2.03571,6.93e-4 3.68664,2.51061 3.7023,5.62653 l 0.0284,5.621911 c 0.0156,3.115997 -1.6104,5.624374 -3.64611,5.623712 l -7.28557,-0.0031 c -2.0357,-6.93e-4 -3.68662,-2.510641 -3.7023,-5.626515 l -0.0276,-5.623204 c -0.008,-1.557999 0.39452,-2.962414 1.05355,-3.978735 z m 0.1122,22.498052 c 0.659,-1.016335 1.57474,-1.642697 2.5926,-1.642375 l 7.28555,0.0031 c 2.0357,6.77e-4 3.68741,2.506759 3.70301,5.622773 l 0.0285,5.624528 c 0.0156,3.115982 -1.61123,5.625684 -3.64695,5.624991 L 12.67601,68.9407 C 10.64029,68.940039 8.99024,66.431368 8.97457,63.315479 l -0.0293,-5.625807 c -0.008,-1.557999 0.39453,-2.962429 1.05355,-3.978734 z m 0.11304,22.496759 c 0.65859,-1.016197 1.57629,-1.643361 2.59344,-1.643699 l 7.28384,0.0031 c 2.03572,6.77e-4 3.68708,2.509901 3.70312,5.625268 l 0.0293,5.625821 c 0.0156,3.115968 -1.61125,5.623067 -3.64697,5.622404 l -7.28554,-0.0031 c -2.0357,-6.93e-4 -3.68742,-2.50676 -3.70301,-5.622772 l -0.0293,-5.625915 c -0.008,-1.558013 0.39617,-2.964538 1.05521,-3.981352 z m 0.11222,22.49805 c 0.65904,-1.01623 1.57473,-1.642696 2.59258,-1.642342 l 7.28556,0.0031 c 2.03571,6.62e-4 3.68743,2.506696 3.70306,5.6227 l 0.0285,5.62451 c 0.0156,3.11603 -1.61071,5.62651 -3.64609,5.62632 l -7.28555,-0.003 c -2.03572,-6.6e-4 -3.6864,-2.51099 -3.70219,-5.62668 l -0.0285,-5.62452 c -0.008,-1.55801 0.39367,-2.963744 1.05269,-3.980048 z M 30,73.055925 c 1.64772,-2.54104 3.93642,-4.108742 6.48105,-4.107879 l 32.8473,0.01232 c 5.08926,0.0015 9.21688,6.273422 9.25596,14.063354 l 0.14238,28.12258 c 0.0391,7.78991 -4.02688,14.05962 -9.11615,14.05793 l -32.8473,-0.0123 c -5.08926,-9.6e-4 -9.21771,-6.27213 -9.25678,-14.06205 L 27.36408,83.007319 C 27.34458,79.112329 28.35229,75.596964 30,73.055925 Z M 10.33714,121.20497 c 0.65884,-1.01659 1.57558,-1.64403 2.59343,-1.64369 l 7.28554,0.003 c 2.03572,6.7e-4 3.68662,2.50797 3.7023,5.62388 l 0.0285,5.62453 c 0.0156,3.11596 -1.61126,5.62303 -3.64696,5.62241 l -7.28468,-0.002 c -2.03573,-6.7e-4 -3.68827,-2.50807 -3.7039,-5.62405 l -0.0285,-5.62449 c -0.008,-1.55801 0.39537,-2.96372 1.05438,-3.98002 z M 82.94542,8.736811 C 83.60425,7.720226 84.51933,7.0954 85.53718,7.095745 l 7.28638,0.0022 c 2.03571,6.98e-4 3.68578,2.5092915 3.70145,5.62522 l 0.0293,5.625805 c 0.0157,3.115937 -1.61038,5.624407 -3.64615,5.623619 l -7.2864,-0.0015 c -2.03571,-6.78e-4 -3.68578,-2.509316 -3.70144,-5.625222 l -0.0294,-5.628409 c -0.008,-1.557974 0.39537,-2.9637305 1.05437,-3.980023 z M 10.45019,143.70169 c 0.65857,-1.0175 1.57487,-1.64505 2.59256,-1.64496 l 7.28556,0.003 c 2.03572,6.5e-4 3.68724,2.51227 3.7031,5.62793 l 0.0276,5.62322 c 0.0156,3.11595 -1.61041,5.62431 -3.64614,5.62364 l -7.2855,-0.003 c -2.03573,-6.8e-4 -3.68574,-2.50938 -3.70138,-5.62534 l -0.0285,-5.62453 c -0.008,-1.55798 0.39371,-2.96309 1.05268,-3.98 z M 83.05849,31.236155 c 0.6584,-1.01723 1.57303,-1.642699 2.5909,-1.64236 l 7.28638,0.0015 c 2.03571,6.47e-4 3.68745,2.509331 3.70306,5.625329 l 0.0285,5.624498 c 0.0157,3.115936 -1.61122,5.623112 -3.64691,5.622511 l -7.28553,-0.0011 c -2.03571,-6.77e-4 -3.68664,-2.510625 -3.7023,-5.626515 l -0.0276,-5.623234 c -0.008,-1.557985 0.3945,-2.965017 1.05354,-3.981322 z M 10.56239,166.19978 c 0.6584,-1.01726 1.5756,-1.64401 2.59343,-1.64371 l 7.28554,0.003 c 2.03571,6.7e-4 3.68657,2.50807 3.70222,5.62403 l 0.0285,5.62709 c 0.0156,3.11598 -1.61122,5.62317 -3.64685,5.6226 l -7.28473,-0.002 c -2.03571,-6.6e-4 -3.68659,-2.51063 -3.70223,-5.62662 l -0.0293,-5.62579 c -0.008,-1.558 0.39452,-2.96241 1.05354,-3.97872 z M 83.17155,53.73547 c 0.65839,-1.017229 1.57389,-1.641405 2.59175,-1.64102 l 7.28638,-3.7e-4 c 2.03571,6.77e-4 3.68662,2.510626 3.7023,5.626515 l 0.0276,5.62322 c 0.0156,3.115982 -1.61045,5.624328 -3.64615,5.623635 l -7.28636,-0.0015 c -2.03573,-6.93e-4 -3.68664,-2.51064 -3.7023,-5.626531 L 82.11717,57.7162 c -0.008,-1.557983 0.39536,-2.963707 1.05439,-3.980013 z m -52.88831,86.73202 c 1.6146,-2.49051 3.85805,-4.02586 6.35197,-4.02479 l 33.21643,0.01 c 4.9875,9.6e-4 9.03227,6.14972 9.07089,13.78323 l 0.13803,27.56013 c 0.0382,7.6341 -3.94507,13.77903 -8.93291,13.77683 l -33.21643,-0.01 c -4.98748,-9.6e-4 -9.03325,-6.15076 -9.07176,-13.78453 l -0.13797,-27.5575 c -0.0191,-3.81707 0.96711,-7.26294 2.58175,-9.75342 z m -19.6078,48.22901 0.002,0.002 c 0.6584,-1.01723 1.57473,-1.64273 2.5926,-1.64238 l 7.28468,0.002 c 2.03572,6.7e-4 3.68745,2.50937 3.70306,5.62533 l 0.0285,5.62453 c 0.0156,3.116 -1.61127,5.62305 -3.64691,5.62252 l -7.28568,-0.003 c -2.03571,-6.6e-4 -3.68573,-2.50938 -3.70137,-5.62536 l -0.0285,-5.62449 c -0.008,-1.558 0.39367,-2.96372 1.05268,-3.98002 z M 83.2846,76.232244 c 0.65813,-1.016814 1.57537,-1.642191 2.59259,-1.64239 l 7.28382,9.61e-4 c 2.03571,6.92e-4 3.68713,2.512443 3.70317,5.627824 l 0.0285,5.624544 c 0.0156,3.115952 -1.61042,5.621787 -3.64606,5.621202 l -7.28555,-9.61e-4 c -2.03572,-6.47e-4 -3.68665,-2.510548 -3.70231,-5.626514 l -0.0285,-5.624529 c -0.008,-1.557983 0.39532,-2.963245 1.05437,-3.980044 z M 10.7885,211.19584 c 0.65894,-1.01643 1.57476,-1.6427 2.5926,-1.64235 l 7.28554,0.003 c 2.03572,6.6e-4 3.68828,2.50806 3.70389,5.624 l 0.0276,5.62324 c 0.0156,3.11598 -1.61211,5.62434 -3.6478,5.62373 l -7.28469,-0.002 c -2.03571,-6.6e-4 -3.68659,-2.51067 -3.70223,-5.62665 l -0.0276,-5.62321 c -0.008,-1.558 0.39366,-2.96369 1.05267,-3.98003 z m 72.60661,-112.465518 0.002,-0.003 c 0.65896,-1.01641 1.57393,-1.641369 2.59177,-1.641077 l 0.001,-0.0031 7.28638,0.0031 c 2.03575,6.62e-4 3.68664,2.510581 3.70229,5.626525 l 0.0276,5.62322 c 0.0156,3.11595 -1.60919,5.62621 -3.64528,5.62494 l -7.28635,-0.002 c -2.03573,-6.7e-4 -3.68626,-2.51123 -3.7023,-5.62653 l -0.0294,-5.62579 c -0.008,-1.55801 0.39452,-2.962424 1.05355,-3.978738 z M 10.90071,233.6939 c 0.65912,-1.01669 1.57539,-1.64428 2.59343,-1.6437 l 7.28554,0.003 c 2.03571,6.6e-4 3.68746,2.50936 3.70306,5.62533 l 0.0276,5.62324 c 0.0156,3.11596 -1.61036,5.62697 -3.64606,5.62631 l -7.28554,-0.003 c -2.03571,-6.6e-4 -3.68659,-2.51067 -3.70223,-5.62664 l -0.0276,-5.62319 c -0.008,-1.55797 0.39276,-2.96452 1.05181,-3.9813 z m 72.6083,-112.46551 c 0.6584,-1.01723 1.57474,-1.64271 2.5926,-1.6424 l 7.28638,0.002 c 2.03572,6.6e-4 3.68576,2.50936 3.70144,5.62523 l 0.0285,5.62453 c 0.0156,3.11597 -1.60958,5.62298 -3.64524,5.62241 l -7.2864,-0.002 c -2.03573,-6.7e-4 -3.68746,-2.50937 -3.70308,-5.62537 l -0.0276,-5.62321 c -0.008,-1.55796 0.39449,-2.96501 1.0535,-3.98132 z m 0.1139,22.49802 c 0.65911,-1.01669 1.57456,-1.64297 2.5926,-1.64236 l 7.28465,-3.2e-4 c 2.03571,6.6e-4 3.68709,2.51248 3.70317,5.62782 l 0.0285,5.62447 c 0.0156,3.11597 -1.61122,5.62315 -3.64696,5.62242 l -7.28637,-0.002 c -2.03569,-6.4e-4 -3.68579,-2.5093 -3.70145,-5.6252 l -0.0285,-5.62452 c -0.008,-1.55798 0.39531,-2.96326 1.05436,-3.98003 z m 0.11307,22.49673 c 0.65838,-1.0172 1.57387,-1.64141 2.59173,-1.64103 l 7.28553,9.3e-4 c 2.03571,6.6e-4 3.68663,2.5106 3.70229,5.62653 l 0.0285,5.62455 c 0.0156,3.11595 -1.61036,5.62441 -3.64609,5.62368 l -7.28638,-0.002 c -2.03569,-6.6e-4 -3.68576,-2.50929 -3.70144,-5.62522 l -0.0293,-5.62579 c -0.008,-1.55798 0.39621,-2.96503 1.05523,-3.98135 z m 0.1122,22.49806 c 0.6584,-1.01722 1.5739,-1.64137 2.59173,-1.64106 l 7.2864,0.002 c 2.0357,6.6e-4 3.68657,2.50805 3.70219,5.62403 l 0.0268,5.62453 c 0.0157,3.11596 -1.60873,5.62428 -3.64439,5.62371 l -7.28637,-0.002 c -2.0357,-6.5e-4 -3.68573,-2.50942 -3.70145,-5.62524 l -0.0293,-5.62576 c -0.008,-1.558 0.39535,-2.96376 1.05438,-3.98006 z m 0.1122,22.49803 c 0.65894,-1.01641 1.57388,-1.6414 2.59175,-1.64105 l 7.28639,0.002 c 2.0357,6.7e-4 3.68654,2.50815 3.7022,5.62405 l 0.0293,5.62579 c 0.0156,3.11596 -1.61125,5.62305 -3.64695,5.62242 l -7.28641,-0.002 c -2.03571,-6.7e-4 -3.68575,-2.50935 -3.70133,-5.62541 l -0.0285,-5.62448 c -0.008,-1.55801 0.39449,-2.96501 1.05351,-3.98134 z m 0.1139,22.49804 c 0.65911,-1.01668 1.57371,-1.64171 2.59176,-1.64105 l 7.28465,-3.1e-4 c 2.03571,6.5e-4 3.68814,2.51352 3.70402,5.6291 l 0.0276,5.62322 c 0.0156,3.11595 -1.61041,5.62181 -3.64612,5.62109 l -7.28555,-9.6e-4 c -2.03572,-6.6e-4 -3.68743,-2.50933 -3.70309,-5.62528 l -0.0276,-5.62322 c -0.008,-1.558 0.3953,-2.96584 1.05437,-3.98263 z"
       id="rect5116"
       inkscape:connector-curvature="0" />
    <rect
       style="opacity:1;fill:#4e9a06;fill-opacity:0.98654713;stroke:none;stroke-width:0.1;stroke-linecap:square;stroke-linejoin:miter;stroke-miterlimit:4;stroke-dasharray:none;stroke-dashoffset:0;stroke-opacity:1;paint-order:normal"
       id="rect844"
       width="90"
       height="25"
       x="58"
       y="201" />
    <path
       sodipodi:type="star"
       style="opacity:1;fill:#4e9a06;fill-opacity:0.98654713;stroke:none;stroke-width:0.1;stroke-linecap:square;stroke-linejoin:miter;stroke-miterlimit:4;stroke-dasharray:none;stroke-dashoffset:0;stroke-opacity:1;paint-order:normal"
       id="path846"
       sodipodi:sides="3"
       sodipodi:cx="157"
       sodipodi:cy="213"
       sodipodi:r1="35"
       sodipodi:r2="17.5"
       sodipodi:arg1="0"
       sodipodi:arg2="1.0471976"
       inkscape:flatsided="false"
       inkscape:rounded="1.04083e-17"
       inkscape:randomized="0"
       d="m 192,213 -26.25,15.15544 -26.25,15.15545 0,-30.31089 0,-30.31089 26.25,15.15545 z"
       inkscape:transform-center-x="-8.75" />
    <rect
       style="opacity:1;fill:#4e9a06;fill-opacity:0.98654713;stroke:none;stroke-width:0.1;stroke-linecap:square;stroke-linejoin:miter;stroke-miterlimit:4;stroke-dasharray:none;stroke-dashoffset:0;stroke-opacity:1;paint-order:normal"
       id="rect852"
       width="90"
       height="25"
       x="58"
       y="31" />
    <path
       sodipodi:type="star"
       style="opacity:1;fill:#4e9a06;fill-opacity:0.98654713;stroke:none;stroke-width:0.1;stroke-linecap:square;stroke-linejoin:miter;stroke-miterlimit:4;stroke-dasharray:none;stroke-dashoffset:0;stroke-opacity:1;paint-order:normal"
       id="path854"
       sodipodi:sides="3"
       sodipodi:cx="155"
       sodipodi:cy="43"
       sodipodi:r1="35"
       sodipodi:r2="17.5"
       sodipodi:arg1="0"
       sodipodi:arg2="1.0471976"
       inkscape:flatsided="false"
       inkscape:rounded="1.04083e-17"
       inkscape:randomized="0"
       d="m 190,43 -26.25,15.155445 -26.25,15.155444 0,-30.31089 0,-30.310888 26.25,15.155445 z"
       inkscape:transform-center-x="-8.75" />
    <path
       inkscape:connector-curvature="0"
       id="path4522"
       d="M 198.44393,60.619094 V 61 h -0.0422 v 78.94118 a 39.320619,25.26726 0 0 0 -14.19968,-1.73527 39.320619,25.26726 0 0 0 -39.31916,25.2674 39.320619,25.26726 0 0 0 39.31916,25.26739 39.320619,25.26726 0 0 0 39.31913,-25.26739 39.320619,25.26726 0 0 0 -0.76886,-4.8602 V 85.886469 h 26.22689 V 60.619094 Z"
       style="display:inline;opacity:1;fill:#3465a4;fill-opacity:1;fill-rule:nonzero;stroke:none;stroke-width:9.54553986;stroke-linecap:square;stroke-linejoin:round;stroke-miterlimit:4;stroke-dasharray:none;stroke-dashoffset:0;stroke-opacity:1;paint-order:stroke fill markers" />
  </g>
  <g
     inkscape:groupmode="layer"
     id="layer2"
     inkscape:label="audio"
     style="display:inline" />
  <g
     inkscape:groupmode="layer"
     id="layer4"
     inkscape:label="freccie"
     style="display:inline" />
  <g
     inkscape:groupmode="layer"
     id="layer5"
     inkscape:label="ffmpeg"
     style="display:none">
    <path
       style="color:#000000;font-style:normal;font-variant:normal;font-weight:normal;font-stretch:normal;font-size:medium;line-height:normal;font-family:sans-serif;font-variant-ligatures:normal;font-variant-position:normal;font-variant-caps:normal;font-variant-numeric:normal;font-variant-alternates:normal;font-feature-settings:normal;text-indent:0;text-align:start;text-decoration:none;text-decoration-line:none;text-decoration-style:solid;text-decoration-color:#000000;letter-spacing:normal;word-spacing:normal;text-transform:none;writing-mode:lr-tb;direction:ltr;text-orientation:mixed;dominant-baseline:auto;baseline-shift:baseline;text-anchor:start;white-space:normal;shape-padding:0;clip-rule:nonzero;display:inline;overflow:visible;visibility:visible;opacity:1;isolation:auto;mix-blend-mode:normal;color-interpolation:sRGB;color-interpolation-filters:linearRGB;solid-color:#000000;solid-opacity:1;vector-effect:none;fill:#73d216;fill-opacity:1;fill-rule:nonzero;stroke:#4e9a06;stroke-width:6.26205349;stroke-linecap:round;stroke-linejoin:round;stroke-miterlimit:4;stroke-dasharray:none;stroke-dashoffset:0;stroke-opacity:1;color-rendering:auto;image-rendering:auto;shape-rendering:auto;text-rendering:auto;enable-background:accumulate"
       d="M 46.21789,49.048811 V 50 H 94 L 47.113323,96.8867 v 58.41606 L 152.41607,50 h 50.99422 L 51.220872,206.94535 h 53.636008 l 99.20177,-99.20181 v 55.72603 l -43.4758,43.47578 h 44.67958 l -1.69245,-0.9512 h -40.69089 l 42.13076,-42.13076 V 105.44734 L 104.46303,205.99415 H 53.468798 L 205.65821,49.048811 H 152.0222 L 48.064507,153.00653 V 97.28055 L 96.2962,49.048811 Z"
       id="path4593"
       inkscape:connector-curvature="0"
       sodipodi:nodetypes="ccccccccccccccccccccccccc" />
  </g>
</svg>
