<?xml version="1.0" encoding="UTF-8" standalone="no"?>
<!-- Created with Inkscape (http://www.inkscape.org/) -->

<svg
   xmlns:osb="http://www.openswatchbook.org/uri/2009/osb"
   xmlns:dc="http://purl.org/dc/elements/1.1/"
   xmlns:cc="http://creativecommons.org/ns#"
   xmlns:rdf="http://www.w3.org/1999/02/22-rdf-syntax-ns#"
   xmlns:svg="http://www.w3.org/2000/svg"
   xmlns="http://www.w3.org/2000/svg"
   xmlns:xlink="http://www.w3.org/1999/xlink"
   xmlns:sodipodi="http://sodipodi.sourceforge.net/DTD/sodipodi-0.dtd"
   xmlns:inkscape="http://www.inkscape.org/namespaces/inkscape"
   width="256px"
   height="256px"
   viewBox="0 0 256 256"
   version="1.1"
   id="SVGRoot"
   sodipodi:docname="icon_videoconversions2_W.svg"
   inkscape:version="0.92.4 (5da689c313, 2019-01-14)"
   enable-background="new">
  <sodipodi:namedview
     id="base"
     pagecolor="#ffffff"
     bordercolor="#666666"
     borderopacity="1.0"
     inkscape:pageopacity="0.0"
     inkscape:pageshadow="2"
     inkscape:zoom="2.6657926"
     inkscape:cx="149.08133"
     inkscape:cy="144.57773"
     inkscape:document-units="px"
     inkscape:current-layer="layer3"
     showgrid="true"
     inkscape:window-width="1920"
     inkscape:window-height="1015"
     inkscape:window-x="0"
     inkscape:window-y="0"
     inkscape:window-maximized="1"
     inkscape:grid-bbox="true"
     inkscape:measure-start="110,130"
     inkscape:measure-end="0,0"
     showguides="false">
    <inkscape:grid
       type="xygrid"
       id="grid5114" />
  </sodipodi:namedview>
  <defs
     id="defs4485">
    <linearGradient
       inkscape:collect="always"
       id="linearGradient857">
      <stop
         style="stop-color:#ef2929;stop-opacity:1;"
         offset="0"
         id="stop853" />
      <stop
         style="stop-color:#ef2929;stop-opacity:0;"
         offset="1"
         id="stop855" />
    </linearGradient>
    <inkscape:path-effect
       effect="bspline"
       id="path-effect4551"
       is_visible="true"
       weight="33.333333"
       steps="2"
       helper_size="0"
       apply_no_weight="true"
       apply_with_weight="true"
       only_selected="false" />
    <inkscape:path-effect
       effect="skeletal"
       id="path-effect4547"
       is_visible="true"
       pattern="M 0,5 C 0,2.24 2.24,0 5,0 7.76,0 10,2.24 10,5 10,7.76 7.76,10 5,10 2.24,10 0,7.76 0,5 Z"
       copytype="single_stretched"
       prop_scale="1"
       scale_y_rel="false"
       spacing="0"
       normal_offset="0"
       tang_offset="0"
       prop_units="false"
       vertical_pattern="false"
       fuse_tolerance="0" />
    <inkscape:path-effect
       effect="bspline"
       id="path-effect4545"
       is_visible="true"
       weight="33.333333"
       steps="2"
       helper_size="0"
       apply_no_weight="true"
       apply_with_weight="true"
       only_selected="false" />
    <inkscape:path-effect
       effect="skeletal"
       id="path-effect4541"
       is_visible="true"
       pattern="M 0,5 C 0,2.24 2.24,0 5,0 7.76,0 10,2.24 10,5 10,7.76 7.76,10 5,10 2.24,10 0,7.76 0,5 Z"
       copytype="single_stretched"
       prop_scale="1"
       scale_y_rel="false"
       spacing="0"
       normal_offset="0"
       tang_offset="0"
       prop_units="false"
       vertical_pattern="false"
       fuse_tolerance="0" />
    <inkscape:path-effect
       effect="spiro"
       id="path-effect4539"
       is_visible="true" />
    <inkscape:path-effect
       effect="bspline"
       id="path-effect4535"
       is_visible="true"
       weight="33.333333"
       steps="2"
       helper_size="0"
       apply_no_weight="true"
       apply_with_weight="true"
       only_selected="false" />
    <inkscape:path-effect
       effect="skeletal"
       id="path-effect4531"
       is_visible="true"
       pattern="M 0,5 C 0,2.24 2.24,0 5,0 7.76,0 10,2.24 10,5 10,7.76 7.76,10 5,10 2.24,10 0,7.76 0,5 Z"
       copytype="single_stretched"
       prop_scale="1"
       scale_y_rel="false"
       spacing="0"
       normal_offset="0"
       tang_offset="0"
       prop_units="false"
       vertical_pattern="false"
       fuse_tolerance="0" />
    <inkscape:path-effect
       effect="bspline"
       id="path-effect4529"
       is_visible="true"
       weight="33.333333"
       steps="2"
       helper_size="0"
       apply_no_weight="true"
       apply_with_weight="true"
       only_selected="false" />
    <inkscape:path-effect
       effect="skeletal"
       id="path-effect4525"
       is_visible="true"
       pattern="M 0,5 C 0,2.24 2.24,0 5,0 7.76,0 10,2.24 10,5 10,7.76 7.76,10 5,10 2.24,10 0,7.76 0,5 Z"
       copytype="single_stretched"
       prop_scale="1"
       scale_y_rel="false"
       spacing="0"
       normal_offset="0"
       tang_offset="0"
       prop_units="false"
       vertical_pattern="false"
       fuse_tolerance="0" />
    <inkscape:path-effect
       effect="bspline"
       id="path-effect4523"
       is_visible="true"
       weight="33.333333"
       steps="2"
       helper_size="0"
       apply_no_weight="true"
       apply_with_weight="true"
       only_selected="false" />
    <inkscape:path-effect
       effect="bspline"
       id="path-effect4519"
       is_visible="true"
       weight="33.333333"
       steps="2"
       helper_size="0"
       apply_no_weight="true"
       apply_with_weight="true"
       only_selected="false" />
    <linearGradient
       inkscape:collect="always"
       id="linearGradient4752">
      <stop
         style="stop-color:#888a85;stop-opacity:1;"
         offset="0"
         id="stop4748" />
      <stop
         style="stop-color:#888a85;stop-opacity:0;"
         offset="1"
         id="stop4750" />
    </linearGradient>
    <pattern
       inkscape:isstock="true"
       inkscape:stockid="Stripes 1:1"
       id="Strips1_1"
       patternTransform="translate(0,0) scale(10,10)"
       height="1"
       width="2"
       patternUnits="userSpaceOnUse"
       inkscape:collect="always">
      <rect
         id="rect5447"
         height="2"
         width="1"
         y="-0.5"
         x="0"
         style="fill:black;stroke:none" />
    </pattern>
    <linearGradient
       id="linearGradient4727"
       osb:paint="solid">
      <stop
         style="stop-color:#ce5c00;stop-opacity:1;"
         offset="0"
         id="stop4725" />
    </linearGradient>
    <pattern
       patternUnits="userSpaceOnUse"
       width="55"
       height="90"
       patternTransform="translate(-60,50.5)"
       id="pattern6214">
      <g
         style="fill:url(#Strips1_1);fill-opacity:1"
         transform="translate(-15,-28.5)"
         id="g4691">
        <rect
           style="opacity:0.81499999;fill:url(#Strips1_1);fill-opacity:1;stroke:none;stroke-width:4.52699995;stroke-linecap:round;stroke-linejoin:bevel;stroke-miterlimit:17.60000038;stroke-dasharray:none;stroke-dashoffset:0;stroke-opacity:1;paint-order:stroke fill markers"
           id="rect4683"
           width="30"
           height="30"
           x="40"
           y="59"
           ry="7.9000001" />
        <path
           inkscape:connector-curvature="0"
           style="opacity:0.81499999;fill:url(#Strips1_1);fill-opacity:1;stroke:none;stroke-width:8.60130024;stroke-linecap:round;stroke-linejoin:bevel;stroke-miterlimit:17.60000038;stroke-dasharray:none;stroke-dashoffset:0;stroke-opacity:1;paint-order:stroke fill markers"
           d="m 15,28.5 v 90 l 45,-45 z"
           id="path4687" />
      </g>
    </pattern>
    <linearGradient
       inkscape:collect="always"
       xlink:href="#linearGradient4752"
       id="linearGradient4754"
       x1="11.826138"
       y1="245.7171"
       x2="149.78668"
       y2="106.13758"
       gradientUnits="userSpaceOnUse"
       gradientTransform="matrix(0.95425703,0,0,0.95425703,5.390281,5.594659)" />
    <linearGradient
       inkscape:collect="always"
       xlink:href="#linearGradient4560"
       id="linearGradient4562"
       x1="-11.593207"
       y1="128.66191"
       x2="268.93854"
       y2="128.66191"
       gradientUnits="userSpaceOnUse"
       gradientTransform="matrix(0.49602862,-0.00361488,0.00361488,0.48879887,24.786346,29.27933)" />
    <linearGradient
       inkscape:collect="always"
       id="linearGradient4560">
      <stop
         style="stop-color:#380000;stop-opacity:1;"
         offset="0"
         id="stop4556" />
      <stop
         style="stop-color:#380000;stop-opacity:0;"
         offset="1"
         id="stop4558" />
    </linearGradient>
    <linearGradient
       inkscape:collect="always"
       xlink:href="#linearGradient857"
       id="linearGradient859"
       x1="125"
       y1="206"
       x2="125"
       y2="1"
       gradientUnits="userSpaceOnUse" />
  </defs>
  <metadata
     id="metadata4488">
    <rdf:RDF>
      <cc:Work
         rdf:about="">
        <dc:format>image/svg+xml</dc:format>
        <dc:type
           rdf:resource="http://purl.org/dc/dcmitype/StillImage" />
        <dc:title />
      </cc:Work>
    </rdf:RDF>
  </metadata>
  <g
     inkscape:groupmode="layer"
     id="layer3"
     inkscape:label="sfondo"
     style="display:none">
    <rect
       style="display:inline;opacity:1;fill:#2e3436;fill-opacity:1;stroke:none;stroke-width:8.07619572;stroke-linecap:round;stroke-linejoin:bevel;stroke-miterlimit:17.60000038;stroke-dasharray:none;stroke-dashoffset:0;stroke-opacity:0.97647059;paint-order:stroke fill markers"
       id="rect4568-3"
       width="256.07193"
       height="256.07193"
       x="-0.324543"
       y="1"
       ry="26.129787" />
  </g>
  <g
     inkscape:groupmode="layer"
     id="layer1"
     inkscape:label="preset"
     style="display:inline">
    <path
       inkscape:connector-curvature="0"
       id="path978"
       d="M 97.096543,45.699999 97.771683,207 H 154.4288 L 153.75514,45.699999 Z"
       style="display:inline;opacity:0.106;fill:url(#linearGradient859);fill-opacity:1;stroke:none;stroke-width:6.03731918;stroke-linecap:round;stroke-linejoin:bevel;stroke-miterlimit:17.60000038;stroke-dasharray:none;stroke-dashoffset:0;stroke-opacity:0.97647059;paint-order:stroke fill markers" />
    <path
       style="display:inline;opacity:1;fill:url(#linearGradient4562);fill-opacity:1;stroke:none;stroke-width:0.64012319"
       d="M 431.27322,-1.1574823 328.84738,102.85416 365.32172,139.54897 467.51057,35.778941 Z"
       id="rect5216"
       inkscape:connector-curvature="0" />
    <path
       style="display:inline;opacity:1;fill:#eeeeec;fill-opacity:1;fill-rule:nonzero;stroke:none;stroke-width:7.7310667;stroke-linecap:square;stroke-linejoin:round;stroke-miterlimit:4;stroke-dasharray:none;stroke-dashoffset:0;stroke-opacity:1;paint-order:stroke fill markers"
       d="m 42.649369,10.57855 v 0.307151 h -0.028 v 63.654628 a 26.047106,20.374386 0 0 0 -9.4063,-1.39926 26.047106,20.374386 0 0 0 -26.04612,20.374509 26.047106,20.374386 0 0 0 26.04612,20.374492 26.047106,20.374386 0 0 0 26.04614,-20.374492 26.047106,20.374386 0 0 0 -0.50931,-3.919043 V 30.953021 h 17.37347 V 10.57855 Z"
       id="path906"
       inkscape:connector-curvature="0" />
    <path
       inkscape:connector-curvature="0"
       id="path852"
       d="m 214.64937,141.70392 v 0.30715 h -0.028 v 63.65463 a 26.047106,20.374386 0 0 0 -9.4063,-1.39926 26.047106,20.374386 0 0 0 -26.04612,20.37451 26.047106,20.374386 0 0 0 26.04612,20.37448 26.047106,20.374386 0 0 0 26.04614,-20.37448 26.047106,20.374386 0 0 0 -0.50931,-3.91904 v -58.64352 h 17.37347 v -20.37447 z"
       style="display:inline;opacity:1;fill:#eeeeec;fill-opacity:1;fill-rule:nonzero;stroke:none;stroke-width:7.7310667;stroke-linecap:square;stroke-linejoin:round;stroke-miterlimit:4;stroke-dasharray:none;stroke-dashoffset:0;stroke-opacity:1;paint-order:stroke fill markers" />
    <path
       style="display:inline;opacity:1;fill:#eeeeec;fill-opacity:1;stroke:none;stroke-width:5.49563646;stroke-linecap:round;stroke-linejoin:bevel;stroke-miterlimit:17.60000038;stroke-dasharray:none;stroke-dashoffset:0;stroke-opacity:0.97647059;paint-order:stroke fill markers"
       d="m 77.375123,45.612907 v 125.259763 3.87696 32.24804 h 23.589837 c -0.0323,-0.26961 -0.0508,-0.5424 -0.0508,-0.82031 V 184.3922 c 0,-2.01161 0.86961,-3.82629 2.27539,-5.13867 1.40578,-1.31239 3.34943,-2.125 5.50391,-2.125 v 0.002 h 35.00195 c 4.30894,-1e-5 7.77735,3.2385 7.77735,7.26172 v 21.78516 c 0,0.27791 -0.0185,0.5507 -0.0508,0.82031 h 24.03515 v -30.8477 -5.27735 -125.259763 h -23.98437 v 19.619141 c 0,4.023222 -3.47035,7.26368 -7.7793,7.263672 h -35 c -4.30894,0 -7.7793,-3.240457 -7.7793,-7.263672 V 45.612907 Z m 90.593747,5.103516 c 1.23261,0 2.22461,0.927253 2.22461,2.078125 v 6.232422 c 0,1.150864 -0.99201,2.076172 -2.22461,2.076172 h -10.01172 c -1.23261,0 -2.22462,-0.925293 -2.22461,-2.076172 v -6.234375 c 0,-0.575443 0.24816,-1.093465 0.65039,-1.46875 0.40224,-0.375278 0.95792,-0.605469 1.57422,-0.605469 z m -83.769527,0.002 h 10.01367 c 1.23261,8e-6 2.22461,0.925286 2.22461,2.076172 v 6.232422 c 0,1.150872 -0.99199,2.078125 -2.22461,2.078125 h -10.01367 c -1.23263,8e-6 -2.22266,-0.927253 -2.22266,-2.078125 v -6.232422 c -10e-6,-0.575436 0.24619,-1.095425 0.64844,-1.470703 0.40224,-0.375293 0.95791,-0.605469 1.57422,-0.605469 z m 0.002,15.691406 h 10.00977 c 1.2326,0 2.22656,0.925301 2.22656,2.076172 v 6.232422 c -1e-5,1.150871 -0.99202,2.078125 -2.22461,2.078125 h -10.01172 c -1.23262,0 -2.22655,-0.925293 -2.22656,-2.076172 v -6.234375 c -1e-5,-0.575435 0.24815,-1.091511 0.65039,-1.466797 v -0.002 c 0.40224,-0.375285 0.95987,-0.607422 1.57617,-0.607422 z m 73.755857,0.002 h 10.01172 c 1.23261,8e-6 2.22656,0.925301 2.22656,2.076172 l 0.002,6.232422 c 0,1.150872 -0.9959,2.076172 -2.22851,2.076172 l -10.01172,0.002 c -1.23261,-8e-6 -2.22265,-0.927254 -2.22266,-2.078125 l -0.002,-6.232422 c 0,-0.575428 0.24816,-1.095417 0.65039,-1.470703 0.40223,-0.375277 0.95792,-0.605469 1.57422,-0.605469 z m 0,15.691407 h 10.01172 c 1.23261,0 2.22656,0.925309 2.22656,2.076171 v 6.234376 c 0,1.15088 -0.99395,2.076171 -2.22656,2.076171 H 157.9572 c -1.23261,0 -2.22266,-0.9253 -2.22266,-2.076171 v -6.234376 c 0,-0.575027 0.24671,-1.093519 0.64844,-1.46875 0.40224,-0.37527 0.95793,-0.607421 1.57422,-0.607421 z m -73.755857,0.002 h 10.00977 c 1.2326,0 2.22655,0.923349 2.22656,2.074218 v 6.234376 c 0,1.150869 -0.99394,2.076171 -2.22656,2.076171 h -10.00977 c -1.23262,0 -2.22656,-0.925293 -2.22656,-2.076171 v -6.234376 c -1e-5,-0.575428 0.24814,-1.093456 0.65039,-1.46875 0.40224,-0.375269 0.95987,-0.605476 1.57617,-0.605468 z m 59.492137,1.160015 c 4.30896,0 7.7793,3.236538 7.7793,7.259766 v 21.787113 c 0,4.0232 -3.47035,7.26367 -7.7793,7.26367 h -35 c -4.30894,1e-5 -7.77734,-3.2385 -7.77734,-7.26172 l -0.002,-21.789063 c -1e-5,-2.011611 0.86961,-3.826295 2.27539,-5.138672 1.4058,-1.312362 3.34943,-2.119141 5.50391,-2.119141 z m -49.480467,14.53125 c 1.23261,0 2.22461,0.927249 2.22461,2.078129 v 6.23242 c 0,1.15089 -0.992,2.07422 -2.22461,2.07422 l -10.01172,0.002 c -1.23262,0 -2.22461,-0.92725 -2.22461,-2.07813 l -0.002,-6.23046 c 1e-5,-0.57543 0.24816,-1.09542 0.65039,-1.47071 0.40224,-0.37527 0.95986,-0.605469 1.57617,-0.605469 z m 63.744137,0 10.01172,0.002 c 1.2326,0 2.22656,0.925309 2.22656,2.076179 l -0.002,6.23046 c 0,1.15087 -0.99003,2.07813 -2.22265,2.07813 l -10.01172,-0.002 c -1.23263,0 -2.22656,-0.92529 -2.22656,-2.07618 l 0.002,-6.23046 c 0,-0.57546 0.24619,-1.09541 0.64843,-1.47071 0.40224,-0.37527 0.9579,-0.607419 1.57422,-0.607419 z m 10.01172,15.693359 c 1.2326,-10e-6 2.22657,0.92726 2.22656,2.07812 v 6.23243 c -10e-6,1.15088 -0.99396,2.07616 -2.22656,2.07617 h -10.01172 c -1.23263,0 -2.22461,-0.9253 -2.22461,-2.07617 v -6.23243 c 1e-5,-0.57543 0.24816,-1.09541 0.65039,-1.4707 0.40224,-0.37527 0.95791,-0.60547 1.57422,-0.60547 z m -83.769527,0.002 h 0.002 10.01172 c 1.23261,1e-5 2.22461,0.9253 2.22461,2.07617 v 6.23047 c 0,1.15088 -0.99201,2.07813 -2.22461,2.07813 h -10.01367 c -1.23262,0 -2.2246,-0.92725 -2.22461,-2.07813 l 0.002,-6.23242 c -2e-5,-0.57544 0.24817,-1.09346 0.65039,-1.46875 0.40182,-0.37488 0.95674,-0.60497 1.57227,-0.60547 z m 0.002,15.69141 10.01172,0.002 c 1.2326,0 2.2246,0.92335 2.22461,2.07422 v 6.23242 c 0,1.15088 -0.99201,2.07813 -2.22461,2.07813 l -10.01172,-0.002 c -1.23263,0 -2.22657,-0.9253 -2.22656,-2.07617 v -6.23242 c 0,-0.57543 0.24816,-1.09346 0.65039,-1.46875 0.40221,-0.37527 0.95985,-0.60742 1.57617,-0.60742 z m 83.769527,0 c 1.23261,0 2.22461,0.92726 2.22461,2.07812 v 6.23047 c 0,1.15088 -0.992,2.07617 -2.22461,2.07617 l -10.01367,0.002 c -1.23262,0 -2.22461,-0.92724 -2.22461,-2.07813 v -6.23047 c 0,-0.57543 0.25012,-1.09542 0.65235,-1.4707 0.40224,-0.37528 0.95596,-0.60547 1.57226,-0.60547 z m -59.27539,1.16211 35,0.002 c 4.30896,0 7.77735,3.23654 7.77735,7.25977 v 21.78711 c 0,4.02322 -3.46841,7.26171 -7.77735,7.26171 l -35,0.002 c -4.30894,0 -7.77734,-3.24241 -7.77734,-7.26563 v -21.78711 c 0,-2.01123 0.86617,-3.82634 2.27148,-5.13867 1.4058,-1.31236 3.35137,-2.1211 5.50586,-2.12109 z m -24.494137,14.53125 h 10.01172 c 1.23261,0 2.22461,0.9253 2.22461,2.07617 v 6.23438 c 0,1.15089 -0.992,2.07421 -2.22461,2.07421 h -10.01172 c -1.23262,-1e-5 -2.22655,-0.92333 -2.22656,-2.07421 v -6.23438 c 0,-0.57543 0.24816,-1.09345 0.65039,-1.46875 0.40224,-0.37527 0.95987,-0.60742 1.57617,-0.60742 z m 73.755857,0 h 10.01172 c 1.23261,-1e-5 2.22656,0.92531 2.22656,2.07617 v 6.23438 c 0,1.15088 -0.99395,2.0742 -2.22656,2.07421 l -10.01172,0.002 c -1.2326,0 -2.22267,-0.92727 -2.22266,-2.07813 v -6.23242 c 1e-5,-0.57503 0.24671,-1.09352 0.64844,-1.46875 0.40224,-0.37527 0.95793,-0.60547 1.57422,-0.60547 z m -73.755857,15.69336 h 10.01172 c 1.23261,0 2.22461,0.92724 2.22461,2.07812 v 6.23242 c 0,0.95959 -0.69318,1.75406 -1.63672,1.99415 h -11.1914 c -0.94185,-0.2419 -1.63477,-1.03615 -1.63477,-1.99415 v -6.23242 c 1e-5,-0.57544 0.24815,-1.09543 0.65039,-1.4707 0.40224,-0.37527 0.95987,-0.60742 1.57617,-0.60742 z m 73.755857,0 10.01172,0.002 c 1.2326,1e-5 2.22656,0.92335 2.22656,2.07422 l -0.002,6.23242 c 0,0.95801 -0.69133,1.75383 -1.63281,1.9961 h -11.18945 c -0.94389,-0.24044 -1.63867,-1.03651 -1.63867,-1.9961 l 0.002,-6.23047 c 0,-0.57544 0.2462,-1.09543 0.64843,-1.4707 0.40224,-0.37531 0.95791,-0.60742 1.57422,-0.60742 z m -74.664057,15.58008 h 11.82812 c 0.77638,0.32367 1.31641,1.04843 1.31641,1.89648 l 0.002,6.23242 c -1e-5,1.15088 -0.99396,2.07422 -2.22656,2.07422 h -10.01367 c -1.23262,-1e-5 -2.22266,-0.92335 -2.22266,-2.07422 l -0.002,-6.23242 c 0,-0.57544 0.24816,-1.09737 0.65039,-1.47266 0.19052,-0.17776 0.41852,-0.31987 0.66797,-0.42382 z m 73.757807,0 h 11.82227 c 0.7785,0.32215 1.32226,1.04535 1.32226,1.89453 v 6.23437 c 0,1.15088 -0.99396,2.07616 -2.22656,2.07617 l -10.01172,-0.002 c -1.23261,0 -2.2246,-0.92334 -2.22461,-2.07422 v -6.23437 c 0,-0.57543 0.2462,-1.09542 0.64844,-1.47071 0.19056,-0.17779 0.42007,-0.31987 0.66992,-0.42382 z m 0.90625,15.51171 h 10.01172 c 1.23261,0 2.22656,0.92725 2.22656,2.07813 v 6.23242 c 0,1.15086 -0.99396,2.07422 -2.22656,2.07422 H 157.9572 c -1.23261,0 -2.22462,-0.92335 -2.22461,-2.07422 v -6.23437 c 0,-0.57544 0.24816,-1.09543 0.65039,-1.47071 0.40224,-0.37529 0.95792,-0.60547 1.57422,-0.60547 z m -73.757807,0.002 h 10.01367 c 1.23261,1e-5 2.22461,0.92529 2.22461,2.07617 v 6.23047 c 0,1.15087 -0.99199,2.07812 -2.22461,2.07812 h -10.01367 c -1.23263,0 -2.22266,-0.92724 -2.22266,-2.07812 v -6.23047 c -10e-6,-0.57544 0.24619,-1.09543 0.64844,-1.4707 0.40224,-0.3753 0.95791,-0.60547 1.57422,-0.60547 z"
       id="path950"
       inkscape:connector-curvature="0" />
  </g>
  <g
     style="display:none"
     inkscape:label="sfondo copia"
     id="g4738"
     inkscape:groupmode="layer">
    <rect
       ry="22.6604"
       y="18"
       x="16.675457"
       height="222.07193"
       width="222.07193"
       id="rect4736"
       style="display:inline;opacity:1;fill:url(#linearGradient4754);fill-opacity:1;stroke:none;stroke-width:7.00387716;stroke-linecap:round;stroke-linejoin:bevel;stroke-miterlimit:17.60000038;stroke-dasharray:none;stroke-dashoffset:0;stroke-opacity:0.97647059;paint-order:stroke fill markers" />
  </g>
</svg>
