<?xml version="1.0" encoding="UTF-8" standalone="no"?>
<!-- Created with Inkscape (http://www.inkscape.org/) -->

<svg
   xmlns:osb="http://www.openswatchbook.org/uri/2009/osb"
   xmlns:dc="http://purl.org/dc/elements/1.1/"
   xmlns:cc="http://creativecommons.org/ns#"
   xmlns:rdf="http://www.w3.org/1999/02/22-rdf-syntax-ns#"
   xmlns:svg="http://www.w3.org/2000/svg"
   xmlns="http://www.w3.org/2000/svg"
   xmlns:xlink="http://www.w3.org/1999/xlink"
   xmlns:sodipodi="http://sodipodi.sourceforge.net/DTD/sodipodi-0.dtd"
   xmlns:inkscape="http://www.inkscape.org/namespaces/inkscape"
   width="256px"
   height="256px"
   viewBox="0 0 256 256"
   version="1.1"
   id="SVGRoot"
   sodipodi:docname="videomass2_nuovo.svg"
   inkscape:version="0.92.4 (5da689c313, 2019-01-14)"
   enable-background="new">
  <sodipodi:namedview
     id="base"
     pagecolor="#ffffff"
     bordercolor="#666666"
     borderopacity="1.0"
     inkscape:pageopacity="0.0"
     inkscape:pageshadow="2"
     inkscape:zoom="2.32"
     inkscape:cx="82.258621"
     inkscape:cy="109.94539"
     inkscape:document-units="px"
     inkscape:current-layer="layer2"
     showgrid="true"
     inkscape:window-width="1920"
     inkscape:window-height="1021"
     inkscape:window-x="0"
     inkscape:window-y="31"
     inkscape:window-maximized="1"
     inkscape:grid-bbox="true"
     inkscape:measure-start="110,130"
     inkscape:measure-end="0,0"
     showguides="true">
    <inkscape:grid
       type="xygrid"
       id="grid5114" />
  </sodipodi:namedview>
  <defs
     id="defs4485">
    <inkscape:path-effect
       effect="bspline"
       id="path-effect4551"
       is_visible="true"
       weight="33.333333"
       steps="2"
       helper_size="0"
       apply_no_weight="true"
       apply_with_weight="true"
       only_selected="false" />
    <inkscape:path-effect
       effect="skeletal"
       id="path-effect4547"
       is_visible="true"
       pattern="M 0,5 C 0,2.24 2.24,0 5,0 7.76,0 10,2.24 10,5 10,7.76 7.76,10 5,10 2.24,10 0,7.76 0,5 Z"
       copytype="single_stretched"
       prop_scale="1"
       scale_y_rel="false"
       spacing="0"
       normal_offset="0"
       tang_offset="0"
       prop_units="false"
       vertical_pattern="false"
       fuse_tolerance="0" />
    <inkscape:path-effect
       effect="bspline"
       id="path-effect4545"
       is_visible="true"
       weight="33.333333"
       steps="2"
       helper_size="0"
       apply_no_weight="true"
       apply_with_weight="true"
       only_selected="false" />
    <inkscape:path-effect
       effect="skeletal"
       id="path-effect4541"
       is_visible="true"
       pattern="M 0,5 C 0,2.24 2.24,0 5,0 7.76,0 10,2.24 10,5 10,7.76 7.76,10 5,10 2.24,10 0,7.76 0,5 Z"
       copytype="single_stretched"
       prop_scale="1"
       scale_y_rel="false"
       spacing="0"
       normal_offset="0"
       tang_offset="0"
       prop_units="false"
       vertical_pattern="false"
       fuse_tolerance="0" />
    <inkscape:path-effect
       effect="spiro"
       id="path-effect4539"
       is_visible="true" />
    <inkscape:path-effect
       effect="bspline"
       id="path-effect4535"
       is_visible="true"
       weight="33.333333"
       steps="2"
       helper_size="0"
       apply_no_weight="true"
       apply_with_weight="true"
       only_selected="false" />
    <inkscape:path-effect
       effect="skeletal"
       id="path-effect4531"
       is_visible="true"
       pattern="M 0,5 C 0,2.24 2.24,0 5,0 7.76,0 10,2.24 10,5 10,7.76 7.76,10 5,10 2.24,10 0,7.76 0,5 Z"
       copytype="single_stretched"
       prop_scale="1"
       scale_y_rel="false"
       spacing="0"
       normal_offset="0"
       tang_offset="0"
       prop_units="false"
       vertical_pattern="false"
       fuse_tolerance="0" />
    <inkscape:path-effect
       effect="bspline"
       id="path-effect4529"
       is_visible="true"
       weight="33.333333"
       steps="2"
       helper_size="0"
       apply_no_weight="true"
       apply_with_weight="true"
       only_selected="false" />
    <inkscape:path-effect
       effect="skeletal"
       id="path-effect4525"
       is_visible="true"
       pattern="M 0,5 C 0,2.24 2.24,0 5,0 7.76,0 10,2.24 10,5 10,7.76 7.76,10 5,10 2.24,10 0,7.76 0,5 Z"
       copytype="single_stretched"
       prop_scale="1"
       scale_y_rel="false"
       spacing="0"
       normal_offset="0"
       tang_offset="0"
       prop_units="false"
       vertical_pattern="false"
       fuse_tolerance="0" />
    <inkscape:path-effect
       effect="bspline"
       id="path-effect4523"
       is_visible="true"
       weight="33.333333"
       steps="2"
       helper_size="0"
       apply_no_weight="true"
       apply_with_weight="true"
       only_selected="false" />
    <inkscape:path-effect
       effect="bspline"
       id="path-effect4519"
       is_visible="true"
       weight="33.333333"
       steps="2"
       helper_size="0"
       apply_no_weight="true"
       apply_with_weight="true"
       only_selected="false" />
    <linearGradient
       inkscape:collect="always"
       id="linearGradient4752">
      <stop
         style="stop-color:#888a85;stop-opacity:1;"
         offset="0"
         id="stop4748" />
      <stop
         style="stop-color:#888a85;stop-opacity:0;"
         offset="1"
         id="stop4750" />
    </linearGradient>
    <linearGradient
       inkscape:collect="always"
       id="linearGradient4560">
      <stop
         style="stop-color:#380000;stop-opacity:1;"
         offset="0"
         id="stop4556" />
      <stop
         style="stop-color:#380000;stop-opacity:0;"
         offset="1"
         id="stop4558" />
    </linearGradient>
    <pattern
       inkscape:isstock="true"
       inkscape:stockid="Stripes 1:1"
       id="Strips1_1"
       patternTransform="translate(0,0) scale(10,10)"
       height="1"
       width="2"
       patternUnits="userSpaceOnUse"
       inkscape:collect="always">
      <rect
         id="rect5447"
         height="2"
         width="1"
         y="-0.5"
         x="0"
         style="fill:black;stroke:none" />
    </pattern>
    <linearGradient
       id="linearGradient4727"
       osb:paint="solid">
      <stop
         style="stop-color:#ce5c00;stop-opacity:1;"
         offset="0"
         id="stop4725" />
    </linearGradient>
    <pattern
       patternUnits="userSpaceOnUse"
       width="55"
       height="90"
       patternTransform="translate(-60,50.5)"
       id="pattern6214">
      <g
         style="fill:url(#Strips1_1);fill-opacity:1"
         transform="translate(-15,-28.5)"
         id="g4691">
        <rect
           style="opacity:0.81499999;fill:url(#Strips1_1);fill-opacity:1;stroke:none;stroke-width:4.52699995;stroke-linecap:round;stroke-linejoin:bevel;stroke-miterlimit:17.60000038;stroke-dasharray:none;stroke-dashoffset:0;stroke-opacity:1;paint-order:stroke fill markers"
           id="rect4683"
           width="30"
           height="30"
           x="40"
           y="59"
           ry="7.9000001" />
        <path
           inkscape:connector-curvature="0"
           style="opacity:0.81499999;fill:url(#Strips1_1);fill-opacity:1;stroke:none;stroke-width:8.60130024;stroke-linecap:round;stroke-linejoin:bevel;stroke-miterlimit:17.60000038;stroke-dasharray:none;stroke-dashoffset:0;stroke-opacity:1;paint-order:stroke fill markers"
           d="m 15,28.5 v 90 l 45,-45 z"
           id="path4687" />
      </g>
    </pattern>
    <linearGradient
       inkscape:collect="always"
       xlink:href="#linearGradient4560"
       id="linearGradient4562"
       x1="-11.593207"
       y1="128.66191"
       x2="268.93853"
       y2="128.66191"
       gradientUnits="userSpaceOnUse"
       gradientTransform="matrix(0.71298502,0,0,0.71298502,36.017528,37.299897)" />
    <linearGradient
       inkscape:collect="always"
       xlink:href="#linearGradient4752"
       id="linearGradient4754"
       x1="11.826138"
       y1="245.7171"
       x2="149.78668"
       y2="106.13758"
       gradientUnits="userSpaceOnUse"
       gradientTransform="matrix(0.95425703,0,0,0.95425703,5.390281,5.594659)" />
  </defs>
  <metadata
     id="metadata4488">
    <rdf:RDF>
      <cc:Work
         rdf:about="">
        <dc:format>image/svg+xml</dc:format>
        <dc:type
           rdf:resource="http://purl.org/dc/dcmitype/StillImage" />
        <dc:title></dc:title>
      </cc:Work>
    </rdf:RDF>
  </metadata>
  <g
     inkscape:groupmode="layer"
     id="layer3"
     inkscape:label="sfondo"
     style="display:inline">
    <rect
       style="display:inline;opacity:1;fill:#eeeeec;fill-opacity:1;stroke:none;stroke-width:2.40400004;stroke-linecap:round;stroke-linejoin:bevel;stroke-miterlimit:17.60000038;stroke-dasharray:none;stroke-dashoffset:0;stroke-opacity:0.97647059;paint-order:stroke fill markers"
       id="rect4568-3"
       width="222.07193"
       height="222.07193"
       x="16.675457"
       y="18"
       ry="22.6604" />
  </g>
  <g
     style="display:inline"
     inkscape:label="sfondo copia"
     id="g4738"
     inkscape:groupmode="layer">
    <rect
       ry="22.6604"
       y="18"
       x="16.675457"
       height="222.07193"
       width="222.07193"
       id="rect4736"
       style="display:inline;opacity:1;fill:url(#linearGradient4754);fill-opacity:1;stroke:none;stroke-width:7.00387716;stroke-linecap:round;stroke-linejoin:bevel;stroke-miterlimit:17.60000038;stroke-dasharray:none;stroke-dashoffset:0;stroke-opacity:0.97647059;paint-order:stroke fill markers" />
  </g>
  <g
     id="layer1"
     inkscape:groupmode="layer"
     inkscape:label="film strip"
     style="display:inline;opacity:1">
    <path
       style="opacity:1;fill:url(#linearGradient4562);fill-opacity:1;stroke:none;stroke-width:0.92685938"
       d="M 176.07499,26.769418 27.751745,177.38883 79.786638,231.2984 227.76666,81.02893 Z"
       id="rect5216"
       inkscape:connector-curvature="0" />
    <path
       style="fill:#180000;fill-opacity:0.8835983;stroke:none;stroke-width:0.9403196"
       d="M 158.98306,9.257678 11.122102,159.40624 31.87205,181.06329 c 0.557989,-1.74236 1.509945,-3.38188 2.871073,-4.76408 L 51.252172,159.5351 c 4.572926,-4.64372 11.888858,-4.59574 16.402369,0.10975 l 30.058889,31.33311 c 4.51356,4.70482 4.46433,12.2302 -0.10821,16.87388 l -16.509053,16.76413 c -1.374218,1.39549 -2.995909,2.3598 -4.714002,2.90616 L 97.14912,249.19666 244.72871,99.33282 222.23478,75.704939 c 0.12822,3.298957 -1.03492,6.638198 -3.50959,9.151147 l -16.84611,17.107724 c -4.66629,4.73847 -12.12915,4.68791 -16.73476,-0.11295 L 155.41781,70.864516 c -4.60564,-4.800841 -4.55804,-12.478995 0.10823,-17.217465 l 16.84609,-17.107709 c 2.56083,-2.600444 5.9635,-3.748539 9.27493,-3.470852 z m 1.87696,6.906711 c 1.20992,0.0081 2.41683,0.492116 3.33797,1.452285 l 6.59251,6.873309 c 1.84224,1.920336 1.82328,4.992233 -0.0433,6.887621 l -3.36892,3.423133 c -1.86649,1.895385 -4.85382,1.874198 -6.69606,-0.04613 l -6.59251,-6.873304 c -1.84225,-1.920339 -1.8232,-4.990644 0.0433,-6.886033 l 3.36891,-3.421542 c 0.93326,-0.947694 2.14818,-1.417477 3.3581,-1.409339 z m -13.47719,13.686166 c 1.20991,0.0081 2.41686,0.493708 3.33798,1.453875 l 6.59249,6.871718 c 1.84224,1.920333 1.82175,4.992232 -0.0447,6.88762 l -3.36737,3.419951 c -1.86653,1.89539 -4.85228,1.875801 -6.69454,-0.04453 l -6.59253,-6.873304 c -1.84223,-1.920341 -1.82171,-4.992235 0.0447,-6.887624 l 3.36888,-3.419951 c 0.93328,-0.947693 2.14509,-1.415887 3.35502,-1.407747 z m -13.47719,13.684576 c 1.20992,0.0081 2.41686,0.493708 3.33799,1.453876 l 6.5925,6.873307 c 1.84224,1.920335 1.82476,4.99064 -0.0418,6.886032 l -3.36893,3.421542 c -1.86651,1.895392 -4.85383,1.875801 -6.69608,-0.04454 l -6.59244,-6.87331 c -1.84226,-1.920341 -1.82172,-4.990646 0.0447,-6.88603 l 3.36892,-3.423133 c 0.93326,-0.947695 2.14509,-1.415887 3.35501,-1.407749 z m -13.47565,13.684576 c 1.20946,0.0078 2.41866,0.494791 3.33956,1.453876 l 6.59093,6.871717 c 1.84225,1.92034 1.82256,4.992223 -0.0432,6.887622 l -3.36892,3.423132 c -1.8665,1.895381 -4.85227,1.874205 -6.69453,-0.04613 l -6.59248,-6.873311 c -1.84223,-1.920332 -1.82477,-4.990647 0.0418,-6.886031 l 3.36891,-3.423133 c 0.93326,-0.947696 2.14785,-1.415602 3.35809,-1.407746 z m -13.47715,13.684577 c 1.20988,0.0082 2.41684,0.493704 3.33796,1.453874 l 6.59251,6.873307 c 1.84226,1.92033 1.82483,4.990618 -0.0417,6.886032 l -3.36892,3.421537 c -1.86653,1.895397 -4.85385,1.87679 -6.69609,-0.04294 l -6.59251,-6.873309 c -1.84227,-1.920329 -1.82129,-4.992234 0.0449,-6.887617 l 3.36892,-3.421533 c 0.93326,-0.947707 2.1451,-1.417479 3.35501,-1.409339 z m 33.38141,3.170213 c 3.02511,0.02035 6.04296,1.232681 8.34575,3.633102 l 29.72494,30.986361 c 4.60562,4.80082 4.55649,12.47899 -0.10976,17.21746 l -16.84455,17.10771 c -4.66627,4.73846 -12.13072,4.68789 -16.73634,-0.11294 l -29.72495,-30.98636 c -4.60561,-4.80083 -4.55801,-12.479 0.10825,-17.21747 l 16.84454,-17.107698 c 2.33313,-2.369235 5.36701,-3.540513 8.39212,-3.520165 z M 93.47563,84.590452 c 1.20992,0.0078 2.41843,0.493703 3.33954,1.453872 l 6.59247,6.873316 c 1.84227,1.92033 1.82331,4.99063 -0.0431,6.88603 l -3.36892,3.42154 c -1.86651,1.8954 -4.85227,1.8742 -6.69453,-0.0461 l -6.592484,-6.87172 c -1.842246,-1.92036 -1.824752,-4.99223 0.04176,-6.887628 l 3.368904,-3.421546 c 0.93327,-0.947694 2.14663,-1.415877 3.35654,-1.407743 z m 133.60302,0.598086 c 1.20992,0.0078 2.41533,0.493714 3.33645,1.453883 l 6.59403,6.873319 c 1.84223,1.92033 1.82175,4.99062 -0.0447,6.88602 l -3.36891,3.42313 c -1.86648,1.89539 -4.85228,1.87585 -6.69452,-0.0446 l -6.5941,-6.87328 c -1.84225,-1.92033 -1.82175,-4.990648 0.0447,-6.886033 l 3.37047,-3.42472 c 0.93324,-0.947693 2.14664,-1.415886 3.35653,-1.407755 z M 80,98.27503 c 1.210237,0.007 2.418405,0.49241 3.33953,1.45228 l 6.592501,6.87331 c 1.842249,1.92035 1.821279,4.99382 -0.04483,6.88924 l -3.368913,3.41994 c -1.866505,1.89537 -4.852271,1.87576 -6.694529,-0.0446 l -6.592484,-6.87323 c -1.842246,-1.92037 -1.821671,-4.99063 0.04483,-6.88604 l 3.368912,-3.42155 c 0.93325,-0.94769 2.14475,-1.41706 3.354987,-1.40933 z m 133.60147,0.59969 c 1.20991,0.007 2.4153,0.4921 3.33644,1.45228 l 6.59403,6.87331 c 1.84226,1.92033 1.82324,4.99224 -0.0433,6.88762 l -3.36889,3.42154 c -1.86651,1.89535 -4.85227,1.87427 -6.69455,-0.046 l -6.594,-6.87177 c -1.84224,-1.92033 -1.82173,-4.99224 0.0447,-6.88762 l 3.36892,-3.41995 c 0.93327,-0.94769 2.14663,-1.41749 3.35656,-1.40934 z M 66.52281,111.9596 c 1.209915,0.007 2.418412,0.49376 3.339535,1.45388 l 6.592485,6.8733 c 1.84225,1.92033 1.823213,4.99064 -0.04327,6.88604 l -3.370455,3.42313 c -1.866498,1.89538 -4.852281,1.87429 -6.694532,-0.0459 l -6.592486,-6.8718 c -1.842253,-1.92033 -1.821668,-4.99221 0.04483,-6.88761 l 3.368909,-3.42314 c 0.933252,-0.94771 2.14508,-1.41589 3.354998,-1.40776 z m 133.60147,0.60126 c 1.20991,0.007 2.41531,0.4937 3.33642,1.4539 l 6.59561,6.87172 c 1.84225,1.92034 1.82172,4.99223 -0.0447,6.88761 l -3.36892,3.41995 c -1.86651,1.8954 -4.8523,1.87572 -6.69452,-0.0446 l -6.59405,-6.87327 c -1.84226,-1.92035 -1.82172,-4.99224 0.0447,-6.88763 l 3.3689,-3.41997 c 0.93326,-0.94768 2.14661,-1.41588 3.35653,-1.40773 z m -100.22004,2.46715 c 2.96465,0.0196 5.922,1.20879 8.17876,3.56152 l 30.06046,31.33313 c 4.51351,4.70482 4.46403,12.23019 -0.10825,16.87386 l -16.50904,16.76415 c -4.57291,4.64368 -11.88731,4.59569 -16.40082,-0.10978 L 75.064906,152.11778 C 70.551392,147.41298 70.6006,139.88602 75.173133,135.2423 L 91.68063,118.47979 c 2.28647,-2.32186 5.25896,-3.47146 8.22361,-3.45178 z m -46.857068,10.61618 v 0.003 c 1.209912,0.007 2.416862,0.49368 3.337986,1.45388 l 6.59249,6.87171 c 1.842245,1.92035 1.823227,4.99225 -0.04329,6.88761 l -3.368909,3.42157 c -1.866506,1.89541 -4.852274,1.87419 -6.694529,-0.046 l -6.592484,-6.87357 c -1.842249,-1.92034 -1.821665,-4.99063 0.04483,-6.88604 l 3.36891,-3.42154 c 0.933256,-0.94768 2.145084,-1.41747 3.354995,-1.40934 z m 133.601468,0.60128 c 1.20942,0.007 2.41712,0.49462 3.33799,1.45386 l 6.59248,6.87013 c 1.84224,1.92033 1.82109,4.9938 -0.0447,6.88921 l -3.36893,3.42154 c -1.86646,1.8954 -4.85073,1.87423 -6.69298,-0.046 l -6.59406,-6.87174 c -1.84226,-1.92032 -1.82178,-4.99221 0.0447,-6.88763 l 3.36892,-3.42154 c 0.93324,-0.94767 2.14629,-1.41562 3.35653,-1.40775 z M 39.569986,139.33034 c 1.209916,0.008 2.416863,0.49375 3.337989,1.45389 l 6.592487,6.8733 c 1.842252,1.92034 1.824761,4.99224 -0.04174,6.8876 l -3.368911,3.41998 c -1.866504,1.89539 -4.853824,1.87418 -6.696075,-0.0461 l -6.592489,-6.87173 c -1.842249,-1.92033 -1.821664,-4.99222 0.04483,-6.88763 l 3.36891,-3.41995 c 0.933252,-0.9477 2.145082,-1.41748 3.354996,-1.40936 z m 133.599934,0.5981 h 0.004 c 1.20992,0.008 2.41533,0.49374 3.33645,1.45387 h 0.003 l 6.59404,6.87331 c 1.84226,1.92038 1.82176,4.99223 -0.0447,6.88762 l -3.3689,3.41997 c -1.8665,1.89538 -4.85231,1.87805 -6.69454,-0.043 l -6.59401,-6.87328 c -1.84226,-1.92034 -1.82102,-4.99223 0.0447,-6.88761 l 3.36891,-3.42315 c 0.93326,-0.94772 2.14507,-1.41588 3.355,-1.40773 z M 26.0928,153.01493 c 1.210242,0.008 2.418408,0.49336 3.339536,1.45387 l 6.592487,6.8733 c 1.842251,1.92033 1.823243,4.99225 -0.04329,6.88762 l -3.368913,3.41996 c -1.866502,1.89539 -4.853827,1.87742 -6.696075,-0.0429 l -6.592486,-6.87331 c -1.842252,-1.92033 -1.821653,-4.99223 0.04483,-6.88762 l 3.368909,-3.41993 c 0.933254,-0.94769 2.144754,-1.41882 3.354993,-1.41094 z m 133.60146,0.59969 c 1.20991,0.007 2.41687,0.4937 3.33801,1.45385 l 6.59403,6.87332 c 1.84225,1.92035 1.82172,4.99065 -0.0447,6.88602 l -3.36893,3.42156 c -1.86648,1.8954 -4.8507,1.87573 -6.69296,-0.0445 l -6.59405,-6.87332 c -1.84227,-1.92035 -1.82324,-4.99225 0.0433,-6.88765 l 3.36892,-3.41993 c 0.93324,-0.94769 2.14662,-1.41748 3.35653,-1.40935 z m -13.47563,13.68615 c 1.21023,0.008 2.41686,0.49338 3.33799,1.45388 l 6.59402,6.87013 c 1.84227,1.92031 1.821,4.99379 -0.0447,6.88922 l -3.36889,3.42152 c -1.8665,1.8954 -4.8523,1.8743 -6.69453,-0.0461 l -6.59403,-6.8733 c -1.84222,-1.92031 -1.82174,-4.99064 0.0447,-6.88604 l 3.36891,-3.42153 c 0.93326,-0.94769 2.14631,-1.41564 3.35655,-1.40776 z m -13.47562,13.68458 c 1.20989,0.007 2.4153,0.49369 3.33642,1.45387 l 6.59404,6.87173 c 1.84224,1.92033 1.82174,4.99221 -0.0447,6.88761 l -3.36893,3.42155 c -1.86649,1.89539 -4.85228,1.87587 -6.69452,-0.0445 l -6.59404,-6.87331 c -1.84223,-1.92031 -1.82173,-4.99062 0.0447,-6.88603 l 3.3689,-3.42312 c 0.93327,-0.94769 2.1482,-1.41589 3.35812,-1.40774 z m -13.4772,13.68458 c 1.20992,0.007 2.41531,0.49373 3.33643,1.45387 l 6.59405,6.87332 c 1.84224,1.92032 1.82322,4.99062 -0.0433,6.88601 l -3.37046,3.41995 c -1.86649,1.89542 -4.85073,1.87733 -6.69298,-0.0429 l -6.59406,-6.87328 c -1.84225,-1.9203 -1.82163,-4.99066 0.0447,-6.88604 l 3.3689,-3.42312 c 0.93327,-0.94768 2.14664,-1.4159 3.35656,-1.40774 z m -13.47718,13.68456 c 1.20992,0.008 2.41532,0.4937 3.33643,1.45388 l 6.59405,6.87332 c 1.84224,1.92033 1.82314,4.99065 -0.0433,6.88603 l -3.36892,3.42313 c -1.86649,1.89538 -4.85225,1.8742 -6.69452,-0.0461 l -6.594,-6.87338 c -1.84224,-1.92035 -1.8217,-4.99063 0.0449,-6.88602 l 3.36891,-3.42154 c 0.93325,-0.9477 2.14663,-1.41748 3.35654,-1.40934 z m -13.47564,13.68617 c 1.21023,0.008 2.41532,0.49335 3.33644,1.45389 l 6.59402,6.87012 c 1.84225,1.92033 1.82133,4.99541 -0.0447,6.8908 l -3.36891,3.41995 c -1.86651,1.89538 -4.85075,1.87425 -6.69298,-0.0461 l -6.594026,-6.87179 c -1.842248,-1.92033 -1.823222,-4.99221 0.04324,-6.88762 l 3.36891,-3.41995 c 0.93325,-0.9477 2.147846,-1.41724 3.358096,-1.40933 z"
       id="rect5116"
       inkscape:connector-curvature="0" />
  </g>
  <g
     inkscape:groupmode="layer"
     id="layer2"
     inkscape:label="audio"
     style="display:inline">
    <path
       style="display:inline;fill:#555753;fill-opacity:1;stroke:#4e9a06;stroke-width:0.34064543px;stroke-linecap:butt;stroke-linejoin:miter;stroke-opacity:1"
       d="m 44.6025,55.386113 -3.45031,37.833981 -1.15104,-7.5664 -1.14823,15.134756 -1.15104,-40.357415 -2.29927,63.056635 V 78.087284 L 34.25156,126.01111 33.10052,115.92126 31.9523,126.01111 30.80125,57.909551 27.35094,110.87634 26.1999,70.520884 23.90063,100.78845 22.74958,88.177134 21.60136,100.78845 20.45031,65.475954 17,131.05603 H 73.35605 L 69.90574,60.431035 68.75469,88.177134 67.60647,80.608774 65.30438,128.53259 64.15616,103.30994 63.00511,120.96619 61.85407,80.608774 59.5548,118.4447 58.40376,105.83142 57.25553,113.39978 56.10449,98.265024 54.95344,126.01111 53.80522,65.475954 51.50313,100.78845 50.35491,65.475954 l -2.30209,22.70118 -1.14823,-15.13477 -1.15104,17.65625 z m 56.58739,0 -3.45031,37.833981 -1.15105,-7.5664 L 95.4375,100.78845 94.28927,60.431035 91.98718,123.48767 V 78.087284 L 90.83895,126.01111 89.68791,115.92126 88.53687,126.01111 87.38864,57.909551 83.93833,110.87634 82.78728,70.520884 80.48802,100.78845 79.33697,88.177134 78.18593,100.78845 77.0377,65.475954 73.58739,131.05603 h 56.35605 l -3.45031,-70.624995 -1.15105,27.746099 -1.15104,-7.56836 -2.29927,47.923816 -1.15104,-25.22265 -1.14823,17.65625 -1.15104,-40.357416 -2.29927,37.835926 -1.15104,-12.61328 -1.15105,7.56836 -1.14822,-15.134756 -1.15105,27.746086 -1.15104,-60.535156 -2.29927,35.312496 -1.15104,-35.312496 -2.29927,22.70118 -1.15104,-15.13477 -1.14824,17.65625 z m 28.75355,75.669917 h 56.35605 l -3.45031,-70.624995 -1.15104,27.746099 -1.14822,-7.56836 -2.30209,47.923816 -1.14823,-25.22265 -1.15104,17.65625 -1.15105,-40.357416 -2.29926,37.835926 -1.15105,-12.61328 -1.14822,7.56836 -1.15106,-15.134756 -1.15103,27.746086 -1.15104,-60.535156 -2.29927,35.312496 -1.15106,-35.312496 -2.29925,22.70118 -1.15106,-15.13477 -1.14822,17.65625 -1.15105,-35.312501 -3.45031,37.833981 -1.15104,-7.5664 -1.14822,15.134756 -1.15105,-40.357415 -2.29927,63.056635 V 78.087284 l -1.15104,47.923826 -1.15105,-10.08985 -1.14822,10.08985 -1.15104,-68.101559 -3.45031,52.966789 -1.15105,-40.355456 -2.29928,30.267566 -1.15103,-12.611316 -1.14822,12.611316 -1.15106,-35.312496 z m 84.1899,-75.669917 -3.45032,37.833981 -1.15104,-7.5664 -1.15105,15.134756 -1.14822,-40.357415 -2.30209,63.056635 V 78.087284 l -1.14822,47.923826 -1.15105,-10.08985 -1.15104,10.08985 -1.14822,-68.101559 -3.45031,52.966789 -1.15105,-40.355456 -2.29928,30.267566 -1.15103,-12.611316 -1.15106,12.611316 -1.14822,-35.312496 -3.45031,65.580076 h 56.35606 l -3.45032,-70.624995 -1.15104,27.746099 -1.15105,-7.56836 -2.29926,47.923816 -1.15105,-25.22265 -1.14822,17.65625 -1.15104,-40.357416 -2.29927,37.835926 -1.15105,-12.61328 -1.15104,7.56836 -1.14822,-15.134756 -1.15106,27.746086 -1.15103,-60.535156 -2.29928,35.312496 -1.15105,-35.312496 -2.29926,22.70118 -1.15105,-15.13477 -1.15104,17.65625 z M 17,131.2572 l 3.45031,65.58008 1.15105,-35.3125 1.14822,12.61328 1.15105,-12.61328 2.29927,30.26758 1.15104,-40.35547 3.45031,52.96875 1.15105,-68.10352 1.14822,10.08985 1.15104,-10.08985 1.15105,47.92383 v -45.40039 l 2.29927,63.05664 1.15104,-40.35742 1.14823,15.13477 1.15104,-7.56641 3.45031,37.83398 1.15105,-35.3125 1.15104,17.65625 1.14823,-15.13281 2.30209,22.69922 1.14822,-35.3125 2.30209,35.3125 1.14822,-60.53516 1.15105,27.7461 1.15104,-15.13477 1.14823,7.56836 1.15104,-12.61133 2.29927,37.83399 1.15104,-40.35742 1.15105,17.65625 1.14822,-25.22266 2.30209,47.92383 1.14822,-7.56641 1.15105,27.74414 3.45031,-70.625 z m 56.58739,0 3.45031,65.58008 1.14823,-35.3125 1.15104,12.61328 1.15105,-12.61328 2.29926,30.26758 1.15105,-40.35547 3.45031,52.96875 1.14823,-68.10352 1.15104,10.08985 1.15104,-10.08985 1.14823,47.92383 v -45.40039 l 2.30209,63.05664 1.14823,-40.35742 1.15103,15.13477 1.15105,-7.56641 3.45031,37.83398 1.15104,-35.3125 1.14824,17.65625 1.15104,-15.13281 2.29927,22.69922 1.15104,-35.3125 2.29927,35.3125 1.15104,-60.53516 1.15105,27.7461 1.14822,-15.13477 1.15105,7.56836 1.15104,-12.61133 2.29927,37.83399 1.15104,-40.35742 1.14823,17.65625 1.15104,-25.22266 2.29927,47.92383 1.15104,-7.56641 1.15105,27.74414 3.45031,-70.625 z m 56.35605,0 3.45031,65.58008 1.15106,-35.3125 1.14822,12.61328 1.15103,-12.61328 2.29928,30.26758 1.15105,-40.35547 3.45031,52.96875 1.15104,-68.10352 1.14822,10.08985 1.15105,-10.08985 1.15104,47.92383 v -45.40039 l 2.29927,63.05664 1.15105,-40.35742 1.14822,15.13477 1.15104,-7.56641 3.45031,37.83398 1.15105,-35.3125 1.14822,17.65625 1.15106,-15.13281 2.29925,22.69922 1.15106,-35.3125 2.29927,35.3125 1.15104,-60.53516 1.15103,27.7461 1.15106,-15.13477 1.14822,7.56836 1.15105,-12.61133 2.29926,37.83399 1.15105,-40.35742 1.15104,17.65625 1.14823,-25.22266 2.30209,47.92383 1.14822,-7.56641 1.15104,27.74414 3.45031,-70.625 z m 56.58739,0 3.45031,65.58008 1.14822,-35.3125 1.15106,12.61328 1.15103,-12.61328 2.29928,30.26758 1.15105,-40.35547 3.45031,52.96875 1.14822,-68.10352 1.15104,10.08985 1.15105,-10.08985 1.14822,47.92383 v -45.40039 l 2.30209,63.05664 1.14822,-40.35742 1.15105,15.13477 1.15104,-7.56641 3.45032,37.83398 1.14822,-35.3125 1.15104,17.65625 1.15105,-15.13281 2.29926,22.69922 1.15105,-35.3125 2.29928,35.3125 1.15103,-60.53516 1.15106,27.7461 1.14822,-15.13477 1.15104,7.56836 1.15105,-12.61133 2.29927,37.83399 1.15104,-40.35742 1.14822,17.65625 1.15105,-25.22266 2.29926,47.92383 1.15105,-7.56641 1.15104,27.74414 3.45032,-70.625 z"
       id="path879"
       inkscape:connector-curvature="0" />
    <path
       style="display:inline;fill:#73d216;stroke:#000000;stroke-width:0.28848591px;stroke-linecap:butt;stroke-linejoin:miter;stroke-opacity:1"
       d="M 44.60251,76.814864 41.1522,103.94964 40.00115,98.519614 38.85293,109.37583 37.70188,80.431034 35.40262,125.65439 V 93.093434 L 34.25157,127.46441 33.10053,120.22819 31.9523,127.46441 30.80126,78.621024 27.35094,116.61202 26.1999,87.667234 23.90063,109.37583 22.74958,100.32962 21.60136,109.37583 20.45031,84.047204 17,131.08442 H 73.35607 L 69.90576,80.431034 68.75471,100.32962 67.60649,94.903424 65.3044,129.27441 64.15618,111.18584 63.00513,123.84821 61.85409,94.903424 59.55482,122.0382 58.40377,112.99199 57.25555,118.42203 56.1045,107.56582 54.95346,127.46441 53.80523,84.047204 51.50314,109.37583 50.35492,84.047204 48.05283,100.32962 46.9046,89.477244 45.75356,102.13964 Z m 56.58742,0 L 97.73961,103.94964 96.58856,98.519614 95.43752,109.37583 94.2893,80.431034 91.98721,125.65439 V 93.093434 l -1.14823,34.370976 -1.15104,-7.23622 -1.15105,7.23622 -1.14822,-48.843386 -3.45032,37.990996 -1.15104,-28.944786 -2.29927,21.708596 -1.15105,-9.04621 -1.15104,9.04621 -1.14823,-25.328626 -3.45031,47.037216 h 56.35608 l -3.45032,-50.653386 -1.15105,19.898586 -1.15104,-5.426196 -2.29927,34.370986 -1.15104,-18.08857 -1.14823,12.66237 -1.15104,-28.944786 -2.29928,27.134776 -1.15103,-9.04621 -1.15106,5.43004 -1.14822,-10.85621 -1.15105,19.89859 -1.15104,-43.417206 -2.29927,25.328626 -1.15104,-25.328626 -2.29927,16.282416 -1.15104,-10.852376 -1.14824,12.662396 z m 28.75356,54.269556 h 56.35606 l -3.45031,-50.653386 -1.15104,19.898586 -1.14822,-5.426196 -2.30209,34.370986 -1.14824,-18.08857 -1.15103,12.66237 -1.15106,-28.944786 -2.29925,27.134776 -1.15106,-9.04621 -1.14822,5.43004 -1.15105,-10.85621 -1.15104,19.89859 -1.15104,-43.417206 -2.29927,25.328626 -1.15105,-25.328626 -2.29926,16.282416 -1.15105,-10.852376 -1.14823,12.662396 -1.15105,-25.324776 -3.45031,27.134776 -1.15104,-5.430026 -1.14822,10.856216 -1.15105,-28.944796 -2.29927,45.223356 V 93.093434 l -1.15104,34.370976 -1.15105,-7.23622 -1.14823,7.23622 -1.15103,-48.843386 -3.45032,37.990996 -1.15105,-28.944786 -2.29927,21.708596 -1.15104,-9.04621 -1.14822,9.04621 -1.15105,-25.328626 z m 84.18993,-54.269556 -3.45033,27.134776 -1.15104,-5.430026 -1.15105,10.856216 -1.14822,-28.944796 -2.30209,45.223356 V 93.093434 l -1.14822,34.370976 -1.15106,-7.23622 -1.15103,7.23622 -1.14822,-48.843386 -3.45032,37.990996 -1.15105,-28.944786 -2.29927,21.708596 -1.15104,-9.04621 -1.15105,9.04621 -1.14822,-25.328626 -3.45032,47.037216 h 56.35609 l -3.45033,-50.653386 -1.15104,19.898586 -1.15105,-5.426196 -2.29926,34.370986 -1.15105,-18.08857 -1.14822,12.66237 -1.15104,-28.944786 -2.29928,27.134776 -1.15105,-9.04621 -1.15104,5.43004 -1.14822,-10.85621 -1.15105,19.89859 -1.15104,-43.417206 -2.29927,25.328626 -1.15105,-25.328626 -2.29926,16.282416 -1.15105,-10.852376 -1.15104,12.662396 z M 17,131.22691 l 3.45031,47.03723 1.15105,-25.32864 1.14822,9.04624 1.15105,-9.04624 2.29927,21.70861 1.15104,-28.9448 3.45032,37.991 1.15104,-48.84336 1.14823,7.23619 1.15104,-7.23619 1.15105,34.37098 v -32.56099 l 2.29926,45.22336 1.15105,-28.9448 1.14822,10.85622 1.15105,-5.42618 3.45031,27.13479 1.15105,-25.32862 1.15104,12.66238 1.14823,-10.85235 2.30209,16.2824 1.14822,-25.32864 2.30209,25.32864 1.14823,-43.41719 1.15104,19.89857 1.15105,-10.85236 1.14822,5.42618 1.15105,-9.04621 2.29927,27.13479 1.15104,-28.9448 1.15105,12.66623 1.14822,-18.09243 2.30209,34.371 1.14822,-5.42618 1.15105,19.89856 3.45031,-50.65339 z m 56.58741,0 3.45031,47.03723 1.14823,-25.32864 1.15104,9.04624 1.15105,-9.04624 2.29927,21.70861 1.15104,-28.9448 3.45032,37.991 1.14822,-48.84336 1.15105,7.23619 1.15104,-7.23619 1.14823,34.37098 v -32.56099 l 2.30209,45.22336 1.14822,-28.9448 1.15104,10.85622 1.15105,-5.42618 3.45032,27.13479 1.15103,-25.32862 1.14824,12.66238 1.15104,-10.85235 2.29927,16.2824 1.15104,-25.32864 2.29927,25.32864 1.15104,-43.41719 1.15105,19.89857 1.14822,-10.85236 1.15106,5.42618 1.15103,-9.04621 2.29928,27.13479 1.15104,-28.9448 1.14823,12.66623 1.15104,-18.09243 2.29927,34.371 1.15104,-5.42618 1.15105,19.89856 3.45032,-50.65339 z m 56.35608,0 3.45031,47.03723 1.15105,-25.32864 1.14822,9.04624 1.15104,-9.04624 2.29927,21.70861 1.15105,-28.9448 3.45032,37.991 1.15103,-48.84336 1.14823,7.23619 1.15105,-7.23619 1.15104,34.37098 v -32.56099 l 2.29927,45.22336 1.15105,-28.9448 1.14822,10.85622 1.15104,-5.42618 3.45031,27.13479 1.15105,-25.32862 1.14823,12.66238 1.15105,-10.85235 2.29926,16.2824 1.15105,-25.32864 2.29927,25.32864 1.15104,-43.41719 1.15104,19.89857 1.15105,-10.85236 1.14822,5.42618 1.15106,-9.04621 2.29925,27.13479 1.15106,-28.9448 1.15103,12.66623 1.14824,-18.09243 2.30209,34.371 1.14822,-5.42618 1.15104,19.89856 3.45031,-50.65339 z m 56.5874,0 3.45032,47.03723 1.14822,-25.32864 1.15105,9.04624 1.15104,-9.04624 2.29927,21.70861 1.15105,-28.9448 3.45032,37.991 1.14822,-48.84336 1.15103,7.23619 1.15106,-7.23619 1.14822,34.37098 v -32.56099 l 2.30209,45.22336 1.14822,-28.9448 1.15105,10.85622 1.15104,-5.42618 3.45033,27.13479 1.14822,-25.32862 1.15104,12.66238 1.15105,-10.85235 2.29926,16.2824 1.15105,-25.32864 2.29927,25.32864 1.15104,-43.41719 1.15105,19.89857 1.14822,-10.85236 1.15104,5.42618 1.15105,-9.04621 2.29928,27.13479 1.15104,-28.9448 1.14822,12.66623 1.15105,-18.09243 2.29926,34.371 1.15105,-5.42618 1.15104,19.89856 3.45033,-50.65339 z"
       id="path895"
       inkscape:connector-curvature="0" />
    <path
       style="display:inline;fill:#eeeeec;stroke:#000000;stroke-width:0.22452748px;stroke-linecap:butt;stroke-linejoin:miter;stroke-opacity:1;opacity:1"
       d="m 44.60251,98.240484 -3.45031,16.434496 -1.15105,-3.29108 -1.14822,6.58217 -1.15105,-17.53504 -2.29926,27.39783 v -19.72559 l -1.15105,20.81561 -1.15104,-4.3811 -1.14823,4.3811 -1.15104,-29.588376 -3.45032,23.016666 -1.15104,-17.53498 -2.29927,13.15388 -1.15105,-5.4817 -1.14822,5.4817 L 20.45031,102.62158 17,131.10949 h 56.35607 l -3.45031,-30.67846 -1.15105,12.05334 -1.14822,-3.29108 -2.30209,20.82612 -1.14822,-10.96332 -1.15105,7.67224 -1.15104,-17.53504 -2.29927,16.44502 -1.15105,-5.48169 -1.14822,3.29108 -1.15105,-6.58217 -1.15104,12.05335 -1.14823,-26.2973 -2.30209,15.34449 -1.14822,-15.34449 -2.30209,9.86279 -1.14823,-6.57171 -1.15104,7.67225 z m 56.58742,0 -3.45032,16.434496 -1.15105,-3.29108 -1.15104,6.58217 -1.14822,-17.53504 -2.30209,27.39783 v -19.72559 l -1.14823,20.81561 -1.15104,-4.3811 -1.15105,4.3811 -1.14822,-29.588376 -3.45032,23.016666 -1.15104,-17.53498 -2.29927,13.15388 -1.15105,-5.4817 -1.15104,5.4817 -1.14823,-15.34449 -3.45031,28.48791 h 56.35608 l -3.45032,-30.67846 -1.15105,12.05334 -1.15104,-3.29108 -2.29927,20.82612 -1.15104,-10.96332 -1.14823,7.67224 -1.15104,-17.53504 -2.29928,16.44502 -1.15103,-5.48169 -1.15106,3.29108 -1.14822,-6.58217 -1.15105,12.05335 -1.15104,-26.2973 -2.29927,15.34449 -1.15104,-15.34449 -2.29927,9.86279 -1.15104,-6.57171 -1.14824,7.67225 z m 28.75356,32.869006 h 56.35606 l -3.45031,-30.67846 -1.15104,12.05334 -1.14822,-3.29108 -2.30209,20.82612 -1.14824,-10.96332 -1.15103,7.67224 -1.15106,-17.53504 -2.29925,16.44502 -1.15106,-5.48169 -1.14822,3.29108 -1.15105,-6.58217 -1.15104,12.05335 -1.15104,-26.2973 -2.29927,15.34449 -1.15105,-15.34449 -2.29926,9.86279 -1.15105,-6.57171 -1.14823,7.67225 -1.15105,-15.344426 -3.45031,16.434496 -1.15104,-3.29108 -1.14822,6.58217 -1.15105,-17.53504 -2.29927,27.39783 v -19.72559 l -1.15104,20.81561 -1.15105,-4.3811 -1.14823,4.3811 -1.15103,-29.588376 -3.45032,23.016666 -1.15105,-17.53498 -2.29927,13.15388 -1.15104,-5.4817 -1.14822,5.4817 -1.15105,-15.34449 z m 84.18993,-32.869006 -3.45033,16.434496 -1.15104,-3.29108 -1.15105,6.58217 -1.14822,-17.53504 -2.30209,27.39783 v -19.72559 l -1.14822,20.81561 -1.15106,-4.3811 -1.15103,4.3811 -1.14822,-29.588376 -3.45032,23.016666 -1.15105,-17.53498 -2.29927,13.15388 -1.15104,-5.4817 -1.15105,5.4817 -1.14822,-15.34449 -3.45032,28.48791 h 56.35609 l -3.45033,-30.67846 -1.15104,12.05334 -1.15105,-3.29108 -2.29926,20.82612 -1.15105,-10.96332 -1.14822,7.67224 -1.15104,-17.53504 -2.29928,16.44502 -1.15105,-5.48169 -1.15104,3.29108 -1.14822,-6.58217 -1.15105,12.05335 -1.15104,-26.2973 -2.29927,15.34449 -1.15105,-15.34449 -2.29926,9.86279 -1.15105,-6.57171 -1.15104,7.67225 z M 17,131.20382 l 3.45031,28.48785 1.15105,-15.34449 1.14822,5.4817 1.15105,-5.4817 2.29927,13.15394 1.15104,-17.53504 3.45032,23.01667 1.15104,-29.58838 1.14823,4.3811 1.15104,-4.3811 1.15105,20.81561 v -19.72559 l 2.29926,27.39783 1.15105,-17.53504 1.14822,6.58223 1.15105,-3.29108 3.45031,16.4345 1.15105,-15.33401 1.15104,7.66177 1.14823,-6.57171 2.30209,9.86279 1.14822,-15.34449 2.30209,15.34449 1.14823,-26.2973 1.15104,12.05335 1.15105,-6.57172 1.14822,3.28063 1.15105,-5.47118 2.29927,16.43451 1.15104,-17.53504 1.15105,7.67225 1.14822,-10.96333 2.30209,20.82612 1.14822,-3.29108 1.15105,12.05334 3.45031,-30.6784 z m 56.58741,0 3.45031,28.48785 1.14823,-15.34449 1.15104,5.4817 1.15105,-5.4817 2.29927,13.15394 1.15104,-17.53504 3.45032,23.01667 1.14822,-29.58838 1.15105,4.3811 1.15104,-4.3811 1.14823,20.81561 v -19.72559 l 2.30209,27.39783 1.14822,-17.53504 1.15104,6.58223 1.15105,-3.29108 3.45032,16.4345 1.15103,-15.33401 1.14824,7.66177 1.15104,-6.57171 2.29927,9.86279 1.15104,-15.34449 2.29927,15.34449 1.15104,-26.2973 1.15105,12.05335 1.14822,-6.57172 1.15106,3.28063 1.15103,-5.47118 2.29928,16.43451 1.15104,-17.53504 1.14823,7.67225 1.15104,-10.96333 2.29927,20.82612 1.15104,-3.29108 1.15105,12.05334 3.45032,-30.6784 z m 56.35608,0 3.45031,28.48785 1.15105,-15.34449 1.14822,5.4817 1.15104,-5.4817 2.29927,13.15394 1.15105,-17.53504 3.45032,23.01667 1.15103,-29.58838 1.14823,4.3811 1.15105,-4.3811 1.15104,20.81561 v -19.72559 l 2.29927,27.39783 1.15105,-17.53504 1.14822,6.58223 1.15104,-3.29108 3.45031,16.4345 1.15105,-15.33401 1.14823,7.66177 1.15105,-6.57171 2.29926,9.86279 1.15105,-15.34449 2.29927,15.34449 1.15104,-26.2973 1.15104,12.05335 1.15105,-6.57172 1.14822,3.28063 1.15106,-5.47118 2.29925,16.43451 1.15106,-17.53504 1.15103,7.67225 1.14824,-10.96333 2.30209,20.82612 1.14822,-3.29108 1.15104,12.05334 3.45031,-30.6784 z m 56.5874,0 3.45032,28.48785 1.14822,-15.34449 1.15105,5.4817 1.15104,-5.4817 2.29927,13.15394 1.15105,-17.53504 3.45032,23.01667 1.14822,-29.58838 1.15103,4.3811 1.15106,-4.3811 1.14822,20.81561 v -19.72559 l 2.30209,27.39783 1.14822,-17.53504 1.15105,6.58223 1.15104,-3.29108 3.45033,16.4345 1.14822,-15.33401 1.15104,7.66177 1.15105,-6.57171 2.29926,9.86279 1.15105,-15.34449 2.29927,15.34449 1.15104,-26.2973 1.15105,12.05335 1.14822,-6.57172 1.15104,3.28063 1.15105,-5.47118 2.29928,16.43451 1.15104,-17.53504 1.14822,7.67225 1.15105,-10.96333 2.29926,20.82612 1.15105,-3.29108 1.15104,12.05334 3.45033,-30.6784 z"
       id="path911"
       inkscape:connector-curvature="0" />
    <path
       sodipodi:type="star"
       style="display:inline;opacity:1;fill:#d4aa00;fill-opacity:0.98654713;stroke:none;stroke-width:0.1;stroke-linecap:square;stroke-linejoin:miter;stroke-miterlimit:4;stroke-dasharray:none;stroke-dashoffset:0;stroke-opacity:1;paint-order:normal"
       id="path860"
       sodipodi:sides="6"
       sodipodi:cx="130.00002"
       sodipodi:cy="35.000004"
       sodipodi:r1="14.142136"
       sodipodi:r2="7.0710678"
       sodipodi:arg1="0.78539816"
       sodipodi:arg2="1.3089969"
       inkscape:flatsided="false"
       inkscape:rounded="1.04083e-17"
       inkscape:randomized="0"
       d="m 140.00002,45.000004 -8.16988,-3.169873 -5.49038,6.830127 -1.33974,-8.660254 -8.66026,-1.339746 6.83013,-5.490381 -3.16987,-8.169873 8.16987,3.169873 5.49038,-6.830127 1.33975,8.660254 8.66025,1.339746 -6.83013,5.490381 z"
       inkscape:transform-center-x="0.68364368"
       inkscape:transform-center-y="-0.68364368" />
    <path
       sodipodi:type="star"
       style="display:inline;opacity:1;fill:#d4aa00;fill-opacity:0.98654713;stroke:none;stroke-width:0.1;stroke-linecap:square;stroke-linejoin:miter;stroke-miterlimit:4;stroke-dasharray:none;stroke-dashoffset:0;stroke-opacity:1;paint-order:normal"
       id="path863"
       sodipodi:sides="6"
       sodipodi:cx="82.5"
       sodipodi:cy="14.33013"
       sodipodi:r1="10"
       sodipodi:r2="5"
       sodipodi:arg1="1.5707963"
       sodipodi:arg2="2.0943951"
       inkscape:flatsided="false"
       inkscape:rounded="1.04083e-17"
       inkscape:randomized="0"
       d="M 82.5,24.33013 80,18.660257 73.839746,19.33013 77.5,14.33013 73.839746,9.3301299 80,10.000003 82.5,4.3301296 85,10.000003 91.160254,9.3301294 87.5,14.33013 91.160254,19.330129 85,18.660257 Z" />
    <path
       sodipodi:type="star"
       style="display:inline;opacity:1;fill:#d4aa00;fill-opacity:0.98654713;stroke:none;stroke-width:0.1;stroke-linecap:square;stroke-linejoin:miter;stroke-miterlimit:4;stroke-dasharray:none;stroke-dashoffset:0;stroke-opacity:1;paint-order:normal"
       id="path865"
       sodipodi:sides="6"
       sodipodi:cx="234.99998"
       sodipodi:cy="106.33975"
       sodipodi:r1="20"
       sodipodi:r2="10"
       sodipodi:arg1="1.5707963"
       sodipodi:arg2="2.0943951"
       inkscape:flatsided="false"
       inkscape:rounded="1.04083e-17"
       inkscape:randomized="0"
       d="m 234.99999,126.33975 -5.00001,-11.33974 -12.3205,1.33974 7.3205,-10 -7.3205,-9.999997 12.3205,1.339745 5,-11.339746 5,11.339746 12.32051,-1.339746 -7.32051,9.999998 7.32051,10 -12.32051,-1.33974 z" />
    <path
       sodipodi:type="star"
       style="display:inline;opacity:1;fill:#d4aa00;fill-opacity:0.98654713;stroke:none;stroke-width:0.1;stroke-linecap:square;stroke-linejoin:miter;stroke-miterlimit:4;stroke-dasharray:none;stroke-dashoffset:0;stroke-opacity:1;paint-order:normal"
       id="path867"
       sodipodi:sides="6"
       sodipodi:cx="21.25"
       sodipodi:cy="57.16507"
       sodipodi:r1="5"
       sodipodi:r2="2.5"
       sodipodi:arg1="1.5707963"
       sodipodi:arg2="2.0943951"
       inkscape:flatsided="false"
       inkscape:rounded="1.04083e-17"
       inkscape:randomized="0"
       d="M 21.25,62.16507 20,59.330133 l -3.080127,0.334937 1.830127,-2.5 -1.830127,-2.5 L 20,55.000006 21.25,52.16507 22.5,55.000006 25.580127,54.665069 23.75,57.16507 25.580127,59.665069 22.5,59.330133 Z" />
    <path
       sodipodi:type="star"
       style="display:inline;opacity:1;fill:#d4aa00;fill-opacity:0.98654713;stroke:none;stroke-width:0.1;stroke-linecap:square;stroke-linejoin:miter;stroke-miterlimit:4;stroke-dasharray:none;stroke-dashoffset:0;stroke-opacity:1;paint-order:normal"
       id="path869"
       sodipodi:sides="6"
       sodipodi:cx="23.080132"
       sodipodi:cy="104.66506"
       sodipodi:r1="11.18034"
       sodipodi:r2="5.5901699"
       sodipodi:arg1="0.46364761"
       sodipodi:arg2="0.98724638"
       inkscape:flatsided="false"
       inkscape:rounded="1.04083e-17"
       inkscape:randomized="0"
       d="m 33.080131,109.66506 -6.919872,-0.33493 -2.410255,6.49519 -3.169872,-6.16026 -6.830127,1.16026 3.75,-5.82532 -4.419873,-5.334938 6.919873,0.334936 2.410254,-6.49519 3.169872,6.160254 6.830127,-1.160254 -3.749999,5.825322 z" />
    <path
       sodipodi:type="star"
       style="display:inline;opacity:1;fill:#d4aa00;fill-opacity:0.98654713;stroke:none;stroke-width:0.1;stroke-linecap:square;stroke-linejoin:miter;stroke-miterlimit:4;stroke-dasharray:none;stroke-dashoffset:0;stroke-opacity:1;paint-order:normal"
       id="path871"
       sodipodi:sides="5"
       sodipodi:cx="48.394897"
       sodipodi:cy="28.150187"
       sodipodi:r1="7.0710678"
       sodipodi:r2="3.5355339"
       sodipodi:arg1="0.78539816"
       sodipodi:arg2="1.4137167"
       inkscape:flatsided="false"
       inkscape:rounded="1.04083e-17"
       inkscape:randomized="0"
       d="m 53.394897,33.150187 -4.44692,-1.507995 -3.763277,2.808362 0.06001,-4.695269 -3.833828,-2.711257 4.484011,-1.393841 1.393842,-4.484012 2.711257,3.833828 4.695269,-0.06001 -2.808362,3.763277 z" />
    <path
       sodipodi:type="star"
       style="display:inline;opacity:1;fill:#d4aa00;fill-opacity:0.98654713;stroke:none;stroke-width:0.1;stroke-linecap:square;stroke-linejoin:miter;stroke-miterlimit:4;stroke-dasharray:none;stroke-dashoffset:0;stroke-opacity:1;paint-order:normal"
       id="path873"
       sodipodi:sides="5"
       sodipodi:cx="138.45348"
       sodipodi:cy="91.8713"
       sodipodi:r1="18.027756"
       sodipodi:r2="9.0138779"
       sodipodi:arg1="2.1587989"
       sodipodi:arg2="2.7871175"
       inkscape:flatsided="false"
       inkscape:rounded="1.04083e-17"
       inkscape:randomized="0"
       d="M 128.45348,106.8713 130,95 l -8.90254,-8.00401 11.76818,-2.1976 4.86123,-10.940197 5.72661,10.513107 11.90694,1.242597 -8.22894,8.695058 2.49767,11.708165 -10.81237,-5.13927 z"
       inkscape:transform-center-x="0.22453448"
       inkscape:transform-center-y="-1.5065537" />
    <path
       inkscape:transform-center-y="-0.68364368"
       inkscape:transform-center-x="0.68364368"
       d="m 204.99998,155.00002 -8.16987,-3.16988 -5.49038,6.83013 -1.33975,-8.66025 -8.66025,-1.33975 6.83013,-5.49038 -3.16988,-8.16987 8.16988,3.16987 5.49038,-6.83013 1.33974,8.66026 8.66026,1.33974 -6.83013,5.49038 z"
       inkscape:randomized="0"
       inkscape:rounded="1.04083e-17"
       inkscape:flatsided="false"
       sodipodi:arg2="1.3089969"
       sodipodi:arg1="0.78539816"
       sodipodi:r2="7.0710678"
       sodipodi:r1="14.142136"
       sodipodi:cy="145.00002"
       sodipodi:cx="194.99998"
       sodipodi:sides="6"
       id="path875"
       style="display:inline;opacity:1;fill:#d4aa00;fill-opacity:0.98654713;stroke:none;stroke-width:0.1;stroke-linecap:square;stroke-linejoin:miter;stroke-miterlimit:4;stroke-dasharray:none;stroke-dashoffset:0;stroke-opacity:1;paint-order:normal"
       sodipodi:type="star" />
    <path
       d="m 82.5,154.33012 -2.5,-5.66987 -6.160254,0.66987 3.660254,-5 -3.660254,-5 L 80,140 82.5,134.33012 85,140 l 6.160254,-0.66988 -3.660254,5 3.660254,5 L 85,148.66025 Z"
       inkscape:randomized="0"
       inkscape:rounded="1.04083e-17"
       inkscape:flatsided="false"
       sodipodi:arg2="2.0943951"
       sodipodi:arg1="1.5707963"
       sodipodi:r2="5"
       sodipodi:r1="10"
       sodipodi:cy="144.33012"
       sodipodi:cx="82.5"
       sodipodi:sides="6"
       id="path877"
       style="display:inline;opacity:1;fill:#d4aa00;fill-opacity:0.98654713;stroke:none;stroke-width:0.1;stroke-linecap:square;stroke-linejoin:miter;stroke-miterlimit:4;stroke-dasharray:none;stroke-dashoffset:0;stroke-opacity:1;paint-order:normal"
       sodipodi:type="star" />
    <path
       d="m 125.00002,180.00002 -5,-11.33975 -12.3205,1.33975 7.3205,-10 -7.32051,-10 12.32051,1.33974 5,-11.33974 5,11.33974 12.32051,-1.33975 -7.32051,10.00001 7.32051,9.99999 -12.32051,-1.33974 z"
       inkscape:randomized="0"
       inkscape:rounded="1.04083e-17"
       inkscape:flatsided="false"
       sodipodi:arg2="2.0943951"
       sodipodi:arg1="1.5707963"
       sodipodi:r2="10"
       sodipodi:r1="20"
       sodipodi:cy="160.00002"
       sodipodi:cx="125.00002"
       sodipodi:sides="6"
       id="path879-3"
       style="display:inline;opacity:1;fill:#d4aa00;fill-opacity:0.98654713;stroke:none;stroke-width:0.1;stroke-linecap:square;stroke-linejoin:miter;stroke-miterlimit:4;stroke-dasharray:none;stroke-dashoffset:0;stroke-opacity:1;paint-order:normal"
       sodipodi:type="star" />
    <path
       d="m 241.24998,242.16505 -1.25,-2.83493 -3.08012,0.33493 1.83012,-2.5 -1.83012,-2.5 3.08012,0.33494 1.25,-2.83494 1.25,2.83494 3.08013,-0.33494 -1.83013,2.5 1.83013,2.5 -3.08013,-0.33493 z"
       inkscape:randomized="0"
       inkscape:rounded="1.04083e-17"
       inkscape:flatsided="false"
       sodipodi:arg2="2.0943951"
       sodipodi:arg1="1.5707963"
       sodipodi:r2="2.5"
       sodipodi:r1="5"
       sodipodi:cy="237.16505"
       sodipodi:cx="241.24998"
       sodipodi:sides="6"
       id="path881"
       style="display:inline;opacity:1;fill:#d4aa00;fill-opacity:0.98654713;stroke:none;stroke-width:0.1;stroke-linecap:square;stroke-linejoin:miter;stroke-miterlimit:4;stroke-dasharray:none;stroke-dashoffset:0;stroke-opacity:1;paint-order:normal"
       sodipodi:type="star" />
    <path
       d="m 73.080131,189.66505 -6.919872,-0.33493 -2.410255,6.49519 -3.169872,-6.16026 -6.830127,1.16026 3.75,-5.82532 -4.419873,-5.33494 6.919873,0.33494 2.410254,-6.49519 3.169872,6.16025 6.830127,-1.16025 -3.749999,5.82532 z"
       inkscape:randomized="0"
       inkscape:rounded="1.04083e-17"
       inkscape:flatsided="false"
       sodipodi:arg2="0.98724638"
       sodipodi:arg1="0.46364761"
       sodipodi:r2="5.5901699"
       sodipodi:r1="11.18034"
       sodipodi:cy="184.66505"
       sodipodi:cx="63.080132"
       sodipodi:sides="6"
       id="path883"
       style="display:inline;opacity:1;fill:#d4aa00;fill-opacity:0.98654713;stroke:none;stroke-width:0.1;stroke-linecap:square;stroke-linejoin:miter;stroke-miterlimit:4;stroke-dasharray:none;stroke-dashoffset:0;stroke-opacity:1;paint-order:normal"
       sodipodi:type="star" />
    <path
       d="m 203.39491,233.15018 -4.44692,-1.508 -3.76327,2.80836 0.06,-4.69526 -3.83383,-2.71126 4.48401,-1.39384 1.39384,-4.48401 2.71126,3.83382 4.69527,-0.06 -2.80836,3.76328 z"
       inkscape:randomized="0"
       inkscape:rounded="1.04083e-17"
       inkscape:flatsided="false"
       sodipodi:arg2="1.4137167"
       sodipodi:arg1="0.78539816"
       sodipodi:r2="3.5355339"
       sodipodi:r1="7.0710678"
       sodipodi:cy="228.15018"
       sodipodi:cx="198.39491"
       sodipodi:sides="5"
       id="path885"
       style="display:inline;opacity:1;fill:#d4aa00;fill-opacity:0.98654713;stroke:none;stroke-width:0.1;stroke-linecap:square;stroke-linejoin:miter;stroke-miterlimit:4;stroke-dasharray:none;stroke-dashoffset:0;stroke-opacity:1;paint-order:normal"
       sodipodi:type="star" />
    <path
       inkscape:transform-center-y="-1.5065537"
       inkscape:transform-center-x="0.22453448"
       d="M 15.587838,242.07291 17.134363,230.20161 8.23182,222.1976 19.999999,220 l 4.861229,-10.9402 5.726609,10.51311 11.906948,1.24259 -8.228939,8.69506 2.497669,11.70817 -10.812374,-5.13927 z"
       inkscape:randomized="0"
       inkscape:rounded="1.04083e-17"
       inkscape:flatsided="false"
       sodipodi:arg2="2.7871175"
       sodipodi:arg1="2.1587989"
       sodipodi:r2="9.0138779"
       sodipodi:r1="18.027756"
       sodipodi:cy="227.07291"
       sodipodi:cx="25.587837"
       sodipodi:sides="5"
       id="path887"
       style="display:inline;opacity:1;fill:#d4aa00;fill-opacity:0.98654713;stroke:none;stroke-width:0.1;stroke-linecap:square;stroke-linejoin:miter;stroke-miterlimit:4;stroke-dasharray:none;stroke-dashoffset:0;stroke-opacity:1;paint-order:normal"
       sodipodi:type="star" />
    <path
       sodipodi:type="star"
       style="display:inline;opacity:1;fill:#d4aa00;fill-opacity:0.98654713;stroke:none;stroke-width:0.1;stroke-linecap:square;stroke-linejoin:miter;stroke-miterlimit:4;stroke-dasharray:none;stroke-dashoffset:0;stroke-opacity:1;paint-order:normal"
       id="path873-3"
       sodipodi:sides="5"
       sodipodi:cx="174.46742"
       sodipodi:cy="193.34657"
       sodipodi:r1="9.5271807"
       sodipodi:r2="4.7635903"
       sodipodi:arg1="2.1587989"
       sodipodi:arg2="2.7871175"
       inkscape:flatsided="false"
       inkscape:rounded="1.04083e-17"
       inkscape:randomized="0"
       d="m 169.18269,201.27367 0.8173,-6.27366 -4.70475,-4.22991 6.21916,-1.16137 2.56903,-5.7816 3.02636,5.5559 6.2925,0.65668 -4.34878,4.5951 1.31996,6.18745 -5.71405,-2.71597 z"
       inkscape:transform-center-x="0.11866039"
       inkscape:transform-center-y="-0.79617283" />
  </g>
  <g
     inkscape:groupmode="layer"
     id="layer5"
     inkscape:label="ffmpeg"
     style="display:none">
    <path
       style="color:#000000;font-style:normal;font-variant:normal;font-weight:normal;font-stretch:normal;font-size:medium;line-height:normal;font-family:sans-serif;font-variant-ligatures:normal;font-variant-position:normal;font-variant-caps:normal;font-variant-numeric:normal;font-variant-alternates:normal;font-feature-settings:normal;text-indent:0;text-align:start;text-decoration:none;text-decoration-line:none;text-decoration-style:solid;text-decoration-color:#000000;letter-spacing:normal;word-spacing:normal;text-transform:none;writing-mode:lr-tb;direction:ltr;text-orientation:mixed;dominant-baseline:auto;baseline-shift:baseline;text-anchor:start;white-space:normal;shape-padding:0;clip-rule:nonzero;display:inline;overflow:visible;visibility:visible;opacity:1;isolation:auto;mix-blend-mode:normal;color-interpolation:sRGB;color-interpolation-filters:linearRGB;solid-color:#000000;solid-opacity:1;vector-effect:none;fill:#73d216;fill-opacity:1;fill-rule:nonzero;stroke:#4e9a06;stroke-width:6.26205349;stroke-linecap:round;stroke-linejoin:round;stroke-miterlimit:4;stroke-dasharray:none;stroke-dashoffset:0;stroke-opacity:1;color-rendering:auto;image-rendering:auto;shape-rendering:auto;text-rendering:auto;enable-background:accumulate"
       d="M 46.21789,49.048811 V 50 H 94 L 47.113323,96.8867 v 58.41606 L 152.41607,50 h 50.99422 L 51.220872,206.94535 h 53.636008 l 99.20177,-99.20181 v 55.72603 l -43.4758,43.47578 h 44.67958 l -1.69245,-0.9512 h -40.69089 l 42.13076,-42.13076 V 105.44734 L 104.46303,205.99415 H 53.468798 L 205.65821,49.048811 H 152.0222 L 48.064507,153.00653 V 97.28055 L 96.2962,49.048811 Z"
       id="path4593"
       inkscape:connector-curvature="0"
       sodipodi:nodetypes="ccccccccccccccccccccccccc" />
  </g>
  <g
     inkscape:groupmode="layer"
     id="layer7"
     inkscape:label="freccie"
     style="display:inline" />
</svg>
