<?xml version="1.0" encoding="UTF-8" standalone="no"?>
<svg
   xmlns:dc="http://purl.org/dc/elements/1.1/"
   xmlns:cc="http://creativecommons.org/ns#"
   xmlns:rdf="http://www.w3.org/1999/02/22-rdf-syntax-ns#"
   xmlns:svg="http://www.w3.org/2000/svg"
   xmlns="http://www.w3.org/2000/svg"
   xmlns:sodipodi="http://sodipodi.sourceforge.net/DTD/sodipodi-0.dtd"
   xmlns:inkscape="http://www.inkscape.org/namespaces/inkscape"
   version="1"
   viewBox="0 0 48 48"
   enable-background="new 0 0 48 48"
   id="svg12"
   sodipodi:docname="cut.svg"
   inkscape:version="0.92.1 r15371">
  <metadata
     id="metadata18">
    <rdf:RDF>
      <cc:Work
         rdf:about="">
        <dc:format>image/svg+xml</dc:format>
        <dc:type
           rdf:resource="http://purl.org/dc/dcmitype/StillImage" />
        <dc:title />
      </cc:Work>
    </rdf:RDF>
  </metadata>
  <defs
     id="defs16">
    <inkscape:perspective
       sodipodi:type="inkscape:persp3d"
       inkscape:vp_x="101.20842 : -0.75793538 : 1"
       inkscape:vp_y="-440.24332 : 1952.4983 : 0"
       inkscape:vp_z="117.10493 : 31.795885 : 1"
       inkscape:persp3d-origin="112.67862 : -0.10101252 : 1"
       id="perspective4515" />
  </defs>
  <sodipodi:namedview
     pagecolor="#ffffff"
     bordercolor="#666666"
     borderopacity="1"
     objecttolerance="10"
     gridtolerance="10"
     guidetolerance="10"
     inkscape:pageopacity="0"
     inkscape:pageshadow="2"
     inkscape:window-width="1877"
     inkscape:window-height="904"
     id="namedview14"
     showgrid="true"
     inkscape:zoom="12.24"
     inkscape:cx="12.775431"
     inkscape:cy="19.710664"
     inkscape:window-x="41"
     inkscape:window-y="49"
     inkscape:window-maximized="0"
     inkscape:current-layer="svg12"
     inkscape:measure-start="37,16"
     inkscape:measure-end="41,16">
    <inkscape:grid
       type="xygrid"
       id="grid4510" />
  </sodipodi:namedview>
  <path
     style="opacity:1;fill:#2e3436;fill-opacity:1;fill-rule:nonzero;stroke:none;stroke-width:0.60275352;stroke-linecap:square;stroke-linejoin:round;stroke-miterlimit:4;stroke-dasharray:none;stroke-dashoffset:0;stroke-opacity:1;paint-order:stroke fill markers"
     d="m 37.056715,2.5985307 c 0,0 1.419116,5.4555551 0.04144,7.7340143 -5.255614,8.691961 -16.013111,25.490241 -16.013111,25.490241 l -3.67499,-1.949995 z"
     id="rect4504"
     inkscape:connector-curvature="0"
     sodipodi:nodetypes="csccc" />
  <path
     style="opacity:1;fill:#c4a000;fill-opacity:1;fill-rule:nonzero;stroke:none;stroke-width:0.59020376;stroke-linecap:square;stroke-linejoin:round;stroke-miterlimit:4;stroke-dasharray:none;stroke-dashoffset:0;stroke-opacity:1;paint-order:stroke fill markers"
     d="M 7.9,38.819216 A 7.1932734,6.6109546 0 0 0 15.095243,45.43 7.1932734,6.6109546 0 0 0 22.288329,38.819216 7.1932734,6.6109546 0 0 0 15.095243,32.208433 7.1932734,6.6109546 0 0 0 7.9,38.819216 Z m 2.825087,0.01981 a 4.3470141,3.9951092 0 0 1 4.346452,-3.994592 4.3470141,3.9951092 0 0 1 4.346452,3.994592 4.3470141,3.9951092 0 0 1 -4.346452,3.996573 4.3470141,3.9951092 0 0 1 -4.346452,-3.996573 z"
     id="path4497"
     inkscape:connector-curvature="0" />
  <path
     style="opacity:1;fill:#2e3436;fill-opacity:1;fill-rule:nonzero;stroke:none;stroke-width:0.60275519;stroke-linecap:square;stroke-linejoin:round;stroke-miterlimit:4;stroke-dasharray:none;stroke-dashoffset:0;stroke-opacity:1;paint-order:stroke fill markers"
     d="m 10.90524,2.598041 c 0,0 -1.4198637,5.4566537 -0.04217,7.735125 2.475782,4.094557 6.15172,9.947217 9.369668,15.036105 l 2.488451,-3.961563 z m 13.087591,20.833088 -2.484239,3.953809 c 2.824964,4.453963 5.367053,8.43867 5.367053,8.43867 l 3.675742,-1.951709 z"
     id="path4522"
     inkscape:connector-curvature="0" />
  <path
     id="path4502"
     d="m 25.553018,38.819216 a 7.1932734,6.6109546 0 0 0 7.195241,6.610784 7.1932734,6.6109546 0 0 0 7.193087,-6.610784 7.1932734,6.6109546 0 0 0 -7.193087,-6.610783 7.1932734,6.6109546 0 0 0 -7.195241,6.610783 z m 2.825085,0.01981 a 4.3470141,3.9951092 0 0 1 4.346453,-3.994592 4.3470141,3.9951092 0 0 1 4.346452,3.994592 4.3470141,3.9951092 0 0 1 -4.346452,3.996573 4.3470141,3.9951092 0 0 1 -4.346453,-3.996573 z"
     style="opacity:1;fill:#c4a000;fill-opacity:1;fill-rule:nonzero;stroke:none;stroke-width:0.59020376;stroke-linecap:square;stroke-linejoin:round;stroke-miterlimit:4;stroke-dasharray:none;stroke-dashoffset:0;stroke-opacity:1;paint-order:stroke fill markers"
     inkscape:connector-curvature="0" />
  <ellipse
     style="opacity:1;fill:#eeeeec;fill-opacity:1;fill-rule:nonzero;stroke:#000000;stroke-width:0.2461791;stroke-linecap:square;stroke-linejoin:round;stroke-miterlimit:4;stroke-dasharray:none;stroke-dashoffset:0;stroke-opacity:1;paint-order:stroke fill markers"
     id="path4524"
     cx="23.896704"
     cy="25.365757"
     rx="1.2839626"
     ry="1.1800218" />
  <path
     style="display:none;fill:none;stroke:#000000;stroke-width:0.211;stroke-linecap:butt;stroke-linejoin:miter;stroke-miterlimit:4;stroke-dasharray:none;stroke-opacity:1"
     d="M 24,47 V 3"
     id="path4488"
     inkscape:connector-curvature="0" />
</svg>
