<?xml version="1.0" encoding="UTF-8" standalone="no"?>
<svg
   xmlns:dc="http://purl.org/dc/elements/1.1/"
   xmlns:cc="http://creativecommons.org/ns#"
   xmlns:rdf="http://www.w3.org/1999/02/22-rdf-syntax-ns#"
   xmlns:svg="http://www.w3.org/2000/svg"
   xmlns="http://www.w3.org/2000/svg"
   xmlns:sodipodi="http://sodipodi.sourceforge.net/DTD/sodipodi-0.dtd"
   xmlns:inkscape="http://www.inkscape.org/namespaces/inkscape"
   version="1"
   viewBox="0 0 48 48"
   enable-background="new 0 0 48 48"
   id="svg12"
   sodipodi:docname="delprf.svg"
   inkscape:version="0.92.4 (5da689c313, 2019-01-14)">
  <metadata
     id="metadata18">
    <rdf:RDF>
      <cc:Work
         rdf:about="">
        <dc:format>image/svg+xml</dc:format>
        <dc:type
           rdf:resource="http://purl.org/dc/dcmitype/StillImage" />
        <dc:title></dc:title>
      </cc:Work>
    </rdf:RDF>
  </metadata>
  <defs
     id="defs16">
    <inkscape:perspective
       sodipodi:type="inkscape:persp3d"
       inkscape:vp_x="101.20842 : -0.75793538 : 1"
       inkscape:vp_y="-440.24332 : 1952.4983 : 0"
       inkscape:vp_z="117.10493 : 31.795885 : 1"
       inkscape:persp3d-origin="112.67862 : -0.10101252 : 1"
       id="perspective4515" />
  </defs>
  <sodipodi:namedview
     pagecolor="#ffffff"
     bordercolor="#666666"
     borderopacity="1"
     objecttolerance="10"
     gridtolerance="10"
     guidetolerance="10"
     inkscape:pageopacity="0"
     inkscape:pageshadow="2"
     inkscape:window-width="1877"
     inkscape:window-height="904"
     id="namedview14"
     showgrid="true"
     inkscape:zoom="11.42"
     inkscape:cx="9.6164623"
     inkscape:cy="24.002463"
     inkscape:window-x="35"
     inkscape:window-y="49"
     inkscape:window-maximized="0"
     inkscape:current-layer="svg12"
     inkscape:measure-start="37,16"
     inkscape:measure-end="41,16">
    <inkscape:grid
       type="xygrid"
       id="grid4510" />
  </sodipodi:namedview>
  <rect
     style="display:none;opacity:1;fill:#555753;fill-opacity:1;fill-rule:nonzero;stroke:none;stroke-width:1.01552558;stroke-linecap:square;stroke-linejoin:round;stroke-miterlimit:4;stroke-dasharray:none;stroke-dashoffset:0;stroke-opacity:1;paint-order:stroke fill markers"
     id="rect6013"
     width="36.7374"
     height="6.4986739"
     x="5.3050394"
     y="27.92573"
     ry="2.2546401" />
  <rect
     ry="2.2546401"
     y="37.925728"
     x="5.3050394"
     height="6.4986739"
     width="36.7374"
     id="rect6015"
     style="display:none;opacity:1;fill:#555753;fill-opacity:1;fill-rule:nonzero;stroke:none;stroke-width:1.01552558;stroke-linecap:square;stroke-linejoin:round;stroke-miterlimit:4;stroke-dasharray:none;stroke-dashoffset:0;stroke-opacity:1;paint-order:stroke fill markers" />
  <rect
     style="display:none;opacity:1;fill:#555753;fill-opacity:1;fill-rule:nonzero;stroke:none;stroke-width:0.90502864;stroke-linecap:square;stroke-linejoin:round;stroke-miterlimit:4;stroke-dasharray:none;stroke-dashoffset:0;stroke-opacity:1;paint-order:stroke fill markers"
     id="rect6009"
     width="29.177719"
     height="6.4986739"
     x="5.3050394"
     y="7.9257298"
     ry="2.2546401" />
  <rect
     ry="2.2546401"
     y="17.92573"
     x="5.3050394"
     height="6.4986739"
     width="36.7374"
     id="rect6011"
     style="display:none;opacity:1;fill:#555753;fill-opacity:1;fill-rule:nonzero;stroke:none;stroke-width:1.01552558;stroke-linecap:square;stroke-linejoin:round;stroke-miterlimit:4;stroke-dasharray:none;stroke-dashoffset:0;stroke-opacity:1;paint-order:stroke fill markers" />
  <path
     style="opacity:1;fill:#ef2929;fill-opacity:1;fill-rule:nonzero;stroke:none;stroke-width:1.56629837;stroke-linecap:square;stroke-linejoin:round;stroke-miterlimit:4;stroke-dasharray:none;stroke-dashoffset:0;stroke-opacity:1;paint-order:stroke fill markers"
     d="M 12.518,9.5563767 V 40.816863 c 0,2.856553 1.738726,5.155783 3.896484,5.155783 h 15.589844 c 2.157759,-10e-7 3.894532,-2.29923 3.894532,-5.155783 V 9.5563767 Z"
     id="rect4488"
     inkscape:connector-curvature="0" />
  <path
     style="opacity:1;fill:#cc0000;fill-opacity:1;fill-rule:nonzero;stroke:none;stroke-width:1.49477124;stroke-linecap:square;stroke-linejoin:round;stroke-miterlimit:4;stroke-dasharray:none;stroke-dashoffset:0;stroke-opacity:1;paint-order:stroke fill markers"
     d="m 21.012956,2 c -0.984126,0 -1.776163,0.5961724 -1.776163,1.3369325 0,0.3314163 0.177792,0.6238764 0.441195,0.8570069 h -8.217603 c -1.019476,0 -1.8416312,0.6188433 -1.8416312,1.3862113 v 1.3840676 c 0,0.767368 0.8221552,1.3862093 1.8416312,1.3862093 h 25.464037 c 1.019476,0 1.841631,-0.6188413 1.841631,-1.3862093 V 5.5801507 c 0,-0.767368 -0.822155,-1.3862113 -1.841631,-1.3862113 H 29 C 29.263274,3.9608347 29.438348,3.6682579 29.438348,3.3369325 29.438348,2.5961724 28.646312,2 27.662184,2 Z"
     id="rect4510"
     inkscape:connector-curvature="0" />
  <path
     style="display:inline;opacity:1;fill:#eeeeec;fill-opacity:1;fill-rule:nonzero;stroke:none;stroke-width:1.30537236;stroke-linecap:square;stroke-linejoin:round;stroke-miterlimit:4;stroke-dasharray:none;stroke-dashoffset:0;stroke-opacity:1;paint-order:stroke fill markers"
     d="m 16.499219,15.390942 c -0.554,0 -1,0.600761 -1,1.346998 v 20.204952 c 0,0.746236 0.446,1.346997 1,1.346997 h 1 c 0.554,0 1,-0.600761 1,-1.346997 V 16.73794 c 0,-0.746237 -0.446,-1.346998 -1,-1.346998 z m 6.90039,0 c -0.554,0 -1,0.600761 -1,1.346998 v 20.204952 c 0,0.746236 0.446,1.346997 1,1.346997 h 1 c 0.554,0 1,-0.600761 1,-1.346997 V 16.73794 c 0,-0.746237 -0.446,-1.346998 -1,-1.346998 z m 7.300782,0 c -0.554,0 -1,0.600761 -1,1.346998 v 20.204952 c 0,0.746236 0.446,1.346997 1,1.346997 h 1 c 0.554,0 1,-0.600761 1,-1.346997 V 16.73794 c 0,-0.746237 -0.446,-1.346998 -1,-1.346998 z"
     id="rect4515"
     inkscape:connector-curvature="0" />
</svg>
