<?xml version="1.0" encoding="UTF-8" standalone="no"?>
<svg
   xmlns:dc="http://purl.org/dc/elements/1.1/"
   xmlns:cc="http://creativecommons.org/ns#"
   xmlns:rdf="http://www.w3.org/1999/02/22-rdf-syntax-ns#"
   xmlns:svg="http://www.w3.org/2000/svg"
   xmlns="http://www.w3.org/2000/svg"
   xmlns:sodipodi="http://sodipodi.sourceforge.net/DTD/sodipodi-0.dtd"
   xmlns:inkscape="http://www.inkscape.org/namespaces/inkscape"
   version="1"
   viewBox="0 0 48 48"
   enable-background="new 0 0 48 48"
   id="svg12"
   sodipodi:docname="analyzes.svg"
   inkscape:version="0.92.1 r15371">
  <metadata
     id="metadata18">
    <rdf:RDF>
      <cc:Work
         rdf:about="">
        <dc:format>image/svg+xml</dc:format>
        <dc:type
           rdf:resource="http://purl.org/dc/dcmitype/StillImage" />
        <dc:title />
      </cc:Work>
    </rdf:RDF>
  </metadata>
  <defs
     id="defs16">
    <inkscape:path-effect
       effect="bspline"
       id="path-effect4517"
       is_visible="true"
       weight="33.333333"
       steps="2"
       helper_size="0"
       apply_no_weight="true"
       apply_with_weight="true"
       only_selected="false" />
    <inkscape:perspective
       sodipodi:type="inkscape:persp3d"
       inkscape:vp_x="101.20842 : -0.75793538 : 1"
       inkscape:vp_y="-440.24332 : 1952.4983 : 0"
       inkscape:vp_z="117.10493 : 31.795885 : 1"
       inkscape:persp3d-origin="112.67862 : -0.10101252 : 1"
       id="perspective4515" />
  </defs>
  <sodipodi:namedview
     pagecolor="#ffffff"
     bordercolor="#666666"
     borderopacity="1"
     objecttolerance="10"
     gridtolerance="10"
     guidetolerance="10"
     inkscape:pageopacity="0"
     inkscape:pageshadow="2"
     inkscape:window-width="1877"
     inkscape:window-height="904"
     id="namedview14"
     showgrid="true"
     inkscape:zoom="11.42"
     inkscape:cx="43.924529"
     inkscape:cy="23.301938"
     inkscape:window-x="24"
     inkscape:window-y="41"
     inkscape:window-maximized="0"
     inkscape:current-layer="svg12">
    <inkscape:grid
       type="xygrid"
       id="grid4510" />
  </sodipodi:namedview>
  <path
     style="fill:#2e3436;stroke-width:1.0722363"
     d="m -22,3.6671294 -9.751286,9.3788186 -2.558413,2.459575 h -8.75906 V 29.34401 h 8.75906 l 2.558413,2.459577 L -22,41.182406 V 29.100757 a 12.505091,11.07079 0 0 0 3.941424,-8.05984 A 12.505091,11.07079 0 0 0 -22,13 Z m 3.941424,1.3919574 V 6.6861899 A 16.578553,14.677037 0 0 1 -2.711141,21.308499 16.578553,14.677037 0 0 1 -18.058576,35.944322 v 1.648725 A 18.426395,16.312936 0 0 0 -0.864075,21.332823 18.426395,16.312936 0 0 0 -18.058576,5.0590868 Z m 0,5.4813382 v 1.078428 a 10.992226,9.7314469 0 0 1 10.175653,9.695052 10.992226,9.7314469 0 0 1 -10.175653,9.705861 v 1.091942 A 12.217418,10.816111 0 0 0 -6.65867,21.330121 12.217418,10.816111 0 0 0 -18.058576,10.540425 Z m 2.265327,5.535394 v 0.524349 a 5.3508079,4.7370843 0 0 1 4.955021,4.719143 5.3508079,4.7370843 0 0 1 -4.955021,4.724545 v 0.532457 a 5.9472076,5.2650786 0 0 0 5.550355,-5.248895 5.9472076,5.2650786 0 0 0 -5.550355,-5.251599 z"
     id="path14"
     inkscape:connector-curvature="0" />
  <path
     style="fill:none;stroke:#000000;stroke-width:3.911;stroke-linecap:butt;stroke-linejoin:miter;stroke-miterlimit:4;stroke-dasharray:none;stroke-opacity:1"
     d="M 2,23.478916 H 13 L 18.5,41 29.5,7 35,23.478916 h 11"
     id="path4523"
     inkscape:connector-curvature="0"
     sodipodi:nodetypes="cccccc" />
</svg>
