<?xml version="1.0" encoding="UTF-8" standalone="no"?>
<svg
   xmlns:dc="http://purl.org/dc/elements/1.1/"
   xmlns:cc="http://creativecommons.org/ns#"
   xmlns:rdf="http://www.w3.org/1999/02/22-rdf-syntax-ns#"
   xmlns:svg="http://www.w3.org/2000/svg"
   xmlns="http://www.w3.org/2000/svg"
   xmlns:sodipodi="http://sodipodi.sourceforge.net/DTD/sodipodi-0.dtd"
   xmlns:inkscape="http://www.inkscape.org/namespaces/inkscape"
   version="1"
   viewBox="0 0 48 48"
   enable-background="new 0 0 48 48"
   id="svg12"
   sodipodi:docname="settings.svg"
   inkscape:version="0.92.1 r15371">
  <metadata
     id="metadata18">
    <rdf:RDF>
      <cc:Work
         rdf:about="">
        <dc:format>image/svg+xml</dc:format>
        <dc:type
           rdf:resource="http://purl.org/dc/dcmitype/StillImage" />
        <dc:title />
      </cc:Work>
    </rdf:RDF>
  </metadata>
  <defs
     id="defs16">
    <inkscape:perspective
       sodipodi:type="inkscape:persp3d"
       inkscape:vp_x="101.20842 : -0.75793538 : 1"
       inkscape:vp_y="-440.24332 : 1952.4983 : 0"
       inkscape:vp_z="117.10493 : 31.795885 : 1"
       inkscape:persp3d-origin="112.67862 : -0.10101252 : 1"
       id="perspective4515" />
  </defs>
  <sodipodi:namedview
     pagecolor="#ffffff"
     bordercolor="#666666"
     borderopacity="1"
     objecttolerance="10"
     gridtolerance="10"
     guidetolerance="10"
     inkscape:pageopacity="0"
     inkscape:pageshadow="2"
     inkscape:window-width="1877"
     inkscape:window-height="904"
     id="namedview14"
     showgrid="true"
     inkscape:zoom="11.42"
     inkscape:cx="-7.8966725"
     inkscape:cy="23.301938"
     inkscape:window-x="24"
     inkscape:window-y="41"
     inkscape:window-maximized="0"
     inkscape:current-layer="svg12">
    <inkscape:grid
       type="xygrid"
       id="grid4510" />
  </sodipodi:namedview>
  <rect
     style="display:none;opacity:1;fill:#555753;fill-opacity:1;fill-rule:nonzero;stroke:none;stroke-width:1.01552558;stroke-linecap:square;stroke-linejoin:round;stroke-miterlimit:4;stroke-dasharray:none;stroke-dashoffset:0;stroke-opacity:1;paint-order:stroke fill markers"
     id="rect6013"
     width="36.7374"
     height="6.4986739"
     x="5.3050394"
     y="27.92573"
     ry="2.2546401" />
  <rect
     ry="2.2546401"
     y="37.925728"
     x="5.3050394"
     height="6.4986739"
     width="36.7374"
     id="rect6015"
     style="display:none;opacity:1;fill:#555753;fill-opacity:1;fill-rule:nonzero;stroke:none;stroke-width:1.01552558;stroke-linecap:square;stroke-linejoin:round;stroke-miterlimit:4;stroke-dasharray:none;stroke-dashoffset:0;stroke-opacity:1;paint-order:stroke fill markers" />
  <rect
     style="display:none;opacity:1;fill:#555753;fill-opacity:1;fill-rule:nonzero;stroke:none;stroke-width:0.90502864;stroke-linecap:square;stroke-linejoin:round;stroke-miterlimit:4;stroke-dasharray:none;stroke-dashoffset:0;stroke-opacity:1;paint-order:stroke fill markers"
     id="rect6009"
     width="29.177719"
     height="6.4986739"
     x="5.3050394"
     y="7.9257298"
     ry="2.2546401" />
  <rect
     ry="2.2546401"
     y="17.92573"
     x="5.3050394"
     height="6.4986739"
     width="36.7374"
     id="rect6011"
     style="display:none;opacity:1;fill:#555753;fill-opacity:1;fill-rule:nonzero;stroke:none;stroke-width:1.01552558;stroke-linecap:square;stroke-linejoin:round;stroke-miterlimit:4;stroke-dasharray:none;stroke-dashoffset:0;stroke-opacity:1;paint-order:stroke fill markers" />
  <path
     style="fill:#2e3436;stroke-width:0.68595183"
     d="m -16,21.029395 -6.238282,6 -1.636718,1.573487 h -5.603516 v 8.853026 H -23.875 l 1.636718,1.573488 6.238282,6 V 37.300289 A 8,7.082421 0 0 0 -13.478516,32.144092 8,7.082421 0 0 0 -16,27 Z m 2.521484,0.89049 v 1.040922 a 10.605954,9.389479 0 0 1 9.818359,9.354467 10.605954,9.389479 0 0 1 -9.818359,9.363113 v 1.054755 a 11.788091,10.436028 0 0 0 11,-10.402306 11.788091,10.436028 0 0 0 -11,-10.410951 z m 0,3.506628 v 0.689913 a 7.0321604,6.2255901 0 0 1 6.509766,6.202307 7.0321604,6.2255901 0 0 1 -6.509766,6.209222 v 0.698558 a 7.8159632,6.9194928 0 0 0 7.292969,-6.897406 7.8159632,6.9194928 0 0 0 -7.292969,-6.902594 z m 1.449219,3.54121 v 0.335447 a 3.4231227,3.0304995 0 0 1 3.169922,3.019021 3.4231227,3.0304995 0 0 1 -3.169922,3.022478 v 0.340634 a 3.8046631,3.3682783 0 0 0 3.550781,-3.357925 3.8046631,3.3682783 0 0 0 -3.550781,-3.359655 z"
     id="path14"
     inkscape:connector-curvature="0" />
  <rect
     style="fill:#000000;stroke-width:1.34843779"
     id="rect38"
     width="44"
     height="3.4712701"
     x="-46"
     y="7.6544394"
     ry="2.082762"
     rx="1.257143"
     transform="rotate(-90)" />
  <circle
     style="fill:#000000;stroke:#000000;stroke-width:0.69999999;stroke-miterlimit:4;stroke-dasharray:none;stroke-opacity:1"
     id="path40"
     cx="9.3999996"
     cy="19.200001"
     r="6" />
  <rect
     transform="rotate(-90)"
     rx="1.257143"
     ry="2.082762"
     y="22.321102"
     x="-46"
     height="3.4712701"
     width="44"
     id="rect847"
     style="fill:#000000;stroke-width:1.34843779" />
  <circle
     r="6"
     cy="31.200001"
     cx="23.999994"
     id="circle849"
     style="fill:#000000;stroke:#000000;stroke-width:0.69999999;stroke-miterlimit:4;stroke-dasharray:none;stroke-opacity:1" />
  <rect
     style="fill:#000000;stroke-width:1.34843779;fill-opacity:1"
     id="rect851"
     width="44"
     height="3.4712701"
     x="-46"
     y="36.987774"
     ry="2.082762"
     rx="1.257143"
     transform="rotate(-90)" />
  <circle
     style="fill:#000000;stroke:#000000;stroke-width:0.69999999;stroke-miterlimit:4;stroke-dasharray:none;stroke-opacity:1"
     id="circle853"
     cx="38.700001"
     cy="13.200001"
     r="6" />
</svg>
