<?xml version="1.0" encoding="UTF-8" standalone="no"?>
<!-- Created with Inkscape (http://www.inkscape.org/) -->

<svg
   xmlns:osb="http://www.openswatchbook.org/uri/2009/osb"
   xmlns:dc="http://purl.org/dc/elements/1.1/"
   xmlns:cc="http://creativecommons.org/ns#"
   xmlns:rdf="http://www.w3.org/1999/02/22-rdf-syntax-ns#"
   xmlns:svg="http://www.w3.org/2000/svg"
   xmlns="http://www.w3.org/2000/svg"
   xmlns:sodipodi="http://sodipodi.sourceforge.net/DTD/sodipodi-0.dtd"
   xmlns:inkscape="http://www.inkscape.org/namespaces/inkscape"
   width="256px"
   height="256px"
   viewBox="0 0 256 256"
   version="1.1"
   id="SVGRoot"
   sodipodi:docname="filmstrip1.svg"
   inkscape:version="0.92.1 r15371"
   enable-background="new">
  <sodipodi:namedview
     id="base"
     pagecolor="#ffffff"
     bordercolor="#666666"
     borderopacity="1.0"
     inkscape:pageopacity="0.0"
     inkscape:pageshadow="2"
     inkscape:zoom="2.86"
     inkscape:cx="76.499759"
     inkscape:cy="122.29749"
     inkscape:document-units="px"
     inkscape:current-layer="layer3"
     showgrid="true"
     inkscape:window-width="1920"
     inkscape:window-height="1026"
     inkscape:window-x="0"
     inkscape:window-y="26"
     inkscape:window-maximized="1"
     inkscape:grid-bbox="true"
     inkscape:measure-start="0,0"
     inkscape:measure-end="0,0"
     showguides="false">
    <inkscape:grid
       type="xygrid"
       id="grid5114" />
  </sodipodi:namedview>
  <defs
     id="defs4485">
    <pattern
       inkscape:isstock="true"
       inkscape:stockid="Stripes 1:1"
       id="Strips1_1"
       patternTransform="translate(0,0) scale(10,10)"
       height="1"
       width="2"
       patternUnits="userSpaceOnUse"
       inkscape:collect="always">
      <rect
         id="rect5447"
         height="2"
         width="1"
         y="-0.5"
         x="0"
         style="fill:black;stroke:none" />
    </pattern>
    <linearGradient
       id="linearGradient4727"
       osb:paint="solid">
      <stop
         style="stop-color:#ce5c00;stop-opacity:1;"
         offset="0"
         id="stop4725" />
    </linearGradient>
    <filter
       inkscape:collect="always"
       style="color-interpolation-filters:sRGB"
       id="filter4658"
       x="-0.19199999"
       width="1.384"
       y="-0.19199999"
       height="1.384">
      <feGaussianBlur
         inkscape:collect="always"
         stdDeviation="15.599999"
         id="feGaussianBlur4660" />
    </filter>
    <pattern
       patternUnits="userSpaceOnUse"
       width="55"
       height="90"
       patternTransform="translate(-60,50.5)"
       id="pattern6214">
      <g
         style="fill:url(#Strips1_1);fill-opacity:1"
         transform="translate(-15,-28.5)"
         id="g4691">
        <rect
           style="opacity:0.81499999;fill:url(#Strips1_1);fill-opacity:1;stroke:none;stroke-width:4.52699995;stroke-linecap:round;stroke-linejoin:bevel;stroke-miterlimit:17.60000038;stroke-dasharray:none;stroke-dashoffset:0;stroke-opacity:1;paint-order:stroke fill markers"
           id="rect4683"
           width="30"
           height="30"
           x="40"
           y="59"
           ry="7.9000001" />
        <path
           inkscape:connector-curvature="0"
           style="opacity:0.81499999;fill:url(#Strips1_1);fill-opacity:1;stroke:none;stroke-width:8.60130024;stroke-linecap:round;stroke-linejoin:bevel;stroke-miterlimit:17.60000038;stroke-dasharray:none;stroke-dashoffset:0;stroke-opacity:1;paint-order:stroke fill markers"
           d="m 15,28.5 v 90 l 45,-45 z"
           id="path4687" />
      </g>
    </pattern>
  </defs>
  <metadata
     id="metadata4488">
    <rdf:RDF>
      <cc:Work
         rdf:about="">
        <dc:format>image/svg+xml</dc:format>
        <dc:type
           rdf:resource="http://purl.org/dc/dcmitype/StillImage" />
        <dc:title />
      </cc:Work>
    </rdf:RDF>
  </metadata>
  <g
     inkscape:groupmode="layer"
     id="layer3"
     inkscape:label="sfondo"
     style="display:inline">
    <rect
       style="display:inline;opacity:0.81499999;fill:#888a85;fill-opacity:0.96750901;stroke:#73d216;stroke-width:4.52699995;stroke-linecap:round;stroke-linejoin:bevel;stroke-miterlimit:17.60000038;stroke-dasharray:none;stroke-dashoffset:0;stroke-opacity:1;paint-order:stroke fill markers"
       id="rect4568-3"
       width="245"
       height="245"
       x="5"
       y="6"
       ry="25" />
    <rect
       ry="19.897959"
       y="32"
       x="31"
       height="195"
       width="195"
       id="rect4586"
       style="display:inline;opacity:0.81499999;fill:#eeeeec;fill-opacity:1;stroke:none;stroke-width:3.60312247;stroke-linecap:round;stroke-linejoin:bevel;stroke-miterlimit:17.60000038;stroke-dasharray:none;stroke-dashoffset:0;stroke-opacity:1;paint-order:stroke fill markers;filter:url(#filter4658)" />
  </g>
  <g
     id="layer1"
     inkscape:groupmode="layer"
     inkscape:label="Livello 1"
     style="display:inline;opacity:1">
    <path
       style="fill:#000000;fill-opacity:0.8835983;stroke:none;stroke-width:0.93650758"
       d="M 176.8741,26.66806 24.860888,176.70694 78.190297,230.40872 229.85175,80.718439 Z"
       id="rect5216"
       inkscape:connector-curvature="0" />
    <path
       style="fill:#555753;fill-opacity:0.8835983;stroke:none;stroke-width:0.95010805"
       d="M 159.35697,9.223816 7.817534,158.79366 29.083697,180.36723 c 0.57187,-1.73564 1.547511,-3.36884 2.942499,-4.74571 l 16.919759,-16.6995 c 4.68669,-4.6258 12.184629,-4.57803 16.810426,0.10933 l 30.806698,31.21234 c 4.625831,4.68669 4.575381,12.18306 -0.110916,16.80884 l -16.919756,16.69952 c -1.408406,1.39011 -3.070443,2.3507 -4.831279,2.89496 L 95.984724,248.238 247.23578,98.95178 224.18224,75.414967 c 0.13141,3.286242 -1.06066,6.612613 -3.5969,9.115876 l -17.2652,17.041777 c -4.78237,4.72021 -12.43089,4.66985 -17.1511,-0.11251 L 155.70301,70.593201 c -4.7202,-4.782337 -4.67143,-12.430897 0.11093,-17.151103 l 17.26519,-17.04177 c 2.62452,-2.590422 6.11184,-3.734091 9.50566,-3.457475 z m 1.92365,6.880089 c 1.24001,0.0081 2.47695,0.49022 3.42102,1.446689 l 6.7565,6.846815 c 1.88808,1.912935 1.86864,4.972993 -0.0443,6.861074 l -3.45272,3.409939 c -1.91293,1.888082 -4.97459,1.866976 -6.86266,-0.04595 l -6.7565,-6.846813 c -1.88809,-1.912937 -1.86855,-4.971409 0.0443,-6.859491 l 3.45272,-3.408354 c 0.95647,-0.944042 2.20161,-1.412014 3.44164,-1.403907 z m -13.81248,13.633416 c 1.24001,0.0081 2.47699,0.491805 3.42102,1.448272 l 6.7565,6.845231 c 1.88807,1.912932 1.86707,4.972991 -0.0459,6.861074 l -3.45114,3.406769 c -1.91294,1.888085 -4.97299,1.86857 -6.86107,-0.04436 l -6.7565,-6.846813 c -1.88806,-1.912939 -1.86704,-4.972993 0.0459,-6.861077 l 3.4527,-3.406769 c 0.95649,-0.94404 2.19845,-1.410429 3.43848,-1.402321 z m -13.81247,13.631831 c 1.24002,0.0081 2.47699,0.491805 3.42103,1.448273 l 6.7565,6.846814 c 1.88807,1.912933 1.87016,4.971404 -0.0428,6.859491 l -3.45272,3.408355 c -1.91294,1.888086 -4.97459,1.868572 -6.86266,-0.04437 l -6.7565,-6.846814 c -1.88809,-1.912939 -1.86705,-4.97141 0.0459,-6.85949 l 3.45273,-3.409939 c 0.95647,-0.944042 2.19846,-1.410429 3.43846,-1.402322 z m -13.81089,13.631831 c 1.23953,0.0078 2.47882,0.492884 3.42263,1.448273 l 6.7549,6.84523 c 1.88808,1.91294 1.86791,4.972983 -0.0443,6.861075 l -3.45273,3.409939 c -1.91293,1.888076 -4.97299,1.866981 -6.86107,-0.04595 l -6.7565,-6.846814 c -1.88807,-1.912932 -1.87018,-4.971413 0.0428,-6.85949 l 3.45272,-3.409939 c 0.95649,-0.944043 2.20128,-1.410147 3.44164,-1.402321 z m -13.81246,13.631832 c 1.24,0.0081 2.47698,0.491801 3.42102,1.448272 l 6.75651,6.846814 c 1.8881,1.912929 1.87023,4.971382 -0.0428,6.859491 l -3.45274,3.408348 c -1.91295,1.88809 -4.9746,1.86956 -6.86266,-0.0428 l -6.75649,-6.846812 c -1.888092,-1.912929 -1.8666,-4.972993 0.046,-6.86107 l 3.45274,-3.408345 c 0.95647,-0.944055 2.19845,-1.412016 3.43846,-1.403906 z m 34.21189,3.157995 c 3.10036,0.02027 6.19328,1.22793 8.55336,3.619098 l 30.46444,30.866922 c 4.72022,4.78233 4.66987,12.4309 -0.11249,17.1511 l -17.26361,17.04177 c -4.78235,4.7202 -12.43249,4.66983 -17.15269,-0.1125 l -30.46445,-30.86692 c -4.7202,-4.78234 -4.67141,-12.43091 0.11093,-17.15111 l 17.26361,-17.041764 c 2.39116,-2.360103 5.50052,-3.526867 8.6009,-3.506596 z M 92.219846,84.266232 c 1.240015,0.0078 2.478582,0.491801 3.422621,1.448269 l 6.756493,6.846819 c 1.88808,1.91293 1.86865,4.9714 -0.0443,6.85949 l -3.45272,3.40836 c -1.91295,1.88809 -4.972988,1.86697 -6.861077,-0.0459 l -6.756499,-6.84524 c -1.888079,-1.91295 -1.870146,-4.97298 0.04279,-6.86107 l 3.45272,-3.408358 c 0.956478,-0.94404 2.200033,-1.410419 3.440047,-1.402318 z m 136.926774,0.595782 c 1.24002,0.0078 2.47541,0.49181 3.41945,1.448279 l 6.75807,6.846817 c 1.88808,1.91294 1.86708,4.9714 -0.0459,6.85949 l -3.45272,3.40994 c -1.9129,1.88808 -4.97299,1.86862 -6.86107,-0.0443 l -6.75809,-6.84681 c -1.88809,-1.91293 -1.86707,-4.97141 0.0459,-6.85949 l 3.45432,-3.411518 c 0.95645,-0.94404 2.20002,-1.410429 3.44003,-1.402328 z M 78.408968,97.89806 c 1.240346,0.008 2.47857,0.49052 3.422611,1.44669 l 6.756498,6.84682 c 1.888089,1.91294 1.866596,4.97456 -0.04591,6.86267 l -3.45273,3.40676 c -1.912937,1.88807 -4.972984,1.86855 -6.861073,-0.0443 l -6.756489,-6.84683 c -1.888077,-1.91297 -1.86699,-4.9714 0.04595,-6.8595 l 3.452722,-3.40836 c 0.956469,-0.94404 2.198108,-1.4116 3.438453,-1.4039 z m 136.925192,0.59738 c 1.24001,0.008 2.47539,0.49021 3.41944,1.44668 l 6.75808,6.84682 c 1.88809,1.91293 1.86861,4.97301 -0.0443,6.86108 l -3.45272,3.40835 c -1.91294,1.88805 -4.97298,1.86704 -6.86108,-0.0459 l -6.75808,-6.84523 c -1.88806,-1.91294 -1.86705,-4.973 0.0459,-6.86108 l 3.45272,-3.40676 c 0.95648,-0.94404 2.20003,-1.41202 3.44005,-1.40391 z M 64.596494,111.52989 c 1.240015,0.008 2.478577,0.49184 3.422616,1.44828 l 6.756493,6.84681 c 1.888079,1.91293 1.868571,4.9714 -0.04434,6.8595 l -3.454307,3.40993 c -1.912931,1.88808 -4.972994,1.86707 -6.861075,-0.0459 l -6.756494,-6.84523 c -1.888083,-1.91293 -1.866987,-4.97298 0.04595,-6.86107 l 3.452721,-3.40995 c 0.956469,-0.94404 2.198444,-1.41042 3.438461,-1.40233 z m 136.925196,0.59895 c 1.24001,0.008 2.4754,0.49179 3.41943,1.44829 l 6.75968,6.84522 c 1.88808,1.91294 1.86705,4.973 -0.0459,6.86108 l -3.45273,3.40677 c -1.91294,1.88808 -4.97301,1.86849 -6.86107,-0.0443 l -6.75808,-6.84681 c -1.88809,-1.91293 -1.86705,-4.97299 0.0459,-6.86107 l 3.45271,-3.40678 c 0.95647,-0.94403 2.20002,-1.41043 3.44004,-1.40232 z m -102.71331,2.45764 c 3.03841,0.0196 6.06934,1.20412 8.38223,3.5478 l 30.8083,31.21234 c 4.6258,4.6867 4.57508,12.18305 -0.11093,16.80884 l -16.91976,16.69951 c -4.68667,4.6258 -12.18305,4.57799 -16.80884,-0.10933 L 73.3511,151.53329 c -4.6258,-4.68668 -4.575368,-12.18462 0.110918,-16.81043 l 16.918171,-16.69792 c 2.343352,-2.3129 5.389794,-3.45807 8.428191,-3.43846 z m -48.02277,10.57526 v 0.002 c 1.240014,0.008 2.47699,0.49177 3.42103,1.44827 l 6.756496,6.84523 c 1.888077,1.91293 1.868586,4.973 -0.04437,6.86107 l -3.452721,3.40836 c -1.91294,1.8881 -4.972988,1.86698 -6.861075,-0.0459 l -6.756494,-6.84681 c -1.888081,-1.91295 -1.866985,-4.97139 0.04595,-6.85949 l 3.452721,-3.40835 c 0.956473,-0.94405 2.198448,-1.41201 3.43846,-1.40391 z m 136.92519,0.59895 c 1.23951,0.008 2.47725,0.49272 3.42103,1.44826 l 6.75649,6.84365 c 1.88808,1.91294 1.8664,4.97456 -0.0459,6.86266 l -3.45274,3.40836 c -1.91289,1.88809 -4.97139,1.86699 -6.85948,-0.0459 l -6.75811,-6.84526 c -1.8881,-1.91293 -1.86709,-4.97299 0.0459,-6.86108 l 3.45273,-3.40836 c 0.95645,-0.94403 2.19968,-1.41017 3.44003,-1.40232 z M 36.973142,138.79513 c 1.240015,0.008 2.476988,0.49186 3.42103,1.44829 l 6.756494,6.8468 c 1.888085,1.91295 1.870157,4.973 -0.04278,6.86107 l -3.452721,3.40679 c -1.912937,1.88809 -4.974577,1.86696 -6.862659,-0.0459 l -6.756496,-6.84523 c -1.888081,-1.91293 -1.866982,-4.97297 0.04595,-6.86107 l 3.452721,-3.40678 c 0.95647,-0.94404 2.198447,-1.41201 3.438461,-1.40391 z m 136.923608,0.59579 h 0.002 c 1.24002,0.008 2.47542,0.49185 3.41946,1.44828 h 0.002 l 6.75809,6.84682 c 1.88809,1.91297 1.86708,4.97298 -0.0459,6.86107 l -3.45272,3.40678 c -1.91294,1.88808 -4.97302,1.87082 -6.86108,-0.0428 l -6.75807,-6.84681 c -1.88808,-1.91293 -1.86632,-4.97298 0.0459,-6.86107 l 3.45272,-3.40996 c 0.95648,-0.94405 2.19844,-1.41041 3.43846,-1.4023 z M 23.160673,152.42698 c 1.240349,0.008 2.478572,0.49145 3.422614,1.44827 l 6.756495,6.84681 c 1.888083,1.91294 1.868601,4.973 -0.04436,6.86108 l -3.452724,3.40676 c -1.912936,1.88809 -4.974579,1.8702 -6.862659,-0.0428 l -6.756496,-6.8468 c -1.888083,-1.91293 -1.86697,-4.97299 0.04595,-6.86107 l 3.45272,-3.40676 c 0.956472,-0.94404 2.198111,-1.41335 3.43846,-1.40549 z m 136.925177,0.59737 c 1.24002,0.008 2.47699,0.49182 3.42105,1.44826 l 6.75807,6.84682 c 1.88808,1.91295 1.86706,4.9714 -0.0459,6.85949 l -3.45272,3.40836 c -1.91292,1.88809 -4.97138,1.8685 -6.85948,-0.0443 l -6.75809,-6.84681 c -1.88809,-1.91294 -1.86861,-4.97299 0.0443,-6.86109 l 3.45271,-3.40676 c 0.95647,-0.94403 2.20004,-1.41201 3.44006,-1.4039 z m -13.81087,13.63341 c 1.24033,0.008 2.47699,0.49147 3.42103,1.44828 l 6.75808,6.84365 c 1.88807,1.9129 1.86628,4.97454 -0.0459,6.86266 l -3.45271,3.40835 c -1.91294,1.88808 -4.973,1.86706 -6.86108,-0.0459 l -6.75808,-6.84682 c -1.88805,-1.91291 -1.86705,-4.97141 0.0459,-6.85949 l 3.45272,-3.40835 c 0.95648,-0.94404 2.1997,-1.41018 3.44005,-1.40232 z M 132.4641,180.2896 c 1.24,0.008 2.47541,0.49177 3.41944,1.44826 l 6.75809,6.84523 c 1.88808,1.91294 1.86706,4.97298 -0.0459,6.86107 l -3.45273,3.40836 c -1.91294,1.88809 -4.97299,1.86865 -6.86107,-0.0443 l -6.75808,-6.84682 c -1.88807,-1.91291 -1.86706,-4.9714 0.0459,-6.85949 l 3.45271,-3.40993 c 0.95648,-0.94404 2.20163,-1.41044 3.44164,-1.40232 z m -13.81247,13.63182 c 1.24002,0.008 2.4754,0.49183 3.41944,1.44828 l 6.75808,6.84682 c 1.88807,1.91293 1.86858,4.97139 -0.0443,6.85948 l -3.4543,3.40677 c -1.91293,1.8881 -4.97143,1.87009 -6.85949,-0.0428 l -6.75809,-6.84682 c -1.88809,-1.9129 -1.86697,-4.97141 0.0459,-6.85949 l 3.45272,-3.40992 c 0.95648,-0.94405 2.20005,-1.41045 3.44005,-1.40233 z m -13.81247,13.63183 c 1.24001,0.008 2.47541,0.49178 3.41944,1.44827 l 6.75809,6.84682 c 1.88807,1.91294 1.86849,4.97142 -0.0443,6.85949 l -3.45274,3.40994 c -1.91293,1.88808 -4.97297,1.86698 -6.86107,-0.0459 l -6.75807,-6.84683 c -1.88808,-1.91295 -1.867024,-4.9714 0.046,-6.85948 l 3.45272,-3.40836 c 0.95647,-0.94404 2.20003,-1.41202 3.44004,-1.40391 z m -13.810887,13.63342 c 1.240345,0.008 2.47541,0.49145 3.41944,1.44827 l 6.758077,6.84365 c 1.88808,1.91293 1.86664,4.97616 -0.0459,6.86424 l -3.452713,3.40677 c -1.912937,1.88808 -4.971428,1.86704 -6.859488,-0.0459 l -6.758083,-6.84522 c -1.88808,-1.91293 -1.868582,-4.97298 0.04434,-6.86108 l 3.45272,-3.40677 c 0.956468,-0.94403 2.201287,-1.41176 3.441633,-1.4039 z"
       id="rect5116"
       inkscape:connector-curvature="0" />
  </g>
  <g
     inkscape:groupmode="layer"
     id="layer2"
     inkscape:label="Livello 2"
     style="display:none">
    <g
       transform="rotate(-44.88373,75.254504,37.456092)"
       id="g4564"
       style="fill:#555753;fill-opacity:0.99607843">
      <path
         style="opacity:0.81499999;fill:#555753;fill-opacity:0.99607843;stroke:none;stroke-width:4.52699995;stroke-linecap:round;stroke-linejoin:bevel;stroke-miterlimit:17.60000038;stroke-dasharray:none;stroke-dashoffset:0;stroke-opacity:1;paint-order:stroke fill markers"
         d="M 51.29418,7.3037002 A 57.894737,57.894737 0 0 0 -6.4454933,61.855201 l 8.7617241,-0.0057 A 49.588242,49.588242 0 0 1 51.684641,15.994848 49.588242,49.588242 0 0 1 101.14823,61.784724 l 7.90625,-0.0052 A 57.894737,57.894737 0 0 0 51.29418,7.3037002 Z"
         id="path4558"
         inkscape:connector-curvature="0" />
      <path
         inkscape:connector-curvature="0"
         id="path4560"
         d="M 51.614981,24.013487 A 42.438207,42.438207 0 0 0 9.290437,64.001023 l 6.422559,-0.0042 a 36.34935,36.34935 45 0 1 36.188215,-33.61252 36.34935,36.34935 45 0 1 36.257968,33.565061 l 5.795474,-0.0038 A 42.438207,42.438207 0 0 0 51.614981,24.013487 Z"
         style="opacity:0.81499999;fill:#555753;fill-opacity:0.99607843;stroke:none;stroke-width:3.31839776;stroke-linecap:round;stroke-linejoin:bevel;stroke-miterlimit:17.60000038;stroke-dasharray:none;stroke-dashoffset:0;stroke-opacity:1;paint-order:stroke fill markers" />
      <path
         style="opacity:0.81499999;fill:#555753;fill-opacity:0.99607843;stroke:none;stroke-width:2.3552928;stroke-linecap:round;stroke-linejoin:bevel;stroke-miterlimit:17.60000038;stroke-dasharray:none;stroke-dashoffset:0;stroke-opacity:1;paint-order:stroke fill markers"
         d="M 51.794185,38.186802 A 30.121285,30.121285 0 0 0 21.753571,66.56868 l 4.558529,-0.003 A 25.79961,25.79961 45 0 1 51.997342,42.708602 25.79961,25.79961 45 0 1 77.732088,66.532019 l 4.113437,-0.0027 A 30.121285,30.121285 0 0 0 51.794185,38.186802 Z"
         id="path4562"
         inkscape:connector-curvature="0" />
    </g>
    <path
       style="display:inline;opacity:0.81499999;fill:#555753;fill-opacity:1;stroke:none;stroke-width:4.17832613;stroke-linecap:round;stroke-linejoin:bevel;stroke-miterlimit:17.60000038;stroke-dasharray:none;stroke-dashoffset:0;stroke-opacity:1;paint-order:stroke fill markers"
       d="m 136.13922,228.55378 52.50544,-4.19844 22.13023,22.13023 35.35534,-35.35534 L 224,189 l 4.19983,-52.50682 z"
       id="path6229-6"
       inkscape:connector-curvature="0" />
  </g>
  <g
     inkscape:groupmode="layer"
     id="layer4"
     inkscape:label="freccie"
     style="display:inline;">
    <path
       style="display:inline;fill:#000000;fill-opacity:0.8835983;stroke:none;stroke-width:0.93158162"
       d="M 245.62788,156.65676 H 215.97189 A 82.084811,94.310895 88.352449 0 1 181.24946,196.175 l -3.33058,-11.50558 -44.92955,38.93332 60.5707,15.09352 -4.6877,-16.19202 a 122.61134,108.6919 0.45419171 0 0 56.75555,-65.84748 z M 120.48198,33.091786 59.913131,18 64.870016,35.126887 A 122.61134,108.6919 0.45419171 0 0 9.8354476,98.719895 H 40.625778 A 82.084811,94.310895 88.352449 0 1 72.916175,62.911512 l 2.638104,9.111825 z"
       id="path4664-6"
       inkscape:connector-curvature="0" />
  </g>
</svg>
