<?xml version="1.0" encoding="UTF-8" standalone="no"?>
<!-- Created with Inkscape (http://www.inkscape.org/) -->

<svg
   xmlns:osb="http://www.openswatchbook.org/uri/2009/osb"
   xmlns:dc="http://purl.org/dc/elements/1.1/"
   xmlns:cc="http://creativecommons.org/ns#"
   xmlns:rdf="http://www.w3.org/1999/02/22-rdf-syntax-ns#"
   xmlns:svg="http://www.w3.org/2000/svg"
   xmlns="http://www.w3.org/2000/svg"
   xmlns:sodipodi="http://sodipodi.sourceforge.net/DTD/sodipodi-0.dtd"
   xmlns:inkscape="http://www.inkscape.org/namespaces/inkscape"
   width="256px"
   height="256px"
   viewBox="0 0 256 256"
   version="1.1"
   id="SVGRoot"
   sodipodi:docname="filmstrip2.svg"
   inkscape:version="0.92.1 r15371"
   enable-background="new"
   inkscape:export-filename="/home/gianluca/Pubblici/MyGitHub/Resources/Videomass2/Edit/vid.png"
   inkscape:export-xdpi="90.009048"
   inkscape:export-ydpi="90.009048">
  <sodipodi:namedview
     id="base"
     pagecolor="#ffffff"
     bordercolor="#666666"
     borderopacity="1.0"
     inkscape:pageopacity="0.0"
     inkscape:pageshadow="2"
     inkscape:zoom="2.49"
     inkscape:cx="35.233692"
     inkscape:cy="119.86414"
     inkscape:document-units="px"
     inkscape:current-layer="layer8"
     showgrid="true"
     inkscape:window-width="1920"
     inkscape:window-height="1026"
     inkscape:window-x="0"
     inkscape:window-y="26"
     inkscape:window-maximized="1"
     inkscape:grid-bbox="true"
     inkscape:measure-start="0,0"
     inkscape:measure-end="0,0"
     showguides="false">
    <inkscape:grid
       type="xygrid"
       id="grid5114" />
  </sodipodi:namedview>
  <defs
     id="defs4485">
    <inkscape:path-effect
       effect="skeletal"
       id="path-effect4638"
       is_visible="true"
       pattern="M 0,5 C 0,2.24 2.24,0 5,0 7.76,0 10,2.24 10,5 10,7.76 7.76,10 5,10 2.24,10 0,7.76 0,5 Z"
       copytype="single_stretched"
       prop_scale="1"
       scale_y_rel="false"
       spacing="0"
       normal_offset="0"
       tang_offset="0"
       prop_units="false"
       vertical_pattern="false"
       fuse_tolerance="0" />
    <inkscape:path-effect
       effect="bspline"
       id="path-effect4636"
       is_visible="true"
       weight="33.333333"
       steps="2"
       helper_size="0"
       apply_no_weight="true"
       apply_with_weight="true"
       only_selected="false" />
    <pattern
       inkscape:isstock="true"
       inkscape:stockid="Stripes 1:1"
       id="Strips1_1"
       patternTransform="translate(0,0) scale(10,10)"
       height="1"
       width="2"
       patternUnits="userSpaceOnUse"
       inkscape:collect="always">
      <rect
         id="rect5447"
         height="2"
         width="1"
         y="-0.5"
         x="0"
         style="fill:black;stroke:none" />
    </pattern>
    <linearGradient
       id="linearGradient4727"
       osb:paint="solid">
      <stop
         style="stop-color:#ce5c00;stop-opacity:1;"
         offset="0"
         id="stop4725" />
    </linearGradient>
    <pattern
       patternUnits="userSpaceOnUse"
       width="55"
       height="90"
       patternTransform="translate(-60,50.5)"
       id="pattern6214">
      <g
         style="fill:url(#Strips1_1);fill-opacity:1"
         transform="translate(-15,-28.5)"
         id="g4691">
        <rect
           style="opacity:0.81499999;fill:url(#Strips1_1);fill-opacity:1;stroke:none;stroke-width:4.52699995;stroke-linecap:round;stroke-linejoin:bevel;stroke-miterlimit:17.60000038;stroke-dasharray:none;stroke-dashoffset:0;stroke-opacity:1;paint-order:stroke fill markers"
           id="rect4683"
           width="30"
           height="30"
           x="40"
           y="59"
           ry="7.9000001" />
        <path
           inkscape:connector-curvature="0"
           style="opacity:0.81499999;fill:url(#Strips1_1);fill-opacity:1;stroke:none;stroke-width:8.60130024;stroke-linecap:round;stroke-linejoin:bevel;stroke-miterlimit:17.60000038;stroke-dasharray:none;stroke-dashoffset:0;stroke-opacity:1;paint-order:stroke fill markers"
           d="m 15,28.5 v 90 l 45,-45 z"
           id="path4687" />
      </g>
    </pattern>
    <filter
       inkscape:collect="always"
       style="color-interpolation-filters:sRGB"
       id="filter4612">
      <feBlend
         inkscape:collect="always"
         mode="exclusion"
         in2="BackgroundImage"
         id="feBlend4614" />
    </filter>
  </defs>
  <metadata
     id="metadata4488">
    <rdf:RDF>
      <cc:Work
         rdf:about="">
        <dc:format>image/svg+xml</dc:format>
        <dc:type
           rdf:resource="http://purl.org/dc/dcmitype/StillImage" />
        <dc:title></dc:title>
      </cc:Work>
    </rdf:RDF>
  </metadata>
  <g
     inkscape:groupmode="layer"
     id="layer3"
     inkscape:label="sfondo"
     style="display:inline">
    <rect
       style="display:inline;opacity:0.81499999;fill:#eeeeec;fill-opacity:0.96750901;stroke:#204a87;stroke-width:4.18420935;stroke-linecap:round;stroke-linejoin:bevel;stroke-miterlimit:17.60000038;stroke-dasharray:none;stroke-dashoffset:0;stroke-opacity:1;paint-order:stroke fill markers"
       id="rect4568-3"
       width="226.64388"
       height="226.2527"
       x="14.714302"
       y="15.677391"
       ry="23.087009" />
  </g>
  <g
     inkscape:groupmode="layer"
     id="layer8"
     inkscape:label="sfumata"
     style="display:inline;opacity:1;filter:url(#filter4612)">
    <rect
       style="display:inline;opacity:0.62699998;fill:#729fcf;fill-opacity:1;stroke:#203f87;stroke-width:4.18420792;stroke-linecap:round;stroke-linejoin:bevel;stroke-miterlimit:17.60000038;stroke-dasharray:none;stroke-dashoffset:0;stroke-opacity:1;paint-order:stroke fill markers"
       id="rect4568-3-3"
       width="226.64388"
       height="226.2527"
       x="14.714302"
       y="15.677391"
       ry="23.086998" />
  </g>
  <g
     id="layer1"
     inkscape:groupmode="layer"
     inkscape:label="film strip"
     style="display:inline;opacity:0.46600001">
    <path
       style="fill:#000000;fill-opacity:0.8835983;stroke:none;stroke-width:0.86559391"
       d="M 173.71096,34.763936 33.087149,173.32186 82.420959,222.91448 222.7195,84.678406 Z"
       id="rect5216"
       inkscape:connector-curvature="0" />
    <path
       style="fill:#555753;fill-opacity:0.8835983;stroke:none;stroke-width:0.87816423"
       d="M 157.50639,18.654515 17.320737,156.77932 36.993574,176.70221 c 0.529022,-1.6029 1.431553,-3.11109 2.722036,-4.38263 l 15.652079,-15.42171 c 4.335549,-4.27182 11.271728,-4.22769 15.550945,0.10095 l 28.498566,28.824 c 4.2793,4.32806 4.23257,11.25081 -0.1026,15.52261 l -15.65208,15.42173 c -1.30289,1.28367 -2.840401,2.17091 -4.469314,2.67339 L 98.88217,239.37943 238.80107,101.51652 217.47472,79.780752 c 0.12162,3.034779 -0.98112,6.106621 -3.32732,8.418331 l -15.97174,15.737787 c -4.42417,4.35895 -11.49947,4.31247 -15.86613,-0.1039 L 154.12619,75.327947 c -4.36659,-4.416396 -4.3214,-11.479691 0.10257,-15.838708 l 15.97177,-15.737737 c 2.42775,-2.392206 5.65387,-3.448366 8.79339,-3.192916 z m 1.77946,6.353631 c 1.14714,0.0077 2.29147,0.452712 3.16473,1.335987 l 6.25025,6.322904 c 1.74674,1.766549 1.72874,4.592459 -0.042,6.336064 l -3.19413,3.149012 c -1.76963,1.74361 -4.60181,1.724116 -6.34851,-0.04243 l -6.25024,-6.322898 c -1.74648,-1.766557 -1.72856,-4.590999 0.042,-6.334605 l 3.19393,-3.147553 c 0.8848,-0.871794 2.03675,-1.303967 3.1838,-1.296474 z m -12.77756,12.590196 c 1.14711,0.0077 2.29141,0.454174 3.16471,1.337453 l 6.25021,6.321428 c 1.74664,1.766565 1.72729,4.592462 -0.0436,6.336069 l -3.19255,3.146088 c -1.76961,1.743608 -4.60045,1.725584 -6.34697,-0.04095 l -6.25026,-6.322903 c -1.74668,-1.766567 -1.72724,-4.592459 0.0435,-6.336066 l 3.19409,-3.146086 c 0.88493,-0.871804 2.03363,-1.302499 3.18084,-1.295015 z m -12.77761,12.588726 c 1.14723,0.0077 2.29144,0.454176 3.16469,1.337458 l 6.25027,6.322891 c 1.74656,1.766556 1.73003,4.591001 -0.0406,6.334607 l -3.19407,3.147553 c -1.76962,1.743609 -4.60187,1.725583 -6.34845,-0.04096 l -6.25031,-6.322909 c -1.74664,-1.766558 -1.72712,-4.590996 0.0436,-6.3346 l 3.19411,-3.14902 c 0.88475,-0.871794 2.03363,-1.302504 3.18071,-1.295013 z m -12.7761,12.58873 c 1.14671,0.0074 2.29307,0.455168 3.16627,1.337455 l 6.24884,6.321434 c 1.74654,1.766559 1.72772,4.592449 -0.042,6.336067 l -3.19395,3.149013 c -1.76968,1.743603 -4.6006,1.72412 -6.34716,-0.04241 l -6.25028,-6.322899 c -1.74665,-1.76655 -1.73006,-4.591001 0.0406,-6.334599 l 3.19397,-3.14901 c 0.88498,-0.871803 2.03638,-1.302237 3.18383,-1.295016 z m -12.77752,12.588735 c 1.14699,0.0077 2.29133,0.454164 3.16467,1.337441 l 6.25026,6.322908 c 1.7467,1.766551 1.73003,4.590973 -0.0406,6.334606 l -3.19393,3.147545 c -1.7696,1.743607 -4.60192,1.726487 -6.34848,-0.03954 l -6.25027,-6.322897 c -1.74662,-1.766549 -1.72674,-4.592457 0.0424,-6.336065 l 3.19413,-3.147541 c 0.88474,-0.871816 2.03379,-1.303967 3.18095,-1.296475 z m 31.64847,2.916344 c 2.86821,0.0186 5.72934,1.133974 7.91256,3.342163 l 28.18199,28.50498 c 4.36646,4.41643 4.31999,11.47969 -0.10408,15.83871 l -15.97007,15.73783 c -4.42419,4.35894 -11.50106,4.31226 -15.86773,-0.10388 l -28.18177,-28.50506 c -4.36658,-4.41644 -4.32153,-11.47972 0.10252,-15.83874 l 15.9701,-15.737725 c 2.21216,-2.179515 5.08844,-3.256996 7.95648,-3.238278 z m -44.42615,9.673846 c 1.1471,0.0074 2.29287,0.454171 3.16619,1.337446 l 6.25024,6.322901 c 1.74665,1.76655 1.72867,4.59099 -0.0417,6.33458 l -3.19407,3.14753 c -1.76962,1.74363 -4.60039,1.72415 -6.34702,-0.043 l -6.250154,-6.32136 c -1.746619,-1.76656 -1.730028,-4.59244 0.03961,-6.336052 l 3.194039,-3.147518 c 0.884828,-0.871799 2.035205,-1.3025 3.182315,-1.295015 z m 126.66782,0.550189 c 1.1471,0.0074 2.28981,0.454186 3.16323,1.337462 l 6.25171,6.322896 c 1.74663,1.76657 1.72727,4.59102 -0.0435,6.33463 l -3.19393,3.14906 c -1.76959,1.74348 -4.60048,1.72557 -6.3471,-0.0415 l -6.25179,-6.32291 c -1.74652,-1.76655 -1.72711,-4.59099 0.0436,-6.334591 l 3.19542,-3.150469 c 0.88482,-0.871807 2.03533,-1.302509 3.18243,-1.29503 z M 82.623251,100.54347 c 1.147418,0.008 2.292863,0.45297 3.166179,1.33601 l 6.250278,6.32282 c 1.746627,1.76658 1.726744,4.59395 -0.04239,6.3376 l -3.194035,3.14614 c -1.769608,1.74346 -4.600394,1.72549 -6.347023,-0.0416 l -6.250251,-6.32299 c -1.746633,-1.76657 -1.727121,-4.59101 0.04231,-6.33461 l 3.194042,-3.14752 c 0.884805,-0.87182 2.033413,-1.30357 3.180832,-1.29646 z m 126.666309,0.55163 c 1.14713,0.008 2.29003,0.45272 3.16323,1.33599 l 6.25179,6.32291 c 1.74664,1.7665 1.72857,4.59245 -0.042,6.33611 l -3.19397,3.14752 c -1.76957,1.74354 -4.60039,1.72411 -6.34706,-0.043 l -6.25174,-6.32139 c -1.74654,-1.76659 -1.72715,-4.5925 0.0436,-6.33605 l 3.194,-3.14604 c 0.88471,-0.87183 2.03517,-1.304 3.18226,-1.29652 z M 69.845647,113.13217 c 1.147107,0.008 2.292879,0.45416 3.166188,1.33745 l 6.250264,6.32292 c 1.746633,1.76647 1.728587,4.59096 -0.04099,6.33465 l -3.195495,3.14893 c -1.769611,1.74357 -4.600397,1.72416 -6.347024,-0.043 l -6.250269,-6.32134 c -1.74663,-1.76664 -1.727114,-4.59262 0.04241,-6.33612 l 3.194027,-3.14895 c 0.884807,-0.87186 2.033724,-1.30251 3.180843,-1.29509 z m 126.666333,0.55318 c 1.14709,0.008 2.28988,0.4541 3.16327,1.33744 l 6.25323,6.32138 c 1.74663,1.76651 1.72718,4.59247 -0.0436,6.33612 l -3.194,3.14605 c -1.76963,1.74365 -4.60038,1.72557 -6.34703,-0.0415 l -6.2517,-6.32285 c -1.74674,-1.76659 -1.72718,-4.5926 0.0436,-6.3361 l 3.19405,-3.14612 c 0.88492,-0.87184 2.03513,-1.30253 3.18228,-1.29495 z m -95.0177,2.26953 c 2.81076,0.0186 5.61465,1.11192 7.75419,3.27628 l 28.50002,28.82418 c 4.27932,4.32789 4.23238,11.25066 -0.10269,15.52249 l -15.65201,15.42163 c -4.33543,4.27186 -11.27022,4.22774 -15.54937,-0.10092 L 77.944331,150.07459 c -4.279221,-4.32802 -4.232565,-11.25218 0.10261,-15.52421 l 15.650611,-15.42023 c 2.167778,-2.13589 4.985968,-3.19334 7.796728,-3.17527 z m -44.424759,9.76593 v 0.002 c 1.147109,0.008 2.291411,0.45423 3.164717,1.33761 l 6.250274,6.32136 c 1.746621,1.76656 1.728584,4.59257 -0.04107,6.33608 l -3.194024,3.14747 c -1.769617,1.74373 -4.600404,1.72421 -6.347032,-0.043 l -6.250273,-6.32283 c -1.746621,-1.76661 -1.72711,-4.591 0.04238,-6.33458 l 3.194034,-3.14754 c 0.884806,-0.87184 2.033735,-1.30409 3.180842,-1.29664 z m 126.666339,0.55322 c 1.14674,0.008 2.2916,0.45507 3.16475,1.33754 l 6.25022,6.31988 c 1.74665,1.76668 1.72658,4.594 -0.0436,6.33764 l -3.19403,3.14749 c -1.76957,1.7436 -4.59899,1.724 -6.34557,-0.043 l -6.25172,-6.32153 c -1.74666,-1.76653 -1.72733,-4.59244 0.0436,-6.33607 l 3.19415,-3.14748 c 0.88477,-0.87184 2.03485,-1.30234 3.18226,-1.29506 z M 44.291914,138.31118 c 1.14712,0.008 2.29141,0.45427 3.164719,1.33743 l 6.25028,6.32277 c 1.746624,1.76667 1.730036,4.59257 -0.03965,6.33617 l -3.194036,3.146 c -1.769612,1.74374 -4.60186,1.72413 -6.348482,-0.043 l -6.250272,-6.32153 c -1.746619,-1.76639 -1.727097,-4.59236 0.04243,-6.33595 l 3.194041,-3.146 c 0.884802,-0.87175 2.033721,-1.30394 3.180835,-1.2965 z m 126.664866,0.5502 h 0.002 c 1.14713,0.008 2.29009,0.45417 3.16331,1.33741 h 0.002 l 6.25166,6.32298 c 1.74668,1.76651 1.72723,4.59231 -0.0436,6.33591 l -3.1941,3.1461 c -1.76967,1.7436 -4.60045,1.72766 -6.34702,-0.0403 l -6.25174,-6.32285 c -1.74661,-1.76641 -1.72652,-4.59245 0.0435,-6.33607 l 3.19415,-3.14898 c 0.88481,-0.87176 2.03371,-1.30238 3.18081,-1.29493 z M 31.514317,150.8999 c 1.147425,0.008 2.292879,0.45379 3.166184,1.33731 l 6.250286,6.32294 c 1.746613,1.76658 1.728592,4.59242 -0.04099,6.33614 l -3.194024,3.14603 c -1.769614,1.74365 -4.60188,1.72716 -6.348497,-0.0401 l -6.250278,-6.32287 c -1.746622,-1.76662 -1.72709,-4.59255 0.04237,-6.33618 l 3.194033,-3.14605 c 0.884813,-0.87179 2.033421,-1.30509 3.180839,-1.29785 z m 126.666353,0.55153 c 1.14711,0.008 2.29141,0.45429 3.16468,1.33746 l 6.25162,6.32296 c 1.74684,1.7666 1.72741,4.59098 -0.0436,6.33461 l -3.19406,3.14752 c -1.76966,1.74358 -4.59879,1.72556 -6.34552,-0.0415 l -6.25179,-6.32287 c -1.74666,-1.76668 -1.72862,-4.5925 0.042,-6.33609 l 3.19417,-3.14615 c 0.88473,-0.8717 2.03512,-1.30398 3.18223,-1.2965 z m -12.77618,12.59026 c 1.14751,0.008 2.29147,0.45386 3.16477,1.33748 l 6.25176,6.31997 c 1.74655,1.76649 1.7264,4.59395 -0.0436,6.33753 l -3.19401,3.14751 c -1.76974,1.74363 -4.60045,1.72421 -6.34715,-0.043 l -6.25171,-6.32286 c -1.74645,-1.76656 -1.72712,-4.59105 0.0436,-6.33467 l 3.19419,-3.14753 c 0.88476,-0.87181 2.0348,-1.30225 3.18221,-1.29503 z m -12.77595,12.58877 c 1.14689,0.008 2.28977,0.45421 3.16312,1.33731 l 6.25171,6.32152 c 1.74668,1.76662 1.72728,4.59249 -0.0435,6.33608 l -3.19408,3.14753 c -1.76955,1.74365 -4.60031,1.72564 -6.34686,-0.0415 l -6.25182,-6.32284 c -1.74668,-1.76655 -1.72723,-4.59099 0.0436,-6.33466 l 3.19392,-3.14898 c 0.88485,-0.87172 2.0367,-1.30248 3.18395,-1.29494 z m -12.77768,12.58868 c 1.14698,0.008 2.28984,0.45417 3.16322,1.33741 l 6.25177,6.32294 c 1.7465,1.76658 1.72845,4.59101 -0.042,6.33463 l -3.19546,3.14606 c -1.76955,1.74359 -4.59899,1.72707 -6.3456,-0.04 l -6.2518,-6.32294 c -1.74655,-1.76652 -1.72688,-4.59104 0.0435,-6.33464 l 3.19396,-3.14901 c 0.88472,-0.87179 2.03533,-1.30247 3.18238,-1.29502 z m -12.77764,12.5887 c 1.14711,0.008 2.28988,0.45417 3.16334,1.3375 l 6.25171,6.32295 c 1.74665,1.76658 1.72845,4.59092 -0.042,6.33455 l -3.19393,3.149 c -1.76965,1.74367 -4.6005,1.7242 -6.34702,-0.043 l -6.25178,-6.32293 c -1.74663,-1.76659 -1.72715,-4.59105 0.0425,-6.33466 l 3.19411,-3.14758 c 0.88481,-0.87176 2.03519,-1.30394 3.1824,-1.29648 z M 94.29708,214.3981 c 1.14741,0.008 2.28994,0.45381 3.16324,1.33744 l 6.25173,6.32002 c 1.74667,1.76657 1.72678,4.59518 -0.0428,6.33894 l -3.19406,3.14605 c -1.76962,1.74362 -4.59896,1.72417 -6.34556,-0.043 l -6.251724,-6.32138 c -1.746621,-1.76662 -1.728578,-4.59246 0.04102,-6.33615 l 3.19403,-3.14599 c 0.884811,-0.87181 2.03636,-1.30375 3.183784,-1.29645 z"
       id="rect5116"
       inkscape:connector-curvature="0" />
  </g>
  <g
     inkscape:groupmode="layer"
     id="layer2"
     inkscape:label="audio"
     style="display:inline;opacity:0.472">
    <g
       transform="matrix(0.6554543,-0.65167275,0.65279946,0.65432311,5.927923,69.259402)"
       id="g4564"
       style="fill:#000000;fill-opacity:0.99607843">
      <path
         style="opacity:0.81499999;fill:#000000;fill-opacity:0.99607843;stroke:none;stroke-width:4.52699995;stroke-linecap:round;stroke-linejoin:bevel;stroke-miterlimit:17.60000038;stroke-dasharray:none;stroke-dashoffset:0;stroke-opacity:1;paint-order:stroke fill markers"
         d="M 51.29418,7.3037002 A 57.894737,57.894737 0 0 0 -6.4454933,61.855201 l 8.7617241,-0.0057 A 49.588242,49.588242 0 0 1 51.684641,15.994848 49.588242,49.588242 0 0 1 101.14823,61.784724 l 7.90625,-0.0052 A 57.894737,57.894737 0 0 0 51.29418,7.3037002 Z"
         id="path4558"
         inkscape:connector-curvature="0" />
      <path
         inkscape:connector-curvature="0"
         id="path4560"
         d="M 51.614981,24.013487 A 42.438207,42.438207 0 0 0 9.290437,64.001023 l 6.422559,-0.0042 a 36.34935,36.34935 45 0 1 36.188215,-33.61252 36.34935,36.34935 45 0 1 36.257968,33.565061 l 5.795474,-0.0038 A 42.438207,42.438207 0 0 0 51.614981,24.013487 Z"
         style="opacity:0.81499999;fill:#000000;fill-opacity:0.99607843;stroke:none;stroke-width:3.31839776;stroke-linecap:round;stroke-linejoin:bevel;stroke-miterlimit:17.60000038;stroke-dasharray:none;stroke-dashoffset:0;stroke-opacity:1;paint-order:stroke fill markers" />
      <path
         style="opacity:0.81499999;fill:#000000;fill-opacity:0.99607843;stroke:none;stroke-width:2.3552928;stroke-linecap:round;stroke-linejoin:bevel;stroke-miterlimit:17.60000038;stroke-dasharray:none;stroke-dashoffset:0;stroke-opacity:1;paint-order:stroke fill markers"
         d="M 51.794185,38.186802 A 30.121285,30.121285 0 0 0 21.753571,66.56868 l 4.558529,-0.003 A 25.79961,25.79961 45 0 1 51.997342,42.708602 25.79961,25.79961 45 0 1 77.732088,66.532019 l 4.113437,-0.0027 A 30.121285,30.121285 0 0 0 51.794185,38.186802 Z"
         id="path4562"
         inkscape:connector-curvature="0" />
    </g>
    <path
       style="display:inline;opacity:0.81499999;fill:#000000;fill-opacity:1;stroke:none;stroke-width:3.86193657;stroke-linecap:round;stroke-linejoin:bevel;stroke-miterlimit:17.60000038;stroke-dasharray:none;stroke-dashoffset:0;stroke-opacity:1;paint-order:stroke fill markers"
       d="m 136.02813,221.20146 48.5717,-3.87721 20.47216,20.43682 32.70633,-32.64994 -20.47216,-20.43683 3.8852,-48.48892 z"
       id="path6229-6"
       inkscape:connector-curvature="0" />
  </g>
  <g
     inkscape:groupmode="layer"
     id="layer7"
     inkscape:label="ffmpeg"
     style="display:inline">
    <path
       style="color:#000000;font-style:normal;font-variant:normal;font-weight:normal;font-stretch:normal;font-size:medium;line-height:normal;font-family:sans-serif;font-variant-ligatures:normal;font-variant-position:normal;font-variant-caps:normal;font-variant-numeric:normal;font-variant-alternates:normal;font-feature-settings:normal;text-indent:0;text-align:start;text-decoration:none;text-decoration-line:none;text-decoration-style:solid;text-decoration-color:#000000;letter-spacing:normal;word-spacing:normal;text-transform:none;writing-mode:lr-tb;direction:ltr;text-orientation:mixed;dominant-baseline:auto;baseline-shift:baseline;text-anchor:start;white-space:normal;shape-padding:0;clip-rule:nonzero;display:inline;overflow:visible;visibility:visible;opacity:1;isolation:auto;mix-blend-mode:normal;color-interpolation:sRGB;color-interpolation-filters:linearRGB;solid-color:#000000;solid-opacity:1;vector-effect:none;fill:#8ae234;fill-opacity:1;fill-rule:nonzero;stroke:#8ae234;stroke-width:1.6;stroke-linecap:round;stroke-linejoin:bevel;stroke-miterlimit:4;stroke-dasharray:none;stroke-dashoffset:0;stroke-opacity:1;color-rendering:auto;image-rendering:auto;shape-rendering:auto;text-rendering:auto;enable-background:accumulate"
       d="m 24,38 v 1.124039 H 84.465069 L 29.05815,94.530974 V 163.5624 L 153.49648,39.124039 h 60.2609 L 33.912124,224.58947 H 97.29486 l 117.2287,-117.22875 v 65.85254 l -51.3762,51.37621 h 68.79872 v -1.12406 h -66.08523 l 49.78676,-49.78674 V 104.64725 L 96.82944,223.46541 H 36.568542 L 216.41379,38 H 153.03106 L 30.182183,160.8489 V 94.996397 L 87.178537,38 Z"
       id="path4593"
       inkscape:connector-curvature="0" />
  </g>
</svg>
