<?xml version="1.0" encoding="UTF-8" standalone="no"?>
<!-- Created with Inkscape (http://www.inkscape.org/) -->

<svg
   xmlns:osb="http://www.openswatchbook.org/uri/2009/osb"
   xmlns:dc="http://purl.org/dc/elements/1.1/"
   xmlns:cc="http://creativecommons.org/ns#"
   xmlns:rdf="http://www.w3.org/1999/02/22-rdf-syntax-ns#"
   xmlns:svg="http://www.w3.org/2000/svg"
   xmlns="http://www.w3.org/2000/svg"
   xmlns:xlink="http://www.w3.org/1999/xlink"
   xmlns:sodipodi="http://sodipodi.sourceforge.net/DTD/sodipodi-0.dtd"
   xmlns:inkscape="http://www.inkscape.org/namespaces/inkscape"
   width="256px"
   height="256px"
   viewBox="0 0 256 256"
   version="1.1"
   id="SVGRoot"
   sodipodi:docname="videomass2_OK.svg"
   inkscape:version="0.92.1 r15371"
   enable-background="new">
  <sodipodi:namedview
     id="base"
     pagecolor="#ffffff"
     bordercolor="#666666"
     borderopacity="1.0"
     inkscape:pageopacity="0.0"
     inkscape:pageshadow="2"
     inkscape:zoom="2.32"
     inkscape:cx="70.00632"
     inkscape:cy="127.18677"
     inkscape:document-units="px"
     inkscape:current-layer="layer4"
     showgrid="true"
     inkscape:window-width="1920"
     inkscape:window-height="1026"
     inkscape:window-x="0"
     inkscape:window-y="26"
     inkscape:window-maximized="1"
     inkscape:grid-bbox="true"
     inkscape:measure-start="110,130"
     inkscape:measure-end="0,0"
     showguides="false">
    <inkscape:grid
       type="xygrid"
       id="grid5114" />
  </sodipodi:namedview>
  <defs
     id="defs4485">
    <inkscape:path-effect
       effect="bspline"
       id="path-effect4551"
       is_visible="true"
       weight="33.333333"
       steps="2"
       helper_size="0"
       apply_no_weight="true"
       apply_with_weight="true"
       only_selected="false" />
    <inkscape:path-effect
       effect="skeletal"
       id="path-effect4547"
       is_visible="true"
       pattern="M 0,5 C 0,2.24 2.24,0 5,0 7.76,0 10,2.24 10,5 10,7.76 7.76,10 5,10 2.24,10 0,7.76 0,5 Z"
       copytype="single_stretched"
       prop_scale="1"
       scale_y_rel="false"
       spacing="0"
       normal_offset="0"
       tang_offset="0"
       prop_units="false"
       vertical_pattern="false"
       fuse_tolerance="0" />
    <inkscape:path-effect
       effect="bspline"
       id="path-effect4545"
       is_visible="true"
       weight="33.333333"
       steps="2"
       helper_size="0"
       apply_no_weight="true"
       apply_with_weight="true"
       only_selected="false" />
    <inkscape:path-effect
       effect="skeletal"
       id="path-effect4541"
       is_visible="true"
       pattern="M 0,5 C 0,2.24 2.24,0 5,0 7.76,0 10,2.24 10,5 10,7.76 7.76,10 5,10 2.24,10 0,7.76 0,5 Z"
       copytype="single_stretched"
       prop_scale="1"
       scale_y_rel="false"
       spacing="0"
       normal_offset="0"
       tang_offset="0"
       prop_units="false"
       vertical_pattern="false"
       fuse_tolerance="0" />
    <inkscape:path-effect
       effect="spiro"
       id="path-effect4539"
       is_visible="true" />
    <inkscape:path-effect
       effect="bspline"
       id="path-effect4535"
       is_visible="true"
       weight="33.333333"
       steps="2"
       helper_size="0"
       apply_no_weight="true"
       apply_with_weight="true"
       only_selected="false" />
    <inkscape:path-effect
       effect="skeletal"
       id="path-effect4531"
       is_visible="true"
       pattern="M 0,5 C 0,2.24 2.24,0 5,0 7.76,0 10,2.24 10,5 10,7.76 7.76,10 5,10 2.24,10 0,7.76 0,5 Z"
       copytype="single_stretched"
       prop_scale="1"
       scale_y_rel="false"
       spacing="0"
       normal_offset="0"
       tang_offset="0"
       prop_units="false"
       vertical_pattern="false"
       fuse_tolerance="0" />
    <inkscape:path-effect
       effect="bspline"
       id="path-effect4529"
       is_visible="true"
       weight="33.333333"
       steps="2"
       helper_size="0"
       apply_no_weight="true"
       apply_with_weight="true"
       only_selected="false" />
    <inkscape:path-effect
       effect="skeletal"
       id="path-effect4525"
       is_visible="true"
       pattern="M 0,5 C 0,2.24 2.24,0 5,0 7.76,0 10,2.24 10,5 10,7.76 7.76,10 5,10 2.24,10 0,7.76 0,5 Z"
       copytype="single_stretched"
       prop_scale="1"
       scale_y_rel="false"
       spacing="0"
       normal_offset="0"
       tang_offset="0"
       prop_units="false"
       vertical_pattern="false"
       fuse_tolerance="0" />
    <inkscape:path-effect
       effect="bspline"
       id="path-effect4523"
       is_visible="true"
       weight="33.333333"
       steps="2"
       helper_size="0"
       apply_no_weight="true"
       apply_with_weight="true"
       only_selected="false" />
    <inkscape:path-effect
       effect="bspline"
       id="path-effect4519"
       is_visible="true"
       weight="33.333333"
       steps="2"
       helper_size="0"
       apply_no_weight="true"
       apply_with_weight="true"
       only_selected="false" />
    <linearGradient
       inkscape:collect="always"
       id="linearGradient4752">
      <stop
         style="stop-color:#888a85;stop-opacity:1;"
         offset="0"
         id="stop4748" />
      <stop
         style="stop-color:#888a85;stop-opacity:0;"
         offset="1"
         id="stop4750" />
    </linearGradient>
    <linearGradient
       inkscape:collect="always"
       id="linearGradient4560">
      <stop
         style="stop-color:#380000;stop-opacity:1;"
         offset="0"
         id="stop4556" />
      <stop
         style="stop-color:#380000;stop-opacity:0;"
         offset="1"
         id="stop4558" />
    </linearGradient>
    <pattern
       inkscape:isstock="true"
       inkscape:stockid="Stripes 1:1"
       id="Strips1_1"
       patternTransform="translate(0,0) scale(10,10)"
       height="1"
       width="2"
       patternUnits="userSpaceOnUse"
       inkscape:collect="always">
      <rect
         id="rect5447"
         height="2"
         width="1"
         y="-0.5"
         x="0"
         style="fill:black;stroke:none" />
    </pattern>
    <linearGradient
       id="linearGradient4727"
       osb:paint="solid">
      <stop
         style="stop-color:#ce5c00;stop-opacity:1;"
         offset="0"
         id="stop4725" />
    </linearGradient>
    <pattern
       patternUnits="userSpaceOnUse"
       width="55"
       height="90"
       patternTransform="translate(-60,50.5)"
       id="pattern6214">
      <g
         style="fill:url(#Strips1_1);fill-opacity:1"
         transform="translate(-15,-28.5)"
         id="g4691">
        <rect
           style="opacity:0.81499999;fill:url(#Strips1_1);fill-opacity:1;stroke:none;stroke-width:4.52699995;stroke-linecap:round;stroke-linejoin:bevel;stroke-miterlimit:17.60000038;stroke-dasharray:none;stroke-dashoffset:0;stroke-opacity:1;paint-order:stroke fill markers"
           id="rect4683"
           width="30"
           height="30"
           x="40"
           y="59"
           ry="7.9000001" />
        <path
           inkscape:connector-curvature="0"
           style="opacity:0.81499999;fill:url(#Strips1_1);fill-opacity:1;stroke:none;stroke-width:8.60130024;stroke-linecap:round;stroke-linejoin:bevel;stroke-miterlimit:17.60000038;stroke-dasharray:none;stroke-dashoffset:0;stroke-opacity:1;paint-order:stroke fill markers"
           d="m 15,28.5 v 90 l 45,-45 z"
           id="path4687" />
      </g>
    </pattern>
    <linearGradient
       inkscape:collect="always"
       xlink:href="#linearGradient4560"
       id="linearGradient4562"
       x1="-11.593207"
       y1="128.66191"
       x2="268.93853"
       y2="128.66191"
       gradientUnits="userSpaceOnUse"
       gradientTransform="matrix(0.71298502,0,0,0.71298502,36.017528,37.299897)" />
    <linearGradient
       inkscape:collect="always"
       xlink:href="#linearGradient4752"
       id="linearGradient4754"
       x1="11.826138"
       y1="245.7171"
       x2="149.78668"
       y2="106.13758"
       gradientUnits="userSpaceOnUse"
       gradientTransform="matrix(0.95425703,0,0,0.95425703,5.390281,5.594659)" />
    <filter
       inkscape:collect="always"
       style="color-interpolation-filters:sRGB"
       id="filter4533"
       x="-0.011615861"
       width="1.0232317"
       y="-0.012410415"
       height="1.0248208">
      <feGaussianBlur
         inkscape:collect="always"
         stdDeviation="1.1940869"
         id="feGaussianBlur4535" />
    </filter>
  </defs>
  <metadata
     id="metadata4488">
    <rdf:RDF>
      <cc:Work
         rdf:about="">
        <dc:format>image/svg+xml</dc:format>
        <dc:type
           rdf:resource="http://purl.org/dc/dcmitype/StillImage" />
        <dc:title />
      </cc:Work>
    </rdf:RDF>
  </metadata>
  <g
     inkscape:groupmode="layer"
     id="layer3"
     inkscape:label="sfondo"
     style="display:inline">
    <rect
       style="display:inline;opacity:1;fill:#eeeeec;fill-opacity:1;stroke:none;stroke-width:7.00387716;stroke-linecap:round;stroke-linejoin:bevel;stroke-miterlimit:17.60000038;stroke-dasharray:none;stroke-dashoffset:0;stroke-opacity:0.97647059;paint-order:stroke fill markers"
       id="rect4568-3"
       width="222.07193"
       height="222.07193"
       x="16.675457"
       y="18"
       ry="22.6604" />
  </g>
  <g
     style="display:inline"
     inkscape:label="sfondo copia"
     id="g4738"
     inkscape:groupmode="layer">
    <rect
       ry="22.6604"
       y="18"
       x="16.675457"
       height="222.07193"
       width="222.07193"
       id="rect4736"
       style="display:inline;opacity:1;fill:url(#linearGradient4754);fill-opacity:1;stroke:none;stroke-width:7.00387716;stroke-linecap:round;stroke-linejoin:bevel;stroke-miterlimit:17.60000038;stroke-dasharray:none;stroke-dashoffset:0;stroke-opacity:0.97647059;paint-order:stroke fill markers" />
  </g>
  <g
     id="layer1"
     inkscape:groupmode="layer"
     inkscape:label="film strip"
     style="display:inline;opacity:1">
    <path
       style="opacity:1;fill:url(#linearGradient4562);fill-opacity:1;stroke:none;stroke-width:0.92685938"
       d="M 176.07499,26.769418 27.751745,177.38883 79.786638,231.2984 227.76666,81.02893 Z"
       id="rect5216"
       inkscape:connector-curvature="0" />
    <path
       style="fill:#180000;fill-opacity:0.8835983;stroke:none;stroke-width:0.9403196"
       d="M 158.98306,9.257678 11.122102,159.40624 31.87205,181.06329 c 0.557989,-1.74236 1.509945,-3.38188 2.871073,-4.76408 L 51.252172,159.5351 c 4.572926,-4.64372 11.888858,-4.59574 16.402369,0.10975 l 30.058889,31.33311 c 4.51356,4.70482 4.46433,12.2302 -0.10821,16.87388 l -16.509053,16.76413 c -1.374218,1.39549 -2.995909,2.3598 -4.714002,2.90616 L 97.14912,249.19666 244.72871,99.33282 222.23478,75.704939 c 0.12822,3.298957 -1.03492,6.638198 -3.50959,9.151147 l -16.84611,17.107724 c -4.66629,4.73847 -12.12915,4.68791 -16.73476,-0.11295 L 155.41781,70.864516 c -4.60564,-4.800841 -4.55804,-12.478995 0.10823,-17.217465 l 16.84609,-17.107709 c 2.56083,-2.600444 5.9635,-3.748539 9.27493,-3.470852 z m 1.87696,6.906711 c 1.20992,0.0081 2.41683,0.492116 3.33797,1.452285 l 6.59251,6.873309 c 1.84224,1.920336 1.82328,4.992233 -0.0433,6.887621 l -3.36892,3.423133 c -1.86649,1.895385 -4.85382,1.874198 -6.69606,-0.04613 l -6.59251,-6.873304 c -1.84225,-1.920339 -1.8232,-4.990644 0.0433,-6.886033 l 3.36891,-3.421542 c 0.93326,-0.947694 2.14818,-1.417477 3.3581,-1.409339 z m -13.47719,13.686166 c 1.20991,0.0081 2.41686,0.493708 3.33798,1.453875 l 6.59249,6.871718 c 1.84224,1.920333 1.82175,4.992232 -0.0447,6.88762 l -3.36737,3.419951 c -1.86653,1.89539 -4.85228,1.875801 -6.69454,-0.04453 l -6.59253,-6.873304 c -1.84223,-1.920341 -1.82171,-4.992235 0.0447,-6.887624 l 3.36888,-3.419951 c 0.93328,-0.947693 2.14509,-1.415887 3.35502,-1.407747 z m -13.47719,13.684576 c 1.20992,0.0081 2.41686,0.493708 3.33799,1.453876 l 6.5925,6.873307 c 1.84224,1.920335 1.82476,4.99064 -0.0418,6.886032 l -3.36893,3.421542 c -1.86651,1.895392 -4.85383,1.875801 -6.69608,-0.04454 l -6.59244,-6.87331 c -1.84226,-1.920341 -1.82172,-4.990646 0.0447,-6.88603 l 3.36892,-3.423133 c 0.93326,-0.947695 2.14509,-1.415887 3.35501,-1.407749 z m -13.47565,13.684576 c 1.20946,0.0078 2.41866,0.494791 3.33956,1.453876 l 6.59093,6.871717 c 1.84225,1.92034 1.82256,4.992223 -0.0432,6.887622 l -3.36892,3.423132 c -1.8665,1.895381 -4.85227,1.874205 -6.69453,-0.04613 l -6.59248,-6.873311 c -1.84223,-1.920332 -1.82477,-4.990647 0.0418,-6.886031 l 3.36891,-3.423133 c 0.93326,-0.947696 2.14785,-1.415602 3.35809,-1.407746 z m -13.47715,13.684577 c 1.20988,0.0082 2.41684,0.493704 3.33796,1.453874 l 6.59251,6.873307 c 1.84226,1.92033 1.82483,4.990618 -0.0417,6.886032 l -3.36892,3.421537 c -1.86653,1.895397 -4.85385,1.87679 -6.69609,-0.04294 l -6.59251,-6.873309 c -1.84227,-1.920329 -1.82129,-4.992234 0.0449,-6.887617 l 3.36892,-3.421533 c 0.93326,-0.947707 2.1451,-1.417479 3.35501,-1.409339 z m 33.38141,3.170213 c 3.02511,0.02035 6.04296,1.232681 8.34575,3.633102 l 29.72494,30.986361 c 4.60562,4.80082 4.55649,12.47899 -0.10976,17.21746 l -16.84455,17.10771 c -4.66627,4.73846 -12.13072,4.68789 -16.73634,-0.11294 l -29.72495,-30.98636 c -4.60561,-4.80083 -4.55801,-12.479 0.10825,-17.21747 l 16.84454,-17.107698 c 2.33313,-2.369235 5.36701,-3.540513 8.39212,-3.520165 z M 93.47563,84.590452 c 1.20992,0.0078 2.41843,0.493703 3.33954,1.453872 l 6.59247,6.873316 c 1.84227,1.92033 1.82331,4.99063 -0.0431,6.88603 l -3.36892,3.42154 c -1.86651,1.8954 -4.85227,1.8742 -6.69453,-0.0461 l -6.592484,-6.87172 c -1.842246,-1.92036 -1.824752,-4.99223 0.04176,-6.887628 l 3.368904,-3.421546 c 0.93327,-0.947694 2.14663,-1.415877 3.35654,-1.407743 z m 133.60302,0.598086 c 1.20992,0.0078 2.41533,0.493714 3.33645,1.453883 l 6.59403,6.873319 c 1.84223,1.92033 1.82175,4.99062 -0.0447,6.88602 l -3.36891,3.42313 c -1.86648,1.89539 -4.85228,1.87585 -6.69452,-0.0446 l -6.5941,-6.87328 c -1.84225,-1.92033 -1.82175,-4.990648 0.0447,-6.886033 l 3.37047,-3.42472 c 0.93324,-0.947693 2.14664,-1.415886 3.35653,-1.407755 z M 80,98.27503 c 1.210237,0.007 2.418405,0.49241 3.33953,1.45228 l 6.592501,6.87331 c 1.842249,1.92035 1.821279,4.99382 -0.04483,6.88924 l -3.368913,3.41994 c -1.866505,1.89537 -4.852271,1.87576 -6.694529,-0.0446 l -6.592484,-6.87323 c -1.842246,-1.92037 -1.821671,-4.99063 0.04483,-6.88604 l 3.368912,-3.42155 c 0.93325,-0.94769 2.14475,-1.41706 3.354987,-1.40933 z m 133.60147,0.59969 c 1.20991,0.007 2.4153,0.4921 3.33644,1.45228 l 6.59403,6.87331 c 1.84226,1.92033 1.82324,4.99224 -0.0433,6.88762 l -3.36889,3.42154 c -1.86651,1.89535 -4.85227,1.87427 -6.69455,-0.046 l -6.594,-6.87177 c -1.84224,-1.92033 -1.82173,-4.99224 0.0447,-6.88762 l 3.36892,-3.41995 c 0.93327,-0.94769 2.14663,-1.41749 3.35656,-1.40934 z M 66.52281,111.9596 c 1.209915,0.007 2.418412,0.49376 3.339535,1.45388 l 6.592485,6.8733 c 1.84225,1.92033 1.823213,4.99064 -0.04327,6.88604 l -3.370455,3.42313 c -1.866498,1.89538 -4.852281,1.87429 -6.694532,-0.0459 l -6.592486,-6.8718 c -1.842253,-1.92033 -1.821668,-4.99221 0.04483,-6.88761 l 3.368909,-3.42314 c 0.933252,-0.94771 2.14508,-1.41589 3.354998,-1.40776 z m 133.60147,0.60126 c 1.20991,0.007 2.41531,0.4937 3.33642,1.4539 l 6.59561,6.87172 c 1.84225,1.92034 1.82172,4.99223 -0.0447,6.88761 l -3.36892,3.41995 c -1.86651,1.8954 -4.8523,1.87572 -6.69452,-0.0446 l -6.59405,-6.87327 c -1.84226,-1.92035 -1.82172,-4.99224 0.0447,-6.88763 l 3.3689,-3.41997 c 0.93326,-0.94768 2.14661,-1.41588 3.35653,-1.40773 z m -100.22004,2.46715 c 2.96465,0.0196 5.922,1.20879 8.17876,3.56152 l 30.06046,31.33313 c 4.51351,4.70482 4.46403,12.23019 -0.10825,16.87386 l -16.50904,16.76415 c -4.57291,4.64368 -11.88731,4.59569 -16.40082,-0.10978 L 75.064906,152.11778 C 70.551392,147.41298 70.6006,139.88602 75.173133,135.2423 L 91.68063,118.47979 c 2.28647,-2.32186 5.25896,-3.47146 8.22361,-3.45178 z m -46.857068,10.61618 v 0.003 c 1.209912,0.007 2.416862,0.49368 3.337986,1.45388 l 6.59249,6.87171 c 1.842245,1.92035 1.823227,4.99225 -0.04329,6.88761 l -3.368909,3.42157 c -1.866506,1.89541 -4.852274,1.87419 -6.694529,-0.046 l -6.592484,-6.87357 c -1.842249,-1.92034 -1.821665,-4.99063 0.04483,-6.88604 l 3.36891,-3.42154 c 0.933256,-0.94768 2.145084,-1.41747 3.354995,-1.40934 z m 133.601468,0.60128 c 1.20942,0.007 2.41712,0.49462 3.33799,1.45386 l 6.59248,6.87013 c 1.84224,1.92033 1.82109,4.9938 -0.0447,6.88921 l -3.36893,3.42154 c -1.86646,1.8954 -4.85073,1.87423 -6.69298,-0.046 l -6.59406,-6.87174 c -1.84226,-1.92032 -1.82178,-4.99221 0.0447,-6.88763 l 3.36892,-3.42154 c 0.93324,-0.94767 2.14629,-1.41562 3.35653,-1.40775 z M 39.569986,139.33034 c 1.209916,0.008 2.416863,0.49375 3.337989,1.45389 l 6.592487,6.8733 c 1.842252,1.92034 1.824761,4.99224 -0.04174,6.8876 l -3.368911,3.41998 c -1.866504,1.89539 -4.853824,1.87418 -6.696075,-0.0461 l -6.592489,-6.87173 c -1.842249,-1.92033 -1.821664,-4.99222 0.04483,-6.88763 l 3.36891,-3.41995 c 0.933252,-0.9477 2.145082,-1.41748 3.354996,-1.40936 z m 133.599934,0.5981 h 0.004 c 1.20992,0.008 2.41533,0.49374 3.33645,1.45387 h 0.003 l 6.59404,6.87331 c 1.84226,1.92038 1.82176,4.99223 -0.0447,6.88762 l -3.3689,3.41997 c -1.8665,1.89538 -4.85231,1.87805 -6.69454,-0.043 l -6.59401,-6.87328 c -1.84226,-1.92034 -1.82102,-4.99223 0.0447,-6.88761 l 3.36891,-3.42315 c 0.93326,-0.94772 2.14507,-1.41588 3.355,-1.40773 z M 26.0928,153.01493 c 1.210242,0.008 2.418408,0.49336 3.339536,1.45387 l 6.592487,6.8733 c 1.842251,1.92033 1.823243,4.99225 -0.04329,6.88762 l -3.368913,3.41996 c -1.866502,1.89539 -4.853827,1.87742 -6.696075,-0.0429 l -6.592486,-6.87331 c -1.842252,-1.92033 -1.821653,-4.99223 0.04483,-6.88762 l 3.368909,-3.41993 c 0.933254,-0.94769 2.144754,-1.41882 3.354993,-1.41094 z m 133.60146,0.59969 c 1.20991,0.007 2.41687,0.4937 3.33801,1.45385 l 6.59403,6.87332 c 1.84225,1.92035 1.82172,4.99065 -0.0447,6.88602 l -3.36893,3.42156 c -1.86648,1.8954 -4.8507,1.87573 -6.69296,-0.0445 l -6.59405,-6.87332 c -1.84227,-1.92035 -1.82324,-4.99225 0.0433,-6.88765 l 3.36892,-3.41993 c 0.93324,-0.94769 2.14662,-1.41748 3.35653,-1.40935 z m -13.47563,13.68615 c 1.21023,0.008 2.41686,0.49338 3.33799,1.45388 l 6.59402,6.87013 c 1.84227,1.92031 1.821,4.99379 -0.0447,6.88922 l -3.36889,3.42152 c -1.8665,1.8954 -4.8523,1.8743 -6.69453,-0.0461 l -6.59403,-6.8733 c -1.84222,-1.92031 -1.82174,-4.99064 0.0447,-6.88604 l 3.36891,-3.42153 c 0.93326,-0.94769 2.14631,-1.41564 3.35655,-1.40776 z m -13.47562,13.68458 c 1.20989,0.007 2.4153,0.49369 3.33642,1.45387 l 6.59404,6.87173 c 1.84224,1.92033 1.82174,4.99221 -0.0447,6.88761 l -3.36893,3.42155 c -1.86649,1.89539 -4.85228,1.87587 -6.69452,-0.0445 l -6.59404,-6.87331 c -1.84223,-1.92031 -1.82173,-4.99062 0.0447,-6.88603 l 3.3689,-3.42312 c 0.93327,-0.94769 2.1482,-1.41589 3.35812,-1.40774 z m -13.4772,13.68458 c 1.20992,0.007 2.41531,0.49373 3.33643,1.45387 l 6.59405,6.87332 c 1.84224,1.92032 1.82322,4.99062 -0.0433,6.88601 l -3.37046,3.41995 c -1.86649,1.89542 -4.85073,1.87733 -6.69298,-0.0429 l -6.59406,-6.87328 c -1.84225,-1.9203 -1.82163,-4.99066 0.0447,-6.88604 l 3.3689,-3.42312 c 0.93327,-0.94768 2.14664,-1.4159 3.35656,-1.40774 z m -13.47718,13.68456 c 1.20992,0.008 2.41532,0.4937 3.33643,1.45388 l 6.59405,6.87332 c 1.84224,1.92033 1.82314,4.99065 -0.0433,6.88603 l -3.36892,3.42313 c -1.86649,1.89538 -4.85225,1.8742 -6.69452,-0.0461 l -6.594,-6.87338 c -1.84224,-1.92035 -1.8217,-4.99063 0.0449,-6.88602 l 3.36891,-3.42154 c 0.93325,-0.9477 2.14663,-1.41748 3.35654,-1.40934 z m -13.47564,13.68617 c 1.21023,0.008 2.41532,0.49335 3.33644,1.45389 l 6.59402,6.87012 c 1.84225,1.92033 1.82133,4.99541 -0.0447,6.8908 l -3.36891,3.41995 c -1.86651,1.89538 -4.85075,1.87425 -6.69298,-0.0461 l -6.594026,-6.87179 c -1.842248,-1.92033 -1.823222,-4.99221 0.04324,-6.88762 l 3.36891,-3.41995 c 0.93325,-0.9477 2.147846,-1.41724 3.358096,-1.40933 z"
       id="rect5116"
       inkscape:connector-curvature="0" />
  </g>
  <g
     inkscape:groupmode="layer"
     id="layer2"
     inkscape:label="audio"
     style="display:inline">
    <path
       style="color:#000000;font-style:normal;font-variant:normal;font-weight:normal;font-stretch:normal;font-size:medium;line-height:normal;font-family:sans-serif;font-variant-ligatures:normal;font-variant-position:normal;font-variant-caps:normal;font-variant-numeric:normal;font-variant-alternates:normal;font-feature-settings:normal;text-indent:0;text-align:start;text-decoration:none;text-decoration-line:none;text-decoration-style:solid;text-decoration-color:#000000;letter-spacing:normal;word-spacing:normal;text-transform:none;writing-mode:lr-tb;direction:ltr;text-orientation:mixed;dominant-baseline:auto;baseline-shift:baseline;text-anchor:start;white-space:normal;shape-padding:0;clip-rule:nonzero;display:inline;overflow:visible;visibility:visible;opacity:1;isolation:auto;mix-blend-mode:normal;color-interpolation:sRGB;color-interpolation-filters:linearRGB;solid-color:#000000;solid-opacity:1;vector-effect:none;fill:#000000;fill-opacity:1;fill-rule:nonzero;stroke:#000000;stroke-width:0.25531918;stroke-linecap:butt;stroke-linejoin:miter;stroke-miterlimit:4;stroke-dasharray:none;stroke-dashoffset:0;stroke-opacity:1;color-rendering:auto;image-rendering:auto;shape-rendering:auto;text-rendering:auto;enable-background:accumulate"
       d="m 27.09966,125.57447 v 0.85106 h 200 v -0.85106 z"
       id="path4515"
       inkscape:connector-curvature="0" />
    <path
       style="fill:#3465a4;fill-opacity:1;stroke:#cc0000;stroke-width:1;stroke-linecap:butt;stroke-linejoin:miter;stroke-miterlimit:4;stroke-dasharray:none;stroke-opacity:1;opacity:0.548"
       d="m 39,126 c 0,0 20.52327,-54.744293 44,-55 47.79768,-0.52061 44.20598,110.78791 92,110 23.26818,-0.38359 43,-55 43,-55"
       id="path4563"
       inkscape:connector-curvature="0"
       sodipodi:nodetypes="cssc" />
  </g>
  <g
     inkscape:groupmode="layer"
     id="layer4"
     inkscape:label="freccie"
     style="display:inline">
    <path
       inkscape:connector-curvature="0"
       id="path4523"
       d="M 2.069319,103.83983 H 33.099072 A 85.887249,98.679685 88.352449 0 1 69.429958,62.490983 L 72.914823,74.529541 119.92565,33.792702 56.549123,18 61.453971,34.942086 A 128.2911,113.72686 0.454192 0 0 2.069319,103.83983 Z m 130.943061,129.2889 63.3746,15.7909 -5.18649,-17.92027 a 128.2911,113.72686 0.454192 0 0 57.58394,-66.53884 h -32.21664 a 85.887249,98.679685 88.352449 0 1 -33.7862,37.46714 l -2.76031,-9.5339 z"
       style="display:inline;opacity:0.597;fill:#000000;fill-opacity:0.96946561;stroke:none;stroke-width:0.9747355;filter:url(#filter4533)" />
    <path
       style="display:inline;fill:#5eb907;fill-opacity:0.96946561;stroke:#000000;stroke-width:0.975;stroke-miterlimit:4;stroke-dasharray:none"
       d="M 4.0693194,97.839825 H 35.099072 A 85.887249,98.679685 88.352449 0 1 71.429958,56.490983 L 74.914823,68.529541 121.92565,27.792702 58.549123,12 63.453971,28.942086 A 128.2911,113.72686 0.454192 0 0 4.0693194,97.839825 Z M 135.01238,227.12873 l 63.3746,15.7909 -5.18649,-17.92027 a 128.2911,113.72686 0.454192 0 0 57.58394,-66.53884 h -32.21664 a 85.887249,98.679685 88.352449 0 1 -33.7862,37.46714 l -2.76031,-9.5339 z"
       id="path4664-6"
       inkscape:connector-curvature="0" />
  </g>
  <g
     inkscape:groupmode="layer"
     id="layer5"
     inkscape:label="ffmpeg"
     style="display:none">
    <path
       style="color:#000000;font-style:normal;font-variant:normal;font-weight:normal;font-stretch:normal;font-size:medium;line-height:normal;font-family:sans-serif;font-variant-ligatures:normal;font-variant-position:normal;font-variant-caps:normal;font-variant-numeric:normal;font-variant-alternates:normal;font-feature-settings:normal;text-indent:0;text-align:start;text-decoration:none;text-decoration-line:none;text-decoration-style:solid;text-decoration-color:#000000;letter-spacing:normal;word-spacing:normal;text-transform:none;writing-mode:lr-tb;direction:ltr;text-orientation:mixed;dominant-baseline:auto;baseline-shift:baseline;text-anchor:start;white-space:normal;shape-padding:0;clip-rule:nonzero;display:inline;overflow:visible;visibility:visible;opacity:1;isolation:auto;mix-blend-mode:normal;color-interpolation:sRGB;color-interpolation-filters:linearRGB;solid-color:#000000;solid-opacity:1;vector-effect:none;fill:#73d216;fill-opacity:1;fill-rule:nonzero;stroke:#4e9a06;stroke-width:6.26205349;stroke-linecap:round;stroke-linejoin:round;stroke-miterlimit:4;stroke-dasharray:none;stroke-dashoffset:0;stroke-opacity:1;color-rendering:auto;image-rendering:auto;shape-rendering:auto;text-rendering:auto;enable-background:accumulate"
       d="M 46.21789,49.048811 V 50 H 94 L 47.113323,96.8867 v 58.41606 L 152.41607,50 h 50.99422 L 51.220872,206.94535 h 53.636008 l 99.20177,-99.20181 v 55.72603 l -43.4758,43.47578 h 44.67958 l -1.69245,-0.9512 h -40.69089 l 42.13076,-42.13076 V 105.44734 L 104.46303,205.99415 H 53.468798 L 205.65821,49.048811 H 152.0222 L 48.064507,153.00653 V 97.28055 L 96.2962,49.048811 Z"
       id="path4593"
       inkscape:connector-curvature="0"
       sodipodi:nodetypes="ccccccccccccccccccccccccc" />
  </g>
</svg>
