<?xml version="1.0" encoding="UTF-8" standalone="no"?>
<!-- Created with Inkscape (http://www.inkscape.org/) -->

<svg
   xmlns:osb="http://www.openswatchbook.org/uri/2009/osb"
   xmlns:dc="http://purl.org/dc/elements/1.1/"
   xmlns:cc="http://creativecommons.org/ns#"
   xmlns:rdf="http://www.w3.org/1999/02/22-rdf-syntax-ns#"
   xmlns:svg="http://www.w3.org/2000/svg"
   xmlns="http://www.w3.org/2000/svg"
   xmlns:xlink="http://www.w3.org/1999/xlink"
   xmlns:sodipodi="http://sodipodi.sourceforge.net/DTD/sodipodi-0.dtd"
   xmlns:inkscape="http://www.inkscape.org/namespaces/inkscape"
   width="256px"
   height="256px"
   viewBox="0 0 256 256"
   version="1.1"
   id="SVGRoot"
   sodipodi:docname="icon_import.svg"
   inkscape:version="0.92.1 r15371"
   enable-background="new">
  <sodipodi:namedview
     id="base"
     pagecolor="#ffffff"
     bordercolor="#666666"
     borderopacity="1.0"
     inkscape:pageopacity="0.0"
     inkscape:pageshadow="2"
     inkscape:zoom="2.16"
     inkscape:cx="12.990099"
     inkscape:cy="109.43067"
     inkscape:document-units="px"
     inkscape:current-layer="layer1"
     showgrid="true"
     inkscape:window-width="1920"
     inkscape:window-height="1026"
     inkscape:window-x="0"
     inkscape:window-y="26"
     inkscape:window-maximized="1"
     inkscape:grid-bbox="true"
     inkscape:measure-start="110,130"
     inkscape:measure-end="0,0"
     showguides="false">
    <inkscape:grid
       type="xygrid"
       id="grid5114" />
  </sodipodi:namedview>
  <defs
     id="defs4485">
    <inkscape:path-effect
       effect="bspline"
       id="path-effect4551"
       is_visible="true"
       weight="33.333333"
       steps="2"
       helper_size="0"
       apply_no_weight="true"
       apply_with_weight="true"
       only_selected="false" />
    <inkscape:path-effect
       effect="skeletal"
       id="path-effect4547"
       is_visible="true"
       pattern="M 0,5 C 0,2.24 2.24,0 5,0 7.76,0 10,2.24 10,5 10,7.76 7.76,10 5,10 2.24,10 0,7.76 0,5 Z"
       copytype="single_stretched"
       prop_scale="1"
       scale_y_rel="false"
       spacing="0"
       normal_offset="0"
       tang_offset="0"
       prop_units="false"
       vertical_pattern="false"
       fuse_tolerance="0" />
    <inkscape:path-effect
       effect="bspline"
       id="path-effect4545"
       is_visible="true"
       weight="33.333333"
       steps="2"
       helper_size="0"
       apply_no_weight="true"
       apply_with_weight="true"
       only_selected="false" />
    <inkscape:path-effect
       effect="skeletal"
       id="path-effect4541"
       is_visible="true"
       pattern="M 0,5 C 0,2.24 2.24,0 5,0 7.76,0 10,2.24 10,5 10,7.76 7.76,10 5,10 2.24,10 0,7.76 0,5 Z"
       copytype="single_stretched"
       prop_scale="1"
       scale_y_rel="false"
       spacing="0"
       normal_offset="0"
       tang_offset="0"
       prop_units="false"
       vertical_pattern="false"
       fuse_tolerance="0" />
    <inkscape:path-effect
       effect="spiro"
       id="path-effect4539"
       is_visible="true" />
    <inkscape:path-effect
       effect="bspline"
       id="path-effect4535"
       is_visible="true"
       weight="33.333333"
       steps="2"
       helper_size="0"
       apply_no_weight="true"
       apply_with_weight="true"
       only_selected="false" />
    <inkscape:path-effect
       effect="skeletal"
       id="path-effect4531"
       is_visible="true"
       pattern="M 0,5 C 0,2.24 2.24,0 5,0 7.76,0 10,2.24 10,5 10,7.76 7.76,10 5,10 2.24,10 0,7.76 0,5 Z"
       copytype="single_stretched"
       prop_scale="1"
       scale_y_rel="false"
       spacing="0"
       normal_offset="0"
       tang_offset="0"
       prop_units="false"
       vertical_pattern="false"
       fuse_tolerance="0" />
    <inkscape:path-effect
       effect="bspline"
       id="path-effect4529"
       is_visible="true"
       weight="33.333333"
       steps="2"
       helper_size="0"
       apply_no_weight="true"
       apply_with_weight="true"
       only_selected="false" />
    <inkscape:path-effect
       effect="skeletal"
       id="path-effect4525"
       is_visible="true"
       pattern="M 0,5 C 0,2.24 2.24,0 5,0 7.76,0 10,2.24 10,5 10,7.76 7.76,10 5,10 2.24,10 0,7.76 0,5 Z"
       copytype="single_stretched"
       prop_scale="1"
       scale_y_rel="false"
       spacing="0"
       normal_offset="0"
       tang_offset="0"
       prop_units="false"
       vertical_pattern="false"
       fuse_tolerance="0" />
    <inkscape:path-effect
       effect="bspline"
       id="path-effect4523"
       is_visible="true"
       weight="33.333333"
       steps="2"
       helper_size="0"
       apply_no_weight="true"
       apply_with_weight="true"
       only_selected="false" />
    <inkscape:path-effect
       effect="bspline"
       id="path-effect4519"
       is_visible="true"
       weight="33.333333"
       steps="2"
       helper_size="0"
       apply_no_weight="true"
       apply_with_weight="true"
       only_selected="false" />
    <linearGradient
       inkscape:collect="always"
       id="linearGradient4752">
      <stop
         style="stop-color:#888a85;stop-opacity:1;"
         offset="0"
         id="stop4748" />
      <stop
         style="stop-color:#888a85;stop-opacity:0;"
         offset="1"
         id="stop4750" />
    </linearGradient>
    <pattern
       inkscape:isstock="true"
       inkscape:stockid="Stripes 1:1"
       id="Strips1_1"
       patternTransform="translate(0,0) scale(10,10)"
       height="1"
       width="2"
       patternUnits="userSpaceOnUse"
       inkscape:collect="always">
      <rect
         id="rect5447"
         height="2"
         width="1"
         y="-0.5"
         x="0"
         style="fill:black;stroke:none" />
    </pattern>
    <linearGradient
       id="linearGradient4727"
       osb:paint="solid">
      <stop
         style="stop-color:#ce5c00;stop-opacity:1;"
         offset="0"
         id="stop4725" />
    </linearGradient>
    <pattern
       patternUnits="userSpaceOnUse"
       width="55"
       height="90"
       patternTransform="translate(-60,50.5)"
       id="pattern6214">
      <g
         style="fill:url(#Strips1_1);fill-opacity:1"
         transform="translate(-15,-28.5)"
         id="g4691">
        <rect
           style="opacity:0.81499999;fill:url(#Strips1_1);fill-opacity:1;stroke:none;stroke-width:4.52699995;stroke-linecap:round;stroke-linejoin:bevel;stroke-miterlimit:17.60000038;stroke-dasharray:none;stroke-dashoffset:0;stroke-opacity:1;paint-order:stroke fill markers"
           id="rect4683"
           width="30"
           height="30"
           x="40"
           y="59"
           ry="7.9000001" />
        <path
           inkscape:connector-curvature="0"
           style="opacity:0.81499999;fill:url(#Strips1_1);fill-opacity:1;stroke:none;stroke-width:8.60130024;stroke-linecap:round;stroke-linejoin:bevel;stroke-miterlimit:17.60000038;stroke-dasharray:none;stroke-dashoffset:0;stroke-opacity:1;paint-order:stroke fill markers"
           d="m 15,28.5 v 90 l 45,-45 z"
           id="path4687" />
      </g>
    </pattern>
    <linearGradient
       inkscape:collect="always"
       xlink:href="#linearGradient4752"
       id="linearGradient4754"
       x1="11.826138"
       y1="245.7171"
       x2="149.78668"
       y2="106.13758"
       gradientUnits="userSpaceOnUse"
       gradientTransform="matrix(0.95425703,0,0,0.95425703,5.390281,5.594659)" />
    <linearGradient
       inkscape:collect="always"
       xlink:href="#linearGradient4560"
       id="linearGradient4562"
       x1="-11.593207"
       y1="128.66191"
       x2="268.93854"
       y2="128.66191"
       gradientUnits="userSpaceOnUse"
       gradientTransform="matrix(0.28928803,-0.28928803,0.28928803,0.28928803,52.640812,179.88933)" />
    <linearGradient
       inkscape:collect="always"
       id="linearGradient4560">
      <stop
         style="stop-color:#380000;stop-opacity:1;"
         offset="0"
         id="stop4556" />
      <stop
         style="stop-color:#380000;stop-opacity:0;"
         offset="1"
         id="stop4558" />
    </linearGradient>
  </defs>
  <metadata
     id="metadata4488">
    <rdf:RDF>
      <cc:Work
         rdf:about="">
        <dc:format>image/svg+xml</dc:format>
        <dc:type
           rdf:resource="http://purl.org/dc/dcmitype/StillImage" />
        <dc:title />
      </cc:Work>
    </rdf:RDF>
  </metadata>
  <g
     inkscape:groupmode="layer"
     id="layer3"
     inkscape:label="sfondo"
     style="display:none">
    <rect
       style="display:inline;opacity:1;fill:#eeeeec;fill-opacity:1;stroke:none;stroke-width:7.00387716;stroke-linecap:round;stroke-linejoin:bevel;stroke-miterlimit:17.60000038;stroke-dasharray:none;stroke-dashoffset:0;stroke-opacity:0.97647059;paint-order:stroke fill markers"
       id="rect4568-3"
       width="222.07193"
       height="222.07193"
       x="16.675457"
       y="18"
       ry="22.6604" />
  </g>
  <g
     style="display:none"
     inkscape:label="sfondo copia"
     id="g4738"
     inkscape:groupmode="layer">
    <rect
       ry="22.6604"
       y="18"
       x="16.675457"
       height="222.07193"
       width="222.07193"
       id="rect4736"
       style="display:inline;opacity:1;fill:url(#linearGradient4754);fill-opacity:1;stroke:none;stroke-width:7.00387716;stroke-linecap:round;stroke-linejoin:bevel;stroke-miterlimit:17.60000038;stroke-dasharray:none;stroke-dashoffset:0;stroke-opacity:0.97647059;paint-order:stroke fill markers" />
  </g>
  <g
     inkscape:groupmode="layer"
     id="layer1"
     inkscape:label="preset"
     style="display:inline">
    <path
       style="display:inline;opacity:1;fill:url(#linearGradient4562);fill-opacity:1;stroke:none;stroke-width:0.5318374"
       d="m 105.19536,118.78947 0.93165,121.29359 42.98613,0.76065 -0.92893,-121.01237 z"
       id="rect5216"
       inkscape:connector-curvature="0" />
    <path
       style="display:inline;opacity:1;fill:#180000;fill-opacity:0.8835983;stroke:none;stroke-width:0.53956097"
       d="m 91.15519,118.61913 0.928181,120.91499 17.206309,0.36806 c -0.48055,-0.93335 -0.75955,-1.98483 -0.76808,-3.09791 l -0.10345,-13.50033 c -0.0288,-3.73957 2.95912,-6.6885 6.6996,-6.61065 l 24.90933,0.51701 c 3.74028,0.0776 6.77367,3.15093 6.80253,6.89036 l 0.10345,13.50032 c 0.008,1.12378 -0.2581,2.17303 -0.73352,3.09182 l 17.22031,0.36823 -0.92682,-120.68531 -18.71356,-0.46008 c 1.39056,1.28648 2.27349,3.11329 2.28902,5.137 l 0.10609,13.7765 c 0.0293,3.81589 -3.01921,6.82337 -6.83581,6.74417 l -24.6337,-0.51112 c -3.8166,-0.0792 -6.91264,-3.21386 -6.94194,-7.02976 l -0.10608,-13.77648 c -0.0161,-2.09416 0.89871,-3.94057 2.35496,-5.17151 z m 3.563913,2.04077 c 0.494303,-0.48751 1.180267,-0.78093 1.943613,-0.7651 l 5.463644,0.11387 c 1.52664,0.0316 2.76534,1.28579 2.77707,2.81215 l 0.0219,2.75581 c 0.012,1.52635 -1.20894,2.72985 -2.73561,2.69815 l -5.463645,-0.11388 c -1.526633,-0.0316 -2.764663,-1.28516 -2.776418,-2.81149 l -0.0213,-2.75518 c -0.006,-0.76317 0.296459,-1.44673 0.790685,-1.93433 z m 0.0848,11.02133 c 0.494303,-0.48752 1.180943,-0.78031 1.944252,-0.76447 l 5.463007,0.11329 c 1.52662,0.0317 2.76472,1.2864 2.77642,2.81277 l 0.0213,2.7539 c 0.012,1.52637 -1.20768,2.72986 -2.73431,2.69821 l -5.463652,-0.11392 c -1.526638,-0.0317 -2.764701,-1.28641 -2.776423,-2.81277 l -0.0207,-2.75452 c -0.006,-0.76318 0.295852,-1.44483 0.79008,-1.93245 z m 0.0841,11.02066 c 0.49431,-0.48752 1.18095,-0.78031 1.944257,-0.76445 l 5.46364,0.11393 c 1.52664,0.0317 2.7653,1.28453 2.77699,2.81092 l 0.0213,2.75518 c 0.012,1.52636 -1.20831,2.73049 -2.73492,2.69882 l -5.463628,-0.11395 c -1.526662,-0.0317 -2.76406,-1.28577 -2.775787,-2.81213 l -0.0219,-2.75582 c -0.006,-0.76319 0.295872,-1.44484 0.790081,-1.93245 z m 0.0848,11.02004 c 0.494119,-0.48733 1.182116,-0.78058 1.9449,-0.7651 l 5.462375,0.11394 c 1.52665,0.0317 2.76504,1.28606 2.77706,2.81212 l 0.0219,2.75582 c 0.012,1.52635 -1.20832,2.72922 -2.73498,2.69753 l -5.463615,-0.11395 c -1.526639,-0.0317 -2.765299,-1.28453 -2.776979,-2.81092 l -0.022,-2.75582 c -0.006,-0.76318 0.297109,-1.44584 0.791337,-1.9337 z m 0.0841,11.02067 c 0.494303,-0.48752 1.180928,-0.78029 1.944262,-0.76446 l 5.463636,0.11393 c 1.52665,0.0317 2.76533,1.2845 2.77699,2.81093 l 0.0213,2.75516 c 0.012,1.52638 -1.2079,2.73091 -2.73428,2.6995 l -5.463669,-0.11394 c -1.526644,-0.0317 -2.764525,-1.28657 -2.776345,-2.81283 l -0.02131,-2.75517 c -0.006,-0.7632 0.295233,-1.44549 0.789443,-1.9331 z m 14.830548,-12.25796 c 1.23589,-1.21894 2.95204,-1.95173 4.86032,-1.91211 l 24.63313,0.5118 c 3.81659,0.0792 6.91201,3.21449 6.94138,7.03034 l 0.1068,13.77585 c 0.0292,3.8159 -3.01985,6.82401 -6.83652,6.74474 l -24.63312,-0.51173 c -3.8166,-0.0792 -6.91265,-3.21388 -6.94195,-7.02977 l -0.1068,-13.77584 c -0.0146,-1.90796 0.74109,-3.61417 1.97676,-4.83333 z m -14.7457,23.27928 c 0.494458,-0.48738 1.181582,-0.78094 1.944897,-0.76508 l 5.463633,0.11393 c 1.52665,0.0317 2.76471,1.28513 2.77649,2.81142 l 0.0213,2.75518 c 0.012,1.52635 -1.20832,2.72921 -2.73499,2.69751 l -5.462999,-0.1133 c -1.52665,-0.0317 -2.765933,-1.28518 -2.777621,-2.81157 l -0.0213,-2.75518 c -0.006,-0.76318 0.296497,-1.44545 0.790694,-1.93307 z m 54.45105,-53.96568 c 0.49445,-0.48738 1.18032,-0.7797 1.94363,-0.76384 l 5.46428,0.11326 c 1.52663,0.0317 2.76407,1.28576 2.77578,2.81212 l 0.0219,2.75582 c 0.012,1.52635 -1.20766,2.72988 -2.73442,2.69808 l -5.46427,-0.11326 c -1.52664,-0.0317 -2.76408,-1.28575 -2.77586,-2.81207 l -0.022,-2.75708 c -0.006,-0.76318 0.29651,-1.44548 0.7907,-1.93306 z m -54.366275,64.98572 c 0.493878,-0.48822 1.181038,-0.78146 1.944246,-0.76574 l 5.463649,0.11393 c 1.52665,0.0317 2.76518,1.28724 2.777,2.8135 l 0.0207,2.75452 c 0.012,1.52635 -1.20771,2.72985 -2.73436,2.69815 l -5.463614,-0.11392 c -1.526636,-0.0317 -2.764031,-1.28577 -2.775769,-2.81211 l -0.0213,-2.75519 c -0.006,-0.76317 0.295246,-1.44517 0.789421,-1.93308 z m 54.451065,-53.96443 c 0.49373,-0.48808 1.17965,-0.78032 1.94298,-0.76447 l 5.46427,0.11331 c 1.52664,0.0317 2.76531,1.28581 2.77706,2.81214 l 0.0213,2.75517 c 0.012,1.52634 -1.20828,2.72923 -2.73492,2.69758 l -5.46363,-0.11269 c -1.52663,-0.0317 -2.76471,-1.28641 -2.77642,-2.81278 l -0.0207,-2.75452 c -0.006,-0.76318 0.29584,-1.4461 0.79007,-1.93373 z m -54.366927,64.9851 c 0.493745,-0.48809 1.18159,-0.78092 1.94489,-0.76509 l 5.463647,0.11393 c 1.52663,0.0317 2.76467,1.28518 2.77642,2.8115 l 0.0213,2.75645 c 0.012,1.52634 -1.20831,2.72925 -2.73492,2.69759 l -5.463033,-0.11333 c -1.526644,-0.0317 -2.764689,-1.28643 -2.77642,-2.81277 l -0.0219,-2.75582 c -0.006,-0.76319 0.295868,-1.44483 0.790072,-1.93246 z m 54.451687,-53.96378 c 0.49375,-0.48808 1.18033,-0.77967 1.94364,-0.76382 l 5.46427,0.11203 c 1.52665,0.0317 2.7647,1.28641 2.77642,2.81276 l 0.0207,2.75454 c 0.012,1.52636 -1.20771,2.72983 -2.73435,2.69815 l -5.46425,-0.11332 c -1.52665,-0.0317 -2.76473,-1.2864 -2.77649,-2.8127 l -0.0207,-2.75453 c -0.006,-0.76317 0.29648,-1.44544 0.79069,-1.93305 z m -39.66245,41.66452 c 1.21052,-1.19525 2.89326,-1.91237 4.76352,-1.87343 l 24.90997,0.51638 c 3.74025,0.0776 6.77356,3.15107 6.80253,6.89036 l 0.10345,13.50033 c 0.0288,3.73956 -2.95851,6.68785 -6.69898,6.61002 l -24.90999,-0.51642 c -3.74025,-0.0776 -6.77429,-3.15158 -6.80317,-6.89099 l -0.10345,-13.49905 c -0.0144,-1.86979 0.72527,-3.54231 1.93613,-4.7372 z m -14.704455,23.3193 7.07e-4,7.1e-4 c 0.493738,-0.48808 1.180932,-0.78031 1.944261,-0.76445 l 5.462987,0.11328 c 1.52666,0.0317 2.76534,1.28582 2.77706,2.81213 l 0.0213,2.75519 c 0.012,1.52636 -1.20833,2.7292 -2.73492,2.69758 l -5.463732,-0.11405 c -1.526643,-0.0317 -2.764038,-1.28577 -2.775783,-2.81213 l -0.0213,-2.75516 c -0.006,-0.76317 0.295238,-1.44547 0.789435,-1.9331 z m 54.451695,-53.96376 c 0.49354,-0.48788 1.18143,-0.78005 1.94427,-0.76448 l 5.46234,0.11266 c 1.52663,0.0317 2.76508,1.28729 2.77713,2.81333 l 0.0213,2.75518 c 0.012,1.52635 -1.20771,2.72861 -2.73431,2.69697 l -5.46364,-0.11267 c -1.52662,-0.0317 -2.76472,-1.28639 -2.77643,-2.81277 l -0.0213,-2.75518 c -0.006,-0.76317 0.29646,-1.44523 0.7907,-1.93308 z m -54.366906,64.98508 c 0.494452,-0.48738 1.180954,-0.7803 1.944268,-0.76446 l 5.463648,0.11394 c 1.52664,0.0317 2.76594,1.28517 2.77767,2.81148 l 0.0207,2.75454 c 0.012,1.52636 -1.20897,2.72983 -2.73562,2.69814 l -5.462991,-0.1133 c -1.526644,-0.0317 -2.764689,-1.28643 -2.77642,-2.81277 l -0.0207,-2.75453 c -0.006,-0.76318 0.295224,-1.44548 0.789435,-1.9331 z m 54.449786,-53.96444 9.1e-4,-0.002 c 0.49446,-0.48738 1.18035,-0.77967 1.94365,-0.76384 l 7.1e-4,-7.1e-4 5.46426,0.11331 c 1.52667,0.0317 2.76473,1.2864 2.7765,2.81271 l 0.0207,2.75452 c 0.012,1.52636 -1.20677,2.73081 -2.73372,2.69879 l -5.46424,-0.11331 c -1.52665,-0.0317 -2.76443,-1.2867 -2.77643,-2.81278 l -0.0221,-2.75581 c -0.006,-0.7632 0.29586,-1.44483 0.79007,-1.93244 z m -54.36564,64.98511 c 0.494579,-0.48751 1.181434,-0.78107 1.94489,-0.7651 l 5.46364,0.11394 c 1.52665,0.0317 2.76534,1.28579 2.77705,2.81212 l 0.0207,2.75454 c 0.012,1.52636 -1.20766,2.73114 -2.73427,2.69948 l -5.463653,-0.11394 c -1.526636,-0.0317 -2.764674,-1.28644 -2.776419,-2.81276 l -0.0207,-2.75452 c -0.006,-0.76318 0.294524,-1.4459 0.788777,-1.93374 z m 54.45105,-53.96441 c 0.49375,-0.48809 1.18096,-0.78032 1.94427,-0.76448 l 5.46428,0.11332 c 1.52663,0.0317 2.76404,1.28576 2.77577,2.81211 l 0.0213,2.75519 c 0.012,1.52636 -1.20707,2.7292 -2.73364,2.69758 l -5.46429,-0.11331 c -1.52665,-0.0317 -2.76531,-1.28581 -2.77707,-2.81215 l -0.0207,-2.75452 c -0.006,-0.76317 0.29586,-1.4461 0.79007,-1.93372 z m 0.0855,11.02068 c 0.49458,-0.48751 1.1808,-0.78045 1.94425,-0.76447 l 5.46299,0.11202 c 1.52664,0.0317 2.76504,1.28733 2.77708,2.81343 l 0.0213,2.75515 c 0.012,1.52636 -1.20829,2.72926 -2.73499,2.69752 l -5.46426,-0.11333 c -1.5266,-0.0317 -2.76406,-1.28575 -2.77585,-2.81206 l -0.0213,-2.75519 c -0.006,-0.76316 0.29646,-1.44521 0.79071,-1.93306 z m 0.0848,11.02003 c 0.49374,-0.48808 1.1803,-0.77967 1.94363,-0.76383 l 5.46362,0.11267 c 1.52664,0.0317 2.76472,1.28639 2.77643,2.81277 l 0.0213,2.75518 c 0.012,1.52636 -1.20763,2.72989 -2.73427,2.69821 l -5.46427,-0.11331 c -1.52662,-0.0317 -2.76407,-1.28576 -2.77577,-2.81212 l -0.0221,-2.75581 c -0.006,-0.76318 0.29712,-1.44609 0.79136,-1.93371 z m 0.0841,11.02067 c 0.49374,-0.48809 1.18031,-0.77967 1.94363,-0.76382 l 5.46427,0.11331 c 1.52663,0.0317 2.76466,1.28515 2.77642,2.81149 l 0.0201,2.75514 c 0.012,1.52638 -1.20642,2.72986 -2.73302,2.69823 l -5.46427,-0.11329 c -1.52664,-0.0317 -2.76404,-1.28582 -2.77579,-2.81213 l -0.0221,-2.7558 c -0.006,-0.76318 0.29649,-1.44549 0.79073,-1.93308 z m 0.0841,11.02066 c 0.49445,-0.48737 1.18031,-0.77968 1.94364,-0.76383 l 5.46428,0.11332 c 1.52663,0.0317 2.76464,1.28519 2.7764,2.81148 l 0.0221,2.75582 c 0.012,1.52635 -1.20834,2.7292 -2.73499,2.69751 l -5.4643,-0.11335 c -1.52664,-0.0317 -2.76403,-1.28577 -2.7757,-2.81219 l -0.0213,-2.75519 c -0.006,-0.76316 0.29584,-1.4461 0.79005,-1.9337 z m 0.0855,11.0207 c 0.49458,-0.48751 1.18017,-0.77982 1.94364,-0.76384 l 5.46296,0.11202 c 1.52665,0.0317 2.76585,1.28786 2.77772,2.81407 l 0.0207,2.75452 c 0.012,1.52638 -1.20768,2.72861 -2.73435,2.69688 l -5.46366,-0.11271 c -1.52664,-0.0317 -2.76531,-1.28579 -2.77706,-2.81213 l -0.0207,-2.75452 c -0.006,-0.76319 0.29644,-1.4465 0.79069,-1.93435 z"
       id="rect5116"
       inkscape:connector-curvature="0" />
    <path
       style="opacity:1;fill:#3465a4;fill-opacity:1;fill-rule:nonzero;stroke:none;stroke-width:5.69580746;stroke-linecap:square;stroke-linejoin:round;stroke-miterlimit:4;stroke-dasharray:none;stroke-dashoffset:0;stroke-opacity:1;paint-order:stroke fill markers"
       d="m 58.71297,109.37162 v 0.22729 h -0.0252 v 47.1042 a 23.462482,15.076975 0 0 0 -8.47291,-1.03544 23.462482,15.076975 0 0 0 -23.461603,15.07706 23.462482,15.076975 0 0 0 23.461603,15.07705 23.462482,15.076975 0 0 0 23.46161,-15.07705 23.462482,15.076975 0 0 0 -0.45878,-2.90008 v -43.39599 h 15.64949 v -15.07704 z"
       id="path4567"
       inkscape:connector-curvature="0" />
    <path
       inkscape:connector-curvature="0"
       id="path4529"
       d="m 194.71297,109.37162 v 0.22729 h -0.0252 v 47.1042 a 23.462482,15.076975 0 0 0 -8.47291,-1.03544 23.462482,15.076975 0 0 0 -23.4616,15.07706 23.462482,15.076975 0 0 0 23.4616,15.07705 23.462482,15.076975 0 0 0 23.46161,-15.07705 23.462482,15.076975 0 0 0 -0.45878,-2.90008 v -43.39599 h 15.64949 v -15.07704 z"
       style="opacity:1;fill:#3465a4;fill-opacity:1;fill-rule:nonzero;stroke:none;stroke-width:5.69580746;stroke-linecap:square;stroke-linejoin:round;stroke-miterlimit:4;stroke-dasharray:none;stroke-dashoffset:0;stroke-opacity:1;paint-order:stroke fill markers" />
    <path
       style="display:inline;opacity:1;fill:#73d216;fill-opacity:1;fill-rule:nonzero;stroke:#ffffff;stroke-width:0.73697323;stroke-linecap:square;stroke-linejoin:round;stroke-miterlimit:4;stroke-dasharray:none;stroke-dashoffset:0;stroke-opacity:1;paint-order:stroke fill markers"
       d="M 64.566664,11.340876 C 37.702566,5.4568579 12.4131,26.607837 5.2834233,60.92307 15.779612,34.623224 37.771245,20.428591 60.362459,25.372348 86.87702,31.222378 94.022327,60.182643 95.543574,76.734304 l -10.831508,0.737694 12.316616,17.985612 12.317828,17.98467 7.03813,-19.303167 7.03925,-19.302928 -11.13433,0.758546 C 111.57108,49.645207 91.586762,17.302448 64.566664,11.340876 Z"
       id="path4527"
       inkscape:connector-curvature="0" />
    <path
       inkscape:connector-curvature="0"
       id="path4530"
       d="m 192.14073,11.340876 c 26.86409,-5.8840181 52.15356,15.266961 59.28324,49.582194 -10.49619,-26.299846 -32.48782,-40.494479 -55.07904,-35.550722 -26.51456,5.85003 -33.65987,34.810295 -35.18111,51.361956 l 10.8315,0.737694 -12.31661,17.985612 -12.31783,17.98467 -7.03813,-19.303167 -7.03925,-19.302928 11.13433,0.758546 c 0.71848,-25.949524 20.7028,-58.292283 47.7229,-64.253855 z"
       style="display:inline;opacity:1;fill:#73d216;fill-opacity:1;fill-rule:nonzero;stroke:#ffffff;stroke-width:0.73697323;stroke-linecap:square;stroke-linejoin:round;stroke-miterlimit:4;stroke-dasharray:none;stroke-dashoffset:0;stroke-opacity:1;paint-order:stroke fill markers" />
  </g>
</svg>
