<?xml version="1.0" encoding="UTF-8" standalone="no"?>
<!-- Created with Inkscape (http://www.inkscape.org/) -->

<svg
   xmlns:osb="http://www.openswatchbook.org/uri/2009/osb"
   xmlns:dc="http://purl.org/dc/elements/1.1/"
   xmlns:cc="http://creativecommons.org/ns#"
   xmlns:rdf="http://www.w3.org/1999/02/22-rdf-syntax-ns#"
   xmlns:svg="http://www.w3.org/2000/svg"
   xmlns="http://www.w3.org/2000/svg"
   xmlns:xlink="http://www.w3.org/1999/xlink"
   xmlns:sodipodi="http://sodipodi.sourceforge.net/DTD/sodipodi-0.dtd"
   xmlns:inkscape="http://www.inkscape.org/namespaces/inkscape"
   width="256px"
   height="256px"
   viewBox="0 0 256 256"
   version="1.1"
   id="SVGRoot"
   sodipodi:docname="icon_import.svg"
   inkscape:version="0.92.1 r15371"
   enable-background="new">
  <sodipodi:namedview
     id="base"
     pagecolor="#ffffff"
     bordercolor="#666666"
     borderopacity="1.0"
     inkscape:pageopacity="0.0"
     inkscape:pageshadow="2"
     inkscape:zoom="3.77"
     inkscape:cx="162.72976"
     inkscape:cy="133.93332"
     inkscape:document-units="px"
     inkscape:current-layer="layer1"
     showgrid="false"
     inkscape:window-width="1920"
     inkscape:window-height="1026"
     inkscape:window-x="0"
     inkscape:window-y="26"
     inkscape:window-maximized="1"
     inkscape:grid-bbox="true"
     inkscape:measure-start="110,130"
     inkscape:measure-end="0,0"
     showguides="false">
    <inkscape:grid
       type="xygrid"
       id="grid5114" />
  </sodipodi:namedview>
  <defs
     id="defs4485">
    <inkscape:path-effect
       effect="bspline"
       id="path-effect4551"
       is_visible="true"
       weight="33.333333"
       steps="2"
       helper_size="0"
       apply_no_weight="true"
       apply_with_weight="true"
       only_selected="false" />
    <inkscape:path-effect
       effect="skeletal"
       id="path-effect4547"
       is_visible="true"
       pattern="M 0,5 C 0,2.24 2.24,0 5,0 7.76,0 10,2.24 10,5 10,7.76 7.76,10 5,10 2.24,10 0,7.76 0,5 Z"
       copytype="single_stretched"
       prop_scale="1"
       scale_y_rel="false"
       spacing="0"
       normal_offset="0"
       tang_offset="0"
       prop_units="false"
       vertical_pattern="false"
       fuse_tolerance="0" />
    <inkscape:path-effect
       effect="bspline"
       id="path-effect4545"
       is_visible="true"
       weight="33.333333"
       steps="2"
       helper_size="0"
       apply_no_weight="true"
       apply_with_weight="true"
       only_selected="false" />
    <inkscape:path-effect
       effect="skeletal"
       id="path-effect4541"
       is_visible="true"
       pattern="M 0,5 C 0,2.24 2.24,0 5,0 7.76,0 10,2.24 10,5 10,7.76 7.76,10 5,10 2.24,10 0,7.76 0,5 Z"
       copytype="single_stretched"
       prop_scale="1"
       scale_y_rel="false"
       spacing="0"
       normal_offset="0"
       tang_offset="0"
       prop_units="false"
       vertical_pattern="false"
       fuse_tolerance="0" />
    <inkscape:path-effect
       effect="spiro"
       id="path-effect4539"
       is_visible="true" />
    <inkscape:path-effect
       effect="bspline"
       id="path-effect4535"
       is_visible="true"
       weight="33.333333"
       steps="2"
       helper_size="0"
       apply_no_weight="true"
       apply_with_weight="true"
       only_selected="false" />
    <inkscape:path-effect
       effect="skeletal"
       id="path-effect4531"
       is_visible="true"
       pattern="M 0,5 C 0,2.24 2.24,0 5,0 7.76,0 10,2.24 10,5 10,7.76 7.76,10 5,10 2.24,10 0,7.76 0,5 Z"
       copytype="single_stretched"
       prop_scale="1"
       scale_y_rel="false"
       spacing="0"
       normal_offset="0"
       tang_offset="0"
       prop_units="false"
       vertical_pattern="false"
       fuse_tolerance="0" />
    <inkscape:path-effect
       effect="bspline"
       id="path-effect4529"
       is_visible="true"
       weight="33.333333"
       steps="2"
       helper_size="0"
       apply_no_weight="true"
       apply_with_weight="true"
       only_selected="false" />
    <inkscape:path-effect
       effect="skeletal"
       id="path-effect4525"
       is_visible="true"
       pattern="M 0,5 C 0,2.24 2.24,0 5,0 7.76,0 10,2.24 10,5 10,7.76 7.76,10 5,10 2.24,10 0,7.76 0,5 Z"
       copytype="single_stretched"
       prop_scale="1"
       scale_y_rel="false"
       spacing="0"
       normal_offset="0"
       tang_offset="0"
       prop_units="false"
       vertical_pattern="false"
       fuse_tolerance="0" />
    <inkscape:path-effect
       effect="bspline"
       id="path-effect4523"
       is_visible="true"
       weight="33.333333"
       steps="2"
       helper_size="0"
       apply_no_weight="true"
       apply_with_weight="true"
       only_selected="false" />
    <inkscape:path-effect
       effect="bspline"
       id="path-effect4519"
       is_visible="true"
       weight="33.333333"
       steps="2"
       helper_size="0"
       apply_no_weight="true"
       apply_with_weight="true"
       only_selected="false" />
    <linearGradient
       inkscape:collect="always"
       id="linearGradient4752">
      <stop
         style="stop-color:#888a85;stop-opacity:1;"
         offset="0"
         id="stop4748" />
      <stop
         style="stop-color:#888a85;stop-opacity:0;"
         offset="1"
         id="stop4750" />
    </linearGradient>
    <pattern
       inkscape:isstock="true"
       inkscape:stockid="Stripes 1:1"
       id="Strips1_1"
       patternTransform="translate(0,0) scale(10,10)"
       height="1"
       width="2"
       patternUnits="userSpaceOnUse"
       inkscape:collect="always">
      <rect
         id="rect5447"
         height="2"
         width="1"
         y="-0.5"
         x="0"
         style="fill:black;stroke:none" />
    </pattern>
    <linearGradient
       id="linearGradient4727"
       osb:paint="solid">
      <stop
         style="stop-color:#ce5c00;stop-opacity:1;"
         offset="0"
         id="stop4725" />
    </linearGradient>
    <pattern
       patternUnits="userSpaceOnUse"
       width="55"
       height="90"
       patternTransform="translate(-60,50.5)"
       id="pattern6214">
      <g
         style="fill:url(#Strips1_1);fill-opacity:1"
         transform="translate(-15,-28.5)"
         id="g4691">
        <rect
           style="opacity:0.81499999;fill:url(#Strips1_1);fill-opacity:1;stroke:none;stroke-width:4.52699995;stroke-linecap:round;stroke-linejoin:bevel;stroke-miterlimit:17.60000038;stroke-dasharray:none;stroke-dashoffset:0;stroke-opacity:1;paint-order:stroke fill markers"
           id="rect4683"
           width="30"
           height="30"
           x="40"
           y="59"
           ry="7.9000001" />
        <path
           inkscape:connector-curvature="0"
           style="opacity:0.81499999;fill:url(#Strips1_1);fill-opacity:1;stroke:none;stroke-width:8.60130024;stroke-linecap:round;stroke-linejoin:bevel;stroke-miterlimit:17.60000038;stroke-dasharray:none;stroke-dashoffset:0;stroke-opacity:1;paint-order:stroke fill markers"
           d="m 15,28.5 v 90 l 45,-45 z"
           id="path4687" />
      </g>
    </pattern>
    <linearGradient
       inkscape:collect="always"
       xlink:href="#linearGradient4752"
       id="linearGradient4754"
       x1="11.826138"
       y1="245.7171"
       x2="149.78668"
       y2="106.13758"
       gradientUnits="userSpaceOnUse"
       gradientTransform="matrix(0.95425703,0,0,0.95425703,5.390281,5.594659)" />
    <linearGradient
       inkscape:collect="always"
       xlink:href="#linearGradient4560"
       id="linearGradient4562"
       x1="-11.593207"
       y1="128.66191"
       x2="268.93854"
       y2="128.66191"
       gradientUnits="userSpaceOnUse"
       gradientTransform="matrix(0.41211842,-0.00300337,0.00300337,0.40611169,37.681869,111.86144)" />
    <linearGradient
       inkscape:collect="always"
       id="linearGradient4560">
      <stop
         style="stop-color:#380000;stop-opacity:1;"
         offset="0"
         id="stop4556" />
      <stop
         style="stop-color:#380000;stop-opacity:0;"
         offset="1"
         id="stop4558" />
    </linearGradient>
    <linearGradient
       inkscape:collect="always"
       xlink:href="#linearGradient4560"
       id="linearGradient4962"
       gradientUnits="userSpaceOnUse"
       gradientTransform="matrix(0.22734683,-0.13347719,0.13155598,0.22401919,139.2067,176.82643)"
       x1="-11.593207"
       y1="128.66191"
       x2="268.93854"
       y2="128.66191" />
    <linearGradient
       inkscape:collect="always"
       xlink:href="#linearGradient4560"
       id="linearGradient4968"
       gradientUnits="userSpaceOnUse"
       gradientTransform="matrix(-0.03744207,-0.13577014,0.13378739,-0.03691079,210.13372,154.80113)"
       x1="-11.593207"
       y1="128.66191"
       x2="268.93854"
       y2="128.66191" />
  </defs>
  <metadata
     id="metadata4488">
    <rdf:RDF>
      <cc:Work
         rdf:about="">
        <dc:format>image/svg+xml</dc:format>
        <dc:type
           rdf:resource="http://purl.org/dc/dcmitype/StillImage" />
        <dc:title />
      </cc:Work>
    </rdf:RDF>
  </metadata>
  <g
     inkscape:groupmode="layer"
     id="layer3"
     inkscape:label="sfondo"
     style="display:none">
    <rect
       style="display:inline;opacity:1;fill:#eeeeec;fill-opacity:1;stroke:none;stroke-width:7.00387716;stroke-linecap:round;stroke-linejoin:bevel;stroke-miterlimit:17.60000038;stroke-dasharray:none;stroke-dashoffset:0;stroke-opacity:0.97647059;paint-order:stroke fill markers"
       id="rect4568-3"
       width="222.07193"
       height="222.07193"
       x="16.675457"
       y="18"
       ry="22.6604" />
  </g>
  <g
     style="display:none"
     inkscape:label="sfondo copia"
     id="g4738"
     inkscape:groupmode="layer">
    <rect
       ry="22.6604"
       y="18"
       x="16.675457"
       height="222.07193"
       width="222.07193"
       id="rect4736"
       style="display:inline;opacity:1;fill:url(#linearGradient4754);fill-opacity:1;stroke:none;stroke-width:7.00387716;stroke-linecap:round;stroke-linejoin:bevel;stroke-miterlimit:17.60000038;stroke-dasharray:none;stroke-dashoffset:0;stroke-opacity:0.97647059;paint-order:stroke fill markers" />
  </g>
  <g
     inkscape:groupmode="layer"
     id="layer1"
     inkscape:label="preset"
     style="display:inline">
    <path
       style="display:inline;opacity:1;fill:url(#linearGradient4562);fill-opacity:1;stroke:none;stroke-width:0.5318374"
       d="M 118.59329,105.27338 33.494219,191.69 l 30.3042,30.48737 84.902171,-86.21588 z"
       id="rect5216"
       inkscape:connector-curvature="0" />
    <path
       style="display:inline;opacity:1;fill:#180000;fill-opacity:0.8835983;stroke:none;stroke-width:0.53956097"
       d="m 108.64008,95.37079 -84.83386,86.1465 12.085077,12.24832 c 0.315193,-0.99479 0.858519,-1.93268 1.639462,-2.72569 l 9.471957,-9.61826 c 2.623607,-2.66433 6.852615,-2.66778 9.481319,-0.007 l 17.506585,17.72053 c 2.62873,2.66083 2.63199,6.94743 0.009,9.61171 l -9.47194,9.61825 c -0.78889,0.8002 -1.721747,1.35674 -2.712538,1.67518 l 12.094998,12.2582 84.67242,-85.98314 -13.10144,-13.36353 c 0.088,1.87851 -0.57023,3.78543 -1.99006,5.22722 l -9.66534,9.81538 c -2.67722,2.71866 -6.9911,2.72129 -9.67347,0.006 l -17.31298,-17.52433 c -2.68234,-2.71515 -2.6872,-7.08875 -0.01,-9.80741 l 9.66533,-9.81535 c 1.46924,-1.49201 3.43122,-2.16026 5.34647,-2.01606 z m 1.11402,3.92612 c 0.69938,-3.3e-4 1.39903,0.27012 1.93553,0.81315 l 3.83962,3.88714 c 1.07313,1.08586 1.07491,2.83587 0.004,3.92335 l -1.93294,1.96391 c -1.07068,1.08765 -2.7977,1.08799 -3.87064,0.002 l -3.83956,-3.88721 c -1.07312,-1.08586 -1.07486,-2.83496 -0.004,-3.92243 l 1.93292,-1.96304 c 0.53534,-0.54382 1.2357,-0.81645 1.93509,-0.81689 z m -7.73241,7.85233 c 0.69938,-3.3e-4 1.39907,0.27103 1.93553,0.81405 l 3.83953,3.88634 c 1.07311,1.08584 1.07403,2.83587 0.003,3.92332 l -1.93202,1.96215 c -1.07069,1.08766 -2.7968,1.08888 -3.86976,0.003 l -3.83956,-3.88721 c -1.07313,-1.08586 -1.07401,-2.83587 -0.003,-3.92334 l 1.93289,-1.96216 c 0.53535,-0.54383 1.23392,-0.81552 1.93333,-0.81598 z m -7.73245,7.85138 c 0.69939,-3.3e-4 1.39908,0.27104 1.93553,0.81407 l 3.83955,3.8872 c 1.07313,1.08586 1.07577,2.83496 0.005,3.92242 l -1.93293,1.96305 c -1.07069,1.08766 -2.7977,1.08889 -3.87062,0.003 l -3.83954,-3.88719 c -1.07315,-1.08588 -1.07401,-2.83497 -0.003,-3.92244 l 1.93295,-1.96391 c 0.53535,-0.54384 1.23395,-0.81552 1.93332,-0.81598 z m -7.7315,7.85143 c 0.69912,-3.3e-4 1.40011,0.27166 1.93645,0.81405 l 3.83865,3.88632 c 1.07314,1.08587 1.07451,2.83585 0.004,3.92331 l -1.93295,1.96392 c -1.07069,1.08765 -2.7968,1.08798 -3.86976,0.002 l -3.83953,-3.88719 c -1.07314,-1.08586 -1.07577,-2.83495 -0.005,-3.92241 l 1.93287,-1.96399 c 0.53535,-0.54383 1.23554,-0.81536 1.93511,-0.81599 z m -7.73245,7.85139 c 0.69939,-3.4e-4 1.39905,0.27103 1.93554,0.81405 l 3.83955,3.88721 c 1.07314,1.08587 1.07581,2.83495 0.005,3.92242 l -1.93292,1.96304 c -1.0707,1.08767 -2.79769,1.08947 -3.87064,0.004 l -3.83957,-3.88723 c -1.07314,-1.08586 -1.07377,-2.83585 -0.003,-3.92331 l 1.93291,-1.96305 c 0.53536,-0.54384 1.23395,-0.81642 1.93333,-0.81688 z m 19.30844,1.66512 c 1.74865,-8.4e-4 3.49813,0.67668 4.83929,2.03424 l 17.31209,17.52441 c 2.68234,2.71514 2.6863,7.08876 0.009,9.80744 l -9.66437,9.8154 c -2.67729,2.71859 -6.99201,2.7213 -9.67437,0.006 L 83.64323,154.03169 c -2.68234,-2.71515 -2.6872,-7.08877 -0.01,-9.80742 l 9.66437,-9.8154 c 1.33865,-1.35931 3.08733,-2.03928 4.83598,-2.04043 z m -27.04081,6.18724 c 0.6994,-1.3e-4 1.39998,0.27103 1.93643,0.81407 l 3.83954,3.8872 c 1.07314,1.08587 1.07492,2.83497 0.004,3.92242 l -1.93292,1.96305 c -1.07068,1.08765 -2.7968,1.08797 -3.86976,0.002 l -3.83952,-3.88633 c -1.07314,-1.08586 -1.07576,-2.83585 -0.005,-3.92332 l 1.93293,-1.96304 c 0.53534,-0.54383 1.23482,-0.81551 1.9342,-0.81599 z m 77.22751,-0.2221 c 0.69939,-1.3e-4 1.39819,0.27103 1.93465,0.81406 l 3.84049,3.88716 c 1.07313,1.08586 1.07402,2.83497 0.003,3.92243 l -1.93295,1.96392 c -1.07068,1.08765 -2.79679,1.08891 -3.86974,0.003 l -3.84048,-3.88716 c -1.07314,-1.08586 -1.07404,-2.83496 -0.003,-3.92244 l 1.93377,-1.96488 c 0.53534,-0.54383 1.23484,-0.81552 1.93419,-0.81598 z m -84.959034,8.07351 c 0.699574,-0.001 1.399954,0.27029 1.936434,0.81314 l 3.83956,3.88722 c 1.07314,1.08586 1.07377,2.83678 0.003,3.92425 l -1.9329,1.96216 c -1.07068,1.08765 -2.79681,1.08885 -3.869743,0.003 l -3.839528,-3.88719 c -1.073131,-1.08585 -1.073983,-2.83494 -0.0031,-3.9224 l 1.932933,-1.96306 c 0.535336,-0.54382 1.233729,-0.81619 1.933294,-0.81688 z M 140.58804,146.186 c 0.69937,-0.001 1.39815,0.27013 1.93462,0.81317 l 3.84042,3.88723 c 1.07313,1.08586 1.07487,2.83586 0.004,3.92332 l -1.93292,1.96304 c -1.07068,1.08765 -2.79679,1.08802 -3.86976,0.002 l -3.84038,-3.88635 c -1.07313,-1.08586 -1.07402,-2.83588 -0.003,-3.92334 l 1.93289,-1.96217 c 0.53535,-0.54383 1.23481,-0.81642 1.93422,-0.81689 z m -84.959064,8.07262 c 0.699389,-0.001 1.399973,0.27105 1.936434,0.81406 l 3.839551,3.88721 c 1.073127,1.08585 1.074859,2.83497 0.004,3.92242 l -1.933824,1.96395 c -1.07068,1.08765 -2.79682,1.08801 -3.869762,0.002 l -3.839542,-3.88635 c -1.073136,-1.08586 -1.073989,-2.83587 -0.0031,-3.92333 l 1.932947,-1.96392 c 0.53535,-0.54384 1.233928,-0.81551 1.933323,-0.81599 z m 77.226624,-0.22031 c 0.69938,-0.001 1.39818,0.27106 1.93464,0.81408 l 3.84134,3.88631 c 1.07314,1.08587 1.07401,2.83586 0.003,3.92332 l -1.9329,1.96218 c -1.07069,1.08766 -2.7968,1.08884 -3.86974,0.003 l -3.8404,-3.88722 c -1.07314,-1.08586 -1.07404,-2.83588 -0.003,-3.92332 l 1.9329,-1.96217 c 0.53534,-0.54382 1.2348,-0.81552 1.93418,-0.81598 z m -57.91862,1.82745 c 1.7137,-0.002 3.42813,0.66355 4.74248,1.99415 l 17.50749,17.72053 c 2.6287,2.66081 2.63181,6.94745 0.009,9.61171 L 87.724,194.8104 c -2.62361,2.66434 -6.85173,2.66776 -9.48044,0.007 L 60.735614,177.09647 c -2.628705,-2.66081 -2.631979,-6.94831 -0.0085,-9.6126 l 9.471046,-9.61735 c 1.3118,-1.33217 3.02517,-1.99948 4.73886,-2.00075 z m -27.039522,6.24428 5e-6,9.9e-4 c 0.699377,-0.001 1.399069,0.27102 1.935536,0.81407 l 3.839509,3.88632 c 1.073148,1.08587 1.074887,2.83589 0.004,3.92332 l -1.932933,1.96306 c -1.070687,1.08766 -2.796799,1.08796 -3.869748,0.002 l -3.839541,-3.88735 c -1.073136,-1.08586 -1.073988,-2.83495 -0.0031,-3.92243 l 1.932912,-1.96303 c 0.535336,-0.54382 1.233935,-0.81641 1.933318,-0.81689 z m 77.226622,-0.2203 c 0.69909,-10e-4 1.39924,0.27156 1.93555,0.81406 l 3.83948,3.88544 c 1.07313,1.08585 1.07367,2.83675 0.003,3.92421 l -1.93293,1.96305 c -1.07068,1.08765 -2.79593,1.08798 -3.86888,0.002 l -3.8404,-3.88636 c -1.07312,-1.08585 -1.07404,-2.83586 -0.003,-3.92334 l 1.93292,-1.96305 c 0.53534,-0.54382 1.23464,-0.81538 1.93422,-0.81599 z m -84.959033,8.07262 c 0.699393,-1.3e-4 1.399077,0.27104 1.935541,0.81407 l 3.839552,3.88721 c 1.073133,1.08586 1.075778,2.83585 0.0049,3.92329 l -1.932897,1.96217 c -1.070694,1.08767 -2.797704,1.08796 -3.870653,0.002 l -3.839512,-3.88632 c -1.073137,-1.08586 -1.073989,-2.83587 -0.0031,-3.92333 l 1.932898,-1.96217 c 0.535343,-0.54383 1.233925,-0.81642 1.933318,-0.81689 z m 77.225723,-0.2221 0.002,-7.7e-4 c 0.6994,-1.3e-4 1.3982,0.27107 1.93466,0.81408 l 10e-4,-1e-5 3.84041,3.88722 c 1.07315,1.08588 1.07404,2.83588 0.003,3.92334 l -1.93289,1.96217 c -1.07069,1.08765 -2.79682,1.09018 -3.86975,0.004 l -3.84039,-3.88721 c -1.07314,-1.08587 -1.07362,-2.83588 -0.003,-3.92334 l 1.9328,-1.96405 c 0.53536,-0.54384 1.23392,-0.81551 1.93331,-0.81598 z m -84.958144,8.07352 c 0.699576,-1.3e-4 1.399968,0.27083 1.936447,0.81404 l 3.839547,3.88721 c 1.073141,1.08587 1.074909,2.83587 0.004,3.92331 l -1.932905,1.96218 c -1.070687,1.08766 -2.797689,1.0898 -3.870625,0.004 l -3.839556,-3.88721 c -1.07313,-1.08586 -1.07397,-2.83587 -0.0031,-3.92333 l 1.932883,-1.96216 c 0.535344,-0.54382 1.233728,-0.8172 1.933299,-0.81779 z m 77.226614,-0.2212 c 0.6994,-0.001 1.3991,0.27103 1.93556,0.81405 l 3.84042,3.88724 c 1.07313,1.08585 1.074,2.83494 0.003,3.9224 l -1.93293,1.96306 c -1.0707,1.08766 -2.7959,1.08884 -3.86884,0.003 l -3.84043,-3.88724 c -1.07314,-1.08587 -1.07487,-2.83586 -0.004,-3.92334 l 1.93289,-1.96217 c 0.53533,-0.54382 1.23482,-0.81641 1.93421,-0.81688 z m -7.73145,7.85237 c 0.69957,-1.4e-4 1.39907,0.27083 1.93554,0.81404 l 3.84043,3.8854 c 1.07313,1.08586 1.0736,2.83676 0.003,3.92426 l -1.93291,1.96303 c -1.07069,1.08766 -2.79681,1.08803 -3.86975,0.002 l -3.84041,-3.88722 c -1.07311,-1.08583 -1.07402,-2.83495 -0.003,-3.92242 l 1.93293,-1.96306 c 0.53533,-0.54381 1.23462,-0.81536 1.93421,-0.81597 z m -7.73149,7.85141 c 0.69937,-0.001 1.39816,0.27104 1.93463,0.81407 l 3.84046,3.88628 c 1.07313,1.08586 1.07403,2.83586 0.003,3.92333 l -1.93293,1.96305 c -1.07069,1.08766 -2.79678,1.08894 -3.86973,0.003 l -3.84042,-3.88723 c -1.07312,-1.08584 -1.07402,-2.83496 -0.003,-3.92241 l 1.9328,-1.96405 c 0.53534,-0.54383 1.23572,-0.81553 1.93513,-0.81598 z m -7.73246,7.85139 c 0.69939,-0.001 1.39817,0.27104 1.93464,0.81407 l 3.84042,3.88723 c 1.07312,1.08585 1.07487,2.83495 0.004,3.92243 l -1.93375,1.96218 c -1.07071,1.08768 -2.7959,1.08976 -3.86885,0.004 l -3.84042,-3.88723 c -1.07313,-1.08586 -1.07395,-2.83498 -0.003,-3.92244 l 1.93279,-1.96404 c 0.53534,-0.54382 1.23484,-0.81554 1.93423,-0.81597 z m -7.73244,7.85138 c 0.69939,-1.3e-4 1.39818,0.27103 1.93465,0.81407 l 3.84042,3.88724 c 1.07313,1.08585 1.07483,2.83496 0.004,3.9224 l -1.93281,1.96406 c -1.07068,1.08765 -2.79681,1.08795 -3.86976,0.002 l -3.84043,-3.88725 c -1.07314,-1.08586 -1.07399,-2.83494 -0.003,-3.92241 l 1.93293,-1.96306 c 0.53533,-0.54381 1.23481,-0.81642 1.93418,-0.81688 z m -7.73147,7.85238 c 0.69958,-1.3e-4 1.39818,0.27084 1.93466,0.81407 l 3.84041,3.88538 c 1.07314,1.08587 1.07381,2.83769 0.003,3.92515 l -1.93289,1.96217 c -1.0707,1.08767 -2.79591,1.088 -3.86884,0.002 l -3.84041,-3.88638 c -1.07313,-1.08586 -1.07489,-2.83585 -0.004,-3.92332 l 1.93288,-1.96216 c 0.53535,-0.54383 1.23552,-0.81629 1.93511,-0.8169 z"
       id="rect5116"
       inkscape:connector-curvature="0" />
    <path
       inkscape:connector-curvature="0"
       id="path4522"
       d="m 70.479127,17.578516 v 0.268298 H 70.44938 V 73.449532 A 27.695573,17.797156 0 0 0 60.447792,72.227279 27.695573,17.797156 0 0 0 32.753257,90.024536 27.695573,17.797156 0 0 0 60.447792,107.82178 27.695573,17.797156 0 0 0 88.142334,90.024536 27.695573,17.797156 0 0 0 87.600783,86.601224 V 35.375749 H 106.07374 V 17.578516 Z"
       style="opacity:1;fill:#3465a4;fill-opacity:1;fill-rule:nonzero;stroke:none;stroke-width:6.72344255;stroke-linecap:square;stroke-linejoin:round;stroke-miterlimit:4;stroke-dasharray:none;stroke-dashoffset:0;stroke-opacity:1;paint-order:stroke fill markers" />
    <path
       style="opacity:0.53299997;fill:#3465a4;fill-opacity:1;fill-rule:nonzero;stroke:none;stroke-width:5.22151423;stroke-linecap:square;stroke-linejoin:round;stroke-miterlimit:4;stroke-dasharray:none;stroke-dashoffset:0;stroke-opacity:1;paint-order:stroke fill markers"
       d="m 134.05167,25.737668 v 0.208363 h -0.0231 V 69.127838 A 21.508748,13.821507 0 0 0 126.2612,68.17862 21.508748,13.821507 0 0 0 104.75326,82.000204 21.508748,13.821507 0 0 0 126.2612,95.82178 21.508748,13.821507 0 0 0 147.76915,82.000204 21.508748,13.821507 0 0 0 147.34857,79.341616 V 39.559234 h 14.34635 V 25.737668 Z"
       id="path4524"
       inkscape:connector-curvature="0" />
    <path
       style="opacity:0.15;fill:#3465a4;fill-opacity:1;fill-rule:nonzero;stroke:none;stroke-width:4.23640108;stroke-linecap:square;stroke-linejoin:round;stroke-miterlimit:4;stroke-dasharray:none;stroke-dashoffset:0;stroke-opacity:1;paint-order:stroke fill markers"
       d="m 193.05461,48.960039 v 0.169052 h -0.0187 v 35.034941 a 17.450815,11.213881 0 0 0 -6.30194,-0.770134 17.450815,11.213881 0 0 0 -17.45016,11.213944 17.450815,11.213881 0 0 0 17.45016,11.213938 17.450815,11.213881 0 0 0 17.45017,-11.213938 17.450815,11.213881 0 0 0 -0.34124,-2.157007 V 60.173968 h 11.63971 V 48.960039 Z"
       id="path4526"
       inkscape:connector-curvature="0" />
    <path
       inkscape:connector-curvature="0"
       id="path4958"
       d="m 181.92327,147.29776 -19.50382,75.09189 26.53926,7.19695 19.45895,-74.91771 z"
       style="display:inline;opacity:0.69452455;fill:url(#linearGradient4962);fill-opacity:1;stroke:none;stroke-width:0.34020936" />
    <path
       inkscape:connector-curvature="0"
       id="path4960"
       d="m 173.24206,144.99534 -19.44329,74.85742 10.6125,2.92005 c -0.14357,-0.6519 -0.14255,-1.34526 0.0364,-2.03436 l 2.17099,-8.35791 c 0.60126,-2.31514 2.94296,-3.66968 5.2505,-3.036 l 15.36618,4.21754 c 2.30733,0.63328 3.68018,3.00695 3.07944,5.32174 l -2.17098,8.35791 c -0.18109,0.69562 -0.51988,1.3023 -0.96691,1.79561 l 10.62115,2.92235 19.40611,-74.71528 -11.53223,-3.21278 c 0.64958,1.01251 0.89484,2.27944 0.56943,3.5323 l -2.21507,8.52897 c -0.6136,2.36239 -3.00258,3.74361 -5.35697,3.09746 l -15.19617,-4.17078 c -2.3544,-0.64622 -3.75596,-3.06758 -3.14203,-5.43016 l 2.21508,-8.52895 c 0.33672,-1.29648 1.20989,-2.2942 2.31704,-2.82689 z m 1.8729,1.8187 c 0.38734,-0.22387 0.86144,-0.29783 1.33233,-0.16859 l 3.37038,0.92533 c 0.94179,0.25832 1.50251,1.22723 1.25745,2.17198 l -0.44267,1.70621 c -0.24526,0.94499 -1.20189,1.49756 -2.14378,1.23886 l -3.37036,-0.92539 c -0.94179,-0.25832 -1.50219,-1.22674 -1.25716,-2.17147 l 0.44294,-1.70572 c 0.12263,-0.4725 0.42343,-0.84753 0.81073,-1.07148 z m -1.77212,6.82323 c 0.38734,-0.22387 0.86174,-0.29734 1.33262,-0.16809 l 3.37007,0.92492 c 0.94177,0.25831 1.50203,1.22751 1.25657,2.17246 l -0.44273,1.70494 c -0.24526,0.94501 -1.20111,1.49777 -2.14279,1.23946 l -3.37035,-0.9254 c -0.94181,-0.25831 -1.50202,-1.22751 -1.25659,-2.17247 l 0.4432,-1.70523 c 0.12264,-0.4725 0.42274,-0.84645 0.81006,-1.0704 z m -1.77246,6.82272 c 0.38735,-0.22388 0.86176,-0.29733 1.33263,-0.16808 l 3.37035,0.92539 c 0.94181,0.25832 1.50271,1.22645 1.25716,2.17146 l -0.44295,1.70574 c -0.24526,0.945 -1.2016,1.49806 -2.14326,1.23972 l -3.37034,-0.92538 c -0.94183,-0.25833 -1.50174,-1.22702 -1.2563,-2.17198 l 0.44268,-1.70621 c 0.12262,-0.47251 0.42275,-0.84646 0.81004,-1.07041 z m -1.7719,6.82245 c 0.3872,-0.22379 0.86253,-0.29732 1.33313,-0.16839 l 3.36957,0.92519 c 0.94181,0.25832 1.50229,1.22734 1.25744,2.17195 l -0.44268,1.70624 c -0.24526,0.94498 -1.2014,1.49725 -2.14328,1.23858 l -3.37034,-0.9254 c -0.94181,-0.25832 -1.5027,-1.22645 -1.25716,-2.17146 l 0.44262,-1.70624 c 0.12263,-0.4725 0.42368,-0.84687 0.81103,-1.07098 z m -1.77244,6.82272 c 0.38734,-0.22389 0.86173,-0.29733 1.33263,-0.1681 l 3.37034,0.9254 c 0.94182,0.25832 1.50273,1.22643 1.25716,2.17147 l -0.44294,1.70573 c -0.24527,0.945 -1.20142,1.49837 -2.14278,1.2406 l -3.37037,-0.92541 c -0.9418,-0.25832 -1.50188,-1.22757 -1.25657,-2.17246 l 0.44294,-1.70572 c 0.12263,-0.47251 0.42246,-0.84696 0.80975,-1.0709 z m 11.22916,-5.25322 c 0.96846,-0.55976 2.15434,-0.74399 3.33153,-0.42088 l 15.19571,4.1711 c 2.35439,0.64623 3.75546,3.06787 3.14204,5.43018 l -2.21452,8.52867 c -0.61366,2.36236 -3.00308,3.7439 -5.35745,3.09774 l -15.19573,-4.17106 c -2.3544,-0.64622 -3.75596,-3.06759 -3.14203,-5.43016 l 2.21453,-8.52867 c 0.30682,-1.1812 1.05808,-2.1172 2.02644,-2.67713 z m -13.00126,12.07646 c 0.38742,-0.22377 0.86226,-0.29763 1.33313,-0.16837 l 3.37034,0.9254 c 0.94182,0.25831 1.50223,1.22672 1.25716,2.17146 l -0.44294,1.70573 c -0.24526,0.94499 -1.20141,1.49726 -2.14329,1.23859 l -3.37006,-0.92493 c -0.9418,-0.25832 -1.50298,-1.22694 -1.25744,-2.17196 l 0.44295,-1.70573 c 0.12263,-0.47249 0.42324,-0.84673 0.81053,-1.07069 z m 42.71185,-24.82375 c 0.38741,-0.22377 0.86126,-0.29706 1.33214,-0.16781 l 3.37086,0.92508 c 0.9418,0.25831 1.50173,1.22701 1.25629,2.17196 l -0.44268,1.70623 c -0.24526,0.94499 -1.2011,1.49777 -2.14277,1.23944 l -3.37086,-0.92508 c -0.94181,-0.25831 -1.50175,-1.227 -1.2563,-2.17197 l 0.44283,-1.70702 c 0.12263,-0.4725 0.42324,-0.84674 0.81053,-1.07068 z m -44.48377,31.64619 c 0.38724,-0.22431 0.862,-0.29803 1.33283,-0.16889 l 3.37035,0.9254 c 0.94182,0.25831 1.50218,1.2281 1.25688,2.17298 l -0.44321,1.70523 c -0.24526,0.945 -1.20113,1.49776 -2.14278,1.23945 l -3.37033,-0.9254 c -0.9418,-0.25832 -1.50171,-1.22701 -1.25629,-2.17195 l 0.44294,-1.70573 c 0.12263,-0.4725 0.42242,-0.84677 0.80974,-1.0709 z m 42.71164,-24.82298 c 0.38713,-0.22424 0.86096,-0.29754 1.33184,-0.16829 l 3.37084,0.92513 c 0.94181,0.25831 1.5025,1.22724 1.25745,2.17196 l -0.44294,1.70573 c -0.24526,0.94499 -1.20138,1.49728 -2.14329,1.23858 l -3.37054,-0.92466 c -0.94181,-0.25831 -1.50203,-1.22751 -1.25659,-2.17247 l 0.44321,-1.70524 c 0.12263,-0.47249 0.42294,-0.84722 0.81025,-1.07118 z m -44.48407,31.64571 c 0.38713,-0.22425 0.86226,-0.29761 1.33313,-0.16838 l 3.37035,0.9254 c 0.9418,0.25831 1.5022,1.22674 1.25716,2.17146 l -0.44315,1.70652 c -0.24527,0.94499 -1.20141,1.49729 -2.14329,1.23858 l -3.37008,-0.92493 c -0.9418,-0.25831 -1.502,-1.22751 -1.25658,-2.17246 l 0.44268,-1.70622 c 0.12263,-0.47251 0.42274,-0.84644 0.81004,-1.07041 z m 42.71193,-24.82248 c 0.38713,-0.22425 0.86127,-0.29704 1.33215,-0.16779 l 3.37105,0.92433 c 0.9418,0.25832 1.50201,1.22751 1.25657,2.17246 l -0.4432,1.70524 c -0.24527,0.94501 -1.20113,1.49774 -2.14278,1.23944 l -3.37083,-0.92513 c -0.94181,-0.25831 -1.50203,-1.22752 -1.25658,-2.17246 l 0.44321,-1.70523 c 0.12263,-0.4725 0.42322,-0.84673 0.81052,-1.07068 z m -31.50155,19.53726 c 0.94886,-0.54898 2.11136,-0.72885 3.26508,-0.41211 l 15.36669,4.21725 c 2.30729,0.63328 3.68007,3.00702 3.07943,5.32174 l -2.17098,8.35791 c -0.60127,2.31515 -2.94249,3.66938 -5.25002,3.03572 l -15.36706,-4.21733 c -2.30731,-0.63328 -3.68045,-3.00744 -3.07886,-5.32274 l 2.17077,-8.35712 c 0.30064,-1.15758 1.03638,-2.07527 1.98533,-2.62408 z m -12.9823,12.10766 3.2e-4,5.5e-4 c 0.38713,-0.22425 0.86175,-0.29734 1.33263,-0.16809 l 3.37005,0.92493 c 0.94182,0.25831 1.50252,1.22724 1.25744,2.17196 l -0.44294,1.70574 c -0.24526,0.94499 -1.20141,1.49724 -2.14328,1.23857 l -3.3704,-0.92548 c -0.9418,-0.25831 -1.50171,-1.22701 -1.25629,-2.17197 l 0.44294,-1.70571 c 0.12263,-0.47249 0.42246,-0.84695 0.80976,-1.07091 z m 42.71193,-24.82246 c 0.38697,-0.22416 0.86202,-0.29711 1.33264,-0.1681 l 3.36974,0.92444 c 0.94181,0.25831 1.50212,1.22812 1.25687,2.17296 l -0.44294,1.70573 c -0.24527,0.94499 -1.20093,1.49698 -2.1428,1.2383 l -3.37056,-0.92466 c -0.94179,-0.25831 -1.50203,-1.2275 -1.25658,-2.17247 l 0.44294,-1.70573 c 0.12263,-0.4725 0.42317,-0.8466 0.81054,-1.0707 z m -44.48406,31.64569 c 0.38741,-0.22377 0.86176,-0.29734 1.33264,-0.16809 l 3.37035,0.9254 c 0.94181,0.25832 1.503,1.22694 1.25744,2.17195 l -0.44321,1.70523 c -0.24527,0.94501 -1.2019,1.49755 -2.14379,1.23887 l -3.37004,-0.92492 c -0.94181,-0.25832 -1.50201,-1.22752 -1.25658,-2.17247 l 0.44321,-1.70523 c 0.12263,-0.4725 0.42244,-0.84695 0.80974,-1.0709 z m 42.71087,-24.82318 6.2e-4,-9.3e-4 c 0.38741,-0.22377 0.86128,-0.29703 1.33215,-0.1678 l 5.5e-4,-3.2e-4 3.37083,0.92513 c 0.94182,0.25831 1.50205,1.22751 1.25659,2.17247 l -0.4432,1.70523 c -0.24527,0.945 -1.20071,1.49849 -2.14229,1.24031 l -3.37082,-0.92512 c -0.94181,-0.25833 -1.5018,-1.22765 -1.25658,-2.17248 l 0.44255,-1.70625 c 0.12264,-0.47251 0.42274,-0.84644 0.81004,-1.07039 z m -44.48329,31.64591 c 0.38752,-0.22382 0.86219,-0.29773 1.33313,-0.16839 l 3.37035,0.9254 c 0.94181,0.25832 1.50252,1.22723 1.25745,2.17195 l -0.44321,1.70525 c -0.24527,0.945 -1.20132,1.49855 -2.14278,1.24059 l -3.37035,-0.9254 c -0.94181,-0.25831 -1.502,-1.22753 -1.25659,-2.17246 l 0.44321,-1.70523 c 0.12263,-0.47249 0.42208,-0.84731 0.80946,-1.0714 z m 42.71165,-24.82296 c 0.38713,-0.22425 0.86176,-0.29735 1.33263,-0.16811 l 3.37085,0.92514 c 0.94179,0.25831 1.50171,1.227 1.25629,2.17196 l -0.44295,1.70573 c -0.24527,0.945 -1.20062,1.49746 -2.14227,1.23916 l -3.37085,-0.92515 c -0.94181,-0.25831 -1.50249,-1.22723 -1.25745,-2.17197 l 0.4432,-1.70523 c 0.12263,-0.4725 0.42295,-0.84723 0.81025,-1.07118 z m -1.77159,6.82294 c 0.38751,-0.22383 0.86169,-0.29744 1.33263,-0.1681 l 3.37026,0.92412 c 0.9418,0.25831 1.50208,1.22814 1.25688,2.17298 l -0.44295,1.70572 c -0.24525,0.945 -1.20139,1.49729 -2.14327,1.23857 l -3.37083,-0.92512 c -0.94179,-0.25831 -1.50174,-1.227 -1.2563,-2.17197 l 0.44295,-1.70573 c 0.12263,-0.47249 0.42317,-0.84659 0.81054,-1.07069 z m -1.7719,6.82244 c 0.38712,-0.22425 0.86124,-0.29704 1.33213,-0.1678 l 3.37056,0.9246 c 0.9418,0.25832 1.50202,1.2275 1.25658,2.17246 l -0.44294,1.70574 c -0.24527,0.945 -1.20109,1.49779 -2.14278,1.23944 l -3.37084,-0.92514 c -0.9418,-0.2583 -1.50173,-1.22701 -1.25629,-2.17196 l 0.44255,-1.70624 c 0.12263,-0.4725 0.42373,-0.84703 0.81105,-1.07099 z m -1.77245,6.82273 c 0.38713,-0.22425 0.86125,-0.29705 1.33213,-0.1678 l 3.37085,0.92513 c 0.94179,0.25831 1.5022,1.22673 1.25715,2.17146 l -0.44367,1.70552 c -0.24527,0.94502 -1.20033,1.49796 -2.14178,1.24002 l -3.37085,-0.92513 c -0.9418,-0.25832 -1.5017,-1.22705 -1.25629,-2.17197 l 0.44255,-1.70624 c 0.12263,-0.4725 0.42323,-0.84675 0.81055,-1.07069 z m -1.77245,6.82271 c 0.38741,-0.22377 0.86126,-0.29704 1.33215,-0.1678 l 3.37084,0.92514 c 0.9418,0.25831 1.50218,1.22674 1.25714,2.17145 l -0.44255,1.70626 c -0.24526,0.94499 -1.20141,1.49725 -2.14329,1.23858 l -3.37085,-0.92515 c -0.94181,-0.25831 -1.50172,-1.227 -1.25629,-2.17195 l 0.44294,-1.70574 c 0.12263,-0.47248 0.42294,-0.84723 0.81024,-1.07117 z m -1.77159,6.82296 c 0.38752,-0.22383 0.8612,-0.29715 1.33215,-0.16781 l 3.37024,0.92412 c 0.94182,0.25832 1.50249,1.22859 1.25717,2.17348 l -0.44321,1.70523 c -0.24527,0.94501 -1.2009,1.49699 -2.14278,1.23829 l -3.37056,-0.92466 c -0.9418,-0.25832 -1.5025,-1.22723 -1.25745,-2.17197 l 0.44321,-1.70523 c 0.12264,-0.4725 0.42338,-0.84738 0.81074,-1.07148 z"
       style="display:inline;opacity:0.69452455;fill:#180000;fill-opacity:0.8835983;stroke:none;stroke-width:0.34515005" />
    <path
       style="display:inline;opacity:0.21;fill:url(#linearGradient4968);fill-opacity:1;stroke:none;stroke-width:0.18174657"
       d="m 200.80269,128.67586 36.05195,20.44697 7.38323,-12.69961 -35.96828,-20.39973 z"
       id="path4964"
       inkscape:connector-curvature="0" />
    <path
       style="display:inline;opacity:0.21;fill:#180000;fill-opacity:0.8835983;stroke:none;stroke-width:0.18438597"
       d="m 198.41429,132.83715 35.93932,20.38332 2.97415,-5.07248 c -0.35625,-0.0161 -0.71389,-0.11244 -1.04474,-0.30007 l -4.01264,-2.27588 c -1.11152,-0.63037 -1.4867,-2.02602 -0.84066,-3.12912 l 4.30095,-7.34606 c 0.6458,-1.10307 2.06047,-1.48328 3.17189,-0.85323 l 4.01264,2.27588 c 0.33391,0.18962 0.60012,0.44833 0.79287,0.74721 l 2.97653,-5.07662 -35.87111,-20.34448 -3.25238,5.5066 c 0.61229,-0.19519 1.29996,-0.14658 1.90147,0.19457 l 4.09482,2.32228 c 1.13419,0.64326 1.5166,2.06699 0.85765,3.19256 l -4.2533,7.2648 c -0.659,1.12556 -2.10225,1.51399 -3.23649,0.87053 l -4.09482,-2.32229 c -0.62244,-0.35301 -1.01656,-0.94153 -1.13835,-1.58649 z m 1.19743,-0.71498 c -0.0619,-0.23082 -0.0346,-0.4857 0.0972,-0.71081 l 0.94349,-1.61123 c 0.26352,-0.45027 0.84102,-0.60563 1.29465,-0.34856 l 0.81922,0.46434 c 0.45371,0.25722 0.60658,0.82726 0.34287,1.27752 l -0.94354,1.61121 c -0.26352,0.45027 -0.84072,0.60554 -1.29433,0.34847 l -0.81894,-0.46441 c -0.22686,-0.1286 -0.37879,-0.33568 -0.44081,-0.56649 z m 3.27588,1.85787 c -0.0619,-0.23083 -0.0343,-0.48578 0.0975,-0.7109 l 0.94324,-1.61112 c 0.2635,-0.45026 0.8411,-0.60535 1.29477,-0.34804 l 0.81856,0.4642 c 0.45373,0.25722 0.60681,0.82688 0.3433,1.27708 l -0.94353,1.61121 c -0.2635,0.45028 -0.84108,0.60535 -1.29476,0.34804 l -0.81865,-0.46447 c -0.22686,-0.12862 -0.37833,-0.33518 -0.44035,-0.56601 z m 3.27556,1.85797 c -0.0619,-0.23083 -0.0343,-0.48579 0.0975,-0.7109 l 0.94353,-1.61121 c 0.26351,-0.45027 0.84064,-0.60585 1.29433,-0.34848 l 0.81894,0.46442 c 0.45373,0.25723 0.60688,0.82718 0.34338,1.27737 l -0.94352,1.6112 c -0.26353,0.45028 -0.8408,0.60527 -1.29448,0.34797 l -0.81922,-0.46434 c -0.22687,-0.12861 -0.37834,-0.33519 -0.44035,-0.566 z m 3.27551,1.85765 c -0.0619,-0.23075 -0.0342,-0.48619 0.0974,-0.7112 l 0.94332,-1.61084 c 0.26351,-0.45027 0.84104,-0.60551 1.29462,-0.34855 l 0.81924,0.46434 c 0.45371,0.25722 0.6065,0.82697 0.34278,1.27723 l -0.94352,1.6112 c -0.26352,0.45027 -0.84064,0.60584 -1.29433,0.34847 l -0.81925,-0.46432 c -0.22686,-0.1286 -0.37842,-0.33571 -0.44051,-0.56657 z m 3.27557,1.85795 c -0.0619,-0.23082 -0.0343,-0.48578 0.0975,-0.71089 l 0.94353,-1.61121 c 0.26352,-0.45027 0.84064,-0.60586 1.29433,-0.34847 l 0.81895,0.46441 c 0.45372,0.25722 0.60706,0.82713 0.34389,1.27724 l -0.94353,1.61121 c -0.26352,0.45028 -0.84111,0.60527 -1.29477,0.34804 l -0.81893,-0.46441 c -0.22687,-0.12861 -0.37864,-0.3351 -0.44064,-0.56592 z m -1.15814,-6.52077 c -0.15494,-0.57714 -0.086,-1.21455 0.24346,-1.77732 l 4.25342,-7.26452 c 0.659,-1.12555 2.10232,-1.5137 3.2365,-0.87053 l 4.09473,2.32196 c 1.13417,0.64329 1.5167,2.06729 0.85773,3.19284 l -4.25339,7.26454 c -0.659,1.12555 -2.10225,1.51399 -3.23649,0.87053 l -4.09474,-2.32197 c -0.56709,-0.32164 -0.94621,-0.83872 -1.10125,-1.41583 z m 4.43402,8.37863 c -0.0619,-0.23086 -0.0343,-0.48609 0.0975,-0.7112 l 0.94352,-1.61119 c 0.26352,-0.45029 0.84072,-0.60557 1.29433,-0.34849 l 0.81895,0.46442 c 0.45371,0.25721 0.60649,0.82696 0.34279,1.27723 l -0.94325,1.61111 c -0.26352,0.45028 -0.84093,0.60593 -1.29462,0.34856 l -0.81895,-0.46442 c -0.22686,-0.1286 -0.37841,-0.33547 -0.44042,-0.56629 z m -6.90386,-25.47231 c -0.0619,-0.23085 -0.0342,-0.4855 0.0976,-0.71061 l 0.94343,-1.61151 c 0.26351,-0.45027 0.8408,-0.60527 1.29448,-0.34796 l 0.81923,0.46435 c 0.45372,0.25721 0.6068,0.82687 0.3433,1.27707 l -0.94343,1.61151 c -0.26352,0.45028 -0.8408,0.60528 -1.29448,0.34796 l -0.81963,-0.46453 c -0.22686,-0.1286 -0.37841,-0.33547 -0.44042,-0.56628 z m 10.17935,27.32996 c -0.0622,-0.23083 -0.0346,-0.48602 0.0971,-0.71111 l 0.94353,-1.61121 c 0.26351,-0.45027 0.84143,-0.60533 1.29508,-0.34812 l 0.81865,0.46448 c 0.45372,0.25723 0.60679,0.8269 0.34329,1.27709 l -0.94352,1.61119 c -0.26352,0.45027 -0.84079,0.60526 -1.29446,0.34796 l -0.81894,-0.4644 c -0.22686,-0.12862 -0.37855,-0.33506 -0.44064,-0.56592 z m -6.90349,-25.47209 c -0.0622,-0.23077 -0.0345,-0.48541 0.0973,-0.71052 l 0.94346,-1.6115 c 0.26351,-0.45027 0.84102,-0.60562 1.29463,-0.34855 l 0.81894,0.46441 c 0.45372,0.25721 0.60651,0.82695 0.34278,1.27722 l -0.94317,1.61141 c -0.26351,0.45027 -0.8411,0.60535 -1.29478,0.34804 l -0.81865,-0.46448 c -0.22685,-0.12861 -0.3787,-0.33539 -0.4407,-0.56621 z m 10.17908,27.33005 c -0.0622,-0.23077 -0.0343,-0.48609 0.0974,-0.7112 l 0.94353,-1.6112 c 0.26351,-0.45028 0.84072,-0.60555 1.29433,-0.34848 l 0.81932,0.46463 c 0.45372,0.25723 0.60651,0.82698 0.34279,1.27722 l -0.94326,1.61113 c -0.2635,0.45028 -0.84108,0.60534 -1.29476,0.34805 l -0.81923,-0.46435 c -0.22687,-0.1286 -0.37832,-0.33517 -0.44035,-0.566 z m -6.90321,-25.47218 c -0.0622,-0.23077 -0.0342,-0.4855 0.0976,-0.71061 l 0.94307,-1.61172 c 0.26352,-0.45026 0.8411,-0.60533 1.29477,-0.34802 l 0.81865,0.46447 c 0.45373,0.25723 0.60678,0.82689 0.34329,1.27708 l -0.94345,1.6115 c -0.26351,0.45027 -0.8411,0.60534 -1.29476,0.34803 l -0.81865,-0.46448 c -0.22686,-0.12861 -0.37841,-0.33546 -0.44042,-0.56628 z m 5.72596,18.95667 c -0.15209,-0.56553 -0.0841,-1.19027 0.23879,-1.74181 l 4.30087,-7.34637 c 0.64581,-1.10304 2.0605,-1.48321 3.17189,-0.85322 l 4.01265,2.27588 c 1.11151,0.63038 1.48661,2.02572 0.84058,3.12884 l -4.30096,7.34654 c -0.64581,1.10305 -2.06077,1.48334 -3.17233,0.85279 l -4.01226,-2.27567 c -0.55576,-0.31519 -0.92758,-0.82172 -1.07957,-1.38728 z m 4.45274,8.37316 3.3e-4,-9e-5 c -0.0622,-0.23077 -0.0343,-0.48578 0.0975,-0.71089 l 0.94324,-1.61113 c 0.26352,-0.45027 0.84102,-0.60563 1.29463,-0.34854 l 0.81894,0.46441 c 0.45373,0.25722 0.60649,0.82697 0.34278,1.27722 l -0.94357,1.61122 c -0.26351,0.45027 -0.8408,0.60525 -1.29448,0.34796 l -0.81892,-0.46441 c -0.22686,-0.1286 -0.37863,-0.3351 -0.44065,-0.56592 z m -6.90318,-25.47216 c -0.0621,-0.23069 -0.0341,-0.48591 0.0975,-0.71092 l 0.94295,-1.61102 c 0.26352,-0.45028 0.84142,-0.60531 1.29507,-0.34812 l 0.81894,0.46441 c 0.45372,0.25723 0.60641,0.82668 0.34271,1.27693 l -0.94318,1.61143 c -0.26351,0.45025 -0.84109,0.60534 -1.29477,0.34802 l -0.81895,-0.4644 c -0.22686,-0.12861 -0.37834,-0.33542 -0.44042,-0.5663 z m 10.17905,27.33003 c -0.0619,-0.23084 -0.0343,-0.48579 0.0975,-0.7109 l 0.94353,-1.61121 c 0.26352,-0.45027 0.84094,-0.60592 1.29463,-0.34854 l 0.81864,0.46447 c 0.45373,0.25723 0.60658,0.82726 0.34287,1.27753 l -0.94324,1.61111 c -0.26352,0.45027 -0.8411,0.60534 -1.29477,0.34804 l -0.81865,-0.46449 c -0.22686,-0.1286 -0.37863,-0.33509 -0.44064,-0.5659 z m -6.9037,-25.47172 -3.9e-4,-4.6e-4 c -0.0619,-0.23084 -0.0342,-0.4855 0.0976,-0.71061 l -9e-5,-3.2e-4 0.94345,-1.6115 c 0.26351,-0.45027 0.84109,-0.60536 1.29477,-0.34803 l 0.81865,0.46447 c 0.45372,0.25722 0.60723,0.82677 0.34381,1.27695 l -0.94345,1.61149 c -0.26352,0.45027 -0.84113,0.60521 -1.29477,0.34803 l -0.81927,-0.46428 c -0.22686,-0.12862 -0.37832,-0.33518 -0.44033,-0.56599 z m 10.17928,27.32968 c -0.062,-0.23092 -0.0344,-0.48608 0.0974,-0.7112 l 0.94352,-1.61121 c 0.26352,-0.45027 0.84102,-0.60564 1.29463,-0.34855 l 0.81866,0.46448 c 0.45372,0.25722 0.60717,0.8271 0.34389,1.27723 l -0.94353,1.61122 c -0.26351,0.45027 -0.84111,0.60532 -1.29477,0.34804 l -0.81865,-0.46448 c -0.22686,-0.12861 -0.37886,-0.33495 -0.44094,-0.56584 z m -6.90348,-25.47211 c -0.0622,-0.23077 -0.0343,-0.48579 0.0975,-0.7109 l 0.94346,-1.6115 c 0.26351,-0.45026 0.84079,-0.60526 1.29447,-0.34795 l 0.81894,0.46441 c 0.45372,0.25722 0.60672,0.82659 0.34322,1.27678 l -0.94347,1.6115 c -0.2635,0.45028 -0.841,0.60563 -1.29463,0.34855 l -0.81865,-0.46446 c -0.22686,-0.12862 -0.3787,-0.3354 -0.44071,-0.56622 z m 3.2758,1.85756 c -0.062,-0.23091 -0.0343,-0.48577 0.0975,-0.71091 l 0.94285,-1.61133 c 0.26352,-0.45027 0.84144,-0.60529 1.29508,-0.34812 l 0.81894,0.46442 c 0.45372,0.25721 0.60651,0.82696 0.34278,1.2772 l -0.94344,1.6115 c -0.26352,0.45026 -0.8408,0.60527 -1.29449,0.34796 l -0.81893,-0.46441 c -0.22686,-0.12861 -0.37835,-0.33542 -0.44043,-0.5663 z m 3.2755,1.85764 c -0.0622,-0.23076 -0.0342,-0.48548 0.0976,-0.7106 l 0.94315,-1.61143 c 0.26351,-0.45026 0.84109,-0.60534 1.29476,-0.34803 l 0.81895,0.46441 c 0.45372,0.25722 0.60681,0.82688 0.34329,1.27708 l -0.94346,1.6115 c -0.2635,0.45027 -0.84079,0.60526 -1.29447,0.34795 l -0.81926,-0.46428 c -0.22686,-0.1286 -0.37848,-0.33577 -0.44051,-0.5666 z m 3.27557,1.85797 c -0.0622,-0.23077 -0.0342,-0.48549 0.0976,-0.71061 l 0.94346,-1.61149 c 0.26351,-0.45027 0.84071,-0.60555 1.29433,-0.34847 l 0.81873,0.46475 c 0.45373,0.25723 0.607,0.82651 0.34374,1.27665 l -0.94346,1.6115 c -0.26351,0.45027 -0.84081,0.60525 -1.29447,0.34796 l -0.81926,-0.46428 c -0.22687,-0.12861 -0.37842,-0.33548 -0.44043,-0.5663 z m 3.27557,1.85797 c -0.0619,-0.23086 -0.0342,-0.4855 0.0976,-0.71062 l 0.94346,-1.61149 c 0.26351,-0.45027 0.84072,-0.60554 1.29433,-0.34847 l 0.81926,0.46428 c 0.45372,0.25722 0.60649,0.82696 0.34278,1.27723 l -0.94347,1.61149 c -0.26351,0.45028 -0.84078,0.60527 -1.29446,0.34796 l -0.81895,-0.4644 c -0.22684,-0.12861 -0.37871,-0.3354 -0.4407,-0.56621 z m 3.2758,1.85755 c -0.062,-0.23092 -0.0342,-0.48548 0.0976,-0.71062 l 0.94285,-1.61132 c 0.26352,-0.45028 0.84172,-0.60544 1.29538,-0.34821 l 0.81865,0.46449 c 0.45372,0.25722 0.60642,0.82667 0.3427,1.27692 l -0.94317,1.61142 c -0.26352,0.45026 -0.84102,0.60563 -1.29464,0.34855 l -0.81865,-0.46448 c -0.22686,-0.12861 -0.37872,-0.33564 -0.4408,-0.5665 z"
       id="path4966"
       inkscape:connector-curvature="0" />
  </g>
</svg>
