<?xml version="1.0" encoding="UTF-8" standalone="no"?>
<svg
   xmlns:dc="http://purl.org/dc/elements/1.1/"
   xmlns:cc="http://creativecommons.org/ns#"
   xmlns:rdf="http://www.w3.org/1999/02/22-rdf-syntax-ns#"
   xmlns:svg="http://www.w3.org/2000/svg"
   xmlns="http://www.w3.org/2000/svg"
   xmlns:sodipodi="http://sodipodi.sourceforge.net/DTD/sodipodi-0.dtd"
   xmlns:inkscape="http://www.inkscape.org/namespaces/inkscape"
   viewBox="0 0 22 22"
   version="1.1"
   id="svg8"
   sodipodi:docname="view-categories-incomes-b.svg"
   inkscape:version="0.92.4 (5da689c313, 2019-01-14)">
  <metadata
     id="metadata12">
    <rdf:RDF>
      <cc:Work
         rdf:about="">
        <dc:format>image/svg+xml</dc:format>
        <dc:type
           rdf:resource="http://purl.org/dc/dcmitype/StillImage" />
        <dc:title></dc:title>
      </cc:Work>
    </rdf:RDF>
  </metadata>
  <sodipodi:namedview
     pagecolor="#ffffff"
     bordercolor="#666666"
     borderopacity="1"
     objecttolerance="10"
     gridtolerance="10"
     guidetolerance="10"
     inkscape:pageopacity="0"
     inkscape:pageshadow="2"
     inkscape:window-width="807"
     inkscape:window-height="480"
     id="namedview10"
     showgrid="false"
     inkscape:zoom="10.727273"
     inkscape:cx="0.74576271"
     inkscape:cy="11"
     inkscape:window-x="0"
     inkscape:window-y="0"
     inkscape:window-maximized="0"
     inkscape:current-layer="svg8" />
  <defs
     id="defs3051">
    <style
       type="text/css"
       id="current-color-scheme">
      .ColorScheme-Text {
        color:#eff0f1;
      }
      </style>
  </defs>
  <path
     style="fill:#232629;fill-opacity:1;stroke:none"
     d="M 3 3 L 3 4 L 3 6 L 4 6 L 4 4 L 18 4 L 18 9 L 19 9 L 19 3 L 3 3 z M 3 7 L 3 8 L 3 19 L 4 19 L 9 19 L 9 18 L 4 18 L 4 8 L 12 8 L 12 9 L 13 9 L 13 7 L 3 7 z M 5 10 L 5 11 L 9 11 L 9 10 L 5 10 z M 5 13 L 5 14 L 7 14 L 7 13 L 5 13 z M 5 15 L 5 16 L 9 16 L 9 15 L 5 15 z "
     class="ColorScheme-Text"
     id="path4" />
  <path
     style="fill:#2ecc71;fill-opacity:1;stroke:none"
     d="M 10 10 L 10 11 L 10 19 L 11 19 L 18 19 L 19 19 L 19 11 L 19 10 L 10 10 z M 11 11 L 18 11 L 18 18 L 11 18 L 11 11 z M 12 12 L 12 14 L 17 14 L 17 12 L 12 12 z M 14 15 L 14 16 L 15 16 L 15 15 L 14 15 z M 16 15 L 16 16 L 17 16 L 17 15 L 16 15 z "
     id="path6" />
</svg>
